<svg xmlns="http://www.w3.org/2000/svg" viewBox="0 0 400 400"><defs><linearGradient id="a" x1="85" x2="315" y1="202" y2="202" gradientTransform="matrix(1 0 0 -1 0 401)" gradientUnits="userSpaceOnUse"><stop offset="0" stop-color="#bb5fff"/><stop offset="1" stop-color="#4338ca"/></linearGradient><linearGradient id="b" x1="132.9" x2="279.7" y1="141.3" y2="141.3" gradientTransform="matrix(1 0 0 -1 0 401)" gradientUnits="userSpaceOnUse"><stop offset="0" stop-color="#bb5fff"/><stop offset="1" stop-color="#7e31ff"/></linearGradient><linearGradient id="c" x1="211" x2="294.4" y1="277.4" y2="277.4" gradientTransform="matrix(1 0 0 -1 0 401)" gradientUnits="userSpaceOnUse"><stop offset="0" stop-color="#bb5fff"/><stop offset="1" stop-color="#7e31ff"/></linearGradient></defs><circle cx="200" cy="200" r="200" fill="#222e56"/><circle cx="200" cy="200" r="200" fill="#0f113a"/><path fill="url(#a)" d="M294.4 221.2c0 1.8 1 3.4 2.5 4.2l11.1 6c3.2 1.7 7.1-.6 7.1-4.2v-91.8c0-1.7-.9-3.3-2.4-4.2L202.8 67.1c-1.5-.9-3.4-.9-4.9 0l-6 3.6-104.5 60.2c-1.5.9-2.4 2.4-2.4 4.2v128c0 1.7.9 3.3 2.5 4.2l5.6 3.1c1.5.8 3.3.8 4.8 0l25.4-14.9 4.7-2.8 69.9-41c1-.6 2.2-.8 3.4-.6.2 0 .4 0 .5.1.1 0 .3 0 .4.2.2 0 .4.2.5.3l74.6 43.7c3.2 1.9 3.2 6.5 0 8.3l-74.7 43.1c-1.5.9-3.3.9-4.8 0l-64.9-37.5c-1.3-.4-2.7-.2-3.9.5l-11.3 6.8c-3.2 1.9-3.1 6.5 0 8.3l80.1 45.9c1.5.9 3.3.8 4.8 0l110-63.5c1.5-.9 2.4-2.4 2.4-4.2v-6.5c0-1.7-.9-3.3-2.4-4.2l-100-57.7c-1.5-.9-2.4-2.5-2.4-4.2l.7-78.4V104.4c0-3.7 4-6 7.2-4.1l73.8 42.5c1.5.9 2.4 2.4 2.4 4.2v74.1Zm-106.7-26.6-41.5 24-33 19.4c-3.2 1.9-7.2-.4-7.2-4.1v-87.5c.2-1.6 1.1-2.8 2.3-3.5l73.8-42.5c3.2-1.8 7.2.4 7.2 4.1v.8h.2v19.4l.5 65.7c0 1.7-.9 3.3-2.4 4.2Z"/><path fill="url(#b)" d="m277.3 263.8-74.7 43.1c-1.5.9-3.3.9-4.8 0l-64.9-37.5c.4.1.7.2 1 .4l64 37c1.5.9 3.3.9 4.8 0l74.3-43c3.2-1.8 3.2-6.4 0-8.3l-74.3-43.7 74.6 43.7c3.2 1.9 3.2 6.5 0 8.3Z"/><path fill="url(#c)" d="M294.4 147.1v.4c0-1.7-.9-3.3-2.4-4.1l-73.8-42.8c-3.2-1.9-7.2.4-7.2 4.1 0-3.8 4-6.1 7.2-4.3l73.8 42.5c1.5.9 2.4 2.4 2.4 4.2Z"/></svg>