<?xml version="1.0" encoding="UTF-8"?><svg id="Layer_1" xmlns="http://www.w3.org/2000/svg" viewBox="0 0 1080.49 1080.49"><defs><style>.cls-1{fill:#fff;}.cls-1,.cls-2{stroke-width:0px;}.cls-2{fill:#0e1326;}</style></defs><circle class="cls-2" cx="540.25" cy="540.25" r="540.25"/><path class="cls-1" d="m944.01,431.62l-84.47-130.55c-3.01-4.66-8.64-6.9-14.03-5.6l-301.22,129.98c-2.02.49-4.12.49-6.14,0l-301.22-129.98c-5.39-1.3-11.02.94-14.03,5.6l-84.47,130.55c-2.95,4.57-2.77,10.49.47,14.86l321.16,433.78c2.46,3.32,6.35,5.29,10.49,5.29h17.23c9.71,0,16.02-10.23,11.66-18.91l-205.85-409.76c-5.18-10.31,4.59-21.78,15.6-18.31l228.1,129.19c2.56.81,5.31.81,7.87,0l228.1-129.19c11.01-3.48,20.78,7.99,15.6,18.31l-205.85,409.76c-4.36,8.68,1.95,18.91,11.66,18.91h17.23c4.14,0,8.03-1.96,10.49-5.29l321.16-433.78c3.24-4.37,3.42-10.29.47-14.86Z"/><path class="cls-1" d="m797.17,263.68l-252.63,95.1c-2.85.43-5.75.42-8.59-.03l-240.57-95.07c-2.98-.47-3.03-4.75-.06-5.28l240.04-43.21c3.23-.58,6.53-.59,9.77-.04l252.09,43.24c3,.51,2.95,4.84-.05,5.29Z"/></svg>