<svg xmlns="http://www.w3.org/2000/svg" viewBox="0 0 400 400"><defs><clipPath id="a"><circle cx="200" cy="200" r="200" fill="none"/></clipPath><clipPath id="b"><circle cx="200" cy="200" r="200" fill="#fff" clip-path="url(#a)"/></clipPath></defs><circle cx="200" cy="200" r="200" fill="#fff"/><g clip-path="url(#b)"><path fill="#b1b1b1" d="m200 83.96 51.09 102.18L200.01 31v-.02 52.98Z"/><path fill="#575757" d="M341.91 314.79 200.01 31l51.08 155.14 90.82 128.65Z"/><path fill="#353535" d="m251.09 186.13 51.09 102.19 39.74 26.49-90.83-128.67Z"/><path fill="#575757" d="m200 288.32 141.91 26.49-39.74-26.49H199.99ZM97.82 288.32l-39.74 26.49 141.91-26.49H97.81Z"/><path fill="#3a3a3a" d="M58.09 314.81h283.83l-141.91-26.49L58.1 314.81Z"/><path fill="#dedede" d="M251.09 186.13 200 83.95v52.98l51.09 49.19Z"/><path fill="#575757" d="m262.44 261.83 39.74 26.49-51.09-102.18 11.35 75.69ZM262.44 261.83H137.55l62.44 26.49 62.44-26.49h.01Z"/><path fill="#6a6a6a" d="m137.56 261.83-39.74 26.49H200l-62.44-26.49ZM200 136.95l62.44 124.89-11.35-75.69L200 136.96Z"/><path fill="#363636" d="M262.44 261.83 200 288.32h102.18l-39.74-26.49Z"/><path fill="#dedede" d="m200 136.95-49.9 99.81c29.84-4.21 61.06-15.18 81.54-36.54L200 136.95Z"/><path fill="#c5c5c5" d="M231.64 200.22c-20.49 21.35-51.7 32.32-81.54 36.54l-12.54 25.07h124.89l-30.8-61.61h-.01Z"/><path fill="#dedede" d="M200 83.96V30.98l-51.09 155.15L200 83.97Z"/><path fill="#b1b1b1" d="M148.91 186.13 200 30.98 58.09 314.81l90.82-128.66v-.02Z"/><path fill="#6a6a6a" d="m97.82 288.32 51.09-102.18-90.83 128.67 39.74-26.49Z"/><path fill="#b1b1b1" d="M200 136.95V83.97l-51.09 102.16L200 136.94Z"/><path fill="#6a6a6a" d="M137.56 261.83 200 136.94l-51.09 49.19-11.35 75.69Z"/><path fill="#b1b1b1" d="m137.56 261.83 11.35-75.69-51.09 102.19 39.74-26.49Z"/></g></svg>