<?xml version="1.0" encoding="UTF-8"?>
<!DOCTYPE svg PUBLIC "-//W3C//DTD SVG 1.1//EN" "http://www.w3.org/Graphics/SVG/1.1/DTD/svg11.dtd">
<svg xmlns="http://www.w3.org/2000/svg" version="1.1" width="1080px" height="1080px" style="shape-rendering:geometricPrecision; text-rendering:geometricPrecision; image-rendering:optimizeQuality; fill-rule:evenodd; clip-rule:evenodd" xmlns:xlink="http://www.w3.org/1999/xlink">
<g><path style="opacity:0.998" fill="#ff9d00" d="M 505.5,-0.5 C 528.167,-0.5 550.833,-0.5 573.5,-0.5C 722.091,11.5479 846.258,72.5479 946,182.5C 1025.71,275.291 1070.21,382.957 1079.5,505.5C 1079.5,528.167 1079.5,550.833 1079.5,573.5C 1067.45,722.091 1006.45,846.258 896.5,946C 803.714,1025.7 696.047,1070.2 573.5,1079.5C 550.833,1079.5 528.167,1079.5 505.5,1079.5C 356.904,1067.45 232.738,1006.45 133,896.5C 53.2942,803.709 8.79418,696.043 -0.5,573.5C -0.5,550.833 -0.5,528.167 -0.5,505.5C 11.5479,356.909 72.5479,232.742 182.5,133C 275.291,53.2942 382.957,8.79418 505.5,-0.5 Z"/></g>
<g><path style="opacity:1" fill="#fffefe" d="M 216.5,516.5 C 214.901,516.768 213.568,516.434 212.5,515.5C 222.72,512.889 233.054,510.722 243.5,509C 299.955,500.793 356.289,492.126 412.5,483C 413.667,481.833 414.833,480.667 416,479.5C 425.156,445.877 434.156,412.21 443,378.5C 445.97,370.839 444.803,364.006 439.5,358C 422.049,348.388 404.382,341.054 386.5,336C 450.529,326.239 514.862,323.239 579.5,327C 580.804,327.804 581.471,328.971 581.5,330.5C 570.339,374.143 559.339,417.81 548.5,461.5C 601.833,464.586 653.166,456.086 702.5,436C 725.942,425.558 743.109,408.725 754,385.5C 763.827,355.65 756.327,331.15 731.5,312C 712.624,299.397 692.291,289.73 670.5,283C 628.73,270.747 586.063,264.08 542.5,263C 456.189,260.513 371.189,269.846 287.5,291C 260.481,298.784 233.981,307.95 208,318.5C 206.513,317.747 206.346,316.914 207.5,316C 253.594,287.791 302.594,265.791 354.5,250C 438.793,223.396 525.126,209.562 613.5,208.5C 666.007,207.463 717.34,214.63 767.5,230C 800.223,239.933 828.389,257.1 852,281.5C 889.861,332.516 889.861,383.516 852,434.5C 835.915,453.443 817.081,468.943 795.5,481C 792.79,482.46 792.124,484.46 793.5,487C 839.385,503.552 870.552,534.718 887,580.5C 897.871,643.223 878.705,694.723 829.5,735C 783.536,770.312 732.203,794.978 675.5,809C 590.674,831.175 504.674,837.175 417.5,827C 340.008,818.043 264.342,801.043 190.5,776C 188.729,775.465 188.396,774.631 189.5,773.5C 292.836,800.126 396.503,801.293 500.5,777C 563.109,763.848 622.109,741.515 677.5,710C 709,690.5 734.5,665 754,633.5C 761.404,611.182 757.071,591.515 741,574.5C 724.734,559.606 706.234,548.106 685.5,540C 637.232,520.979 587.232,509.145 535.5,504.5C 523.985,551.892 512.152,599.226 500,646.5C 495.771,662.19 500.938,673.357 515.5,680C 518.5,681 521.5,682 524.5,683C 535.246,684.749 545.912,686.749 556.5,689C 478.574,705.843 399.741,715.343 320,717.5C 314.5,717.333 309,717.167 303.5,717C 326.397,713.138 345.564,702.638 361,685.5C 362.92,682.661 364.587,679.661 366,676.5C 381.462,618.652 396.295,560.652 410.5,502.5C 345.85,507.387 281.183,512.054 216.5,516.5 Z"/></g>
<g><path style="opacity:1" fill="#ffdea9" d="M 212.5,515.5 C 213.568,516.434 214.901,516.768 216.5,516.5C 214.034,517.634 211.367,517.801 208.5,517C 209.563,515.812 210.897,515.312 212.5,515.5 Z"/></g>
</svg>
