<svg xmlns="http://www.w3.org/2000/svg" viewBox="0 0 400 400"><defs><clipPath id="a"><circle cx="200" cy="200" r="200" fill="none"/></clipPath></defs><g clip-path="url(#a)"><path fill="#0065b3" d="M0 0h400v400H0V0Z"/><path fill="#fff" d="M186.11 277c-20.84 29.93-51.78 40.93-62.51 29.93-9.22-9.47-7.8-34.29 7.89-65.56-29.02-31.67-26.87-80.87 4.8-109.89 24.77-22.7 61.31-26.93 90.6-10.49 16.07-13.98 31.24-25.16 42.56-32.11-3.56 3.67-7.84 7.87-12.62 12.6-6.98 6.89-15.04 14.8-23.47 23.56 34.14 23.72 43.56 70.11 21.38 105.27 41.11 12.4 107.78 16.76 107.78 16.76l-127 4.09a77.374 77.374 0 0 1-46.62 15.51 77.453 77.453 0 0 1-44.51-14c-11.38 28.96-6.11 40 4.22 41.44 11.47 1.6 29.18-8.56 37.51-17.11Zm-39.64-29.4a72.063 72.063 0 0 0 42.42 13.71c14.51 0 28-4.27 39.33-11.6L200 200.04s18.67 16 41.67 25.64c2.42 1.02 5.02 2 7.78 2.93 21.74-33.05 12.9-77.44-19.84-99.64a470.012 470.012 0 0 0-35.16 41.13l-1.44 1.93c-19.2 25.67-30.87 41.27-44.4 70.76-.73 1.59-1.44 3.19-2.13 4.8Zm-12.34-11.29c1.89-3.47 3.93-7.02 6.16-10.62 15.89-25.73 25.64-40.96 45.82-64.11 11.4-13.01 23.59-25.3 36.51-36.8-35.41-18.62-79.22-5.01-97.84 30.41-13.87 26.39-10.17 58.58 9.35 81.13Z"/></g></svg>