<?xml version="1.0" encoding="UTF-8"?><svg id="Layer_1" xmlns="http://www.w3.org/2000/svg" viewBox="0 0 1080 1080"><defs><style>.cls-1{fill:#282138;}.cls-1,.cls-2,.cls-3,.cls-4{stroke-width:0px;}.cls-2{fill:#fff;}.cls-3{fill:#5a5564;}.cls-4{fill:#f09242;}</style></defs><circle class="cls-2" cx="540" cy="540" r="540"/><g id="Layer_2"><g id="Layer_1-2"><g id="Page-1"><g id="wbtc_colour"><path id="Shape" class="cls-3" d="m859.71,245.89l-27.86,27.86c137.8,150.71,137.8,381.55,0,532.26l27.86,27.86c153.31-166.31,153.31-422.32,0-588.62v.65Z"/><path id="Shape-2" class="cls-3" d="m273.87,248.31c150.71-137.8,381.55-137.8,532.26,0l27.86-27.86c-166.31-153.31-422.32-153.31-588.62,0l28.51,27.86Z"/><path id="Shape-3" class="cls-3" d="m247.78,806.29c-137.61-150.61-137.61-381.37,0-531.98l-27.86-27.86c-153.31,166.31-153.31,422.32,0,588.62l27.86-28.79Z"/><path id="Shape-4" class="cls-3" d="m805.76,832.01c-150.71,137.8-381.55,137.8-532.26,0l-27.86,27.86c166.31,153.31,422.32,153.31,588.62,0l-28.51-27.86Z"/><path id="Shape-5" class="cls-4" d="m715.59,447.3c-5.57-58.13-55.71-77.63-119.14-83.57v-80.04h-49.03v78.56h-39.19v-78.56h-48.66v80.6h-99.45v52.46s36.21-.65,35.66,0c13.56-1.49,25.91,7.99,27.86,21.54v220.63c-.28,4.64-2.41,8.91-5.94,11.98-3.44,3.06-7.99,4.64-12.63,4.27.65.56-35.66,0-35.66,0l-9.29,58.59h98.52v81.9h49.03v-80.69h39.19v80.32h49.12v-80.97c82.83-5.01,140.59-25.44,147.83-102.98,5.85-62.4-23.49-90.26-70.39-101.49,28.51-14.02,46.15-40.02,42.16-82.55Zm-68.71,174.39c0,60.91-104.37,53.95-137.61,53.95v-108.09c33.24.09,137.61-9.47,137.61,54.14Zm-22.75-152.29c0,55.71-87.1,48.94-114.77,48.94v-98.24c27.67,0,114.77-8.73,114.77,49.31Z"/><path id="Shape-6" class="cls-1" d="m539.63,1047.53c-280.15-.09-507.28-227.22-507.19-507.37.09-280.15,227.22-507.28,507.37-507.19,280.06.09,507.09,227.13,507.19,507.19.09,280.15-227.04,507.28-507.19,507.37h-.19Zm0-975c-258.14.19-467.26,209.67-467.07,467.82.19,258.14,209.67,467.26,467.82,467.07,257.96-.19,466.98-209.3,467.07-467.26.09-258.14-209.12-467.54-467.26-467.63-.19,0-.37,0-.56,0Z"/></g></g></g></g></svg>