<svg xmlns="http://www.w3.org/2000/svg" viewBox="0 0 1080 1080"><defs><style>.cls-1{fill:#f1c83a;}</style></defs><g id="Layer_2" data-name="Layer 2"><g id="coin"><circle class="cls-1" cx="540" cy="540" r="540"/><path d="M615.53,147.37C480.17,148.83,447.66,260,439.76,309.24c-76.06,10.2-108.28,42.48-122,68.15-8.52,15.92-12.33,34.19-11.66,53.36a140,140,0,0,0,14.8,57.39c-1.12,7.07-1.79,13.79-2.24,20.18-3.14,43.33,9.36,73,44.39,108.51-5.44,30,.84,89.68,48.87,115.23,1.52,3.48,3.2,7.46,4.93,11.21,8.64,18.22,20.41,33.86,56.95,38.12a14.86,14.86,0,0,1,13,16.14,14.36,14.36,0,0,1-14.35,12.55,17.81,17.81,0,0,1-1.79,0c-17.26-2-31.11-6.78-42.15-13a42.35,42.35,0,0,0-5.38,21.52c.51,22.81,18.89,47.53,57.84,47.53h88.78c32.34,0,52-16.53,52-44.39,0-27.35-9.36-52.12-25.11-67.7.11-1,.33-2.08.44-3.14v-.45a250.86,250.86,0,0,0,.9-29.6v-6.27c-1.4-33.58-10.37-72.3-38.11-106.72,14.35-67.42,2.86-116-35.87-160.52l.45-.45a15.11,15.11,0,0,1-3.59-9.41,14.14,14.14,0,0,1,26.45-7.18c40.92,48,54.71,102.4,43,170.39,22.25,31.83,32.17,65.74,35.42,97.3,1-.68,2.13-1.12,3.14-1.8,98.14-64,96.12-116,94.61-151.55v-5.38c-1.07-35.87-31.16-93-42.6-112.1a14.38,14.38,0,1,1,24.66-14.79c1.85,3.08,45.12,75.49,46.64,126v5.38c1.51,34.81,3.86,87.94-70.85,149.76,3.92,54.37,26.29,81.89,74.43,89.68,7.85,1.29,13.4,8.35,12.11,16.14a14.6,14.6,0,0,1-14.35,12.11,15.23,15.23,0,0,1-2.24,0A127.53,127.53,0,0,1,703,793.49a43,43,0,0,0-6.27,27.8c2.35,22.25,21.52,44.84,59.63,44.84h89.23c32.34,0,51.56-16.53,51.56-44.39,0-28.86-10.37-54.31-28.25-69.5-8.18-48.93-17.26-65.35-31.83-91.92l-.9-1.79c12.17-62.66-7.23-123.19-33.63-153.8,1-4.09,2.08-8.12,2.69-12.1,9-55.27-20.34-95.9-87.43-121.51,7.29-17.44,5.21-39.52-3.59-55.6a43.72,43.72,0,0,0-1.79-18.39c6.56-10.53,6.16-25.11,3.14-37.21-.45-1.74-.79-3.31-1.35-4.94C698.2,204.09,653.7,147.37,615.53,147.37Zm6.28,141.69a31.55,31.55,0,0,1,8.51.45c9.81,1.4,45.57,9.53,65.92,4.48,2.86,8.52,5.55,15.7,2.69,24.22,11.49,15.8,13.17,47.19-4,60.08,0,0-20,21.52-37.21,21.52-25.84-1.46-33.3-47.41-24.67-56.05C591.6,311.14,603,290.8,621.81,289.06ZM645.57,303a5.52,5.52,0,0,0-5.38,4.93c-1.46,5.72,7.34,14.46,18.83,20.18,0,0,4.15-7.17,17-7.17,10-1.46,15.69,2.69,15.69,2.69,5.72-5.72,5.83-12.84,5.83-15.7-2.86-4.31-7.28-2.86-13,0,1.46,0,3.14,1.63,3.14,4.49s-1.63,4-4.49,4-4-1.17-4-4c0-1.46-.11-1.68,1.34-3.14-2.85,1.46-5.71,0-7.17,0s-4.43,1.46-5.83,0l1.35,1.79c0,2.86-1.18,4-4,4s-4.48-1.18-4.48-4c0-1.46,1.23-3.14,2.69-3.14C656.78,305.2,650.17,302.51,645.57,303Zm44.84,28.7c-2.8.39-5.27,3.58-8.52,3.58-5.72,0-7.29-2.69-13-2.69s-7.18,2.86-7.18,7.18S672,348.25,672,348.25l19.73-3.14c1.46-2.86,4.66-9.7,1.8-12.56A4.75,4.75,0,0,0,690.41,331.66Zm-1.35,18.83c-12.83.73-32.28,4.93-45.73,22,0,10,8.52,14.35,8.52,14.35s7.17-31.56,50.22-35.87A63.8,63.8,0,0,0,689.06,350.49ZM290,516.39c-13.23,5.44-25.56,12.78-35,22.87-17.43,18.66-26.29,43.83-25.56,72.64C198,652.42,188.5,700.45,199.88,759c-10.54,11-20.18,28.58-20.18,42.59,0,52.13,29.76,62,48,63.23,33.34,1.45,89.9,1.34,111.2,1.34,10.92,0,19.44-3.25,25.55-9.41,9-9.08,9-20.91,9-27.8,0-16.48-9.47-33-26.9-47.53,12.33-12.61,20.34-30.16,23.76-45.29C339.94,704.71,331,660,333.05,626.69,301.66,591.83,289,559,290,516.39Z"/></g></g></svg>
