<?xml version="1.0" encoding="utf-8"?>
<!-- Generator: Adobe Illustrator 28.0.0, SVG Export Plug-In . SVG Version: 6.00 Build 0)  -->
<svg version="1.1" id="Layer_1" xmlns="http://www.w3.org/2000/svg" xmlns:xlink="http://www.w3.org/1999/xlink" x="0px" y="0px"
	 viewBox="0 0 1080 1080" style="enable-background:new 0 0 1080 1080;" xml:space="preserve">
<style type="text/css">
	.st0{fill:#FF4545;}
	.st1{fill:#1592FF;}
	.st2{fill:#2E6BD4;}
	.st3{fill:#FFFFFF;}
</style>
<circle id="bg" class="st0" cx="540" cy="540" r="540"/>
<path id="base" class="st1" d="M80.4,823.7c13.8,5.4,27.9,10.5,42.4,15.1c79.5,25.7,168.8,39.8,251.5,39.8
	c50.9,0,98.1-5.4,136.7-15.6c47.2-12.5,92.4-35.5,134.3-68.4c40.2-31.5,76.1-71.6,103.8-116c28.1-44.9,47.9-94.5,57.5-143.3
	c10.1-52,8.9-102.5-3.6-149.9c-10.6-40.1-28.3-77.8-52.5-111.9c-23.2-32.7-52-61.5-85.6-85.6c-66.4-47.7-147.6-74-228.9-74
	c-32.2,0-64,4.1-94.6,12.2c-79.9,21.1-180.5,82.7-269,164.7c-7.5,6.9-14.8,14-22,21C18.1,381.1,0,458.4,0,540
	C0,644.1,29.4,741.2,80.4,823.7z"/>
<path id="outline" d="M514.6,876.3c200.4-53,355.8-289.9,301.7-494.4C771,210.4,606.1,100.1,436,100.1c-32.8,0-65.7,4.1-98.1,12.7
	C257.4,134,158,194.3,69.5,274.7c-6.8,12.1-13.2,24.4-19.1,37c7.2-7.1,14.5-14.1,22-21c88.5-82,189.1-143.5,269-164.7
	c30.6-8.1,62.4-12.2,94.6-12.2c81.2,0,162.5,26.3,228.9,74c33.5,24.1,62.3,52.9,85.6,85.6c24.3,34.1,41.9,71.8,52.5,111.9
	c12.6,47.5,13.8,97.9,3.6,149.9c-9.5,48.9-29.4,98.4-57.5,143.3c-27.7,44.4-63.7,84.5-103.8,116c-42,32.9-87.1,55.9-134.3,68.4
	c-38.6,10.2-85.9,15.6-136.7,15.6c-82.7,0-172-14.1-251.5-39.8c-14.5-4.7-28.7-9.7-42.4-15.1c4.1,6.6,8.3,13.1,12.6,19.4
	c91.9,33.3,192.4,49.2,281.3,49.2C426.4,892.4,474.5,886.9,514.6,876.3z"/>
<path id="wing2" class="st2" d="M49.1,739.8c36.4,4.7,135.6-117.2,151.6-155.5c2-4.8,2-6.6,1.7-7.3c-0.5-1-3-1.7-6-2.5
	c-8.7-2.4-24.8-6.8-42.5-31.4c-5.3-7.3-5.3-19.6-5.3-31.6c0-12.5,0-24.2-6.2-25c-1.2-0.2-2.5-0.2-3.9-0.2
	c-29.6,0-96.5,34.6-138.3,67.2c1.6,63.7,14.2,124.7,36,181.1C40.9,737.5,45.2,739.3,49.1,739.8z"/>
<path id="wing1" d="M51.1,744.9c24.2,0,63.5-39.4,85.2-63.4c31-34.3,60.7-75.2,69.1-95.2c2.3-5.6,2.8-8.9,1.6-11.5
	c-1.5-3-4.9-4-9.2-5.1c-8.6-2.4-23.1-6.4-39.8-29.5c-4.3-6-4.3-18-4.4-28.7c0-14.7,0-28.6-10.6-30l0,0c-28.2-3.6-98,31.3-143,65.7
	c0,2.1,0.1,4.1,0.1,6.2c41.8-32.6,108.7-67.2,138.3-67.2c1.4,0,2.7,0.1,3.9,0.2c6.2,0.8,6.2,12.6,6.2,25c0,11.9,0,24.3,5.3,31.6
	c17.7,24.5,33.9,29,42.5,31.4c3,0.8,5.5,1.5,6,2.5c0.3,0.7,0.3,2.5-1.7,7.3C184.7,622.6,85.6,744.5,49.1,739.8
	c-3.9-0.5-8.2-2.2-13-5.1c0.9,2.4,1.9,4.8,2.8,7.2c3.3,1.5,6.5,2.5,9.5,2.9C49.3,744.8,50.2,744.9,51.1,744.9z"/>
<g id="head">
	<path d="M845.8,394.3c-14-21.7-15.8-43.5-3.3-67.1c10.9-20.4,9.7-42.2,0.9-63.4c-7.9-19-22.1-32.4-39.4-42.8
		c-1.9-1.1-3.6-3.5-4.2-5.6c-4.9-17.2-8.2-34.9-14.4-51.5c-15.1-40.5-44-69.1-82-88.7c-29.8-15.4-62-24.1-94.8-30.6
		c-57-11.2-113.7-9.7-170.2,3.2c-41.7,9.6-81.5,24.5-119.7,43.7c-42.1,21.2-81.5,46.4-115,79.8c-10.3,10.3-20,21.1-28.6,32.6
		c11.7-5.3,23.5-10.4,34.4-16.9c18.4-19.2,39.1-35.8,61.7-50.6c49.1-32.2,101.9-56,158.7-70.8c51.8-13.5,104.3-17.4,157.3-9.2
		c37.8,5.8,74.9,14.6,109.2,32.3c38,19.6,65.7,48.8,78.4,90.4c4.6,14.9,7.6,30.3,11,45.5c0.8,3.4,2,5.3,5.2,6.9
		c15.8,8.1,29.2,18.8,37.1,35.2c9.1,19,9.1,38.2-0.5,57c-9.6,18.6-12.1,37.7-4.9,57.7c0.2,0.6,0.2,1.3,0.4,2.1
		c-4.5,1.2-8.5,2.2-12.8,3.4c-4-12.9-8.3-25.5-22.1-32c3.8-1.9,7.1-3.2,9.9-5.2c1.2-0.9,1.3-3.3,1.9-5c-1.5,0.3-3.2,0.1-4.4,0.9
		c-11.3,6.8-23.8,7.5-36.4,6.6c-17.7-1.2-34.2-5.7-47.7-18.1c-0.3-0.3-0.9-0.4-1.4-0.6c-2.3,4.2-2.3,4.2,14,15.6
		c-18.1,13.3-30.9,31.2-42.9,49.9c-0.6-0.1-1.2-0.2-1.8-0.3c0.4-11.5,0.7-22.9,1.1-36.1c-1.9,2.4-3.5,3.5-3.8,4.9
		c-3.4,18.2-3.2,35.9,7.5,52.1c4.8,7.2,10.8,13,18.8,16.2c21.4,8.7,31.7,25.5,34.7,47.4c1.1,8.3,0,16.9,1.5,25.1
		c2.4,13.1,5.6,26.2,9.6,38.9c5.6,17.5,12.1,34.7,18.5,51.9c3,7.9,1.9,14.5-3.7,20.9c-6.4,7.3-13.5,13.5-22.4,17.8
		c-7.2,3.4-13.8,2.9-20.5-1.2c-12-7.4-23.9-15-36.3-21.7c-6.5-3.6-13.8-6.1-21-8.1c-7-1.9-12.1,0.4-14.4,4.9
		c-2.4,4.7-1.1,10.7,4,15.3c3.1,2.9,7,5,10.5,7.4c0.6-0.6,1.2-1.2,1.8-1.7c-1.2-1.7-2.2-3.6-3.6-5c-2.2-2.1-5.2-3.6-7.1-5.9
		c-1.3-1.6-2.4-4.7-1.7-6.3c0.7-1.6,4-3.4,5.7-3c5.8,1.1,12,2.1,17.1,4.8c11.8,6.4,23,13.7,34.4,20.7c3.1,1.9,6.3,3.5,9.3,5.6
		c8.1,5.8,16.2,4.4,24.2,0c12.3-6.8,22.1-16.3,29-28.5c1.5-2.7,2.2-6.8,1.3-9.6c-4.7-14.7-10.1-29.2-15.2-43.8
		c-0.9-2.6-1.8-5.1-2.7-7.7c8.6-2.3,15.3,2.1,17,11.2c1.1,6.1,1,12.3,2,18.4c0.5,3.2,1.7,6.7,3.8,9.1c16,18.1,26.2,38.9,31,62.5
		c0.4,1.9,1.2,3.6,1.9,5.4c0.6-0.1,1.1-0.2,1.7-0.3c-0.1-2.2,0.1-4.4-0.3-6.5c-4-22.7-13.8-42.7-28.7-60.2
		c-3.7-4.4-5.4-8.8-5.3-14.4c0.1-5.1-0.3-10.3-1.1-15.4c-1.9-11.6-9.2-17.2-21-16.6c-1,0-2,0.1-3.7,0.2c-3-16.3-10.4-31.5-9.9-48.7
		c0.3-9.5-1.3-19-2-28.7c17.4,5.6,34.1,1.2,50.8-3.9c-0.1-0.6-0.1-1.3-0.2-1.9c-1.8,0.3-3.6,0.5-5.4,1c-14.5,4.2-29,5.5-43.5,0.2
		c-2.3-0.8-4.2-2.5-6.3-3.8c0.2-0.5,0.4-1,0.6-1.5c3.7-0.4,7.4-0.8,11.1-1.2c29.8-3.4,52-21.8,59.2-48.9c0.6-2.3,1.3-4.7,1.3-7.1
		c0-4.9,2.5-5.2,6.6-5.1c10.3,0.2,17.7,3.5,23.1,13.5c7.8,14.4,17.7,27.7,26.7,41.5c12.6,19.1,12.4,35-1.8,54.2
		c-8.5,11.4-18.3,21.9-26.8,33.2c-14.7,19.6-23.2,41.5-20.9,66.3c1.1,11.7,3.7,23.4,6.7,34.8c9.1,34.6,18.5,69.1,28.4,103.4
		c3.8,13.2,9.2,25.9,13.6,38.8c2.8,8.2,8.3,13.7,15.8,18.1c12.5,7.3,24,16.1,33,27.6c5.8,7.4,10.3,15.5,10,25.3
		c-0.5,13.3-9,21.5-19.2,28.2c-14.9,9.8-31.7,14.5-48.4,18c-2.3-13.1-4-26-7.1-38.6c-3.6-14.7-11.1-27-26.3-32.8
		c-8.9-3.4-18.3-3.7-27.4-2.3c-11.2,1.8-22.2,4.6-33.2,7.3c-3.5,0.9-8.8,2.3-7.6,6.7c1.3,4.7,6.2,2.2,9.8,1.8
		c14.1-1.6,28.2-4.3,42.4-4.4c17-0.1,28.5,9.1,32.3,25.7c3.1,14,4,28.4,5.4,42.7c0.2,2.1-1.8,4.7-3.4,6.5
		c-16.1,19.4-37.4,30.1-61.9,32.3c-22.7,2.1-45.6,1.6-68.4,1.4c-43.1-0.5-85.7-5.3-127.2-17.3c-20.1-5.8-39.5-13.2-56.6-25.4
		c-2.7-1.9-5.4-5-6.3-8.1c-12.7-43.2-25.6-86.3-37.3-129.8c-7.1-26.4-12.1-53.3-17.9-80c-1.4-6.4-2.1-12.8-3.3-20.2
		c27.6,6.2,54.3,4.2,81-4.2c3.1,9.9,5.9,19.4,9.1,28.8c3.5,10.2,7.1,20.5,11,30.5c1.1,2.7,3.5,5,5.7,7c1.1,0.9,3.7,1.4,4.7,0.7
		c1.3-0.9,2.2-3.1,2.2-4.8c0.1-2-0.8-4-1.5-5.9c-5.4-14.5-11.1-28.8-16-43.4c-3.1-9.2-5.1-18.8-7.8-29.1
		c-12.4,7-24.6,10.9-37.5,11.9c-37.3,3-71.2-5.3-98.5-32.2c-19-18.7-24.7-42.2-20.9-68.2c0.8-5.6,2.4-11.1,3.5-16.6
		c0.7-3.4,1.7-7.5-2.7-8.7c-4.3-1.3-6.6,2.3-8,5.7c-7.9,19.5-9.2,39.4-2.5,59.4c10.5,31.5,32.7,51.7,62.9,63.9
		c3.5,1.4,4.7,3.1,5.3,6.8c3.9,24.6,7.5,49.2,12.6,73.6c4.7,22.4,10.2,44.7,16.3,66.8c6.1,22.2,12.9,44.3,20.3,66.1
		c2,6,4,12,6.1,17.9c2,5.6,3.6,11.8,6.5,17.1c4.2,7.7,11.9,12.8,19.5,16.8c8.4,4.4,17.2,8.3,26.1,11.6c1,0.4,2.1,0.8,3.1,1.1
		c10.8,3.8,22,6.9,33.1,9.6c36.2,8.8,73.1,13.1,110.2,13.3c26,0.1,52.2,2.7,78.1-1.6c29.2-4.8,53.9-17.7,72.1-41.8
		c1.3-1.7,3.6-3.2,5.7-3.7c19.6-4.7,38.7-10.7,55.3-22.8c21.4-15.7,27.7-39.2,15.6-61.6c-8.8-16.3-22.7-27.8-37.7-38
		c-6.4-4.4-14.1-7.3-16.7-15.8c-2.1-6.5-5.2-12.7-7.1-19.3c-12.5-44.5-25-89-37.1-133.6c-7.3-26.7-2.5-51.5,14.3-73.6
		c8.1-10.7,17.1-20.6,25.3-31.2c20.7-26.5,21.4-50.1,3.1-77.1C866.2,426.5,856.2,410.3,845.8,394.3z M806.3,393
		c0.3,17.2-5.6,31.9-18.6,43.5c-14.2,12.8-31.8,16.9-50.1,19.2c-1.1,0.1-2.9-0.5-3.5-1.4c-7.2-11.8-19.2-17.2-30.7-23.4
		c-3.9-2.1-7.3-4.9-11.6-7.8c12.8-11.9,27.5-18.3,42.7-24c9.4,21.8,18.9,28.8,34.3,25.4c20.5-4.5,25-11.3,24.5-37.5
		c3.4,0.3,6.9,0.1,10,1.1C804.8,388.5,806.3,391.3,806.3,393z M804,383c-42-0.1-80.5,10-114.3,35.3c-6.7-6.4-7.6-11.4-3.1-19.2
		c9.6-16.6,21.8-31.1,36.5-43.5c3.8-3.2,7.3-4.4,12.5-2.7c13.9,4.6,28.3,5.1,42.8,3.8c2.4-0.2,5.1,0.4,7.2,1.5
		C795.3,363.6,801.5,371.6,804,383z M810.3,393.1c-0.1-0.4-0.2-0.8-0.3-1.2c4.9-1.3,9.8-2.6,15.2-4c1.2,2.4,2.4,4.7,3.6,7.1
		C822.4,394.3,816.3,393.7,810.3,393.1z"/>
	<path class="st1" d="M823.2,383.6c-4.5,1.2-8.5,2.2-12.8,3.4c-4-12.9-8.3-25.5-22.1-32c3.8-1.9,7.1-3.2,9.9-5.2
		c1.2-0.9,1.3-3.3,1.9-5c-1.5,0.3-3.2,0.1-4.4,0.9c-11.3,6.8-23.8,7.5-36.4,6.6c-17.7-1.2-34.2-5.7-47.7-18.1
		c-0.3-0.3-0.9-0.4-1.4-0.6c-2.3,4.2-2.3,4.2,14,15.6c-18.1,13.3-30.9,31.2-42.9,49.9c-0.6-0.1-1.2-0.2-1.8-0.3
		c0.4-11.5,0.7-22.9,1.1-36.1c-1.9,2.4-3.5,3.5-3.8,4.9c-3.4,18.2-3.2,35.9,7.5,52.1c4.8,7.2,10.8,13,18.8,16.2
		c21.4,8.7,31.7,25.5,34.7,47.4c1.1,8.3,0,16.9,1.5,25.1c2.4,13.1,5.6,26.2,9.6,38.9c5.6,17.5,12.1,34.7,18.5,51.9
		c3,7.9,1.9,14.5-3.7,20.9c-6.4,7.3-13.5,13.5-22.4,17.8c-7.2,3.4-13.8,2.9-20.5-1.2c-12-7.4-23.9-15-36.3-21.7
		c-6.5-3.6-13.8-6.1-21-8.1c-7-1.9-12.1,0.4-14.4,4.9c-2.4,4.7-1.1,10.7,4,15.3c3.1,2.9,7,5,10.5,7.4c0.6-0.6,1.2-1.2,1.8-1.7
		c-1.2-1.7-2.2-3.6-3.6-5c-2.2-2.1-5.2-3.6-7.1-5.9c-1.3-1.6-2.4-4.7-1.7-6.3c0.7-1.6,4-3.4,5.7-3c5.8,1.1,12,2.1,17.1,4.8
		c11.8,6.4,23,13.7,34.4,20.7c3.1,1.9,6.3,3.5,9.3,5.6c8.1,5.8,16.2,4.4,24.2,0c12.3-6.8,22.1-16.3,29-28.5c1.5-2.7,2.2-6.8,1.3-9.6
		c-4.7-14.7-10.1-29.2-15.2-43.8c-0.9-2.6-1.8-5.1-2.7-7.7c8.6-2.3,15.3,2.1,17,11.2c1.1,6.1,1,12.3,2,18.4c0.5,3.2,1.7,6.7,3.8,9.1
		c16,18.1,26.2,38.9,31,62.5c0.4,1.9,1.2,3.6,1.9,5.4c0.6-0.1,1.1-0.2,1.7-0.3c-0.1-2.2,0.1-4.4-0.3-6.5
		c-4-22.7-13.8-42.7-28.7-60.2c-3.7-4.4-5.4-8.8-5.3-14.4c0.1-5.1-0.3-10.3-1.1-15.4c-1.9-11.6-9.2-17.2-21-16.6c-1,0-2,0.1-3.7,0.2
		c-3-16.3-10.4-31.5-9.9-48.7c0.3-9.5-1.3-19-2-28.7c17.4,5.6,34.1,1.2,50.8-3.9c-0.1-0.6-0.1-1.3-0.2-1.9c-1.8,0.3-3.6,0.5-5.4,1
		c-14.5,4.2-29,5.5-43.5,0.2c-2.3-0.8-4.2-2.5-6.3-3.8c0.2-0.5,0.4-1,0.6-1.5c3.7-0.4,7.4-0.8,11.1-1.2c29.8-3.4,52-21.8,59.2-48.9
		c0.6-2.3,1.3-4.7,1.3-7.1c0-4.9,2.5-5.2,6.6-5.1c10.3,0.2,17.7,3.5,23.1,13.5c7.8,14.4,17.7,27.7,26.7,41.5
		c12.6,19.1,12.4,35-1.8,54.2c-8.5,11.4-18.3,21.9-26.8,33.2c-14.7,19.6-23.2,41.5-20.9,66.3c1.1,11.7,3.7,23.4,6.7,34.8
		c9.1,34.6,18.5,69.1,28.4,103.4c3.8,13.2,9.2,25.9,13.6,38.8c2.8,8.2,8.3,13.7,15.8,18.1c12.5,7.3,24,16.1,33,27.6
		c5.8,7.4,10.3,15.5,10,25.3c-0.5,13.3-9,21.5-19.2,28.2c-14.9,9.8-31.7,14.5-48.4,18c-2.3-13.1-4-26-7.1-38.6
		c-3.6-14.7-11.1-27-26.3-32.8c-8.9-3.4-18.3-3.7-27.4-2.3c-11.2,1.8-22.2,4.6-33.2,7.3c-3.5,0.9-8.8,2.3-7.6,6.7
		c1.3,4.7,6.2,2.2,9.8,1.8c14.1-1.6,28.2-4.3,42.4-4.4c17-0.1,28.5,9.1,32.3,25.7c3.1,14,4,28.4,5.4,42.7c0.2,2.1-1.8,4.7-3.4,6.5
		c-16.1,19.4-37.4,30.1-61.9,32.3c-22.7,2.1-45.6,1.6-68.4,1.4c-43.1-0.5-85.7-5.3-127.2-17.3c-20.1-5.8-39.5-13.2-56.6-25.4
		c-2.7-1.9-5.4-5-6.3-8.1c-12.7-43.2-25.6-86.3-37.3-129.8c-7.1-26.4-12.1-53.3-17.9-80c-1.4-6.4-2.1-12.8-3.3-20.2
		c27.6,6.2,54.3,4.2,81-4.2c3.1,9.9,5.9,19.4,9.1,28.8c3.5,10.2,7.1,20.5,11,30.5c1.1,2.7,3.5,5,5.7,7c1.1,0.9,3.7,1.4,4.7,0.7
		c1.3-0.9,2.2-3.1,2.2-4.8c0.1-2-0.8-4-1.5-5.9c-5.4-14.5-11.1-28.8-16-43.4c-3.1-9.2-5.1-18.8-7.8-29.1
		c-12.4,7-24.6,10.9-37.5,11.9c-37.3,3-71.2-5.3-98.5-32.2c-19-18.7-24.7-42.2-20.9-68.2c0.8-5.6,2.4-11.1,3.5-16.6
		c0.7-3.4,1.7-7.5-2.7-8.7c-4.3-1.3-6.6,2.3-8,5.7c-7.9,19.5-9.2,39.4-2.5,59.4c10.5,31.5,32.7,51.7,62.9,63.9
		c3.5,1.4,4.7,3.1,5.3,6.8c3.9,24.6,7.5,49.2,12.6,73.6c10.3,48.6,0.3,75.7,16.7,122.6c1.8,5.2,11.1-6.3,13.5-0.3
		c-5.8-0.8-11.1-1.2-16.1-2.3c-24.9-5.3-32.8,13.6-57.7,8.7c-13.9-2.7-28.7,8.5-42.9,6.6c-0.7-0.1-1.3-0.3-1.9-0.4
		c3.9-16,8-31.8,11.5-47.6c9.7-44.2,17.5-88.6,19.4-133.9c0.4-9.2-0.4-18.5-1-27.8c-0.2-2.8,0.2-4.3,3.2-5.3
		c3.2-1.1,6.4-2.6,9.1-4.7c1.5-1.1,2.7-3.8,2.4-5.6c-0.2-1.3-3-3-4.7-3.1c-3.9-0.3-7.9-0.1-11.8,0.7c-34.3,6.7-66.2-1.1-96.9-15.7
		c-42-19.9-76.4-48.9-100.5-88.8c-11.1-18.3-20.2-37.9-28-57.9C170,464,162.3,440,156,415.8c-9.2-34.9-13.7-70.4-8.5-106.6
		c4.6-32,15.3-61.5,34-88.1c24.1-34.3,54.9-61.7,89.8-84.6c49.1-32.2,101.9-56,158.7-70.8c51.8-13.5,104.3-17.4,157.3-9.2
		c37.8,5.8,74.9,14.6,109.2,32.3c38,19.6,65.7,48.8,78.4,90.4c4.6,14.9,7.6,30.3,11,45.5c0.8,3.4,2,5.3,5.2,6.9
		c15.8,8.1,29.2,18.8,37.1,35.2c9.1,19,9.1,38.2-0.5,57c-9.6,18.6-12.1,37.7-4.9,57.7C823,382.1,823,382.8,823.2,383.6z M498.8,422
		c-2,4.4-3.6,7.5-5.1,10.8c-9.9,22.6-2,47.3,19.3,59.8c16.8,9.9,35,11.1,53.8,8.6c31.7-4.2,53.8-20.5,63.3-51.7
		c3.8-12.5,5.7-25.2-1.4-37.5c-8.3-14.4-21.6-22.7-36.4-28.9c-5.9-2.4-12.1-4.3-18-6.4c3.6-4.4,7.2-8.6,10.4-13
		c0.8-1.1,0.1-3.2,0.1-4.9c-1.5,0.8-3.2,1.2-4.3,2.3c-3.1,3.4-5.6,7.5-9,10.5c-26.6,23.7-56.3,42.1-91.2,50.9c-1.2,0.3-2,1.8-3,2.7
		c1.3,0.5,2.7,1.5,3.9,1.3C486.8,425.3,492.2,423.7,498.8,422z M742.2,676.4c-17-6.7-27.6-5.1-41.1,6.8
		c-17.9,15.7-28.7,36-36.7,58.1c-1.4,3.8,0.3,6.3,2.9,8.5c20,17.3,43,28,69.3,31.1c12.5,1.5,23.9-1.1,33.9-8.9
		c16.7-13.1,27.6-30,32.5-50.5c1.4-6,2.3-13.3,0.1-18.6c-6.1-14.1-15.4-26.3-28.2-35.4c-11.5-8.2-22.7-6-30.6,5.7
		C743.5,674.1,742.9,675.1,742.2,676.4z M396.1,326.3c-2.9-5-5.3-10.4-8.8-15c-12-15.6-27.1-27.6-43.8-37.9
		c-5-3.1-10.2-5.6-15.5-8.1c-3.4-1.6-6.6-0.5-8.3,2.9c-1.8,3.6,0.8,5.3,3.6,6.7c1.5,0.8,3.1,1.5,4.6,2.3c17.1,9,33.4,19.2,46.4,33.8
		c10.5,11.8,15.7,24.7,8.4,40.5c-3.1,6.8-5,14.2-7.5,21.4c-6.2,18.3-9.9,36.3,3.7,53.3c1.8,2.3,3,5,5,7.2c3.7,4,7.4,8.1,11.6,11.6
		c3.7,3,8.1,1.3,8.8-3.4c0.3-2.2-1.2-5.1-2.7-7.1c-3-3.9-6.9-7.2-10-11c-10.7-13.3-14.3-27.7-7.5-44.1c2.9-7,5.3-14.2,7.6-21.3
		C395.2,347.9,398,337.6,396.1,326.3z M640.3,315.8c-7-25.3-19.8-46.8-37.8-65.5c-2.1-2.2-4.5-5.2-7.8-2.8c-3.5,2.5-1.5,5.9-0.1,8.8
		c0.4,0.9,1.1,1.8,1.7,2.5c16.5,18.1,27.1,39.6,34.1,62.8c3.2,10.7,3.4,22.2,5.3,33.3c0.4,2,2.6,3.7,4,5.5c1.7-1.8,3.5-3.5,5-5.5
		c0.5-0.6,0.2-2,0-3C643.3,340,641.8,327.9,640.3,315.8z M638.2,239.1c-1.2-3.3-1.9-5.7-2.9-8.1c-9.7-21.6-22.6-41.1-37.9-59.1
		c-3.6-4.3-7.8-8.2-12.3-11.6c-3.8-2.9-8.7-0.2-8.2,4.2c0.2,1.8,1.7,3.7,3,5c17.4,17.5,32.2,37,43.3,59.1c2.8,5.6,4.5,11.9,7.2,17.6
		c0.9,1.8,3.3,3,5,4.4c1.2-1.9,2.9-3.7,3.4-5.8C639.2,242.8,638.3,240.4,638.2,239.1z M659.6,294.3c2.3,6.3,3.8,13,7,18.8
		c3.6,6.5,8.4,12.3,13.3,17.9c1.2,1.3,5.6,1.7,7.1,0.5c2.8-2.2,1.1-5.3-1-7.6c-2.6-3-5.5-5.7-7.7-8.9c-9.9-14-12.8-30.1-13.1-46.9
		c-0.2-12.8,2-25.3,6.6-37.3c0.5-1.4,0.2-4.5-0.7-4.9c-1.5-0.7-3.9-0.4-5.5,0.3c-1.4,0.6-2.8,2.2-3.4,3.7
		c-2.2,5.7-4.9,11.4-5.9,17.4C653.8,263.1,655.9,278.8,659.6,294.3z M606.4,744c0.9-0.1,1.8-0.2,2.8-0.2c-1-42.8,3.5-85,13.4-126.6
		c0.8,0.9,1.1,1.9,1.4,2.8c2.8,8,6.7,15.5,13.4,20.9c1.4,1.2,3.4,1.6,5.2,2.3c0.3-0.5,0.6-1.1,0.9-1.6c-1.8-2.2-3.7-4.3-5.4-6.6
		c-8.6-11.8-16-24-9.5-39.3c3.4-8,7.7-15.7,11.5-23.5c0.7-1.4,1.3-2.9,2-4.3c-0.5-0.4-1-0.8-1.5-1.2c-1.9,1.9-4.5,3.5-5.5,5.8
		c-5,10.9-10.6,21.6-14.1,33c-9.2,30-13.4,61-15.5,92.2c-0.9,13-0.7,26-0.7,39.1C604.6,739.2,605.7,741.6,606.4,744z M568.2,536.3
		c0.1,0.4,0.1,0.7,0.2,1.1c1.6-0.1,3.4,0.3,4.7-0.3c4.9-2.1,9.9-4,14.3-6.9c20.6-14,34.1-33.9,45.6-55.4c0.6-1.2,0.1-3,0.1-4.6
		c-1.2,0.9-2.8,1.6-3.6,2.8c-7,10.1-13.5,20.7-21,30.5c-10.2,13.3-21.7,25.2-38,31.3C569.7,535.1,569,535.8,568.2,536.3z
		 M759.5,808.9c9.9-2.6,17.5-7.6,22.9-15.6c0.9-1.3,0.6-3.3,0.8-5c-1.8,0.5-3.6,0.8-5.3,1.5c-0.7,0.3-1.2,1.2-1.7,1.8
		c-9.6,11.1-21.3,15.7-35.9,11.7c-2.6-0.7-5.4-1.4-8.1-1.6c-1.6-0.1-3.2,0.9-4.8,1.4c1.1,1.1,2,2.8,3.3,3.3
		C740.3,809.9,750.1,811.1,759.5,808.9z M466.2,470.1c0.5-0.1,1.1-0.1,1.5-0.3c2.3-1.4,4.6-2.8,6.8-4.2c-2.4-3.6-5.2-1-7.8-0.4
		c-13.4,3-26.5,2.4-39.6-1.8c-2.3-0.8-4.8-0.9-7.2-1.4c2,2,3.9,4,5.9,5.9c0.3,0.3,0.9,0.4,1.4,0.6C440,473.7,453,473.2,466.2,470.1z
		 M474.3,485.4c-2.2-0.5-3.5-1-4.7-0.9c-8.7,0.6-21.3,12.9-22.3,21.9c-0.1,1.1,0.7,2.4,1,3.6c1.1-0.6,2.8-0.9,3.2-1.8
		c4.1-9.2,10.7-15.8,20-19.8C472.4,488,472.9,486.9,474.3,485.4z"/>
	<path class="st2" d="M689.7,418.3c-6.7-6.4-7.6-11.4-3.1-19.2c9.6-16.6,21.8-31.1,36.5-43.5c3.8-3.2,7.3-4.4,12.5-2.7
		c13.9,4.6,28.3,5.1,42.8,3.8c2.4-0.2,5.1,0.4,7.2,1.5c9.6,5.4,15.8,13.4,18.3,24.7C762,382.9,723.5,392.9,689.7,418.3z"/>
	<path class="st3" d="M734.6,399.1c9.4,21.8,18.9,28.8,34.3,25.4c20.5-4.5,25-11.3,24.5-37.5c3.4,0.3,6.9,0.1,10,1.1
		c1.4,0.4,2.9,3.2,2.9,4.9c0.3,17.2-5.6,31.9-18.6,43.5c-14.2,12.8-31.8,16.9-50.1,19.2c-1.1,0.1-2.9-0.5-3.5-1.4
		c-7.2-11.8-19.2-17.2-30.7-23.4c-3.9-2.1-7.3-4.9-11.6-7.8C704.7,411.2,719.4,404.8,734.6,399.1z"/>
	<path class="st1" d="M810,391.9c4.9-1.3,9.8-2.6,15.2-4c1.2,2.4,2.4,4.7,3.6,7.1c-6.4-0.7-12.5-1.3-18.5-1.9
		C810.2,392.7,810.1,392.3,810,391.9z"/>
	<path d="M498.8,422c-6.6,1.7-12.1,3.3-17.6,4.5c-1.1,0.3-2.6-0.8-3.9-1.3c1-0.9,1.9-2.4,3-2.7c35-8.8,64.6-27.2,91.2-50.9
		c3.4-3,5.9-7.1,9-10.5c1.1-1.1,2.8-1.6,4.3-2.3c0,1.7,0.6,3.8-0.1,4.9c-3.2,4.4-6.8,8.5-10.4,13c6,2.1,12.1,3.9,18,6.4
		c14.8,6.2,28.1,14.4,36.4,28.9c7.1,12.3,5.2,25,1.4,37.5c-9.5,31.2-31.5,47.5-63.3,51.7c-18.8,2.5-37,1.3-53.8-8.6
		c-21.3-12.5-29.3-37.2-19.3-59.8C495.2,429.5,496.8,426.3,498.8,422z M537.9,440.5c-14.3,6.1-27.6,13.7-38.9,24.5
		c-1.1,1.1-1.3,4.5-0.5,6.1c3.7,7.9,9.8,13.5,17.5,17.6c15.3,8.1,31.6,9.9,48.5,8.1c29.8-3.1,50.5-18.3,60.8-46.7
		c3-8.2,4.5-16.9,2.5-26.6c-9.1,0.2-18,0.5-27,0.7c0.6,24.6-5.2,34.7-21.5,38.5C558.4,467.6,548.3,462.3,537.9,440.5z M495.5,461.6
		c37.9-32,82-44,132.2-43.1c-4-5.3-6.7-9.8-10.3-13.5c-12.5-12.6-28.5-18.7-45.1-23.4c-1.6-0.4-4,0.4-5.4,1.5
		c-15.8,12.5-32.2,24.2-50.8,31.8c-9.8,4-14.5,10.3-17.5,19.5C495.7,443.1,493.8,451.8,495.5,461.6z"/>
	<path d="M742.2,676.4c0.8-1.3,1.4-2.3,2-3.3c7.9-11.7,19.1-13.8,30.6-5.7c12.8,9.1,22.1,21.3,28.2,35.4c2.3,5.3,1.3,12.6-0.1,18.6
		c-4.9,20.5-15.8,37.5-32.5,50.5c-10,7.8-21.5,10.4-33.9,8.9c-26.3-3.1-49.3-13.8-69.3-31.1c-2.6-2.2-4.3-4.7-2.9-8.5
		c8.1-22,18.9-42.3,36.7-58.1C714.5,671.3,725.2,669.7,742.2,676.4z M671.5,746.7c2.3,2.2,3.8,3.8,5.5,5.1
		c17.9,12.8,37.8,20.7,59.8,22.7c8.3,0.8,16.4,0,24-4.1c15.8-8.6,25.9-22.2,32.7-38.3c2.9-7,4.7-14.4,7.3-22.6
		c-11.5,2.6-21.9,7.9-29.8-4c-2.9,4.3-5.6,8.6-8.5,12.7c-6,8.6-14.5,12.3-24.7,12.4c-6.6,0.1-10.1-3.1-11-9.7
		c-0.2-1.3-0.2-2.6-0.3-3.9c-0.4-0.5-0.8-1-1.2-1.5C715.3,739.6,692.6,740.4,671.5,746.7z M743.8,683.4c-21-7.9-32.9-5.4-47.5,11.9
		c-7.4,8.8-13.2,19.1-19.2,29.1c-3.1,5.1-4.8,11-7.6,17.6c13.6-2.7,26.5-4.1,36.2-12c9.3-7.7,16.6-17.7,25.4-27.3
		c0.1,5,0,9.6,0.4,14.1c0.7,8,4.9,10.6,12.3,7.8c8.4-3.3,15.1-8.6,19.5-16.6c2.7-5,5.9-9.7,9.2-15c1.3,6,1.3,13.2,8.3,14.2
		c5.6,0.8,11.5-1,18.6-1.8c-2.4-4.3-3.8-7-5.4-9.6c-6.3-9.7-13.2-18.9-23.5-24.8c-8.9-5.1-15.9-3.5-22,4.8
		C746.9,678.1,745.5,680.7,743.8,683.4z"/>
	<path d="M396.1,326.3c1.9,11.3-0.9,21.6-4.3,31.7c-2.4,7.2-4.7,14.4-7.6,21.3c-6.8,16.4-3.2,30.9,7.5,44.1c3.1,3.8,6.9,7.1,10,11
		c1.5,1.9,3,4.8,2.7,7.1c-0.6,4.8-5,6.5-8.8,3.4c-4.2-3.4-7.9-7.5-11.6-11.6c-1.9-2.1-3.2-4.9-5-7.2c-13.6-16.9-9.9-35-3.7-53.3
		c2.4-7.2,4.3-14.6,7.5-21.4c7.3-15.8,2.1-28.7-8.4-40.5c-13-14.6-29.3-24.8-46.4-33.8c-1.5-0.8-3-1.6-4.6-2.3
		c-2.8-1.4-5.4-3.1-3.6-6.7c1.7-3.4,4.9-4.5,8.3-2.9c5.3,2.5,10.6,5,15.5,8.1c16.6,10.3,31.8,22.3,43.8,37.9
		C390.8,315.9,393.2,321.3,396.1,326.3z"/>
	<path d="M640.3,315.8c1.5,12.1,3,24.1,4.5,36.2c0.1,1,0.5,2.4,0,3c-1.5,2-3.3,3.7-5,5.5c-1.4-1.8-3.7-3.5-4-5.5
		c-1.9-11.1-2.1-22.7-5.3-33.3c-6.9-23.1-17.6-44.6-34.1-62.8c-0.7-0.8-1.3-1.6-1.7-2.5c-1.4-2.9-3.4-6.3,0.1-8.8
		c3.3-2.4,5.6,0.6,7.8,2.8C620.5,269,633.3,290.6,640.3,315.8z"/>
	<path d="M638.2,239.1c0.2,1.4,1,3.7,0.5,5.7c-0.5,2.1-2.2,3.9-3.4,5.8c-1.7-1.5-4.1-2.6-5-4.4c-2.7-5.7-4.4-11.9-7.2-17.6
		c-11.1-22.1-25.9-41.6-43.3-59.1c-1.4-1.4-2.8-3.3-3-5c-0.5-4.4,4.4-7.1,8.2-4.2c4.5,3.4,8.6,7.3,12.3,11.6
		c15.3,18,28.2,37.5,37.9,59.1C636.3,233.3,637,235.8,638.2,239.1z"/>
	<path d="M659.6,294.3c-3.6-15.5-5.8-31.2-3.3-47c0.9-6,3.7-11.7,5.9-17.4c0.6-1.5,2-3.1,3.4-3.7c1.7-0.7,4-1,5.5-0.3
		c0.8,0.4,1.2,3.4,0.7,4.9c-4.6,12-6.8,24.5-6.6,37.3c0.2,16.8,3.1,32.8,13.1,46.9c2.3,3.2,5.1,6,7.7,8.9c2,2.4,3.8,5.4,1,7.6
		c-1.4,1.1-5.9,0.8-7.1-0.5c-4.9-5.6-9.7-11.4-13.3-17.9C663.4,307.3,661.8,300.6,659.6,294.3z"/>
	<path d="M606.4,744c-0.6-2.4-1.8-4.8-1.8-7.2c0-13-0.1-26.1,0.7-39.1c2.1-31.2,6.3-62.2,15.5-92.2c3.5-11.4,9.1-22.1,14.1-33
		c1.1-2.3,3.6-3.9,5.5-5.8c0.5,0.4,1,0.8,1.5,1.2c-0.7,1.4-1.3,2.9-2,4.3c-3.9,7.8-8.1,15.5-11.5,23.5c-6.5,15.3,0.9,27.5,9.5,39.3
		c1.7,2.3,3.6,4.4,5.4,6.6c-0.3,0.5-0.6,1.1-0.9,1.6c-1.7-0.8-3.8-1.2-5.2-2.3c-6.7-5.5-10.6-12.9-13.4-20.9
		c-0.3-0.9-0.6-1.9-1.4-2.8c-9.9,41.6-14.5,83.8-13.4,126.6C608.2,743.8,607.3,743.9,606.4,744z"/>
	<path d="M568.2,536.3c0.8-0.5,1.5-1.3,2.3-1.6c16.3-6.1,27.8-18,38-31.3c7.5-9.8,14-20.3,21-30.5c0.8-1.2,2.4-1.9,3.6-2.8
		c0,1.5,0.5,3.4-0.1,4.6c-11.5,21.5-25,41.4-45.6,55.4c-4.3,2.9-9.4,4.8-14.3,6.9c-1.4,0.6-3.1,0.2-4.7,0.3
		C568.4,537,568.3,536.7,568.2,536.3z"/>
	<path d="M759.5,808.9c-9.4,2.2-19.2,1-28.7-2.4c-1.3-0.5-2.2-2.2-3.3-3.3c1.6-0.5,3.2-1.5,4.8-1.4c2.7,0.2,5.4,0.9,8.1,1.6
		c14.6,4,26.3-0.6,35.9-11.7c0.6-0.6,1-1.6,1.7-1.8c1.7-0.7,3.5-1,5.3-1.5c-0.3,1.7,0,3.7-0.8,5C777,801.3,769.4,806.3,759.5,808.9z
		"/>
	<path d="M466.2,470.1c-13.1,3-26.1,3.5-38.9-1.6c-0.5-0.2-1.1-0.3-1.4-0.6c-2-1.9-3.9-3.9-5.9-5.9c2.4,0.4,4.9,0.6,7.2,1.4
		c13,4.2,26.2,4.8,39.6,1.8c2.6-0.6,5.4-3.2,7.8,0.4c-2.3,1.4-4.5,2.8-6.8,4.2C467.2,470.1,466.7,470,466.2,470.1z"/>
	<path d="M474.3,485.4c-1.3,1.5-1.9,2.6-2.7,3c-9.3,4-15.8,10.6-20,19.8c-0.4,0.9-2.1,1.2-3.2,1.8c-0.4-1.2-1.2-2.5-1-3.6
		c1-9,13.5-21.3,22.3-21.9C470.8,484.4,472,484.9,474.3,485.4z"/>
	<path class="st3" d="M537.9,440.5c10.4,21.8,20.5,27.2,41.5,22.3c16.3-3.8,22-13.8,21.5-38.5c9-0.2,17.9-0.5,27-0.7
		c2,9.7,0.5,18.3-2.5,26.6c-10.3,28.4-31,43.6-60.8,46.7c-16.9,1.8-33.3,0-48.5-8.1c-7.6-4.1-13.8-9.7-17.5-17.6
		c-0.8-1.7-0.7-5,0.5-6.1C510.2,454.1,523.6,446.5,537.9,440.5z"/>
	<path class="st2" d="M495.5,461.6c-1.7-9.8,0.1-18.5,3-27.2c3-9.2,7.7-15.5,17.5-19.5c18.6-7.6,35.1-19.3,50.8-31.8
		c1.4-1.1,3.8-2,5.4-1.5c16.6,4.7,32.7,10.7,45.1,23.4c3.6,3.6,6.3,8.2,10.3,13.5C577.6,417.6,533.4,429.5,495.5,461.6z"/>
	<path class="st2" d="M671.5,746.7c21.1-6.3,43.9-7.1,53.9-31.1c0.4,0.5,0.8,1,1.2,1.5c0.1,1.3,0.2,2.6,0.3,3.9
		c0.9,6.6,4.4,9.8,11,9.7c10.2-0.2,18.7-3.9,24.7-12.4c2.9-4.2,5.7-8.5,8.5-12.7c7.8,11.9,18.2,6.7,29.8,4
		c-2.6,8.2-4.4,15.6-7.3,22.6c-6.8,16.2-16.9,29.7-32.7,38.3c-7.5,4.1-15.6,4.9-24,4.1c-22-2-41.9-9.9-59.8-22.7
		C675.3,750.6,673.8,748.9,671.5,746.7z"/>
	<path class="st2" d="M743.8,683.4c1.7-2.7,3.1-5.3,4.8-7.6c6-8.3,13-9.8,22-4.8c10.3,5.9,17.2,15.1,23.5,24.8
		c1.6,2.5,3,5.2,5.4,9.6c-7.1,0.8-13.1,2.6-18.6,1.8c-7-1-7-8.3-8.3-14.2c-3.3,5.3-6.4,10-9.2,15c-4.4,8.1-11.1,13.3-19.5,16.6
		c-7.3,2.9-11.6,0.2-12.3-7.8c-0.4-4.5-0.3-9.1-0.4-14.1c-8.8,9.6-16.1,19.6-25.4,27.3c-9.7,8-22.6,9.3-36.2,12
		c2.8-6.5,4.6-12.4,7.6-17.6c6-10,11.8-20.2,19.2-29.1C710.8,678,722.8,675.5,743.8,683.4z"/>
</g>
</svg>
