<svg xmlns="http://www.w3.org/2000/svg" viewBox="0 0 400 400"><defs><clipPath id="a"><circle cx="200" cy="200" r="200" fill="none"/></clipPath></defs><g clip-path="url(#a)"><path fill="#fe5300" d="M0 0h400v400H0V0Z"/><path fill="#fff" d="M47.33 161.11c1.56 0 3.78 1.33 6.67 3.33 4.64 3.31 9.09 6.87 13.33 10.67a184.365 184.365 0 0 0 58.89 29.33 257.526 257.526 0 0 0 148.89-.67c12-3.78 24.89-9.11 38.22-16.44 3.33-2 5.78-2.22 7.33-.44 2.67 2.89 1.56 6.89-3.33 12.22-11.11 11.11-24.44 20.67-41.11 28A210.169 210.169 0 0 1 130 234.44a169.937 169.937 0 0 1-45.33-22.67 149.646 149.646 0 0 1-36.89-36.89 21.626 21.626 0 0 1-3.11-6.67c-.89-3.11-.44-5.33 1.33-6.67.3-.29.7-.45 1.11-.44h.22Zm248.89 6.22c14.44-11.11 30.22-14.44 47.56-9.78 5.11 1.33 8.44 3.33 10 6 1.56 2.44 2.22 6.67 1.56 12.22a61.518 61.518 0 0 1-24.67 45.33c-1.56 1.11-3.11 1.33-4.44.67-1.56-.67-2.22-2-2.22-4a15.7 15.7 0 0 1 2.44-6.67c5.46-9.54 9.36-19.89 11.56-30.67 0-2.22 0-3.56-.67-4.44-.44-.89-1.78-1.56-3.56-2.22-1.37-.46-2.78-.76-4.22-.89-8.44-.67-17.33 0-26.22 2.22-2.16.68-4.47.76-6.67.22-1.56-.67-2.67-1.78-2.67-3.56s.67-3.11 2.22-4.44Z"/></g></svg>