<?xml version="1.0" encoding="UTF-8"?><svg id="Ebene_1" xmlns="http://www.w3.org/2000/svg" xmlns:xlink="http://www.w3.org/1999/xlink" viewBox="0 0 1000 1000"><defs><linearGradient id="Unbenannter_Verlauf_4" x1="521.6" y1="-145.1" x2="1443.6" y2="-145.1" gradientTransform="translate(-92.2 1297.4) rotate(-45)" gradientUnits="userSpaceOnUse"><stop offset="0" stop-color="#2761a6"/><stop offset="1" stop-color="#65bd53"/></linearGradient></defs><circle cx="500" cy="500" r="461" style="fill:url(#Unbenannter_Verlauf_4);"/><path d="M707.14,435.18c-9.42-59.84-53.92-120.36-113.12-146.81-51.5-24.92-99.51-1.34-90.22,55.1,.45,2.95,3.36,21.31,3.85,24.55,11.31,67.8,21.9,135.71,31.91,203.6-16.34-3.61-32.3-9.98-46.51-19.24-20.2-13.38-33.93-33.09-42.86-54.71-16.95-43.28-25.38-94.43-16.39-136.7,5.05-20.28,11.74-42.4,31.23-51.5l-3.29-14.52c-16.17-2.39-31.38,4.78-42.08,14.2-6.7,5.94-12.44,12.86-17.27,20.54-5.26,8.35-9.13,17.61-11.92,27.32l-104.94,364.52h59.84l48.73-245.76c15.27,44.32,45.06,84.08,87.44,102.81,20.16,9.14,40.81,13.66,61.28,15.43,6.18,42.54,12.2,85.06,17.85,127.52h52.7c-7.75-42.57-15.27-85.14-22.61-127.72,78.82-9.19,130.1-72.44,116.38-158.62Zm-74.73,123.75c-12.92,8.17-28.48,13.18-45.06,15.18-9.47-55.6-18.52-111.21-26.88-166.82-2.57-16.8-7.69-49.83-10.38-66.28-3.88-34.3,45.37-5.67,60.35,6.94,49.58,38.27,71.15,104.01,58.07,157.15-5.46,21.9-17.5,41.61-36.11,53.83Z" style="fill:#fff;"/></svg>