<?xml version="1.0" encoding="utf-8"?>
<!-- Generator: Adobe Illustrator 27.8.0, SVG Export Plug-In . SVG Version: 6.00 Build 0)  -->
<svg version="1.1" id="Layer_1" xmlns="http://www.w3.org/2000/svg" xmlns:xlink="http://www.w3.org/1999/xlink" x="0px" y="0px"
	 viewBox="0 0 700 500" enable-background="new 0 0 700 500" xml:space="preserve">
<g id="Layer_1_00000158712666635077697390000005149053804893599405_">
	<circle fill="#00E0CA" cx="485.8" cy="250" r="214.2"/>
	<path fill="#00262F" d="M384.3,353.3c10.4-8.2,20.4-15.9,31.7-24.5c-30.8-37.1-41.7-77-30.8-120.9c7.7-31.3,25.4-56.2,52.1-74.3
		c48-32.2,116.4-23.6,151.7,19.5c-9.1,9.5-18.1,19.5-27.6,29.4c62.1,79.3,24,163.5-24.5,194.3C488.5,407.2,417.4,398.6,384.3,353.3z
		 M418.7,325.6c25.4,27.2,64.8,31.7,95.1,11.3c16.3-10.9,26.7-25.4,32.6-43.9c9.1-29.9,0.5-56.2-17.7-80.2
		c10-10.4,19-19.9,28.1-29.4c-23.1-27.2-64.8-31.7-95.1-11.3c-39.4,26.7-44.4,68.8-14.5,124.1C437.3,306.2,428.2,315.7,418.7,325.6z
		"/>
</g>
<g id="fish_token">
	<g id="fish_token_open">
		<circle fill="#233960" cx="218.8" cy="244.4" r="217.8"/>
		<g>
			<g>
				<path id="Fin_Back" fill="#1592FF" d="M116.5,259.8c-0.1,2.2-1.1,4.3-2.6,5.8c-13.8,14.5-73.2,169.1-48.9-17.5l0,0
					C30.4,65.4,98.7,210.7,115.1,227c1.9,1.9,2.9,4.3,2.7,6.9L116.5,259.8L116.5,259.8z"/>
				<path id="Body" fill="#1592FF" d="M101.3,252.6c-0.9-2.3-1.1-4.8-0.4-7.5c2-6.8,8.3-11.1,12.4-16.6c0.1-0.1,0.1-0.2,0.2-0.4
					c0.4-0.5,0.6-0.9,1-1.4c31.5-49.5,108.6-86.2,154.1-86.2c55.2,0,116.4,47.1,116.4,103.5s-67.6,104.4-122.7,104.4
					c-45.4,0-119.7-30.6-149.2-79.9c-1.2-2.1-2.6-4.1-4.2-5.8C105.9,259.7,102.8,256.4,101.3,252.6L101.3,252.6z"/>
				<path id="Fin_Side" fill="#2E6BD4" d="M215.4,232.5c3.1,1.3-1.9,9.3-0.4,13c4.3,11.1,10.8,7.6,7.6,11.9
					c-5.5,7.1-33.7,27.9-41.6,24.7c-1.2-0.5-2.4-1.6-3.6-3c-3.9-4.9-7.1-14.5-7.8-22.5c-0.1-0.8-0.1-1.6-0.1-2.4c0-0.6,0-1.1,0-1.6
					c0-3.3,0.6-6.1,1.9-7.8C176.8,237.7,207.6,229.3,215.4,232.5L215.4,232.5z"/>
			</g>
			<g>
				<g>
					<g>
						<path id="Mouth" fill="#233960" d="M341.5,253c9.9,4,16.5,22.3,8.6,32.6c-7.9,10.3-26.2,11.3-36.2,7.3
							c-9.9-4-24.7-18.3-16.8-28.6C305.1,254.1,331.6,249,341.5,253L341.5,253L341.5,253z"/>
						<ellipse id="Eyeball_Right" fill="#FFFFFF" cx="348.2" cy="223.4" rx="17.5" ry="17.1"/>
						<ellipse id="Eyeball_Left" fill="#FFFFFF" cx="292.9" cy="224.9" rx="17.5" ry="17.1"/>
					</g>
					<ellipse id="Iris_Left" cx="297.7" cy="232" rx="7.1" ry="6.8"/>
				</g>
				<ellipse id="Iris_Left-2" cx="353.4" cy="230.2" rx="7.1" ry="6.8"/>
			</g>
		</g>
	</g>
</g>
</svg>
