<?xml version="1.0" encoding="UTF-8"?>
<svg xmlns="http://www.w3.org/2000/svg" viewBox="0 0 512 512">
  <defs>
    <style>
      .cls-1, .cls-2, .cls-3 {
        stroke-width: 0px;
      }

      .cls-2, .cls-4 {
        fill: #fff;
      }

      .cls-4 {
        stroke: #000;
        stroke-miterlimit: 10;
      }

      .cls-3 {
        fill: #80011a;
      }
    </style>
  </defs>
  <g id="Ebene_2" data-name="Ebene 2">
    <ellipse class="cls-4" cx="256.3" cy="253.54" rx="117.8" ry="141.94"/>
  </g>
  <g id="Ebene_3" data-name="Ebene 3">
    <ellipse class="cls-4" cx="256.66" cy="241.98" rx="57.19" ry="23.62"/>
    <ellipse class="cls-4" cx="254.66" cy="285.77" rx="22.94" ry="10.21"/>
    <ellipse class="cls-4" cx="256.91" cy="311.99" rx="29.61" ry="16.01"/>
  </g>
  <g id="Ebene_4" data-name="Ebene 4">
    <ellipse class="cls-2" cx="254.89" cy="257.57" rx="220.33" ry="217.96"/>
  </g>
  <g id="Ebene_1" data-name="Ebene 1">
    <g>
      <path class="cls-3" d="M235,31.6c-46.2,5.7-80.5,19.1-114.7,44.6-49,36.6-82.1,95-88.2,155.7-7.6,74.7,19.8,144.6,76.4,194.5,33.9,30,76,48.3,123.3,53.7,15.1,1.7,48.8.7,62.7-1.9,59.3-10.9,106.9-40.4,143-88.7,23.3-31.2,38-68.5,42.5-108,1.3-11.6,1.3-39.4,0-51-5.6-48.9-27.2-94.8-61.4-130.2-34.5-35.9-75.4-57.5-125.2-66.4-9.1-1.6-17-2.2-33.4-2.4-11.8-.2-23.1-.1-25,.1ZM270,53v3.2l-7.2-.4-7.3-.3.2,13.2.2,13.3h-8.9v-11.8c0-6.4-.4-12.3-.9-13.1-.7-1-2.4-1.2-7.5-.6l-6.6.7v-6.1l9.3-.3c5-.2,13.6-.4,19-.6l9.7-.4v3.2ZM286.7,55.2c-.5,3-1.8,12.4-3.3,24.6l-.5,4.2-4.2-.6c-2.3-.4-4.3-.7-4.4-.8s.4-4.4,1.2-9.6c.7-5.2,1.6-12.1,2-15.3l.6-5.7h9.1l-.5,3.2ZM226.3,71c1.4,6.9,2.4,12.6,2.3,12.7s-2,.6-4.3,1.1l-4.2,1-1.1-7.2c-.7-3.9-2-10.8-3-15.2l-1.7-8.2,4.1-.9c4.8-1,4.2-2.3,7.9,16.7ZM320,59.5c8.8,3.1,15,9.9,15,16.4,0,5.4-3.4,11.4-7.9,13.9-10.8,6.1-32.6-2.3-34.7-13.4-1.4-7.7,3.6-16.4,10.8-18.6,3.2-1,11.6-.1,16.8,1.7ZM202.8,61.6c1.4,1,2.2,2.5,2.2,4.5,0,2.8-.9,4-5.5,7.3-1.8,1.3-1.5,1.4,2.8.9,6.2-.7,9.7,1.4,9.7,6,0,5.6-4.6,8.8-20.6,14.6l-11.2,4-3.5-9.7c-1.9-5.3-4.4-12-5.5-14.9l-2.1-5.1,4.2-1.6c2.3-.8,7.8-2.9,12.2-4.5,9-3.4,14-3.8,17.3-1.5ZM352.6,74.1l3.3,2-3.8,5.7c-8.4,12.4-8.9,15.7-3.5,20.8,2.7,2.6,4.4,3.4,7.2,3.4,5.2,0,7.3-1.8,12.7-10.8,2.6-4.2,4.9-7.9,5-8,.2-.2,1.8.7,3.7,2,1.8,1.2,3.4,2.3,3.6,2.4.6.3-9.8,15.3-12.3,17.8-6.4,6.4-20.6,2.9-28.2-7-4.3-5.8-3.9-11,1.6-20.4,5-8.3,6.1-10,6.9-10,.2,0,2,.9,3.8,2.1ZM163.5,85.7c3.7,5.4,7.9,11,9.2,12.5l2.5,2.6-3.8,2.5-3.7,2.6-1.7-2.2c-.9-1.2-3.8-5.3-6.4-9-2.6-3.8-5-6.7-5.2-6.5-.3.3,3.6,17.1,5.1,21.7.3,1.1-.5,2.5-2.5,4l-3.1,2.2-9.5-6c-5.2-3.4-9.9-6.1-10.4-6.1-.6,0,1.4,3.4,4.5,7.6,3.1,4.1,5.8,8.1,6.1,8.8.5,1.2-4,5.7-5.5,5.6-.3-.1-1.9-2.1-3.5-4.6s-5.6-8.1-8.9-12.5-5.8-8.1-5.6-8.3c1.7-1.3,9.9-6.6,10.2-6.6s4.9,2.9,10.3,6.5c5.3,3.6,9.8,6.4,10,6.2.4-.4-4.3-21.4-5.1-22.7-.3-.5,1.2-2.1,3.4-3.4,2.2-1.4,4.2-3,4.6-3.6,1.2-2,2.4-.9,9,8.7ZM283.9,105c17.7,3.2,36.6,10.6,53.7,21,22.7,13.8,43.2,36.4,55.7,61.4,24.4,49,21.3,106.2-8.1,152-10.9,16.9-29.4,35.3-46.6,46.4-15.4,9.9-37.5,18.5-56.1,21.8-14.9,2.7-41.5,2.5-55.3-.4-14.6-3.2-25.2-6.7-37-12.3-69.9-33.4-104.3-113.1-80.2-186,4.3-13.1,11.8-28.7,18.6-38.7,24.5-36,65.4-61.4,106.4-66.2,5.8-.6,11.2-1.3,12-1.5,3.6-.9,26.7.7,36.9,2.5ZM393.4,104c3.8,1.4,11,8.4,16.2,15.7l4.7,6.5-2.9,2.3-2.9,2.4-2.4-5c-2.5-5.2-9.1-13.3-12.3-15-2.3-1.2-4.8.3-4.8,3,0,.9,2.6,5,5.7,9.1,8.4,11,9.3,14.8,4.7,19.4-2,2.1-7.3,2-10.4,0-6.4-4.3-13.4-12.5-17.6-20.6-1.5-3-1.5-3.1,1-5.5,2.4-2.2,2.7-2.3,3.2-.6,1.9,5.4,5.1,10.8,9.1,15.3,3.6,4,5.1,5,7.2,4.8,4-.5,3.7-3.6-.8-9.3-5.3-6.6-8.8-12.4-9.6-15.7-.5-2.1-.1-3.3,1.9-5.2,2.7-2.7,5.8-3.2,10-1.6ZM117.2,122.9c5.7,1.6,12.2,3.5,14.6,4.1,2.3.6,4.2,1.5,4.2,2s-1.3,2.3-2.8,4c-2.6,2.8-3.1,3-5.8,2-2.7-1.1-3.1-.9-5.7,2.2-7.7,9-8,9.6-6.7,12.8,1.1,2.7,1,3.3-1.5,6.6-1.5,1.9-2.9,3.4-3.1,3.1-.2-.2-3.8-7-7.9-15.1l-7.5-14.7,4.8-5.5c2.6-2.9,5.2-5.2,5.9-5,.6.3,5.8,1.8,11.5,3.5ZM76.4,257.1c9.6,2.7,17.4,11,19.6,20.8.7,3.1,2.3,10.1,3.5,15.6,12.4,53.6,53.6,98.2,106.5,115.3,57.7,18.6,119.3,4.3,161.7-37.5,12.9-12.8,14.2-14.2,22-25.9,13-19.1,20.7-38.8,26.3-66.9,3.7-18.8,24.1-28,40.8-18.4,6.3,3.6,10.7,9.3,12.9,16.8,1.8,6.4,1,14.2-3.2,31.2-21.2,84.4-90.8,148.2-176.6,161.8-36.8,5.9-79.7,1.2-113.6-12.5-41.9-16.9-75.5-44.1-100.9-81.9-15.8-23.4-26.9-50.7-32.5-79.8-1.9-10.2-2-12.5-1-17.1,3.6-16,19.2-25.7,34.5-21.5Z"/>
      <path class="cls-3" d="M306.5,64.2c-3.2,1.9-4.3,3.3-5.5,7.5-1,3.3-1,4.6.1,6.9,3.3,6.7,17.1,10,21.7,5.1,6.6-7,3.9-16.3-5.7-19.6-4.3-1.4-8-1.4-10.6.1Z"/>
      <path class="cls-3" d="M186,68.6c-3.5,1.4-6.5,2.6-6.7,2.8-.3.3,1.7,6.7,2.3,7.5.6.7,13.3-4.1,14.4-5.4,1.7-2,.8-5.7-1.5-6.5-1.3-.5-4.4.1-8.5,1.6Z"/>
      <path class="cls-3" d="M191.6,80.5c-3.7,1.3-7,2.6-7.3,2.9s-.1,1.7.5,3.3c1.1,3.5,4.4,3.6,11.9.3,5.9-2.5,7.7-5.5,4.7-7.7-2.2-1.6-1.6-1.7-9.8,1.2Z"/>
      <path class="cls-1" d="M237.5,106.7c-1.6.2-7.4,1.3-12.9,2.4-59.3,12.3-105.9,60.5-116.7,120.8-2.8,15.8-2.4,43.7,1,58.1,8,34.5,24.9,61.9,52.1,84.6,52.2,43.7,132.2,45,186.5,3.1,7.2-5.6,21-19.2,26.9-26.7,15.3-19.2,26.2-44,30.2-68.8,1.8-11.1,2-33.7.4-45.2-2.1-15.1-7.8-33.7-14.2-46.3-9.5-18.9-26.7-39.3-44.3-52.8-18.1-13.9-44.3-24.9-67.5-28.4-8.6-1.3-33.6-1.8-41.5-.8ZM251.9,135c8.1,8,10.3,13.1,10.9,25.8.3,7.5.8,10.5,1.8,10.9,1.9.7,7.5-3.6,15.2-11.6,7.8-8.1,12.1-15.4,12.9-22.1l.6-5,2.6,1.6c1.4,1,6.1,4.7,10.4,8.3,13.3,11.1,23.9,25.7,27.8,38.1,2.3,7.3,3.3,19.3,1.9,23.9-.5,1.7-.7,3.1-.5,3.1.1,0,2.3-1.1,4.6-2.5,5.8-3.3,10.8-3.3,14.8,0,4,3.4,5.5,8.3,5.4,18,0,12.3-5,21.9-14.2,27.6-2.1,1.3-2.8,3.1-4.2,10.5-1.6,8.6-1.6,9.2.2,15.9,1,3.8,1.9,8.9,1.9,11.2,0,4.1-.2,4.3-5.2,6.9-7.5,3.7-21.9,18.5-23.8,24.3-2.1,6.6-8,15-14,20.3l-5.4,4.7,2.5,9.6,2.4,9.6-2.2,8.3c-3.3,12.3-3.9,13.6-6.5,13.6-1.3,0-7-2.1-12.7-4.5-7.2-3.1-10.8-4.2-11.5-3.5-1.3,1.3-21.9,1.3-23.2,0-.7-.7-4.4.5-11.2,3.5-10.7,4.7-13.3,5.3-14.9,3.2-.5-.6-2.2-5.6-3.7-10.9l-2.7-9.8,2.6-9.6,2.6-9.5-2.8-2.2c-6.8-5.1-11.8-11.4-15.9-20.1-2.8-6-6-10.9-9.3-14.3-5.7-5.9-14.6-12.8-17.8-13.7-1.2-.4-2.5-1.6-2.8-2.7-.9-2.7.4-11.5,2.3-16.2,1.3-3.5,1.3-4.7-.4-13.6-1.8-9.5-2-9.9-5.3-11.7-7.8-4.2-13.1-15.4-13.1-27.4,0-8.1,1.7-13.5,5.3-17.1,3.8-3.8,9.6-4,14.9-.4,2,1.4,4.1,2.5,4.6,2.5.9,0,3.2-4.3,3.2-6.1,0-2.4,5.6-14.8,9.2-20.6,4.2-6.6,15.3-17.7,21.9-21.9,3.4-2.1,4.3-2.3,5.1-1.2,1,1.4.4,13.7-.8,17.7l-.7,2.4,4.3-2.4c5.8-3.2,14.1-11.5,16.5-16.4,1.6-3.2,2-6.1,2-14,0-8.7-.4-10.8-2.8-16.2-1.5-3.4-2.7-6.5-2.7-6.7,0-1.7,15.2,7.8,19.9,12.4Z"/>
      <path class="cls-3" d="M215.5,213.5c-17.9,7.3-30.9,35.2-24.9,53.2,2.1,6.4,4.3,8.5,13,12.8,5.4,2.7,7.6,4.4,8.6,6.6,1.4,3.2,2.6,3.4,9.7,1.3,2.1-.6,2-.3-1.3,4-4.3,5.6-4.4,6.4-1.1,6.8l2.5.3-2.6,3.7c-2.7,3.7-2.7,3.8-1.1,8,.9,2.4,3.7,6.7,6.3,9.6,15.9,18.1,44.9,18.9,61.6,1.5,4.9-5.1,8.8-11.6,8.8-14.7,0-1-1.1-3.4-2.6-5.3l-2.5-3.3h3.1q3,0,1.6-2.8c-.8-1.5-2.7-4-4.3-5.6l-2.8-2.9,3.5.8c1.9.4,4.4.9,5.5,1.1,1.4.3,2.6-.5,4-2.8,1.3-2.2,4.1-4.3,8.2-6.3,3.4-1.7,7.2-3.9,8.4-5,8.6-7.8,7.8-28.2-1.6-44-4.9-8-8.6-11.7-15.9-15.7-5.8-3.1-6.6-3.3-16.1-3.3-8.3.1-10.9.5-15,2.4-8.3,3.8-13.8,3.8-24.3.2-11.6-4-20-4.2-28.7-.6ZM229,235c8,2.2,15.3,4,16.2,4,2.2,0,2.3,2.2.1,6.3-3.1,6-5.7,8.7-9.6,9.9-3.8,1.1-4.3,1-17.3-5.7-7.4-3.8-13.4-7.5-13.4-8.2,0-2.1,2.9-8.6,4.3-9.5,2.1-1.3,4.9-.9,19.7,3.2ZM303.8,232.7c1.1,1,2.5,3.5,3.1,5.6,1.1,4.5,1.7,4-15.3,12.7-10.2,5.2-10.6,5.3-14.5,4.1-4.4-1.3-7.9-5.1-10.5-11.4-1.2-2.9-1.2-3.9-.3-4.2.7-.2,7.5-2,15.2-4s14.1-3.8,14.4-4.1c1.1-1.1,6.1-.2,7.9,1.3ZM248.6,282.5c1.4,2.2,1.5,3,.4,5-1.7,3.3-6.3,3.4-8.4.3-2-2.9-2-3.4.4-5.8,2.7-2.7,5.6-2.5,7.6.5ZM271.4,281.6c2.4,2.4,2,6.1-.9,8-2.3,1.5-2.7,1.5-5,0-4.2-2.8-2.4-9.6,2.5-9.6,1,0,2.6.7,3.4,1.6ZM238.5,309.4c9.2,11.2,25.2,11.6,34.6.8,1.8-2,3.8-4.1,4.5-4.5,1.7-1,5.4.9,5.4,2.7,0,2.8-7.8,11.2-13.1,14.1-4.8,2.7-6.3,3-13.9,3-6.8,0-9.3-.5-12.6-2.2-4.8-2.6-10.9-8.4-13.1-12.6-1.4-2.8-1.4-3.2.3-4.4,2.8-2.1,4-1.6,7.9,3.1Z"/>
      <path class="cls-3" d="M283.5,350.4c-14.7,6.1-15.5,6.6-15.5,9,0,2.2.5,2.5,6.1,3.1,7,.8,6.9,1.7-.4,2.5-4.7.4-5.2.8-5.5,3-.3,2.4.5,2.9,10.3,6.9,6.1,2.5,11,4,11.5,3.5s1.6-3.9,2.6-7.6c1.7-6.4,1.7-7,0-14.2-.9-4.1-2.3-7.6-2.9-7.8-.7-.3-3.4.5-6.2,1.6Z"/>
      <path class="cls-3" d="M222,349.3c0,.1-.9,3.4-2,7.2-2,6.7-2,7.2-.4,13.5,2.6,9.9,2.5,9.8,14.4,4.8,5.6-2.4,10.5-4.9,10.7-5.6.9-2.3-1.8-4.2-6.1-4.2-7.1,0-7.5-1.7-.7-2.5,6.5-.7,8.6-2.5,6-4.9-2.9-2.7-21.9-9.9-21.9-8.3Z"/>
      <path class="cls-3" d="M254.3,354.7l-3.3.4v18l5.3-.3,5.2-.3.3-8c.2-6.6,0-8.2-1.4-9.2-1-.7-2-1.2-2.3-1.1-.3,0-2.1.3-3.8.5Z"/>
      <path class="cls-3" d="M103,127.8c0,.4,1.7,4,3.9,8l3.8,7.4,4.1-4.9c2.3-2.6,4.2-5.1,4.2-5.4,0-.8-3.8-2.3-10.7-4.3-2.9-.8-5.3-1.2-5.3-.8Z"/>
      <path class="cls-3" d="M80.3,329c-6.8.4-12.5.9-12.7,1.1-.3.3.6,2.4,2.1,4.8,2,3.4,2.9,4.2,4.7,3.7,3.1-.8,3.9.1,8,7.8l3.7,6.9-2.2,2.3c-2.2,2.3-2.2,2.4-.4,6.4,1,2.3,2.2,4.3,2.6,4.6.4.2,4.3-3.9,8.6-9.2,4.3-5.2,9.1-11.1,10.7-13l2.8-3.5-3.1-6.4-3.2-6.5-4.7.2c-2.6,0-10.2.4-16.9.8ZM100,336.8c0,1.2-9,11.2-10.1,11.2-.5,0-2-2.2-3.4-5l-2.5-5,2.2-.5c1.3-.2,4.1-.6,6.3-.8s4.8-.4,5.8-.5c.9-.1,1.7.2,1.7.6Z"/>
      <path class="cls-3" d="M409,335.2c-1.9,3.4-5.9,9.9-8.7,14.5-2.9,4.6-5.3,8.7-5.3,9.1s2.1,1.8,4.7,3.2c2.5,1.3,8.4,4.8,13,7.7s8.7,5.3,9.1,5.3c.6,0,6.1-9,15.4-25.1l2.7-4.7-3.2-2.1-3.2-2-4.6,9.7c-2.6,5.3-5.3,10.5-6.1,11.6-1.4,1.8-1.6,1.8-4.1.1-1.5-.9-2.7-2-2.7-2.4s2.5-4.6,5.5-9.5c3-4.8,5.5-9.1,5.5-9.5s-1.1-1.3-2.5-1.9c-2.3-1.1-2.6-.8-7.6,8.1-2.8,5.1-5.3,9.4-5.5,9.6-.7.8-6.4-2.2-6.4-3.3,0-1.4,9-14.8,12.3-18.3,1.1-1.3,1.9-2.4,1.6-2.6-1.6-1.3-5.4-3.7-5.9-3.7-.3,0-2.1,2.8-4,6.2Z"/>
      <path class="cls-3" d="M108,359.6c-4.1,3.6-9.6,8.2-12.2,10.2-2.7,2-4.8,3.9-4.8,4.2.1.3,1.4,2.1,3,4l3,3.4,3.4-3.3,3.4-3.3,3.4,3.7c1.8,2.1,3.9,4.6,4.6,5.6,1.9,2.7,9.5,6.9,12.3,6.9,5.3,0,9.9-4.8,9.9-10.2,0-4.2-4.1-11.4-10.2-17.9-1.9-2-4.5-5-5.9-6.7l-2.4-3.1-7.5,6.5ZM123.1,371.7c1.6,2.3,2.9,5.1,2.9,6.2,0,2-3.4,5.1-5.7,5.1-1.6,0-11.3-9.8-11.3-11.5,0-.7,1.7-2.7,3.8-4.3,3.5-2.9,3.8-2.9,5.6-1.4,1,.9,3.1,3.6,4.7,5.9Z"/>
      <path class="cls-3" d="M388.2,367l-4.2,4.7,4.5,10.3c2.5,5.7,4.5,10.4,4.5,10.6,0,1.2-4-.1-12.4-4l-9.5-4.4-4.5,4.5c-2.6,2.5-4.6,4.6-4.6,4.7s5,5.2,11.2,11.4l11.2,11.3,3.3-3.3,3.4-3.4-6.1-5.3c-3.3-2.9-6.5-6.2-7.1-7.2-1.1-2.1-.6-2,13.9,4.2l5.3,2.2,2.4-2.3c1.4-1.3,2.5-3,2.5-3.7,0-.8-1.7-5.2-3.7-9.9-2-4.6-3.3-8.7-2.9-9.1s3.6,2.4,7.1,6.2l6.3,7,3.5-3.4,3.5-3.3-11.6-11.4c-6.3-6.3-11.6-11.4-11.6-11.3-.1.1-2,2.2-4.4,4.9Z"/>
      <path class="cls-3" d="M137.3,385.7c-2.5,3.9-11.2,15.3-14.2,18.6l-2.6,2.8,4.3,3.6c2.4,1.9,8.7,6.8,14,10.8l9.7,7.3,2.2-2.6c1.3-1.5,2.3-2.9,2.3-3.2s-2.6-2.1-5.7-4c-3.2-1.8-7.9-4.9-10.5-6.8-4.9-3.5-5.2-5-1.5-8,1.6-1.3,2.7-.6,13,8.1l5.7,4.9,2-2.3q1.9-2.4-.4-4.4c-1.2-1.1-5.3-4.1-8.9-6.7-3.7-2.7-6.7-5.1-6.7-5.5,0-.5.9-1.9,1.9-3.2,1.8-2.3,2-2.4,4.2-.9,1.3.8,5.5,4.4,9.3,7.9s7.2,6.5,7.5,6.7c.4.1,1.8-.9,3.1-2.3l2.4-2.5-2.1-1.5c-1.2-.8-7.3-5.5-13.7-10.5-6.4-4.9-12.1-9-12.6-9s-1.7,1.2-2.7,2.7Z"/>
      <path class="cls-3" d="M355.7,396.9q-4.2,2.7-.9,7.8c5.3,8.3,7.5,13.8,6.8,16.6-1.4,5.7-9.4,9.9-14.3,7.5-2.3-1.1-11.1-13.9-12.6-18.3-.2-.5-1.9,0-3.8,1.1-3.3,2-23.7,9.1-32.5,11.4l-4.2,1,4.4,13.3c2.4,7.2,4.4,14,4.4,14.9,0,1,.6,1.8,1.4,1.8,1.2,0,7.7-2,8.5-2.6.2-.1-.5-2.3-1.4-4.8-1-2.5-1.5-5.2-1.2-5.9.3-.8,4.6-2.5,9.7-3.8,8.8-2.3,9.1-2.5,8.5-4.9-.4-1.4-.8-2.7-1.1-2.9-.2-.2-4.7,1.1-9.9,2.9-5.3,1.8-9.7,3.1-9.9,2.9-1.1-1.4-2.5-7.4-1.8-8.1.5-.5,5.5-1.9,11.1-3.1,5.6-1.3,10.6-2.9,11-3.6.6-.9,1.7.3,3.6,3.6,8,14,17.1,16.4,29.7,8,9-6,11.1-14.3,6-23.8-7.4-13.8-7.2-13.7-11.5-11Z"/>
      <path class="cls-3" d="M180.5,412.2c-2.7,8.1-6.7,19.3-8.4,23.2-1.2,2.7-2,5-1.9,5.1,1.1,1,8.2,3.4,8.8,3,.4-.3,1.1-2,1.4-4,.4-1.9,1-3.6,1.4-3.9.4-.2,4.5.9,9.2,2.5,12.3,4.1,18.7,2.4,20.9-5.9,2.1-7.6-2.6-11.6-21.4-18.2-9.6-3.4-9.4-3.4-10-1.8ZM195.7,422.2c6.1,2.9,7.3,4.1,7.3,7,0,5.2-4.4,6.1-13.5,2.7-3-1.1-5.5-2.5-5.5-3s.7-2.7,1.6-4.9c1.9-4.7,3.3-5,10.1-1.8Z"/>
      <path class="cls-3" d="M216.5,429.2c-.3,2.9-1.3,9.8-2.1,15.2-.8,5.5-1.1,10.3-.7,10.6.8.7,33.4,5.3,33.8,4.8.1-.2.5-2,.9-4.1l.7-3.7h-9.3c-5.1,0-11-.3-13-.6-3.4-.6-3.8-1-3.8-3.6,0-1.7.6-3.1,1.6-3.5,1.5-.5,15.3,1,20.2,2.3,1.9.6,2.2.3,2.2-2.5,0-1.7-.1-3.1-.2-3.2-.2,0-5-.6-10.8-1.2l-10.5-1.2-.3-3.8c-.3-3.5-.2-3.7,2.5-3.6,2.6,0,16.1,2.9,20.9,4.4,1.7.5,2.3.2,2.7-1.7,1.4-4.9.9-5.8-3-5.8-2.1,0-9.6-.9-16.8-2-7.1-1.1-13.3-2-13.7-2-.3,0-.9,2.4-1.3,5.2Z"/>
      <path class="cls-3" d="M263.6,427.3l-8.8,1,.6,6.6c.3,3.6.9,10.8,1.3,15.8l.6,9.3h9.8l-.7-6-.7-6h4.7c6.3,0,10.2,2.2,11.7,6.5,1.4,3.8,2.6,4.1,10.2,2.7l3.7-.7-2.9-3.6c-1.6-1.9-4.8-4.4-7.1-5.4l-4.2-1.9,3.4-1.7c5.2-2.7,7-5.2,6.6-9.5-.6-7.6-8.1-9.5-28.2-7.1ZM282.1,435.1c1.9,3.6-1.5,5.9-9.9,6.6l-7.2.6v-9.3h8c7.1,0,8.1.2,9.1,2.1Z"/>
    </g>
  </g>
</svg>