<svg xmlns="http://www.w3.org/2000/svg" viewBox="0 0 400 400"><defs><clipPath id="a"><circle cx="200" cy="200" r="200" fill="none"/></clipPath></defs><g clip-path="url(#a)"><path fill="#187be0" d="M0 0h400v400H0V0Z"/><circle cx="200" cy="200" r="200" fill="#187be2"/><path fill="#fff" d="M270.89 145.73A230.634 230.634 0 0 0 131 89.04c-38.62-1.44-42.11 8.07-42.11 11.91 0 4.76 5.78 9.51 7.73 10.47 2.31 1.44 8.89 2.87 8.89.49 0-4.29-8.11-6.67-8.11-7.62 0-1.44-.78-4.78 28.2-2.38 94.29 7.13 165 69.56 164.62 120.07-.4 29.07-23.96 57.18-72.67 56.22-9.94-.36-19.81-1.96-29.36-4.76.38-13.82.38-30.49.38-48.13v-14.29h.78c37.11-.47 47.56 3.33 49.09 3.82 1.93.47 1.16 1.42.76 1.89-.76.49-7.71 6.67-7.71 8.11 0 .96-.78 4.29 5.78 3.33 6.58-.96 15.84-10.49 15.84-17.62-.38-7.16-20.47-21.93-64.91-20.98-1.16-26.67-4.64-40.98-6.96-40.98-3.87 0-6.18 19.56-7.73 41.93-40.58 4.76-55.69 25.27-56.84 34.31-1.16 27.16 27.49 46.22 54.53 57.67.78 15.71 2.71 28.11 7.73 28.58 5.02.49 7.33-8.58 8.49-22.4 12 3.82 23.96 5.73 33.24 5.73 45.6 1.42 89.64-19.07 90.42-68.16.78-35.27-15.07-59.09-40.2-80.53Zm-145.71 84.83c.76-10.49 20.51-17.16 47.18-19.04-.38 9.04-.78 17.62-.78 24.78-.38 9.51-.38 20.49-.38 30.96-25.11-11.42-46.8-27.62-46.02-36.67v-.02Z"/></g></svg>