<svg xmlns="http://www.w3.org/2000/svg" viewBox="0 0 512 512">
  <circle cx="256" cy="256" r="256" fill="#815cee"/>
  <rect width="287.5" height="254.17" x="112.27" y="128.92" fill="#e9e5d0" rx="5" ry="5"/>
  <path fill="#ff613d" d="M264.33 147.67h-100c-18.41 0-33.33 14.92-33.33 33.33v100c0 18.41 14.93 33.33 33.33 33.33h100c18.41 0 33.33-14.93 33.33-33.33V181c0-18.41-14.92-33.33-33.33-33.33"/>
  <path fill="#ffe143" d="M256 247.67h8.33V256H256z"/>
  <path fill="#030712" d="M347.67 247.67h-8.34V281h-8.34v8.33h8.34v25h8.34v-25h8.3V281h-8.3zm33.33 0h-8.33v16.66h-8.33v8.34h8.33v41.66H381v-41.66h8.32v-8.34H381zm-41.68-100H381V156h-41.68zm0 33.33H381v8.33h-41.68zm-8.33-16.67h58.34v8.33h-58.34z"/>
  <path fill="#ffe143" d="M247.67 256H256v8.33h-8.33zM181 256h-8.33v8.33h8.31v8.34h66.69v-8.34H181zm-16.67-8.33h8.33V256h-8.33zm16.67-50h16.67V231H181zm50 0h16.67V231H231z"/>
  <path fill="#030712" d="M264.33 147.67h-100c-18.41 0-33.33 14.92-33.33 33.33v100c0 18.41 14.93 33.33 33.33 33.33h100c18.41 0 33.33-14.93 33.33-33.33V181c0-18.41-14.92-33.33-33.33-33.33m25 133.33c0 13.78-11.22 25-25 25h-100c-13.78 0-25-11.22-25-25V181c0-13.78 11.22-25 25-25h100c13.78 0 25 11.22 25 25zM131 347.67h33.33V356H131z"/>
  <path fill="#030712" d="M406 339.33v-200c0-9.2-7.46-16.67-16.67-16.67H122.67c-9.2 0-16.67 7.46-16.67 16.67v233.33c0 9.2 7.46 16.67 16.67 16.67h266.67c9.2 0 16.67-7.46 16.67-16.67v-33.33Zm-291.67-200c0-4.6 3.74-8.33 8.33-8.33H314.3v200H114.33zM397.67 356c0 4.6-3.74 8.33-8.33 8.33H122.67c-4.6 0-8.33-3.74-8.33-8.33v-16.67h283.33zm0-25h-75.01V131h66.68c4.6 0 8.33 3.74 8.33 8.33z"/>
</svg>
