<?xml version="1.0" encoding="utf-8"?>
<!-- Generator: Adobe Illustrator 27.8.0, SVG Export Plug-In . SVG Version: 6.00 Build 0)  -->
<svg version="1.1" id="Farm" xmlns="http://www.w3.org/2000/svg" xmlns:xlink="http://www.w3.org/1999/xlink" x="0px" y="0px"
	 viewBox="0 0 700 500" enable-background="new 0 0 700 500" xml:space="preserve">
<g id="SMR">
	<circle fill="#00E0CA" cx="485.8" cy="250" r="214.2"/>
	<path fill="#00262F" d="M384.3,353.3c10.4-8.2,20.4-15.9,31.7-24.5c-30.8-37.1-41.7-77-30.8-120.9c7.7-31.3,25.4-56.2,52.1-74.3
		c48-32.2,116.4-23.6,151.7,19.5c-9.1,9.5-18.1,19.5-27.6,29.4c62.1,79.3,24,163.5-24.5,194.3C488.5,407.2,417.4,398.6,384.3,353.3z
		 M418.7,325.6c25.4,27.2,64.8,31.7,95.1,11.3c16.3-10.9,26.7-25.4,32.6-43.9c9.1-29.9,0.5-56.2-17.7-80.2
		c10-10.4,19-19.9,28.1-29.4c-23.1-27.2-64.8-31.7-95.1-11.3c-39.4,26.7-44.4,68.8-14.5,124.1C437.3,306.2,428.2,315.7,418.7,325.6z
		"/>
</g>
<g id="WEN">
	<path fill="#FB80D8" d="M219.8,462.2c120.5,0,218.2-97.6,218.2-218.1C438,123.7,340.3,26,219.8,26C99.3,26,1.6,123.7,1.6,244.1
		C1.6,364.6,99.3,462.2,219.8,462.2z"/>
	<path fill="#FFFFFF" d="M140.3,268.8c0,0-22.8,46.5,0.5,105.9c23.3,59.5,84.3,53.8,84.3,53.8s46.8,2.8,50.5-32.8
		c3.7-35.6-0.9-183.3-0.9-183.3l90.6-111.3c0,0-101.6-31.4-122.3,30.5c-21.2,63.4-11.8,78.8-11.8,78.8s-44.1,13-51.5,20.3
		c-7.3,7.3-12-54-61.8-57.2c-49.7-3.2-93.5,39.2-93.5,39.2L140.3,268.8z"/>
	<path d="M125.5,278.1H96.8v28.7h28.7V278.1z"/>
	<path fill="#FFFFFF" d="M154.2,278.1h-28.7v28.7h28.7V278.1z"/>
	<path d="M182.9,278.1h-28.7v28.7h28.7V278.1z"/>
	<path d="M154.2,306.7h-28.7v28.7h28.7V306.7z"/>
	<path d="M182.9,306.7h-28.7v28.7h28.7V306.7z"/>
	<path d="M211.6,278.1h-28.7v28.7h28.7V278.1z"/>
	<path fill="#FFFFFF" d="M240.3,278.1h-28.7v28.7h28.7V278.1z"/>
	<path d="M268.9,278.1h-28.7v28.7h28.7V278.1z"/>
	<path d="M297.6,278.1H269v28.7h28.7V278.1z"/>
	<path d="M240.3,306.7h-28.7v28.7h28.7V306.7z"/>
	<path d="M268.9,306.7h-28.7v28.7h28.7V306.7z"/>
</g>
</svg>
