<?xml version="1.0" encoding="utf-8"?>
<!-- Generator: Adobe Illustrator 28.0.0, SVG Export Plug-In . SVG Version: 6.00 Build 0)  -->
<svg version="1.1" id="Layer_1" xmlns="http://www.w3.org/2000/svg" xmlns:xlink="http://www.w3.org/1999/xlink" x="0px" y="0px"
	 viewBox="0 0 168.3 168.3" style="enable-background:new 0 0 168.3 168.3;" xml:space="preserve">
<style type="text/css">
	.st0{fill:#FFFFFF;}
</style>
<g id="Layer_2_00000062168567650413586180000014748095054596071303_">
	<g id="Layer_1-2">
		<path d="M84.2,0L84.2,0c46.5,0,84.2,37.7,84.2,84.2l0,0c0,46.5-37.7,84.2-84.2,84.2l0,0C37.7,168.3,0,130.7,0,84.2l0,0
			C0,37.7,37.7,0,84.2,0z"/>
	</g>
</g>
<g>
	<path class="st0" d="M98.9,66.7c-14.2-8-27.4-18-39-29.5c-4.3-4.3-8.4-8.8-12.3-13.5l-2.6-3.1c-4.5,2.8-8.7,6-12.5,9.6l2.4,2.4l0,0
		C49.2,46.6,71.7,58.5,98.9,66.7z"/>
	<path class="st0" d="M102,78.8L102,78.8c-14.8-4.1-28.6-9.2-40.7-15.2C47.7,56.8,36.3,49,27.6,40.3l-2.2-2.1
		C16.5,49.6,10.9,63.5,9.8,78.8H102z"/>
	<path class="st0" d="M84.3,9.5c-10.4,0-20.4,2.1-29.4,6l1.7,2c3.5,4.2,7.2,8.3,11.1,12.1C92,53.9,122.7,70,156.4,76l2.2,0.4
		C154.7,38.8,122.9,9.5,84.3,9.5z"/>
	<path class="st0" d="M102,89.5H9.8c1.1,15.2,6.7,29.2,15.6,40.6l2.1-2.1c8.7-8.6,20.1-16.4,33.8-23.3C73.4,98.7,87.2,93.6,102,89.5
		z"/>
	<path class="st0" d="M158.6,91.9l-2.2,0.4c-33.7,6.1-64.3,22.1-88.8,46.4c-3.9,3.9-7.6,7.9-11.1,12.1l-1.7,2c9,3.9,19,6,29.4,6
		C122.9,158.9,154.7,129.5,158.6,91.9z"/>
	<path class="st0" d="M45.1,147.8l2.6-3.1c3.9-4.7,8-9.3,12.3-13.5c11.5-11.5,24.6-21.4,38.8-29.4c-27.2,8.2-49.6,20.1-63.7,34
		l-2.4,2.4C36.4,141.8,40.6,145,45.1,147.8z"/>
	<path class="st0" d="M98.9,101.6c0,0-0.1,0.1-0.1,0.1C98.8,101.7,98.9,101.7,98.9,101.6L98.9,101.6z"/>
</g>
</svg>
