<svg xmlns="http://www.w3.org/2000/svg" viewBox="0 0 400 400"><defs><clipPath id="a"><circle cx="200" cy="200" r="200" fill="none"/></clipPath></defs><g clip-path="url(#a)"><path fill="#f0f3fa" d="M0 0h400v400H0V0Z"/><path fill="#1d1d1b" d="M244.44 88.89H200v76.22a60.449 60.449 0 0 0-32.89-9.56c-22.22-.44-76.22 11.11-78.22 72.89-.67 23.11 12.67 70 71.11 71.56 14.67.44 38.89-4.44 47.33-25.33.22 11.11 11.11 32 52 22.89v-26.44c-5.11 0-14.89-2.67-14.89-16.67V88.89ZM200 199.11v34.22c.22 10.22-5.33 30.44-30.44 31.11-31.33.44-36.44-25.78-36.22-36.22.22-10.44 5.33-37.56 36.22-37.56 11.11 0 22.44 3.33 30.44 8.44Z"/><path fill="#46277d" d="M266.67 177.78h44.44v44.44h-44.44v-44.44Z"/></g></svg>