<svg xmlns="http://www.w3.org/2000/svg" viewBox="0 0 400 400"><defs><linearGradient id="b" x1="81.16" x2="493.5" y1="720.49" y2="246.89" gradientTransform="matrix(1 0 0 -1 0 784)" gradientUnits="userSpaceOnUse"><stop offset="0" stop-color="#1a1e21"/><stop offset="1" stop-color="#06060a"/></linearGradient><clipPath id="a"><circle cx="200" cy="200" r="200" fill="none"/></clipPath></defs><g clip-path="url(#a)"><path fill="url(#b)" d="M0 0h400v400H0V0Z"/><path fill="#fff" fill-rule="evenodd" d="M266.67 177.78c0 36.82-29.85 66.67-66.67 66.67s-66.67-29.85-66.67-66.67 29.85-66.67 66.67-66.67 66.67 29.85 66.67 66.67Zm22.22 0c0 49.09-39.8 88.89-88.89 88.89s-88.89-39.8-88.89-88.89 39.8-88.89 88.89-88.89 88.89 39.8 88.89 88.89ZM200 310.56l75.78-37.04 13.11 18.8L200 333.34l-88.89-41.02 13.11-18.8L200 310.56Z"/></g></svg>