<svg width="239" height="239" viewBox="0 0 239 239" fill="none" xmlns="http://www.w3.org/2000/svg">
<rect x="5" y="9" width="230" height="221" rx="110.5" fill="#040400"/>
<circle cx="119.5" cy="121.5" r="74.5" stroke="url(#paint0_linear_825_2863)" stroke-width="6"/>
<path d="M25.5 109L26.9593 113.491H31.6819L27.8613 116.267L29.3206 120.759L25.5 117.983L21.6794 120.759L23.1387 116.267L19.3181 113.491H24.0407L25.5 109Z" fill="url(#paint1_linear_825_2863)"/>
<path d="M210.5 109L209.041 113.491H204.318L208.139 116.267L206.679 120.759L210.5 117.983L214.321 120.759L212.861 116.267L216.682 113.491H211.959L210.5 109Z" fill="url(#paint2_linear_825_2863)"/>
<path d="M28 133L29.5716 137.491H34.6574L30.5429 140.267L32.1145 144.759L28 141.983L23.8855 144.759L25.4571 140.267L21.3426 137.491H26.4284L28 133Z" fill="url(#paint3_linear_825_2863)"/>
<path d="M208 133L206.428 137.491H201.343L205.457 140.267L203.886 144.759L208 141.983L212.114 144.759L210.543 140.267L214.657 137.491H209.572L208 133Z" fill="url(#paint4_linear_825_2863)"/>
<path d="M35 155L36.5716 159.491H41.6574L37.5429 162.267L39.1145 166.759L35 163.983L30.8855 166.759L32.4571 162.267L28.3426 159.491H33.4284L35 155Z" fill="url(#paint5_linear_825_2863)"/>
<path d="M201 155L199.428 159.491H194.343L198.457 162.267L196.886 166.759L201 163.983L205.114 166.759L203.543 162.267L207.657 159.491H202.572L201 155Z" fill="url(#paint6_linear_825_2863)"/>
<path d="M48.5 174L49.9593 178.491H54.6819L50.8613 181.267L52.3206 185.759L48.5 182.983L44.6794 185.759L46.1387 181.267L42.3181 178.491H47.0407L48.5 174Z" fill="url(#paint7_linear_825_2863)"/>
<path d="M187.5 174L186.041 178.491H181.318L185.139 181.267L183.679 185.759L187.5 182.983L191.321 185.759L189.861 181.267L193.682 178.491H188.959L187.5 174Z" fill="url(#paint8_linear_825_2863)"/>
<path d="M65.5 191L66.9593 195.491H71.6819L67.8613 198.267L69.3206 202.759L65.5 199.983L61.6794 202.759L63.1387 198.267L59.3181 195.491H64.0407L65.5 191Z" fill="url(#paint9_linear_825_2863)"/>
<path d="M170.5 191L169.041 195.491H164.318L168.139 198.267L166.679 202.759L170.5 199.983L174.321 202.759L172.861 198.267L176.682 195.491H171.959L170.5 191Z" fill="url(#paint10_linear_825_2863)"/>
<mask id="path-13-outside-1_825_2863" maskUnits="userSpaceOnUse" x="52" y="43" width="135" height="143" fill="black">
<rect fill="white" x="52" y="43" width="135" height="143"/>
<path fill-rule="evenodd" clip-rule="evenodd" d="M119.472 46.1877C119.553 46.4129 120.036 48.9277 120.599 51.8178C121.162 54.7079 121.886 59.1745 122.248 61.7644C122.57 64.3542 123.053 67.6573 123.254 69.0836C123.455 70.5099 123.817 74.0756 124.059 76.9658C124.3 79.8559 124.702 84.5101 124.944 87.2877C125.145 90.0652 125.467 101.476 125.869 132.892L126.875 134.168C127.438 134.881 128.242 135.669 128.685 135.97C129.127 136.232 130.214 136.458 131.099 136.458C131.984 136.458 133.673 136.195 134.84 135.895C136.409 135.482 137.294 134.919 138.461 133.718C139.386 132.667 140.19 131.278 140.633 129.852C140.995 128.65 141.598 125.948 142.001 123.884C142.403 121.819 143.328 117.841 144.093 115.063C144.817 112.285 145.903 108.382 146.426 106.43C146.949 104.478 147.391 102.301 147.391 101.663C147.391 100.988 147.07 99.7866 146.627 99.0359C146.225 98.2477 145.38 97.3468 144.777 97.0466C144.133 96.7463 143.006 96.4836 142.202 96.4836C141.397 96.5211 140.03 96.6712 139.144 96.8589C137.616 97.1967 137.938 96.8589 144.897 90.6658C148.92 87.0625 154.633 81.9953 157.569 79.443C160.466 76.8907 165.495 72.7995 168.713 70.3597C171.931 67.8825 174.707 65.8932 174.948 65.8556C175.19 65.8556 174.144 67.0942 172.696 68.5956C171.247 70.097 168.954 72.6868 167.627 74.3384C166.299 75.9899 164.529 78.3545 163.684 79.5932C162.839 80.8318 161.472 83.1214 160.667 84.6603C159.863 86.1992 158.696 88.6764 158.133 90.1027C157.569 91.529 156.644 94.269 156.121 96.1082C155.598 97.9474 154.834 100.762 154.512 102.301C154.15 103.84 153.667 106.205 153.426 107.556C153.184 108.907 152.782 110.934 152.581 112.06C152.34 113.186 152.139 116.827 152.139 120.13C152.139 124.784 152.299 126.511 152.822 127.825C153.184 128.763 153.868 130.002 154.351 130.602C154.834 131.203 155.96 132.141 156.845 132.667C158.294 133.53 158.857 133.642 162.276 133.642C165.133 133.642 166.42 133.455 167.426 132.967C168.109 132.629 168.793 132.366 168.914 132.404C168.995 132.479 167.868 134.018 166.38 135.857C164.891 137.696 162.679 139.986 161.472 140.887C160.265 141.787 158.374 143.026 157.248 143.589C156.161 144.19 154.23 145.015 153.024 145.428C151.817 145.841 149.081 146.592 146.989 147.08C144.897 147.605 141.719 148.168 139.949 148.393C138.179 148.656 135.242 148.994 133.432 149.219C131.581 149.407 129.57 149.857 128.886 150.158C128.162 150.495 127.357 151.359 126.875 152.297C126.231 153.611 126.07 154.737 126.07 158.302C126.07 161.118 126.311 163.52 126.673 164.871C127.036 166.072 127.76 167.799 128.323 168.737C128.846 169.675 129.288 170.689 129.288 170.989C129.288 171.289 128.685 173.166 127.921 175.118C127.156 177.07 126.15 179.509 125.668 180.56C125.185 181.574 124.582 182.55 124.34 182.7C124.059 182.85 122.047 183 119.835 183C117.622 183 115.409 182.85 114.886 182.7C114.202 182.512 113.679 181.724 112.794 179.622C112.191 178.083 111.185 175.456 109.455 170.801L112.191 166.297L112.312 159.916C112.392 154.361 112.312 153.348 111.708 152.259C111.306 151.546 110.542 150.645 109.978 150.27C109.415 149.932 107.605 149.444 105.955 149.219C104.306 148.994 101.57 148.656 99.9211 148.468C98.2717 148.243 94.9327 147.643 92.4787 147.117C89.6224 146.479 86.6455 145.503 84.0306 144.34C81.818 143.326 78.9617 141.75 77.7146 140.812C76.4273 139.873 74.2146 137.696 72.7664 135.97C71.3584 134.281 70.2722 132.817 70.3526 132.704C70.4733 132.592 71.2779 132.817 72.163 133.155C73.2089 133.605 74.7779 133.83 76.5882 133.83C78.2376 133.83 80.0479 133.567 80.9329 133.23C81.7375 132.929 82.8639 132.291 83.3467 131.841C83.8696 131.39 84.6742 130.339 85.157 129.514C85.5995 128.688 86.2029 126.999 86.4845 125.76C86.7661 124.522 87.0075 122.457 87.0477 121.144C87.0477 119.867 86.8466 117.165 86.6052 115.138C86.4041 113.149 85.8409 109.47 85.3581 106.993C84.9156 104.516 83.9903 100.462 83.3467 97.9849C82.6628 95.5077 81.4961 91.9419 80.7318 90.1027C79.9674 88.226 79.0421 86.1241 78.6801 85.411C78.318 84.6978 77.3123 82.8962 76.4272 81.4699C75.5422 80.006 73.6514 77.3036 72.2032 75.4644C70.7952 73.5877 68.9446 71.4107 68.0998 70.5849C67.2952 69.7592 66.209 68.6331 65.7665 68.0326C65.2838 67.4696 65.0022 67.0192 65.1229 67.0192C65.2435 67.0192 66.5309 67.8825 68.0596 68.971C69.5481 70.0219 72.4043 72.1989 74.3756 73.7378C76.387 75.3142 79.2835 77.6789 80.8122 78.9926C82.3409 80.3063 85.6397 83.1964 88.0535 85.3734C90.5075 87.5504 94.289 90.966 96.5016 92.9178C98.7142 94.8696 100.685 96.7088 100.846 96.934C101.047 97.3093 100.525 97.2718 98.8349 96.8214C96.9843 96.371 96.1798 96.3334 95.0131 96.6337C94.1683 96.8589 93.0419 97.5345 92.4787 98.1726C91.6741 99.0734 91.473 99.7115 91.473 101.25C91.473 102.339 91.6741 103.84 91.8752 104.553C92.1166 105.267 92.9212 108.157 93.7258 110.934C94.4901 113.712 95.6568 118.516 96.3005 121.632C96.9843 124.709 97.8292 128.275 98.1912 129.514C98.7544 131.278 99.3579 132.179 100.927 133.68C102.657 135.332 103.26 135.669 105.352 136.045C106.68 136.307 108.369 136.42 109.093 136.307C109.777 136.195 110.743 135.744 111.185 135.332C111.628 134.919 112.151 133.943 112.392 133.155C112.633 132.366 112.794 126.361 112.794 119.379C112.794 112.548 112.996 102.752 113.197 97.6096C113.438 92.4299 113.881 85.2608 114.202 81.6575C114.524 78.0542 114.967 73.2123 115.208 70.9603C115.409 68.7082 115.852 64.9548 116.174 62.7027C116.536 60.4507 116.978 57.2978 117.22 55.7589C117.421 54.22 117.904 51.5175 118.266 49.7534C118.628 47.9893 118.99 46.3753 119.151 46.1877C119.312 45.9374 119.419 45.9374 119.472 46.1877ZM169.92 85.7863C170.04 85.7863 171.247 87.3627 172.575 89.277C173.943 91.1537 175.793 94.0063 176.719 95.5452C177.604 97.0841 178.73 99.2986 179.213 100.425C179.655 101.551 180.5 103.765 181.023 105.304C181.586 106.843 182.19 108.795 182.391 109.621C182.592 110.446 183.034 112.886 183.397 115.063C183.718 117.24 184 120.956 184 123.321C184 125.685 183.839 128.575 183.638 129.701C183.397 130.827 183.034 132.967 182.793 134.393C182.552 135.819 181.828 138.559 181.224 140.399C180.581 142.238 179.494 145.053 178.77 146.592C178.046 148.131 176.839 150.495 176.035 151.847C175.23 153.198 173.862 155.3 172.977 156.538C172.092 157.777 170.362 159.954 169.075 161.418C167.828 162.882 165.535 165.171 164.006 166.522C162.518 167.874 160.345 169.675 159.259 170.501C158.133 171.327 156.161 172.678 154.834 173.504C153.506 174.33 150.61 175.868 148.397 176.919C146.185 177.933 142.926 179.209 141.156 179.735C139.386 180.26 136.972 180.973 135.805 181.311C134.679 181.611 133.432 181.874 133.11 181.874C132.708 181.874 132.56 181.586 132.668 181.011C132.748 180.56 133.271 178.871 133.794 177.257C134.599 174.742 134.88 174.292 135.725 174.104C136.288 174.029 137.817 173.616 139.144 173.204C140.472 172.828 143.208 171.702 145.179 170.764C147.15 169.825 150.248 168.099 152.018 166.935C153.788 165.809 156.966 163.257 159.058 161.268C161.271 159.203 163.966 156.163 165.414 154.099C166.782 152.147 167.908 150.383 167.949 150.158C167.949 149.932 166.42 148.956 161.271 146.066L162.276 145.503C162.799 145.165 164.167 144.265 165.293 143.476C166.38 142.726 168.19 141.262 169.276 140.286C170.362 139.31 171.931 137.659 172.736 136.645C173.581 135.594 174.385 134.356 174.546 133.83C174.707 133.305 174.989 132.742 175.15 132.516C175.351 132.291 175.793 130.715 176.196 128.951C176.719 126.398 176.799 124.672 176.638 120.318C176.477 117.315 176.115 113.862 175.793 112.623C175.471 111.385 174.908 109.358 174.546 108.119C174.184 106.881 173.339 104.666 172.696 103.24C172.012 101.813 170.845 99.5238 170.04 98.1726C169.276 96.8214 167.868 94.7945 166.943 93.6685C166.018 92.5425 165.092 91.3414 164.931 91.0411C164.69 90.6282 165.293 89.84 167.144 88.1134C168.552 86.8373 169.799 85.7863 169.92 85.7863ZM69.3871 86.1616C69.5883 86.1616 70.7147 87.1 71.8814 88.2636C73.0078 89.4271 74.0135 90.5156 74.094 90.7033C74.1342 90.891 73.4503 91.9419 72.5653 92.9929C71.6802 94.0814 70.071 96.5211 68.9446 98.3603C67.8584 100.199 66.3297 103.352 65.5654 105.304C64.801 107.256 63.7551 110.409 63.2321 112.248C62.4275 115.176 62.3068 116.489 62.3068 122.195C62.347 128.5 62.3873 128.876 63.5137 131.578C64.1171 133.117 65.0826 135.069 65.6458 135.895C66.1688 136.72 67.8987 138.635 69.5078 140.173C71.0768 141.675 73.4101 143.664 76.9905 146.216L73.9733 147.905C72.3239 148.844 70.9561 149.707 70.9561 149.857C70.9561 150.045 71.5998 151.171 72.4043 152.41C73.2089 153.648 74.6169 155.6 75.5422 156.726C76.4273 157.852 78.6399 160.142 80.4099 161.793C82.18 163.482 85.0765 165.772 86.8466 166.935C88.6167 168.099 91.8752 169.863 94.0878 170.914C96.3005 171.927 99.3981 173.128 100.927 173.616C102.456 174.067 103.944 174.63 104.185 174.893C104.427 175.118 105.111 176.732 105.674 178.496C106.277 180.26 106.72 181.724 106.639 181.761C106.599 181.836 104.749 181.424 102.536 180.898C100.323 180.373 97.2257 179.472 95.697 178.946C94.1683 178.383 91.1109 176.995 88.8983 175.868C86.7259 174.742 83.2662 172.641 81.2547 171.214C79.2433 169.825 76.4272 167.611 75.0595 166.335C73.6514 165.096 71.4791 162.882 70.232 161.418C68.9849 159.954 67.0539 157.514 65.9677 155.975C64.8815 154.436 63.1114 151.546 62.0654 149.595C61.0597 147.643 59.531 144.265 58.7667 142.088C57.9621 139.911 56.9563 136.608 56.5138 134.768C56.0713 132.929 55.5081 129.364 55.2667 126.886C54.9047 123.433 54.9047 121.481 55.3069 118.441C55.5483 116.264 56.192 112.736 56.7552 110.559C57.2782 108.382 58.1632 105.342 58.7264 103.803C59.3299 102.264 60.6574 99.2986 61.7034 97.2342C62.7896 95.1699 64.6803 92.0545 65.9274 90.2904C67.1745 88.5263 68.3814 86.8748 68.6228 86.6121C68.8642 86.3868 69.186 86.1616 69.3871 86.1616ZM133.191 65.4803C133.794 65.6679 135.685 66.0808 137.334 66.4562C138.984 66.794 140.874 67.2444 141.558 67.4696C142.242 67.6573 143.127 67.9951 143.57 68.1452C144.012 68.3329 145.621 68.971 147.19 69.609C148.759 70.2096 151.253 71.3731 152.822 72.1238C154.391 72.8745 155.719 73.5501 155.84 73.6252C155.96 73.7003 155.397 74.3759 154.633 75.1641C153.868 75.9523 152.863 77.0784 151.616 78.7299L147.391 76.6655C145.058 75.5395 142.363 74.3384 141.357 74.0381C140.351 73.7003 138.219 73.0997 136.61 72.6493C133.874 71.9362 133.714 71.8236 133.472 70.66C133.351 70.0219 132.989 68.7458 132.668 67.8449C132.346 66.9816 132.104 66.0058 132.064 65.743C132.064 65.2926 132.306 65.2551 133.191 65.4803ZM105.634 65.5553C106.036 65.5178 106.358 65.5553 106.358 65.5929C106.358 65.6679 106.076 66.9816 105.714 68.5205C105.392 70.0595 105.03 71.4107 104.99 71.5233C104.909 71.6359 103.26 72.1989 101.289 72.7995C99.3176 73.3625 96.0591 74.5636 94.0878 75.4268C92.1166 76.2901 89.8638 77.4162 87.7316 78.8425L85.3984 76.4027C83.2662 74.1882 83.1455 73.9255 83.749 73.4751C84.111 73.1748 85.8811 72.274 87.6512 71.4107C89.4213 70.5474 91.8752 69.4589 93.0821 68.9334C94.289 68.4455 97.4671 67.4696 100.122 66.794C102.777 66.1184 105.272 65.5553 105.674 65.5553H105.634Z"/>
</mask>
<path fill-rule="evenodd" clip-rule="evenodd" d="M119.472 46.1877C119.553 46.4129 120.036 48.9277 120.599 51.8178C121.162 54.7079 121.886 59.1745 122.248 61.7644C122.57 64.3542 123.053 67.6573 123.254 69.0836C123.455 70.5099 123.817 74.0756 124.059 76.9658C124.3 79.8559 124.702 84.5101 124.944 87.2877C125.145 90.0652 125.467 101.476 125.869 132.892L126.875 134.168C127.438 134.881 128.242 135.669 128.685 135.97C129.127 136.232 130.214 136.458 131.099 136.458C131.984 136.458 133.673 136.195 134.84 135.895C136.409 135.482 137.294 134.919 138.461 133.718C139.386 132.667 140.19 131.278 140.633 129.852C140.995 128.65 141.598 125.948 142.001 123.884C142.403 121.819 143.328 117.841 144.093 115.063C144.817 112.285 145.903 108.382 146.426 106.43C146.949 104.478 147.391 102.301 147.391 101.663C147.391 100.988 147.07 99.7866 146.627 99.0359C146.225 98.2477 145.38 97.3468 144.777 97.0466C144.133 96.7463 143.006 96.4836 142.202 96.4836C141.397 96.5211 140.03 96.6712 139.144 96.8589C137.616 97.1967 137.938 96.8589 144.897 90.6658C148.92 87.0625 154.633 81.9953 157.569 79.443C160.466 76.8907 165.495 72.7995 168.713 70.3597C171.931 67.8825 174.707 65.8932 174.948 65.8556C175.19 65.8556 174.144 67.0942 172.696 68.5956C171.247 70.097 168.954 72.6868 167.627 74.3384C166.299 75.9899 164.529 78.3545 163.684 79.5932C162.839 80.8318 161.472 83.1214 160.667 84.6603C159.863 86.1992 158.696 88.6764 158.133 90.1027C157.569 91.529 156.644 94.269 156.121 96.1082C155.598 97.9474 154.834 100.762 154.512 102.301C154.15 103.84 153.667 106.205 153.426 107.556C153.184 108.907 152.782 110.934 152.581 112.06C152.34 113.186 152.139 116.827 152.139 120.13C152.139 124.784 152.299 126.511 152.822 127.825C153.184 128.763 153.868 130.002 154.351 130.602C154.834 131.203 155.96 132.141 156.845 132.667C158.294 133.53 158.857 133.642 162.276 133.642C165.133 133.642 166.42 133.455 167.426 132.967C168.109 132.629 168.793 132.366 168.914 132.404C168.995 132.479 167.868 134.018 166.38 135.857C164.891 137.696 162.679 139.986 161.472 140.887C160.265 141.787 158.374 143.026 157.248 143.589C156.161 144.19 154.23 145.015 153.024 145.428C151.817 145.841 149.081 146.592 146.989 147.08C144.897 147.605 141.719 148.168 139.949 148.393C138.179 148.656 135.242 148.994 133.432 149.219C131.581 149.407 129.57 149.857 128.886 150.158C128.162 150.495 127.357 151.359 126.875 152.297C126.231 153.611 126.07 154.737 126.07 158.302C126.07 161.118 126.311 163.52 126.673 164.871C127.036 166.072 127.76 167.799 128.323 168.737C128.846 169.675 129.288 170.689 129.288 170.989C129.288 171.289 128.685 173.166 127.921 175.118C127.156 177.07 126.15 179.509 125.668 180.56C125.185 181.574 124.582 182.55 124.34 182.7C124.059 182.85 122.047 183 119.835 183C117.622 183 115.409 182.85 114.886 182.7C114.202 182.512 113.679 181.724 112.794 179.622C112.191 178.083 111.185 175.456 109.455 170.801L112.191 166.297L112.312 159.916C112.392 154.361 112.312 153.348 111.708 152.259C111.306 151.546 110.542 150.645 109.978 150.27C109.415 149.932 107.605 149.444 105.955 149.219C104.306 148.994 101.57 148.656 99.9211 148.468C98.2717 148.243 94.9327 147.643 92.4787 147.117C89.6224 146.479 86.6455 145.503 84.0306 144.34C81.818 143.326 78.9617 141.75 77.7146 140.812C76.4273 139.873 74.2146 137.696 72.7664 135.97C71.3584 134.281 70.2722 132.817 70.3526 132.704C70.4733 132.592 71.2779 132.817 72.163 133.155C73.2089 133.605 74.7779 133.83 76.5882 133.83C78.2376 133.83 80.0479 133.567 80.9329 133.23C81.7375 132.929 82.8639 132.291 83.3467 131.841C83.8696 131.39 84.6742 130.339 85.157 129.514C85.5995 128.688 86.2029 126.999 86.4845 125.76C86.7661 124.522 87.0075 122.457 87.0477 121.144C87.0477 119.867 86.8466 117.165 86.6052 115.138C86.4041 113.149 85.8409 109.47 85.3581 106.993C84.9156 104.516 83.9903 100.462 83.3467 97.9849C82.6628 95.5077 81.4961 91.9419 80.7318 90.1027C79.9674 88.226 79.0421 86.1241 78.6801 85.411C78.318 84.6978 77.3123 82.8962 76.4272 81.4699C75.5422 80.006 73.6514 77.3036 72.2032 75.4644C70.7952 73.5877 68.9446 71.4107 68.0998 70.5849C67.2952 69.7592 66.209 68.6331 65.7665 68.0326C65.2838 67.4696 65.0022 67.0192 65.1229 67.0192C65.2435 67.0192 66.5309 67.8825 68.0596 68.971C69.5481 70.0219 72.4043 72.1989 74.3756 73.7378C76.387 75.3142 79.2835 77.6789 80.8122 78.9926C82.3409 80.3063 85.6397 83.1964 88.0535 85.3734C90.5075 87.5504 94.289 90.966 96.5016 92.9178C98.7142 94.8696 100.685 96.7088 100.846 96.934C101.047 97.3093 100.525 97.2718 98.8349 96.8214C96.9843 96.371 96.1798 96.3334 95.0131 96.6337C94.1683 96.8589 93.0419 97.5345 92.4787 98.1726C91.6741 99.0734 91.473 99.7115 91.473 101.25C91.473 102.339 91.6741 103.84 91.8752 104.553C92.1166 105.267 92.9212 108.157 93.7258 110.934C94.4901 113.712 95.6568 118.516 96.3005 121.632C96.9843 124.709 97.8292 128.275 98.1912 129.514C98.7544 131.278 99.3579 132.179 100.927 133.68C102.657 135.332 103.26 135.669 105.352 136.045C106.68 136.307 108.369 136.42 109.093 136.307C109.777 136.195 110.743 135.744 111.185 135.332C111.628 134.919 112.151 133.943 112.392 133.155C112.633 132.366 112.794 126.361 112.794 119.379C112.794 112.548 112.996 102.752 113.197 97.6096C113.438 92.4299 113.881 85.2608 114.202 81.6575C114.524 78.0542 114.967 73.2123 115.208 70.9603C115.409 68.7082 115.852 64.9548 116.174 62.7027C116.536 60.4507 116.978 57.2978 117.22 55.7589C117.421 54.22 117.904 51.5175 118.266 49.7534C118.628 47.9893 118.99 46.3753 119.151 46.1877C119.312 45.9374 119.419 45.9374 119.472 46.1877ZM169.92 85.7863C170.04 85.7863 171.247 87.3627 172.575 89.277C173.943 91.1537 175.793 94.0063 176.719 95.5452C177.604 97.0841 178.73 99.2986 179.213 100.425C179.655 101.551 180.5 103.765 181.023 105.304C181.586 106.843 182.19 108.795 182.391 109.621C182.592 110.446 183.034 112.886 183.397 115.063C183.718 117.24 184 120.956 184 123.321C184 125.685 183.839 128.575 183.638 129.701C183.397 130.827 183.034 132.967 182.793 134.393C182.552 135.819 181.828 138.559 181.224 140.399C180.581 142.238 179.494 145.053 178.77 146.592C178.046 148.131 176.839 150.495 176.035 151.847C175.23 153.198 173.862 155.3 172.977 156.538C172.092 157.777 170.362 159.954 169.075 161.418C167.828 162.882 165.535 165.171 164.006 166.522C162.518 167.874 160.345 169.675 159.259 170.501C158.133 171.327 156.161 172.678 154.834 173.504C153.506 174.33 150.61 175.868 148.397 176.919C146.185 177.933 142.926 179.209 141.156 179.735C139.386 180.26 136.972 180.973 135.805 181.311C134.679 181.611 133.432 181.874 133.11 181.874C132.708 181.874 132.56 181.586 132.668 181.011C132.748 180.56 133.271 178.871 133.794 177.257C134.599 174.742 134.88 174.292 135.725 174.104C136.288 174.029 137.817 173.616 139.144 173.204C140.472 172.828 143.208 171.702 145.179 170.764C147.15 169.825 150.248 168.099 152.018 166.935C153.788 165.809 156.966 163.257 159.058 161.268C161.271 159.203 163.966 156.163 165.414 154.099C166.782 152.147 167.908 150.383 167.949 150.158C167.949 149.932 166.42 148.956 161.271 146.066L162.276 145.503C162.799 145.165 164.167 144.265 165.293 143.476C166.38 142.726 168.19 141.262 169.276 140.286C170.362 139.31 171.931 137.659 172.736 136.645C173.581 135.594 174.385 134.356 174.546 133.83C174.707 133.305 174.989 132.742 175.15 132.516C175.351 132.291 175.793 130.715 176.196 128.951C176.719 126.398 176.799 124.672 176.638 120.318C176.477 117.315 176.115 113.862 175.793 112.623C175.471 111.385 174.908 109.358 174.546 108.119C174.184 106.881 173.339 104.666 172.696 103.24C172.012 101.813 170.845 99.5238 170.04 98.1726C169.276 96.8214 167.868 94.7945 166.943 93.6685C166.018 92.5425 165.092 91.3414 164.931 91.0411C164.69 90.6282 165.293 89.84 167.144 88.1134C168.552 86.8373 169.799 85.7863 169.92 85.7863ZM69.3871 86.1616C69.5883 86.1616 70.7147 87.1 71.8814 88.2636C73.0078 89.4271 74.0135 90.5156 74.094 90.7033C74.1342 90.891 73.4503 91.9419 72.5653 92.9929C71.6802 94.0814 70.071 96.5211 68.9446 98.3603C67.8584 100.199 66.3297 103.352 65.5654 105.304C64.801 107.256 63.7551 110.409 63.2321 112.248C62.4275 115.176 62.3068 116.489 62.3068 122.195C62.347 128.5 62.3873 128.876 63.5137 131.578C64.1171 133.117 65.0826 135.069 65.6458 135.895C66.1688 136.72 67.8987 138.635 69.5078 140.173C71.0768 141.675 73.4101 143.664 76.9905 146.216L73.9733 147.905C72.3239 148.844 70.9561 149.707 70.9561 149.857C70.9561 150.045 71.5998 151.171 72.4043 152.41C73.2089 153.648 74.6169 155.6 75.5422 156.726C76.4273 157.852 78.6399 160.142 80.4099 161.793C82.18 163.482 85.0765 165.772 86.8466 166.935C88.6167 168.099 91.8752 169.863 94.0878 170.914C96.3005 171.927 99.3981 173.128 100.927 173.616C102.456 174.067 103.944 174.63 104.185 174.893C104.427 175.118 105.111 176.732 105.674 178.496C106.277 180.26 106.72 181.724 106.639 181.761C106.599 181.836 104.749 181.424 102.536 180.898C100.323 180.373 97.2257 179.472 95.697 178.946C94.1683 178.383 91.1109 176.995 88.8983 175.868C86.7259 174.742 83.2662 172.641 81.2547 171.214C79.2433 169.825 76.4272 167.611 75.0595 166.335C73.6514 165.096 71.4791 162.882 70.232 161.418C68.9849 159.954 67.0539 157.514 65.9677 155.975C64.8815 154.436 63.1114 151.546 62.0654 149.595C61.0597 147.643 59.531 144.265 58.7667 142.088C57.9621 139.911 56.9563 136.608 56.5138 134.768C56.0713 132.929 55.5081 129.364 55.2667 126.886C54.9047 123.433 54.9047 121.481 55.3069 118.441C55.5483 116.264 56.192 112.736 56.7552 110.559C57.2782 108.382 58.1632 105.342 58.7264 103.803C59.3299 102.264 60.6574 99.2986 61.7034 97.2342C62.7896 95.1699 64.6803 92.0545 65.9274 90.2904C67.1745 88.5263 68.3814 86.8748 68.6228 86.6121C68.8642 86.3868 69.186 86.1616 69.3871 86.1616ZM133.191 65.4803C133.794 65.6679 135.685 66.0808 137.334 66.4562C138.984 66.794 140.874 67.2444 141.558 67.4696C142.242 67.6573 143.127 67.9951 143.57 68.1452C144.012 68.3329 145.621 68.971 147.19 69.609C148.759 70.2096 151.253 71.3731 152.822 72.1238C154.391 72.8745 155.719 73.5501 155.84 73.6252C155.96 73.7003 155.397 74.3759 154.633 75.1641C153.868 75.9523 152.863 77.0784 151.616 78.7299L147.391 76.6655C145.058 75.5395 142.363 74.3384 141.357 74.0381C140.351 73.7003 138.219 73.0997 136.61 72.6493C133.874 71.9362 133.714 71.8236 133.472 70.66C133.351 70.0219 132.989 68.7458 132.668 67.8449C132.346 66.9816 132.104 66.0058 132.064 65.743C132.064 65.2926 132.306 65.2551 133.191 65.4803ZM105.634 65.5553C106.036 65.5178 106.358 65.5553 106.358 65.5929C106.358 65.6679 106.076 66.9816 105.714 68.5205C105.392 70.0595 105.03 71.4107 104.99 71.5233C104.909 71.6359 103.26 72.1989 101.289 72.7995C99.3176 73.3625 96.0591 74.5636 94.0878 75.4268C92.1166 76.2901 89.8638 77.4162 87.7316 78.8425L85.3984 76.4027C83.2662 74.1882 83.1455 73.9255 83.749 73.4751C84.111 73.1748 85.8811 72.274 87.6512 71.4107C89.4213 70.5474 91.8752 69.4589 93.0821 68.9334C94.289 68.4455 97.4671 67.4696 100.122 66.794C102.777 66.1184 105.272 65.5553 105.674 65.5553H105.634Z" fill="url(#paint11_linear_825_2863)"/>
<path fill-rule="evenodd" clip-rule="evenodd" d="M119.472 46.1877C119.553 46.4129 120.036 48.9277 120.599 51.8178C121.162 54.7079 121.886 59.1745 122.248 61.7644C122.57 64.3542 123.053 67.6573 123.254 69.0836C123.455 70.5099 123.817 74.0756 124.059 76.9658C124.3 79.8559 124.702 84.5101 124.944 87.2877C125.145 90.0652 125.467 101.476 125.869 132.892L126.875 134.168C127.438 134.881 128.242 135.669 128.685 135.97C129.127 136.232 130.214 136.458 131.099 136.458C131.984 136.458 133.673 136.195 134.84 135.895C136.409 135.482 137.294 134.919 138.461 133.718C139.386 132.667 140.19 131.278 140.633 129.852C140.995 128.65 141.598 125.948 142.001 123.884C142.403 121.819 143.328 117.841 144.093 115.063C144.817 112.285 145.903 108.382 146.426 106.43C146.949 104.478 147.391 102.301 147.391 101.663C147.391 100.988 147.07 99.7866 146.627 99.0359C146.225 98.2477 145.38 97.3468 144.777 97.0466C144.133 96.7463 143.006 96.4836 142.202 96.4836C141.397 96.5211 140.03 96.6712 139.144 96.8589C137.616 97.1967 137.938 96.8589 144.897 90.6658C148.92 87.0625 154.633 81.9953 157.569 79.443C160.466 76.8907 165.495 72.7995 168.713 70.3597C171.931 67.8825 174.707 65.8932 174.948 65.8556C175.19 65.8556 174.144 67.0942 172.696 68.5956C171.247 70.097 168.954 72.6868 167.627 74.3384C166.299 75.9899 164.529 78.3545 163.684 79.5932C162.839 80.8318 161.472 83.1214 160.667 84.6603C159.863 86.1992 158.696 88.6764 158.133 90.1027C157.569 91.529 156.644 94.269 156.121 96.1082C155.598 97.9474 154.834 100.762 154.512 102.301C154.15 103.84 153.667 106.205 153.426 107.556C153.184 108.907 152.782 110.934 152.581 112.06C152.34 113.186 152.139 116.827 152.139 120.13C152.139 124.784 152.299 126.511 152.822 127.825C153.184 128.763 153.868 130.002 154.351 130.602C154.834 131.203 155.96 132.141 156.845 132.667C158.294 133.53 158.857 133.642 162.276 133.642C165.133 133.642 166.42 133.455 167.426 132.967C168.109 132.629 168.793 132.366 168.914 132.404C168.995 132.479 167.868 134.018 166.38 135.857C164.891 137.696 162.679 139.986 161.472 140.887C160.265 141.787 158.374 143.026 157.248 143.589C156.161 144.19 154.23 145.015 153.024 145.428C151.817 145.841 149.081 146.592 146.989 147.08C144.897 147.605 141.719 148.168 139.949 148.393C138.179 148.656 135.242 148.994 133.432 149.219C131.581 149.407 129.57 149.857 128.886 150.158C128.162 150.495 127.357 151.359 126.875 152.297C126.231 153.611 126.07 154.737 126.07 158.302C126.07 161.118 126.311 163.52 126.673 164.871C127.036 166.072 127.76 167.799 128.323 168.737C128.846 169.675 129.288 170.689 129.288 170.989C129.288 171.289 128.685 173.166 127.921 175.118C127.156 177.07 126.15 179.509 125.668 180.56C125.185 181.574 124.582 182.55 124.34 182.7C124.059 182.85 122.047 183 119.835 183C117.622 183 115.409 182.85 114.886 182.7C114.202 182.512 113.679 181.724 112.794 179.622C112.191 178.083 111.185 175.456 109.455 170.801L112.191 166.297L112.312 159.916C112.392 154.361 112.312 153.348 111.708 152.259C111.306 151.546 110.542 150.645 109.978 150.27C109.415 149.932 107.605 149.444 105.955 149.219C104.306 148.994 101.57 148.656 99.9211 148.468C98.2717 148.243 94.9327 147.643 92.4787 147.117C89.6224 146.479 86.6455 145.503 84.0306 144.34C81.818 143.326 78.9617 141.75 77.7146 140.812C76.4273 139.873 74.2146 137.696 72.7664 135.97C71.3584 134.281 70.2722 132.817 70.3526 132.704C70.4733 132.592 71.2779 132.817 72.163 133.155C73.2089 133.605 74.7779 133.83 76.5882 133.83C78.2376 133.83 80.0479 133.567 80.9329 133.23C81.7375 132.929 82.8639 132.291 83.3467 131.841C83.8696 131.39 84.6742 130.339 85.157 129.514C85.5995 128.688 86.2029 126.999 86.4845 125.76C86.7661 124.522 87.0075 122.457 87.0477 121.144C87.0477 119.867 86.8466 117.165 86.6052 115.138C86.4041 113.149 85.8409 109.47 85.3581 106.993C84.9156 104.516 83.9903 100.462 83.3467 97.9849C82.6628 95.5077 81.4961 91.9419 80.7318 90.1027C79.9674 88.226 79.0421 86.1241 78.6801 85.411C78.318 84.6978 77.3123 82.8962 76.4272 81.4699C75.5422 80.006 73.6514 77.3036 72.2032 75.4644C70.7952 73.5877 68.9446 71.4107 68.0998 70.5849C67.2952 69.7592 66.209 68.6331 65.7665 68.0326C65.2838 67.4696 65.0022 67.0192 65.1229 67.0192C65.2435 67.0192 66.5309 67.8825 68.0596 68.971C69.5481 70.0219 72.4043 72.1989 74.3756 73.7378C76.387 75.3142 79.2835 77.6789 80.8122 78.9926C82.3409 80.3063 85.6397 83.1964 88.0535 85.3734C90.5075 87.5504 94.289 90.966 96.5016 92.9178C98.7142 94.8696 100.685 96.7088 100.846 96.934C101.047 97.3093 100.525 97.2718 98.8349 96.8214C96.9843 96.371 96.1798 96.3334 95.0131 96.6337C94.1683 96.8589 93.0419 97.5345 92.4787 98.1726C91.6741 99.0734 91.473 99.7115 91.473 101.25C91.473 102.339 91.6741 103.84 91.8752 104.553C92.1166 105.267 92.9212 108.157 93.7258 110.934C94.4901 113.712 95.6568 118.516 96.3005 121.632C96.9843 124.709 97.8292 128.275 98.1912 129.514C98.7544 131.278 99.3579 132.179 100.927 133.68C102.657 135.332 103.26 135.669 105.352 136.045C106.68 136.307 108.369 136.42 109.093 136.307C109.777 136.195 110.743 135.744 111.185 135.332C111.628 134.919 112.151 133.943 112.392 133.155C112.633 132.366 112.794 126.361 112.794 119.379C112.794 112.548 112.996 102.752 113.197 97.6096C113.438 92.4299 113.881 85.2608 114.202 81.6575C114.524 78.0542 114.967 73.2123 115.208 70.9603C115.409 68.7082 115.852 64.9548 116.174 62.7027C116.536 60.4507 116.978 57.2978 117.22 55.7589C117.421 54.22 117.904 51.5175 118.266 49.7534C118.628 47.9893 118.99 46.3753 119.151 46.1877C119.312 45.9374 119.419 45.9374 119.472 46.1877ZM169.92 85.7863C170.04 85.7863 171.247 87.3627 172.575 89.277C173.943 91.1537 175.793 94.0063 176.719 95.5452C177.604 97.0841 178.73 99.2986 179.213 100.425C179.655 101.551 180.5 103.765 181.023 105.304C181.586 106.843 182.19 108.795 182.391 109.621C182.592 110.446 183.034 112.886 183.397 115.063C183.718 117.24 184 120.956 184 123.321C184 125.685 183.839 128.575 183.638 129.701C183.397 130.827 183.034 132.967 182.793 134.393C182.552 135.819 181.828 138.559 181.224 140.399C180.581 142.238 179.494 145.053 178.77 146.592C178.046 148.131 176.839 150.495 176.035 151.847C175.23 153.198 173.862 155.3 172.977 156.538C172.092 157.777 170.362 159.954 169.075 161.418C167.828 162.882 165.535 165.171 164.006 166.522C162.518 167.874 160.345 169.675 159.259 170.501C158.133 171.327 156.161 172.678 154.834 173.504C153.506 174.33 150.61 175.868 148.397 176.919C146.185 177.933 142.926 179.209 141.156 179.735C139.386 180.26 136.972 180.973 135.805 181.311C134.679 181.611 133.432 181.874 133.11 181.874C132.708 181.874 132.56 181.586 132.668 181.011C132.748 180.56 133.271 178.871 133.794 177.257C134.599 174.742 134.88 174.292 135.725 174.104C136.288 174.029 137.817 173.616 139.144 173.204C140.472 172.828 143.208 171.702 145.179 170.764C147.15 169.825 150.248 168.099 152.018 166.935C153.788 165.809 156.966 163.257 159.058 161.268C161.271 159.203 163.966 156.163 165.414 154.099C166.782 152.147 167.908 150.383 167.949 150.158C167.949 149.932 166.42 148.956 161.271 146.066L162.276 145.503C162.799 145.165 164.167 144.265 165.293 143.476C166.38 142.726 168.19 141.262 169.276 140.286C170.362 139.31 171.931 137.659 172.736 136.645C173.581 135.594 174.385 134.356 174.546 133.83C174.707 133.305 174.989 132.742 175.15 132.516C175.351 132.291 175.793 130.715 176.196 128.951C176.719 126.398 176.799 124.672 176.638 120.318C176.477 117.315 176.115 113.862 175.793 112.623C175.471 111.385 174.908 109.358 174.546 108.119C174.184 106.881 173.339 104.666 172.696 103.24C172.012 101.813 170.845 99.5238 170.04 98.1726C169.276 96.8214 167.868 94.7945 166.943 93.6685C166.018 92.5425 165.092 91.3414 164.931 91.0411C164.69 90.6282 165.293 89.84 167.144 88.1134C168.552 86.8373 169.799 85.7863 169.92 85.7863ZM69.3871 86.1616C69.5883 86.1616 70.7147 87.1 71.8814 88.2636C73.0078 89.4271 74.0135 90.5156 74.094 90.7033C74.1342 90.891 73.4503 91.9419 72.5653 92.9929C71.6802 94.0814 70.071 96.5211 68.9446 98.3603C67.8584 100.199 66.3297 103.352 65.5654 105.304C64.801 107.256 63.7551 110.409 63.2321 112.248C62.4275 115.176 62.3068 116.489 62.3068 122.195C62.347 128.5 62.3873 128.876 63.5137 131.578C64.1171 133.117 65.0826 135.069 65.6458 135.895C66.1688 136.72 67.8987 138.635 69.5078 140.173C71.0768 141.675 73.4101 143.664 76.9905 146.216L73.9733 147.905C72.3239 148.844 70.9561 149.707 70.9561 149.857C70.9561 150.045 71.5998 151.171 72.4043 152.41C73.2089 153.648 74.6169 155.6 75.5422 156.726C76.4273 157.852 78.6399 160.142 80.4099 161.793C82.18 163.482 85.0765 165.772 86.8466 166.935C88.6167 168.099 91.8752 169.863 94.0878 170.914C96.3005 171.927 99.3981 173.128 100.927 173.616C102.456 174.067 103.944 174.63 104.185 174.893C104.427 175.118 105.111 176.732 105.674 178.496C106.277 180.26 106.72 181.724 106.639 181.761C106.599 181.836 104.749 181.424 102.536 180.898C100.323 180.373 97.2257 179.472 95.697 178.946C94.1683 178.383 91.1109 176.995 88.8983 175.868C86.7259 174.742 83.2662 172.641 81.2547 171.214C79.2433 169.825 76.4272 167.611 75.0595 166.335C73.6514 165.096 71.4791 162.882 70.232 161.418C68.9849 159.954 67.0539 157.514 65.9677 155.975C64.8815 154.436 63.1114 151.546 62.0654 149.595C61.0597 147.643 59.531 144.265 58.7667 142.088C57.9621 139.911 56.9563 136.608 56.5138 134.768C56.0713 132.929 55.5081 129.364 55.2667 126.886C54.9047 123.433 54.9047 121.481 55.3069 118.441C55.5483 116.264 56.192 112.736 56.7552 110.559C57.2782 108.382 58.1632 105.342 58.7264 103.803C59.3299 102.264 60.6574 99.2986 61.7034 97.2342C62.7896 95.1699 64.6803 92.0545 65.9274 90.2904C67.1745 88.5263 68.3814 86.8748 68.6228 86.6121C68.8642 86.3868 69.186 86.1616 69.3871 86.1616ZM133.191 65.4803C133.794 65.6679 135.685 66.0808 137.334 66.4562C138.984 66.794 140.874 67.2444 141.558 67.4696C142.242 67.6573 143.127 67.9951 143.57 68.1452C144.012 68.3329 145.621 68.971 147.19 69.609C148.759 70.2096 151.253 71.3731 152.822 72.1238C154.391 72.8745 155.719 73.5501 155.84 73.6252C155.96 73.7003 155.397 74.3759 154.633 75.1641C153.868 75.9523 152.863 77.0784 151.616 78.7299L147.391 76.6655C145.058 75.5395 142.363 74.3384 141.357 74.0381C140.351 73.7003 138.219 73.0997 136.61 72.6493C133.874 71.9362 133.714 71.8236 133.472 70.66C133.351 70.0219 132.989 68.7458 132.668 67.8449C132.346 66.9816 132.104 66.0058 132.064 65.743C132.064 65.2926 132.306 65.2551 133.191 65.4803ZM105.634 65.5553C106.036 65.5178 106.358 65.5553 106.358 65.5929C106.358 65.6679 106.076 66.9816 105.714 68.5205C105.392 70.0595 105.03 71.4107 104.99 71.5233C104.909 71.6359 103.26 72.1989 101.289 72.7995C99.3176 73.3625 96.0591 74.5636 94.0878 75.4268C92.1166 76.2901 89.8638 77.4162 87.7316 78.8425L85.3984 76.4027C83.2662 74.1882 83.1455 73.9255 83.749 73.4751C84.111 73.1748 85.8811 72.274 87.6512 71.4107C89.4213 70.5474 91.8752 69.4589 93.0821 68.9334C94.289 68.4455 97.4671 67.4696 100.122 66.794C102.777 66.1184 105.272 65.5553 105.674 65.5553H105.634Z" stroke="black" stroke-width="6" mask="url(#path-13-outside-1_825_2863)"/>
<circle cx="119.5" cy="119.5" r="114.5" stroke="url(#paint12_linear_825_2863)" stroke-width="10"/>
<path d="M93.3012 209.825C93.684 210.27 93.9881 210.653 94.2134 210.976C94.4486 211.303 94.6183 211.649 94.7224 212.014C94.8405 212.373 94.8309 212.721 94.6936 213.056C94.5765 213.343 94.4428 213.599 94.2925 213.826C93.9636 214.095 93.4736 214.321 92.8225 214.504C92.1853 214.681 91.643 214.753 91.1956 214.72L90.5475 216.305L89.2739 215.784L89.9038 214.244C89.1934 213.896 88.7336 213.667 88.5245 213.559C88.0371 213.313 87.7214 213.155 87.5773 213.085L88.7503 210.47L89.861 210.925L89.5704 212.396C89.9173 212.619 90.2732 212.833 90.638 213.04C91.0127 213.251 91.3038 213.399 91.5111 213.484C91.6 213.52 91.7312 213.453 91.9049 213.282C92.0924 213.105 92.2185 212.937 92.2831 212.779C92.376 212.552 92.3225 212.288 92.1228 211.988C91.9271 211.677 91.573 211.233 91.0605 210.655C90.5246 210.02 90.1487 209.446 89.9328 208.931C89.7267 208.421 89.7226 207.924 89.9205 207.44C90.0295 207.173 90.1531 206.941 90.2913 206.744C90.5605 206.509 91.0317 206.287 91.7048 206.078C92.3779 205.869 92.9372 205.769 93.3828 205.779L94.0369 204.179L95.3105 204.7L94.6686 206.27C95.1757 206.524 95.8365 206.88 96.651 207.34L95.4734 209.797L94.3775 209.349L94.7536 207.964C93.8587 207.391 93.2632 207.044 92.967 206.922C92.8682 206.882 92.7471 206.925 92.6035 207.05C92.4599 207.176 92.3478 207.338 92.267 207.535C92.1539 207.812 92.1508 208.087 92.2577 208.361C92.3784 208.629 92.6075 208.971 92.9451 209.385L93.3012 209.825Z" fill="url(#paint13_linear_825_2863)"/>
<path d="M100.7 216.813L101.728 216.638L103.095 209.601L102.207 209.054L102.381 208.158L109.323 209.507L108.533 212.483L107.371 212.257L107.552 210.32L105.42 210.134L104.853 213.056L107.146 213.582L106.921 214.745L104.593 214.391L104.093 216.966L105.581 217.696L105.395 218.654L100.526 217.708L100.7 216.813Z" fill="url(#paint14_linear_825_2863)"/>
<path d="M117.332 219.854C116.308 219.874 115.573 219.632 115.126 219.128C114.679 218.614 114.444 217.802 114.423 216.693L114.32 211.286L113.337 210.937L113.32 210.025L117.575 209.944L117.595 210.968L116.674 211.369L116.766 216.184C116.779 216.878 116.868 217.335 117.032 217.556C117.196 217.766 117.433 217.868 117.742 217.862C117.977 217.858 118.322 217.792 118.779 217.666C119.235 217.53 119.5 217.45 119.574 217.427L119.458 211.316L118.522 210.95L118.503 209.926L122.758 209.845L122.776 210.757L121.807 211.143L121.943 218.31L122.926 218.659L122.944 219.571L120.048 219.626L119.678 218.673C118.21 219.459 117.428 219.852 117.332 219.854Z" fill="url(#paint15_linear_825_2863)"/>
<path d="M133.261 219.013C132.742 219.135 131.868 219.285 130.639 219.463L129.83 219.587L129.239 216.57L130.407 216.296L131.086 217.863C132.205 217.776 132.931 217.694 133.263 217.616C133.315 217.604 133.375 217.486 133.443 217.262C133.509 217.027 133.521 216.822 133.479 216.645C133.384 216.284 133.172 216.011 132.844 215.825C132.515 215.638 132.032 215.445 131.393 215.244C130.814 215.062 130.341 214.893 129.976 214.738C129.609 214.572 129.268 214.334 128.955 214.024C128.651 213.711 128.443 213.311 128.328 212.823C128.265 212.553 128.23 212.287 128.224 212.026C128.293 211.758 128.481 211.418 128.79 211.006C129.107 210.581 129.445 210.2 129.805 209.864C130.162 209.518 130.439 209.321 130.636 209.275C130.813 209.234 131.232 209.174 131.893 209.096C132.551 209.008 133.171 208.939 133.751 208.891L134.279 211.709L133.111 211.982L132.542 210.538C131.408 210.606 130.716 210.67 130.467 210.728C130.374 210.75 130.314 210.846 130.288 211.016C130.262 211.187 130.279 211.397 130.337 211.646C130.425 212.02 130.626 212.318 130.941 212.54C131.264 212.749 131.697 212.938 132.24 213.107L132.611 213.217C133.19 213.399 133.657 213.569 134.012 213.727C134.375 213.872 134.699 214.086 134.984 214.37C135.28 214.651 135.481 215.015 135.585 215.462C135.651 215.742 135.682 216.015 135.678 216.278C135.598 216.593 135.404 216.956 135.095 217.368C134.796 217.777 134.471 218.144 134.12 218.467C133.776 218.778 133.49 218.96 133.261 219.013Z" fill="url(#paint16_linear_825_2863)"/>
<path d="M141.335 215.921L142.168 215.293L140.148 208.416L139.107 208.338L138.85 207.463L145.927 205.384L146.567 208.298L145.431 208.632L144.728 206.92L142.457 207.821L143.215 210.4L145.371 209.85L145.705 210.986L143.598 211.704L144.423 214.514L146.967 214.033L146.692 212.13L147.828 211.796L148.746 214.695L141.592 216.796L141.335 215.921Z" fill="url(#paint17_linear_825_2863)"/>
<path d="M32.1231 98.1527L31.8973 97.095L24.7789 96.2532L24.2716 97.2403L23.3659 97.1331L23.9748 92.7109L24.9123 92.8217L25.1359 93.8952L32.1907 94.7295L32.6821 93.7406L33.6355 93.8533L33.0288 98.2598L32.1231 98.1527Z" fill="url(#paint18_linear_825_2863)"/>
<path d="M37.1153 81.7096C37.1049 81.7399 37.0188 81.8263 36.857 81.9688L32.6173 82.6516C31.7973 82.8082 30.7669 82.9056 29.526 82.9438L29.479 83.0799L34.0133 84.1891L34.5678 84.345L35.2767 83.416L36.2625 83.6932L34.9848 87.3991L34.1068 87.1523L34.0707 86.1299L27.1703 84.1895L26.4979 85.0126L25.62 84.7657L26.8299 81.2564L31.7898 80.4941C32.3283 80.4022 33.1923 80.3465 34.3818 80.327L34.4287 80.1909L29.6378 78.993L29.1295 78.85L28.4206 79.779L27.4348 79.5018L28.7073 75.811L29.5853 76.0579L29.6214 77.0802L37.6616 79.3411C37.5881 79.6523 37.4918 80.0622 37.3728 80.5708C37.2641 81.0822 37.1782 81.4618 37.1153 81.7096Z" fill="url(#paint19_linear_825_2863)"/>
<path d="M40.3715 72.1023L40.5386 71.105L34.0698 68.0171L33.2386 68.6973L32.4155 68.3044L36.0323 62.2272L38.6983 63.7294L38.0928 64.7468L36.2474 64.0778L35.3612 66.0029L38.0469 67.285L39.322 65.2983L40.3905 65.8084L39.2743 67.8708L41.6423 69.0012L42.8505 67.8124L43.7313 68.2329L41.1946 72.4951L40.3715 72.1023Z" fill="url(#paint20_linear_825_2863)"/>
<path d="M47.9511 60.9712L48.2937 60.0274L42.4173 55.9228L41.4713 56.4452L40.7236 55.923L45.5927 50.3825L47.8952 52.2429L47.1136 53.1322L45.4784 52.2228L44.0566 54.1779L46.2603 55.7171L47.794 54.0923L48.7647 54.7703L47.3752 56.4959L49.7757 58.1725L51.686 56.3841L50.3047 55.0895L51.0863 54.2002L53.6208 55.8929L48.6988 61.4934L47.9511 60.9712Z" fill="url(#paint21_linear_825_2863)"/>
<path d="M58.3502 50.5303L58.8631 49.6697L53.8339 44.562L52.8047 44.8982L52.1649 44.2484L56.298 41.0404C56.9721 40.5172 57.6236 40.273 58.2525 40.3078C58.8899 40.3361 59.5491 40.6961 60.2301 41.3877C60.724 41.8894 61.0182 42.3919 61.1124 42.8953C61.2067 43.3987 61.1349 43.8769 60.897 44.3297L60.9643 44.3981L63.1864 45.0469L64.3739 45.3924L65.2922 45.1021L65.9545 45.7747L63.6415 47.57L59.5022 45.8347L58.8829 46.3154L60.6678 48.1282L61.7447 47.7951L62.4407 48.502L58.9901 51.1802L58.3502 50.5303ZM58.6547 44.8834C58.8822 44.7068 59.0367 44.5466 59.1182 44.4029C59.2081 44.2527 59.2157 44.0792 59.1409 43.8825C59.0587 43.6781 58.8679 43.4239 58.5685 43.1199C57.7004 42.2382 57.0515 41.9642 56.6217 42.2977L55.7621 43.1459L57.9848 45.4033L58.6547 44.8834Z" fill="url(#paint22_linear_825_2863)"/>
<path d="M77.6101 39.6414C77.5815 39.6558 77.4573 39.6589 77.2375 39.6507L73.5682 37.2757C72.8418 36.8338 71.9969 36.2081 71.0335 35.3986L70.9049 35.4633L73.57 39.3051L73.882 39.7892L75.0533 39.6096L75.608 40.4704L72.1061 42.2319L71.6121 41.4653L72.2847 40.7174L68.4017 34.6922L67.3305 34.8215L66.8364 34.0549L70.1525 32.3868L74.4202 35.191C74.8898 35.489 75.5805 36.032 76.4921 36.8201L76.6208 36.7554L73.8226 32.6777L73.5366 32.2339L72.3653 32.4135L71.8106 31.5528L75.2982 29.7984L75.7922 30.565L75.1197 31.3129L79.644 38.3334C79.3755 38.5041 79.0222 38.7293 78.5841 39.009C78.1519 39.2976 77.8272 39.5084 77.6101 39.6414Z" fill="url(#paint23_linear_825_2863)"/>
<path d="M87.1182 34.6521L87.9633 34.0834L87.617 25.4816C88.0058 25.3061 88.429 25.132 88.8867 24.9593C89.3511 24.7736 89.6823 24.642 89.8803 24.5642C89.9111 24.5556 90.034 24.5818 90.2489 24.643L95.7577 31.8943L96.8228 31.9265L97.1363 32.7829L92.7154 34.0246L92.3633 33.063L93.3118 32.4984L92.3194 31.087L89.7007 31.8225L89.8921 33.4588L91.0694 33.4264L91.4214 34.388L87.4318 35.5085L87.1182 34.6521ZM91.5723 30.021L89.3873 26.7905L89.2179 26.8381L89.5852 30.5791L91.5723 30.021Z" fill="url(#paint24_linear_825_2863)"/>
<path d="M104.776 30.6225L105.694 30.1566L104.67 23.0622L103.646 22.7997L103.516 21.8971L108.019 21.4253L108.154 22.3596L107.045 22.8455L108.049 29.7973L110.473 29.8006L110.492 27.6928L111.669 27.5694L112.195 30.7615L104.907 31.5252L104.776 30.6225Z" fill="url(#paint25_linear_825_2863)"/>
<path d="M131.511 31.6339C130.499 31.4758 129.824 31.1113 129.486 30.5404C129.149 29.959 129.082 29.123 129.285 28.0323L130.274 22.7155L129.377 22.203L129.543 21.3063L133.748 21.9635L133.561 22.9702L132.574 23.2045L131.694 27.9393C131.567 28.621 131.562 29.0843 131.679 29.3292C131.798 29.5636 132.011 29.7047 132.316 29.7525C132.548 29.7887 132.902 29.7846 133.376 29.7401C133.853 29.685 134.13 29.6528 134.207 29.6434L135.325 23.6343L134.478 23.1135L134.665 22.1068L138.87 22.7639L138.704 23.6606L137.672 23.8717L136.362 30.9189L137.259 31.4314L137.092 32.328L134.231 31.8809L134.058 30.8827C132.455 31.3983 131.606 31.6487 131.511 31.6339Z" fill="url(#paint26_linear_825_2863)"/>
<path d="M145.545 33.2059L146.611 33.1828L149.4 26.5794L148.62 25.9245L148.974 25.0844L154.061 26.8242C154.848 27.0935 155.358 27.5151 155.589 28.089C155.834 28.6565 155.754 29.4217 155.347 30.3847C154.89 31.4656 154.284 32.1635 153.527 32.4782C152.785 32.7866 151.995 32.7975 151.157 32.5109L149.689 32.0087L148.911 33.8511L150.172 34.7211L149.792 35.6202L145.19 34.0461L145.545 33.2059ZM151.168 31.1314C151.481 31.2384 151.725 31.2884 151.902 31.2812C152.088 31.2775 152.274 31.1781 152.461 30.9832C152.647 30.7882 152.842 30.45 153.045 29.9685C153.311 29.3396 153.438 28.8323 153.428 28.4464C153.428 28.064 153.286 27.8244 153.004 27.7278L151.631 27.4099L150.199 30.8L151.168 31.1314Z" fill="url(#paint27_linear_825_2863)"/>
<path d="M160.127 38.4179L161.191 38.5846L165.251 32.6775L164.604 31.9043L165.121 31.1528L169.707 33.672C170.454 34.0829 170.898 34.5625 171.036 35.1107C171.183 35.6641 170.982 36.3408 170.432 37.1407C170.034 37.7209 169.578 38.1306 169.066 38.3699C168.554 38.6092 168.022 38.6986 167.471 38.6382L167.417 38.7173L167.343 40.8201L167.305 41.9436L167.872 42.6365L167.337 43.4144L164.771 42.0046L165.472 37.9212L164.785 37.5437L163.344 39.6402L164.001 40.4552L163.439 41.2727L159.61 39.1694L160.127 38.4179ZM166.253 36.8972C166.506 37.0359 166.72 37.1174 166.896 37.1417C167.082 37.1711 167.27 37.1229 167.46 36.9969C167.655 36.8622 167.874 36.6191 168.116 36.2675C168.817 35.2478 168.929 34.607 168.452 34.345L167.304 33.8782L165.51 36.4889L166.253 36.8972Z" fill="url(#paint28_linear_825_2863)"/>
<path d="M174.303 46.6187L175.368 46.9862L180.396 41.8767L179.834 40.9748L180.473 40.3247L183.993 43.0703L183.331 43.7432L182.253 43.3659L177.27 48.4297L177.844 49.3203L177.17 50.0046L173.663 47.2688L174.303 46.6187Z" fill="url(#paint29_linear_825_2863)"/>
<path d="M185.096 57.1568C184.73 56.7685 184.167 56.0921 183.404 55.1276L182.896 54.4953L185.441 52.7475L186.263 53.6213L185.122 54.8431C185.745 55.7525 186.174 56.3314 186.408 56.58C186.444 56.6188 186.584 56.6206 186.828 56.5853C187.079 56.5437 187.278 56.469 187.424 56.361C187.716 56.1309 187.871 55.8386 187.886 55.4842C187.902 55.1299 187.849 54.6413 187.729 54.0186C187.619 53.4538 187.549 52.9851 187.518 52.6123C187.496 52.2332 187.554 51.8471 187.693 51.4539C187.839 51.0684 188.114 50.7265 188.517 50.4279C188.74 50.2628 188.972 50.1234 189.214 50.0098C189.499 49.9569 189.91 49.9757 190.446 50.0661C190.998 50.158 191.518 50.2862 192.008 50.4508C192.506 50.6091 192.825 50.762 192.964 50.9095C193.088 51.0416 193.347 51.3706 193.74 51.8966C194.142 52.4163 194.506 52.9112 194.832 53.3815L192.444 54.9938L191.621 54.12L192.701 53.0422C192.088 52.1123 191.694 51.5542 191.518 51.3678C191.452 51.2979 191.333 51.2873 191.161 51.3359C190.988 51.3846 190.799 51.4852 190.594 51.6376C190.285 51.8663 190.103 52.1596 190.047 52.5175C190.007 52.8768 190.04 53.3209 190.145 53.8497L190.221 54.2087C190.33 54.7735 190.397 55.2384 190.42 55.6033C190.46 55.9697 190.416 56.3322 190.288 56.6909C190.167 57.0572 189.922 57.377 189.554 57.6501C189.322 57.8216 189.082 57.9603 188.832 58.0661C188.499 58.1289 188.064 58.1151 187.528 58.0246C186.999 57.9419 186.498 57.819 186.024 57.6558C185.566 57.494 185.257 57.3277 185.096 57.1568Z" fill="url(#paint30_linear_825_2863)"/>
<path d="M192.847 64.2392L193.747 64.914L200.079 61.5549L199.82 60.522L200.626 60.0946L203.133 63.7881L202.299 64.2305L201.39 63.5425L195.114 66.8716L195.387 67.897L194.539 68.3469L192.041 64.6666L192.847 64.2392Z" fill="url(#paint31_linear_825_2863)"/>
<path d="M200.693 79.7537C200.68 79.7244 200.688 79.6096 200.717 79.4093L203.589 76.5432C204.127 75.9697 204.873 75.3266 205.826 74.6137L205.768 74.4817L201.419 76.1124L200.873 76.296L200.959 77.4108L199.988 77.7372L198.422 74.1434L199.287 73.8528L200.025 74.6302L206.819 72.3455L206.778 71.3334L207.643 71.0427L209.126 74.4458L205.74 77.7704C205.379 78.1385 204.736 78.6575 203.811 79.3275L203.868 79.4595L208.482 77.7567L208.982 77.5884L208.896 76.4737L209.867 76.1473L211.426 79.7263L210.562 80.017L209.823 79.2395L201.907 81.9017C201.749 81.6185 201.54 81.2458 201.281 80.7837C201.011 80.3249 200.815 79.9816 200.693 79.7537Z" fill="url(#paint32_linear_825_2863)"/>
<path d="M205.096 93.4347C204.837 92.0941 205.018 91.008 205.639 90.1765C206.272 89.3539 207.376 88.8299 208.949 88.6045C209.614 88.5092 210.236 88.4686 210.814 88.4828C211.402 88.4953 211.9 88.5477 212.309 88.6399C212.613 88.8116 212.971 89.0939 213.384 89.4869C213.798 89.8904 214.159 90.3014 214.468 90.72C214.787 91.1371 214.966 91.4451 215.004 91.6441C215.043 91.8431 215.108 92.3773 215.2 93.2467C215.302 94.1146 215.362 94.7626 215.379 95.1906L212.334 95.4331L212.103 94.2392L213.762 93.8079C213.76 93.5175 213.742 93.1165 213.709 92.6047C213.677 92.1033 213.639 91.7375 213.594 91.5071C213.558 91.3185 213.504 91.1809 213.433 91.0942C213.293 90.9313 212.896 90.8376 212.24 90.8131C211.586 90.7992 210.789 90.8595 209.85 90.9941C208.92 91.1272 208.203 91.2891 207.697 91.48C207.194 91.6813 206.854 91.9182 206.679 92.1909C206.514 92.462 206.469 92.7914 206.544 93.1789L206.937 94.5432L209.091 94.2347L209.079 92.7351L210.077 92.5921L210.913 96.9282L209.995 97.0597L209.616 96.1938L206.765 96.6021C206.585 96.4018 206.27 95.8658 205.82 94.9939C205.37 94.122 205.128 93.6023 205.096 93.4347Z" fill="url(#paint33_linear_825_2863)"/>
<defs>
<linearGradient id="paint0_linear_825_2863" x1="119.5" y1="47" x2="119.5" y2="196" gradientUnits="userSpaceOnUse">
<stop stop-color="#FFE200"/>
<stop offset="0.392929" stop-color="#FFED63"/>
<stop offset="0.715851" stop-color="#FDD400"/>
<stop offset="1" stop-color="#FFD600"/>
</linearGradient>
<linearGradient id="paint1_linear_825_2863" x1="25.5" y1="109" x2="25.5" y2="122" gradientUnits="userSpaceOnUse">
<stop stop-color="#FFE200"/>
<stop offset="0.392929" stop-color="#FFED63"/>
<stop offset="0.715851" stop-color="#FDD400"/>
<stop offset="1" stop-color="#FFD600"/>
</linearGradient>
<linearGradient id="paint2_linear_825_2863" x1="210.5" y1="109" x2="210.5" y2="122" gradientUnits="userSpaceOnUse">
<stop stop-color="#FFE200"/>
<stop offset="0.392929" stop-color="#FFED63"/>
<stop offset="0.715851" stop-color="#FDD400"/>
<stop offset="1" stop-color="#FFD600"/>
</linearGradient>
<linearGradient id="paint3_linear_825_2863" x1="28" y1="133" x2="28" y2="146" gradientUnits="userSpaceOnUse">
<stop stop-color="#FFE200"/>
<stop offset="0.392929" stop-color="#FFED63"/>
<stop offset="0.715851" stop-color="#FDD400"/>
<stop offset="1" stop-color="#FFD600"/>
</linearGradient>
<linearGradient id="paint4_linear_825_2863" x1="208" y1="133" x2="208" y2="146" gradientUnits="userSpaceOnUse">
<stop stop-color="#FFE200"/>
<stop offset="0.392929" stop-color="#FFED63"/>
<stop offset="0.715851" stop-color="#FDD400"/>
<stop offset="1" stop-color="#FFD600"/>
</linearGradient>
<linearGradient id="paint5_linear_825_2863" x1="35" y1="155" x2="35" y2="168" gradientUnits="userSpaceOnUse">
<stop stop-color="#FFE200"/>
<stop offset="0.392929" stop-color="#FFED63"/>
<stop offset="0.715851" stop-color="#FDD400"/>
<stop offset="1" stop-color="#FFD600"/>
</linearGradient>
<linearGradient id="paint6_linear_825_2863" x1="201" y1="155" x2="201" y2="168" gradientUnits="userSpaceOnUse">
<stop stop-color="#FFE200"/>
<stop offset="0.392929" stop-color="#FFED63"/>
<stop offset="0.715851" stop-color="#FDD400"/>
<stop offset="1" stop-color="#FFD600"/>
</linearGradient>
<linearGradient id="paint7_linear_825_2863" x1="48.5" y1="174" x2="48.5" y2="187" gradientUnits="userSpaceOnUse">
<stop stop-color="#FFE200"/>
<stop offset="0.392929" stop-color="#FFED63"/>
<stop offset="0.715851" stop-color="#FDD400"/>
<stop offset="1" stop-color="#FFD600"/>
</linearGradient>
<linearGradient id="paint8_linear_825_2863" x1="187.5" y1="174" x2="187.5" y2="187" gradientUnits="userSpaceOnUse">
<stop stop-color="#FFE200"/>
<stop offset="0.392929" stop-color="#FFED63"/>
<stop offset="0.715851" stop-color="#FDD400"/>
<stop offset="1" stop-color="#FFD600"/>
</linearGradient>
<linearGradient id="paint9_linear_825_2863" x1="65.5" y1="191" x2="65.5" y2="204" gradientUnits="userSpaceOnUse">
<stop stop-color="#FFE200"/>
<stop offset="0.392929" stop-color="#FFED63"/>
<stop offset="0.715851" stop-color="#FDD400"/>
<stop offset="1" stop-color="#FFD600"/>
</linearGradient>
<linearGradient id="paint10_linear_825_2863" x1="170.5" y1="191" x2="170.5" y2="204" gradientUnits="userSpaceOnUse">
<stop stop-color="#FFE200"/>
<stop offset="0.392929" stop-color="#FFED63"/>
<stop offset="0.715851" stop-color="#FDD400"/>
<stop offset="1" stop-color="#FFD600"/>
</linearGradient>
<linearGradient id="paint11_linear_825_2863" x1="119.5" y1="46" x2="119.5" y2="183" gradientUnits="userSpaceOnUse">
<stop stop-color="#FFE200"/>
<stop offset="0.392929" stop-color="#FFED63"/>
<stop offset="0.715851" stop-color="#FDD400"/>
<stop offset="1" stop-color="#FFD600"/>
</linearGradient>
<linearGradient id="paint12_linear_825_2863" x1="119.5" y1="5" x2="119.5" y2="234" gradientUnits="userSpaceOnUse">
<stop stop-color="#FFE200"/>
<stop offset="0.392929" stop-color="#FFED63"/>
<stop offset="0.715851" stop-color="#FDD400"/>
<stop offset="1" stop-color="#FFD600"/>
</linearGradient>
<linearGradient id="paint13_linear_825_2863" x1="97.67" y1="197.8" x2="88.5855" y2="220.014" gradientUnits="userSpaceOnUse">
<stop stop-color="#FFE200"/>
<stop offset="0.392929" stop-color="#FFED63"/>
<stop offset="0.715851" stop-color="#FDD400"/>
<stop offset="1" stop-color="#FFD600"/>
</linearGradient>
<linearGradient id="paint14_linear_825_2863" x1="107.429" y1="200.712" x2="102.853" y2="224.272" gradientUnits="userSpaceOnUse">
<stop stop-color="#FFE200"/>
<stop offset="0.392929" stop-color="#FFED63"/>
<stop offset="0.715851" stop-color="#FDD400"/>
<stop offset="1" stop-color="#FFD600"/>
</linearGradient>
<linearGradient id="paint15_linear_825_2863" x1="118.325" y1="201.656" x2="118.783" y2="225.652" gradientUnits="userSpaceOnUse">
<stop stop-color="#FFE200"/>
<stop offset="0.392929" stop-color="#FFED63"/>
<stop offset="0.715851" stop-color="#FDD400"/>
<stop offset="1" stop-color="#FFD600"/>
</linearGradient>
<linearGradient id="paint16_linear_825_2863" x1="129.196" y1="201.298" x2="134.667" y2="224.666" gradientUnits="userSpaceOnUse">
<stop stop-color="#FFE200"/>
<stop offset="0.392929" stop-color="#FFED63"/>
<stop offset="0.715851" stop-color="#FDD400"/>
<stop offset="1" stop-color="#FFD600"/>
</linearGradient>
<linearGradient id="paint17_linear_825_2863" x1="140.392" y1="198.388" x2="147.155" y2="221.416" gradientUnits="userSpaceOnUse">
<stop stop-color="#FFE200"/>
<stop offset="0.392929" stop-color="#FFED63"/>
<stop offset="0.715851" stop-color="#FDD400"/>
<stop offset="1" stop-color="#FFD600"/>
</linearGradient>
<linearGradient id="paint18_linear_825_2863" x1="15.4944" y1="93.6686" x2="42.0283" y2="97.3219" gradientUnits="userSpaceOnUse">
<stop stop-color="#FFE200"/>
<stop offset="0.392929" stop-color="#FFED63"/>
<stop offset="0.715851" stop-color="#FDD400"/>
<stop offset="1" stop-color="#FFD600"/>
</linearGradient>
<linearGradient id="paint19_linear_825_2863" x1="19.3003" y1="77.7597" x2="44.4303" y2="86.4239" gradientUnits="userSpaceOnUse">
<stop stop-color="#FFE200"/>
<stop offset="0.392929" stop-color="#FFED63"/>
<stop offset="0.715851" stop-color="#FDD400"/>
<stop offset="1" stop-color="#FFD600"/>
</linearGradient>
<linearGradient id="paint20_linear_825_2863" x1="26.7931" y1="61.6448" x2="49.2842" y2="75.0304" gradientUnits="userSpaceOnUse">
<stop stop-color="#FFE200"/>
<stop offset="0.392929" stop-color="#FFED63"/>
<stop offset="0.715851" stop-color="#FDD400"/>
<stop offset="1" stop-color="#FFD600"/>
</linearGradient>
<linearGradient id="paint21_linear_825_2863" x1="36.7137" y1="48.0324" x2="56.0051" y2="64.9863" gradientUnits="userSpaceOnUse">
<stop stop-color="#FFE200"/>
<stop offset="0.392929" stop-color="#FFED63"/>
<stop offset="0.715851" stop-color="#FDD400"/>
<stop offset="1" stop-color="#FFD600"/>
</linearGradient>
<linearGradient id="paint22_linear_825_2863" x1="50.1786" y1="35.3911" x2="65.5819" y2="55.2367" gradientUnits="userSpaceOnUse">
<stop stop-color="#FFE200"/>
<stop offset="0.392929" stop-color="#FFED63"/>
<stop offset="0.715851" stop-color="#FDD400"/>
<stop offset="1" stop-color="#FFD600"/>
</linearGradient>
<linearGradient id="paint23_linear_825_2863" x1="67.262" y1="24.6336" x2="78.304" y2="46.585" gradientUnits="userSpaceOnUse">
<stop stop-color="#FFE200"/>
<stop offset="0.392929" stop-color="#FFED63"/>
<stop offset="0.715851" stop-color="#FDD400"/>
<stop offset="1" stop-color="#FFD600"/>
</linearGradient>
<linearGradient id="paint24_linear_825_2863" x1="87.0973" y1="16.9617" x2="93.6231" y2="40.197" gradientUnits="userSpaceOnUse">
<stop stop-color="#FFE200"/>
<stop offset="0.392929" stop-color="#FFED63"/>
<stop offset="0.715851" stop-color="#FDD400"/>
<stop offset="1" stop-color="#FFD600"/>
</linearGradient>
<linearGradient id="paint25_linear_825_2863" x1="106.302" y1="13.2942" x2="108.792" y2="37.0587" gradientUnits="userSpaceOnUse">
<stop stop-color="#FFE200"/>
<stop offset="0.392929" stop-color="#FFED63"/>
<stop offset="0.715851" stop-color="#FDD400"/>
<stop offset="1" stop-color="#FFD600"/>
</linearGradient>
<linearGradient id="paint26_linear_825_2863" x1="136.784" y1="14.0689" x2="133.099" y2="37.6445" gradientUnits="userSpaceOnUse">
<stop stop-color="#FFE200"/>
<stop offset="0.392929" stop-color="#FFED63"/>
<stop offset="0.715851" stop-color="#FDD400"/>
<stop offset="1" stop-color="#FFD600"/>
</linearGradient>
<linearGradient id="paint27_linear_825_2863" x1="156.46" y1="18.9238" x2="148.67" y2="41.6999" gradientUnits="userSpaceOnUse">
<stop stop-color="#FFE200"/>
<stop offset="0.392929" stop-color="#FFED63"/>
<stop offset="0.715851" stop-color="#FDD400"/>
<stop offset="1" stop-color="#FFD600"/>
</linearGradient>
<linearGradient id="paint28_linear_825_2863" x1="174.173" y1="26.7347" x2="162.408" y2="48.1488" gradientUnits="userSpaceOnUse">
<stop stop-color="#FFE200"/>
<stop offset="0.392929" stop-color="#FFED63"/>
<stop offset="0.715851" stop-color="#FDD400"/>
<stop offset="1" stop-color="#FFD600"/>
</linearGradient>
<linearGradient id="paint29_linear_825_2863" x1="188.441" y1="36.1178" x2="173.149" y2="55.7212" gradientUnits="userSpaceOnUse">
<stop stop-color="#FFE200"/>
<stop offset="0.392929" stop-color="#FFED63"/>
<stop offset="0.715851" stop-color="#FDD400"/>
<stop offset="1" stop-color="#FFD600"/>
</linearGradient>
<linearGradient id="paint30_linear_825_2863" x1="199.893" y1="46.5405" x2="181.461" y2="63.891" gradientUnits="userSpaceOnUse">
<stop stop-color="#FFE200"/>
<stop offset="0.392929" stop-color="#FFED63"/>
<stop offset="0.715851" stop-color="#FDD400"/>
<stop offset="1" stop-color="#FFD600"/>
</linearGradient>
<linearGradient id="paint31_linear_825_2863" x1="209.412" y1="58.3967" x2="188.083" y2="72.8736" gradientUnits="userSpaceOnUse">
<stop stop-color="#FFE200"/>
<stop offset="0.392929" stop-color="#FFED63"/>
<stop offset="0.715851" stop-color="#FDD400"/>
<stop offset="1" stop-color="#FFD600"/>
</linearGradient>
<linearGradient id="paint32_linear_825_2863" x1="217.525" y1="73.0914" x2="193.456" y2="83.5782" gradientUnits="userSpaceOnUse">
<stop stop-color="#FFE200"/>
<stop offset="0.392929" stop-color="#FFED63"/>
<stop offset="0.715851" stop-color="#FDD400"/>
<stop offset="1" stop-color="#FFD600"/>
</linearGradient>
<linearGradient id="paint33_linear_825_2863" x1="223.149" y1="91.1719" x2="196.979" y2="96.2214" gradientUnits="userSpaceOnUse">
<stop stop-color="#FFE200"/>
<stop offset="0.392929" stop-color="#FFED63"/>
<stop offset="0.715851" stop-color="#FDD400"/>
<stop offset="1" stop-color="#FFD600"/>
</linearGradient>
</defs>
</svg>
