<?xml version="1.0" encoding="utf-8"?>
<!-- Generator: Adobe Illustrator 28.0.0, SVG Export Plug-In . SVG Version: 6.00 Build 0)  -->
<svg version="1.1" id="Layer_1" xmlns="http://www.w3.org/2000/svg" xmlns:xlink="http://www.w3.org/1999/xlink" x="0px" y="0px"
	 viewBox="0 0 1080 1080" style="enable-background:new 0 0 1080 1080;" xml:space="preserve">
<style type="text/css">
	.st0{fill:#FFFFFF;}
</style>
<g>
	<circle class="st0" cx="540" cy="540" r="540"/>
</g>
<g>
	<path d="M312.5,946.2c-20.8-13.2-39.8-25.3-60.9-38.7c27.1-40.9,53.7-81,82.1-123.9c-56.3,0-109.3,0-163.9,0c0-32.1,0-62.3,0-94.6
		c21.9,0,43.3,0,64.7,0c48.5,0,96.9,0.2,145.4-0.3c6.7-0.1,16.4-1.6,19.5-6c21.8-31,42.3-63,65.2-97.8c-100.3,0-197.3,0-295.3,0
		c0-31.5,0-60.8,0-93c7.3,0,14.4,0,21.5,0c106.1,0,212.3-0.2,318.4,0.3c12.4,0.1,20.1-3.5,26.8-14.3c17.5-28.1,36.2-55.3,56.5-86
		c-142.9,0-282.8,0-423.5,0c0-31.7,0-61,0-92.9c7.5,0,14.6,0,21.8,0c148.5,0,296.9-0.2,445.4,0.3c13.2,0,20.8-3.9,28-15.1
		c32.2-50.1,65.4-99.6,99.2-150.7c20.1,13.7,39.2,26.7,59.7,40.6c-27,41.2-53.1,81.1-81.1,123.9c57.5,0,112.6,0,168.9,0
		c0,31.8,0,61.1,0,92.5c-6.4,0.3-12.8,0.8-19.3,0.9c-65.6,0.1-131.3-0.3-196.9,0.5c-7.5,0.1-17.4,5.3-21.8,11.4
		c-19.9,27.8-38.2,56.7-58.9,87.9c100.5,0,197.7,0,296.5,0c0,31.4,0,61.1,0,93.1c-7.7,0-14.9,0-22,0c-106.1,0-212.3,0.3-318.4-0.3
		c-13.3-0.1-21.1,4.2-28,15.3c-18.1,29-37.4,57.3-58.3,89.2c144.4,0,285,0,427,0c0,32,0,61.8,0,94.2c-7.5,0-14.6,0-21.7,0
		c-149.7,0-299.4,0.2-449.1-0.3c-13.9,0-21.9,3.9-29.6,15.8C378.8,847.6,346,895.9,312.5,946.2z"/>
</g>
</svg>
