<svg xmlns="http://www.w3.org/2000/svg" viewBox="0 0 400 400"><defs><clipPath id="a"><circle cx="200" cy="200" r="200" fill="none"/></clipPath></defs><g clip-path="url(#a)"><path fill="#000a3e" d="M0 0h400v400H0V0Z"/><path fill="#fff" fill-rule="evenodd" d="m198.22 175.11-2.22 1.78c-4.74 6.15-9.48 12.3-14.22 18.44-2.67 2.22-4.44 4-5.78 5.56l-35.11 45.78a7.107 7.107 0 0 1-4 2.67l-.67.44c-8.29 10.66-16.66 21.25-25.11 31.78a21.544 21.544 0 0 1-8.89 7.11h-.44l-.44-.22c-20.72-29.33-28.22-66-20.67-101.11 10.36-50.51 51.04-89.24 102-97.11 24.57-3.76 49.7.36 71.78 11.78 41.92 21.67 68.11 65.04 67.78 112.22.05 26.83-8.43 52.98-24.22 74.67a23.177 23.177 0 0 1-8.89-7.33c-10-12.89-20.67-25.78-32-38.67-4.44-5.33-8.44-8.67-14.44-11.11-.8-.2-1.51-.67-2-1.33l-24.44-44.44c-3.11-5.33-8.44-8.89-13.33-12a2.44 2.44 0 0 0-2.67 0c-.67.43-1.34.88-2 1.33v-.22Zm4.45-65.33h6.67c.06-.12.21-.17.33-.11s.17.21.11.33v.22l-5.56 4.44 2 6.67c.08.14.08.31 0 .44H206c-.07.04-.15.04-.22 0l-5.78-4c0-.12-.1-.22-.22-.22s-.22.1-.22.22l-5.33 4c0 .12-.1.22-.22.22s-.22-.1-.22-.22a.41.41 0 0 1 0-.22l2-6.67v-.22l-5.78-4.22c-.12 0-.22-.1-.22-.22s.1-.22.22-.22h7.11c.12 0 .22-.1.22-.22s2.22-6.67 2.22-6.67a.41.41 0 0 1 0-.22h.44l2.22 6.67v.22h.44ZM177.56 112l-6.44 2.22-.44-.22-3.78-5.56h-.67v7.11c-.04.1-.12.18-.22.22l-6.44 2.22c-.12 0-.22.1-.22.22s.1.22.22.22l6.44 2.22v7.11l.22.22v.22c0 .18.15.33.33.33s.33-.15.33-.33l3.78-5.78c0-.12.1-.22.22-.22s.22.1.22.22l6.44 2.22c.12 0 .22-.1.22-.22v-.44l-3.78-5.56v-.67l3.78-5.33c.08-.14.08-.31 0-.44h-.22Zm56.44 3.78 6.22 2.22a.41.41 0 0 1 .22 0v.44h-.22l-6.22 2.22c-.08.14-.08.31 0 .44v6.67c-.09.16-.26.25-.44.22-.14.08-.31.08-.44 0l-3.78-5.33a.433.433 0 0 0-.44 0c0-.22 0 0 0 0l-6.22 1.78c-.14.08-.31.08-.44 0a.453.453 0 0 1-.04-.63l.04-.04 3.78-5.33c.08-.14.08-.31 0-.44l-3.78-5.33v-.22a.41.41 0 0 1 0-.22c.04-.1.12-.18.22-.22l6.22 2c.14.08.31.08.44 0l4-5.56c.14-.08.31-.08.44 0 .02.07.02.15 0 .22l.22 6.67v.22h.22v.22Zm-82.22 19.55-5.56-4v-.44l2.22-6.44-.22-.44a.433.433 0 0 0-.44 0l-5.33 4.22a.41.41 0 0 1-.22 0h-.22l-5.33-4.22a.453.453 0 0 0-.63-.04l-.04.04v.44l2.22 6.67c-.04.1-.12.18-.22.22l-5.33 4c-.16.09-.25.26-.22.44.09.16.26.25.44.22h6.67a.41.41 0 0 1 .22 0v.22l2 6.67c.14.08.31.08.44 0 .07.02.15.02.22 0l2.22-6.67a.41.41 0 0 1 0-.22h6.67c.14.08.31.08.44 0 .18-.16.2-.44.04-.63l-.04-.04Zm110.22-4 5.56 4v.44c.04.07.04.15 0 .22h-7.11l-2.22 6.67c.12.06.17.21.11.33-.06.12-.21.17-.33.11h-.22v-.22l-2.22-6.67-.22-.22h-6.89c-.07.04-.15.04-.22 0v-.67l5.56-4v-.44l-2.22-6.67.22-.22h.44l5.56 4.22h.22l5.56-4.22h.44v.44l-2.22 6.67.22.22Zm-131.78 23.11-6.22-2v-7.11h-.22a.423.423 0 0 0-.44-.22h-.22l-3.78 5.56h-.44l-6.22-2a.433.433 0 0 0-.44 0c-.18.16-.2.44-.04.63l.04.04 3.78 5.33c.08.14.08.31 0 .44l-3.78 5.56v.22a.41.41 0 0 0 0 .22h.44l6.22-2c.14-.08.31-.08.44 0l3.78 5.56c.16.18.44.2.63.04l.04-.04v-6.89h.22l6.22-2.22h.22v-.44c.08-.14.08-.31 0-.44l-.22-.22Zm151.11-3.77 6.22-2.22.44.44v.44l-4 5.33v.44l4 5.56c.08.14.08.31 0 .44h-.44l-6.22-2h-.44l-3.78 5.56h-.22a.45.45 0 0 1-.62-.12c-.02-.03-.04-.06-.05-.1v-6.89l-6.44-2.22a.453.453 0 0 1-.04-.63l.04-.04 6.22-2.22h.22v-7.11c.04-.1.12-.18.22-.22h.44l4 5.56c.14.08.31.08.44 0Zm-165.77 28.89h-6.67l-.22-.22-2.22-6.67h-.44l-2.22 6.67c-.04.1-.12.18-.22.22h-7.11c-.08.14-.08.31 0 .44l5.56 4.44-2 6.67c-.08.14-.08.31 0 .44h.44l5.56-4c0-.12.1-.22.22-.22s.22.1.22.22l5.33 4c0 .18.15.33.33.33s.33-.15.33-.33v-.44l-2.22-6.67 5.56-4.44c.08-.14.08-.31 0-.44h-.22Zm180.66 0h6.89c.08.14.08.31 0 .44l-5.56 4.44 2.22 6.67v.22l-.22.22c0 .12-.1.22-.22.22s-.22-.1-.22-.22l-5.56-4a.217.217 0 0 0-.22 0l-5.56 4c0 .12-.1.22-.22.22s-.22-.1-.22-.22v-.44l2.22-6.67h-.22l-5.56-4.44v-.44h7.11v-.22l2.22-6.67c0-.18.15-.33.33-.33s.33.15.33.33l2.22 6.67v.22h.22ZM109.33 208l-6.22 2.22h-.22V210l-4-5.56h-.67v7.33h-.44l-6.22 2.22c-.18.16-.2.44-.04.63l.04.04 6.22 2.22c.14-.08.31-.08.44 0v6.89c-.08.14-.08.31 0 .44h.22c.07.02.15.02.22 0l4-5.56h.44l6.22 2c.07.02.15.02.22 0h.22v-.67l-3.78-5.56a.453.453 0 0 1-.04-.63l.04-.04 3.78-5.33c.08-.14.08-.31 0-.44a.396.396 0 0 0-.22-.22l-.22.22Zm192.89 3.78 6 2.22c.16.09.25.26.22.44l-.22.22-6 2.22a.43.43 0 0 0-.44.22v6.67c.02.07.02.15 0 .22h-.22c-.14.08-.31.08-.44 0l-3.78-5.33a.41.41 0 0 0-.22 0h-.22l-6.22 1.78h-.44v-.67l3.78-5.11v-.44l-3.78-5.56v-.44c.16-.18.44-.2.63-.04l.04.04 6 2c.18.02.36-.06.44-.22l3.78-5.33c.14-.08.31-.08.44 0 .1.04.18.12.22.22v6.67c.09.16.26.25.44.22ZM116 248.44l-5.33-4-.22-.22V244l2.22-6.67v-.22H112l-5.33 4c-.14.08-.31.08-.44 0l-5.33-4h-.89v.44l2.22 6.44c.08.14.08.31 0 .44l-5.56 4c-.16.09-.25.26-.22.44l.22.22h7.11l2.22 6.67c-.08.14-.08.31 0 .44h.44v-.44l2.22-6.67a.41.41 0 0 1 .22 0h6.89l.22-.22c.08-.14.08-.31 0-.44Zm182-4 5.33 4v.44l-.22.22h-6.67a.43.43 0 0 0-.44.22l-2 6.44v.22c-.16.18-.44.2-.63.04l-.04-.04-2.22-6.67v-.22H284v-.67l5.56-4c.08-.14.08-.31 0-.44l-2.22-6.44c0-.25.2-.44.44-.44h.44l5.33 4h.44l5.33-4h.44v.44l-2.22 6.44v.22h.22v.22h.22Z"/><path fill="#fff" d="M240 242.22c.67-.67.67-1.56.44-2.44-.22-1.11 0-1.56.89-1.11 4.44 1.78 7.33 4.44 10.67 8.22 11.11 12.67 22.22 26.44 33.78 41.33.44.44.44.67-.22.67h-26.22c-.44 0-.67-.67-.89-.89-.29-.15-.52-.38-.67-.67a123.383 123.383 0 0 0-16.67-24.22l-.44-.44-.89-.67h-.67l-.44.44v1.33c3.56 9.33 5.56 15.11 6 16.89.44 2 .67 3.78.22 5.56l-.22.44H244a206.86 206.86 0 0 1-24.89-3.56c-.05.14-.05.3 0 .44l.67 4.67v.44l-.44.22h-20.89a.41.41 0 0 1-.22 0v-.44c-.89-4.67-.67-8.89.44-13.78 1.78-6.67 4.44-13.78 7.78-20.67 0-.44 0-.89-.44-1.11a64.603 64.603 0 0 0-8.22-2.89c-2.86-.54-5.76-.76-8.67-.67-3.41-.14-6.82-.29-10.22-.44l12.44-29.33c.89-2.22.44-4.22-2-4.44a.423.423 0 0 1-.22-.44v-.44l13.33-32c.14-.08.31-.08.44 0 4.44 2.22 6 4.44 8.89 9.11 9.34 16.96 18.67 33.92 28 50.89.07.04.15.04.22 0Zm-83.56 20c-.17-.36-.32-.73-.44-1.11l.22-.89c6-10.44 10.44-17.78 13.33-22.22 1.77-2.95 3.94-5.64 6.44-8l2.22-2.44c3.33-4 4-3.56 1.78 1.11l-7.56 16.67c-1.33 2.89-.89 5.11 1.11 6.89.44.22.44.67.22.89l-3.56 8.89c0 .22-.22.44-.67.44-3.76 1.03-7.1 3.2-9.56 6.22-3.33 4-6.22 7.78-8.44 11.33-.67 1.33-1.33 1.33-2.22 0v-.44a3.54 3.54 0 0 1-.44-3.78c2.48-4.46 5-8.91 7.56-13.33v-.22Z"/></g></svg>