<svg xmlns="http://www.w3.org/2000/svg" viewBox="0 0 400 400"><defs><clipPath id="a"><circle cx="200" cy="200" r="200" fill="none"/></clipPath></defs><g clip-path="url(#a)"><path fill="#6e93be" d="M0 0h400v400H0z"/><path fill="#fff" d="m133.33 207.55 14.39 11.84v59.46c0 .62.05 1.78-3.58 1.78-23.7-1.78-33.03-25.51-33.03-80.4s14.89-80.4 33.33-80.4c12.7 0 15.36 9.02 22.13 28.88l7.27 21.66h14.41v-55.64c-17.48-3.12-33.68-3.62-40.95-3.62-57.21 0-80.64 30.37-80.64 89.66 0 55.14 21.51 88.11 78.47 88.11 13.99 0 24.97-1.22 43.1-4.59v-84.3h-54.9v7.55Zm145.47-21.26-26.19-14.66c-13.74-7.73-20.71-16.99-20.71-28.88 0-13.67 9.06-22.69 24.35-22.69 13.99 0 23.77 7.98 30.74 29.38l6.97 20.94h17.15v-55.76c-17.38-2.33-35.45-3.49-44.76-3.49-41.42 0-66.32 18.7-66.32 49.12 0 20.11 10.9 33.44 30.82 43.99l25.89 13.92c15.04 7.98 22.01 18.28 22.01 32.5 0 17.54-11.15 30.66-26.69 30.66-14.74 0-28.48-22.72-39.88-59.08H200v62.94c16.08 2.82 32.89 3.72 44.54 3.72 42.47 0 66.57-19.18 66.57-54.2.05-22.74-10.31-36.06-32.31-48.4Z"/></g></svg>