<svg xmlns="http://www.w3.org/2000/svg" viewBox="0 0 400 400"><defs><linearGradient id="b" x1="81.16" x2="493.5" y1="720.49" y2="246.89" gradientTransform="matrix(1 0 0 -1 0 784)" gradientUnits="userSpaceOnUse"><stop offset="0" stop-color="#1a1e21"/><stop offset="1" stop-color="#06060a"/></linearGradient><clipPath id="a"><circle cx="200" cy="200" r="200" fill="none"/></clipPath></defs><g clip-path="url(#a)"><path fill="url(#b)" d="M0 0h400v400H0V0Z"/><path fill="#fff" d="M288.89 235.49a107.295 107.295 0 0 1-15.07 28.6c-5.98 8.07-10.87 13.64-14.62 16.73-5.82 5.11-12.09 7.71-18.78 7.84-4.82 0-10.62-1.31-17.38-3.93a52.061 52.061 0 0 0-18.67-3.91c-5.96 0-12.36 1.29-19.2 3.91-6.87 2.62-12.4 4-16.62 4.13-6.4.27-12.82-2.4-19.2-8.04-4.09-3.36-9.18-9.16-15.29-17.33a117.77 117.77 0 0 1-16.18-30.44 106.274 106.274 0 0 1-6.78-36.22c0-13.4 3.07-24.98 9.18-34.67a53.881 53.881 0 0 1 45.2-25.38c5.11 0 11.8 1.51 20.11 4.44 8.29 2.96 13.6 4.44 15.93 4.44 1.76 0 7.67-1.76 17.69-5.24 9.47-3.22 17.49-4.56 24.04-4.04 17.76 1.38 31.09 8 39.96 19.96-15.87 9.11-23.73 21.89-23.58 38.27.16 12.76 5.02 23.4 14.62 31.82a48.92 48.92 0 0 0 14.62 9.09v-.02Zm-44.67-146.6c.13 1.33.22 2.67.22 4 0 10-3.87 19.33-11.56 28-9.27 10.27-20.49 16.22-32.67 15.27-.16-1.25-.23-2.52-.22-3.78 0-9.62 4.4-19.89 12.22-28.29 3.91-4.27 8.89-7.78 14.91-10.62a46.433 46.433 0 0 1 17.09-4.58Z"/></g></svg>