<svg xmlns="http://www.w3.org/2000/svg" viewBox="0 0 400 400"><defs><clipPath id="a"><circle cx="200" cy="200" r="200" fill="none"/></clipPath></defs><g clip-path="url(#a)"><path fill="#ff385c" d="M0 0h400v400H0V0Z"/><path fill="#fff" d="M290.76 228.6c.33.82.67 1.63 1.02 2.44 2.64 7.4 3.44 14.4 1.82 21.4-2.22 14.82-12.22 27.64-26.44 33.24a41.719 41.719 0 0 1-21.78 2.8 54.5 54.5 0 0 1-20.36-6.8c-8.13-4.6-16.27-11.22-25.22-20.82-8.96 9.6-16.89 16.22-25.24 20.82a54.395 54.395 0 0 1-25.64 7.2c-5.69 0-11.18-1-16.47-3.2a42.649 42.649 0 0 1-26.44-33.24c-1.04-7.2-.22-14.22 2.42-21.62 1.02-2.6 2.04-5 3.04-7.2l2.22-4.8 2.47-5.4.22-.4c14.32-30.49 29.31-60.66 44.96-90.49l.6-1.22c1.64-3 3.27-6.2 4.89-9.4 2.04-3.6 4.27-7.4 7.33-11a34.289 34.289 0 0 1 26.04-12.02c9.98 0 19.33 4.4 25.84 12.42 3 3.33 4.96 6.8 6.84 10.16l.49.84c1.62 3.2 3.24 6.4 4.89 9.4l.6 1.22c15.73 29.79 30.72 59.97 44.98 90.49l.2.2 2.47 5.4 2.22 4.8c.67 1.47 1.33 3.11 2.02 4.78Zm-111.34-24.4c2.44 10.82 9.58 23.62 20.58 37.24 10.98-13.82 18.11-26.62 20.56-37.24 1-4 1.21-8.15.6-12.22-.4-3.02-1.51-5.9-3.24-8.4-3.69-5.58-10.38-8.8-17.91-8.8a21.698 21.698 0 0 0-17.91 8.8 19.36 19.36 0 0 0-3.27 8.42c-.59 4.08-.38 8.23.62 12.22l-.02-.02Zm83.25 70.07c10-4 17.11-13 18.53-23.42.74-5.17.25-10.45-1.42-15.4-.49-1.47-1.07-2.91-1.73-4.31-.32-.7-.63-1.4-.93-2.11-.8-1.6-1.56-3.29-2.33-5-.74-1.69-1.52-3.35-2.33-5v-.22c-14.29-30.3-29.15-60.33-44.58-90.07l-.6-1.2-2.44-4.6-2.44-4.62c-1.54-3.15-3.45-6.1-5.69-8.8a21.428 21.428 0 0 0-16.29-7.4 21.436 21.436 0 0 0-16.27 7.4 43.518 43.518 0 0 0-5.71 8.8c-.83 1.54-1.64 3.08-2.44 4.62-.8 1.56-1.62 3.11-2.44 4.6l-.6 1.2a2166.641 2166.641 0 0 0-44.78 89.89l-.2.4c-1.93 4.01-3.8 8.04-5.6 12.11-.67 1.51-1.29 2.91-1.73 4.31-2.02 5.6-2.44 10.6-1.82 15.6 1.42 10.42 8.56 19.42 18.51 23.42 4.67 1.8 9.98 2.6 15.47 2 5.11-.6 10.18-2.2 15.47-5.2 7.33-4 14.87-10.22 23.2-19.42-13.22-16.22-21.56-31.22-24.62-44.44a40.822 40.822 0 0 1-1.02-17c.82-5.02 2.67-9.62 5.51-13.62 6.31-8.8 16.89-14.22 28.67-14.22s22.4 5.22 28.71 14.22c2.84 4 4.67 8.6 5.49 13.62.62 5.2.42 10.8-1.02 17-3.04 13.22-11.18 28.04-24.62 44.24 8.56 9.22 15.89 15.42 23.2 19.42 5.29 3 10.38 4.6 15.47 5.2 5.31.6 10.6 0 15.47-2Z"/></g></svg>