<svg xmlns="http://www.w3.org/2000/svg" viewBox="0 0 400 400"><defs><clipPath id="a"><circle cx="200" cy="200" r="200" fill="none"/></clipPath></defs><g clip-path="url(#a)"><path fill="#181b1e" d="M0 0h400v400H0V0Z"/><path fill="#f0f3fa" d="M88.89 200c.06-61.43 49.91-111.17 111.33-111.11 61.43.06 111.17 49.91 111.11 111.33-.06 61.43-49.91 111.17-111.33 111.11-61.43-.06-111.17-49.91-111.11-111.33Zm94.67-95.56c-53.39 10.3-88.31 61.92-78.01 115.31a97.798 97.798 0 0 0 5.13 17.58l72.89-132.67v-.22Zm23.55 6.67V184c17.12-21.36 17.12-51.75 0-73.11v.22Zm21.33 64.45 51.78-30a97.797 97.797 0 0 0-60-40.22A70.259 70.259 0 0 1 234 147.56c0 9.56-2 19.11-5.56 27.78v.22Zm-99.11 57.11L192.89 196v-79.33l-63.56 116ZM214 200l73.33 42.22c6.22-13.11 8.89-27.56 8.89-42.22s-2.67-29.11-8.89-42.22L214 200Zm-94 54.44a96.466 96.466 0 0 0 73.33 41.78v-84L120 254.44Zm87.33-42.22v84a96.45 96.45 0 0 0 73.11-41.78l-73.33-42.22h.22Z"/></g></svg>