<?xml version="1.0" encoding="UTF-8"?>
<svg xmlns="http://www.w3.org/2000/svg" xmlns:xlink="http://www.w3.org/1999/xlink" version="1.1" viewBox="0 0 500 500">
  <defs>
    <linearGradient id="linear-gradient" x1="25.5" y1="250.5" x2="475.5" y2="250.5" gradientUnits="userSpaceOnUse">
      <stop offset="0" stop-color="#0284fe"/>
      <stop offset="1" stop-color="#02c2fe"/>
    </linearGradient>
    <linearGradient id="linear-gradient-2" x1="5949.1" y1="4504" x2="6024.3" y2="4662.9" gradientTransform="translate(-5683 4838) scale(1 -1)" xlink:href="#linear-gradient"/>
  </defs>
  <g id="AUDIT-Token-Blue" display="none">
    <circle cx="250.5" cy="250.5" r="225" fill="url(#linear-gradient)" stroke-width="0"/>
    <g>
      <path d="M248.5,264.4l-31,53.8c-.2.4-.4.9-.4,1.3,0,.5.1.9.4,1.3s.6.7,1,1c.4.2.9.4,1.3.4h60.1c.7,0,1.3-.2,1.9-.5s1-.8,1.4-1.4c.3-.6.5-1.2.5-1.9s-.2-1.3-.5-1.9l-30.1-52.2c-.2-.4-.6-.7-1-1-.4-.2-.8-.4-1.3-.4s-.9.1-1.3.4c-.4.2-.7.6-1,1Z" fill="#fafafa" stroke-width="0"/>
      <g>
        <path d="M244.7,99.5l-66.1,110.2c-.7,1.1-1,2.4-1,3.8s.4,2.6,1,3.8l36,59.7c.7,1.1,1.6,2,2.7,2.6,1.1.6,2.4.9,3.6.9,1.3,0,2.5-.4,3.6-1,1.1-.6,2-1.6,2.6-2.7l64.6-111.8c.6-1.1.9-2.2.9-3.5,0-1.2-.4-2.4-1-3.4l-35.3-58.6c-.6-1-1.5-1.8-2.5-2.4-1-.6-2.2-.9-3.4-.9-1.2,0-2.3.3-3.3.9-1,.6-1.9,1.4-2.5,2.4Z" fill="#fafafa" stroke-width="0"/>
        <path d="M100.5,347.1c.6,1.1,1.6,2.1,2.7,2.7,1.1.7,2.4,1,3.7,1h73.5c1.3,0,2.5-.3,3.7-1,1.1-.6,2-1.6,2.7-2.7l26.5-46c.7-1.1,1-2.4,1-3.7,0-1.3-.4-2.6-1-3.7l-36.3-60.2c-.6-1.1-1.6-2-2.7-2.6-1.1-.6-2.3-.9-3.6-.9s-2.5.3-3.6.9c-1.1.6-2,1.5-2.7,2.6l-63.7,106.2" fill="#fafafa" stroke-width="0"/>
      </g>
      <g>
        <path d="M260.1,322.1h21.7c.5,0,.9-.1,1.3-.3.4-.2.7-.6,1-1,.2-.4.3-.8.3-1.3s-.1-.9-.3-1.3l-31.1-53.8c-.2-.4-.6-.7-1-1-.4-.2-.8-.3-1.3-.3s-.9.1-1.3.3c-.4.2-.7.6-1,1l-4.2,7.3,15.8,50.5Z" fill="#f4f4f4" stroke-width="0"/>
        <path d="M237.9,258.3l12.8-22.2-43.4-74.3,30.6,96.4Z" fill="#f4f4f4" stroke-width="0"/>
      </g>
      <path d="M394.2,350.3h-73.4c-1.3,0-2.5-.3-3.7-1-1.1-.6-2-1.6-2.7-2.7l-107.2-185.5,37-61.4c.6-1.1,1.6-2,2.7-2.6,1.1-.6,2.3-.9,3.6-.9s2.5.3,3.6.9c1.1.6,2,1.5,2.7,2.6l143.7,239.5" fill="#fff" stroke-width="0"/>
    </g>
  </g>
  <g id="AUDIT-Token-White">
    <g>
      <circle cx="250" cy="250" r="225" fill="#fff" stroke-width="0"/>
      <g>
        <path d="M247.4,267.4l-30.8,53.8c-.2.4-.4.9-.4,1.3s.1.9.4,1.3c.2.4.6.7,1,1,.4.2.9.4,1.3.4h59.7c.6,0,1.3-.2,1.8-.5.6-.3,1-.8,1.4-1.4.3-.6.5-1.2.5-1.9s-.2-1.3-.5-1.9l-29.9-52.3c-.2-.4-.6-.7-1-1-.4-.2-.8-.4-1.3-.4s-.9.1-1.3.4c-.4.2-.7.6-1,1Z" fill="#0395e8" stroke-width="0"/>
        <path d="M259,325.3h21.5c.5,0,.9-.1,1.3-.3.4-.2.7-.6,1-1,.2-.4.3-.8.3-1.3s-.1-.9-.3-1.3l-30.9-53.9c-.2-.4-.6-.7-.9-1-.4-.2-.8-.4-1.3-.4s-.9.1-1.3.4c-.4.2-.7.6-.9,1l-4.1,7.3,15.7,50.5Z" fill="#0384cc" stroke-width="0"/>
        <path d="M243.7,102.4l-65.7,110.4c-.7,1.1-1,2.4-1,3.8s.4,2.6,1,3.8l35.8,59.8c.7,1.1,1.6,2,2.7,2.6,1.1.6,2.3.9,3.6.9,1.3,0,2.5-.4,3.6-1,1.1-.6,2-1.6,2.6-2.7l64.2-112c.6-1.1.9-2.3.9-3.5s-.3-2.4-1-3.5l-35.1-58.7c-.6-1-1.4-1.8-2.5-2.4-1-.6-2.2-.9-3.3-.9-1.2,0-2.3.3-3.3.9-1,.6-1.9,1.4-2.5,2.4Z" fill="#0395e8" stroke-width="0"/>
        <path d="M106.8,354h73c1.3,0,2.5-.3,3.6-1,1.1-.6,2-1.6,2.7-2.7l26.4-46c.7-1.1,1-2.4,1-3.7,0-1.3-.4-2.6-1-3.7l-36.1-60.3c-.6-1.1-1.6-2-2.6-2.6-1.1-.6-2.3-.9-3.6-.9s-2.5.3-3.6.9c-1.1.6-2,1.5-2.6,2.6l-63.3,106.3c-.7,1.1-1,2.4-1,3.7,0,1.3.3,2.6.9,3.7.6,1.1,1.5,2.1,2.7,2.7,1.1.7,2.4,1,3.7,1Z" fill="#0395e8" stroke-width="0"/>
        <path d="M237,261.4l12.7-22.2-43.1-74.4,30.4,96.6Z" fill="#0384cc" stroke-width="0"/>
        <path d="M206.5,164l36.7-61.5c.6-1.1,1.6-2,2.6-2.6,1.1-.6,2.3-.9,3.6-.9s2.5.3,3.6.9c1.1.6,2,1.5,2.6,2.6l142.7,239.8c.7,1.1,1,2.4,1,3.7,0,1.3-.3,2.6-.9,3.7-.6,1.1-1.6,2.1-2.7,2.7-1.1.7-2.4,1-3.7,1h-73c-1.3,0-2.5-.3-3.6-1-1.1-.6-2-1.6-2.7-2.7l-106.5-185.8Z" fill="url(#linear-gradient-2)" stroke-width="0"/>
      </g>
    </g>
  </g>
</svg>