<svg xmlns="http://www.w3.org/2000/svg" viewBox="0 0 700 450"><circle cx="486" cy="225.2" r="214" fill="#fff"/><path d="M556.5 95.5c10.6 0 19.3-8.8 19.3-19.6s-8.6-19.6-19.3-19.6-19.3 8.8-19.3 19.6 8.6 19.5 19.3 19.6Zm5.7 50.8c9.1 0 16.4-7.5 16.3-16.6 0-9.1-7.3-16.6-16.3-16.6s-16.3 7.4-16.3 16.6 7.3 16.6 16.3 16.6Zm44.8 6.5c9 0 16.3-7.4 16.3-16.5s-7.3-16.5-16.3-16.5-16.3 7.4-16.3 16.5 7.3 16.5 16.3 16.5Zm-5.3 43.5c7.7 0 13.9-6.3 13.9-14.1s-6.2-14.1-13.9-14.1-13.9 6.3-13.9 14.1 6.2 14.1 13.9 14.1Zm35.8 14.1c7.8 0 14-6.4 14-14.2s-6.3-14.2-14-14.2-14.1 6.4-14 14.2c0 7.8 6.3 14.2 14 14.2Zm-80.9-20c7.9 0 14.3-6.5 14.3-14.4 0-8-6.4-14.5-14.3-14.5s-14.3 6.5-14.3 14.5 6.4 14.5 14.3 14.5Zm-13 34.6c6.6 0 12-5.4 12-12.1s-5.3-12.1-11.9-12.1c-6.6 0-12 5.4-12 12.1S537 225 543.6 225Zm44.9 6.2c6.6 0 11.9-5.4 11.9-12 0-6.7-5.3-12.1-11.9-12.1s-11.9 5.4-11.9 12.1 5.2 12 11.7 12.1h.2Zm35.8 14c6.6 0 12-5.4 12-12.2s-5.3-12.2-12-12.2-12 5.4-12 12.2 5.3 12.1 12 12.2Zm-17.7 26.3c5.6 0 10.1-4.6 10.1-10.2s-4.5-10.3-10.1-10.3-10.1 4.6-10.1 10.3 4.5 10.2 10.1 10.2Zm-35.9-13.8c5.7 0 10.3-4.7 10.3-10.5s-4.6-10.5-10.3-10.5-10.3 4.7-10.3 10.5 4.7 10.5 10.3 10.5Zm-44.9-6.5c5.7 0 10.3-4.8 10.3-10.5s-4.6-10.2-10.3-10.3c-5.7 0-10.3 4.8-10.3 10.5s4.6 10.2 10.3 10.3Zm25 24.7c4.9 0 8.9-4.1 8.9-9s-3.9-9-8.9-9c-4.9 0-8.9 4.1-8.9 9s3.9 9 8.8 9h.1Zm35.9 14.1c4.9 0 9-4.1 9-9.1s-4.1-9-9.1-9-9 4.1-9 9.1 4.1 9 9.1 9Zm-20.2 10.5c3.9 0 7.1-3.2 7.1-7.2s-3.2-7.2-7.1-7.2-7.1 3.2-7.1 7.2 3.2 7.2 7.1 7.2Zm-19.2 5.7c3.6 0 6.4-2.9 6.4-6.5s-2.9-6.5-6.4-6.5-6.4 2.9-6.4 6.5 2.8 6.5 6.3 6.5h.1Zm-16.8-18.8c4.2 0 7.7-3.5 7.7-7.8s-3.4-7.8-7.7-7.8-7.7 3.5-7.7 7.8 3.4 7.7 7.7 7.8Zm-24.7-17.7c4.9 0 8.9-4 8.9-9s-3.9-9-8.9-9c-4.9 0-8.9 4-8.9 9s4 9 8.9 9Zm73.1 112.9c10.6 0 19.2-8.7 19.2-19.5s-8.6-19.5-19.2-19.5-19.2 8.7-19.2 19.5 8.6 19.5 19.2 19.5ZM530.2 358c8.8 0 16-7.3 16-16.2s-7.2-16.2-16-16.2-16 7.3-16 16.2 7.2 16.2 16 16.2Zm-27.8 35.7c8.9 0 16.1-7.3 16.1-16.4s-7.2-16.4-16.1-16.4-16.1 7.3-16.1 16.4 7.2 16.3 16.1 16.4Zm-8.4-65.8c7.8 0 14-6.4 14-14.2 0-7.8-6.2-14.1-14-14.2-7.8 0-14 6.4-14 14.2 0 7.8 6.3 14.2 14 14.2Zm-27.8 36.2c7.7 0 13.9-6.3 13.9-14.1s-6.2-14.1-13.9-14.1-13.9 6.3-13.9 14.1 6.1 14 13.8 14.1h.1Zm-29.9 24.5c7.7 0 13.9-6.3 13.9-14.1s-6.2-14.1-13.9-14.1-13.9 6.3-13.9 14.1 6.2 14.1 13.9 14.1Zm-24.9-31.9c6.6 0 11.9-5.4 11.9-12s-5.3-12-11.9-12c-6.6.1-11.9 5.6-11.8 12.2.1 6.5 5.3 11.7 11.8 11.8Zm30-24.6c6.6 0 11.9-5.4 11.9-12s-5.3-12-11.9-12c-6.6.1-11.9 5.6-11.8 12.2.1 6.5 5.3 11.7 11.8 11.8Zm28-36.2c6.6 0 11.9-5.4 11.9-12 0-6.7-5.3-12.1-11.9-12.1s-11.9 5.4-11.9 12c0 6.7 5.3 12.1 11.9 12.1Zm-42.8 5c5.7 0 10.3-4.7 10.3-10.4s-4.6-10.4-10.3-10.4-10.3 4.7-10.3 10.4 4.6 10.4 10.3 10.4Zm-29.9 24.5c5.7 0 10.2-4.6 10.2-10.3 0-5.7-4.5-10.3-10.1-10.4-5.7 0-10.2 4.6-10.2 10.3 0 5.7 4.5 10.3 10.2 10.4h-.1Zm-6.8-28.7c4.9 0 8.8-4 8.8-8.9s-4-8.9-8.8-8.9-8.8 4-8.8 8.9 4 8.9 8.8 8.9Zm-.3-25.3c4.2 0 7.6-3.5 7.6-7.7s-3.4-7.7-7.6-7.7-7.6 3.4-7.6 7.7 3.4 7.7 7.6 7.7Zm4.2-21c3.6 0 6.4-2.9 6.4-6.5s-2.9-6.5-6.4-6.5-6.4 2.9-6.4 6.5 2.8 6.5 6.4 6.5Zm25.7-3.5c4.2 0 7.7-3.5 7.7-7.8s-3.4-7.8-7.7-7.8-7.7 3.5-7.7 7.8 3.4 7.7 7.6 7.8h.1Zm28.2-11c4.9 0 8.9-4.1 8.9-9s-3.9-9-8.9-9c-4.9 0-8.9 4.1-8.9 9s3.9 9 8.9 9Zm6.7 28.7c5.6 0 10.1-4.6 10.1-10.1s-4.6-10.1-10.1-10.1-10.1 4.6-10.1 10.1 4.5 10.1 10.1 10.1Zm-34.5 7.6c4.9 0 8.8-4 8.8-9s-4-9-8.8-9-8.8 4-8.8 8.9 3.8 8.9 8.7 9h.1Zm-97.6-13.3c10.5 0 19.1-8.7 19.1-19.4s-8.6-19.4-19.1-19.4-19.1 8.7-19.1 19.4 8.6 19.4 19.1 19.4Zm43.4-34.6c9.1 0 16.4-7.5 16.4-16.6s-7.4-16.6-16.4-16.6-16.4 7.5-16.4 16.6c0 9.3 7.4 16.7 16.4 16.6Zm-16.9-42.7c9 0 16.3-7.4 16.3-16.5s-7.3-16.5-16.3-16.5-16.3 7.4-16.3 16.5 7.2 16.5 16.2 16.6Zm41.8-20.2c7.7 0 14-6.3 14-14.2s-6.3-14.2-14-14.2-14 6.3-14 14.2 6.3 14.2 14 14.2Zm17.1 42.6c7.8 0 14-6.4 14-14.2s-6.3-14.2-14-14.2-14 6.4-14 14.2 6.3 14.2 14 14.2Zm38.1-8.9c6.6 0 12-5.5 11.9-12.1 0-6.6-5.2-12-11.7-12.1-6.6 0-12 5.2-12.1 11.7v.4c0 6.6 5.2 12 11.8 12.1h.1Zm32.9.1c5.7 0 10.3-4.7 10.3-10.4s-4.6-10.4-10.3-10.4-10.4 4.6-10.4 10.4 4.6 10.4 10.4 10.4Zm27.2 6.3c4.8 0 8.7-3.9 8.7-8.8s-3.9-8.7-8.7-8.7-8.7 3.9-8.7 8.7 3.9 8.8 8.7 8.8Zm3.5-32c4.2 0 7.6-3.5 7.6-7.7s-3.4-7.7-7.6-7.7-7.6 3.4-7.6 7.7 3.4 7.6 7.6 7.7ZM488.5 159c4.8 0 8.7-3.9 8.7-8.7s-3.9-8.7-8.7-8.7-8.7 3.9-8.7 8.7 3.9 8.7 8.7 8.7Zm-26.9-6.4c5.7 0 10.2-4.7 10.2-10.3s-4.6-10.3-10.2-10.3-10.2 4.7-10.2 10.3 4.5 10.3 10.2 10.3Zm-32.8.1c6.6 0 12-5.4 12-12.1s-5.3-12.1-12-12.1-12 5.4-12 12.1 5.3 12.1 12 12.1Zm-44.2-30.3c7.5 0 13.5-6.1 13.5-13.7S392 95 384.6 95s-13.5 6.1-13.5 13.7 6.1 13.7 13.5 13.7Zm38-8.4c6.6 0 12-5.4 12-12.1s-5.3-12.1-12-12.1-12 5.4-12 12.1 5.3 12.1 12 12.1Zm32.9.2c5.7 0 10.3-4.7 10.3-10.4s-4.6-10.4-10.3-10.4-10.3 4.7-10.3 10.4 4.6 10.4 10.3 10.4Zm27 6.2c4.9 0 8.8-3.9 8.8-8.8s-3.9-8.8-8.8-8.8-8.8 3.9-8.8 8.8c0 4.8 3.8 8.7 8.6 8.8h.2Zm20.7 10.8c4.3 0 7.8-3.6 7.7-8 0-4.2-3.5-7.7-7.7-7.7s-7.8 3.5-7.8 7.8 3.5 7.8 7.8 7.9Zm15.2 12.3c3.5 0 6.4-2.9 6.4-6.5s-2.8-6.5-6.3-6.5-6.4 2.9-6.4 6.5c0 3.5 2.8 6.4 6.3 6.5Z"/><ellipse cx="220.8" cy="221.9" fill="#fff" rx="190.7" ry="194.6"/><g fill="#141212"><path d="M205.1 14.8c-.7 0-3 .2-5.1.3-36.1 2.2-71.7 14-102.3 34-44 28.7-75.9 73.4-88.7 124.4-3.3 12.9-5.1 24.3-6.1 38.7-.3 4.7-.3 21.3 0 26C4 252.6 5.8 264 9 276.9c5.3 20.9 14 41.4 25.5 59.8 17.4 28 41.6 51.8 69.8 68.8 10 6 21.2 11.5 32 15.8 17.8 7 36.8 11.6 55.8 13.4 8.2.8 11.4 1 20.9 1s12.8-.1 20.9-1c33.5-3.3 66-14.8 94.4-33.3 44-28.8 75.9-73.5 88.7-124.4 3.3-12.9 5.1-24.3 6.1-38.7.3-4.7.3-21.3 0-26-1.1-14.4-2.9-25.8-6.1-38.7-5.3-20.9-14-41.4-25.5-59.8-16-25.7-37.9-48.1-63.3-64.6-16.8-11-35.5-19.7-54.5-25.4-15.4-4.6-30.5-7.4-47.4-8.6-3.1-.2-18.9-.4-21.3-.3Zm-89.6 78.3c12.5 12.6 17.7 16.6 25.7 19.4 5.6 2 7.4 2.2 19.6 2.5h7.6l4.3-1.3c11.2-3.7 21.1-5.4 34-5.9 17.5-.7 32.3 1.2 46.6 6l3.8 1.2h3.5c5.4 0 14.7-.4 16.8-.7 3.6-.5 10.3-2.9 14-5 4.5-2.6 13.6-10.7 20.2-17.8 1.9-2 3.9-4.1 4.5-4.6.7-.6 1.6-.9 2.8-.9h1.7l3.6 1.8c6.7 3.4 11.2 6.7 15 11.2 4.3 5.1 6.7 9.9 8.6 17.1.7 2.7 1.3 7.4 1.3 10.8 0 9.7-4 26.4-8.5 35.4-2.2 4.5-5.2 8.4-10.5 14l-1.2 1.3 3.3 6.4c5.7 11.3 8.9 18.7 11.5 27.2.4 1.2.8 2.6 1 3.2.2.6.4 1.3.5 1.7 0 .3.4 1.4.6 2.3.5 1.8 1.7 6.7 2.2 9 .2.8.6 2.3.9 3.5.4 1.4.6 2.9.6 4.4.1 3 .3 2.8-4.9 3-4 .1-7.2 0-10.3-.5-5.8-.9-12.7-1.6-13.4-1.4-.5.1-.5.2-.7 3 0 1.6-.1 4.1-.1 5.7 0 2.8-.5 8.1-.9 9.7-.1.5-.3 1.4-.4 2.1-.2 1.1-.2 1.3.1 1.5 4.8 2.7 11 9 12.5 12.4.3.8.3 1.9 0 2.6s-1.6 1.4-2.5 1.4-.9.1-1.1.3c-.2.2-.8.3-1.3.3s-1.1.1-1.3.3-.7.3-1 .3-1 .1-1.4.3c-.4.2-1 .3-1.3.3s-.8.1-1.1.3c-.7.4-3.6.4-4.8 0-.5-.2-1.5-.3-2.2-.3s-1.8-.1-2.2-.3c-.4-.2-1.4-.3-2.2-.3s-2-.1-2.7-.3c-1.1-.3-2.5-.3-9.1-.2-7.9 0-9.6.2-9.6.9s.3.3.6.4c.3 0 .7.2.7.3s.3.2.5.2c.8 0 7.9 3.6 11.1 5.6 3.7 2.3 8.6 6.4 11.3 9.3 3.4 3.6 7.1 9.1 9.3 13.4.8 1.7 1 2.3 1.1 3.6 0 1 0 1.8-.1 2.2q-.3.6-2 .6c-1.7 0-1.8 0-4.8-1.5-17.2-8.4-21.3-10.2-29.5-13-1.9-.6-3.4-1.1-3.5-1-.3.2.3.8 1.4 1.5 9.2 5.8 17.6 16 22.3 26.9 1.8 4.1 3.8 9.5 4.5 11.9.2.7.5 1.7.7 2.2.1.5.3 1.8.4 2.9.1 1.8 0 2-.3 2.4-.3.3-.7.4-1.6.4s-1.3-.1-2.9-1.2c-1.9-1.3-7.9-5.8-16.5-12.2-3-2.2-6.5-4.8-7.8-5.6-2.8-1.8-6.2-3.7-6.7-3.7s-2 1.4-2.4 2.2c-.2.4-.3 1.2 0 4.6.2 4.6 0 16.1-.3 18.7s-1.3 6.7-1.9 7.7c-.1.2-.6 1.2-1 2.3-2.3 5.9-5.8 11.2-11.2 17.1-6.3 6.9-11.6 11.5-19 16.3-5.6 3.6-5.9 3.8-7.8 3.9-1.5 0-1.7 0-2.1-.4s-.5-.7-.6-2.8c0-1.3-.2-2.4-.3-2.5s-1.2.4-2.9 1.6c-3.3 2.3-7.6 5.1-9.2 6-.7.4-1.3.8-1.3.9s-1.5.2-3.1.2-3.1 0-3.3-.3c-.1-.1-1-.7-2-1.3-1.9-1.1-8.9-5.7-10.1-6.7-1.3-1.1-1.5-.9-1.5 2.2s0 2.2-.5 2.6c-.4.5-.7.5-2.1.5s-1.6 0-3.4-1.1c-2.6-1.5-8-5.1-10.5-7-6.4-4.9-12.9-11.4-17.8-17.8-4.4-5.9-7.4-12.2-8.7-18.7-.8-3.9-1-7.5-1-17.2v-8.6l-.9-.9c-.5-.5-1.1-1-1.4-1.1-.6-.2-4.6 1.9-7.4 3.8-1.2.8-6.6 4.8-11.9 8.7-5.3 4-10.5 7.8-11.7 8.6l-2.1 1.4h-1.3c-.8-.1-1.4-.3-1.5-.5-.3-.5-.2-3.3.3-5.2.7-2.9 2.8-9 4.4-12.6 1.6-3.7 2.1-4.7 3.2-6.8 1.2-2.1 2.7-4.7 4.8-7.7 2.7-4.1 9.2-10.2 14.4-13.6 1.9-1.2 2.4-1.9 1.6-1.9s-7 2.2-10.3 3.6c-1.5.6-4 1.7-5.5 2.5-1.5.7-3.4 1.6-4.2 2-.8.4-2.2 1-3 1.4s-1.6.7-1.6.7-1.9.9-4.1 1.9c-5.8 2.8-7.2 3.4-8.6 3.4s-2.1-.3-2.1-2.3 0-1.7 1.5-4.5c3.7-7.3 8.8-13.4 16-19.2 3.6-2.9 9.2-6.1 14.5-8.3 2.1-.9 2.6-1.2 2.5-1.4 0-.1-.8-.4-1.8-.6-1.4-.3-2.5-.4-8-.3-4.2 0-7.4.1-9.2.4-1.5.2-3.8.4-4.9.5s-2.6.3-3.3.4c-1.5.2-5.2.3-6.1 0-1-.3-6.8-1.8-8.2-2.3-1.7-.5-1.9-.8-1.9-2.3s0-1.5.8-2.7c1.9-3.2 7.3-8.5 10.6-10.4 1.5-.9 1.5-1 1.1-2.6-.7-2.5-1.1-6.7-1.4-15.3 0-2.4-.2-4.5-.3-4.7 0-.2-.7-.2-3.4 0-4.2.3-9.7 1-11.8 1.5-1.7.4-4.7.5-9.1.3h-4.2v-3.9c0-2.1 0-3.9.2-4.1 0-.2.3-1.1.5-1.9.2-.9.5-2.2.7-3s.7-2.5 1-3.9c3.5-13.7 6.6-21.7 13.9-36.3l3.7-7.4s-.8-.9-1.8-1.9c-5.7-5.9-9-10.5-11.2-16-.4-1.1-.9-2.1-1-2.3-.3-.5-1.7-4.8-1.7-5.1s0-.5-.3-.9c-.2-.4-.3-1-.4-1.4 0-.4-.3-1.6-.6-2.7s-.7-2.5-.8-3.2c-.8-3.7-1.1-5.2-1.7-8.6-.6-3.7-.7-3.9-.6-9.7 0-4.4 0-6.3.4-7.4l.6-2.5c.3-1.5 1.3-4.6 1.8-5.8.2-.4.3-.7.3-.8 0-.4 1.7-3.7 2.7-5.2 2-3.1 3.3-4.8 5.6-7.1 3.8-3.9 7.2-6.4 13.2-9.4l3.6-1.9h3.8l7 7 .3.2Z"/><path d="M107.3 113.3c-5.7 5.4-8.2 10-9 16.6-1.1 8.2 2.7 24.6 7.7 33.1 1.2 2.1 1.9 2.9 2.4 2.7.2 0 2-.7 4.1-1.4 5.7-1.9 6.5-2.1 14.3-2.4 7.5-.3 7.7-.3 7.7 1s-.5 1.2-2.6 3.4c-8 8.7-15.2 18.6-20.4 27.8-.8 1.4-1.6 2.9-1.9 3.4-.6 1.1-3.3 6.4-3.9 7.8-2.8 6.3-5.1 12.7-6.1 17.7-.2 1-.2 1.3 0 1.4 0 0 1.3 0 2.5-.4s3-.7 4-.9 2.4-.5 3.2-.7 2.9-.5 4.7-.7l3.2-.4 3 .8c4.2 1.1 4.3 1.2 3 4.4-.5 1.3-.5 1.4-.3 3.1 0 .9.4 3.4.7 5.4.5 4.4.9 7.3 1.5 11.2.3 1.6.5 3.4.6 4.1s.4 2.6.7 4.1c.3 1.6.6 3.6.8 4.5 0 .9.4 1.7.5 1.8 0 0 1-.4 1.9-1s2.2-1.3 2.8-1.7c.6-.3 2-1.1 3.1-1.7 7.1-4 13.9-6.9 18.6-8 2.7-.7 8-1.6 8.9-1.6 1.8 0 2.1 1.5.7 3.6-.9 1.3-3.7 6.9-4.5 9-.9 2.4-2 4.2-2.6 4.5-.5.3-.9.2-2.5-.1-4-.9-6.3-1.3-10-1.5-4.4-.3-10 0-13.2.6-1.1.2-2.4.5-2.9.5-1.2.2-3.3 1-3.7 1.4-.3.3.4.3 5.6-.2 3.3-.3 11.8-.3 16.6.1 6.4.5 11.3 1.2 15.3 2.2 5.4 1.4 6.7 2.2 6 3.4-.2.5-.3.5-3.9.3-2-.1-4.4-.2-5.5-.2q-2.7 0-2.9 3.8c-.2 4.1-.5 6.4-.9 6.7-.2.2-1.7.5-3.5.8-1.7.3-3.9.7-4.8 1-4.7 1.2-11.4 4.2-16.3 7.3-4.2 2.7-4.4 3.3-.4 1.4 7.5-3.6 18.3-7.2 26.1-8.7 1.3-.2 2.8-.5 3.4-.7 1.2-.3 8.3-.5 9-.3.6.1.9.7.7 1.4-.1.5-1 .8-4.1 1.5-3 .7-6 1.6-7.5 2.4-1.4.7-1.5.9-1.1 2.2.1.4.6 1.9 1.2 3.5.7 2.2 1 3.2 1 4.3s0 1.4-.6 1.8c-.3.2-1.2.6-1.9.9-2.3.8-4.4 2-6.2 3.6s-2.4 1.9-4.5 2.8c-1.8.7-3.3 1.9-5.7 4.3-2.7 2.8-6.9 8.3-6.6 8.7 0 0 1.5-1.2 3.2-2.8 6.2-6.1 14.4-12.3 20.9-16 5.2-2.9 8.1-4.2 9.7-4.2s1.3.3 1.3 1.2-.6 1.3-3.8 3.4c-1.1.7-2 1.5-2.1 1.6-.1.4.3 1 2.3 3.1 3.3 3.5 7.8 7.1 11.3 8.9 1.7.9 5.5 2.3 8.1 2.9.7.2 2.6.5 4.1.7 2.6.3 3 .3 5.5 0 3.8-.5 6.7-1.5 9-3.1 1.3-.9 2.7-2.4 2.7-2.9 0-1.1-2.8-3-8.5-5.9-2.3-1.2-4.8-2.6-5.6-3.1-3.2-2.1-6.2-4.9-8.3-7.7-3.7-5-5.1-12.2-4.5-23.9.3-5.6.5-6.6 1.9-7.5 1.2-.8 2.7-1 3.5-.5.4.3.5.5.5 1.1s.1 1.1.2 1.5c.1.4.3 1.3.4 2 .2 1.3.5 2.7.9 3.8.1.3.3 1 .4 1.4.4 1.5 1.4 3.4 2.2 4.3 1.3 1.4 4.1 2.5 7.5 3 .5 0 1.5.3 2.1.4 1.8.3 4.9.8 7.8 1.2 3.1.4 12.2.3 15.2-.1 2.5-.4 5.6-.8 7-1.1.6-.1 1.6-.3 2.1-.4 3.5-.6 6.1-1.7 7.5-3.2.9-1 1.1-1.3 1.7-2.7.3-.7.4-1.2 1.3-4.2.2-.6.3-1.3.3-1.5s.1-.9.3-1.6.3-1.7.3-2.3c0-.9.1-1.2.5-1.6 1-.9 3.7 0 4.7 1.4.9 1.4 1.3 14.2.6 18.8-1.1 7-2.9 10.8-7.5 15.3-2.9 2.8-5.3 4.4-10.3 7-5.4 2.7-7.6 4.2-8.3 5.3-.3.5-.3.6.4 1.5 1.9 2.7 6.1 4.6 11.7 5.2 4.4.5 10.9-.8 16.3-3.3 2.3-1.1 7.1-4.6 10.1-7.3 2-1.9 4.3-4.6 4.3-5s-1.1-1-2.5-2c-3.1-2.1-3.6-2.6-3.6-3.2 0-1 .4-1.3 1.8-1.2 1.3.1 1.5.2 4.8 1.8 7.2 3.3 16.6 10.1 24.8 17.8 2.8 2.7 3.4 3.1 3.4 2.6s-3.2-4.5-4.2-5.6c-.4-.4-1.6-1.3-2.6-2-2.4-1.6-4.3-3.1-7.1-5.8-2.1-2-2.6-2.3-5-3.5-1.5-.7-3.3-1.6-4.1-1.9-1.8-.6-2.4-1.3-2.4-2.5s.5-2.6 1.3-4.9c.9-2.9 1.2-4.1 1.1-4.3-.4-.7-4.2-2.2-7.9-3-1.1-.3-2.7-.7-3.5-.9-1.4-.4-1.5-.5-1.5-1.1-.1-1.1.3-1.2 4.8-1.1 7.8.3 17.6 2.8 30.9 8.1.5.2 2.1.9 3.4 1.6s2.6 1.2 2.8 1.2c.6 0-.4-.9-2.1-1.9-.8-.5-1.8-1.1-2.3-1.4-1.5-1-6.9-3.6-8.3-3.9-.8-.2-2.3-.8-3.4-1.3-2.3-1.1-4.8-1.7-8.6-2.3-2.1-.3-2.7-.5-3-.8-.4-.5-.6-1.9-.8-6.1-.2-3.8-.3-4.2-1.8-4.4-.5 0-2.4 0-4.2.1-5.9.4-6.7.3-6.4-.9.4-1.4 6.4-3.1 14.8-4.2 7.7-1 20.4-1.2 26.7-.4 2.8.4 3.5.3 2.7-.1-1.1-.6-2.8-1.1-7.5-1.9-3.1-.6-8.6-.8-12.7-.5-4.2.3-5.5.4-8.6 1.2-1.2.3-2.6.5-3.1.6-.8 0-1 0-1.5-.7-.3-.4-1.2-2.1-1.9-3.8-1.6-3.8-3.5-7.7-4.6-9.4-.5-.7-.8-1.5-.8-1.7 0-.4.4-1.2.7-1.5.5-.3 2.3-.1 7 .8 3.7.7 7.7 1.9 10.9 3.3 2.6 1.1 10.9 5.3 12.6 6.4.2.1 1.1.6 1.9 1.1.8.4 2 1.1 2.6 1.5s1.2.6 1.4.6.4-.9.5-1.8.4-2.5.6-3.4c.4-2.2 1.5-8.9 2-12.5.4-2.9.7-4.8 1.2-9.3.2-1.5.4-3.4.5-4.2q.2-1.5-.4-3.1c-.8-1.8-.8-2.5-.3-3 .2-.2 1.8-.7 3.4-1.1l3-.8 3.1.4c4 .5 7.4 1.1 11.8 2.2 3.1.8 3.1.9 2.1-2.9-1.2-5-3.1-10.3-5.5-15.3-1-2.1-3.9-7.9-4.6-9.2-6.7-11.9-13.2-20.9-22-30.4-1.1-1.2-2.1-2.3-2.3-2.6-.4-.6-.2-1.4.3-1.7.3-.1 2.6-.1 7.2 0 7.9.3 8.3.4 14.6 2.5l4.1 1.4.5-.4c1-1 3.5-5.6 4.6-8.7 2.5-6.8 4-13.1 4.7-19.5.3-3 .3-3.8.1-6.1-.4-4.1-1.4-7.6-3.1-10.3-.8-1.4-2.7-3.9-3.7-5-1.3-1.5-5.1-4.8-5.5-4.8s-2.1 1.7-4.2 3.7c-4.6 4.5-10.2 9.4-12.7 11.1-1.8 1.2-6.6 4.1-8.1 4.8-3.7 1.8-11.5 4-15.4 4.3-1.2 0-1.6.2-1.6.4 0 .3 2.1 3.5 7 11.1 3.4 5.2 3.4 5.1 3.4 6.1s-.1.9-.4 1.1c-.7.4-1.4 0-4.9-2.5-8.1-5.8-14-9.5-20.3-12.7-3.2-1.7-8.6-4.1-11-5-1.9-.7-7.7-2.6-8.8-2.9-.6-.2-1.9-.5-2.7-.7-3.6-1-8.3-1.9-11.6-2.2-3.2-.3-18.7-.3-22 0-6 .5-14.6 2.6-22.2 5.4-9.7 3.6-19.8 9.2-30.9 17.1-5.6 4-5.7 4-6.4 3.3s-.4-.7-.4-.9c0-.6 1.4-3 5.7-9.4 2.9-4.4 4.9-7.5 4.9-7.8s-.8-.3-1.7-.3c-3.1-.2-10-2-13.8-3.6-1.9-.8-5.6-2.8-8.4-4.7-3.2-2.1-7.3-5.6-13.5-11.5-2.3-2.2-4.4-4-4.6-4s-1.5 1.1-3 2.5v-.4Zm69.7 32.5c.9.2 2.6.5 3.6.7 1.1.2 2.6.5 3.5.7 10 1.9 15.6 2 21.1.6 1.9-.5 6.6-1.1 8.5-1 2.1 0 5.3.5 7.1 1 2.6.7 4.5 1 7.2 1s8.1-.5 13.8-1.6c3.2-.6 5.4-1 7.1-1.3.9-.2 2.4-.4 3.2-.4q1.5-.1 1.9.4c.5.8.3 2.2-.4 3.3-1 1.4-3.9 4.4-5.7 5.9-3.7 3-6.9 4.3-14.1 5.6-10.2 1.9-12.5 2.7-15.1 5.5-2.3 2.5-3.2 4.6-3.2 7.7s0 2.4 2 1.6c1.3-.5 4.3-1 7.9-1.3 7.9-.8 12.7-1.3 16.4-1.8 1.3-.2 3.1-.4 4-.5 3.8-.5 8.8-1.4 11.5-2.2 4.4-1.1 7.2-3.4 10.3-7.9 1-1.5 1.2-1.7 1.9-1.7 1.2-.1 1.3.4 1 3.6-.5 5.4-2 8.4-5.8 11.4-3.2 2.6-7.9 4.5-14.9 6-7.1 1.6-10 2.3-11.4 2.8-2.9 1.2-5 2.1-8 3.6-5.7 2.9-9.3 5.4-13.3 9.2-2.8 2.7-2.3 2.6-6 .9-1.8-.8-2.9-1.5-4.1-2.6-3.4-3-7.1-5.3-11.9-7.8-6.4-3.2-8.9-4-17.9-6-6.9-1.5-10.6-2.8-14.2-4.9-2.1-1.3-3.5-2.5-4.9-4.4-1.9-2.5-2.6-4.9-2.9-9.2-.2-2.6 0-2.9 1.2-2.8.6 0 .8.3 1.9 2 2.4 3.7 5.6 6.3 9.1 7.4 5.1 1.6 15.1 3 33 4.8 4.7.4 7.2.9 8.7 1.6 1.1.5 1.3.3 1.3-1.6 0-4.9-3.1-9.2-7.8-11.1-1.5-.6-3.8-1.2-7.3-1.9-6.3-1.2-7.8-1.5-9.7-2.2-4.2-1.3-6.6-2.8-10.3-6.5s-3.8-4.2-3.8-5.5.4-1.8 2.2-1.6c.8 0 2.2.3 3.2.4h.1Zm-25 57.5c3.4.6 6 1.5 10.1 3.6 5.4 2.7 12.6 7.4 18.2 12 5.7 4.6 6.5 5.2 7.2 5.2s2-1.3 2.7-2.5c.6-.9.6-1 .6-3.6s-.1-3-.6-4.8c-1-3.5-.7-4.8.9-4.8s.9.2 1.8 1.1c1.4 1.4 3.5 4.6 4.6 6.9 1.1 2.2 1.4 4.8 1.1 7.7-.3 2.1-.7 3.4-3.1 8.5-1.8 3.8-1.9 3.9-4.6 9.8-2 4.4-2.7 5.7-3 6-.2.1-.7.3-1.1.3s-1 .1-1.2.3c-.5.4-1.6.4-1.9 0-.6-.6-.2-3 1.7-11.5.3-1.2.5-2.3.5-2.6v-.5h-6c-7 0-10.1-.4-15.4-1.6-7.6-1.8-12.4-6.3-17.1-15.9-.6-1.2-1.1-2.6-1.3-3.3-.3-1.3-.5-1.5-1.4-1.4-1.5.3-5.6.8-6.6.9-1.1.1-1.4 0-1.7-1-.1-.4 0-.7 1-1.5.6-.6 1.1-1.1 1-1.2-.2-.2-4 .3-6 .7-2.1.4-2.8.3-3.2-.4-.6-1.1.6-2.4 3.9-4.2 2.2-1.1 6.2-2.3 9.1-2.6 1.7-.2 8.1 0 9.9.4Zm133.8-.1c3.6.7 7.3 2.3 9.6 4.1.9.7 1.1 1 1.1 1.5 0 .8-.5 1.4-1.2 1.4s-1.5-.2-2.8-.4c-2.8-.5-5.5-.8-5.5-.5s.5.5 1.1 1c.9.7 1.1.9 1.1 1.5 0 1.4-.2 1.4-5.9.6-1.8-.3-3-.3-3.2-.2s-.4.6-.5 1.2c-.2 1.8-3.1 7.3-5.5 10.5-2.3 3.1-4.5 5.1-7.5 6.7-1.6.9-3.1 1.4-5.9 2-1.1.2-2.6.6-3.4.7-2.5.6-6 .8-11.8.8s-5.8 0-5.8.3.2 1.5 1.6 7.9c1 4.8 1.1 5.6.8 6.3-.3.5-1.4.5-2 0-.2-.2-.8-.3-1.3-.3-1.1 0-1.3-.2-2.2-2.2-.4-.8-1-2.1-1.3-2.9-.4-.8-.9-1.9-1.1-2.5-1.4-3.1-2.3-4.9-5.2-11.1-1.9-3.9-2-4.3-2-7.9s.1-4.1 1.3-6.1c1.7-3.1 3.1-5.1 4.6-6.7.6-.6.9-.8 1.6-.8s.9.1 1.2.5c.4.6.3 1.5-.5 4.8-.7 3-.8 6 0 7.5.6 1.2 2.4 2.9 3.1 2.9s2.9-1.7 6.1-4.3c1.7-1.4 5.6-4.4 8.7-6.6 2.7-1.9 7.4-4.7 10.8-6.4 4.7-2.3 7.8-3.3 12.8-3.9 1.5-.2 8 0 9.4.4l-.3.2Z"/><path d="M160.5 215.8c-.3.3 0 1.6.7 3 1.1 2.3 3.6 4.7 6.4 6 2 1 3 1 5.1.3 1-.3 1.8-.7 1.8-.9.1-.4-.6-.9-6.5-4.3-7.7-4.5-7.4-4.3-7.6-4.1h.1ZM263.7 216.2c-.3.2-1.6 1-2.9 1.6-1.9 1-4.8 2.6-6.4 3.7-.2.1-1.1.6-1.9 1.2-2.3 1.3-2.2 1.6.5 2.4 1.9.6 2.5.5 5-.7 3.4-1.6 5.9-4.3 6.7-7.2.4-1.5 0-1.8-1-1ZM211.9 329.3c-1.2.3-1.9.6-3 1.5-.7.5-1.7 1.2-2.2 1.5-2.4 1.2-8.4 2.3-15 2.6-11 .6-17.3 0-24.4-2.3-2.1-.7-3.2-.9-3.3-.8-.5.5 2.4 13 3.9 16.9s5.4 9.9 9 13.7c2.9 3 9.8 9 10.1 8.7.2-.2.6-5.9.8-11.8.1-3.7.3-4.2 1.1-4.2s1.2.4 2.3 2.3c3.1 5.1 3.8 6.1 9.3 11.5 5.4 5.4 8.2 7.9 9.9 9 1.3.9 2.7.9 4.4 0 1.5-.7 5.2-4.1 11-9.9 4.1-4.2 5.4-5.8 7.9-9.8 1.7-2.9 2-3.2 2.8-3.1.9 0 1.2.8 1.2 2.9s.6 12.8.8 13 3.4-2.4 7.2-5.9c5.4-4.9 10.3-12 12.2-17.6 1.2-3.6 3.6-13.6 3.6-15.3s-.4-.7-1.6-.3c-1.4.6-5.7 1.8-8.1 2.2-7.8 1.5-22.4 1-30-.9-1.6-.4-2.6-.8-4.3-1.9-3-1.8-4.6-2.4-5.8-2.1h.2Z"/></g><path fill="#fff" d="M213.7 439.5c-28.8 0-56.8-5.7-83.2-16.8-25.4-10.8-48.3-26.2-67.9-45.9-19.6-19.7-35-42.5-45.8-68C5.7 282.4 0 254.4 0 225.5s5.7-56.9 16.8-83.3c10.8-25.5 26.2-48.4 45.8-68 19.6-19.7 42.5-35.1 67.9-45.9 26.3-11.2 54.3-16.8 83.2-16.8s56.8 5.7 83.2 16.8c25.4 10.8 48.3 26.2 67.9 45.9 19.6 19.7 35 42.5 45.8 68 11.1 26.4 16.8 54.4 16.8 83.3s-5.7 56.9-16.8 83.3c-10.8 25.5-26.2 48.4-45.8 68-19.6 19.7-42.5 35.1-67.9 45.9-26.3 11.2-54.3 16.8-83.2 16.8Zm0-421.5c-28 0-55.1 5.5-80.6 16.3-24.7 10.5-46.8 25.4-65.9 44.5-19 19.1-34 41.3-44.4 66C12 170.4 6.5 197.6 6.5 225.6s5.5 55.2 16.3 80.8c10.4 24.7 25.4 46.9 44.4 66s41.2 34 65.9 44.5c25.5 10.8 52.7 16.3 80.6 16.3s55.1-5.5 80.6-16.3c24.7-10.5 46.8-25.4 65.9-44.5 19-19.1 34-41.3 44.4-66 10.8-25.6 16.3-52.8 16.3-80.8s-5.5-55.2-16.3-80.8c-10.4-24.7-25.4-46.9-44.4-66s-41.2-34-65.9-44.5C268.8 23.5 241.6 18 213.7 18Z"/></svg>