<?xml version="1.0" encoding="UTF-8"?>
<svg xmlns="http://www.w3.org/2000/svg" xmlns:xlink="http://www.w3.org/1999/xlink" version="1.1" viewBox="0 0 700 450">
  <defs>
    <linearGradient id="linear-gradient" x1="62.5" y1="377.8" x2="364.9" y2="75.4" gradientTransform="translate(0 452) scale(1 -1)" gradientUnits="userSpaceOnUse">
      <stop offset="0" stop-color="#82bdff"/>
      <stop offset="1" stop-color="#4592f9"/>
    </linearGradient>
  </defs>
  <!-- Generator: Adobe Illustrator 28.6.0, SVG Export Plug-In . SVG Version: 1.2.0 Build 709)  -->
  <g>
    <g id="Layer_1">
      <g id="IOTA">
        <g id="Layer_2">
          <g id="Layer_1-2">
            <circle cx="486" cy="225.2" r="214" fill="#fff"/>
            <g id="Layer_2-2">
              <g id="Layer_1-2-2">
                <path d="M556.5,95.5c10.6,0,19.3-8.8,19.3-19.6s-8.6-19.6-19.3-19.6-19.3,8.8-19.3,19.6,8.6,19.5,19.3,19.6h0ZM562.2,146.3c9.1,0,16.4-7.5,16.3-16.6h0c0-9.1-7.3-16.6-16.3-16.6s-16.3,7.4-16.3,16.6,7.3,16.6,16.3,16.6ZM607,152.8c9,0,16.3-7.4,16.3-16.5s-7.3-16.5-16.3-16.5-16.3,7.4-16.3,16.5,7.3,16.5,16.3,16.5h0ZM601.7,196.3c7.7,0,13.9-6.3,13.9-14.1s-6.2-14.1-13.9-14.1-13.9,6.3-13.9,14.1,6.2,14.1,13.9,14.1h0ZM637.5,210.4c7.8,0,14-6.4,14-14.2s-6.3-14.2-14-14.2-14.1,6.4-14,14.2h0c0,7.8,6.3,14.2,14,14.2ZM556.6,190.4c7.9,0,14.3-6.5,14.3-14.4h0c0-8-6.4-14.5-14.3-14.5s-14.3,6.5-14.3,14.5,6.4,14.5,14.3,14.5h0ZM543.6,225c6.6,0,12-5.4,12-12.1s-5.3-12.1-11.9-12.1h0c-6.6,0-12,5.4-12,12.1s5.3,12.1,11.9,12.1h0ZM588.5,231.2c6.6,0,11.9-5.4,11.9-12h0c0-6.7-5.3-12.1-11.9-12.1s-11.9,5.4-11.9,12.1,5.2,12,11.7,12.1h.2ZM624.3,245.2c6.6,0,12-5.4,12-12.2s-5.3-12.2-12-12.2-12,5.4-12,12.2,5.3,12.1,12,12.2h0ZM606.6,271.5c5.6,0,10.1-4.6,10.1-10.2s-4.5-10.3-10.1-10.3-10.1,4.6-10.1,10.3,4.5,10.2,10.1,10.2h0ZM570.7,257.7c5.7,0,10.3-4.7,10.3-10.5s-4.6-10.5-10.3-10.5-10.3,4.7-10.3,10.5,4.7,10.5,10.3,10.5ZM525.8,251.2c5.7,0,10.3-4.8,10.3-10.5s-4.6-10.2-10.3-10.3h0c-5.7,0-10.3,4.8-10.3,10.5s4.6,10.2,10.3,10.3h0ZM550.8,275.9c4.9,0,8.9-4.1,8.9-9s-3.9-9-8.9-9h0c-4.9,0-8.9,4.1-8.9,9s3.9,9,8.8,9h.1ZM586.7,290c4.9,0,9-4.1,9-9.1s-4.1-9-9.1-9-9,4.1-9,9.1,4.1,9,9.1,9ZM566.5,300.5c3.9,0,7.1-3.2,7.1-7.2s-3.2-7.2-7.1-7.2-7.1,3.2-7.1,7.2,3.2,7.2,7.1,7.2h0ZM547.3,306.2c3.6,0,6.4-2.9,6.4-6.5h0c0-3.6-2.9-6.5-6.4-6.5s-6.4,2.9-6.4,6.5h0c0,3.6,2.8,6.5,6.3,6.5h.1ZM530.5,287.4c4.2,0,7.7-3.5,7.7-7.8s-3.4-7.8-7.7-7.8-7.7,3.5-7.7,7.8,3.4,7.7,7.7,7.8h0ZM505.8,269.7c4.9,0,8.9-4,8.9-9s-3.9-9-8.9-9h0c-4.9,0-8.9,4-8.9,9,0,4.9,4,9,8.9,9h0ZM578.9,382.6c10.6,0,19.2-8.7,19.2-19.5s-8.6-19.5-19.2-19.5-19.2,8.7-19.2,19.5,8.6,19.5,19.2,19.5ZM530.2,358c8.8,0,16-7.3,16-16.2s-7.2-16.2-16-16.2-16,7.3-16,16.2,7.2,16.2,16,16.2h0ZM502.4,393.7c8.9,0,16.1-7.3,16.1-16.4s-7.2-16.4-16.1-16.4-16.1,7.3-16.1,16.4,7.2,16.3,16.1,16.4h0ZM494,327.9c7.8,0,14-6.4,14-14.2h0c0-7.8-6.2-14.1-14-14.2h0c-7.8,0-14,6.4-14,14.2h0c0,7.8,6.3,14.2,14,14.2h0ZM466.2,364.1c7.7,0,13.9-6.3,13.9-14.1s-6.2-14.1-13.9-14.1-13.9,6.3-13.9,14.1,6.1,14,13.8,14.1h.1ZM436.3,388.6c7.7,0,13.9-6.3,13.9-14.1s-6.2-14.1-13.9-14.1-13.9,6.3-13.9,14.1,6.2,14.1,13.9,14.1ZM411.4,356.7c6.6,0,11.9-5.4,11.9-12s-5.3-12-11.9-12c-6.6.1-11.9,5.6-11.8,12.2.1,6.5,5.3,11.7,11.8,11.8h0ZM441.4,332.1c6.6,0,11.9-5.4,11.9-12s-5.3-12-11.9-12c-6.6.1-11.9,5.6-11.8,12.2.1,6.5,5.3,11.7,11.8,11.8h0ZM469.4,295.9c6.6,0,11.9-5.4,11.9-12h0c0-6.7-5.3-12.1-11.9-12.1s-11.9,5.4-11.9,12h0c0,6.7,5.3,12.1,11.9,12.1h0ZM426.6,300.9c5.7,0,10.3-4.7,10.3-10.4s-4.6-10.4-10.3-10.4-10.3,4.7-10.3,10.4,4.6,10.4,10.3,10.4ZM396.7,325.4c5.7,0,10.2-4.6,10.2-10.3h0c0-5.7-4.5-10.3-10.1-10.4h0c-5.7,0-10.2,4.6-10.2,10.3h0c0,5.7,4.5,10.3,10.2,10.4h-.1ZM389.9,296.7c4.9,0,8.8-4,8.8-8.9s-4-8.9-8.8-8.9-8.8,4-8.8,8.9,4,8.9,8.8,8.9ZM389.6,271.4c4.2,0,7.6-3.5,7.6-7.7h0c0-4.2-3.4-7.7-7.6-7.7s-7.6,3.4-7.6,7.7,3.4,7.7,7.6,7.7ZM393.8,250.4c3.6,0,6.4-2.9,6.4-6.5s-2.9-6.5-6.4-6.5-6.4,2.9-6.4,6.5,2.8,6.5,6.4,6.5ZM419.5,246.9c4.2,0,7.7-3.5,7.7-7.8s-3.4-7.8-7.7-7.8-7.7,3.5-7.7,7.8,3.4,7.7,7.6,7.8h.1ZM447.7,235.9c4.9,0,8.9-4.1,8.9-9s-3.9-9-8.9-9h0c-4.9,0-8.9,4.1-8.9,9s3.9,9,8.9,9h0ZM454.4,264.6c5.6,0,10.1-4.6,10.1-10.1s-4.6-10.1-10.1-10.1-10.1,4.6-10.1,10.1,4.5,10.1,10.1,10.1h0ZM419.9,272.2c4.9,0,8.8-4,8.8-9s-4-9-8.8-9-8.8,4-8.8,8.9h0c0,4.9,3.8,8.9,8.7,9h.1,0ZM322.3,258.9c10.5,0,19.1-8.7,19.1-19.4s-8.6-19.4-19.1-19.4-19.1,8.7-19.1,19.4,8.6,19.4,19.1,19.4h0ZM365.7,224.3c9.1,0,16.4-7.5,16.4-16.6s-7.4-16.6-16.4-16.6-16.4,7.5-16.4,16.6h0c0,9.3,7.4,16.7,16.4,16.6h0ZM348.8,181.6c9,0,16.3-7.4,16.3-16.5s-7.3-16.5-16.3-16.5-16.3,7.4-16.3,16.5h0c0,9.1,7.2,16.5,16.2,16.6h0ZM390.6,161.4c7.7,0,14-6.3,14-14.2s-6.3-14.2-14-14.2-14,6.3-14,14.2,6.3,14.2,14,14.2ZM407.7,204c7.8,0,14-6.4,14-14.2s-6.3-14.2-14-14.2-14,6.4-14,14.2,6.3,14.2,14,14.2h0ZM445.8,195.1c6.6,0,12-5.5,11.9-12.1h0c0-6.6-5.2-12-11.7-12.1-6.6,0-12,5.2-12.1,11.7h0v.4h0c0,6.6,5.2,12,11.8,12.1h.1ZM478.7,195.2c5.7,0,10.3-4.7,10.3-10.4s-4.6-10.4-10.3-10.4-10.4,4.6-10.4,10.4c0,5.7,4.6,10.4,10.4,10.4h0ZM505.9,201.5c4.8,0,8.7-3.9,8.7-8.8s-3.9-8.7-8.7-8.7-8.7,3.9-8.7,8.7,3.9,8.8,8.7,8.8h0ZM509.4,169.5c4.2,0,7.6-3.5,7.6-7.7s-3.4-7.7-7.6-7.7-7.6,3.4-7.6,7.7,3.4,7.6,7.6,7.7h0ZM488.5,159c4.8,0,8.7-3.9,8.7-8.7s-3.9-8.7-8.7-8.7-8.7,3.9-8.7,8.7,3.9,8.7,8.7,8.7h0ZM461.6,152.6c5.7,0,10.2-4.7,10.2-10.3s-4.6-10.3-10.2-10.3-10.2,4.7-10.2,10.3,4.5,10.3,10.2,10.3h0ZM428.8,152.7c6.6,0,12-5.4,12-12.1s-5.3-12.1-12-12.1-12,5.4-12,12.1,5.3,12.1,12,12.1h0ZM384.6,122.4c7.5,0,13.5-6.1,13.5-13.7s-6.1-13.7-13.5-13.7-13.5,6.1-13.5,13.7,6.1,13.7,13.5,13.7ZM422.6,114c6.6,0,12-5.4,12-12.1s-5.3-12.1-12-12.1-12,5.4-12,12.1,5.3,12.1,12,12.1h0ZM455.5,114.2c5.7,0,10.3-4.7,10.3-10.4s-4.6-10.4-10.3-10.4-10.3,4.7-10.3,10.4h0c0,5.7,4.6,10.4,10.3,10.4h0ZM482.5,120.4c4.9,0,8.8-3.9,8.8-8.8s-3.9-8.8-8.8-8.8-8.8,3.9-8.8,8.8h0c0,4.8,3.8,8.7,8.6,8.8t.2,0h0ZM503.2,131.2c4.3,0,7.8-3.6,7.7-8,0-4.2-3.5-7.7-7.7-7.7s-7.8,3.5-7.8,7.8,3.5,7.8,7.8,7.9h0ZM518.4,143.5c3.5,0,6.4-2.9,6.4-6.5h0c0-3.6-2.8-6.5-6.3-6.5h0c-3.5,0-6.4,2.9-6.4,6.5h0c0,3.5,2.8,6.4,6.3,6.5h0Z"/>
              </g>
            </g>
          </g>
        </g>
      </g>
      <g>
        <circle cx="213.7" cy="225.4" r="213.8" fill="url(#linear-gradient)"/>
        <path d="M87.7,127c83.8-.2,167.7,0,251.5.4,10.3,4.1,12.9,11.1,8,21-40.3,71.2-80.1,142.6-119.5,214.3-8.4,7.9-16.5,7.6-24.4-.8-42-72.7-83.8-145.4-125.4-218.4-1.3-8.2,1.9-13.6,9.7-16.5h0ZM112.9,147.6h41.3c11,48.9,22.2,97.8,33.7,146.7-.3.3-.6.6-.8.8-26.8-46.7-52.9-93.8-78.3-141.3.3-2.8,1.7-4.9,4.2-6.2h0ZM176.9,147.6h77.4c-12,59.6-24.2,119.3-36.6,178.8-2.1,1.3-3.5.7-4.2-1.7-12-59.1-24.3-118.2-36.6-177.2h0ZM275.3,147.6c13.2-.2,26.4,0,39.5.4,2.7,1,4,3,4.2,5.8-5.4,11.9-11.2,23.6-17.3,35-18.6,35.7-37.4,71.1-56.4,106.3,9.4-49.3,19.4-98.5,29.9-147.5h0Z" fill="#fff" fill-rule="evenodd" isolation="isolate"/>
      </g>
    </g>
  </g>
</svg>