<svg version="1.1" id="Layer_1" xmlns="http://www.w3.org/2000/svg" xmlns:xlink="http://www.w3.org/1999/xlink" x="0px" y="0px"
	 width="100%" viewBox="0 0 1080 1080" enable-background="new 0 0 1080 1080" xml:space="preserve">
<path fill="#FF9D00" opacity="1.000000" stroke="none" 
	d="
M575.000000,1081.000000 
	C552.645752,1081.000000 530.291565,1081.000000 507.268463,1080.615479 
	C495.150482,1079.158081 483.607269,1078.678955 472.272888,1076.882446 
	C452.014343,1073.671509 431.747437,1070.274536 411.726379,1065.857056 
	C377.661530,1058.340820 345.032837,1046.279297 313.431335,1031.652344 
	C285.438110,1018.695435 258.273682,1003.979065 233.470688,985.578003 
	C212.577377,970.077393 192.309952,953.658142 172.565094,936.713745 
	C161.396118,927.129028 151.507004,915.963623 141.645294,904.968628 
	C130.690384,892.754761 120.031227,880.229919 109.942673,867.294983 
	C92.376244,844.772461 76.723900,820.878357 63.950596,795.336975 
	C53.400291,774.240784 43.313137,752.811279 34.741955,730.857544 
	C27.264296,711.704773 21.463610,691.802612 16.281054,671.878113 
	C12.110542,655.844421 9.563033,639.344788 7.053517,622.935913 
	C4.826887,608.376709 3.657719,593.656250 1.975933,579.012268 
	C1.820094,577.655396 1.333188,576.336548 1.000001,575.000000 
	C1.000000,552.645752 1.000000,530.291565 1.384624,507.268463 
	C2.178646,501.509888 2.488485,496.409821 3.017180,491.332520 
	C4.307243,478.943542 5.039066,466.448212 7.208293,454.210632 
	C10.242508,437.093231 13.940832,420.062256 18.138815,403.189301 
	C25.845093,372.215424 36.890202,342.341858 50.336010,313.434143 
	C63.345695,285.464050 78.015434,258.278107 96.418213,233.475540 
	C111.920097,212.582687 128.338287,192.314087 145.282669,172.568771 
	C154.867462,161.399597 166.032867,151.510284 177.028030,141.648438 
	C189.242020,130.693420 201.767517,120.034767 214.702087,109.945366 
	C237.224030,92.377464 261.119019,76.725891 286.660645,63.952347 
	C307.757141,53.401852 329.186859,43.314613 351.140839,34.743130 
	C370.293854,27.265228 390.195984,21.463963 410.120697,16.281174 
	C426.154541,12.110468 442.654480,9.563086 459.063538,7.053555 
	C473.622925,4.826905 488.343506,3.657732 502.987640,1.975935 
	C504.344574,1.820101 505.663452,1.333186 507.000000,1.000000 
	C529.354248,1.000000 551.708435,1.000000 574.731567,1.384629 
	C580.490356,2.178657 585.590759,2.488478 590.668274,3.017199 
	C603.057312,4.307249 615.552551,5.039115 627.790161,7.208340 
	C644.907532,10.242557 661.938538,13.940797 678.811462,18.138905 
	C709.785217,25.845383 739.658691,36.890491 768.566406,50.336288 
	C796.536499,63.346001 823.722168,78.016098 848.524902,96.418556 
	C869.417908,111.920212 889.686279,128.338638 909.431580,145.282959 
	C920.600769,154.867752 930.490051,166.033188 940.351807,177.028381 
	C951.306824,189.242386 961.965576,201.767776 972.054932,214.702362 
	C989.622803,237.224365 1005.274231,261.119446 1018.047852,286.661041 
	C1028.598389,307.757446 1038.685547,329.187134 1047.257080,351.141052 
	C1054.734985,370.294037 1060.536133,390.196198 1065.718872,410.120911 
	C1069.889526,426.154755 1072.437134,442.654633 1074.946533,459.063690 
	C1077.173218,473.623016 1078.342041,488.343597 1080.023804,502.987671 
	C1080.179688,504.344574 1080.666748,505.663452 1081.000000,507.000000 
	C1081.000000,529.354248 1081.000000,551.708435 1080.615356,574.731567 
	C1079.821289,580.490784 1079.511230,585.591492 1078.982544,590.669434 
	C1077.692627,603.058228 1076.960815,615.553345 1074.791504,627.790710 
	C1071.757324,644.907776 1068.059204,661.938599 1063.861206,678.811218 
	C1056.155029,709.784668 1045.110107,739.657959 1031.664307,768.565186 
	C1018.654724,796.534607 1003.986450,823.720703 985.583435,848.522644 
	C970.081299,869.414917 953.663879,889.683594 936.719788,909.428650 
	C927.135193,920.597656 915.970093,930.486938 904.975098,940.348694 
	C892.761292,951.303589 880.208496,961.924438 867.307251,972.059204 
	C845.091492,989.511047 821.218628,1004.562500 796.317505,1017.833435 
	C764.518860,1034.780273 731.404053,1048.792969 696.774231,1058.891724 
	C672.719360,1065.906616 648.411377,1072.044189 623.449402,1075.002319 
	C608.153503,1076.815063 592.822937,1078.334595 577.513306,1080.034058 
	C576.650452,1080.129883 575.836609,1080.667847 575.000000,1081.000000 
M707.119812,435.720428 
	C657.416870,459.336121 604.538086,464.274139 550.049988,462.834198 
	C556.645142,436.640961 563.119873,411.009827 569.547729,385.366943 
	C573.835083,368.263306 578.022522,351.134552 582.330566,334.036163 
	C583.367920,329.918884 581.890015,328.033569 577.733582,327.865753 
	C573.908752,327.711334 570.093262,327.300079 566.268127,327.180511 
	C509.191437,325.396484 452.398132,328.703339 395.870605,336.734375 
	C393.320312,337.096710 390.766785,337.436401 388.214752,337.786621 
	C404.679047,341.492950 419.492920,348.656830 434.280060,355.833679 
	C445.628418,361.341614 448.064056,366.025208 444.927032,378.229706 
	C436.563995,410.765961 427.796387,443.198059 419.356323,475.714813 
	C417.612732,482.432343 413.513000,485.789673 406.874725,486.753754 
	C369.811279,492.136475 332.714752,497.310272 295.710144,503.072998 
	C268.595703,507.295593 241.604385,512.309265 214.563828,517.002808 
	C213.767319,517.141052 213.034241,517.644775 212.271591,517.978088 
	C212.356781,518.376526 212.441986,518.774902 212.527176,519.173340 
	C278.938507,513.974792 345.349823,508.776276 411.841614,503.571442 
	C411.841614,505.033417 411.944672,505.554199 411.827087,506.019165 
	C398.125153,560.202209 384.449646,614.392029 370.646393,668.549194 
	C368.400970,677.359131 364.713837,685.644287 357.851196,691.896973 
	C344.624084,703.948242 329.883911,713.380615 311.978821,716.947937 
	C310.181427,717.306091 308.414551,717.817444 306.633514,718.257690 
	C354.189178,721.759338 531.197083,701.547607 557.650391,689.979004 
	C555.774292,689.593018 554.337891,689.295715 552.900635,689.002136 
	C541.834717,686.742004 530.511536,685.321472 519.762817,682.026733 
	C503.580383,677.066284 497.885101,666.014832 501.423828,649.503540 
	C501.737732,648.038940 502.095337,646.583069 502.464081,645.131165 
	C511.103851,611.112915 519.744385,577.094849 528.393127,543.078918 
	C531.499573,530.861145 534.627808,518.648804 537.865845,505.965088 
	C550.261963,507.677734 562.284119,509.186493 574.256470,511.020264 
	C616.692688,517.520203 658.033630,527.915466 697.134155,546.107483 
	C715.224915,554.524414 732.079102,564.708679 745.554993,579.806702 
	C763.147339,599.516602 761.473511,628.615723 751.054138,642.955872 
	C744.211060,652.373962 736.959717,661.559631 729.213501,670.244995 
	C706.785156,695.392761 678.766235,712.939636 648.962585,727.875122 
	C602.735657,751.040710 553.866943,766.562256 503.580750,778.023193 
	C459.475586,788.075378 414.886566,794.400574 369.657257,795.799805 
	C315.588501,797.472534 262.272278,791.634888 209.643936,779.229553 
	C203.190643,777.708374 196.667816,776.482178 190.177216,775.119263 
	C191.281830,776.873901 192.687668,777.594604 194.173935,778.056335 
	C212.105423,783.626831 229.928864,789.589600 248.009995,794.626160 
	C324.091125,815.818420 401.340698,830.278442 480.469666,832.752136 
	C547.431458,834.845398 613.454224,827.977539 678.237732,810.330444 
	C729.570312,796.347290 777.791382,775.793945 820.867065,744.053955 
	C850.942383,721.893066 874.580200,695.087769 885.563538,658.388062 
	C897.482422,618.562195 895.154114,580.825317 870.976318,545.833923 
	C853.302246,520.255005 829.545227,502.442627 800.718201,491.128174 
	C798.130554,490.112518 795.835388,488.351929 792.422241,486.365723 
	C795.631714,484.042450 797.499756,482.444916 799.585815,481.218201 
	C819.726807,469.374725 837.553040,454.784424 852.494019,436.767181 
	C870.102722,415.532837 881.783997,391.635345 881.688110,363.620361 
	C881.530701,317.635101 861.598389,281.760895 823.000488,256.944092 
	C787.241943,233.952896 747.096130,222.613846 705.536133,216.140366 
	C648.390076,207.239151 591.024292,207.906647 533.705688,214.305603 
	C478.683350,220.448212 424.610931,231.606644 371.436890,247.005432 
	C315.427429,263.225372 261.671814,284.751099 211.953873,315.623108 
	C210.604156,316.461151 209.350464,317.453827 208.051987,318.374420 
	C208.323044,318.853699 208.594101,319.333008 208.865158,319.812317 
	C212.059479,318.692078 215.301300,317.690582 218.441162,316.434296 
	C304.206726,282.117981 393.980896,268.209198 485.648560,264.243042 
	C517.962708,262.844940 550.269409,263.888428 582.479065,267.042206 
	C616.367188,270.360413 649.776306,276.127258 681.796753,288.114868 
	C702.230103,295.764648 722.416626,304.006104 739.003967,318.941437 
	C760.615845,338.401001 765.946899,365.915070 753.117554,392.037415 
	C743.286377,412.054871 727.514343,425.757965 707.119812,435.720428 
z"/>
<path fill="#FFFFFF" opacity="1.000000" stroke="none" 
	d="
M1.000001,575.468628 
	C1.333188,576.336548 1.820094,577.655396 1.975933,579.012268 
	C3.657719,593.656250 4.826887,608.376709 7.053517,622.935913 
	C9.563033,639.344788 12.110542,655.844421 16.281054,671.878113 
	C21.463610,691.802612 27.264296,711.704773 34.741955,730.857544 
	C43.313137,752.811279 53.400291,774.240784 63.950596,795.336975 
	C76.723900,820.878357 92.376244,844.772461 109.942673,867.294983 
	C120.031227,880.229919 130.690384,892.754761 141.645294,904.968628 
	C151.507004,915.963623 161.396118,927.129028 172.565094,936.713745 
	C192.309952,953.658142 212.577377,970.077393 233.470688,985.578003 
	C258.273682,1003.979065 285.438110,1018.695435 313.431335,1031.652344 
	C345.032837,1046.279297 377.661530,1058.340820 411.726379,1065.857056 
	C431.747437,1070.274536 452.014343,1073.671509 472.272888,1076.882446 
	C483.607269,1078.678955 495.150482,1079.158081 506.799805,1080.615479 
	C338.406250,1081.000000 169.812500,1081.000000 1.000000,1081.000000 
	C1.000000,912.645813 1.000000,744.291565 1.000001,575.468628 
z"/>
<path fill="#FFFFFF" opacity="1.000000" stroke="none" 
	d="
M575.468628,1081.000000 
	C575.836609,1080.667847 576.650452,1080.129883 577.513306,1080.034058 
	C592.822937,1078.334595 608.153503,1076.815063 623.449402,1075.002319 
	C648.411377,1072.044189 672.719360,1065.906616 696.774231,1058.891724 
	C731.404053,1048.792969 764.518860,1034.780273 796.317505,1017.833435 
	C821.218628,1004.562500 845.091492,989.511047 867.307251,972.059204 
	C880.208496,961.924438 892.761292,951.303589 904.975098,940.348694 
	C915.970093,930.486938 927.135193,920.597656 936.719788,909.428650 
	C953.663879,889.683594 970.081299,869.414917 985.583435,848.522644 
	C1003.986450,823.720703 1018.654724,796.534607 1031.664307,768.565186 
	C1045.110107,739.657959 1056.155029,709.784668 1063.861206,678.811218 
	C1068.059204,661.938599 1071.757324,644.907776 1074.791504,627.790710 
	C1076.960815,615.553345 1077.692627,603.058228 1078.982544,590.669434 
	C1079.511230,585.591492 1079.821289,580.490784 1080.615356,575.200195 
	C1081.000000,743.593750 1081.000000,912.187500 1081.000000,1081.000000 
	C912.645813,1081.000000 744.291565,1081.000000 575.468628,1081.000000 
z"/>
<path fill="#FFFFFF" opacity="1.000000" stroke="none" 
	d="
M506.531342,1.000000 
	C505.663452,1.333186 504.344574,1.820101 502.987640,1.975935 
	C488.343506,3.657732 473.622925,4.826905 459.063538,7.053555 
	C442.654480,9.563086 426.154541,12.110468 410.120697,16.281174 
	C390.195984,21.463963 370.293854,27.265228 351.140839,34.743130 
	C329.186859,43.314613 307.757141,53.401852 286.660645,63.952347 
	C261.119019,76.725891 237.224030,92.377464 214.702087,109.945366 
	C201.767517,120.034767 189.242020,130.693420 177.028030,141.648438 
	C166.032867,151.510284 154.867462,161.399597 145.282669,172.568771 
	C128.338287,192.314087 111.920097,212.582687 96.418213,233.475540 
	C78.015434,258.278107 63.345695,285.464050 50.336010,313.434143 
	C36.890202,342.341858 25.845093,372.215424 18.138815,403.189301 
	C13.940832,420.062256 10.242508,437.093231 7.208293,454.210632 
	C5.039066,466.448212 4.307243,478.943542 3.017180,491.332520 
	C2.488485,496.409821 2.178646,501.509888 1.384624,506.799805 
	C1.000000,338.406219 1.000000,169.812454 1.000000,1.000000 
	C169.354172,1.000000 337.708435,1.000000 506.531342,1.000000 
z"/>
<path fill="#FFFFFF" opacity="1.000000" stroke="none" 
	d="
M1081.000000,506.531342 
	C1080.666748,505.663452 1080.179688,504.344574 1080.023804,502.987671 
	C1078.342041,488.343597 1077.173218,473.623016 1074.946533,459.063690 
	C1072.437134,442.654633 1069.889526,426.154755 1065.718872,410.120911 
	C1060.536133,390.196198 1054.734985,370.294037 1047.257080,351.141052 
	C1038.685547,329.187134 1028.598389,307.757446 1018.047852,286.661041 
	C1005.274231,261.119446 989.622803,237.224365 972.054932,214.702362 
	C961.965576,201.767776 951.306824,189.242386 940.351807,177.028381 
	C930.490051,166.033188 920.600769,154.867752 909.431580,145.282959 
	C889.686279,128.338638 869.417908,111.920212 848.524902,96.418556 
	C823.722168,78.016098 796.536499,63.346001 768.566406,50.336288 
	C739.658691,36.890491 709.785217,25.845383 678.811462,18.138905 
	C661.938538,13.940797 644.907532,10.242557 627.790161,7.208340 
	C615.552551,5.039115 603.057312,4.307249 590.668274,3.017199 
	C585.590759,2.488478 580.490356,2.178657 575.200195,1.384629 
	C743.593750,1.000000 912.187500,1.000000 1081.000000,1.000000 
	C1081.000000,169.354172 1081.000000,337.708435 1081.000000,506.531342 
z"/>
<path fill="#FFFFFE" opacity="1.000000" stroke="none" 
	d="
M707.439697,435.526855 
	C727.514343,425.757965 743.286377,412.054871 753.117554,392.037415 
	C765.946899,365.915070 760.615845,338.401001 739.003967,318.941437 
	C722.416626,304.006104 702.230103,295.764648 681.796753,288.114868 
	C649.776306,276.127258 616.367188,270.360413 582.479065,267.042206 
	C550.269409,263.888428 517.962708,262.844940 485.648560,264.243042 
	C393.980896,268.209198 304.206726,282.117981 218.441162,316.434296 
	C215.301300,317.690582 212.059479,318.692078 208.865158,319.812317 
	C208.594101,319.333008 208.323044,318.853699 208.051987,318.374420 
	C209.350464,317.453827 210.604156,316.461151 211.953873,315.623108 
	C261.671814,284.751099 315.427429,263.225372 371.436890,247.005432 
	C424.610931,231.606644 478.683350,220.448212 533.705688,214.305603 
	C591.024292,207.906647 648.390076,207.239151 705.536133,216.140366 
	C747.096130,222.613846 787.241943,233.952896 823.000488,256.944092 
	C861.598389,281.760895 881.530701,317.635101 881.688110,363.620361 
	C881.783997,391.635345 870.102722,415.532837 852.494019,436.767181 
	C837.553040,454.784424 819.726807,469.374725 799.585815,481.218201 
	C797.499756,482.444916 795.631714,484.042450 792.422241,486.365723 
	C795.835388,488.351929 798.130554,490.112518 800.718201,491.128174 
	C829.545227,502.442627 853.302246,520.255005 870.976318,545.833923 
	C895.154114,580.825317 897.482422,618.562195 885.563538,658.388062 
	C874.580200,695.087769 850.942383,721.893066 820.867065,744.053955 
	C777.791382,775.793945 729.570312,796.347290 678.237732,810.330444 
	C613.454224,827.977539 547.431458,834.845398 480.469666,832.752136 
	C401.340698,830.278442 324.091125,815.818420 248.009995,794.626160 
	C229.928864,789.589600 212.105423,783.626831 194.173935,778.056335 
	C192.687668,777.594604 191.281830,776.873901 190.177216,775.119263 
	C196.667816,776.482178 203.190643,777.708374 209.643936,779.229553 
	C262.272278,791.634888 315.588501,797.472534 369.657257,795.799805 
	C414.886566,794.400574 459.475586,788.075378 503.580750,778.023193 
	C553.866943,766.562256 602.735657,751.040710 648.962585,727.875122 
	C678.766235,712.939636 706.785156,695.392761 729.213501,670.244995 
	C736.959717,661.559631 744.211060,652.373962 751.054138,642.955872 
	C761.473511,628.615723 763.147339,599.516602 745.554993,579.806702 
	C732.079102,564.708679 715.224915,554.524414 697.134155,546.107483 
	C658.033630,527.915466 616.692688,517.520203 574.256470,511.020264 
	C562.284119,509.186493 550.261963,507.677734 537.865845,505.965088 
	C534.627808,518.648804 531.499573,530.861145 528.393127,543.078918 
	C519.744385,577.094849 511.103851,611.112915 502.464081,645.131165 
	C502.095337,646.583069 501.737732,648.038940 501.423828,649.503540 
	C497.885101,666.014832 503.580383,677.066284 519.762817,682.026733 
	C530.511536,685.321472 541.834717,686.742004 552.900635,689.002136 
	C554.337891,689.295715 555.774292,689.593018 557.650391,689.979004 
	C531.197083,701.547607 354.189178,721.759338 306.633514,718.257690 
	C308.414551,717.817444 310.181427,717.306091 311.978821,716.947937 
	C329.883911,713.380615 344.624084,703.948242 357.851196,691.896973 
	C364.713837,685.644287 368.400970,677.359131 370.646393,668.549194 
	C384.449646,614.392029 398.125153,560.202209 411.827087,506.019165 
	C411.944672,505.554199 411.841614,505.033417 411.841614,503.571442 
	C345.349823,508.776276 278.938507,513.974792 212.527176,519.173340 
	C212.441986,518.774902 212.356781,518.376526 212.271591,517.978088 
	C213.034241,517.644775 213.767319,517.141052 214.563828,517.002808 
	C241.604385,512.309265 268.595703,507.295593 295.710144,503.072998 
	C332.714752,497.310272 369.811279,492.136475 406.874725,486.753754 
	C413.513000,485.789673 417.612732,482.432343 419.356323,475.714813 
	C427.796387,443.198059 436.563995,410.765961 444.927032,378.229706 
	C448.064056,366.025208 445.628418,361.341614 434.280060,355.833679 
	C419.492920,348.656830 404.679047,341.492950 388.214752,337.786621 
	C390.766785,337.436401 393.320312,337.096710 395.870605,336.734375 
	C452.398132,328.703339 509.191437,325.396484 566.268127,327.180511 
	C570.093262,327.300079 573.908752,327.711334 577.733582,327.865753 
	C581.890015,328.033569 583.367920,329.918884 582.330566,334.036163 
	C578.022522,351.134552 573.835083,368.263306 569.547729,385.366943 
	C563.119873,411.009827 556.645142,436.640961 550.049988,462.834198 
	C604.538086,464.274139 657.416870,459.336121 707.439697,435.526855 
z"/>
</svg>