<svg xmlns="http://www.w3.org/2000/svg" viewBox="0 0 400 400"><defs><linearGradient id="b" x1="81.16" x2="493.5" y1="720.49" y2="246.89" gradientTransform="matrix(1 0 0 -1 0 784)" gradientUnits="userSpaceOnUse"><stop offset="0" stop-color="#1a1e21"/><stop offset="1" stop-color="#06060a"/></linearGradient><clipPath id="a"><circle cx="200" cy="200" r="200" fill="none"/></clipPath></defs><g clip-path="url(#a)"><path fill="url(#b)" d="M0 0h400v400H0V0Z"/><path fill="#fff" d="M182.98 154.42c0 22.16-14.07 34.24-28.62 39.29 24.4 4.02 38 19.64 38 43.8 0 43.82-46.89 51.38-75.98 51.38H66.67V111.11h52.07c15.47 0 64.22 0 64.22 43.31h.02Zm-30.96 2c0-21.13-15-22.58-37.04-22.58l-18.31-.51v50.29h16.89c13.67.09 38.44.22 38.44-27.18l.02-.02ZM96.69 265.71l18.76.51c28.6 0 45.96-5.56 45.96-30.22s-21.11-29.2-47.38-29.2H96.7v58.93-.02Zm224.93-104.73c0 26.67-20.18 42.8-37.53 49.84l49.24 78.07h-33.29l-45.96-73.02h-17.36v73.02h-29.56V111.11h49.71c38 0 64.73 16.62 64.73 49.87Zm-84.89 32.22h14.53c24.84 0 40.8-7.04 40.8-30.71 0-22.18-13.11-29.16-37.04-29.16h-18.29v59.87Z"/></g></svg>