<svg xmlns="http://www.w3.org/2000/svg" viewBox="0 0 199.21 199.21"><defs><style>.cls-1{fill:#f9198b;}.cls-2{fill:#fff;}</style></defs><g id="Layer_2" data-name="Layer 2"><g id="Layer_3" data-name="Layer 3"><circle class="cls-1" cx="99.61" cy="99.61" r="99.61"/><path class="cls-2" d="M153.48,46.71l-34.72-20a38.26,38.26,0,0,0-38.3,0L45.73,46.71A38.29,38.29,0,0,0,26.58,79.88V120a38.29,38.29,0,0,0,19.15,33.17l34.73,20.05a38.26,38.26,0,0,0,38.3,0l34.72-20.05A38.29,38.29,0,0,0,172.63,120V79.88A38.29,38.29,0,0,0,153.48,46.71Zm-2.27,78.22-8.77,5.26c-27,16.2-58.66,16.2-85.67,0L48,124.93c-8.72-5.23-12.3-18.08-8-28.7h0c4.07-10,13.79-14.59,22.33-10.43l1.3.63a81,81,0,0,0,72,0l1.29-.63c8.54-4.16,18.27.39,22.33,10.43h0C163.51,106.85,159.93,119.7,151.21,124.93Z"/></g></g></svg>