<?xml version="1.0" encoding="UTF-8"?>
<svg id="Layer_1" data-name="Layer 1" xmlns="http://www.w3.org/2000/svg" baseProfile="tiny" version="1.2" viewBox="0 0 32 32">
  <g id="Layer_2" data-name="Layer 2">
    <g id="Layer_1-2" data-name="Layer 1-2">
      <path d="M17.2,12.9l3.6-2.1v4.2l-3.6-2.1ZM20.8,21.9l-4.8,2.8-4.8-2.8v-4.9l4.8,2.8,4.8-2.8v4.9ZM11.2,10.8l3.6,2.1-3.6,2.1v-4.2ZM16.6,13.9l3.6,2.1-3.6,2.1v-4.2ZM15.4,18.1l-3.6-2.1,3.6-2.1v4.2ZM20.2,9.8l-4.2,2.4-4.2-2.4,4.2-2.5,4.2,2.5ZM10,9.4v13.1l6,3.4,6-3.4v-13.1l-6-3.4-6,3.4Z" fill="#fff" fill-rule="evenodd" stroke-width="0"/>
    </g>
  </g>
</svg>