<svg xmlns="http://www.w3.org/2000/svg" viewBox="0 0 220 220">
  <path d="M42.52 200h3.9c.71 0 1.42-.36 1.66-.96 29.44-76.32 61.49-114.12 81.59-136.75.83-.96.47-1.69-.71-1.69H93.01c-1.3 0-2.4.53-3.31 1.69l-25.78 32.5c-3.78 4.81-4.73 9.27-4.73 15.65v33.23c-8.4 23.95-13.72 40.2-17.62 54.89-.24.94.12 1.44.95 1.44M172.23 24.85c-5.56-6.02-30.62-6.26-42.21-1.69-2.41.95-4.73 2.56-5.79 3.49-10.64 9.27-17.74 16.61-24.48 23.84-.83.84-.47 1.69.71 1.69h39.85c3.67 0 5.79 2.17 5.79 5.9v45.74c0 1.2.95 1.57 1.66.48l24-31.9c3.9-5.18 5.08-6.74 6.15-13.96 1.42-10.59.59-26.84-5.68-33.59m-51.44 121.34 16.44-27.57c.36-.72.47-1.56.47-2.17V70.46c0-1.2-.83-1.68-1.65-.72-24.71 28.05-43.99 57.54-61.84 93.05-.45.89.12 1.69 1.18 1.32l36.89-11.56c4.16-1.3 6.5-3.01 8.51-6.38z"/>
</svg>
