<?xml version="1.0" encoding="UTF-8"?>
<svg id="Arbitrum" xmlns="http://www.w3.org/2000/svg" baseProfile="tiny" version="1.2" viewBox="0 0 500 500">
  <path d="M141.6,202.9v101c0,6.5,3.4,12.4,9.1,15.7l87.5,50.5c5.6,3.2,12.5,3.2,18,0l87.5-50.5c5.6-3.2,9.1-9.2,9.1-15.7v-101c0-6.5-3.4-12.4-9.1-15.7l-87.5-50.5c-5.6-3.2-12.5-3.2-18,0l-87.5,50.5c-5.6,3.2-9,9.2-9,15.7h-.1Z" display="none" fill="#fff" stroke-width="0"/>
  <g>
    <path d="M266.1,273l-12.5,34.2c-.3.9-.3,2,0,3l21.4,58.8,24.8-14.3-29.8-81.7c-.7-1.9-3.3-1.9-4,0Z" fill="#fff" stroke-width="0"/>
    <path d="M291.2,215.5c-.7-1.9-3.3-1.9-4,0l-12.5,34.2c-.3.9-.3,2,0,3l35.1,96.3,24.8-14.3-43.5-119.1h0Z" fill="#fff" stroke-width="0"/>
  </g>
  <path d="M247.1,140.6c.6,0,1.2.2,1.8.5l94.6,54.6c1.1.6,1.8,1.9,1.8,3.1v109.2c0,1.2-.7,2.5-1.8,3.1l-94.6,54.6c-.5.3-1.1.5-1.8.5s-1.2-.2-1.8-.5l-94.6-54.6c-1.1-.6-1.8-1.9-1.8-3.1v-109.3c0-1.2.7-2.5,1.8-3.1l94.6-54.6c.5-.3,1.1-.5,1.8-.5h0ZM247.1,124.6c-3.4,0-6.7.8-9.8,2.6l-94.6,54.6c-6.1,3.5-9.8,9.9-9.8,16.9v109.2c0,7,3.7,13.4,9.8,16.9l94.6,54.6c3,1.8,6.4,2.6,9.8,2.6s6.7-.8,9.8-2.6l94.6-54.6c6.1-3.5,9.8-9.9,9.8-16.9v-109.2c0-7-3.7-13.4-9.8-16.9l-94.7-54.6c-3-1.8-6.4-2.6-9.8-2.6h.1Z" fill="#fff" stroke-width="0"/>
  <polygon points="184.4 349.1 193.2 325.2 210.7 339.7 194.3 354.8 184.4 349.1" fill="#fff" stroke-width="0"/>
  <g>
    <path d="M239.1,190.9h-24c-1.8,0-3.4,1.1-4,2.8l-51.4,140.9,24.8,14.3,56.7-155.3c.5-1.4-.5-2.9-2-2.9h-.1Z" fill="#fff" stroke-width="0"/>
    <path d="M281.1,190.9h-24c-1.8,0-3.4,1.1-4,2.8l-58.7,160.9,24.8,14.3,63.9-175.3c.5-1.4-.5-2.9-2-2.9h0Z" fill="#fff" stroke-width="0"/>
  </g>
</svg>