<svg width="220" height="220" viewBox="0 0 220 220" fill="none" xmlns="http://www.w3.org/2000/svg">
<path d="M140.004 198C149.381 198 157 190.379 157 181C157 171.621 149.381 164 140.004 164C130.627 164 123.008 171.621 123.008 181C122.715 190.379 130.627 198 140.004 198Z" fill="white"/>
<path d="M78 198C87.3793 198 95 190.379 95 181C95 171.621 87.3793 164 78 164C68.6207 164 61 171.621 61 181C61 190.379 68.6207 198 78 198Z" fill="white"/>
<path d="M40.2945 20H81.2288C88.8856 40.5221 108.911 99.1566 110.383 102.382C110.678 100.622 130.998 37.004 136.593 20.2932H179V166C173.699 163.068 168.398 160.137 162.803 156.912C158.975 154.859 155.146 152.807 151.318 151.048C151.023 122.904 150.729 94.759 149.845 65.4418C144.25 82.4458 124.519 141.667 122.752 143.426H96.5424C96.5424 143.426 70.9216 71.3052 69.7436 68.0803C69.4492 95.9317 69.1547 123.49 67.9767 152.221C52.3686 160.137 42.9449 164.827 40 165.707V20H40.2945Z" fill="white"/>
</svg>
