<?xml version="1.0" encoding="UTF-8"?>
<svg id="Layer_1" data-name="Layer 1" xmlns="http://www.w3.org/2000/svg" baseProfile="tiny" version="1.2" viewBox="0 0 2379.2 2379.2">
  <g id="Layer_2" data-name="Layer 2">
    <g id="Layer_1-2" data-name="Layer 1-2">
      <g id="Layer_2-2" data-name="Layer 2-2">
        <g id="Layer_1-2-2" data-name="Layer 1-2-2">
          <path d="M1581.7,468.6c59.1,0,107.2-48.8,107.2-108.8s-48-108.7-107.2-108.7c-59.1.3-107.2,49-107.2,109s48,108.5,107.2,108.5h0ZM1613.3,751.2c50.5-.4,91.1-41.6,90.7-92.1h0c0-50.7-40.6-92.1-90.7-92.1s-90.7,41.2-90.7,92.1,40.5,92.1,90.7,92.1ZM1862.4,787.2c49.9,0,90.5-41.1,90.5-91.9s-40.6-91.9-90.5-91.9-90.5,41.1-90.5,91.9,40.7,91.9,90.5,91.9h0ZM1832.5,1029.1c42.8,0,77.4-35.2,77.4-78.5s-34.6-78.5-77.4-78.5-77.4,35.2-77.4,78.5,34.6,78.5,77.4,78.5h0ZM2032,1107.5c43.1,0,77.9-35.4,77.9-79s-34.9-79-77.9-79c-43.3.3-78.3,35.6-78,79h0c0,43.6,35,79,78,79h0ZM1581.9,996.4c44.1-.3,79.6-36.2,79.3-80.3h0c0-44.5-35.4-80.5-79.3-80.5s-79.3,36-79.3,80.4,35.4,80.4,79.3,80.4h0ZM1510,1188.8c36.8,0,66.5-30.2,66.5-67.3.3-36.9-29.4-67-66.2-67.3h-.2c-36.8,0-66.5,30.2-66.5,67.3s29.7,67.3,66.5,67.3h-.1ZM1759.5,1222.8c36.7-.3,66.2-30.2,65.9-66.8h0v-.2c0-37-29.4-67-65.9-67s-65.9,30-65.9,67c-.5,36.5,28.8,66.5,65.3,67h.6ZM1958.4,1300.9c36.8,0,66.5-30.2,66.5-67.6s-29.7-67.6-66.5-67.6-66.5,30.2-66.5,67.6c-.4,36.9,29.2,67.2,66.2,67.6h.3ZM1860.1,1446.9c31.1,0,56.2-25.6,56.2-56.9s-25.1-57-56.2-57-56.2,25.7-56.2,57,25.1,56.9,56.2,56.9h0ZM1660.3,1370c31.6,0,57.5-26.2,57.5-58.3s-25.7-58.3-57.5-58.3-57.5,26.2-57.5,58.3,25.9,58.3,57.5,58.3ZM1411.1,1334.4c31.9-.4,57.5-26.6,57.1-58.5-.4-31.3-25.7-56.6-57-57.1h0c-31.9.4-57.5,26.6-57.1,58.5.4,31.3,25.7,56.6,57,57.1h0ZM1549.7,1471.5c27.5,0,49.6-22.6,49.6-50.1.3-27.4-21.8-49.9-49.2-50.1h-.4c-27.5,0-49.6,22.6-49.6,50.1-.3,27.4,21.6,49.8,49,50.1h.6ZM1749.4,1549.7c27.5,0,50.1-22.6,50.1-50.7,0-27.8-22.8-50.3-50.7-50.1s-50.3,22.8-50.1,50.7c0,27.8,22.8,50.3,50.7,50.1ZM1636.9,1608.3c21.8,0,39.5-18,39.5-40.1,0-22-17.6-39.9-39.5-40.1-21.8,0-39.5,18-39.5,40.1s17.6,39.8,39.5,40.1h0ZM1530.3,1639.8c19.8-.2,35.8-16.3,35.7-36.2h0c0-20.2-16.1-36.4-35.7-36.4-19.8.2-35.8,16.3-35.7,36.2h0c-.3,19.8,15.3,36,35,36.3h.7ZM1436.9,1535.5c23.5,0,42.5-19.4,42.5-43.1s-19.1-43.1-42.5-43.1-42.5,19.4-42.5,43.1,18.9,42.8,42.5,43.1h0ZM1299.9,1436.7c27.3,0,49.6-22.3,49.6-50.1.2-27.5-21.8-49.9-49.3-50.1h-.3c-27.3,0-49.6,22.3-49.6,50.1s22.1,49.9,49.6,50.1h0ZM1706.2,2064.8c58.9,0,106.6-48.5,106.6-108.2s-47.7-108.2-106.6-108.2-106.6,48.5-106.6,108.2,47.7,108.2,106.6,108.2ZM1435.4,1927.8c49.1,0,88.9-40.4,88.9-90.2s-39.8-90.2-88.9-90.2-88.9,40.4-88.9,90.2,39.8,90.2,88.9,90.2h0ZM1280.6,2126.1c49.6,0,89.6-40.6,89.6-91s-40-91-89.6-91-89.7,40.6-89.7,91c-.4,49.9,39.8,90.6,89.6,91h0ZM1234.1,1760.7c43.2-.3,78-35.6,77.7-78.8h0c.3-43.2-34.5-78.5-77.7-78.8h0c-43.2.3-78,35.6-77.7,78.8h0c0,43.4,35,78.8,77.7,78.8h0ZM1079.7,1961.7c42.8,0,77.4-35.2,77.4-78.5s-34.6-78.5-77.4-78.5-77.4,35.2-77.4,78.5c-.4,42.9,34,78.1,76.9,78.5h.5ZM913.4,2098.1c42.8,0,77.2-35.2,77.2-78.3s-34.6-78.3-77.2-78.3-77.2,35.2-77.2,78.3,34.6,78.3,77.2,78.3ZM774.9,1920.6c36.6-.3,66.1-30.2,65.9-66.8,0-36.8-29.4-66.8-65.9-66.8-36.9.6-66.3,31.1-65.6,67.9.6,36,29.6,65,65.6,65.6h0ZM941.6,1783.6c36.6-.3,66.2-30.1,65.9-66.8,0-37-29.4-66.8-65.9-66.8-36.9.6-66.3,30.9-65.8,67.8.6,36,29.5,65.1,65.5,65.8h.3ZM1097.1,1582.7c36.7-.3,66.2-30.2,65.9-66.8h0v-.2c0-37-29.4-67-65.9-67-36.7.3-66.2,30.2-65.9,66.8h0v.2c0,37,29.4,67,65.9,67h0ZM859.2,1610.4c31.6,0,57.3-25.9,57.3-58s-25.7-58-57.3-58-57.3,25.9-57.3,58,25.6,58,57.3,58ZM693.4,1746.8c31.5-.2,56.9-25.8,56.7-57.3h0v-.2c.3-31.4-25-57.2-56.4-57.5h-.3c-31.5.2-56.9,25.8-56.7,57.3h0v.2c-.2,31.5,25.2,57.3,56.7,57.5h0ZM655.3,1586.9c27.2-.2,49.1-22.4,49-49.6,0-27.5-22.1-49.6-49-49.6s-49,22.3-49,49.6,22,49.6,49,49.6ZM653.9,1446.6c23.4-.2,42.2-19.4,42-42.8h0c0-23.5-18.8-42.8-42-42.8s-42,19.1-42,42.8,18.8,42.8,42,42.8ZM677,1329.9c19.9,0,35.7-16.3,35.7-36.3s-16.1-36.3-35.7-36.3-35.7,16.3-35.7,36.3,15.7,36.3,35.7,36.3ZM820,1310.3c23.5,0,42.5-19.4,42.5-43.1s-19.1-43.1-42.5-43.1-42.5,19.4-42.5,43.1,18.9,42.8,42.5,43.1h0ZM976.9,1249.2c27.3,0,49.6-22.6,49.6-50.1.2-27.4-21.8-49.8-49.2-50.1h-.4c-27.3,0-49.6,22.6-49.6,50.1-.2,27.5,21.9,49.9,49.3,50.1h.3ZM1014.2,1408.4c31.1,0,56.2-25.3,56.2-56.4s-25.3-56.2-56.4-56.2-56.2,25.3-56.2,56.4,25.2,56.1,56.2,56.2h.2ZM822,1450.8c27.3,0,49-22.3,49-49.9s-22.1-49.9-49-49.9c-27.2.2-49.2,22.4-49,49.7h0v.2c-.4,27.2,21.3,49.5,48.5,49.9h.6,0ZM279.6,1376.8c58.6,0,106.3-48.3,106.3-107.7s-47.7-107.7-106.3-107.7-106.3,48.3-106.3,107.8,47.7,107.6,106.3,107.6h0ZM520.9,1184.4c50.4,0,91-41.5,91-92.4s-40.9-92.4-91-92.4c-50.6.3-91.4,41.7-91,92.3v.2c0,51.3,40.9,92.4,91,92.4h0ZM426.7,947.3c50.1,0,90.5-41.1,90.5-91.9s-40.6-91.9-90.5-91.9c-50.3.3-90.8,41.4-90.5,91.7h0v.2c-.5,50.2,39.8,91.4,90,91.9h.5ZM659.3,835c42.8,0,77.7-35.2,77.7-78.8s-34.9-78.8-77.7-78.8-77.7,35.2-77.7,78.8,34.9,78.8,77.7,78.8ZM754.4,1071.6c43.1,0,78-35.4,78-79s-34.9-79-78-79-78,35.4-78,79,34.9,79,78,79h0ZM966,1022.4c36.9-.3,66.5-30.4,66.2-67.3h0c.6-36.6-28.7-66.7-65.2-67.2s-66.7,28.7-67.2,65.2h0v2h0c-.4,36.8,29,66.9,65.8,67.3h.5,0ZM1148.9,1023.1c31.6,0,57.3-25.9,57.3-57.8s-25.7-57.8-57.3-57.8-57.8,25.8-57.8,57.8,25.8,57.8,57.8,57.8h0ZM1300,1057.8c26.4,0,48.3-21.8,48.3-48.8s-21.6-48.3-48.3-48.3-48.3,21.6-48.3,48.3c.3,26.7,21.8,48.8,48.3,48.8ZM1319.7,879.8c23.3-.2,42.1-19.2,42-42.5,0-23.5-18.8-42.5-42-42.5s-42,19.1-42,42.5c0,23.3,18.7,42.4,42,42.5h0ZM1203.5,821.5c26.7,0,48.3-21.8,48.3-48.5s-21.8-48.3-48.5-48.3-48.3,21.8-48.3,48.5,21.6,48.2,48.3,48.3h.2ZM1054.1,786.2c31.5-.3,56.9-26,56.7-57.5,0-31.9-25.3-57.5-56.7-57.5s-56.7,25.9-56.7,57.5c-.3,31.5,25,57.2,56.5,57.5h.2ZM871.6,786.4c36.8,0,66.5-30.2,66.5-67.3s-29.7-67.3-66.5-67.3-66.5,30.3-66.5,67.3c0,36.9,29.6,67,66.5,67.3h0ZM625.7,618c41.7,0,75.2-34.1,75.2-76.3s-33.8-76.3-75.2-76.3-75.2,34.1-75.2,76.3,33.8,76.3,75.2,76.3ZM837.3,571.7c36.8,0,66.5-30.2,66.5-67.3s-29.7-67.3-66.5-67.3-66.5,30.2-66.5,67.3,29.7,67.4,66.5,67.4h0ZM1020.1,572.6c31.6,0,57.3-25.9,57.3-58s-25.7-58-57.3-58c-31.8.2-57.4,26.1-57.3,57.9h0v.2c0,31.8,25.5,57.7,57.3,58h0ZM1170.1,607.1c27,0,48.8-21.9,48.8-48.8s-21.9-48.8-48.8-48.8-48.8,21.9-48.8,48.8h0c-.2,26.8,21.3,48.6,48,48.9h.8ZM1285.3,667c24.1-.4,43.3-20.2,43-44.3-.4-23.6-19.4-42.6-43-43-23.7,0-43.1,19.6-43.1,43.6s19.4,43.6,43.1,43.6h0ZM1369.9,735.7c19.7,0,35.5-16.2,35.4-35.9h0c.2-19.8-15.6-35.9-35.3-36.1h0c-19.7,0-35.5,16.2-35.4,35.9h0c-.3,19.6,15.3,35.7,34.8,36h.6,0Z" fill="#fff" stroke-width="0"/>
        </g>
      </g>
    </g>
  </g>
</svg>