<svg xmlns="http://www.w3.org/2000/svg" viewBox="0 0 2379.17 2379.17"><defs><style>.cls-1{fill:#fff;}</style></defs><g id="Layer_2" data-name="Layer 2"><g id="Layer_1-2" data-name="Layer 1"><circle class="cls-1" cx="1189.58" cy="1189.58" r="1189.58"/><g id="Layer_2-2" data-name="Layer 2"><g id="Layer_1-2-2" data-name="Layer 1-2"><path d="M1581.73,468.57c59.12,0,107.16-48.81,107.16-108.78s-48-108.71-107.16-108.71c-59.12.31-107.16,49-107.16,109S1522.61,468.57,1581.73,468.57Zm31.61,282.66a91.43,91.43,0,0,0,90.73-92.12h0c0-50.67-40.6-92.13-90.73-92.13s-90.73,41.15-90.73,92.13S1563.13,751.23,1613.34,751.23Zm249.11,36c49.9,0,90.5-41.14,90.5-91.9s-40.6-91.89-90.5-91.89-90.5,41.14-90.5,91.89S1812.63,787.26,1862.45,787.26Zm-29.91,241.82c42.77,0,77.4-35.17,77.4-78.49s-34.63-78.49-77.4-78.49-77.41,35.18-77.41,78.49S1789.77,1029.08,1832.54,1029.08ZM2032,1107.5c43.08,0,77.95-35.41,77.95-79s-34.87-79-77.95-79a78.49,78.49,0,0,0-78,79h0C1954,1072.09,1989,1107.5,2032,1107.5Zm-450.1-111.11a79.81,79.81,0,0,0,79.34-80.27h0V916c0-44.4-35.41-80.43-79.34-80.43s-79.34,36-79.34,80.43C1502.54,960.12,1538,996.39,1581.88,996.39ZM1510,1188.78c36.8,0,66.48-30.22,66.48-67.34a66.79,66.79,0,0,0-66.24-67.33H1510c-36.81,0-66.48,30.22-66.48,67.33S1473.17,1188.78,1510,1188.78Zm249.49,34a66.4,66.4,0,0,0,65.94-66.85h0v-.16c0-37-29.44-67-65.94-67s-65.94,30-65.94,67a66.17,66.17,0,0,0,65.3,67h.64Zm198.9,78.11c36.81,0,66.48-30.22,66.48-67.57s-29.67-67.57-66.48-67.57-66.48,30.22-66.48,67.57a66.87,66.87,0,0,0,66.16,67.57Zm-98.25,146c31.07,0,56.18-25.64,56.18-56.95s-25.11-57-56.18-57-56.17,25.65-56.17,57S1829.05,1446.87,1860.12,1446.87ZM1660.29,1370c31.62,0,57.5-26.19,57.5-58.34s-25.65-58.35-57.5-58.35-57.49,26.19-57.49,58.35S1628.68,1370,1660.29,1370Zm-249.18-35.64a57.81,57.81,0,0,0,.08-115.61h-.08a57.81,57.81,0,0,0-.08,115.61Zm138.54,137.14c27.5,0,49.59-22.62,49.59-50.13a49.67,49.67,0,0,0-49.2-50.13h-.39c-27.51,0-49.59,22.63-49.59,50.13a49.58,49.58,0,0,0,49,50.13Zm199.75,78.18c27.51,0,50.13-22.62,50.13-50.67a50.4,50.4,0,1,0-50.13,50.67Zm-112.51,58.66c21.78,0,39.52-18,39.52-40.06a39.82,39.82,0,0,0-39.52-40.06c-21.77,0-39.51,18-39.51,40.06A40,40,0,0,0,1636.89,1608.35Zm-106.61,31.46a36,36,0,0,0,35.72-36.17h0v-.1c0-20.14-16.12-36.26-35.72-36.26a36,36,0,0,0-35.72,36.17h0v.09a35.65,35.65,0,0,0,35,36.26Zm-93.37-104.3c23.48,0,42.54-19.37,42.54-43.08s-19.06-43.08-42.54-43.08-42.54,19.37-42.54,43.08A43,43,0,0,0,1436.91,1535.51Zm-137-98.79c27.27,0,49.59-22.31,49.59-50.13a49.71,49.71,0,0,0-49.59-50.13c-27.27,0-49.59,22.32-49.59,50.13A50.05,50.05,0,0,0,1299.92,1436.72Zm406.24,628.08c58.89,0,106.62-48.5,106.62-108.24s-47.73-108.25-106.62-108.25-106.61,48.51-106.61,108.25,47.73,108.24,106.61,108.24Zm-270.8-137c49.05,0,88.87-40.37,88.87-90.19s-39.82-90.19-88.87-90.19-88.87,40.37-88.87,90.19S1386.24,1927.81,1435.36,1927.81Zm-154.73,198.28c49.59,0,89.64-40.6,89.64-91,0-50.13-40-91-89.64-91s-89.65,40.61-89.65,91a90.35,90.35,0,0,0,89.64,91Zm-46.57-365.33a78.27,78.27,0,0,0,77.72-78.8h0a78.26,78.26,0,0,0-77.72-78.8h0a78.26,78.26,0,0,0-77.72,78.79h0c.08,43.39,35,78.8,77.72,78.8Zm-154.35,201c42.77,0,77.41-35.18,77.41-78.49s-34.64-78.49-77.41-78.49-77.4,35.17-77.4,78.49a77.72,77.72,0,0,0,76.93,78.49ZM913.36,2098.12c42.77,0,77.17-35.18,77.17-78.26,0-43.31-34.63-78.26-77.17-78.26-42.77,0-77.18,35.18-77.18,78.26s34.64,78.26,77.18,78.26ZM774.89,1920.6a66.54,66.54,0,0,0,65.94-66.79c0-36.8-29.44-66.79-65.94-66.79a66.8,66.8,0,0,0,0,133.58Zm166.67-137a66.4,66.4,0,0,0,65.94-66.79c0-37-29.44-66.79-65.94-66.79a66.8,66.8,0,0,0-.23,133.58Zm155.51-200.91a66.4,66.4,0,0,0,65.94-66.85h0v-.16c0-37-29.45-67-65.94-67a66.4,66.4,0,0,0-65.94,66.85h0v.16C1031.13,1552.72,1060.57,1582.7,1097.07,1582.7ZM859.2,1610.36c31.61,0,57.26-25.88,57.26-58s-25.65-58-57.26-58-57.26,25.88-57.26,58S827.58,1610.36,859.2,1610.36ZM693.38,1746.81a57,57,0,0,0,56.72-57.34h0v-.15a57,57,0,0,0-56.4-57.49h-.32a57,57,0,0,0-56.72,57.33h0v.16a57.1,57.1,0,0,0,56.72,57.49Zm-38.12-159.92a49.45,49.45,0,0,0,49-49.59c0-27.51-22.09-49.59-49-49.59s-49,22.31-49,49.59C606.21,1564.8,628.3,1586.89,655.26,1586.89Zm-1.39-140.33a42.38,42.38,0,0,0,42-42.76h0c0-23.47-18.83-42.77-42-42.77s-42,19.06-42,42.77S630.7,1446.56,653.87,1446.56ZM677,1329.87c19.91,0,35.72-16.35,35.72-36.26s-16.12-36.26-35.72-36.26c-19.92,0-35.72,16.35-35.72,36.26S657,1329.87,677,1329.87Zm142.95-19.52c23.48,0,42.54-19.37,42.54-43.08s-19.06-43.08-42.54-43.08-42.54,19.37-42.54,43.08A42.94,42.94,0,0,0,819.91,1310.35Zm156.91-61.14c27.27,0,49.58-22.62,49.58-50.13A49.66,49.66,0,0,0,977.21,1149h-.39c-27.28,0-49.59,22.63-49.59,50.13a49.74,49.74,0,0,0,49.35,50.13h.24Zm37.34,159.15a56.3,56.3,0,1,0-.23,0Zm-192.23,42.39c27.27,0,49-22.32,49-49.9s-22.08-49.9-49-49.9a49.34,49.34,0,0,0-49,49.65h0v.24a49.2,49.2,0,0,0,48.49,49.89h.56Zm-542.38-74c58.57,0,106.3-48.27,106.3-107.7s-47.73-107.7-106.3-107.7-106.31,48.35-106.31,107.78S221,1376.75,279.55,1376.75Zm241.28-192.31c50.44,0,91-41.46,91-92.44s-40.91-92.44-91-92.44a91.68,91.68,0,0,0-91.05,92.28v.16c0,51.29,40.92,92.44,91.05,92.44Zm-94.14-237.1c50.13,0,90.5-41.14,90.5-91.9s-40.61-91.89-90.5-91.89a91.11,91.11,0,0,0-90.5,91.72h0v.16a91,91,0,0,0,90,91.9ZM659.29,835c42.77,0,77.72-35.18,77.72-78.8s-34.87-78.8-77.72-78.8-77.72,35.18-77.72,78.8S616.52,835,659.29,835Zm95.07,236.56c43.08,0,77.95-35.41,77.95-79s-34.87-79-77.95-79-78,35.41-78,79S711.28,1071.55,754.36,1071.55Zm211.69-49.13a66.78,66.78,0,0,0,66.24-67.32h0a66.25,66.25,0,1,0-132.49-2v2h0a66.57,66.57,0,0,0,65.77,67.33Zm182.86.62c31.61,0,57.26-25.88,57.26-57.8s-25.65-57.8-57.26-57.8a57.8,57.8,0,1,0,0,115.6ZM1300,1057.83c26.42,0,48.27-21.77,48.27-48.81a48.27,48.27,0,1,0-96.54,0C1252,1035.75,1273.5,1057.83,1300,1057.83Zm19.68-178.06a42.29,42.29,0,0,0,42-42.53c0-23.48-18.82-42.54-42-42.54s-42,19.06-42,42.54A42.29,42.29,0,0,0,1319.68,879.77Zm-116.23-58.26a48.39,48.39,0,1,0-.24,0Zm-149.31-35.34a57.18,57.18,0,0,0,56.72-57.49c0-31.92-25.34-57.49-56.72-57.49s-56.71,25.88-56.71,57.49A57,57,0,0,0,1054,786.17h.16Zm-182.55.24c36.81,0,66.48-30.22,66.48-67.34s-29.67-67.33-66.48-67.33S805.11,682,805.11,719.07A67.11,67.11,0,0,0,871.59,786.41ZM625.74,618c41.69,0,75.24-34.1,75.24-76.32s-33.79-76.33-75.24-76.33c-41.69,0-75.24,34.1-75.24,76.33S584.29,618,625.74,618Zm211.61-46.26c36.8,0,66.48-30.22,66.48-67.33s-29.68-67.34-66.48-67.34-66.48,30.22-66.48,67.34S800.54,571.78,837.35,571.78Zm182.78.85c31.61,0,57.26-25.88,57.26-58s-25.65-58-57.26-58a57.57,57.57,0,0,0-57.26,57.88h0v.16A57.78,57.78,0,0,0,1020.13,572.63Zm150,34.56a48.82,48.82,0,1,0-48.82-48.82A48.45,48.45,0,0,0,1170.14,607.19ZM1285.35,667a43.63,43.63,0,0,0,0-87.25c-23.71,0-43.08,19.6-43.08,43.62S1261.64,667,1285.35,667Zm84.54,68.65a35.65,35.65,0,0,0,35.41-35.88h0v-.08a35.65,35.65,0,0,0-35.33-36h-.08a35.64,35.64,0,0,0-35.41,35.87h0v.07a35.41,35.41,0,0,0,34.85,35.95h.56Z"/></g></g></g></g></svg>