<?xml version="1.0" encoding="UTF-8"?>
<svg id="Ebene_1" data-name="Ebene 1" xmlns="http://www.w3.org/2000/svg" baseProfile="tiny" version="1.2" viewBox="0 0 96 96">
  <path d="M25.9,71.1c2.3-1.8,4.5-3.5,7-5.4-6.8-8.2-9.2-17-6.8-26.7,1.7-6.9,5.6-12.4,11.5-16.4,10.6-7.1,25.7-5.2,33.5,4.3-2,2.1-4,4.3-6.1,6.5,13.7,17.5,5.3,36.1-5.4,42.9-10.7,6.7-26.4,4.8-33.7-5.2ZM33.5,65c5.6,6,14.3,7,21,2.5,3.6-2.4,5.9-5.6,7.2-9.7,2-6.6,0-12.4-3.9-17.7,2.2-2.3,4.2-4.4,6.2-6.5-5.1-6-14.3-7-21-2.5-8.7,5.9-9.8,15.2-3.2,27.4-2.2,2.2-4.2,4.3-6.3,6.5Z" fill="#000" stroke-width="0"/>
</svg>