<?xml version="1.0" encoding="UTF-8"?><svg id="Layer_2" xmlns="http://www.w3.org/2000/svg" viewBox="0 0 1286 679"><defs><style>.cls-1{fill:#ff0420;}</style></defs><g id="Layer_1-2"><g id="Layer_1-3"><g id="_1995692876000"><path class="cls-1" d="m254,677c-75,0-136-18-183-53C24,588,0,537,0,472c0-14,2-31,5-51,8-45,20-99,35-163C83,86,193,0,370,0c48,0,92,8,130,25,38,16,68,40,90,72s33,69,33,113c0,13-2,30-5,50-10,56-21,110-34,163-22,86-60,150-114,193-54,42-126,63-216,63v-2Zm14-135c35,0,65-11,89-31,25-21,43-52,54-95,15-59,26-110,33-154,3-13,4-27,4-41,0-57-30-86-89-86-35,0-65,11-90,31-25,21-42,52-53,95-12,42-23,93-34,154-3,13-4,26-4,40-1,58,30,87,90,87Z"/><path class="cls-1" d="m665,668c-7,0-12-2-16-7-3-5-4-11-3-17L776,34c1-7,5-13,11-17,6-5,12-7,18-7h250c70,0,125,15,167,43,43,29,64,71,64,125,0,16-2,32-6,49-16,72-47,125-95,160-47,35-112,52-194,52h-127l-43,206c-2,7-5,13-11,17-6,5-12,7-18,7h-128l1-1Zm332-359c27,0,49-7,69-22s33-35,40-62c2-11,3-20,3-28,0-18-6-32-16-42-11-10-29-15-55-15h-113l-36,168h108v1Z"/></g></g></g></svg>