<?xml version="1.0" encoding="utf-8"?>
<!-- Generator: Adobe Illustrator 28.0.0, SVG Export Plug-In . SVG Version: 6.00 Build 0)  -->
<svg version="1.1" id="Layer_1" xmlns="http://www.w3.org/2000/svg" xmlns:xlink="http://www.w3.org/1999/xlink" x="0px" y="0px"
	 viewBox="0 0 105 105" style="enable-background:new 0 0 105 105;" xml:space="preserve">
<style type="text/css">
	.st0{fill:#ECE8E8;}
</style>
<path class="st0" d="M62.8,81.6c3.2,0,5.8-2.6,5.8-5.8c0-3.2-2.6-5.8-5.8-5.8c-3.2,0-5.8,2.6-5.8,5.8C56.9,79,59.6,81.6,62.8,81.6z"
	/>
<path class="st0" d="M41.9,81.8c3.2,0,5.8-2.6,5.8-5.8c0-3.2-2.6-5.8-5.8-5.8c-3.2,0-5.8,2.6-5.8,5.8C36.1,79.2,38.7,81.8,41.9,81.8
	z"/>
<path class="st0" d="M29.1,21.1H43c2.6,7,9.4,27,9.9,28.1c0.1-0.6,7-22.3,8.9-28h14.4v49.7c-1.8-1-3.6-2-5.5-3.1
	c-1.3-0.7-2.6-1.4-3.9-2c-0.1-9.6-0.2-19.2-0.5-29.2c-1.9,5.8-8.6,26-9.2,26.6h-8.9c0,0-8.7-24.6-9.1-25.7
	c-0.1,9.5-0.2,18.9-0.6,28.7c-5.3,2.7-8.5,4.3-9.5,4.6V21.1H29.1z"/>
<path class="st0" d="M52.5,8.3c24.3,0,44.1,19.8,44.1,44.2c0,24.4-19.8,44.2-44.1,44.2S8.4,76.9,8.4,52.5
	C8.4,28.1,28.1,8.3,52.5,8.3z M52.5,0C23.5,0,0,23.5,0,52.5c0,29,23.5,52.5,52.5,52.5c29,0,52.5-23.5,52.5-52.5
	C105,23.5,81.5,0,52.5,0z"/>
</svg>
