<?xml version="1.0" encoding="utf-8"?>
<!-- Generator: Adobe Illustrator 28.0.0, SVG Export Plug-In . SVG Version: 6.00 Build 0)  -->
<svg version="1.1" id="Layer_1" xmlns="http://www.w3.org/2000/svg" xmlns:xlink="http://www.w3.org/1999/xlink" x="0px" y="0px"
	 viewBox="0 0 585 93" style="enable-background:new 0 0 585 93;" xml:space="preserve">
<style type="text/css">
	.st0{fill:#FFFFFF;}
</style>
<path class="st0" d="M563.8,28.3c0.6,0,1.1-0.5,1.1-1.1s-0.5-1.1-1.1-1.1c-0.6,0-1.1,0.5-1.1,1.1S563.1,28.3,563.8,28.3z"/>
<path class="st0" d="M559.2,28.3c0.6,0,1.1-0.5,1.1-1.1s-0.5-1.1-1.1-1.1c-0.6,0-1.1,0.5-1.1,1.1S558.6,28.3,559.2,28.3z"/>
<path class="st0" d="M555.8,13.5h3.3c0.6,1.8,2.3,6.8,2.4,7.1c0-0.1,1.7-5.6,2.1-7h3.5V26c-0.4-0.2-0.9-0.5-1.3-0.8
	c-0.3-0.2-0.6-0.4-1-0.5c0-2.4-0.1-4.8-0.1-7.3c-0.5,1.4-2.1,6.5-2.2,6.7h-2.1c0,0-2.1-6.2-2.2-6.5c0,2.4-0.1,4.8-0.1,7.2
	c-1.3,0.7-2,1.1-2.3,1.2L555.8,13.5L555.8,13.5z"/>
<path class="st0" d="M561.5,11c5.8,0,10.5,4.7,10.5,10.5c0,5.8-4.7,10.5-10.5,10.5S551,27.3,551,21.5C551,15.7,555.7,11,561.5,11z
	 M561.5,9c-6.9,0-12.5,5.6-12.5,12.5S554.6,34,561.5,34c6.9,0,12.5-5.6,12.5-12.5S568.4,9,561.5,9z"/>
<path class="st0" d="M91.7,21.4v52.5H63.1V56.3l-8.8,10.5l-8.7-10.4v17.4H17V21.4h28.6v0.1l8.7,10.4l8.8-10.5v0L91.7,21.4L91.7,21.4
	z"/>
<path class="st0" d="M125.9,31.8v10.5h37.3v10.5h-37.3v10.5h37.3v10.5H97.4V21.3h65.9v10.5H125.9z"/>
<path class="st0" d="M234.8,21.3v10.5H203c-1.5,0-2.8,0.5-3.8,1.6c-1.1,1-1.6,2.3-1.6,3.7c0,0,0,7.3,0,21.8c0,1.3,0.5,2.4,1.5,3.2
	c0.9,0.8,2.1,1.1,3.6,1.2h3.8V42.4h28.6v31.5h-59.9c-1.6,0-3-0.6-4.2-1.7c-1.2-1.1-1.8-2.4-1.8-4V27.1c0-1.6,0.6-2.9,1.8-4
	c1.2-1.1,2.6-1.7,4.2-1.7L234.8,21.3L234.8,21.3z"/>
<path class="st0" d="M284.5,63.4h-13.2l-2.2,10.5h-28.5l11-52.5h52.7l11,52.5h-28.5L284.5,63.4L284.5,63.4z M282.3,52.9l-4.4-21
	l-4.4,21H282.3z"/>
<path class="st0" d="M349.5,31.8v10.5h37.3v10.5h-37.3v10.5h37.3v10.5h-65.9V21.3h65.9v10.5H349.5z"/>
<path class="st0" d="M458.4,31.8h-18.7v42h-28.5v-42h-18.7V21.3h65.9V31.8z"/>
<path class="st0" d="M538.7,21.3v52.5h-28.5v-21h-17.6v21h-28.5V21.3h28.5v21h17.6v-21H538.7z"/>
</svg>
