<svg width="139" height="178" viewBox="-21 -27 181 232" fill="none" xmlns="http://www.w3.org/2000/svg">
<path d="M100.004 178C109.381 178 117 170.379 117 161C117 151.621 109.381 144 100.004 144C90.6268 144 83.0079 151.621 83.0079 161C82.7149 170.379 90.6268 178 100.004 178Z" fill="white"/>
<path d="M38 178C47.3793 178 55 170.379 55 161C55 151.621 47.3793 144 38 144C28.6207 144 21 151.621 21 161C21 170.379 28.6207 178 38 178Z" fill="white"/>
<path d="M0.294493 0H41.2288C48.8856 20.5221 68.911 79.1566 70.3835 82.3815C70.678 80.6225 90.9979 17.004 96.5932 0.293174H139V146C133.699 143.068 128.398 140.137 122.803 136.912C118.975 134.859 115.146 132.807 111.318 131.048C111.023 102.904 110.729 74.759 109.845 45.4418C104.25 62.4458 84.5191 121.667 82.7521 123.426H56.5424C56.5424 123.426 30.9216 51.3052 29.7436 48.0803C29.4492 75.9317 29.1547 103.49 27.9767 132.221C12.3686 140.137 2.94492 144.827 0 145.707V0H0.294493Z" fill="white"/>
</svg>
