<svg width="220" height="220" viewBox="0 0 220 220" fill="none" xmlns="http://www.w3.org/2000/svg">
<path d="M22.0014 35.8249C22.0014 31.089 22.0014 28.7224 22.8941 26.9C23.7486 25.1554 25.1582 23.7459 26.9027 22.8914C28.7238 22 31.0904 22 35.8263 22H183.175C187.91 22 190.279 22 192.1 22.8928C193.843 23.7473 195.253 25.1568 196.109 26.9013C197 28.7224 197 31.0904 197 35.8263V183.175C197 187.91 197 190.279 196.109 192.1C195.253 193.843 193.843 195.253 192.1 196.109C190.279 197 187.91 197 183.175 197H35.8263C31.0904 197 28.7238 197 26.9013 196.109C25.1568 195.253 23.7473 193.843 22.8928 192.1C22 190.279 22 187.91 22 183.175V35.8249H22.0014Z" fill="white"/>
</svg>
