<svg xmlns="http://www.w3.org/2000/svg" viewBox="0 0 2379.2 2379.2"><defs><clipPath id="a"><circle cx="1189.6" cy="1189.6" r="898.4" fill="none"/></clipPath></defs><g clip-path="url(#a)"><path fill="#fff" d="M597.8 569c169.5 168.2 440.7 311.7 768.3 410-171.1-96.2-329.8-215.9-468.8-354.2-51.6-51.4-101.3-106.1-147.7-162.7l-32.3-39.4c-54.2 33.2-104.5 72.2-150.3 115.7l30.8 30.5Zm-308.2 685.3c13.2 184.3 82 353.2 189.9 490.1l28.1-27.8c105-103.6 241.8-197.7 406.6-279.8 144.6-72 310.6-133.7 489.4-182.6h-1114ZM1366 1400c-327.6 98.4-598.7 241.8-768.3 410l-30.8 30.5c45.8 43.6 96.1 82.5 150.4 115.7l32.3-39.4c46.4-56.5 96.1-111.3 147.7-162.7 138.9-138.3 297.6-258 468.7-354.2ZM856.1 387.7c41.9 50.6 86.7 99.7 133.1 145.9 293.3 292.2 662.5 485.3 1067.5 558.5l33 6c-46.1-454-431-808.4-899.1-808.4s-246.5 25.9-355.7 72.5l21.1 25.5Zm547.5 737.1c-178.8-48.8-344.7-110.5-489.4-182.6-164.9-82.1-301.7-176.3-406.6-279.8l-28.1-27.7c-107.9 136.9-176.8 305.8-189.9 490.1h1114Zm652.9 162.5c-405 73.2-774 266.3-1067.5 558.5-46.5 46.4-91.3 95.5-133.1 145.9l-21.1 25.5c109.2 46.6 229.3 72.5 355.6 72.5 468 0 852.9-354.3 899-808.3l-33 5.9Z"/></g></svg>