<?xml version="1.0" encoding="UTF-8" standalone="no"?>
<!DOCTYPE svg PUBLIC "-//W3C//DTD SVG 1.1//EN" "http://www.w3.org/Graphics/SVG/1.1/DTD/svg11.dtd">
<svg width="100%" height="100%" viewBox="0 0 78 77" version="1.1" xmlns="http://www.w3.org/2000/svg" xmlns:xlink="http://www.w3.org/1999/xlink" xml:space="preserve" xmlns:serif="http://www.serif.com/" style="fill-rule:evenodd;clip-rule:evenodd;stroke-linejoin:round;stroke-miterlimit:2;">
    <g transform="matrix(1,0,0,1,-112.53,-125.934)">
        <path d="M135.439,125.934L130.795,125.934L120.734,143.852L135.439,125.934Z" style="fill:rgb(222,222,222);fill-rule:nonzero;"/>
        <path d="M142.139,125.934L135.439,125.934L137.6,143.852L142.139,125.934Z" style="fill:rgb(238,238,238);fill-rule:nonzero;"/>
        <path d="M164.635,143.852L160.097,125.934L151.117,125.934L164.633,143.852L164.635,143.852Z" style="fill:rgb(222,222,222);fill-rule:nonzero;"/>
        <path d="M166.797,125.934L160.097,125.934L164.635,143.852L166.797,125.934Z" style="fill:rgb(238,238,238);fill-rule:nonzero;"/>
        <path d="M151.117,125.934L142.139,125.934L137.6,143.852L151.117,125.934Z" style="fill:rgb(222,222,222);fill-rule:nonzero;"/>
        <path d="M171.441,125.934L166.797,125.934L181.501,143.852L171.441,125.934Z" style="fill:rgb(213,213,213);fill-rule:nonzero;"/>
        <path d="M181.502,143.852L174.957,125.939L174.952,125.934L171.441,125.934L181.501,143.852L181.502,143.852Z" style="fill:rgb(171,171,171);fill-rule:nonzero;"/>
        <path d="M120.734,143.852L130.795,125.934L127.281,125.934L120.734,143.852Z" style="fill:rgb(238,238,238);fill-rule:nonzero;"/>
        <path d="M181.5,143.854L168.24,162.586L151.128,202.528L177.399,162.571L181.501,143.857L181.503,143.854L181.5,143.854Z" style="fill:rgb(109,109,109);fill-rule:nonzero;"/>
        <path d="M164.634,143.854L164.631,143.854L151.117,163.98L151.117,202.545L151.128,202.528L168.24,162.586L164.634,143.854Z" style="fill:rgb(147,147,147);fill-rule:nonzero;"/>
        <path d="M137.602,143.854L137.6,143.854L133.995,162.584L151.116,202.547L151.117,202.545L151.117,163.98L137.602,143.854Z" style="fill:rgb(166,166,166);fill-rule:nonzero;"/>
        <path d="M120.736,143.854L120.733,143.854L124.838,162.577L124.845,162.584L151.114,202.55L151.116,202.547L133.995,162.584L120.736,143.854Z" style="fill:rgb(185,185,185);fill-rule:nonzero;"/>
        <path d="M112.53,143.854L124.838,162.577L120.733,143.854L112.53,143.854Z" style="fill:rgb(192,192,192);fill-rule:nonzero;"/>
        <path d="M168.24,162.586L181.5,143.854L164.634,143.854L168.24,162.586Z" style="fill:rgb(131,131,131);fill-rule:nonzero;"/>
        <path d="M181.501,143.852L166.797,125.934L164.635,143.852L181.501,143.852Z" style="fill:rgb(171,171,171);fill-rule:nonzero;"/>
        <path d="M164.633,143.852L151.117,125.934L137.6,143.852L164.633,143.852Z" style="fill:rgb(192,192,192);fill-rule:nonzero;"/>
        <path d="M133.995,162.584L137.6,143.854L120.736,143.854L133.995,162.584Z" style="fill:rgb(199,199,199);fill-rule:nonzero;"/>
        <path d="M137.6,143.852L135.439,125.934L120.734,143.852L137.6,143.852Z" style="fill:rgb(213,213,213);fill-rule:nonzero;"/>
        <path d="M127.281,125.934L112.532,143.852L120.734,143.852L127.281,125.934Z" style="fill:rgb(213,213,213);fill-rule:nonzero;"/>
        <path d="M189.703,143.852L182.977,135.68L174.957,125.939L181.502,143.852L189.703,143.852Z" style="fill:rgb(171,171,171);fill-rule:nonzero;"/>
        <path d="M177.399,162.571L189.703,143.857L181.501,143.857L177.399,162.571Z" style="fill:rgb(132,132,132);fill-rule:nonzero;"/>
        <path d="M151.117,163.98L164.631,143.854L137.602,143.854L151.117,163.98Z" style="fill:rgb(171,171,171);fill-rule:nonzero;"/>
    </g>
</svg>
