<svg xmlns="http://www.w3.org/2000/svg" viewBox="0 0 400 400"><defs><clipPath id="a"><circle cx="200" cy="200" r="200" fill="none"/></clipPath></defs><g clip-path="url(#a)"><path fill="#f0f3fa" d="M0 0h400v400H0V0Z"/><path fill="#056b39" d="M171.78 72.22a9.346 9.346 0 0 1 8.67-5.56h39.11c3.78 0 7.33 2.22 8.89 5.56 1.33 2.89 0 6.44 1.11 9.33 1.11 4 4 7.33 7.78 8.89L250.67 96c4 1.78 8.89 1.33 12.67-.89 2.22-1.33 3.78-4 6.67-5.33 3.5-1.47 7.54-.68 10.22 2l28.89 28.89c2.22 2.67 2.44 6.67.89 10-1.33 2.22-3.78 3.78-5.11 6.22a13.996 13.996 0 0 0-.89 12.44l5.33 13.11c1.56 3.78 5.11 6.67 8.89 8 3.11.89 6.44 0 9.33 1.11 3.33 1.56 5.78 5.11 5.78 8.89v39.11c0 3.56-2.22 7.33-5.56 8.89-2.89 1.33-6.44 0-9.33 1.11-4.01 1.2-7.27 4.14-8.89 8L304 250.88c-1.66 3.96-1.42 8.47.67 12.22 1.56 2.67 4.44 4.22 5.56 6.89 1.56 3.33.67 7.78-2 10.22l-9.56 9.78-55.33-55.56c-3.78-4.44-7.11-9.56-7.33-15.56-.14-2.55.16-5.11.89-7.56l1.33-3.33c3.56-6.67 9.33-11.78 14.67-17.11l6-4c4.67-2.89 8.89-6.89 11.56-11.78a22.16 22.16 0 0 0 2.67-9.33 26.18 26.18 0 0 0-2.22-8c-2.89-5.11-6.89-9.33-12-12l-2.22-.67-3.33-1.33-1.78-.67-.89-.22c-5.11-2.22-9.56-4.89-13.33-8.89-3.7-4.11-8.36-7.24-13.56-9.11-4.38-1.55-9.2-1.23-13.33.89-3.56 1.78-7.56 1.11-10.67-.44-4.44-2-10-2.89-14.67-.67-2.22.89-4 3.11-6 4.44h-1.33c-2.89.89-6 1.11-8.89 1.78l-1.78.44c-4.6 1.61-8.31 5.08-10.22 9.56-.89 3.11-.89 6.67.44 9.78v.89c3.33 7.33 9.11 13.11 14.67 18.67 1.78 1.56 3.11 3.33 4.22 5.33l-.67 1.11c-4.89-3.11-8.89-7.33-12.67-11.11a54.507 54.507 0 0 0-11.78-8l-1.11-.22a13.817 13.817 0 0 0-10.67.44 19.54 19.54 0 0 0-7.33 7.11c-1.78 4-2 8.44-2.89 12.44l-.22 1.11c-1.33 2.89-4 4.67-4.89 7.78l-.67 1.78c-.38 2.98-.15 6 .67 8.89.89 3.33 3.11 6.67 2.67 10.22-.44 2-1.33 3.56-2.22 5.33l-.44 1.78c-.61 3.74-.23 7.57 1.11 11.11 2 4.89 5.78 8.89 9.33 12.67 4.22 4 6.89 9.33 8.89 14.67 1.11 3.56 2.22 7.11 4.67 10.22 2.89 3.33 6.22 6.22 10.22 8.44 3.78 1.56 8 2.22 12 1.11 4.67-1.33 8.89-4.44 12.22-8 3.78-3.78 6-8.89 9.56-13.11 4.22-4 8-8.44 13.11-11.33a22.232 22.232 0 0 1 16.22-3.56c2.89.67 5.78 1.78 8.22 3.56 3.56 2.22 6.67 4.89 9.33 7.78l50.89 50.89-10 9.78a9.326 9.326 0 0 1-10.44 1.56c-2.44-1.11-3.78-3.56-6.22-4.89-3.8-2.38-8.51-2.79-12.67-1.11l-12.89 5.56a13.768 13.768 0 0 0-8.22 8.67c-.22 3.33 0 7.11-1.33 10.44a13.006 13.006 0 0 1-4 3.78l-1.78.89h-41.78a9.548 9.548 0 0 1-9.33-6.89c-.44-2.89 0-6-.89-8.89a13.966 13.966 0 0 0-7.56-8l-13.33-5.56a13.993 13.993 0 0 0-12.67 1.11c-2.44 1.33-4 4-6.67 5.11a9.315 9.315 0 0 1-10.44-2l-27.56-27.56a9.318 9.318 0 0 1-2.44-9.78c.44-2.22 2.22-3.56 3.56-4.89a13.78 13.78 0 0 0 2.89-15.56c-1.8-4.21-3.58-8.44-5.33-12.67-2.1-5.27-7.22-8.71-12.89-8.67-1.78 0-3.78 0-5.56-.67a9.334 9.334 0 0 1-5.56-8.44v-39.56c0-3.78 2.22-7.56 5.78-8.89 2.89-1.11 6 0 8.89-.89 4.22-1.13 7.68-4.17 9.33-8.22l5.33-12.89c1.75-4.12 1.42-8.83-.89-12.67-1.33-2.44-4-4-5.33-6.67a9.341 9.341 0 0 1 2.22-10.67l27.78-27.78a9.318 9.318 0 0 1 10.44-2c2.67 1.33 4 4 6.67 5.33 3.56 2.22 8.44 2.67 12.44.89l13.33-5.56c3.78-1.56 6.67-5.11 7.78-9.11.89-3.11 0-6.22 1.33-8.89v-.22Z"/></g></svg>