<svg version="1.1" id="Layer_1" xmlns="http://www.w3.org/2000/svg" xmlns:xlink="http://www.w3.org/1999/xlink" x="0px" y="0px"
	 width="100%" viewBox="0 0 528 528" enable-background="new 0 0 528 528" xml:space="preserve">
<path fill="#030203" opacity="1.000000" stroke="none" 
	d="
M1.000000,201.000000 
	C1.000000,135.348755 1.030857,70.197464 0.910532,5.046438 
	C0.904398,1.725264 1.432754,0.897435 4.951900,0.899759 
	C178.244125,1.014188 351.536438,1.017346 524.828674,0.886987 
	C528.651611,0.884111 529.080261,1.938788 529.078491,5.326783 
	C528.989319,178.452423 528.987854,351.578125 529.086243,524.703735 
	C529.088196,528.180725 528.533569,529.109192 524.798157,529.106506 
	C351.672546,528.983948 178.546844,528.983276 5.421265,529.105469 
	C1.495918,529.108276 0.910886,528.028076 0.914413,524.423279 
	C1.019719,416.782257 1.000000,309.141113 1.000000,201.000000 
z"/>
<path fill="#5A02FC" opacity="1.000000" stroke="none" 
	d="
M261.007141,24.124786 
	C261.406708,22.080841 261.671234,20.431955 262.100952,18.827312 
	C263.475403,13.694996 268.755981,10.069131 273.829376,10.710373 
	C279.319885,11.404331 283.774170,16.151251 283.052002,21.815283 
	C281.961060,30.372110 279.983856,38.812588 278.513306,47.324970 
	C272.457428,82.379059 266.142548,117.385963 262.933685,152.873672 
	C261.493561,168.800507 260.070496,184.689835 260.013092,200.703049 
	C259.964447,214.271805 264.092224,226.917984 267.755280,239.686691 
	C269.675476,246.380173 271.938538,252.975281 274.311646,260.449097 
	C278.084137,256.046204 281.329865,252.161957 284.677246,248.367371 
	C302.755066,227.874222 321.393890,207.875854 340.575134,188.439560 
	C356.812378,171.986389 367.427368,152.860672 373.927917,130.860657 
	C380.332733,109.184662 387.697876,87.791443 394.707977,66.295776 
	C397.308533,58.321491 404.782349,55.326031 411.184875,59.634460 
	C415.704315,62.675705 416.683807,67.275291 415.187500,72.027802 
	C405.041992,104.252098 395.527832,136.711258 382.729797,168.016479 
	C378.481171,178.409088 370.290405,186.430557 363.038422,194.883133 
	C358.917725,199.685989 354.521332,204.251801 350.278534,208.950912 
	C349.641205,209.656784 348.704865,210.393524 349.186584,211.514435 
	C349.685089,212.674500 350.879150,212.402802 351.809204,212.359985 
	C373.590759,211.356735 395.368622,210.409683 416.967682,207.029877 
	C426.443634,205.547089 433.206848,199.682739 440.003418,193.832870 
	C452.763092,182.850540 464.613892,170.894257 476.606842,159.094818 
	C480.308167,155.453201 484.523956,155.163696 488.969940,157.442444 
	C493.118652,159.568832 495.185089,164.222763 494.163300,168.859863 
	C493.610748,171.367279 492.238739,173.454651 490.426086,175.238373 
	C475.352631,190.071304 460.582855,205.214767 443.798920,218.216980 
	C435.220123,224.862839 425.181122,226.748566 414.956696,228.256653 
	C386.904266,232.394348 358.611145,233.241394 330.332306,234.230072 
	C328.307159,234.300873 326.488892,234.423950 324.925446,236.126373 
	C311.410583,250.842499 297.746368,265.419434 285.512878,281.261536 
	C283.156403,284.313110 282.691345,287.058655 283.801788,290.837524 
	C289.504608,310.244843 292.495911,330.170929 292.857483,350.346283 
	C293.053619,361.290375 291.522491,372.266266 290.745880,383.226074 
	C290.629150,384.873199 290.377502,386.510742 290.135132,388.613770 
	C293.061371,387.733490 294.337219,385.509338 295.914978,383.794067 
	C316.332703,361.597961 337.001343,339.649506 358.450134,318.434082 
	C367.299713,309.680756 378.040619,304.115356 389.098938,299.111511 
	C425.240601,282.757446 462.530243,269.459717 500.508026,258.067902 
	C506.678009,256.217163 512.572449,259.236816 514.177063,264.751709 
	C515.972534,270.922485 512.984253,276.403778 506.607697,278.335663 
	C472.552582,288.653137 439.282318,301.070282 406.381378,314.628662 
	C387.136230,322.559570 370.989258,334.203064 357.457184,349.782135 
	C357.058899,350.240692 356.788910,350.810638 356.540100,351.201447 
	C364.395569,351.201447 372.115631,351.464111 379.812408,351.151855 
	C402.304810,350.239410 424.793304,350.518768 447.284515,350.980591 
	C457.612976,351.192657 467.939789,351.489441 478.266266,351.786011 
	C480.259552,351.843262 482.270721,351.936768 484.234039,352.256683 
	C490.562469,353.287903 494.046448,357.572906 493.659393,363.676178 
	C493.310486,369.177917 488.975403,373.318115 482.907776,373.318878 
	C474.079773,373.320007 465.250122,373.001831 456.423950,372.729401 
	C416.261292,371.489746 376.133759,371.864563 336.057343,375.096558 
	C333.893921,375.270996 332.284912,375.923431 330.842712,377.490967 
	C317.082489,392.446747 303.286102,407.369202 289.513306,422.313416 
	C288.750397,423.141144 287.403564,423.879425 287.766815,425.130096 
	C288.233337,426.736420 289.972687,426.322449 291.189880,426.486572 
	C306.369995,428.533966 321.551971,430.571381 336.749512,432.483734 
	C340.616028,432.970276 344.143646,434.422882 347.752228,435.660156 
	C365.069977,441.597900 382.366547,447.597229 399.674194,453.564484 
	C402.704956,454.609406 405.673462,455.798584 407.342621,458.758514 
	C409.684814,462.911896 409.679291,467.221344 406.766327,470.972382 
	C403.897949,474.666016 399.860687,476.250244 395.202820,474.665131 
	C383.227783,470.589813 371.086975,466.896698 359.398804,462.107727 
	C341.460876,454.758179 322.762268,451.357513 303.657837,449.410828 
	C298.026184,448.836945 292.396912,448.153442 286.812042,447.241669 
	C283.746643,446.741180 282.713440,447.842651 282.295258,450.746887 
	C279.972443,466.878387 277.531738,482.993225 275.060394,499.102875 
	C274.557678,502.379730 273.831543,505.629059 273.067505,508.857697 
	C271.567596,515.195862 265.966705,519.160522 260.267120,518.023926 
	C254.284134,516.830811 250.664017,511.453888 251.989410,504.758545 
	C255.384918,487.605774 257.716125,470.289154 260.388855,453.023834 
	C261.322815,446.990509 261.384521,446.833130 255.533554,447.634369 
	C210.022079,453.866730 164.247772,454.872742 118.408264,454.697693 
	C112.078369,454.673523 105.743286,455.054504 99.418442,454.908508 
	C92.055405,454.738556 87.598328,450.483978 87.653412,444.165375 
	C87.707138,438.003143 92.536201,433.775726 99.747993,433.664062 
	C126.904968,433.243591 154.061783,432.806793 181.219650,432.451599 
	C202.578629,432.172241 223.724792,429.382782 244.926178,427.228973 
	C250.062164,426.707214 255.186508,426.007843 260.334717,425.694427 
	C263.255951,425.516632 264.387360,424.242920 264.690277,421.460724 
	C265.644684,412.693848 266.711823,403.938293 267.834900,395.191162 
	C268.191315,392.414948 267.516815,390.707214 264.824493,389.208893 
	C252.615875,382.414734 240.496246,375.451202 228.515289,368.264099 
	C225.550247,366.485443 222.780838,366.873474 219.891037,367.362396 
	C199.543884,370.804626 179.134689,373.783051 158.601135,375.874878 
	C151.599838,376.588135 144.755035,376.389160 137.860321,374.355682 
	C107.040787,365.265900 77.405968,352.948547 47.431458,341.553375 
	C39.039970,338.363281 30.621744,335.240326 22.274101,331.939117 
	C16.619587,329.703003 13.869590,325.316864 14.423756,319.952087 
	C14.936255,314.990692 17.965704,312.188904 22.525091,310.945221 
	C26.149763,309.956482 29.414827,311.666290 32.650261,312.906158 
	C57.368004,322.378418 82.009491,332.052338 106.786110,341.367126 
	C118.621155,345.816528 130.703430,349.607147 142.663147,353.726898 
	C145.876602,354.833832 149.257706,355.127625 152.533478,354.975555 
	C166.339050,354.334595 179.974121,352.192444 194.129196,350.024139 
	C191.651764,346.391266 187.993423,345.375153 185.007675,343.583252 
	C175.596863,337.935455 165.985474,332.622986 156.488190,327.117828 
	C148.146973,322.282806 143.362152,313.975159 137.367599,306.933868 
	C111.141090,276.127655 85.182014,245.093735 59.139954,214.130630 
	C49.173618,202.280991 39.220509,190.420044 29.309645,178.524033 
	C24.656672,172.939056 24.756359,167.038162 29.425777,163.009842 
	C34.287464,158.815643 41.238632,159.627716 45.799637,165.032150 
	C59.974445,181.828201 74.124535,198.645187 88.261833,215.472855 
	C113.638596,245.678925 139.001434,275.896698 164.358398,306.119415 
	C165.451233,307.421967 166.769913,308.362579 168.235306,309.200256 
	C200.749802,327.786560 233.248947,346.399719 265.756683,364.997833 
	C270.686859,367.818451 270.586151,367.788879 270.933350,361.825653 
	C272.657379,332.215332 265.944061,303.999969 256.905457,276.158325 
	C251.928329,260.827271 246.325989,245.684296 242.723236,229.937897 
	C242.060623,227.041916 239.983047,226.018707 237.748398,224.853928 
	C214.144287,212.550781 190.762344,199.878204 168.288376,185.548508 
	C157.443161,178.633438 150.528122,168.726852 144.477402,157.876846 
	C129.616165,131.228088 117.468178,103.288185 105.241806,75.388229 
	C102.537682,69.217560 104.754349,63.033569 110.230911,60.593018 
	C116.025642,58.010685 121.681061,60.140022 124.622040,66.508385 
	C132.430115,83.415871 140.020050,100.423965 147.741776,117.371529 
	C150.262589,122.904205 150.540329,122.862137 154.315125,118.211342 
	C161.239151,109.680466 168.113449,101.103157 175.274750,92.774147 
	C177.859024,89.768509 178.854965,86.756256 178.708710,82.835518 
	C178.093735,66.351006 177.674942,49.858192 177.318756,33.365513 
	C177.186707,27.250355 179.934692,23.475582 185.069870,21.987703 
	C191.312332,20.178997 197.636230,24.401672 198.276062,31.226471 
	C198.850449,37.353153 198.921722,43.530869 199.107574,49.689316 
	C199.514648,63.177746 199.789261,76.670479 200.259369,90.156525 
	C200.401978,94.247559 199.039352,97.507614 196.449356,100.613159 
	C185.363220,113.905968 174.461304,127.352554 163.352890,140.626465 
	C161.525253,142.810364 161.702774,144.417496 162.800751,146.842087 
	C168.730240,159.935959 179.174133,168.378479 191.328827,175.121628 
	C205.729965,183.111038 220.193253,190.989349 234.544876,199.066391 
	C237.841339,200.921631 238.721115,200.437546 238.748779,196.621292 
	C239.052856,154.680740 245.412445,113.386894 252.347641,72.168915 
	C255.024307,56.260670 258.070099,40.414532 261.007141,24.124786 
z"/>
<path fill="#F98302" opacity="1.000000" stroke="none" 
	d="
M464.813629,256.709106 
	C453.922546,259.427277 443.439667,262.086426 432.924622,264.611572 
	C426.169586,266.233795 420.457153,262.953400 418.969391,256.802185 
	C417.632812,251.276062 421.048584,245.631943 427.317596,244.032654 
	C451.502228,237.862885 475.718048,231.812164 499.965668,225.894806 
	C506.025940,224.415863 511.510559,228.043579 513.029236,233.872086 
	C514.487915,239.470703 511.085419,245.098831 504.914520,246.688171 
	C491.704956,250.090347 478.446594,253.303040 464.813629,256.709106 
z"/>
<path fill="#F98402" opacity="1.000000" stroke="none" 
	d="
M425.794678,338.535767 
	C417.987549,338.915161 413.297546,335.283081 412.798706,328.862122 
	C412.333832,322.877991 416.575684,318.019043 423.335968,317.251801 
	C446.824066,314.586151 470.320160,311.988190 493.824677,309.471497 
	C501.099915,308.692474 506.385345,312.749908 507.054565,319.241241 
	C507.681854,325.325806 503.224823,330.377991 496.233887,331.128296 
	C472.902771,333.632446 449.560730,336.035095 425.794678,338.535767 
z"/>
<path fill="#F82A83" opacity="1.000000" stroke="none" 
	d="
M217.087128,409.042419 
	C200.584854,410.771820 184.537155,412.468323 168.489059,414.161072 
	C164.925323,414.536987 161.434143,414.365356 158.567322,411.901276 
	C155.128418,408.945374 153.700714,405.163055 154.897141,400.709686 
	C156.141434,396.078125 159.291321,393.211090 164.032791,392.637421 
	C174.435394,391.378693 184.863754,390.328491 195.287308,389.248260 
	C206.539841,388.082123 217.796829,386.957855 229.055832,385.855652 
	C236.109695,385.165039 240.971664,388.824554 241.830872,395.382751 
	C242.639969,401.558533 238.391708,406.548553 231.428391,407.452209 
	C226.809921,408.051605 222.171188,408.494965 217.087128,409.042419 
z"/>
<path fill="#F82A83" opacity="1.000000" stroke="none" 
	d="
M208.229431,316.755554 
	C199.987244,312.011505 192.014572,307.528778 184.141647,302.877228 
	C177.786560,299.122437 176.018509,292.901550 179.480301,287.256561 
	C182.818451,281.813171 188.924820,280.528687 195.146790,284.094727 
	C211.738525,293.604034 228.311783,303.145752 244.869156,312.714752 
	C251.638489,316.626923 253.806152,322.778290 250.548721,328.486023 
	C247.345978,334.097900 240.712875,335.392059 234.056992,331.606262 
	C225.530533,326.756561 217.045120,321.834686 208.229431,316.755554 
z"/>
<path fill="#FB8402" opacity="1.000000" stroke="none" 
	d="
M303.877319,44.854965 
	C305.040009,38.539799 306.070404,32.634239 307.284698,26.766743 
	C308.739838,19.735384 314.177582,15.732121 320.526947,16.839659 
	C326.424072,17.868311 329.843750,23.679838 328.539368,30.741020 
	C325.060516,49.573448 321.542725,68.398819 317.978302,87.215233 
	C316.604828,94.465805 311.798645,98.236916 305.476471,97.236099 
	C298.728119,96.167816 295.344055,91.128853 296.685669,83.577957 
	C298.957275,70.793144 301.435272,58.044994 303.877319,44.854965 
z"/>
<path fill="#FA8402" opacity="1.000000" stroke="none" 
	d="
M74.529518,258.485229 
	C75.835930,259.798004 76.967575,260.796143 77.927711,261.938416 
	C81.848930,266.603394 81.780731,272.871063 77.824669,276.870392 
	C73.912231,280.825623 67.761765,281.438019 63.388683,277.282349 
	C48.556297,263.187469 33.916775,248.883545 19.457602,234.405762 
	C15.078096,230.020584 15.820205,223.348145 20.272987,219.211273 
	C24.449043,215.331528 30.616257,215.435776 35.082767,219.781281 
	C48.201164,232.544266 61.218792,245.410828 74.529518,258.485229 
z"/>
<path fill="#F92A83" opacity="1.000000" stroke="none" 
	d="
M233.794312,106.807762 
	C234.037048,118.727844 232.327515,130.124084 231.802536,141.595367 
	C231.406921,150.240356 230.637054,158.870178 229.929352,167.498169 
	C229.538361,172.264755 227.701233,176.140488 222.893997,178.089706 
	C218.931900,179.696228 215.384796,179.020203 212.107361,176.492035 
	C209.107941,174.178314 207.775253,171.013626 208.032883,167.293503 
	C209.402176,147.522049 210.738098,127.747322 212.306076,107.991234 
	C212.731644,102.629059 216.915939,98.854599 222.121750,98.186714 
	C227.246368,97.529259 231.125549,100.281105 233.794312,106.807762 
z"/>
<path fill="#F92A83" opacity="1.000000" stroke="none" 
	d="
M347.011230,278.776215 
	C353.452332,276.429840 357.961395,277.481659 361.168640,281.810455 
	C364.228760,285.940582 363.925659,291.327148 360.054291,296.039978 
	C348.318115,310.327087 336.544830,324.584534 324.677338,338.762573 
	C320.122620,344.204071 313.596283,345.005157 308.785736,341.057831 
	C304.211823,337.304779 303.132111,330.601227 307.022400,325.845215 
	C319.465393,310.633179 332.155182,295.622986 344.772217,280.553680 
	C345.295502,279.928680 346.045197,279.493164 347.011230,278.776215 
z"/>
<path fill="#F82A83" opacity="1.000000" stroke="none" 
	d="
M298.886383,209.888367 
	C297.322540,211.861099 296.096283,213.667969 294.605194,215.220474 
	C290.387238,219.612213 284.226593,220.078217 279.741394,216.476410 
	C275.325775,212.930481 274.238678,206.552307 277.708618,201.683685 
	C282.341431,195.183456 287.331665,188.937332 292.189575,182.598297 
	C298.768188,174.013885 305.336243,165.421036 311.970764,156.879913 
	C315.006073,152.972305 319.000732,151.330048 323.886383,152.667511 
	C328.356567,153.891235 330.815613,157.083481 331.686920,161.507660 
	C332.428131,165.271317 330.662567,168.270523 328.483276,171.120270 
	C318.679016,183.940674 308.894623,196.776260 298.886383,209.888367 
z"/>
<path fill="#F98302" opacity="1.000000" stroke="none" 
	d="
M439.426880,121.512154 
	C435.394958,131.592010 431.663544,141.382339 427.570831,151.019241 
	C424.219849,158.909592 416.079620,160.981308 410.151031,155.751785 
	C406.629272,152.645279 405.593719,148.571274 407.203339,144.415451 
	C414.106110,126.593224 421.167694,108.829819 428.430176,91.151268 
	C430.621338,85.817513 436.489532,83.825386 441.862610,85.832283 
	C447.192627,87.823105 450.084595,93.483772 448.074982,99.322006 
	C445.534821,106.701454 442.431519,113.887054 439.426880,121.512154 
z"/>
<path fill="#F98302" opacity="1.000000" stroke="none" 
	d="
M144.597656,409.826385 
	C143.162231,416.365723 140.321503,419.475342 134.222168,419.874298 
	C115.956314,421.069000 97.674103,422.076538 79.384323,422.808197 
	C73.032951,423.062317 68.615578,418.261078 68.521851,412.187653 
	C68.432938,406.426239 72.520538,401.799561 78.746971,401.409332 
	C96.851456,400.274750 114.965721,399.259613 133.087692,398.458862 
	C140.061951,398.150696 143.603943,401.847687 144.597656,409.826385 
z"/>
<path fill="#F98302" opacity="1.000000" stroke="none" 
	d="
M109.626572,125.324036 
	C113.393852,132.017929 117.067871,138.344040 120.522575,144.787720 
	C123.792877,150.887451 122.323242,157.002625 117.107712,160.020523 
	C111.854744,163.060059 105.531837,161.423889 102.112701,155.521591 
	C93.032112,139.846237 84.118378,124.071861 75.338257,108.226059 
	C72.183540,102.532631 74.000969,96.728348 79.323143,93.583763 
	C84.503441,90.523010 90.429909,91.928909 93.909935,97.707542 
	C99.309166,106.673050 104.283211,115.894608 109.626572,125.324036 
z"/>
<path fill="#FB8402" opacity="1.000000" stroke="none" 
	d="
M215.599152,66.480545 
	C216.418060,52.734539 217.148743,39.452309 218.012466,26.178732 
	C218.385437,20.446962 221.312897,16.587946 225.938004,15.261179 
	C230.860306,13.849159 234.729416,15.420488 237.760269,19.435263 
	C239.587753,21.856010 239.855484,24.661522 239.683914,27.495731 
	C238.639267,44.751553 237.596252,62.008125 236.399002,79.253777 
	C235.851364,87.142021 231.217178,91.634857 224.617020,91.146027 
	C218.444992,90.688904 214.601746,85.526611 214.875900,77.899399 
	C215.007248,74.245338 215.329224,70.598129 215.599152,66.480545 
z"/>
<path fill="#F98302" opacity="1.000000" stroke="none" 
	d="
M249.010986,473.470642 
	C247.660751,478.317566 244.574554,480.658173 240.211853,481.874664 
	C223.854156,486.435760 207.549515,491.187195 191.190170,495.742279 
	C183.734344,497.818237 178.134506,495.074402 176.357086,488.802399 
	C174.605804,482.622528 178.083221,477.056641 185.260178,474.987854 
	C201.417740,470.330353 217.589508,465.719238 233.795090,461.232300 
	C243.170883,458.636322 249.133591,463.361115 249.010986,473.470642 
z"/>
<path fill="#F92A83" opacity="1.000000" stroke="none" 
	d="
M298.069794,166.850937 
	C294.293945,173.311508 289.226959,175.504990 283.896484,173.303055 
	C278.223877,170.959824 275.907928,165.691483 277.782684,158.817535 
	C282.156250,142.781693 286.589020,126.761620 291.088135,110.760559 
	C293.010223,103.924683 298.583862,100.390755 304.542847,101.980133 
	C310.834930,103.658340 314.038940,109.487335 312.118652,116.536118 
	C307.575104,133.213943 302.839386,149.839432 298.069794,166.850937 
z"/>
<path fill="#F72A82" opacity="1.000000" stroke="none" 
	d="
M235.362869,239.187347 
	C237.126755,244.578613 236.629761,249.177368 232.234940,252.600174 
	C228.000977,255.897644 223.573868,255.101730 219.112167,252.795319 
	C205.060822,245.531647 190.956696,238.370071 176.905716,231.105682 
	C172.310913,228.730164 169.976273,224.886551 170.631241,219.661606 
	C171.227753,214.902847 174.058746,211.855927 178.633163,210.422394 
	C181.526337,209.515732 184.245285,210.100494 186.836624,211.440125 
	C201.184677,218.857468 215.521240,226.297012 229.859207,233.733871 
	C232.127670,234.910507 233.993591,236.518616 235.362869,239.187347 
z"/>
<path fill="#F98302" opacity="1.000000" stroke="none" 
	d="
M403.322205,405.899048 
	C396.641235,403.387299 393.619171,398.366394 395.086700,392.763794 
	C396.590607,387.022339 401.816559,383.920837 408.288513,385.130798 
	C424.460052,388.153992 440.622467,391.227234 456.774506,394.352844 
	C461.634186,395.293213 464.856506,398.157104 465.753174,403.160583 
	C466.605621,407.917389 464.851471,411.664154 460.824860,414.271759 
	C457.636658,416.336334 454.156372,415.853912 450.677551,415.172211 
	C435.023468,412.104675 419.366211,409.053467 403.322205,405.899048 
z"/>
<path fill="#F82A83" opacity="1.000000" stroke="none" 
	d="
M233.552673,295.546509 
	C229.382111,294.519897 226.248016,292.240906 222.909271,290.404144 
	C211.686707,284.230255 200.466568,278.050262 189.316360,271.747253 
	C182.885849,268.112183 180.977173,261.885773 184.288498,256.200317 
	C187.584335,250.541428 193.460068,249.095062 199.820602,252.590378 
	C213.088623,259.881592 226.328674,267.224792 239.524368,274.645935 
	C245.126343,277.796478 247.287811,282.632019 245.798874,287.910156 
	C244.349823,293.046906 240.421906,295.607849 233.552673,295.546509 
z"/>
<path fill="#F72B83" opacity="1.000000" stroke="none" 
	d="
M383.925049,394.387238 
	C386.047729,402.573944 382.949646,407.967072 375.204926,409.580078 
	C360.536102,412.635193 345.833740,415.530518 331.134735,418.438812 
	C324.093231,419.832031 318.962097,416.714874 317.465057,410.274475 
	C316.056824,404.215942 319.769196,398.587250 326.630249,397.101746 
	C338.180847,394.600922 349.794220,392.390137 361.380707,390.054962 
	C364.318207,389.462921 367.257324,388.878326 370.189667,388.261719 
	C376.063843,387.026581 380.709534,388.657928 383.925049,394.387238 
z"/>
<path fill="#F72A83" opacity="1.000000" stroke="none" 
	d="
M167.179214,279.765686 
	C161.434982,281.323853 157.440872,279.239197 154.149826,275.114319 
	C145.236877,263.943268 136.241165,252.838058 127.355553,241.645386 
	C122.602272,235.657974 123.118645,229.259415 128.509491,224.969269 
	C133.327820,221.134705 139.730835,222.098999 144.287766,227.690414 
	C153.525772,239.025589 162.687408,250.425323 171.722443,261.922699 
	C176.966095,268.595398 175.229935,275.467529 167.179214,279.765686 
z"/>
<path fill="#F98302" opacity="1.000000" stroke="none" 
	d="
M53.511314,365.928833 
	C66.672722,367.152557 79.068863,370.419830 91.672783,372.511444 
	C94.785965,373.028107 97.900307,373.582367 100.970337,374.305206 
	C107.636681,375.874847 111.213219,380.828186 110.248985,386.958649 
	C109.331871,392.789520 103.798294,396.778625 97.230751,395.600739 
	C82.517914,392.961945 67.845711,390.078552 53.207783,387.049194 
	C47.510914,385.870209 44.335796,381.724854 44.290977,376.534821 
	C44.246231,371.353455 47.019760,368.037720 53.511314,365.928833 
z"/>
<path fill="#F98402" opacity="1.000000" stroke="none" 
	d="
M337.346008,84.161301 
	C341.824646,81.241264 346.085724,80.811760 350.215210,83.844391 
	C354.497803,86.989433 355.505005,91.379730 354.143585,96.323364 
	C350.251648,110.456017 346.365662,124.591507 342.296753,138.673691 
	C340.441162,145.095734 334.820892,148.119354 328.743958,146.396484 
	C322.964142,144.757828 319.886780,139.342682 321.578644,133.040833 
	C325.419159,118.735893 329.470428,104.487602 333.412170,90.209702 
	C334.051147,87.895210 335.137421,85.900795 337.346008,84.161301 
z"/>
<path fill="#F72A82" opacity="1.000000" stroke="none" 
	d="
M387.115906,268.822479 
	C378.187683,268.245850 369.729370,267.734558 361.275116,267.163147 
	C353.872833,266.662781 349.276733,262.187836 349.476807,255.765778 
	C349.683655,249.125839 354.834808,244.777191 362.476044,245.207413 
	C375.913116,245.963974 389.343536,246.861282 402.765625,247.850204 
	C409.293335,248.331146 413.835327,253.223404 413.663177,259.155762 
	C413.484406,265.314362 408.363586,269.853363 401.518982,269.679260 
	C396.871277,269.561066 392.231110,269.144714 387.115906,268.822479 
z"/>
<path fill="#F98302" opacity="1.000000" stroke="none" 
	d="
M104.735504,211.294327 
	C97.709038,202.823395 90.882965,194.646759 84.113426,186.423584 
	C79.274239,180.545273 79.449165,174.277390 84.474297,170.108139 
	C89.470139,165.963211 95.798965,166.933365 100.640251,172.694382 
	C108.455757,181.994614 116.221603,191.336624 123.994202,200.672836 
	C129.059113,206.756638 129.057693,213.259338 124.022263,217.424744 
	C118.902512,221.659851 112.698418,220.626602 107.494797,214.655334 
	C106.620506,213.652069 105.803543,212.598862 104.735504,211.294327 
z"/>
<path fill="#F82A83" opacity="1.000000" stroke="none" 
	d="
M300.845459,281.940979 
	C309.517059,272.440369 317.852325,263.123413 326.399170,254.004761 
	C331.727722,248.319672 339.597412,248.624008 343.738007,254.356140 
	C346.747742,258.522736 346.958618,263.507202 343.257141,267.744934 
	C334.270966,278.032806 325.075317,288.149841 315.652405,298.038635 
	C311.408569,302.492279 304.986389,302.255402 300.790100,298.312408 
	C296.159729,293.961548 296.093750,288.411560 300.845459,281.940979 
z"/>
<path fill="#F98302" opacity="1.000000" stroke="none" 
	d="
M152.191132,217.184006 
	C148.488525,216.646667 145.970428,214.944153 143.833633,212.413864 
	C135.995499,203.132355 128.030991,193.957336 120.216728,184.655975 
	C115.261063,178.757217 115.336647,172.366394 120.182579,168.262314 
	C125.274925,163.949570 131.655075,164.831589 136.839874,170.808884 
	C144.582153,179.734573 152.142227,188.818268 159.882462,197.745743 
	C163.054596,201.404419 164.764481,205.365646 163.029617,210.102219 
	C161.287964,214.857315 157.510956,216.961929 152.191132,217.184006 
z"/>
<path fill="#F98302" opacity="1.000000" stroke="none" 
	d="
M396.017700,412.922913 
	C407.650421,416.662201 418.907562,420.226379 430.127747,423.903381 
	C437.448608,426.302551 440.764740,431.662598 438.885620,437.738892 
	C436.906494,444.138672 431.003265,446.731537 423.502350,444.365570 
	C412.400085,440.863678 401.323242,437.281219 390.237732,433.726227 
	C382.820587,431.347626 379.422363,426.384033 380.950562,420.184174 
	C382.450073,414.100708 387.782959,411.415894 396.017700,412.922913 
z"/>
<path fill="#F98302" opacity="1.000000" stroke="none" 
	d="
M43.860023,297.060730 
	C36.450836,293.560760 29.343895,290.302795 22.326790,286.861633 
	C15.528063,283.527618 13.207771,277.787201 16.005964,271.763824 
	C18.559202,266.267761 24.843906,264.309570 31.364553,267.295441 
	C42.103176,272.212799 52.789875,277.247955 63.423576,282.388367 
	C70.092506,285.612152 72.376930,291.554382 69.591408,297.613617 
	C67.103539,303.025391 60.704742,304.856201 54.106243,301.939789 
	C50.762844,300.462067 47.500534,298.800903 43.860023,297.060730 
z"/>
<path fill="#F98302" opacity="1.000000" stroke="none" 
	d="
M434.876495,178.737137 
	C433.534973,180.963470 431.901306,182.363998 429.920227,183.324326 
	C419.142731,188.548767 408.376282,193.797104 397.553619,198.926620 
	C392.855682,201.153244 388.438019,200.496323 384.751007,196.710617 
	C381.525909,193.399200 381.041626,188.395157 383.257629,184.199188 
	C384.407379,182.022186 386.248505,180.637131 388.355927,179.594055 
	C398.940979,174.354996 409.528961,169.120850 420.158417,163.972824 
	C424.764282,161.742111 429.251343,161.957275 433.082214,165.641800 
	C436.920776,169.333771 437.390442,173.695129 434.876495,178.737137 
z"/>
<path fill="#F98302" opacity="1.000000" stroke="none" 
	d="
M113.712708,305.335754 
	C116.499474,307.471497 119.155907,309.224091 121.478249,311.342896 
	C125.975327,315.445801 126.459373,321.634460 122.878815,326.167603 
	C119.299438,330.699219 113.027122,331.779449 108.162201,328.236908 
	C98.358170,321.097748 88.643486,313.828247 79.067390,306.386780 
	C73.732346,302.240997 73.050255,296.082153 76.851212,290.989105 
	C80.575829,285.998322 86.733063,285.218781 92.294197,289.276672 
	C99.406281,294.466217 106.391525,299.829620 113.712708,305.335754 
z"/>
<path fill="#F88302" opacity="1.000000" stroke="none" 
	d="
M340.649109,496.522217 
	C334.976440,501.818817 330.829437,502.337219 324.768188,498.376740 
	C315.025391,492.010681 305.352539,485.535919 295.713715,479.013123 
	C290.377960,475.402313 288.981445,469.406464 292.067719,464.272186 
	C295.268616,458.947235 301.619110,457.229309 307.229309,460.801575 
	C317.605621,467.408691 327.835419,474.257019 337.949768,481.259735 
	C343.220154,484.908752 343.900146,489.565277 340.649109,496.522217 
z"/>
<path fill="#F98302" opacity="1.000000" stroke="none" 
	d="
M141.150391,61.046486 
	C140.557144,57.678745 139.875961,54.753387 139.533752,51.788906 
	C138.885239,46.170868 142.511276,41.014465 147.780838,39.771770 
	C153.282318,38.474380 158.987762,41.205326 160.238342,46.962475 
	C162.913147,59.276226 165.115387,71.711906 166.945389,84.180695 
	C167.709534,89.387238 163.010101,94.318298 157.938248,95.085938 
	C152.411819,95.922371 146.902359,92.293137 145.706909,86.485023 
	C143.999695,78.190323 142.693176,69.813148 141.150391,61.046486 
z"/>
<path fill="#F88302" opacity="1.000000" stroke="none" 
	d="
M446.785339,130.742249 
	C449.617737,127.232964 452.091034,123.879761 454.867462,120.799805 
	C459.167511,116.029625 465.441132,115.401657 470.084167,119.028664 
	C474.573975,122.535973 475.421112,129.162506 471.555389,134.213211 
	C464.792664,143.048965 457.880096,151.778000 450.782959,160.346893 
	C446.531982,165.479416 439.846405,166.076492 435.248993,162.243790 
	C430.700287,158.451706 430.137238,151.731125 434.113617,146.592239 
	C438.179810,141.337311 442.405945,136.206131 446.785339,130.742249 
z"/>
<path fill="#F98402" opacity="1.000000" stroke="none" 
	d="
M361.819977,66.806976 
	C360.630127,72.037231 358.311768,76.038757 353.178284,77.247192 
	C345.066681,79.156677 338.134552,72.102951 340.176392,63.851311 
	C342.372162,54.977470 344.974915,46.197388 347.634827,37.447769 
	C349.416779,31.585970 354.990082,28.397049 360.360748,29.748598 
	C365.990051,31.165234 369.778839,36.874187 368.374573,42.828358 
	C366.503876,50.760479 364.095825,58.565868 361.819977,66.806976 
z"/>
<path fill="#F78303" opacity="1.000000" stroke="none" 
	d="
M60.831673,155.196564 
	C57.560341,151.185638 54.422676,147.518616 51.490402,143.694138 
	C47.553665,138.559555 48.138481,132.401077 52.751740,128.539154 
	C57.355701,124.685020 63.695568,125.102493 67.909332,129.910416 
	C72.289444,134.908157 76.434265,140.120071 80.527512,145.359024 
	C84.707886,150.709534 84.160118,157.166901 79.416870,160.911423 
	C74.472000,164.815125 68.418274,164.068817 63.878407,158.960953 
	C62.885571,157.843903 61.994656,156.636261 60.831673,155.196564 
z"/>
<path fill="#F52B82" opacity="1.000000" stroke="none" 
	d="
M199.198486,156.011200 
	C194.516937,161.533859 189.548706,162.872955 184.614380,160.221649 
	C179.770706,157.619019 177.921997,152.408051 179.654419,146.007233 
	C180.519852,142.809753 181.321472,139.574219 182.491379,136.484406 
	C184.681778,130.699402 190.565872,127.730911 196.114700,129.360275 
	C201.431870,130.921616 204.615204,136.320602 203.293304,142.368500 
	C202.308044,146.876175 200.707565,151.249359 199.198486,156.011200 
z"/>
</svg>