<?xml version="1.0" encoding="UTF-8"?>
<svg xmlns="http://www.w3.org/2000/svg" version="1.1" viewBox="0 0 528 528">
  <!-- Generator: Adobe Illustrator 28.7.1, SVG Export Plug-In . SVG Version: 1.2.0 Build 142)  -->
  <g>
    <g id="Layer_1">
      <circle cx="264" cy="264" r="264" fill="#030203"/>
      <path d="M261,24.1c.4-2,.7-3.7,1.1-5.3,1.4-5.1,6.7-8.8,11.7-8.1,5.5.7,9.9,5.4,9.2,11.1-1.1,8.6-3.1,17-4.5,25.5-6.1,35.1-12.4,70.1-15.6,105.5-1.4,15.9-2.9,31.8-2.9,47.8s4.1,26.2,7.7,39c1.9,6.7,4.2,13.3,6.6,20.8,3.8-4.4,7-8.3,10.4-12.1,18.1-20.5,36.7-40.5,55.9-59.9,16.2-16.5,26.9-35.6,33.4-57.6,6.4-21.7,13.8-43.1,20.8-64.6,2.6-8,10.1-11,16.5-6.7,4.5,3,5.5,7.6,4,12.4-10.1,32.2-19.7,64.7-32.5,96-4.2,10.4-12.4,18.4-19.7,26.9-4.1,4.8-8.5,9.4-12.8,14.1-.6.7-1.6,1.4-1.1,2.6.5,1.2,1.7.9,2.6.8,21.8-1,43.6-2,65.2-5.3,9.5-1.5,16.2-7.3,23-13.2,12.8-11,24.6-22.9,36.6-34.7,3.7-3.6,7.9-3.9,12.4-1.7,4.1,2.1,6.2,6.8,5.2,11.4-.6,2.5-1.9,4.6-3.7,6.4-15.1,14.8-29.8,30-46.6,43-8.6,6.6-18.6,8.5-28.8,10-28.1,4.1-56.3,5-84.6,6-2,0-3.8.2-5.4,1.9-13.5,14.7-27.2,29.3-39.4,45.1-2.4,3.1-2.8,5.8-1.7,9.6,5.7,19.4,8.7,39.3,9.1,59.5.2,10.9-1.3,21.9-2.1,32.9,0,1.6-.4,3.3-.6,5.4,2.9-.9,4.2-3.1,5.8-4.8,20.4-22.2,41.1-44.1,62.5-65.4,8.8-8.8,19.6-14.3,30.6-19.3,36.1-16.4,73.4-29.7,111.4-41,6.2-1.9,12.1,1.2,13.7,6.7,1.8,6.2-1.2,11.7-7.6,13.6-34.1,10.3-67.3,22.7-100.2,36.3-19.2,7.9-35.4,19.6-48.9,35.2-.4.5-.7,1-.9,1.4,7.9,0,15.6.3,23.3,0,22.5-.9,45-.6,67.5-.2,10.3.2,20.7.5,31,.8,2,0,4,.2,6,.5,6.3,1,9.8,5.3,9.4,11.4-.3,5.5-4.7,9.6-10.8,9.6-8.8,0-17.7-.3-26.5-.6-40.2-1.2-80.3-.9-120.4,2.4-2.2.2-3.8.8-5.2,2.4-13.8,15-27.6,29.9-41.3,44.8-.8.8-2.1,1.6-1.7,2.8.5,1.6,2.2,1.2,3.4,1.4,15.2,2,30.4,4.1,45.6,6,3.9.5,7.4,1.9,11,3.2,17.3,5.9,34.6,11.9,51.9,17.9,3,1,6,2.2,7.7,5.2,2.3,4.2,2.3,8.5-.6,12.2-2.9,3.7-6.9,5.3-11.6,3.7-12-4.1-24.1-7.8-35.8-12.6-17.9-7.3-36.6-10.8-55.7-12.7-5.6-.6-11.3-1.3-16.8-2.2-3.1-.5-4.1.6-4.5,3.5-2.3,16.1-4.8,32.2-7.2,48.4-.5,3.3-1.2,6.5-2,9.8-1.5,6.3-7.1,10.3-12.8,9.2-6-1.2-9.6-6.6-8.3-13.3,3.4-17.2,5.7-34.5,8.4-51.7.9-6,1-6.2-4.9-5.4-45.5,6.2-91.3,7.2-137.1,7.1-6.3,0-12.7.4-19,.2-7.4-.2-11.8-4.4-11.8-10.7s4.9-10.4,12.1-10.5c27.2-.4,54.3-.9,81.5-1.2,21.4-.3,42.5-3.1,63.7-5.2,5.1-.5,10.3-1.2,15.4-1.5,2.9-.2,4.1-1.5,4.4-4.2,1-8.8,2-17.5,3.1-26.3.4-2.8-.3-4.5-3-6-12.2-6.8-24.3-13.8-36.3-20.9-3-1.8-5.7-1.4-8.6-.9-20.3,3.4-40.8,6.4-61.3,8.5-7,.7-13.8.5-20.7-1.5-30.8-9.1-60.5-21.4-90.4-32.8-8.4-3.2-16.8-6.3-25.2-9.6-5.7-2.2-8.4-6.6-7.9-12,.5-5,3.5-7.8,8.1-9,3.6-1,6.9.7,10.1,2,24.7,9.5,49.4,19.1,74.1,28.5,11.8,4.4,23.9,8.2,35.9,12.4,3.2,1.1,6.6,1.4,9.9,1.2,13.8-.6,27.4-2.8,41.6-5-2.5-3.6-6.1-4.6-9.1-6.4-9.4-5.6-19-11-28.5-16.5-8.3-4.8-13.1-13.1-19.1-20.2-26.2-30.8-52.2-61.8-78.2-92.8-10-11.8-19.9-23.7-29.8-35.6-4.7-5.6-4.6-11.5.1-15.5,4.9-4.2,11.8-3.4,16.4,2,14.2,16.8,28.3,33.6,42.5,50.4,25.4,30.2,50.7,60.4,76.1,90.6,1.1,1.3,2.4,2.2,3.9,3.1l97.5,55.8c4.9,2.8,4.8,2.8,5.2-3.2,1.7-29.6-5-57.8-14-85.7-5-15.3-10.6-30.5-14.2-46.2-.7-2.9-2.7-3.9-5-5.1-23.6-12.3-47-25-69.5-39.3-10.8-6.9-17.8-16.8-23.8-27.7-14.9-26.6-27-54.6-39.2-82.5-2.7-6.2-.5-12.4,5-14.8,5.8-2.6,11.5-.5,14.4,5.9,7.8,16.9,15.4,33.9,23.1,50.9,2.5,5.5,2.8,5.5,6.6.8,6.9-8.5,13.8-17.1,21-25.4,2.6-3,3.6-6,3.4-9.9-.6-16.5-1-33-1.4-49.5-.1-6.1,2.6-9.9,7.8-11.4,6.2-1.8,12.6,2.4,13.2,9.2.6,6.1.6,12.3.8,18.5.4,13.5.7,27,1.2,40.5.1,4.1-1.2,7.4-3.8,10.5-11.1,13.3-22,26.7-33.1,40-1.8,2.2-1.7,3.8-.6,6.2,5.9,13.1,16.4,21.5,28.5,28.3,14.4,8,28.9,15.9,43.2,23.9,3.3,1.9,4.2,1.4,4.2-2.4.3-41.9,6.7-83.2,13.6-124.5,2.7-15.9,5.7-31.8,8.7-48l-.6-.3Z" fill="#5a02fc"/>
      <path d="M464.8,256.7c-10.9,2.7-21.4,5.4-31.9,7.9-6.8,1.6-12.5-1.7-14-7.8-1.3-5.5,2.1-11.2,8.3-12.8,24.2-6.2,48.4-12.2,72.6-18.1,6.1-1.5,11.5,2.1,13.1,8,1.5,5.6-1.9,11.2-8.1,12.8-13.2,3.4-26.5,6.6-40.1,10h.1Z" fill="#f98302"/>
      <path d="M425.8,338.5c-7.8.4-12.5-3.3-13-9.7-.5-6,3.8-10.8,10.5-11.6,23.5-2.7,47-5.3,70.5-7.8,7.3-.8,12.6,3.3,13.2,9.8.6,6.1-3.8,11.1-10.8,11.9-23.3,2.5-46.7,4.9-70.4,7.4h0Z" fill="#f98402"/>
      <path d="M217.1,409c-16.5,1.7-32.5,3.4-48.6,5.1-3.6.4-7.1.2-9.9-2.3-3.4-3-4.9-6.7-3.7-11.2,1.2-4.6,4.4-7.5,9.1-8.1,10.4-1.3,20.8-2.3,31.3-3.4,11.3-1.2,22.5-2.3,33.8-3.4,7.1-.7,11.9,3,12.8,9.5.8,6.2-3.4,11.2-10.4,12.1-4.6.6-9.3,1-14.3,1.6h0ZM208.2,316.8c-8.2-4.7-16.2-9.2-24.1-13.9-6.4-3.8-8.1-10-4.7-15.6,3.3-5.4,9.4-6.7,15.7-3.2,16.6,9.5,33.2,19.1,49.7,28.6,6.8,3.9,8.9,10.1,5.7,15.8-3.2,5.6-9.8,6.9-16.5,3.1-8.5-4.8-17-9.8-25.8-14.9h0Z" fill="#f82a83"/>
      <path d="M303.9,44.9c1.2-6.3,2.2-12.2,3.4-18.1,1.5-7,6.9-11,13.2-9.9,5.9,1,9.3,6.8,8,13.9-3.5,18.8-7,37.7-10.6,56.5-1.4,7.3-6.2,11-12.5,10-6.7-1.1-10.1-6.1-8.8-13.7,2.3-12.8,4.7-25.5,7.2-38.7h0Z" fill="#fb8402"/>
      <path d="M74.5,258.5c1.3,1.3,2.4,2.3,3.4,3.5,3.9,4.7,3.9,10.9-.1,14.9-3.9,4-10.1,4.6-14.4.4-14.8-14.1-29.5-28.4-43.9-42.9-4.4-4.4-3.6-11.1.8-15.2,4.2-3.9,10.3-3.8,14.8.6,13.1,12.8,26.1,25.6,39.4,38.7h0Z" fill="#fa8402"/>
      <path d="M233.8,106.8c.2,11.9-1.5,23.3-2,34.8-.4,8.6-1.2,17.3-1.9,25.9-.4,4.8-2.2,8.6-7,10.6-4,1.6-7.5.9-10.8-1.6-3-2.3-4.3-5.5-4.1-9.2,1.4-19.8,2.7-39.5,4.3-59.3.4-5.4,4.6-9.1,9.8-9.8,5.1-.7,9,2.1,11.7,8.6ZM347,278.8c6.4-2.3,11-1.3,14.2,3,3.1,4.1,2.8,9.5-1.1,14.2-11.7,14.3-23.5,28.5-35.4,42.7-4.6,5.4-11.1,6.2-15.9,2.3-4.6-3.8-5.7-10.5-1.8-15.2,12.4-15.2,25.1-30.2,37.7-45.3.5-.6,1.3-1.1,2.2-1.8h0Z" fill="#f92a83"/>
      <path d="M298.9,209.9c-1.6,2-2.8,3.8-4.3,5.3-4.2,4.4-10.4,4.9-14.9,1.3-4.4-3.5-5.5-9.9-2-14.8,4.6-6.5,9.6-12.7,14.5-19.1,6.6-8.6,13.1-17.2,19.8-25.7,3-3.9,7-5.5,11.9-4.2,4.5,1.2,6.9,4.4,7.8,8.8.7,3.8-1,6.8-3.2,9.6-9.8,12.8-19.6,25.7-29.6,38.8h0Z" fill="#f82a83"/>
      <path d="M439.4,121.5c-4,10.1-7.8,19.9-11.9,29.5-3.4,7.9-11.5,10-17.4,4.7-3.5-3.1-4.6-7.2-2.9-11.3,6.9-17.8,14-35.6,21.2-53.3,2.2-5.3,8.1-7.3,13.4-5.3,5.3,2,8.2,7.7,6.2,13.5-2.5,7.4-5.6,14.6-8.6,22.2h0ZM144.6,409.8c-1.4,6.5-4.3,9.6-10.4,10-18.3,1.2-36.5,2.2-54.8,2.9-6.4.3-10.8-4.5-10.9-10.6,0-5.8,4-10.4,10.2-10.8,18.1-1.1,36.2-2.1,54.3-3,7-.3,10.5,3.4,11.5,11.4h0ZM109.6,125.3c3.8,6.7,7.4,13,10.9,19.5,3.3,6.1,1.8,12.2-3.4,15.2-5.3,3-11.6,1.4-15-4.5-9.1-15.7-18-31.4-26.8-47.3-3.2-5.7-1.3-11.5,4-14.6,5.2-3.1,11.1-1.7,14.6,4.1,5.4,9,10.4,18.2,15.7,27.6h0Z" fill="#f98302"/>
      <path d="M215.6,66.5c.8-13.7,1.5-27,2.4-40.3.4-5.7,3.3-9.6,7.9-10.9,4.9-1.4,8.8.2,11.8,4.2,1.8,2.4,2.1,5.2,1.9,8.1-1,17.3-2.1,34.5-3.3,51.8-.5,7.9-5.2,12.4-11.8,11.9-6.2-.5-10-5.6-9.7-13.2.1-3.7.5-7.3.7-11.4v-.2Z" fill="#fb8402"/>
      <path d="M249,473.5c-1.4,4.8-4.4,7.2-8.8,8.4-16.4,4.6-32.7,9.3-49,13.9-7.5,2.1-13.1-.7-14.8-6.9-1.8-6.2,1.7-11.7,8.9-13.8,16.2-4.7,32.3-9.3,48.5-13.8,9.4-2.6,15.3,2.1,15.2,12.2h0Z" fill="#f98302"/>
      <path d="M298.1,166.9c-3.8,6.5-8.8,8.7-14.2,6.5-5.7-2.3-8-7.6-6.1-14.5,4.4-16,8.8-32.1,13.3-48.1,1.9-6.8,7.5-10.4,13.5-8.8,6.3,1.7,9.5,7.5,7.6,14.6-4.5,16.7-9.3,33.3-14,50.3h0Z" fill="#f92a83"/>
      <path d="M235.4,239.2c1.8,5.4,1.3,10-3.1,13.4-4.2,3.3-8.7,2.5-13.1.2-14.1-7.3-28.2-14.4-42.2-21.7-4.6-2.4-6.9-6.2-6.3-11.4.6-4.8,3.4-7.8,8-9.2,2.9-.9,5.6-.3,8.2,1,14.3,7.4,28.7,14.9,43,22.3,2.3,1.2,4.1,2.8,5.5,5.5h0Z" fill="#f72a82"/>
      <path d="M403.3,405.9c-6.7-2.5-9.7-7.5-8.2-13.1,1.5-5.7,6.7-8.8,13.2-7.6,16.2,3,32.3,6.1,48.5,9.2,4.9.9,8.1,3.8,9,8.8.9,4.8-.9,8.5-4.9,11.1-3.2,2.1-6.7,1.6-10.1.9-15.7-3.1-31.3-6.1-47.4-9.3h0Z" fill="#f98302"/>
      <path d="M233.6,295.5c-4.2-1-7.3-3.3-10.6-5.1-11.2-6.2-22.4-12.4-33.6-18.7-6.4-3.6-8.3-9.9-5-15.5,3.3-5.7,9.2-7.1,15.5-3.6,13.3,7.3,26.5,14.6,39.7,22.1,5.6,3.2,7.8,8,6.3,13.3-1.4,5.1-5.4,7.7-12.2,7.6h0Z" fill="#f82a83"/>
      <path d="M383.9,394.4c2.1,8.2-1,13.6-8.7,15.2-14.7,3.1-29.4,6-44.1,8.9-7,1.4-12.2-1.7-13.7-8.2-1.4-6.1,2.3-11.7,9.2-13.2,11.6-2.5,23.2-4.7,34.8-7,2.9-.6,5.9-1.2,8.8-1.8,5.9-1.2,10.5.4,13.7,6.1Z" fill="#f72b83"/>
      <path d="M167.2,279.8c-5.7,1.6-9.7-.5-13-4.7-8.9-11.2-17.9-22.3-26.8-33.5-4.8-6-4.2-12.4,1.2-16.7,4.8-3.8,11.2-2.9,15.8,2.7,9.2,11.3,18.4,22.7,27.4,34.2,5.2,6.7,3.5,13.5-4.5,17.8v.2Z" fill="#f72a83"/>
      <path d="M53.5,365.9c13.2,1.2,25.6,4.5,38.2,6.6,3.1.5,6.2,1.1,9.3,1.8,6.7,1.6,10.2,6.5,9.3,12.7-.9,5.8-6.5,9.8-13,8.6-14.7-2.6-29.4-5.5-44-8.6-5.7-1.2-8.9-5.3-8.9-10.5s2.7-8.5,9.2-10.6h-.1Z" fill="#f98302"/>
      <path d="M337.3,84.2c4.5-2.9,8.7-3.3,12.9-.3,4.3,3.1,5.3,7.5,3.9,12.5-3.9,14.1-7.8,28.3-11.8,42.4-1.9,6.4-7.5,9.4-13.6,7.7-5.8-1.6-8.9-7.1-7.2-13.4,3.8-14.3,7.9-28.6,11.8-42.8.6-2.3,1.7-4.3,3.9-6h0Z" fill="#f98402"/>
      <path d="M387.1,268.8c-8.9-.6-17.4-1.1-25.8-1.7-7.4-.5-12-5-11.8-11.4.2-6.6,5.4-11,13-10.6,13.4.8,26.9,1.7,40.3,2.6,6.5.5,11.1,5.4,10.9,11.3-.2,6.2-5.3,10.7-12.1,10.5-4.6-.1-9.3-.5-14.4-.9v.2Z" fill="#f72a82"/>
      <path d="M104.7,211.3c-7-8.5-13.9-16.6-20.6-24.9-4.8-5.9-4.7-12.1.4-16.3,5-4.1,11.3-3.2,16.2,2.6,7.8,9.3,15.6,18.6,23.4,28,5.1,6.1,5.1,12.6,0,16.8s-11.3,3.2-16.5-2.8c-.9-1-1.7-2.1-2.8-3.4h-.1Z" fill="#f98302"/>
      <path d="M300.8,281.9c8.7-9.5,17-18.8,25.6-27.9,5.3-5.7,13.2-5.4,17.3.4,3,4.2,3.2,9.2-.5,13.4-9,10.3-18.2,20.4-27.6,30.3-4.2,4.5-10.7,4.2-14.9.3-4.6-4.4-4.7-9.9,0-16.4h.1Z" fill="#f82a83"/>
      <path d="M152.2,217.2c-3.7-.5-6.2-2.2-8.4-4.8-7.8-9.3-15.8-18.5-23.6-27.8-5-5.9-4.9-12.3,0-16.4,5.1-4.3,11.5-3.4,16.7,2.5,7.7,8.9,15.3,18,23,26.9,3.2,3.7,4.9,7.6,3.1,12.4-1.7,4.8-5.5,6.9-10.8,7.1h0ZM396,412.9c11.6,3.7,22.9,7.3,34.1,11,7.3,2.4,10.6,7.8,8.8,13.8-2,6.4-7.9,9-15.4,6.6-11.1-3.5-22.2-7.1-33.3-10.6-7.4-2.4-10.8-7.3-9.3-13.5,1.5-6.1,6.8-8.8,15.1-7.3h0ZM43.9,297.1c-7.4-3.5-14.5-6.8-21.5-10.2-6.8-3.3-9.1-9.1-6.3-15.1,2.6-5.5,8.8-7.5,15.4-4.5,10.7,4.9,21.4,10,32.1,15.1,6.7,3.2,9,9.2,6.2,15.2-2.5,5.4-8.9,7.2-15.5,4.3-3.3-1.5-6.6-3.1-10.2-4.9h-.2ZM434.9,178.7c-1.3,2.2-3,3.6-5,4.6-10.8,5.2-21.5,10.5-32.4,15.6-4.7,2.2-9.1,1.6-12.8-2.2-3.2-3.3-3.7-8.3-1.5-12.5,1.1-2.2,3-3.6,5.1-4.6,10.6-5.2,21.2-10.5,31.8-15.6,4.6-2.2,9.1-2,12.9,1.7,3.8,3.7,4.3,8.1,1.8,13.1h.1ZM113.7,305.3c2.8,2.1,5.4,3.9,7.8,6,4.5,4.1,5,10.3,1.4,14.8s-9.9,5.6-14.7,2.1c-9.8-7.1-19.5-14.4-29.1-21.9-5.3-4.1-6-10.3-2.2-15.4,3.7-5,9.9-5.8,15.4-1.7,7.1,5.2,14.1,10.6,21.4,16.1h0Z" fill="#f98302"/>
      <path d="M340.6,496.5c-5.7,5.3-9.8,5.8-15.9,1.9-9.7-6.4-19.4-12.8-29.1-19.4-5.3-3.6-6.7-9.6-3.6-14.7,3.2-5.3,9.6-7,15.2-3.5,10.4,6.6,20.6,13.5,30.7,20.5,5.3,3.6,6,8.3,2.7,15.3h0Z" fill="#f88302"/>
      <path d="M141.2,61c-.6-3.4-1.3-6.3-1.6-9.3-.6-5.6,3-10.8,8.2-12,5.5-1.3,11.2,1.4,12.5,7.2,2.7,12.3,4.9,24.7,6.7,37.2.8,5.2-3.9,10.1-9,10.9-5.5.8-11-2.8-12.2-8.6-1.7-8.3-3-16.7-4.6-25.4Z" fill="#f98302"/>
      <path d="M446.8,130.7c2.8-3.5,5.3-6.9,8.1-9.9,4.3-4.8,10.6-5.4,15.2-1.8,4.5,3.5,5.3,10.1,1.5,15.2-6.8,8.8-13.7,17.6-20.8,26.1-4.3,5.1-10.9,5.7-15.5,1.9-4.5-3.8-5.1-10.5-1.1-15.7,4.1-5.3,8.3-10.4,12.7-15.8h-.1Z" fill="#f88302"/>
      <path d="M361.8,66.8c-1.2,5.2-3.5,9.2-8.6,10.4-8.1,1.9-15-5.1-13-13.4,2.2-8.9,4.8-17.7,7.5-26.4,1.8-5.9,7.4-9.1,12.7-7.7,5.6,1.4,9.4,7.1,8,13.1-1.9,7.9-4.3,15.7-6.6,24h0Z" fill="#f98402"/>
      <path d="M60.8,155.2c-3.3-4-6.4-7.7-9.3-11.5-3.9-5.1-3.4-11.3,1.3-15.2,4.6-3.9,10.9-3.4,15.2,1.4,4.4,5,8.5,10.2,12.6,15.4,4.2,5.4,3.6,11.8-1.1,15.6-4.9,3.9-11,3.2-15.5-2-1-1.1-1.9-2.3-3-3.8h-.2Z" fill="#f78303"/>
      <path d="M199.2,156c-4.7,5.5-9.6,6.9-14.6,4.2-4.8-2.6-6.7-7.8-5-14.2.9-3.2,1.7-6.4,2.8-9.5,2.2-5.8,8.1-8.8,13.6-7.1,5.3,1.6,8.5,7,7.2,13-1,4.5-2.6,8.9-4.1,13.6h.1Z" fill="#f52b82"/>
    </g>
  </g>
</svg>