<?xml version="1.0" encoding="utf-8"?>
<!-- Generator: Adobe Illustrator 28.0.0, SVG Export Plug-In . SVG Version: 6.00 Build 0)  -->
<svg version="1.1" id="Layer_1" xmlns="http://www.w3.org/2000/svg" xmlns:xlink="http://www.w3.org/1999/xlink" x="0px" y="0px"
	 viewBox="0 0 200 200" style="enable-background:new 0 0 200 200;" xml:space="preserve">
<style type="text/css">
	.st0{fill:#2775CA;enable-background:new    ;}
	.st1{fill:#FFFFFF;}
</style>
<circle class="st0" cx="100" cy="100" r="100"/>
<g>
	<path class="st1" d="M121.8,174.6c-1.2-0.3-2.2-1.3-2.5-3.3c-0.2-1.1-0.4-2.3-0.4-3.5c0-2.5,1-4.5,3-6c1.2-0.8,2.4-1.5,3.7-2.1
		c19.6-9,32.2-23.9,37.1-44.8c5.1-21.8-0.2-41.3-14.9-58.1c-6.1-6.9-13.5-12.1-21.8-15.9c-1-0.5-2-0.9-2.9-1.5
		c-2.4-1.4-3.9-3.6-4-6.4c0-1.7,0.2-3.4,0.6-5c0.8-3.3,4.7-2.3,7-1.5c29.6,10.8,45.5,36,50,58.3c1.5,7.2,1.6,14.4,0.8,21.7
		c-1.2,11.7-4.5,22.8-10.4,33.1c-9.1,15.9-22.1,27.2-39.2,33.9C126,174.2,123.6,175.1,121.8,174.6z"/>
	<path class="st1" d="M77.9,25.6c3.1,1.1,3.6,5.5,3,8.2c-0.7,3-2.3,5.2-5.3,6.4c-8.4,3.5-15.7,8.6-22.2,15
		c-9.4,9.3-15.1,20.5-17,33.6c-1.8,12.2-0.9,24.3,3.5,35.9c4.9,13,13.8,22.9,25.5,30.1c2.8,1.7,5.8,3.2,8.7,4.8
		c1.2,0.7,2.4,1.3,3.6,2.1c2.2,1.5,3.2,3.6,3.2,6.3c0,1.3-0.2,2.6-0.5,3.8c-0.4,2.5-2,3.1-4.2,3.1c-0.9-0.3-1.8-0.6-2.8-0.9
		c-21.9-8.1-37-23.3-46.1-44.7c-2.9-6.8-4.9-13.9-5.3-21.3c-0.6-10.8,0.8-21.4,4.1-31.8c6-18.5,17-33.1,33.7-43.3
		c3-1.9,6.3-3.4,9.5-4.9c2.3-1,5.3-3.3,8-2.6C77.6,25.5,77.8,25.5,77.9,25.6z"/>
	<path class="st1" d="M97.6,84.8c2.6,0.2,5.3,0.2,7.9,0.6c3.3,0.5,3.9,1.8,2.6,4.8c-0.2,0.5-0.5,1-0.7,1.5c-1.5,2.9-3.9,4.4-7.1,4.4
		c-2.4,0-4.8-0.1-7.3-0.2c-1.2,0-2.4,0.1-3.7,0.2c-1.3,0.1-2.1,0.8-2.5,1.9c-0.4,1.2-0.3,2.4,0.7,3.3c0.4,0.4,1.1,0.8,1.7,0.8
		c2.1,0.1,4.2,0.2,6.3,0.2c2.9,0,5.7,0.1,8.6,0.1c0.4,0,0.8,0,1.2,0.1c2.7,0.3,4.1,2.4,3,5c-1.4,3.2-4.1,6.2-8.9,6
		c-2.7-0.1-5.5,0-8.2,0c-0.5,0-1,0.1-1.5,0.2c-1.2,0.3-1.9,1.1-1.4,2.3c2,5.1,4.8,9.4,10.2,11.5c6.2,2.4,12.2,0.5,16.5-5
		c0.3-0.4,0.6-0.8,0.8-1.1c2.3-3.1,6.7-3.8,9.8-1.6c1.8,1.3,2.4,2.8,1.9,5c-0.2,0.8-0.5,1.6-0.9,2.3c-8.8,15.5-29.7,18.4-42.7,6
		c-4.2-4-6.9-8.9-9.1-14.2c-0.3-0.7-0.5-1.4-0.9-2.1c-1.3-2.6-3.1-3.5-6-3.4c-2.4,0.1-4.8,0-7.2-0.3c-2.5-0.3-3.4-2.1-2.1-4.3
		c0.9-1.5,1.9-3,3.1-4.4c1.3-1.5,3-2.1,5-2.1c0.4,0,0.9,0,1.3,0c2,0,3.1-1,3.1-3c0.1-2-0.8-3.1-2.8-3.2c-2-0.1-4.1-0.1-6.1-0.2
		c-0.7,0-1.4-0.1-2.1-0.2c-1.1-0.2-1.5-0.9-1.5-2c0-0.5,0.1-1,0.2-1.5c0.8-2.4,2.2-4.4,4.2-5.9c0.6-0.4,1.5-0.7,2.3-0.7
		c4.1,0,7.2-1.6,9-5.3c0.9-1.7,1.6-3.5,2.5-5.2c3.3-7.1,8.2-12.6,15.7-15.4c8.7-3.2,17.3-2.9,25.4,1.9c4.2,2.5,7.2,6.1,9.5,10.4
		c1.2,2.2,0.8,3.6-1.2,5c-1.4,1-2.9,1.8-4.7,2.1c-2.1,0.3-3.9-0.2-5.3-2c-0.6-0.8-1.2-1.6-1.8-2.3c-6.7-7.8-17.2-5.6-22.2,0.6
		c-1.6,2-2.8,4.3-3.8,6.7c-0.6,1.5-0.1,2.5,1.5,2.6C92.4,84.9,95,84.8,97.6,84.8z"/>
</g>
</svg>
