<svg xmlns="http://www.w3.org/2000/svg" viewBox="0 0 512 512">
  <g data-name="flETH">
    <circle cx="256" cy="256" r="255" fill="#fff"/>
    <path fill="#363636" d="m255.97 92.92-2.22 7.43v215.67l2.22 2.18 101.5-59.17z"/>
    <path fill="#8d8d8d" d="m255.97 92.92-101.5 166.11 101.5 59.17z"/>
    <path fill="#3b3b3b" d="m255.97 337.16-1.25 1.5v76.82l1.25 3.6 101.56-141.07z"/>
    <path fill="#8d8d8d" d="M255.97 419.08v-81.93L154.47 278l101.5 141.07Z"/>
    <path fill="#141414" d="m255.97 318.2 101.5-59.17-101.5-45.5v104.68Z"/>
    <path fill="#383838" d="m154.47 259.03 101.5 59.17V213.52l-101.5 45.5Z"/>
    <path fill="#e72075" d="M256 27.89c125.78 0 228.11 102.33 228.11 228.11S381.78 484.11 256 484.11 27.89 381.78 27.89 256 130.22 27.89 256 27.89m0-24.79C116.33 3.1 3.1 116.33 3.1 256S116.33 508.9 256 508.9 508.9 395.67 508.9 256 395.67 3.1 256 3.1"/>
    <path fill="#2b0006" d="M256 512C114.84 512 0 397.16 0 256S114.84 0 256 0s256 114.84 256 256-114.84 256-256 256m0-505.8C118.26 6.2 6.2 118.26 6.2 256S118.26 505.8 256 505.8 505.8 393.74 505.8 256 393.74 6.2 256 6.2m0 481.01C128.51 487.21 24.79 383.49 24.79 256S128.51 24.79 256 24.79 487.21 128.51 487.21 256 383.49 487.21 256 487.21m0-456.22C131.93 30.99 30.99 131.93 30.99 256S131.93 481.01 256 481.01 481.01 380.07 481.01 256 380.07 30.99 256 30.99"/>
  </g>
</svg>
