<svg xmlns="http://www.w3.org/2000/svg" viewBox="0 0 400 400"><defs><clipPath id="a"><circle cx="200" cy="200" r="200" fill="none"/></clipPath></defs><g clip-path="url(#a)"><circle cx="200" cy="200" r="200" fill="#e34614"/><path fill="none" d="m278.1 265.1-9.6 1.8 9.6-1.8.2-18.8-.2 18.8zM305.3 201.4c-1.9.4-42.7 8.3-45.8 8.8l-.2 29.5.2-29.5c3-.6 43.8-8.5 45.8-8.8ZM307.7 200.9l12.1-2.3-12.1 2.3zM369.1 189.1l-.1.3.1-.3zM301.7 241.8l.1-14.9-.1 14.9zM305.2 216.3v-2.7 2.7ZM301.8 226.9l-23.5 4.6 23.5-4.6zM205.9 220.7v.2l-3.7 6.3 3.7-6.3v-.2zM215.4 218.7l-6.6 1.3-1.1.2 1.1-.2 6.6-1.3zM187.3 224.5l9.4 12.5-9.4-12.5-.3-.3-17.9 3.5 17.9-3.5.3.3z"/><rect height="16.4" x="202.3" y="264" fill="none"/><path fill="none" d="m226.8 273.6-1.4-1.7-11.1-13.5 11.1 13.5 1.4 1.7zM225.4 275.2l-10.7 2.1 10.7-2.1 1.4-.2-1.4.2zM232.7 215.4l19-3.7-.4 58.5-18.9 3.7 18.9-3.7.4-58.5-19 3.7zM328.6 233.9l-15-23.7 15 23.7-.1 21.4 19-3.6-19 3.6.1-21.4zM185.8 158.6l3.2-1.6-1.9-.3 1.9.3-3.2 1.6zM181.4 163l-1.7-1.2 1.7 1.2zM165.7 163.1l2.6-2.8-2.6 2.8-7.8 8.1-.3.3.3-.3 7.8-8.1zM156.4 172.8l9.2-4.1 2.9-1.3-2.9 1.3-9.2 4.1zM177.9 163.2l-3.9-2.4 3.9 2.4zM102.8 207c5.8-7 12.6-15.3 18.2-21.8-5.6 6.5-12.4 14.8-18.2 21.8ZM229.1 134.1l9.3-14.9-9.3 14.9zM239.3 135.9c10.5 2.2 19.7 7.4 26.1 11.8-6.4-4.4-15.6-9.6-26.1-11.8ZM222.9 214.7c-2.3-.3-4.4-.6-6.4-.8 2 .3 4.1.5 6.4.8ZM350.1 192.8l12.2-2.4-12.2 2.4-11.5 21.6 11.5-21.6zM317.3 192l-18.3 3.5 18.3-3.5zM275.2 124.7c7.2 2.4 12.2 5.1 15.3 7.1-3.1-1.9-8.2-4.7-15.3-7.1ZM138.2 177.7l29.3-23.9-29.3 23.9 8.1-3-11.4 18.6 11.4-18.6-8.1 3zM119.6 290.6c-2.1-.9-3.9-2.1-5.6-3.6 1.7 1.4 3.5 2.6 5.6 3.6ZM156.5 234.7c1.3.7 2.6 1.6 3.7 2.6-1.1-1-2.4-1.8-3.7-2.6ZM94.1 246.6l9.1-.3v1l-1.2-.1 1.2.1v-1l-9.1.3zM99.4 256l-23.1 4.5 23.1-4.5 3.7-.7v-2.5 2.5l-3.7.7zM143.9 235s.2 0 .3-.1c0 0-.2 0-.3.1ZM150.5 232.3c-2.2.8-4.3 1.7-6.3 2.6 1.9-.9 4-1.8 6.3-2.6ZM110 282.6c-.8-1.1-1.5-2.3-2-3.6.6 1.3 1.3 2.5 2 3.6ZM99.6 280.8 89 282.9l10.6-2.1zM99.7 265.9v3.2-3.2zM93.7 246.1l-2.7-3.3-14.8 2.8 14.8-2.8 2.7 3.3zM98.3 266.2l.7-.1-.7.1-22.1 4.3 22.1-4.3z"/><rect height="18.7" x="76.1" y="285.3" fill="none"/><path fill="none" d="M144.4 273.8c.4-.3.8-.7 1.1-1 .4-.4.8-.8 1.1-1.3-.3.4-.7.9-1.1 1.3-.4.4-.7.7-1.1 1ZM167.2 270.2c0 .1-.1.3-.2.4 0-.1.1-.3.2-.4 2-5.7 2.4-11.8 1.2-18.4-.8-4.1-2.3-7.6-4.5-10.6 2.2 3 3.7 6.5 4.5 10.6 1.3 6.5.9 12.7-1.2 18.4ZM149.9 260.5c0-1.3-.2-2.6-.4-3.9.3 1.3.4 2.6.4 3.9ZM124.5 264.4c0 1.1.2 2.3.4 3.5-.2-1.2-.4-2.3-.4-3.5ZM148.5 268.1c.3-.8.6-1.7.8-2.6.1-.4.2-.9.3-1.3 0 .4-.2.9-.3 1.3-.2.9-.5 1.8-.8 2.6ZM156.9 284.5c-4.8 3.9-10.7 6.5-17.5 7.8-2 .4-3.9.6-5.7.7 1.8 0 3.7-.3 5.7-.7 6.8-1.3 12.6-3.9 17.5-7.8ZM165.3 286.8l13.3-2.5-13.3 2.5zM127.3 253.7c-1 1.5-1.8 3.2-2.2 5.2-.3 1.1-.4 2.2-.5 3.3 0-1.1.2-2.2.5-3.3.4-1.9 1.2-3.6 2.2-5.2ZM107.2 254.3c.3-.9.7-1.8 1.1-2.7-.4.9-.8 1.7-1.1 2.7-1.4 4-2.1 8.3-1.9 12.7-.2-4.4.4-8.7 1.9-12.7ZM127.2 249.2l-16.9-1.3c.4-.6.8-1.2 1.3-1.9l13.5-.4-13.5.4c-.4.6-.9 1.2-1.3 1.9l16.9 1.3ZM127.2 245.1c-.3.2-.5.3-.8.5.2-.1.5-.3.8-.5ZM227.4 216.4l-.6.1.6-.1zM145 249.2l.1.1-.1-.1ZM129.4 275.2ZM298.7 150.2c-4.5-4.5-10-9.1-16.7-13.6 6.6 4.5 12.2 9 16.7 13.6ZM233.9 111.9l-2.5 11.9 2.5-11.9zM255.4 148.1c9.5 2.3 19 6.9 19.2 7-.2-.1-9.7-4.7-19.2-6.9-13.1-3.2-34.4-5.6-62.2.1 27.9-5.8 49.2-3.3 62.2-.1ZM253.1 95.8s-.7.2-1.9.7c1-.4 1.7-.6 1.9-.7ZM260.5 196.5s-1.1-1.4-3.3-3.5c2.1 2.1 3.2 3.5 3.3 3.5ZM283.3 177.2c-20.9-19.8-53.9-16.8-53.9-16.8s33-3 53.9 16.8ZM234.6 102.5c1.5-.6 3.2-1.2 4.8-1.8-1.6.6-3.3 1.2-4.8 1.8ZM294.1 192.3c.6 1.3 1.2 2.6 1.8 3.8l-2.9.6 2.9-.6h.3-.3c-.5-1.2-1.1-2.5-1.8-3.8Z"/><path fill="none" d="M229.3 160.3s18.4 0 36.8 12.3c-18.4-12.4-36.7-12.3-36.8-12.3ZM173.6 128.7l4.1-6.2-4.1 6.2zM227.7 104.8l-4 1.4-7.1 2.4 7.1-2.4 4-1.4z"/><rect height="27.8" x="171.8" y="103" fill="none"/><path fill="none" d="M251.3 194.1s-.5 0-1.1-.1c.6 0 1 0 1.1.1a73.165 73.165 0 0 0 0 0ZM123.9 181.8l-3.2-22.8 35.2-49.3-35.2 49.3 3.2 22.8zM119.9 179l-2.1-15.4 2.1 15.4zM199.6 217.2s-.2 0-.3-.2c-.4-.2-.9-.5-1.4-.9.5.3 1 .7 1.4.9 0 0 .2.1.3.2ZM195 214.2s-.1 0-.2-.1c0 0 .1 0 .2.1ZM129.9 233.9c.2-.1.3-.2.5-.3.7-.4 1.4-.9 2.2-1.3-.8.5-1.5.9-2.2 1.3-.2.1-.3.2-.5.3ZM193.8 213.2c-.1 0-.2-.2-.3-.3 0 0-.2-.1-.2-.2 0 0 .2.1.2.2.1 0 .2.2.3.3ZM193.1 211.3h-1.5 1.7c.5 0 1 0 1.7.1-.7 0-1.3-.1-1.7-.1h-.2ZM157.9 220.8c4.7-1.4 9.9-2.6 15.4-3.3.7 0 1.4-.2 2.1-.3-.7 0-1.4.2-2.1.3-5.6.7-10.7 1.9-15.4 3.3ZM139.9 228.1c-1.7.9-3.3 1.8-4.8 2.6-.4.2-.8.5-1.2.7.4-.2.8-.5 1.2-.7 1.5-.8 3.1-1.7 4.8-2.6.3-.2.7-.4 1.1-.5.3-.2.7-.3 1-.5-.3.2-.7.3-1 .5-.4.2-.7.4-1.1.5ZM181.9 163.4l-33.5 15.7-2.5 2.6-16.5 17.5 19-20.1 33.5-15.7zM182.7 216.7h3.5c4.5 0 9.2.3 14.1.9-4.9-.7-9.6-.9-14.1-.9h-3.5ZM111.2 218.4l-16.4 1.9 16.4-1.9-.1.1.1-.1zM202.9 200.1l-3.6-2.6 3.6 2.6zM196.3 211.6h.1c1.8.2 4.2.4 7.4.8-3.2-.4-5.6-.6-7.4-.8h-.1ZM97.9 235.9l4.7-6.1 7.8-10.3.4-.5-.4.5-7.8 10.3-4.7 6.1s.1 0 .2.1c.5.4.9.8 1.4 1.2-.5-.4-.9-.8-1.4-1.2 0 0-.1 0-.2-.1ZM128 235.1c-.7.4-1.3.8-1.8 1.1.5-.3 1.1-.7 1.8-1.1.4-.2.8-.5 1.2-.8.2-.1.4-.3.6-.4-.2.1-.4.3-.6.4-.4.3-.8.5-1.2.8Z"/><path fill="#f66b30" d="M123.9 181.8c-.9 1.1-1.9 2.2-3 3.4-5.6 6.5-12.4 14.8-18.2 21.8-5.2 6.3-9.5 11.6-11.1 13.6l3.2-.4 16.4-1.8h.1l18.1-19.2 16.5-17.5-11 11.7 11.4-18.6-8.1 3.1 29.2-24 19.6 2.9 2 .3-3.2 1.7-6.1 3.2 1.7 1.2.5.3c38.1-3.9 66.1 20.4 75.3 29.7 2.1 2.1 3.2 3.5 3.3 3.5 0 0-7-22.6-31.1-36.2s33-3 53.9 16.8c3.9 3.7 7.3 8.1 10.1 13.5.3.5.5 1.1.8 1.6.6 1.3 1.2 2.6 1.8 3.8h.3l2.7-.5 18.3-3.5c.3-12.6-4.1-27.2-18.7-41.7-4.5-4.5-10-9.1-16.7-13.6l12.1-2.4s-1.2-1-3.6-2.5c-3.1-1.9-8.2-4.7-15.3-7.1-6.7-2.2-15.2-4.2-25.5-4.9l-10.4 16.1c10.5 2.2 19.7 7.4 26.1 11.8 5.8 4 9.2 7.3 9.2 7.3-.2 0-9.7-4.7-19.2-6.9-13.1-3.2-34.4-5.6-62.2.1s30.5-42 30.5-42l-7.1 2.4-18.4 6.2-24.7 13.9 4.1-6.2 7-10.6-25.9 9.9 1-17.6-3.9 5.4-35.2 49.3 3.2 22.8ZM251.2 96.4c-1.1.4-2.7 1-4.5 1.6l6.4-2.3c-.2 0-.8.3-1.9.7Z"/><path fill="#fff" d="m114.9 167.9 5 11.1-2.1-15.4-2.9 4.3z"/><path fill="#e34614" d="m193.2 148.2 40.7-36.2-2.6 11.8-2.3 10.4 9.3-14.9L253 95.8l-6.4 2.3c-.2 0-.3.1-.5.2-2.1.8-4.5 1.6-6.9 2.5-1.6.6-3.3 1.2-4.8 1.8l-6.8 2.3-4 1.4-30.5 42ZM193.2 148.2zM181.9 163.4l-33.6 15.7-19 20.1-18.1 19.2 70.7-22.6s28.4-10.9 69.2-1.6c3.1.6 6.2 1.4 9.2 2.4s-1.1-1.4-3.3-3.5c-9.2-9.3-37.2-33.6-75.3-29.7ZM110.4 219.5l.4-.5-.4.5zM294.1 192.3c-.3-.5-.5-1.1-.8-1.6-2.7-5.4-6.2-9.8-10.1-13.5-20.9-19.8-53.9-16.8-53.9-16.8s18.4-.1 36.8 12.3c8.1 5.5 16.3 13.4 22.9 24.9l4-.8 2.9-.6c-.5-1.2-1.1-2.5-1.8-3.8Z"/><path fill="#fff" d="m251.7 211.7-19 3.7-.3 58.5 18.9-3.7.4-58.5zM305.3 201.4c-1.9.4-42.8 8.3-45.8 8.8l-.2 29.5-.2 29 9.3-1.8 9.7-1.9v-18.7h.1l23.4-4.5v-14.9h.1l-23.5 4.5v-10l26.9-5.2v-2.7c0-3.9 0-9.4.1-12.2ZM338.6 214.4l-.5.9-11.4-18-6.9 1.3-12.1 2.3 5.9 9.3 15 23.7-.1 21.4 19-3.6.1-21.2 21.4-41.1.1-.3-6.8 1.3-12.2 2.4-11.5 21.6zM156.9 284.5c1.3-1 2.5-2.1 3.6-3.3l.3-.3c1-1.1 2-2.3 2.8-3.6 1.4-2.1 2.6-4.4 3.5-6.8 0-.1.1-.3.2-.4 2-5.7 2.4-11.8 1.2-18.4-.8-4.1-2.3-7.6-4.5-10.6l-1.5-1.8c-.7-.7-1.4-1.4-2.1-2-1.2-1-2.4-1.8-3.7-2.6-1.4-.8-3-1.5-4.6-2-12.6 4.9-24.6 16.5-24.6 16.5l-16.9-1.3c-.8 1.2-1.4 2.5-2 3.8-.4.9-.8 1.7-1.1 2.7-1.4 4-2.1 8.3-1.9 12.7 0 1.9.3 3.7.7 5.7.4 2.3 1.1 4.4 2 6.3.6 1.3 1.3 2.5 2 3.6.6.9 1.3 1.7 2 2.5.6.7 1.3 1.3 2 1.9 1.7 1.4 3.5 2.6 5.6 3.6 1.3.6 2.7 1.1 4.1 1.5 3.1.8 6.4 1.2 10 1 1.8 0 3.7-.3 5.7-.7 6.8-1.3 12.6-3.9 17.5-7.8Zm-27.5-9.2c-1.6-1.1-2.7-2.5-3.5-4.4-.4-.9-.7-1.9-.9-3-.2-1.2-.4-2.3-.4-3.5v-2.2c0-1.1.2-2.2.5-3.3.4-1.9 1.2-3.6 2.2-5.2.5-.7 1.1-1.5 1.7-2.1 1.9-2 4.4-3.3 7.4-3.8 3.4-.7 6.3-.2 8.7 1.4s0 0 .1.1c1.5 1.1 2.6 2.5 3.4 4.3.4.9.7 1.9.9 3 .3 1.3.4 2.6.4 3.9 0 1.3 0 2.5-.3 3.7 0 .4-.2.9-.3 1.3-.2.9-.5 1.8-.8 2.6-.5 1.2-1.2 2.4-2 3.4-.3.4-.7.9-1.1 1.3-.4.4-.7.7-1.1 1-1.7 1.4-3.8 2.4-6.3 2.8-3.4.7-6.3.2-8.6-1.4ZM94.1 246.6l-.4-.5-2.7-3.3-14.8 2.8-18.8 3.6-.3 58.5 18.9-3.6.2-18.8 12.8-2.4 10.6-2.1v-4.7l.1-7v-3.2l-.7.2-.7.1-22.1 4.3.1-10 23.1-4.5 3.7-.7v-2.5l.1-5.5-1.2-.1-7.9-.6z"/><path fill="#bfbfbf" d="m110.3 247.9 16.9 1.3s12-11.6 24.6-16.5c-.4-.1-.8-.3-1.2-.4h-.2c-2.2.8-4.3 1.7-6.3 2.6 0 0-.2 0-.3.1-7.7 3.6-13.1 7.8-16.7 10-.3.2-.5.3-.8.5H125l-13.5.5c-.4.6-.9 1.2-1.3 1.9Z"/><path d="m102 247.2 1.2.1v-1l-9.1.3 7.9.6z"/><path fill="#fff" d="m226.8 275 1-.2-1-1.2-1.4-1.7-11.1-13.5-7.1-8.7 18.6-30.5 1.6-2.8-.6.1-1 .2-10.4 2-6.6 1.3-1.1.2-1.7.4-.1.1v.2l-3.7 6.3-5.5 9.8-9.4-12.5-.3-.3-17.9 3.5-2.3.4.4.6 19.1 23.9-21 34.2 13.3-2.5 9.4-1.8 9.5-16.9 9.7 13.1 7.5-1.4 10.7-2.1 1.4-.2z"/><path fill="none" d="M116.1 152.6"/><path d="m181.9 163.4-.5-.3-1.7-1.2 6.1-3.2 3.2-1.7-2-.3-19.6-2.9-29.2 24 8.1-3.1-11.4 18.6 11-11.7 2.4-2.6 33.6-15.7Zm-24 7.8 7.7-8.1 2.7-2.8 1.8-1.9 3.1 1.9.7.5 3.9 2.4-9.4 4.2-2.9 1.3-9.2 4.1 1.3-1.3.3-.3Z"/><path d="M115.4 182.5c-11.7 13.2-25.5 29.2-37.8 43.8l8.4 10.3-35.5 6.9-.5 72.7 32.9-6.4v-18.7c.1 0 21.6-4.1 21.6-4.1.7 1 1.5 1.9 2.3 2.9 4 4.3 9 7.4 15 9 3.1.8 6.4 1.3 9.9 1.3h1.7l61.6-11.9 4.5-7.9 4.6 6.2 80.8-15.6v-18.6l14.2-2.7 9.2-1.8v-8.6l.2-16.1 4.1-.8 3.7 5.8 5 7.9v24.4c-.1 0-.1 3.5-.1 3.5l32.9-6.4v-25.2l27.5-52.7-36.5 7-7.9 14.8-7.5-11.9-2.4.5c-1.7-31.6-31.2-50.2-31.2-50.2l13.2-1.7c-2-3-21.1-23-58.9-26.1l20-31-76.3 26 3.2-11.4-28.7 11.6-.2-31.5-60.9 91.2 7.6 15.4Zm-12.2 64.8v8l-3.7.7-23.1 4.5v10l22.1-4.3h.6c0-.1.8-.3.8-.3V280.8l-10.6 2-12.8 2.5V304h-.1l-19 3.7.4-58.5 18.7-3.6 14.8-2.9L94 246l.4.5 9.1-.3v1Zm53.7 37.2c-4.8 3.9-10.7 6.5-17.5 7.8-2 .4-3.9.6-5.7.7-3.5.2-6.9-.1-10-1-1.4-.4-2.8-.9-4.1-1.5-2.1-.9-3.9-2.1-5.6-3.6-.7-.6-1.3-1.2-2-1.9-.7-.8-1.4-1.6-2-2.5-.8-1.1-1.5-2.3-2-3.6-.9-1.9-1.5-4-2-6.3-.4-1.9-.6-3.8-.7-5.7-.2-4.4.4-8.7 1.9-12.7.3-.9.7-1.8 1.1-2.7.6-1.3 1.3-2.6 2-3.8.4-.6.8-1.2 1.3-1.9l13.5-.4h1.3c.2-.2.5-.3.8-.5 3.6-2.2 9-6.4 16.7-10 0 0 .2 0 .3-.1 1.9-.9 4-1.8 6.3-2.6h.2c.4.1.8.2 1.2.4 1.7.5 3.2 1.2 4.6 2 1.3.7 2.6 1.6 3.7 2.6.7.6 1.4 1.3 2.1 2l1.5 1.8c2.2 3 3.7 6.5 4.5 10.6 1.3 6.5.9 12.7-1.2 18.4 0 .1-.1.3-.2.4-.9 2.4-2.1 4.7-3.5 6.8-.9 1.3-1.8 2.4-2.8 3.6l-.3.3c-1.1 1.2-2.3 2.3-3.6 3.3Zm57.8-7.2-7.5 1.4-9.8-13.1-9.4 16.8-9.4 1.8-13.3 2.6 20.9-34.3-19.1-23.9-.4-.5 2.4-.5 17.9-3.5.2.3 9.4 12.5 5.6-9.8 3.6-6.4c0-.1.1-.3.1-.3l1.7-.3 1.1-.2 6.7-1.3 10.3-2 1-.2h.7c0-.1-1.7 2.7-1.7 2.7l-18.5 30.5 7.1 8.7 11.1 13.5 1.4 1.8.9 1.1-1 .2-1.4.3-10.6 2.1Zm36.6-7.1-19 3.7.4-58.5 19-3.7-.4 58.5Zm53.9-53.9-26.8 5.2v10l23.5-4.5v14.9h-.1l-23.4 4.5v18.7c-.1 0-9.8 1.9-9.8 1.9l-9.3 1.8.2-29 .2-29.5c3-.6 43.8-8.5 45.8-8.8 0 2.8 0 8.3-.1 12.2v2.7Zm44.9-23.6 12.3-2.4 6.8-1.3-.2.3-21.4 41.1v21.2l-19 3.7v-21.5c.1 0-14.9-23.6-14.9-23.6l-5.9-9.3 12.2-2.4 6.9-1.3 11.4 18 .5-.9 11.5-21.6Zm-194.2-83 3.9-5.4-1 17.6 25.9-9.9-7 10.6-4.1 6.2 24.7-13.9 18.4-6.2 7.1-2.4 4-1.4 6.8-2.3c1.5-.6 3.2-1.2 4.8-1.8 2.4-.9 4.8-1.8 6.9-2.5.2 0 .3-.1.5-.2 1.8-.7 3.4-1.2 4.5-1.6 1.2-.4 1.9-.7 1.9-.7l-14.7 23.5-9.3 14.9 2.3-10.4 2.6-11.8-40.7 36.2c27.9-5.7 49.2-3.3 62.2-.1 9.5 2.3 18.9 6.8 19.2 6.9s-3.5-3.4-9.2-7.3c-6.4-4.4-15.6-9.6-26.1-11.8l10.4-16.1c10.3.7 18.8 2.6 25.5 4.9 7.2 2.4 12.2 5.1 15.3 7.1 2.4 1.5 3.6 2.5 3.6 2.5l-12.1 2.4c6.6 4.5 12.2 9 16.7 13.6 14.5 14.6 19 29.1 18.7 41.7l-18.3 3.5-2.7.5h-.3l-2.9.6-4 .8c-6.6-11.5-14.7-19.4-22.9-24.9-18.4-12.4-36.7-12.3-36.8-12.3 24.1 13.6 31.1 36.1 31.1 36.2-3-1-6.1-1.8-9.2-2.4 0 0-.5 0-1.1-.1-4.8-.4-25-1.7-50.8 3.5l3.6 2.6 5 3.6 15.1 11c-2.3-.3-4.4-.6-6.4-.8-5.2-.7-9.4-1.2-12.7-1.5-3.2-.4-5.6-.6-7.4-.8h-1.3c-.7 0-1.3-.1-1.7-.1h-1.7c.4.5.9 1 1.6 1.5 0 0 .2.1.2.2.1 0 .2.2.3.3.3.2.6.5 1 .7 0 0 .1 0 .2.1l.9.6c.2.2.5.3.7.5.5.3.9.6 1.3.9.5.3 1 .6 1.4.9 0 0 .2.1.3.2h.1c.3.2.4.3.4.3-4.9-.7-9.6-.9-14.1-.9H183c-2 0-3.9.2-5.8.4-.5 0-.9 0-1.4.1-.7 0-1.4.2-2.1.3-5.6.7-10.7 1.9-15.4 3.3-6.1 1.8-11.4 4.1-16 6.3-.3.2-.7.3-1 .5-.4.2-.7.4-1.1.5-1.7.9-3.3 1.8-4.8 2.6-.4.2-.8.5-1.2.7-.4.3-.9.5-1.3.8-.8.5-1.5.9-2.2 1.3-.2.1-.3.2-.5.3 0 0-.1 0-.2.1-.2.1-.4.3-.6.4-.4.3-.8.5-1.2.8-.7.4-1.3.8-1.8 1.1-1 .7-1.7 1.1-2.1 1.2l-23.3.8c-.4-.3-.9-.7-1.3-1.1-.5-.4-.9-.8-1.4-1.2 0 0-.1 0-.2-.1l4.7-6.1 7.8-10.3.4-.5.3-.4-16.4 1.7-3.2.4c1.7-2.1 6-7.3 11.1-13.6 5.8-7 12.6-15.3 18.2-21.8 1-1.2 2-2.4 3-3.4l-3.2-22.8 35.2-49.3Zm-36 69.3-5-11.1 2.9-4.3 2.1 15.4Z"/><path d="M145.5 272.8c.4-.4.8-.8 1.1-1.3.8-1 1.5-2.2 2-3.4.3-.8.6-1.7.8-2.6.1-.4.2-.9.3-1.3.2-1.2.3-2.5.3-3.7 0-1.3-.2-2.6-.4-3.9-.2-1.1-.5-2.1-.9-3-.8-1.8-1.9-3.2-3.4-4.3l-.1-.1c-2.3-1.6-5.2-2.1-8.7-1.4-3 .6-5.5 1.9-7.4 3.8-.6.7-1.2 1.4-1.7 2.1-1 1.5-1.8 3.2-2.2 5.2-.3 1.1-.4 2.2-.5 3.3v2.2c0 1.1.2 2.3.4 3.5.2 1.1.5 2.1.9 3 .8 1.8 2 3.3 3.5 4.4 2.3 1.6 5.2 2.1 8.6 1.4 2.5-.5 4.5-1.4 6.3-2.8.4-.3.8-.7 1.1-1Z"/><path fill="#fff" d="m156.4 172.8 9.2-4.1 2.9-1.3 9.4-4.2-3.9-2.4-.8-.5-3.1-1.9-1.8 1.9-2.6 2.8-7.8 8.1-.3.3-1.2 1.3zM251.2 194.1c-40.8-9.3-69.2 1.6-69.2 1.6l-70.7 22.6h-.1l-.3.5-.4.5-7.8 10.3-4.7 6.1s.1 0 .2.1c.5.4.9.8 1.4 1.2.4.4.9.7 1.3 1.1l23.3-.8c.4-.1 1.1-.5 2.1-1.2.5-.3 1.1-.7 1.8-1.1.4-.2.8-.5 1.2-.8.2-.1.4-.3.6-.4 0 0 .1 0 .2-.1.2-.1.3-.2.5-.3.7-.4 1.4-.9 2.2-1.3.4-.3.8-.5 1.3-.8.4-.2.8-.5 1.2-.7 1.5-.8 3.1-1.7 4.8-2.6.3-.2.7-.4 1.1-.5.3-.2.7-.3 1-.5 4.5-2.2 9.9-4.5 16-6.3 4.7-1.4 9.9-2.6 15.4-3.3.7 0 1.4-.2 2.1-.3.5 0 .9-.1 1.4-.1 1.9-.2 3.8-.3 5.8-.4h3.5c4.5 0 9.2.3 14.1.9s-.2 0-.4-.3h-.1s-.2 0-.3-.2c-.4-.2-.9-.5-1.4-.9-.4-.3-.9-.6-1.3-.9-.2-.2-.5-.3-.7-.5l-.9-.6s-.1 0-.2-.1c-.3-.2-.7-.5-1-.7-.1 0-.2-.2-.3-.3 0 0-.2-.1-.2-.2-.6-.5-1.2-1.1-1.6-1.5s.4 0 1.5 0h.2c.5 0 1 0 1.7.1h1.3c1.8.2 4.2.4 7.4.8 3.3.4 7.5.9 12.7 1.5 2 .3 4.1.5 6.4.8l-15.1-11-5-3.6-3.6-2.6c25.8-5.2 46-3.9 50.8-3.5.6 0 1 0 1.1.1Z"/></g></svg>