<svg width="212" height="212" viewBox="0 0 212 212" fill="none" xmlns="http://www.w3.org/2000/svg">
<path d="M105.56 211.12C163.859 211.12 211.12 163.859 211.12 105.56C211.12 47.2608 163.859 0 105.56 0C47.2608 0 0 47.2608 0 105.56C0 163.859 47.2608 211.12 105.56 211.12Z" fill="#7559FF"/>
<path d="M97.7306 173.119L99.8383 160.017C96.5262 159.716 93.214 159.113 90.2029 158.361L87.7941 173.119H84.0303L86.5897 157.306C81.3203 155.499 76.8037 152.939 72.8894 149.777L68.8245 121.313C75.1476 132.457 81.6214 140.59 88.5469 146.011L94.87 107.759L93.8162 107.308C79.8147 101.434 73.6421 92.5487 73.6421 80.049C73.6421 63.6337 86.138 52.0376 104.505 50.5316L106.613 37.5801H110.377L108.27 50.381H108.721C112.033 50.381 115.044 50.6822 118.055 51.134L120.314 37.5801H123.926L121.517 51.8869C127.54 53.393 133.11 55.9531 138.38 59.8688V82.0068C132.96 71.4648 126.938 64.5373 120.163 60.4711L114.141 96.6148L121.517 99.7774C134.465 105.35 142.294 114.536 142.294 128.692C142.294 147.216 127.54 160.318 106.763 160.318H103.452L101.344 173.119H97.7306ZM85.5358 72.3684C85.5358 80.3501 89.6007 85.7717 97.8811 89.8379L103.452 56.1037C91.7084 56.2544 85.5358 63.9349 85.5358 72.3684ZM91.859 148.421C94.87 150.378 98.0316 151.885 101.043 152.788L107.667 113.181L98.4833 109.265L91.859 148.421ZM101.344 91.3439L110.678 95.2594L116.851 58.8145C113.689 57.4591 110.528 56.5555 107.215 56.2544L101.344 91.3439ZM104.505 153.692C106.763 154.294 109.022 154.444 111.28 154.444C122.421 154.444 129.948 147.667 129.948 136.072C129.948 127.788 125.131 120.259 113.689 115.59L111.13 114.536L104.505 153.692Z" fill="white"/>
</svg>
