<?xml version="1.0" encoding="utf-8"?>
<!-- Generator: Adobe Illustrator 27.7.0, SVG Export Plug-In . SVG Version: 6.00 Build 0)  -->
<svg version="1.1" id="Layer_1" xmlns="http://www.w3.org/2000/svg" xmlns:xlink="http://www.w3.org/1999/xlink" x="0px" y="0px"
	 viewBox="0 0 400 400" style="enable-background:new 0 0 400 400;" xml:space="preserve">
<style type="text/css">
	.st0{fill:#004EE6;}
</style>
<path class="st0" d="M400,200c0,110.5-89.5,200-200,200S0,310.5,0,200S89.5,0,200,0S400,89.5,400,200z M195.5,50.5l-10.6-0.3
	c-5.8-0.1-10.8,0.1-11.2,0.4c-0.4,0.4-0.7,13-0.7,28s-0.4,27.5-0.8,27.8c-0.5,0.3-2.8,0.8-5,1.2l-4.2,0.7V90.6
	c0-13-0.3-17.6-1.2-17.6c-0.7,0-5.3,2-10.3,4.5c-20.7,10.2-36.9,26.6-48.1,48.7c-4.1,8.2-9.3,24.1-10.9,33.5l-0.7,4.3h109.1
	c107.3,0,109.1,0,109.1-1.9c0-2.7-2.5-13.3-5.1-21.7c-6.6-21.3-23.8-43.6-43.8-56.8c-8.1-5.3-19.1-10.7-20.3-9.9
	c-0.5,0.2-0.8,7.8-0.8,16.9V107h-5h-5l-0.2-28.3l-0.3-28.2H218h-11.5l-0.5,14l-0.5,14H201h-4.5l-0.5-14L195.5,50.5z M329.2,174.5
	H214.3c-115.3-0.1-137,0.1-140.9,1c-4.4,1-6.9,13.8-4.3,21.3c2.1,5.9-4.2,5.7,133.7,5.7h126.4l2.9-3.3c2.7-3,2.9-3.9,2.9-10.7
	s-0.2-7.7-2.9-10.7L329.2,174.5z M72,222.9l-3.5,0.6l-0.3,11.2L67.9,246h14h13.9l0.7,3.7c0.9,4.8,4.8,14.9,9.2,23.6l3.4,6.9
	l-8.6,8.7c-4.8,4.9-8.5,9.6-8.5,10.7c0,2.5,29.9,32.4,32.4,32.4c1,0,5.6-3.9,10.2-8.6l8.5-8.6l9.7,4.5c5.3,2.5,13,5.6,16.9,6.9
	l7.3,2.3v12.7c0,7,0.4,12.9,0.9,13.2c1.5,0.9,45.5,1.2,46.9,0.3c0.8-0.6,1.2-4.5,1.2-13.5v-12.7l7.7-2.3c4.3-1.3,11.9-4.5,17-7
	l9.3-4.6l9.4,9.3l9.5,9.2l16.5-16.8l16.5-16.8l-9.2-9.2l-9.1-9.2l4.8-10c2.6-5.4,5.8-13.2,7.1-17.3l2.3-7.3l13.6-0.3l13.6-0.3v-11.4
	V223h-32.9h-32.9l-0.6,2.2c-0.3,1.3-0.6,3.9-0.6,5.9c0,4.7-3.4,15.9-7.1,22.9c-10.9,21.4-33.7,34.9-58.9,35.1
	c-10.9,0.1-20.3-2.1-31-7.3c-6.8-3.3-10.2-5.9-16.7-12.4c-10.4-10.5-15.4-20.2-18.3-35.3c-1.1-5.7-2.3-10.7-2.6-11.2
	C132.8,221.9,77.5,221.9,72,222.9z"/>
</svg>
