<?xml version="1.0" encoding="utf-8"?>
<!-- Generator: Adobe Illustrator 28.0.0, SVG Export Plug-In . SVG Version: 6.00 Build 0)  -->
<svg version="1.1" id="present" xmlns="http://www.w3.org/2000/svg" xmlns:xlink="http://www.w3.org/1999/xlink" x="0px" y="0px"
	 viewBox="0 0 512 512" enable-background="new 0 0 512 512" xml:space="preserve">
<g>
	<g>
		<path fill="#ED000D" d="M212.1,38.5c-10.5-11.6-42.2-46.2-72.3-36.9c-2.2,0.7-18.7,5.9-25.8,20.6c-4.8,10-1.4,16.2-7.2,22.8
			c-7.1,8.1-16.1,3.3-25.8,9.8C70.2,62,65.6,78.5,66.5,89.5c2.5,27.1,41.6,46.1,71.2,49.9c43.9,5.7,98.4-17.3,102.2-49.9
			C242.1,71.4,228,55.9,212.1,38.5z"/>
		<linearGradient id="SVGID_1_" gradientUnits="userSpaceOnUse" x1="153.2587" y1="140.2382" x2="153.2587" y2="9.094947e-13">
			<stop  offset="0" style="stop-color:#B71518"/>
			<stop  offset="1" style="stop-color:#F0831E"/>
		</linearGradient>
		<path opacity="0.85" fill="url(#SVGID_1_)" d="M212.1,38.5c-10.5-11.6-42.2-46.2-72.3-36.9c-2.2,0.7-18.7,5.9-25.8,20.6
			c-4.8,10-1.4,16.2-7.2,22.8c-7.1,8.1-16.1,3.3-25.8,9.8C70.2,62,65.6,78.5,66.5,89.5c2.5,27.1,41.6,46.1,71.2,49.9
			c43.9,5.7,98.4-17.3,102.2-49.9C242.1,71.4,228,55.9,212.1,38.5z"/>
		<path opacity="7.000000e-02" enable-background="new    " d="M82,102.5c-1-10.9,3.6-27.4,14.5-34.7c9.7-6.5,18.7-1.7,25.8-9.8
			c5.8-6.6,2.4-12.8,7.2-22.8c7.1-14.7,23.6-20,25.8-20.6c15.7-4.8,31.8,2.2,45.1,11.8c-14.8-14.2-38.1-31.7-60.6-24.8
			c-2.2,0.7-18.7,5.9-25.8,20.6c-4.8,10-1.4,16.2-7.2,22.8c-7.1,8.1-16.1,3.3-25.8,9.8C70.2,62,65.6,78.5,66.5,89.5
			c1.2,13.3,11.3,24.7,24.8,33.3C86.1,116.8,82.7,109.9,82,102.5z"/>
		<path fill="#ED000D" d="M299.9,38.5c10.5-11.6,42.2-46.2,72.3-36.9c2.2,0.7,18.7,5.9,25.8,20.6c4.8,10,1.4,16.2,7.2,22.8
			c7.1,8.1,16.1,3.3,25.8,9.8c10.8,7.3,15.4,23.8,14.5,34.7c-2.5,27.1-41.6,46.1-71.2,49.9c-43.9,5.7-98.4-17.3-102.2-49.9
			C269.9,71.4,284,55.9,299.9,38.5z"/>
		
			<linearGradient id="SVGID_00000036938672639129419570000009923888993945606829_" gradientUnits="userSpaceOnUse" x1="358.7413" y1="140.2382" x2="358.7413" y2="9.094947e-13">
			<stop  offset="0" style="stop-color:#B71518"/>
			<stop  offset="1" style="stop-color:#F0831E"/>
		</linearGradient>
		<path opacity="0.85" fill="url(#SVGID_00000036938672639129419570000009923888993945606829_)" d="M299.9,38.5
			c10.5-11.6,42.2-46.2,72.3-36.9c2.2,0.7,18.7,5.9,25.8,20.6c4.8,10,1.4,16.2,7.2,22.8c7.1,8.1,16.1,3.3,25.8,9.8
			c10.8,7.3,15.4,23.8,14.5,34.7c-2.5,27.1-41.6,46.1-71.2,49.9c-43.9,5.7-98.4-17.3-102.2-49.9C269.9,71.4,284,55.9,299.9,38.5z"/>
		<path opacity="7.000000e-02" enable-background="new    " d="M430,102.5c1-10.9-3.6-27.4-14.5-34.7c-9.7-6.5-18.7-1.7-25.8-9.8
			c-5.8-6.6-2.4-12.8-7.2-22.8c-7.1-14.7-23.6-20-25.8-20.6c-15.7-4.8-31.8,2.2-45.1,11.8c14.8-14.2,38.1-31.7,60.6-24.8
			c2.2,0.7,18.7,5.9,25.8,20.6c4.8,10,1.4,16.2,7.2,22.8c7.1,8.1,16.1,3.3,25.8,9.8c10.8,7.3,15.4,23.8,14.5,34.7
			c-1.2,13.3-11.3,24.7-24.8,33.3C425.9,116.8,429.3,109.9,430,102.5z"/>
		<ellipse fill="#ED000D" cx="255.6" cy="102" rx="44.9" ry="38.5"/>
		
			<radialGradient id="SVGID_00000026121696956720413620000016435648199205737617_" cx="255.6" cy="104.662" r="40.9608" gradientTransform="matrix(1 0 0 1.0511 0 -8.0474)" gradientUnits="userSpaceOnUse">
			<stop  offset="0" style="stop-color:#D51D23"/>
			<stop  offset="1" style="stop-color:#B71518;stop-opacity:0.5"/>
		</radialGradient>
		
			<ellipse opacity="0.85" fill="url(#SVGID_00000026121696956720413620000016435648199205737617_)" cx="255.6" cy="102" rx="44.9" ry="38.5"/>
	</g>
	<path opacity="0.11" enable-background="new    " d="M285.1,75.6c1.5,3,2.3,6.2,2.3,9.6c0,14-13.9,25.3-31,25.3s-31-11.3-31-25.3
		c0-3.4,0.8-6.7,2.3-9.6c-9.9,6.7-16.2,16.9-16.2,28.2c0,20.2,20.1,36.6,44.9,36.6s44.9-16.4,44.9-36.6
		C301.3,92.5,295,82.3,285.1,75.6z"/>
	
		<linearGradient id="SVGID_00000093860767199967004680000017746830172232991151_" gradientUnits="userSpaceOnUse" x1="61.6389" y1="144.1756" x2="450.2689" y2="532.8056">
		<stop  offset="0" style="stop-color:#FFE08C"/>
		<stop  offset="1" style="stop-color:#7A603D"/>
	</linearGradient>
	<path fill="url(#SVGID_00000093860767199967004680000017746830172232991151_)" d="M458.9,512H53.1c-17.7,0-32-16-32-35.7V184.7
		h469.7v291.6C490.8,496,476.5,512,458.9,512z"/>
	
		<linearGradient id="SVGID_00000156556519805471427500000007601040985427252364_" gradientUnits="userSpaceOnUse" x1="61.6389" y1="144.1756" x2="450.2689" y2="532.8056">
		<stop  offset="0" style="stop-color:#FFFF00"/>
		<stop  offset="1" style="stop-color:#FF4300"/>
	</linearGradient>
	<path fill="url(#SVGID_00000156556519805471427500000007601040985427252364_)" d="M458.9,512H53.1c-17.7,0-32-16-32-35.7V184.7
		h469.7v291.6C490.8,496,476.5,512,458.9,512z"/>
	
		<linearGradient id="SVGID_00000030464942597426782900000007088557202776796348_" gradientUnits="userSpaceOnUse" x1="255.95" y1="184.7144" x2="255.95" y2="512">
		<stop  offset="0" style="stop-color:#FFE08C"/>
		<stop  offset="1" style="stop-color:#7A603D"/>
	</linearGradient>
	<path opacity="0.65" fill="url(#SVGID_00000030464942597426782900000007088557202776796348_)" d="M458.9,512H53.1
		c-17.7,0-32-16-32-35.7V184.7h469.7v291.6C490.8,496,476.5,512,458.9,512z"/>
	
		<linearGradient id="SVGID_00000113338434927827405260000013710253411004768137_" gradientUnits="userSpaceOnUse" x1="174.1819" y1="23.6485" x2="337.8029" y2="307.0484">
		<stop  offset="0" style="stop-color:#FFE08C"/>
		<stop  offset="1" style="stop-color:#7A603D"/>
	</linearGradient>
	<path fill="url(#SVGID_00000113338434927827405260000013710253411004768137_)" d="M496.6,214.1H15.3c-5.1,0-9.3-4.9-9.3-11.1v-75.3
		c0-6.1,4.1-11.1,9.3-11.1h481.4c5.1,0,9.3,4.9,9.3,11.1V203C505.9,209.2,501.8,214.1,496.6,214.1z"/>
	
		<linearGradient id="SVGID_00000025419171467937926040000017173999245714895785_" gradientUnits="userSpaceOnUse" x1="174.1819" y1="23.6485" x2="337.8029" y2="307.0484">
		<stop  offset="0" style="stop-color:#FFFF00"/>
		<stop  offset="1" style="stop-color:#FF4300"/>
	</linearGradient>
	<path fill="url(#SVGID_00000025419171467937926040000017173999245714895785_)" d="M496.6,214.1H15.3c-5.1,0-9.3-4.9-9.3-11.1v-75.3
		c0-6.1,4.1-11.1,9.3-11.1h481.4c5.1,0,9.3,4.9,9.3,11.1V203C505.9,209.2,501.8,214.1,496.6,214.1z"/>
	
		<linearGradient id="SVGID_00000163793468359350701180000001740743799433942968_" gradientUnits="userSpaceOnUse" x1="256" y1="116.6278" x2="256" y2="214.0954">
		<stop  offset="0" style="stop-color:#FFE08C"/>
		<stop  offset="1" style="stop-color:#7A603D"/>
	</linearGradient>
	<path opacity="0.65" fill="url(#SVGID_00000163793468359350701180000001740743799433942968_)" d="M496.6,214.1H15.3
		c-5.1,0-9.3-4.9-9.3-11.1v-75.3c0-6.1,4.1-11.1,9.3-11.1h481.4c5.1,0,9.3,4.9,9.3,11.1V203C505.9,209.2,501.8,214.1,496.6,214.1z"
		/>
	<rect x="220.9" y="116.7" fill="#ED000D" width="70.2" height="395.3"/>
	
		<linearGradient id="SVGID_00000096741039280332365170000003771281152396115358_" gradientUnits="userSpaceOnUse" x1="256" y1="116.7346" x2="256" y2="512">
		<stop  offset="1.531093e-03" style="stop-color:#D51D23"/>
		<stop  offset="1" style="stop-color:#A02529"/>
	</linearGradient>
	
		<rect x="220.9" y="116.7" opacity="0.85" fill="url(#SVGID_00000096741039280332365170000003771281152396115358_)" width="70.2" height="395.3"/>
	<ellipse opacity="0.11" enable-background="new    " cx="256" cy="341.7" rx="4.6" ry="108.4"/>
	<rect x="21.2" y="207.9" opacity="0.11" enable-background="new    " width="469.7" height="9.1"/>
</g>
</svg>
