<?xml version="1.0" encoding="utf-8"?>
<!-- Generator: Adobe Illustrator 28.0.0, SVG Export Plug-In . SVG Version: 6.00 Build 0)  -->
<svg version="1.1" id="Layer_1" xmlns="http://www.w3.org/2000/svg" xmlns:xlink="http://www.w3.org/1999/xlink" x="0px" y="0px"
	 viewBox="0 0 700 450" style="enable-background:new 0 0 700 450;" xml:space="preserve">
<style type="text/css">
	.st0{fill:#FFFFFF;}
	.st1{fill:#FF4545;}
	.st2{fill:#1592FF;}
	.st3{fill:#2E6BD4;}
</style>
<g id="IOTA">
	<g id="Layer_2_00000003090900660726420480000007466542248900431784_">
		<g id="Layer_1-2">
			<circle class="st0" cx="486" cy="225.2" r="214"/>
			<g id="Layer_2-2">
				<g id="Layer_1-2-2">
					<path d="M556.5,95.5c10.6,0,19.3-8.8,19.3-19.6s-8.6-19.6-19.3-19.6c-10.6,0-19.3,8.8-19.3,19.6S545.8,95.4,556.5,95.5
						L556.5,95.5z M562.2,146.3c9.1,0,16.4-7.5,16.3-16.6l0,0c0-9.1-7.3-16.6-16.3-16.6s-16.3,7.4-16.3,16.6
						S553.2,146.3,562.2,146.3z M607,152.8c9,0,16.3-7.4,16.3-16.5s-7.3-16.5-16.3-16.5s-16.3,7.4-16.3,16.5S598,152.8,607,152.8
						L607,152.8z M601.7,196.3c7.7,0,13.9-6.3,13.9-14.1s-6.2-14.1-13.9-14.1s-13.9,6.3-13.9,14.1S594,196.3,601.7,196.3
						L601.7,196.3z M637.5,210.4c7.8,0,14-6.4,14-14.2s-6.3-14.2-14-14.2c-7.8,0-14.1,6.4-14,14.2l0,0l0,0
						C623.5,204,629.8,210.4,637.5,210.4z M556.6,190.4c7.9,0,14.3-6.5,14.3-14.4l0,0c0-8-6.4-14.5-14.3-14.5s-14.3,6.5-14.3,14.5
						c0,7.9,6.4,14.5,14.3,14.5l0,0V190.4z M543.6,225c6.6,0,12-5.4,12-12.1c0-6.6-5.3-12.1-11.9-12.1l0,0c-6.6,0-12,5.4-12,12.1
						S537,225,543.6,225L543.6,225z M588.5,231.2c6.6,0,11.9-5.4,11.9-12l0,0c0-6.7-5.3-12.1-11.9-12.1s-11.9,5.4-11.9,12.1
						c0,6.6,5.2,12,11.7,12.1h0.1l0,0L588.5,231.2z M624.3,245.2c6.6,0,12-5.4,12-12.2s-5.3-12.2-12-12.2s-12,5.4-12,12.2
						C612.3,239.6,617.6,245.1,624.3,245.2L624.3,245.2L624.3,245.2z M606.6,271.5c5.6,0,10.1-4.6,10.1-10.2s-4.5-10.3-10.1-10.3
						s-10.1,4.6-10.1,10.3C596.5,267,601,271.5,606.6,271.5L606.6,271.5z M570.7,257.7c5.7,0,10.3-4.7,10.3-10.5
						s-4.6-10.5-10.3-10.5s-10.3,4.7-10.3,10.5S565.1,257.7,570.7,257.7z M525.8,251.2c5.7,0,10.3-4.8,10.3-10.5
						c0-5.6-4.6-10.2-10.3-10.3l0,0c-5.7,0-10.3,4.8-10.3,10.5C515.5,246.5,520.1,251.1,525.8,251.2L525.8,251.2z M550.8,275.9
						c4.9,0,8.9-4.1,8.9-9s-3.9-9-8.9-9l0,0c-4.9,0-8.9,4.1-8.9,9s3.9,9,8.8,9H550.8L550.8,275.9z M586.7,290c4.9,0,9-4.1,9-9.1
						s-4.1-9-9.1-9s-9,4.1-9,9.1S581.7,290,586.7,290z M566.5,300.5c3.9,0,7.1-3.2,7.1-7.2s-3.2-7.2-7.1-7.2c-3.9,0-7.1,3.2-7.1,7.2
						C559.4,297.2,562.6,300.5,566.5,300.5L566.5,300.5z M547.3,306.2c3.6,0,6.4-2.9,6.4-6.5l0,0c0-3.6-2.9-6.5-6.4-6.5
						c-3.6,0-6.4,2.9-6.4,6.5l0,0c0,3.6,2.8,6.5,6.3,6.5H547.3L547.3,306.2z M530.5,287.4c4.2,0,7.7-3.5,7.7-7.8s-3.4-7.8-7.7-7.8
						s-7.7,3.5-7.7,7.8C522.8,283.8,526.2,287.3,530.5,287.4L530.5,287.4z M505.8,269.7c4.9,0,8.9-4,8.9-9c0-4.9-3.9-9-8.9-9l0,0
						c-4.9,0-8.9,4-8.9,9C496.9,265.6,500.9,269.7,505.8,269.7L505.8,269.7L505.8,269.7z M578.9,382.6c10.6,0,19.2-8.7,19.2-19.5
						s-8.6-19.5-19.2-19.5s-19.2,8.7-19.2,19.5S568.3,382.6,578.9,382.6z M530.2,358c8.8,0,16-7.3,16-16.2s-7.2-16.2-16-16.2
						s-16,7.3-16,16.2S521.4,358,530.2,358L530.2,358z M502.4,393.7c8.9,0,16.1-7.3,16.1-16.4s-7.2-16.4-16.1-16.4
						s-16.1,7.3-16.1,16.4C486.3,386.3,493.5,393.6,502.4,393.7L502.4,393.7z M494,327.9c7.8,0,14-6.4,14-14.2l0,0
						c0-7.8-6.2-14.1-14-14.2l0,0c-7.8,0-14,6.4-14,14.2l0,0C480,321.5,486.3,327.9,494,327.9L494,327.9z M466.2,364.1
						c7.7,0,13.9-6.3,13.9-14.1s-6.2-14.1-13.9-14.1s-13.9,6.3-13.9,14.1c0,7.7,6.1,14,13.8,14.1l0,0H466.2z M436.3,388.6
						c7.7,0,13.9-6.3,13.9-14.1s-6.2-14.1-13.9-14.1s-13.9,6.3-13.9,14.1S428.6,388.6,436.3,388.6z M411.4,356.7
						c6.6,0,11.9-5.4,11.9-12s-5.3-12-11.9-12c-6.6,0.1-11.9,5.6-11.8,12.2C399.7,351.4,404.9,356.6,411.4,356.7L411.4,356.7z
						 M441.4,332.1c6.6,0,11.9-5.4,11.9-12c0-6.7-5.3-12-11.9-12c-6.6,0.1-11.9,5.6-11.8,12.2C429.7,326.8,434.9,332,441.4,332.1
						L441.4,332.1z M469.4,295.9c6.6,0,11.9-5.4,11.9-12l0,0c0-6.7-5.3-12.1-11.9-12.1s-11.9,5.4-11.9,12l0,0
						C457.5,290.5,462.8,295.9,469.4,295.9L469.4,295.9z M426.6,300.9c5.7,0,10.3-4.7,10.3-10.4s-4.6-10.4-10.3-10.4
						s-10.3,4.7-10.3,10.4S420.9,300.9,426.6,300.9z M396.7,325.4c5.7,0,10.2-4.6,10.2-10.3l0,0l0,0c0-5.7-4.5-10.3-10.1-10.4l0,0
						c-5.7,0-10.2,4.6-10.2,10.3l0,0l0,0c0,5.7,4.5,10.3,10.2,10.4l0,0l0,0H396.7z M389.9,296.7c4.9,0,8.8-4,8.8-8.9s-4-8.9-8.8-8.9
						s-8.8,4-8.8,8.9S385.1,296.7,389.9,296.7z M389.6,271.4c4.2,0,7.6-3.5,7.6-7.7l0,0l0,0c0-4.2-3.4-7.7-7.6-7.7s-7.6,3.4-7.6,7.7
						S385.4,271.4,389.6,271.4z M393.8,250.4c3.6,0,6.4-2.9,6.4-6.5s-2.9-6.5-6.4-6.5s-6.4,2.9-6.4,6.5S390.2,250.4,393.8,250.4z
						 M419.5,246.9c4.2,0,7.7-3.5,7.7-7.8s-3.4-7.8-7.7-7.8s-7.7,3.5-7.7,7.8c0,4.2,3.4,7.7,7.6,7.8l0,0H419.5z M447.7,235.9
						c4.9,0,8.9-4.1,8.9-9s-3.9-9-8.9-9l0,0c-4.9,0-8.9,4.1-8.9,9S442.7,235.9,447.7,235.9L447.7,235.9z M454.4,264.6
						c5.6,0,10.1-4.6,10.1-10.1c0-5.6-4.6-10.1-10.1-10.1c-5.6,0-10.1,4.6-10.1,10.1C444.3,260.1,448.8,264.6,454.4,264.6
						L454.4,264.6z M419.9,272.2c4.9,0,8.8-4,8.8-9s-4-9-8.8-9c-4.9,0-8.8,4-8.8,8.9l0,0c0,4.9,3.8,8.9,8.7,9h0.1l0,0L419.9,272.2z
						 M322.3,258.9c10.5,0,19.1-8.7,19.1-19.4s-8.6-19.4-19.1-19.4s-19.1,8.7-19.1,19.4S311.8,258.9,322.3,258.9L322.3,258.9z
						 M365.7,224.3c9.1,0,16.4-7.5,16.4-16.6s-7.4-16.6-16.4-16.6c-9.1,0-16.4,7.5-16.4,16.6l0,0C349.3,217,356.7,224.4,365.7,224.3
						L365.7,224.3z M348.8,181.6c9,0,16.3-7.4,16.3-16.5s-7.3-16.5-16.3-16.5c-9.1,0-16.3,7.4-16.3,16.5l0,0l0,0
						c0,9.1,7.2,16.5,16.2,16.6l0,0L348.8,181.6z M390.6,161.4c7.7,0,14-6.3,14-14.2s-6.3-14.2-14-14.2s-14,6.3-14,14.2
						S382.9,161.4,390.6,161.4z M407.7,204c7.8,0,14-6.4,14-14.2s-6.3-14.2-14-14.2s-14,6.4-14,14.2S400,204,407.7,204L407.7,204z
						 M445.8,195.1c6.6,0,12-5.5,11.9-12.1l0,0c0-6.6-5.2-12-11.7-12.1c-6.6,0-12,5.2-12.1,11.7l0,0v0.4l0,0c0,6.6,5.2,12,11.8,12.1
						l0,0L445.8,195.1z M478.7,195.2c5.7,0,10.3-4.7,10.3-10.4s-4.6-10.4-10.3-10.4c-5.7,0-10.4,4.6-10.4,10.4
						C468.3,190.5,472.9,195.2,478.7,195.2L478.7,195.2z M505.9,201.5c4.8,0,8.7-3.9,8.7-8.8s-3.9-8.7-8.7-8.7s-8.7,3.9-8.7,8.7
						S501.1,201.5,505.9,201.5L505.9,201.5z M509.4,169.5c4.2,0,7.6-3.5,7.6-7.7s-3.4-7.7-7.6-7.7s-7.6,3.4-7.6,7.7
						C501.8,166,505.2,169.4,509.4,169.5L509.4,169.5z M488.5,159c4.8,0,8.7-3.9,8.7-8.7s-3.9-8.7-8.7-8.7c-4.8,0-8.7,3.9-8.7,8.7
						S483.7,159,488.5,159L488.5,159z M461.6,152.6c5.7,0,10.2-4.7,10.2-10.3c0-5.7-4.6-10.3-10.2-10.3s-10.2,4.7-10.2,10.3
						C451.4,148,455.9,152.6,461.6,152.6L461.6,152.6L461.6,152.6L461.6,152.6z M428.8,152.7c6.6,0,12-5.4,12-12.1
						s-5.3-12.1-12-12.1s-12,5.4-12,12.1C416.8,147.2,422.1,152.7,428.8,152.7L428.8,152.7z M384.6,122.4c7.5,0,13.5-6.1,13.5-13.7
						S392,95,384.6,95s-13.5,6.1-13.5,13.7S377.2,122.4,384.6,122.4z M422.6,114c6.6,0,12-5.4,12-12.1s-5.3-12.1-12-12.1
						s-12,5.4-12,12.1S415.9,114,422.6,114L422.6,114z M455.5,114.2c5.7,0,10.3-4.7,10.3-10.4s-4.6-10.4-10.3-10.4
						c-5.7,0-10.3,4.7-10.3,10.4l0,0C445.2,109.5,449.8,114.2,455.5,114.2L455.5,114.2L455.5,114.2z M482.5,120.4
						c4.9,0,8.8-3.9,8.8-8.8s-3.9-8.8-8.8-8.8s-8.8,3.9-8.8,8.8l0,0c0,4.8,3.8,8.7,8.6,8.8C482.3,120.4,482.3,120.4,482.5,120.4
						L482.5,120.4L482.5,120.4z M503.2,131.2c4.3,0,7.8-3.6,7.7-8c0-4.2-3.5-7.7-7.7-7.7c-4.3,0-7.8,3.5-7.8,7.8
						S498.9,131.1,503.2,131.2L503.2,131.2z M518.4,143.5c3.5,0,6.4-2.9,6.4-6.5l0,0c0-3.6-2.8-6.5-6.3-6.5l0,0l0,0
						c-3.5,0-6.4,2.9-6.4,6.5l0,0C512.1,140.5,514.9,143.4,518.4,143.5L518.4,143.5L518.4,143.5L518.4,143.5z"/>
				</g>
			</g>
		</g>
	</g>
</g>
<g>
	<circle id="bg" class="st1" cx="213.7" cy="225.5" r="213.7"/>
	<path id="base" class="st2" d="M31.8,337.7c5.5,2.1,11,4.2,16.8,6c31.5,10.2,66.8,15.8,99.5,15.8c20.1,0,38.8-2.1,54.1-6.2
		c18.7-4.9,36.6-14,53.1-27.1c15.9-12.5,30.1-28.3,41.1-45.9c11.1-17.8,19-37.4,22.8-56.7c4-20.6,3.5-40.6-1.4-59.3
		c-4.2-15.9-11.2-30.8-20.8-44.3c-9.2-12.9-20.6-24.3-33.9-33.9c-26.3-18.9-58.4-29.3-90.6-29.3c-12.7,0-25.3,1.6-37.4,4.8
		C103.5,70,63.7,94.4,28.7,126.9c-3,2.7-5.9,5.5-8.7,8.3C7.2,162.6,0,193.2,0,225.5C0,266.7,11.6,305.1,31.8,337.7z"/>
	<path id="outline" d="M203.6,358.6c79.3-21,140.8-114.7,119.4-195.7C305.1,95,239.9,51.4,172.5,51.4c-13,0-26,1.6-38.8,5
		c-31.9,8.4-71.2,32.3-106.2,64.1c-2.7,4.8-5.2,9.7-7.6,14.6c2.8-2.8,5.7-5.6,8.7-8.3c35-32.5,74.8-56.8,106.5-65.2
		c12.1-3.2,24.7-4.8,37.4-4.8c32.1,0,64.3,10.4,90.6,29.3c13.3,9.5,24.7,20.9,33.9,33.9c9.6,13.5,16.6,28.4,20.8,44.3
		c5,18.8,5.5,38.7,1.4,59.3c-3.8,19.4-11.6,38.9-22.8,56.7c-11,17.6-25.2,33.4-41.1,45.9c-16.6,13-34.5,22.1-53.1,27.1
		c-15.3,4-34,6.2-54.1,6.2c-32.7,0-68.1-5.6-99.5-15.8c-5.7-1.9-11.4-3.8-16.8-6c1.6,2.6,3.3,5.2,5,7.7
		c36.4,13.2,76.1,19.5,111.3,19.5C168.7,364.9,187.8,362.8,203.6,358.6z"/>
	<path id="wing2" class="st3" d="M19.4,304.5c14.4,1.9,53.7-46.4,60-61.5c0.8-1.9,0.8-2.6,0.7-2.9c-0.2-0.4-1.2-0.7-2.4-1
		c-3.4-0.9-9.8-2.7-16.8-12.4c-2.1-2.9-2.1-7.8-2.1-12.5c0-4.9,0-9.6-2.5-9.9c-0.5-0.1-1-0.1-1.5-0.1c-11.7,0-38.2,13.7-54.7,26.6
		c0.6,25.2,5.6,49.3,14.2,71.7C16.2,303.6,17.9,304.3,19.4,304.5z"/>
	<path id="wing1" d="M20.2,306.6c9.6,0,25.1-15.6,33.7-25.1c12.3-13.6,24-29.8,27.3-37.7c0.9-2.2,1.1-3.5,0.6-4.6
		c-0.6-1.2-1.9-1.6-3.6-2c-3.4-0.9-9.1-2.5-15.8-11.7c-1.7-2.4-1.7-7.1-1.7-11.4c0-5.8,0-11.3-4.2-11.9l0,0
		c-11.2-1.4-38.8,12.4-56.6,26c0,0.8,0,1.6,0,2.5c16.5-12.9,43-26.6,54.7-26.6c0.6,0,1.1,0,1.5,0.1c2.5,0.3,2.5,5,2.5,9.9
		c0,4.7,0,9.6,2.1,12.5c7,9.7,13.4,11.5,16.8,12.4c1.2,0.3,2.2,0.6,2.4,1c0.1,0.3,0.1,1-0.7,2.9c-6.3,15.2-45.5,63.4-60,61.6
		c-1.5-0.2-3.2-0.9-5.1-2c0.4,0.9,0.8,1.9,1.1,2.8c1.3,0.6,2.6,1,3.8,1.1C19.5,306.5,19.9,306.6,20.2,306.6z"/>
	<g id="head">
		<path d="M334.7,167.8c-5.5-8.6-6.3-17.2-1.3-26.6c4.3-8.1,3.8-16.7,0.4-25.1c-3.1-7.5-8.7-12.8-15.6-16.9
			c-0.8-0.4-1.4-1.4-1.7-2.2c-1.9-6.8-3.2-13.8-5.7-20.4c-6-16-17.4-27.3-32.5-35.1c-11.8-6.1-24.5-9.5-37.5-12.1
			c-22.6-4.4-45-3.8-67.4,1.3c-16.5,3.8-32.3,9.7-47.4,17.3c-16.7,8.4-32.3,18.4-45.5,31.6c-4.1,4.1-7.9,8.4-11.3,12.9
			c4.6-2.1,9.3-4.1,13.6-6.7c7.3-7.6,15.5-14.2,24.4-20c19.4-12.7,40.3-22.2,62.8-28c20.5-5.3,41.3-6.9,62.3-3.6
			c15,2.3,29.6,5.8,43.2,12.8c15,7.8,26,19.3,31,35.8c1.8,5.9,3,12,4.4,18c0.3,1.3,0.8,2.1,2.1,2.7c6.3,3.2,11.6,7.4,14.7,13.9
			c3.6,7.5,3.6,15.1-0.2,22.6c-3.8,7.4-4.8,14.9-1.9,22.8c0.1,0.2,0.1,0.5,0.2,0.8c-1.8,0.5-3.4,0.9-5.1,1.3
			c-1.6-5.1-3.3-10.1-8.7-12.7c1.5-0.8,2.8-1.3,3.9-2.1c0.5-0.4,0.5-1.3,0.8-2c-0.6,0.1-1.3,0-1.7,0.4c-4.5,2.7-9.4,3-14.4,2.6
			c-7-0.5-13.5-2.3-18.9-7.2c-0.1-0.1-0.4-0.2-0.6-0.2c-0.9,1.7-0.9,1.7,5.5,6.2c-7.2,5.3-12.2,12.3-17,19.7c-0.2,0-0.5-0.1-0.7-0.1
			c0.2-4.6,0.3-9.1,0.4-14.3c-0.8,0.9-1.4,1.4-1.5,1.9c-1.3,7.2-1.3,14.2,3,20.6c1.9,2.8,4.3,5.1,7.4,6.4
			c8.5,3.4,12.5,10.1,13.7,18.8c0.4,3.3,0,6.7,0.6,9.9c0.9,5.2,2.2,10.4,3.8,15.4c2.2,6.9,4.8,13.7,7.3,20.5
			c1.2,3.1,0.8,5.7-1.5,8.3c-2.5,2.9-5.3,5.3-8.9,7c-2.8,1.3-5.5,1.1-8.1-0.5c-4.7-2.9-9.5-5.9-14.4-8.6c-2.6-1.4-5.5-2.4-8.3-3.2
			c-2.8-0.8-4.8,0.2-5.7,1.9c-0.9,1.9-0.4,4.2,1.6,6.1c1.2,1.1,2.8,2,4.2,2.9c0.2-0.2,0.5-0.5,0.7-0.7c-0.5-0.7-0.9-1.4-1.4-2
			c-0.9-0.8-2.1-1.4-2.8-2.3c-0.5-0.6-0.9-1.9-0.7-2.5c0.3-0.6,1.6-1.3,2.3-1.2c2.3,0.4,4.7,0.8,6.8,1.9c4.7,2.5,9.1,5.4,13.6,8.2
			c1.2,0.8,2.5,1.4,3.7,2.2c3.2,2.3,6.4,1.7,9.6,0c4.9-2.7,8.7-6.5,11.5-11.3c0.6-1.1,0.9-2.7,0.5-3.8c-1.9-5.8-4-11.6-6-17.3
			c-0.4-1-0.7-2-1.1-3c3.4-0.9,6.1,0.8,6.7,4.4c0.4,2.4,0.4,4.9,0.8,7.3c0.2,1.3,0.7,2.7,1.5,3.6c6.3,7.2,10.4,15.4,12.3,24.7
			c0.2,0.8,0.5,1.4,0.8,2.1c0.2,0,0.4-0.1,0.7-0.1c0-0.9,0-1.7-0.1-2.6c-1.6-9-5.5-16.9-11.4-23.8c-1.5-1.7-2.1-3.5-2.1-5.7
			c0-2-0.1-4.1-0.4-6.1c-0.8-4.6-3.6-6.8-8.3-6.6c-0.4,0-0.8,0-1.5,0.1c-1.2-6.5-4.1-12.5-3.9-19.3c0.1-3.8-0.5-7.5-0.8-11.4
			c6.9,2.2,13.5,0.5,20.1-1.5c0-0.2,0-0.5-0.1-0.8c-0.7,0.1-1.4,0.2-2.1,0.4c-5.7,1.7-11.5,2.2-17.2,0.1c-0.9-0.3-1.7-1-2.5-1.5
			c0.1-0.2,0.2-0.4,0.2-0.6c1.5-0.2,2.9-0.3,4.4-0.5c11.8-1.3,20.6-8.6,23.4-19.4c0.2-0.9,0.5-1.9,0.5-2.8c0-1.9,1-2.1,2.6-2
			c4.1,0.1,7,1.4,9.1,5.3c3.1,5.7,7,11,10.6,16.4c5,7.6,4.9,13.9-0.7,21.4c-3.4,4.5-7.2,8.7-10.6,13.1c-5.8,7.8-9.2,16.4-8.3,26.2
			c0.4,4.6,1.5,9.3,2.7,13.8c3.6,13.7,7.3,27.3,11.2,40.9c1.5,5.2,3.6,10.2,5.4,15.4c1.1,3.2,3.3,5.4,6.3,7.2
			c4.9,2.9,9.5,6.4,13.1,10.9c2.3,2.9,4.1,6.1,4,10c-0.2,5.3-3.6,8.5-7.6,11.2c-5.9,3.9-12.5,5.7-19.2,7.1
			c-0.9-5.2-1.6-10.3-2.8-15.3c-1.4-5.8-4.4-10.7-10.4-13c-3.5-1.3-7.2-1.5-10.8-0.9c-4.4,0.7-8.8,1.8-13.1,2.9
			c-1.4,0.4-3.5,0.9-3,2.7c0.5,1.9,2.5,0.9,3.9,0.7c5.6-0.6,11.2-1.7,16.8-1.7c6.7,0,11.3,3.6,12.8,10.2c1.2,5.5,1.6,11.2,2.1,16.9
			c0.1,0.8-0.7,1.9-1.3,2.6c-6.4,7.7-14.8,11.9-24.5,12.8c-9,0.8-18,0.6-27.1,0.6c-17.1-0.2-33.9-2.1-50.3-6.8
			c-8-2.3-15.6-5.2-22.4-10.1c-1.1-0.8-2.1-2-2.5-3.2c-5-17.1-10.1-34.2-14.8-51.4c-2.8-10.4-4.8-21.1-7.1-31.7
			c-0.6-2.5-0.8-5.1-1.3-8c10.9,2.5,21.5,1.7,32.1-1.7c1.2,3.9,2.3,7.7,3.6,11.4c1.4,4,2.8,8.1,4.4,12.1c0.4,1.1,1.4,2,2.3,2.8
			c0.4,0.4,1.5,0.6,1.9,0.3c0.5-0.4,0.9-1.2,0.9-1.9c0-0.8-0.3-1.6-0.6-2.3c-2.1-5.7-4.4-11.4-6.3-17.2c-1.2-3.6-2-7.4-3.1-11.5
			c-4.9,2.8-9.7,4.3-14.8,4.7c-14.8,1.2-28.2-2.1-39-12.7c-7.5-7.4-9.8-16.7-8.3-27c0.3-2.2,0.9-4.4,1.4-6.6c0.3-1.3,0.7-3-1.1-3.4
			c-1.7-0.5-2.6,0.9-3.2,2.3c-3.1,7.7-3.6,15.6-1,23.5c4.2,12.5,12.9,20.5,24.9,25.3c1.4,0.6,1.9,1.2,2.1,2.7c1.5,9.7,3,19.5,5,29.1
			c1.9,8.9,4,17.7,6.5,26.4c2.4,8.8,5.1,17.5,8,26.2c0.8,2.4,1.6,4.7,2.4,7.1c0.8,2.2,1.4,4.7,2.6,6.8c1.7,3,4.7,5.1,7.7,6.6
			c3.3,1.7,6.8,3.3,10.3,4.6c0.4,0.2,0.8,0.3,1.2,0.4c4.3,1.5,8.7,2.7,13.1,3.8c14.3,3.5,28.9,5.2,43.6,5.3
			c10.3,0,20.7,1.1,30.9-0.6c11.6-1.9,21.3-7,28.5-16.5c0.5-0.7,1.4-1.3,2.3-1.5c7.8-1.9,15.3-4.2,21.9-9c8.5-6.2,11-15.5,6.2-24.4
			c-3.5-6.5-9-11-14.9-15c-2.5-1.7-5.6-2.9-6.6-6.3c-0.8-2.6-2.1-5-2.8-7.6c-4.9-17.6-9.9-35.2-14.7-52.9c-2.9-10.6-1-20.4,5.7-29.1
			c3.2-4.2,6.8-8.2,10-12.3c8.2-10.5,8.5-19.8,1.2-30.5C342.8,180.6,338.8,174.1,334.7,167.8z M319.1,167.3
			c0.1,6.8-2.2,12.6-7.4,17.2c-5.6,5.1-12.6,6.7-19.8,7.6c-0.4,0-1.1-0.2-1.4-0.6c-2.8-4.7-7.6-6.8-12.1-9.3
			c-1.5-0.8-2.9-1.9-4.6-3.1c5.1-4.7,10.9-7.2,16.9-9.5c3.7,8.6,7.5,11.4,13.6,10.1c8.1-1.8,9.9-4.5,9.7-14.8c1.3,0.1,2.7,0,4,0.4
			C318.5,165.5,319.1,166.6,319.1,167.3z M318.2,163.3c-16.6,0-31.9,4-45.2,14c-2.7-2.5-3-4.5-1.2-7.6c3.8-6.6,8.6-12.3,14.4-17.2
			c1.5-1.3,2.9-1.7,4.9-1.1c5.5,1.8,11.2,2,16.9,1.5c0.9-0.1,2,0.2,2.8,0.6C314.7,155.7,317.2,158.8,318.2,163.3z M320.7,167.3
			c0-0.2-0.1-0.3-0.1-0.5c1.9-0.5,3.9-1,6-1.6c0.5,0.9,0.9,1.9,1.4,2.8C325.5,167.8,323,167.6,320.7,167.3z"/>
		<path class="st2" d="M325.8,163.6c-1.8,0.5-3.4,0.9-5.1,1.3c-1.6-5.1-3.3-10.1-8.7-12.7c1.5-0.8,2.8-1.3,3.9-2.1
			c0.5-0.4,0.5-1.3,0.8-2c-0.6,0.1-1.3,0-1.7,0.4c-4.5,2.7-9.4,3-14.4,2.6c-7-0.5-13.5-2.3-18.9-7.2c-0.1-0.1-0.4-0.2-0.6-0.2
			c-0.9,1.7-0.9,1.7,5.5,6.2c-7.2,5.3-12.2,12.3-17,19.7c-0.2,0-0.5-0.1-0.7-0.1c0.2-4.6,0.3-9.1,0.4-14.3c-0.8,0.9-1.4,1.4-1.5,1.9
			c-1.3,7.2-1.3,14.2,3,20.6c1.9,2.8,4.3,5.1,7.4,6.4c8.5,3.4,12.5,10.1,13.7,18.8c0.4,3.3,0,6.7,0.6,9.9c0.9,5.2,2.2,10.4,3.8,15.4
			c2.2,6.9,4.8,13.7,7.3,20.5c1.2,3.1,0.8,5.7-1.5,8.3c-2.5,2.9-5.3,5.3-8.9,7c-2.8,1.3-5.5,1.1-8.1-0.5c-4.7-2.9-9.5-5.9-14.4-8.6
			c-2.6-1.4-5.5-2.4-8.3-3.2c-2.8-0.8-4.8,0.2-5.7,1.9c-0.9,1.9-0.4,4.2,1.6,6.1c1.2,1.1,2.8,2,4.2,2.9c0.2-0.2,0.5-0.5,0.7-0.7
			c-0.5-0.7-0.9-1.4-1.4-2c-0.9-0.8-2.1-1.4-2.8-2.3c-0.5-0.6-0.9-1.9-0.7-2.5c0.3-0.6,1.6-1.3,2.3-1.2c2.3,0.4,4.7,0.8,6.8,1.9
			c4.7,2.5,9.1,5.4,13.6,8.2c1.2,0.8,2.5,1.4,3.7,2.2c3.2,2.3,6.4,1.7,9.6,0c4.9-2.7,8.7-6.5,11.5-11.3c0.6-1.1,0.9-2.7,0.5-3.8
			c-1.9-5.8-4-11.6-6-17.3c-0.4-1-0.7-2-1.1-3c3.4-0.9,6.1,0.8,6.7,4.4c0.4,2.4,0.4,4.9,0.8,7.3c0.2,1.3,0.7,2.7,1.5,3.6
			c6.3,7.2,10.4,15.4,12.3,24.7c0.2,0.8,0.5,1.4,0.8,2.1c0.2,0,0.4-0.1,0.7-0.1c0-0.9,0-1.7-0.1-2.6c-1.6-9-5.5-16.9-11.4-23.8
			c-1.5-1.7-2.1-3.5-2.1-5.7c0-2-0.1-4.1-0.4-6.1c-0.8-4.6-3.6-6.8-8.3-6.6c-0.4,0-0.8,0-1.5,0.1c-1.2-6.5-4.1-12.5-3.9-19.3
			c0.1-3.8-0.5-7.5-0.8-11.4c6.9,2.2,13.5,0.5,20.1-1.5c0-0.2,0-0.5-0.1-0.8c-0.7,0.1-1.4,0.2-2.1,0.4c-5.7,1.7-11.5,2.2-17.2,0.1
			c-0.9-0.3-1.7-1-2.5-1.5c0.1-0.2,0.2-0.4,0.2-0.6c1.5-0.2,2.9-0.3,4.4-0.5c11.8-1.3,20.6-8.6,23.4-19.4c0.2-0.9,0.5-1.9,0.5-2.8
			c0-1.9,1-2.1,2.6-2c4.1,0.1,7,1.4,9.1,5.3c3.1,5.7,7,11,10.6,16.4c5,7.6,4.9,13.9-0.7,21.4c-3.4,4.5-7.2,8.7-10.6,13.1
			c-5.8,7.8-9.2,16.4-8.3,26.2c0.4,4.6,1.5,9.3,2.7,13.8c3.6,13.7,7.3,27.3,11.2,40.9c1.5,5.2,3.6,10.2,5.4,15.4
			c1.1,3.2,3.3,5.4,6.3,7.2c4.9,2.9,9.5,6.4,13.1,10.9c2.3,2.9,4.1,6.1,4,10c-0.2,5.3-3.6,8.5-7.6,11.2c-5.9,3.9-12.5,5.7-19.2,7.1
			c-0.9-5.2-1.6-10.3-2.8-15.3c-1.4-5.8-4.4-10.7-10.4-13c-3.5-1.3-7.2-1.5-10.8-0.9c-4.4,0.7-8.8,1.8-13.1,2.9
			c-1.4,0.4-3.5,0.9-3,2.7c0.5,1.9,2.5,0.9,3.9,0.7c5.6-0.6,11.2-1.7,16.8-1.7c6.7,0,11.3,3.6,12.8,10.2c1.2,5.5,1.6,11.2,2.1,16.9
			c0.1,0.8-0.7,1.9-1.3,2.6c-6.4,7.7-14.8,11.9-24.5,12.8c-9,0.8-18,0.6-27.1,0.6c-17.1-0.2-33.9-2.1-50.3-6.8
			c-8-2.3-15.6-5.2-22.4-10.1c-1.1-0.8-2.1-2-2.5-3.2c-5-17.1-10.1-34.2-14.8-51.4c-2.8-10.4-4.8-21.1-7.1-31.7
			c-0.6-2.5-0.8-5.1-1.3-8c10.9,2.5,21.5,1.7,32.1-1.7c1.2,3.9,2.3,7.7,3.6,11.4c1.4,4,2.8,8.1,4.4,12.1c0.4,1.1,1.4,2,2.3,2.8
			c0.4,0.4,1.5,0.6,1.9,0.3c0.5-0.4,0.9-1.2,0.9-1.9c0-0.8-0.3-1.6-0.6-2.3c-2.1-5.7-4.4-11.4-6.3-17.2c-1.2-3.6-2-7.4-3.1-11.5
			c-4.9,2.8-9.7,4.3-14.8,4.7c-14.8,1.2-28.2-2.1-39-12.7c-7.5-7.4-9.8-16.7-8.3-27c0.3-2.2,0.9-4.4,1.4-6.6c0.3-1.3,0.7-3-1.1-3.4
			c-1.7-0.5-2.6,0.9-3.2,2.3c-3.1,7.7-3.6,15.6-1,23.5c4.2,12.5,12.9,20.5,24.9,25.3c1.4,0.6,1.9,1.2,2.1,2.7c1.5,9.7,3,19.5,5,29.1
			c4.1,19.2,0.1,30,6.6,48.5c0.7,2.1,4.4-2.5,5.3-0.1c-2.3-0.3-4.4-0.5-6.4-0.9c-9.9-2.1-13,5.4-22.8,3.4c-5.5-1.1-11.4,3.4-17,2.6
			c-0.3,0-0.5-0.1-0.8-0.2c1.5-6.3,3.2-12.6,4.6-18.8c3.8-17.5,6.9-35.1,7.7-53c0.2-3.6-0.2-7.3-0.4-11c-0.1-1.1,0.1-1.7,1.3-2.1
			c1.3-0.4,2.5-1,3.6-1.9c0.6-0.4,1.1-1.5,0.9-2.2c-0.1-0.5-1.2-1.2-1.9-1.2c-1.5-0.1-3.1,0-4.7,0.3c-13.6,2.7-26.2-0.4-38.3-6.2
			c-16.6-7.9-30.2-19.4-39.8-35.1c-4.4-7.2-8-15-11.1-22.9c-3.5-9-6.5-18.5-9-28.1c-3.6-13.8-5.4-27.9-3.4-42.2
			c1.8-12.7,6.1-24.3,13.5-34.9c9.5-13.6,21.7-24.4,35.5-33.5c19.4-12.7,40.3-22.2,62.8-28c20.5-5.3,41.3-6.9,62.3-3.6
			c15,2.3,29.6,5.8,43.2,12.8c15,7.8,26,19.3,31,35.8c1.8,5.9,3,12,4.4,18c0.3,1.3,0.8,2.1,2.1,2.7c6.3,3.2,11.6,7.4,14.7,13.9
			c3.6,7.5,3.6,15.1-0.2,22.6c-3.8,7.4-4.8,14.9-1.9,22.8C325.7,163,325.7,163.3,325.8,163.6z M197.4,178.8c-0.8,1.7-1.4,3-2,4.3
			c-3.9,8.9-0.8,18.7,7.6,23.7c6.6,3.9,13.9,4.4,21.3,3.4c12.5-1.7,21.3-8.1,25.1-20.5c1.5-4.9,2.3-10-0.6-14.8
			c-3.3-5.7-8.5-9-14.4-11.4c-2.3-0.9-4.8-1.7-7.1-2.5c1.4-1.7,2.8-3.4,4.1-5.1c0.3-0.4,0-1.3,0-1.9c-0.6,0.3-1.3,0.5-1.7,0.9
			c-1.2,1.3-2.2,3-3.6,4.2c-10.5,9.4-22.3,16.7-36.1,20.1c-0.5,0.1-0.8,0.7-1.2,1.1c0.5,0.2,1.1,0.6,1.5,0.5
			C192.6,180.1,194.8,179.5,197.4,178.8z M293.7,279.5c-6.7-2.7-10.9-2-16.3,2.7c-7.1,6.2-11.4,14.2-14.5,23
			c-0.6,1.5,0.1,2.5,1.1,3.4c7.9,6.8,17,11.1,27.4,12.3c4.9,0.6,9.5-0.4,13.4-3.5c6.6-5.2,10.9-11.9,12.9-20c0.6-2.4,0.9-5.3,0-7.4
			c-2.4-5.6-6.1-10.4-11.2-14c-4.6-3.2-9-2.4-12.1,2.3C294.2,278.5,294,278.9,293.7,279.5z M156.8,140.9c-1.1-2-2.1-4.1-3.5-5.9
			c-4.7-6.2-10.7-10.9-17.3-15c-2-1.2-4-2.2-6.1-3.2c-1.3-0.6-2.6-0.2-3.3,1.1c-0.7,1.4,0.3,2.1,1.4,2.7c0.6,0.3,1.2,0.6,1.8,0.9
			c6.8,3.6,13.2,7.6,18.4,13.4c4.2,4.7,6.2,9.8,3.3,16c-1.2,2.7-2,5.6-3,8.5c-2.5,7.2-3.9,14.4,1.5,21.1c0.7,0.9,1.2,2,2,2.8
			c1.5,1.6,2.9,3.2,4.6,4.6c1.5,1.2,3.2,0.5,3.5-1.3c0.1-0.9-0.5-2-1.1-2.8c-1.2-1.5-2.7-2.8-4-4.4c-4.2-5.3-5.7-11-3-17.5
			c1.1-2.8,2.1-5.6,3-8.4C156.4,149.5,157.5,145.4,156.8,140.9z M253.4,136.8c-2.8-10-7.8-18.5-15-25.9c-0.8-0.9-1.8-2.1-3.1-1.1
			c-1.4,1-0.6,2.3,0,3.5c0.2,0.4,0.4,0.7,0.7,1c6.5,7.2,10.7,15.7,13.5,24.9c1.3,4.2,1.3,8.8,2.1,13.2c0.2,0.8,1,1.5,1.6,2.2
			c0.7-0.7,1.4-1.4,2-2.2c0.2-0.2,0.1-0.8,0-1.2C254.6,146.3,254,141.5,253.4,136.8z M252.6,106.4c-0.5-1.3-0.8-2.3-1.1-3.2
			c-3.8-8.5-8.9-16.3-15-23.4c-1.4-1.7-3.1-3.2-4.9-4.6c-1.5-1.1-3.4-0.1-3.2,1.7c0.1,0.7,0.7,1.5,1.2,2
			c6.9,6.9,12.7,14.6,17.1,23.4c1.1,2.2,1.8,4.7,2.8,7c0.4,0.7,1.3,1.2,2,1.7c0.5-0.8,1.1-1.5,1.3-2.3
			C253,107.9,252.6,106.9,252.6,106.4z M261,128.2c0.9,2.5,1.5,5.1,2.8,7.4c1.4,2.6,3.3,4.9,5.3,7.1c0.5,0.5,2.2,0.7,2.8,0.2
			c1.1-0.9,0.4-2.1-0.4-3c-1-1.2-2.2-2.3-3-3.5c-3.9-5.5-5.1-11.9-5.2-18.6c-0.1-5.1,0.8-10,2.6-14.8c0.2-0.6,0.1-1.8-0.3-1.9
			c-0.6-0.3-1.5-0.2-2.2,0.1c-0.6,0.2-1.1,0.9-1.3,1.5c-0.9,2.3-1.9,4.5-2.3,6.9C258.7,115.9,259.6,122.1,261,128.2z M240,306.2
			c0.4,0,0.7-0.1,1.1-0.1c-0.4-16.9,1.4-33.6,5.3-50.1c0.3,0.4,0.4,0.8,0.6,1.1c1.1,3.2,2.7,6.1,5.3,8.3c0.6,0.5,1.3,0.6,2.1,0.9
			c0.1-0.2,0.2-0.4,0.4-0.6c-0.7-0.9-1.5-1.7-2.1-2.6c-3.4-4.7-6.3-9.5-3.8-15.6c1.3-3.2,3-6.2,4.6-9.3c0.3-0.6,0.5-1.1,0.8-1.7
			c-0.2-0.2-0.4-0.3-0.6-0.5c-0.8,0.8-1.8,1.4-2.2,2.3c-2,4.3-4.2,8.5-5.6,13.1c-3.6,11.9-5.3,24.1-6.1,36.5
			c-0.4,5.1-0.3,10.3-0.3,15.5C239.3,304.3,239.7,305.3,240,306.2z M224.9,224c0,0.2,0,0.3,0.1,0.4c0.6,0,1.3,0.1,1.9-0.1
			c1.9-0.8,3.9-1.6,5.7-2.7c8.2-5.5,13.5-13.4,18-21.9c0.2-0.5,0-1.2,0-1.8c-0.5,0.4-1.1,0.6-1.4,1.1c-2.8,4-5.3,8.2-8.3,12.1
			c-4,5.3-8.6,10-15,12.4C225.5,223.5,225.2,223.8,224.9,224z M300.6,331.9c3.9-1,6.9-3,9.1-6.2c0.4-0.5,0.2-1.3,0.3-2
			c-0.7,0.2-1.4,0.3-2.1,0.6c-0.3,0.1-0.5,0.5-0.7,0.7c-3.8,4.4-8.4,6.2-14.2,4.6c-1-0.3-2.1-0.6-3.2-0.6c-0.6,0-1.3,0.4-1.9,0.6
			c0.4,0.4,0.8,1.1,1.3,1.3C293,332.3,296.8,332.8,300.6,331.9z M184.5,197.8c0.2,0,0.4,0,0.6-0.1c0.9-0.6,1.8-1.1,2.7-1.7
			c-0.9-1.4-2.1-0.4-3.1-0.2c-5.3,1.2-10.5,0.9-15.7-0.7c-0.9-0.3-1.9-0.4-2.8-0.6c0.8,0.8,1.5,1.6,2.3,2.3c0.1,0.1,0.4,0.2,0.6,0.2
			C174.1,199.2,179.3,199,184.5,197.8z M187.7,203.9c-0.9-0.2-1.4-0.4-1.9-0.4c-3.4,0.2-8.4,5.1-8.8,8.7c0,0.4,0.3,0.9,0.4,1.4
			c0.4-0.2,1.1-0.4,1.3-0.7c1.6-3.6,4.2-6.3,7.9-7.8C186.9,204.9,187.1,204.5,187.7,203.9z"/>
		<path class="st3" d="M272.9,177.3c-2.7-2.5-3-4.5-1.2-7.6c3.8-6.6,8.6-12.3,14.4-17.2c1.5-1.3,2.9-1.7,4.9-1.1
			c5.5,1.8,11.2,2,16.9,1.5c0.9-0.1,2,0.2,2.8,0.6c3.8,2.1,6.3,5.3,7.2,9.8C301.6,163.3,286.3,167.3,272.9,177.3z"/>
		<path class="st0" d="M290.7,169.7c3.7,8.6,7.5,11.4,13.6,10.1c8.1-1.8,9.9-4.5,9.7-14.8c1.3,0.1,2.7,0,4,0.4
			c0.6,0.2,1.1,1.3,1.1,1.9c0.1,6.8-2.2,12.6-7.4,17.2c-5.6,5.1-12.6,6.7-19.8,7.6c-0.4,0-1.1-0.2-1.4-0.6
			c-2.8-4.7-7.6-6.8-12.1-9.3c-1.5-0.8-2.9-1.9-4.6-3.1C278.9,174.5,284.7,172,290.7,169.7z"/>
		<path class="st2" d="M320.6,166.9c1.9-0.5,3.9-1,6-1.6c0.5,0.9,0.9,1.9,1.4,2.8c-2.5-0.3-4.9-0.5-7.3-0.8
			C320.6,167.2,320.6,167,320.6,166.9z"/>
		<path d="M197.4,178.8c-2.6,0.7-4.8,1.3-7,1.8c-0.4,0.1-1-0.3-1.5-0.5c0.4-0.4,0.8-0.9,1.2-1.1c13.9-3.5,25.6-10.8,36.1-20.1
			c1.3-1.2,2.3-2.8,3.6-4.2c0.4-0.4,1.1-0.6,1.7-0.9c0,0.7,0.2,1.5,0,1.9c-1.3,1.7-2.7,3.4-4.1,5.1c2.4,0.8,4.8,1.5,7.1,2.5
			c5.9,2.5,11.1,5.7,14.4,11.4c2.8,4.9,2.1,9.9,0.6,14.8c-3.8,12.3-12.5,18.8-25.1,20.5c-7.4,1-14.6,0.5-21.3-3.4
			c-8.4-4.9-11.6-14.7-7.6-23.7C196,181.7,196.6,180.5,197.4,178.8z M212.9,186.1c-5.7,2.4-10.9,5.4-15.4,9.7
			c-0.4,0.4-0.5,1.8-0.2,2.4c1.5,3.1,3.9,5.3,6.9,7c6.1,3.2,12.5,3.9,19.2,3.2c11.8-1.2,20-7.2,24.1-18.5c1.2-3.2,1.8-6.7,1-10.5
			c-3.6,0.1-7.1,0.2-10.7,0.3c0.2,9.7-2.1,13.7-8.5,15.2C221,196.8,217,194.7,212.9,186.1z M196.1,194.5
			c15-12.7,32.5-17.4,52.3-17.1c-1.6-2.1-2.7-3.9-4.1-5.3c-4.9-5-11.3-7.4-17.8-9.3c-0.6-0.2-1.6,0.2-2.1,0.6
			c-6.3,4.9-12.7,9.6-20.1,12.6c-3.9,1.6-5.7,4.1-6.9,7.7C196.2,187.1,195.4,190.6,196.1,194.5z"/>
		<path d="M293.7,279.5c0.3-0.5,0.6-0.9,0.8-1.3c3.1-4.6,7.6-5.5,12.1-2.3c5.1,3.6,8.7,8.4,11.2,14c0.9,2.1,0.5,5,0,7.4
			c-1.9,8.1-6.3,14.8-12.9,20c-4,3.1-8.5,4.1-13.4,3.5c-10.4-1.2-19.5-5.5-27.4-12.3c-1-0.9-1.7-1.9-1.1-3.4
			c3.2-8.7,7.5-16.7,14.5-23C282.8,277.4,287,276.8,293.7,279.5z M265.7,307.3c0.9,0.9,1.5,1.5,2.2,2c7.1,5.1,15,8.2,23.7,9
			c3.3,0.3,6.5,0,9.5-1.6c6.3-3.4,10.2-8.8,12.9-15.2c1.1-2.8,1.9-5.7,2.9-8.9c-4.6,1-8.7,3.1-11.8-1.6c-1.1,1.7-2.2,3.4-3.4,5
			c-2.4,3.4-5.7,4.9-9.8,4.9c-2.6,0-4-1.2-4.4-3.8c-0.1-0.5-0.1-1-0.1-1.5c-0.2-0.2-0.3-0.4-0.5-0.6
			C283.1,304.5,274.1,304.8,265.7,307.3z M294.4,282.2c-8.3-3.1-13-2.1-18.8,4.7c-2.9,3.5-5.2,7.6-7.6,11.5c-1.2,2-1.9,4.4-3,7
			c5.4-1.1,10.5-1.6,14.3-4.7c3.7-3,6.6-7,10.1-10.8c0,2,0,3.8,0.2,5.6c0.3,3.2,1.9,4.2,4.9,3.1c3.3-1.3,6-3.4,7.7-6.6
			c1.1-2,2.3-3.8,3.6-5.9c0.5,2.4,0.5,5.2,3.3,5.6c2.2,0.3,4.6-0.4,7.4-0.7c-0.9-1.7-1.5-2.8-2.1-3.8c-2.5-3.8-5.2-7.5-9.3-9.8
			c-3.5-2-6.3-1.4-8.7,1.9C295.6,280.1,295,281.2,294.4,282.2z"/>
		<path d="M156.8,140.9c0.8,4.5-0.4,8.5-1.7,12.5c-0.9,2.8-1.9,5.7-3,8.4c-2.7,6.5-1.3,12.2,3,17.5c1.2,1.5,2.7,2.8,4,4.4
			c0.6,0.8,1.2,1.9,1.1,2.8c-0.2,1.9-2,2.6-3.5,1.3c-1.7-1.3-3.1-3-4.6-4.6c-0.8-0.8-1.3-1.9-2-2.8c-5.4-6.7-3.9-13.9-1.5-21.1
			c0.9-2.8,1.7-5.8,3-8.5c2.9-6.3,0.8-11.4-3.3-16c-5.1-5.8-11.6-9.8-18.4-13.4c-0.6-0.3-1.2-0.6-1.8-0.9c-1.1-0.6-2.1-1.2-1.4-2.7
			c0.7-1.3,1.9-1.8,3.3-1.1c2.1,1,4.2,2,6.1,3.2c6.6,4.1,12.6,8.8,17.3,15C154.7,136.8,155.6,138.9,156.8,140.9z"/>
		<path d="M253.4,136.8c0.6,4.8,1.2,9.5,1.8,14.3c0,0.4,0.2,0.9,0,1.2c-0.6,0.8-1.3,1.5-2,2.2c-0.6-0.7-1.5-1.4-1.6-2.2
			c-0.8-4.4-0.8-9-2.1-13.2c-2.7-9.1-7-17.7-13.5-24.9c-0.3-0.3-0.5-0.6-0.7-1c-0.6-1.1-1.3-2.5,0-3.5c1.3-0.9,2.2,0.2,3.1,1.1
			C245.6,118.2,250.6,126.8,253.4,136.8z"/>
		<path d="M252.6,106.4c0.1,0.6,0.4,1.5,0.2,2.3c-0.2,0.8-0.9,1.5-1.3,2.3c-0.7-0.6-1.6-1-2-1.7c-1.1-2.3-1.7-4.7-2.8-7
			c-4.4-8.7-10.2-16.5-17.1-23.4c-0.6-0.6-1.1-1.3-1.2-2c-0.2-1.7,1.7-2.8,3.2-1.7c1.8,1.3,3.4,2.9,4.9,4.6
			c6.1,7.1,11.2,14.8,15,23.4C251.8,104.1,252.1,105.1,252.6,106.4z"/>
		<path d="M261,128.2c-1.4-6.1-2.3-12.3-1.3-18.6c0.4-2.4,1.5-4.6,2.3-6.9c0.2-0.6,0.8-1.2,1.3-1.5c0.7-0.3,1.6-0.4,2.2-0.1
			c0.3,0.2,0.5,1.3,0.3,1.9c-1.8,4.7-2.7,9.7-2.6,14.8c0.1,6.6,1.2,13,5.2,18.6c0.9,1.3,2,2.4,3,3.5c0.8,0.9,1.5,2.1,0.4,3
			c-0.6,0.4-2.3,0.3-2.8-0.2c-1.9-2.2-3.8-4.5-5.3-7.1C262.5,133.4,261.9,130.7,261,128.2z"/>
		<path d="M240,306.2c-0.2-0.9-0.7-1.9-0.7-2.8c0-5.1,0-10.3,0.3-15.5c0.8-12.3,2.5-24.6,6.1-36.5c1.4-4.5,3.6-8.7,5.6-13.1
			c0.4-0.9,1.4-1.5,2.2-2.3c0.2,0.2,0.4,0.3,0.6,0.5c-0.3,0.6-0.5,1.1-0.8,1.7c-1.5,3.1-3.2,6.1-4.6,9.3c-2.6,6.1,0.4,10.9,3.8,15.6
			c0.7,0.9,1.4,1.7,2.1,2.6c-0.1,0.2-0.2,0.4-0.4,0.6c-0.7-0.3-1.5-0.5-2.1-0.9c-2.7-2.2-4.2-5.1-5.3-8.3c-0.1-0.4-0.2-0.8-0.6-1.1
			c-3.9,16.5-5.7,33.2-5.3,50.1C240.7,306.1,240.3,306.2,240,306.2z"/>
		<path d="M224.9,224c0.3-0.2,0.6-0.5,0.9-0.6c6.5-2.4,11-7.1,15-12.4c3-3.9,5.5-8,8.3-12.1c0.3-0.5,0.9-0.8,1.4-1.1
			c0,0.6,0.2,1.3,0,1.8c-4.6,8.5-9.9,16.4-18,21.9c-1.7,1.1-3.7,1.9-5.7,2.7c-0.6,0.2-1.2,0.1-1.9,0.1
			C224.9,224.3,224.9,224.2,224.9,224z"/>
		<path d="M300.6,331.9c-3.7,0.9-7.6,0.4-11.4-0.9c-0.5-0.2-0.9-0.9-1.3-1.3c0.6-0.2,1.3-0.6,1.9-0.6c1.1,0.1,2.1,0.4,3.2,0.6
			c5.8,1.6,10.4-0.2,14.2-4.6c0.2-0.2,0.4-0.6,0.7-0.7c0.7-0.3,1.4-0.4,2.1-0.6c-0.1,0.7,0,1.5-0.3,2
			C307.5,328.9,304.5,330.9,300.6,331.9z"/>
		<path d="M184.5,197.8c-5.2,1.2-10.3,1.4-15.4-0.6c-0.2-0.1-0.4-0.1-0.6-0.2c-0.8-0.8-1.5-1.5-2.3-2.3c0.9,0.2,1.9,0.2,2.8,0.6
			c5.1,1.7,10.4,1.9,15.7,0.7c1-0.2,2.1-1.3,3.1,0.2c-0.9,0.6-1.8,1.1-2.7,1.7C184.9,197.8,184.7,197.8,184.5,197.8z"/>
		<path d="M187.7,203.9c-0.5,0.6-0.8,1-1.1,1.2c-3.7,1.6-6.3,4.2-7.9,7.8c-0.2,0.4-0.8,0.5-1.3,0.7c-0.2-0.5-0.5-1-0.4-1.4
			c0.4-3.6,5.3-8.4,8.8-8.7C186.3,203.5,186.8,203.7,187.7,203.9z"/>
		<path class="st0" d="M212.9,186.1c4.1,8.6,8.1,10.8,16.4,8.8c6.5-1.5,8.7-5.5,8.5-15.2c3.6-0.1,7.1-0.2,10.7-0.3
			c0.8,3.8,0.2,7.2-1,10.5c-4.1,11.2-12.3,17.3-24.1,18.5c-6.7,0.7-13.2,0-19.2-3.2c-3-1.6-5.5-3.8-6.9-7c-0.3-0.7-0.3-2,0.2-2.4
			C201.9,191.5,207.2,188.5,212.9,186.1z"/>
		<path class="st3" d="M196.1,194.5c-0.7-3.9,0-7.3,1.2-10.8c1.2-3.6,3-6.1,6.9-7.7c7.4-3,13.9-7.6,20.1-12.6
			c0.6-0.4,1.5-0.8,2.1-0.6c6.6,1.9,12.9,4.2,17.8,9.3c1.4,1.4,2.5,3.2,4.1,5.3C228.6,177,211.1,181.7,196.1,194.5z"/>
		<path class="st3" d="M265.7,307.3c8.4-2.5,17.4-2.8,21.3-12.3c0.2,0.2,0.3,0.4,0.5,0.6c0,0.5,0.1,1,0.1,1.5
			c0.4,2.6,1.7,3.9,4.4,3.8c4-0.1,7.4-1.5,9.8-4.9c1.1-1.7,2.3-3.4,3.4-5c3.1,4.7,7.2,2.7,11.8,1.6c-1,3.2-1.7,6.2-2.9,8.9
			c-2.7,6.4-6.7,11.8-12.9,15.2c-3,1.6-6.2,1.9-9.5,1.6c-8.7-0.8-16.6-3.9-23.7-9C267.2,308.8,266.7,308.1,265.7,307.3z"/>
		<path class="st3" d="M294.4,282.2c0.7-1.1,1.2-2.1,1.9-3c2.4-3.3,5.1-3.9,8.7-1.9c4.1,2.3,6.8,6,9.3,9.8c0.6,1,1.2,2.1,2.1,3.8
			c-2.8,0.3-5.2,1-7.4,0.7c-2.8-0.4-2.8-3.3-3.3-5.6c-1.3,2.1-2.5,4-3.6,5.9c-1.7,3.2-4.4,5.3-7.7,6.6c-2.9,1.1-4.6,0.1-4.9-3.1
			c-0.2-1.8-0.1-3.6-0.2-5.6c-3.5,3.8-6.4,7.8-10.1,10.8c-3.8,3.2-8.9,3.7-14.3,4.7c1.1-2.6,1.8-4.9,3-7c2.4-4,4.7-8,7.6-11.5
			C281.3,280.1,286,279.1,294.4,282.2z"/>
	</g>
</g>
</svg>
