<svg xmlns="http://www.w3.org/2000/svg" viewBox="0 0 400 400">
  <circle cx="200" cy="200" r="200"/>
  <g fill="#fff">
    <path d="M282.8 93.56c-9.81-6.25-22.07-4.59-29.77 3.51-7.7 8.11-8.98 19.94-2.35 29.67l-20.52 20.35c-10.26-4.06-20.71-1.09-26.82 7.12-5.64 7.57-5.79 18.17.32 26.25l-10.27 10.41.07 61.96-24.42 14.21.09 39.77 27.07 15.4 21.35-11.98.24-10.34 12.9.04-.15-13.7-6.69.29-.2-8.24 7.08-.32-.1-13.36-14.29-.58c-2.82-.68-7.63-4.44-10.31-6.32l.03-62.52 7.54-7.14c9.92 3.5 19.86.04 25.68-7.5 5.84-7.56 6.07-17.45.79-25.7l17.87-17.92c1.08-1.08 2.8-2.12 3.97-2.06s2.6 3.14 2.58 4.63l-.3 25.28-49.23 49.1-.17 17.82 61.74-61.67.17-34.26c8.99-2.67 15.29-10.19 16.75-18.25 1.77-9.83-2.47-18.77-10.64-23.98Zm-70.81 185.05-.04 16.78-15.62 9.11-14.92-8.76-.09-17.55 14.78-8.93 15.89 9.34Zm11.6-101.31c-5.75 1.3-10.33-2.11-11.9-7.17-1.64-5.3 1.4-11.54 7.93-12.71 5.94-1.06 10.93 3.32 11.82 7.85 1.15 5.81-2.9 10.9-7.86 12.03Zm47.93-53.13c-5.8.94-11.43-3.51-12.41-8.93-1.06-5.9 2.93-12.25 9.67-13.14 6.7-.88 11.91 4.59 12.53 9.79.74 6.28-4.06 11.35-9.79 12.28"/>
    <path d="m185.11 213.13-.21 17.71-61.41-61.32v-34.35c-11.28-3.08-17.89-12.73-17.3-23.37.59-10.61 8.71-19.93 20.02-21.63 12.19-1.84 23.1 5.93 26.17 17.36s-3.77 23.68-16.15 27.49l.07 29.7 48.81 48.42Zm-56.43-111.01c-6.99.75-11.06 6.61-9.92 13.06.86 4.86 5.89 9.82 12.25 8.96 5.06-.68 9.96-5.73 9.55-11.97-.32-4.89-5.45-10.73-11.87-10.04Z"/>
  </g>
</svg>
