<svg xmlns="http://www.w3.org/2000/svg" viewBox="0 0 400 400"><defs><clipPath id="a"><circle cx="200" cy="200" r="200" fill="none"/></clipPath></defs><g clip-path="url(#a)"><path fill="#64a8f0" d="M0 0h400v400H0V0Z"/><path fill="#fff" d="M266.67 44.44v50.22h-17.42c-6.16-24.67-19.49-43.18-37.93-44.04-12.31-.89-19.49 5.29-25.64 14.09-6.13 10.58-9.22 32.62-9.22 59.04 0 24.67 1.02 43.2 4.11 56.42 2.04 6.16 7.18 15.87 20.49 15.87 7.18 0 12.31-1.78 15.4-5.29 5.11-5.29 6.13-15.87 6.13-22.93v-23.78c0-8.82-3.07-14.11-8.2-16.76-4.09-1.78-10.24-1.78-13.33-2.64v-6.18h65.62V244.5H251.3c-3.07-9.71-5.11-16.76-10.24-24.67-5.11-7.96-14.36-16.76-29.73-16.76-16.4-.89-28.71 7.93-28.71 21.16 0 17.62 12.31 22.02 34.87 32.6 21.53 10.58 49.2 19.4 49.2 50.22 0 30.02-29.73 48.49-63.56 48.49h-69.78v-60.8h22.6c9.24 45.82 31.78 53.76 47.18 53.76 19.47 0 28.69-10.58 28.69-25.56-1.02-19.4-16.4-26.44-37.91-36.16-30.76-14.98-45.11-22.02-45.11-46.69 1.02-21.16 20.49-34.38 42.02-39.67-45.11-4.4-58.44-39.67-57.42-77.56 0-37.91 25.64-78.44 75.87-78.44h57.42Z"/></g></svg>