<svg xmlns="http://www.w3.org/2000/svg" viewBox="0 0 700 450"><g data-name="Layer_1"><circle cx="486" cy="225.2" r="214" fill="#fff"/><path d="M556.5 95.5c10.6 0 19.3-8.8 19.3-19.6s-8.6-19.6-19.3-19.6-19.3 8.8-19.3 19.6 8.6 19.5 19.3 19.6Zm5.7 50.8c9.1 0 16.4-7.5 16.3-16.6 0-9.1-7.3-16.6-16.3-16.6s-16.3 7.4-16.3 16.6 7.3 16.6 16.3 16.6Zm44.8 6.5c9 0 16.3-7.4 16.3-16.5s-7.3-16.5-16.3-16.5-16.3 7.4-16.3 16.5 7.3 16.5 16.3 16.5Zm-5.3 43.5c7.7 0 13.9-6.3 13.9-14.1s-6.2-14.1-13.9-14.1-13.9 6.3-13.9 14.1 6.2 14.1 13.9 14.1Zm35.8 14.1c7.8 0 14-6.4 14-14.2s-6.3-14.2-14-14.2-14.1 6.4-14 14.2c0 7.8 6.3 14.2 14 14.2Zm-80.9-20c7.9 0 14.3-6.5 14.3-14.4 0-8-6.4-14.5-14.3-14.5s-14.3 6.5-14.3 14.5 6.4 14.5 14.3 14.5Zm-13 34.6c6.6 0 12-5.4 12-12.1s-5.3-12.1-11.9-12.1c-6.6 0-12 5.4-12 12.1S537 225 543.6 225Zm44.9 6.2c6.6 0 11.9-5.4 11.9-12 0-6.7-5.3-12.1-11.9-12.1s-11.9 5.4-11.9 12.1 5.2 12 11.7 12.1h.2Zm35.8 14c6.6 0 12-5.4 12-12.2s-5.3-12.2-12-12.2-12 5.4-12 12.2 5.3 12.1 12 12.2Zm-17.7 26.3c5.6 0 10.1-4.6 10.1-10.2s-4.5-10.3-10.1-10.3-10.1 4.6-10.1 10.3 4.5 10.2 10.1 10.2Zm-35.9-13.8c5.7 0 10.3-4.7 10.3-10.5s-4.6-10.5-10.3-10.5-10.3 4.7-10.3 10.5 4.7 10.5 10.3 10.5Zm-44.9-6.5c5.7 0 10.3-4.8 10.3-10.5s-4.6-10.2-10.3-10.3c-5.7 0-10.3 4.8-10.3 10.5s4.6 10.2 10.3 10.3Zm25 24.7c4.9 0 8.9-4.1 8.9-9s-3.9-9-8.9-9c-4.9 0-8.9 4.1-8.9 9s3.9 9 8.8 9h.1Zm35.9 14.1c4.9 0 9-4.1 9-9.1s-4.1-9-9.1-9-9 4.1-9 9.1 4.1 9 9.1 9Zm-20.2 10.5c3.9 0 7.1-3.2 7.1-7.2s-3.2-7.2-7.1-7.2-7.1 3.2-7.1 7.2 3.2 7.2 7.1 7.2Zm-19.2 5.7c3.6 0 6.4-2.9 6.4-6.5s-2.9-6.5-6.4-6.5-6.4 2.9-6.4 6.5 2.8 6.5 6.3 6.5h.1Zm-16.8-18.8c4.2 0 7.7-3.5 7.7-7.8s-3.4-7.8-7.7-7.8-7.7 3.5-7.7 7.8 3.4 7.7 7.7 7.8Zm-24.7-17.7c4.9 0 8.9-4 8.9-9s-3.9-9-8.9-9c-4.9 0-8.9 4-8.9 9s4 9 8.9 9Zm73.1 112.9c10.6 0 19.2-8.7 19.2-19.5s-8.6-19.5-19.2-19.5-19.2 8.7-19.2 19.5 8.6 19.5 19.2 19.5ZM530.2 358c8.8 0 16-7.3 16-16.2s-7.2-16.2-16-16.2-16 7.3-16 16.2 7.2 16.2 16 16.2Zm-27.8 35.7c8.9 0 16.1-7.3 16.1-16.4s-7.2-16.4-16.1-16.4-16.1 7.3-16.1 16.4 7.2 16.3 16.1 16.4Zm-8.4-65.8c7.8 0 14-6.4 14-14.2 0-7.8-6.2-14.1-14-14.2-7.8 0-14 6.4-14 14.2 0 7.8 6.3 14.2 14 14.2Zm-27.8 36.2c7.7 0 13.9-6.3 13.9-14.1s-6.2-14.1-13.9-14.1-13.9 6.3-13.9 14.1 6.1 14 13.8 14.1h.1Zm-29.9 24.5c7.7 0 13.9-6.3 13.9-14.1s-6.2-14.1-13.9-14.1-13.9 6.3-13.9 14.1 6.2 14.1 13.9 14.1Zm-24.9-31.9c6.6 0 11.9-5.4 11.9-12s-5.3-12-11.9-12c-6.6.1-11.9 5.6-11.8 12.2.1 6.5 5.3 11.7 11.8 11.8Zm30-24.6c6.6 0 11.9-5.4 11.9-12s-5.3-12-11.9-12c-6.6.1-11.9 5.6-11.8 12.2.1 6.5 5.3 11.7 11.8 11.8Zm28-36.2c6.6 0 11.9-5.4 11.9-12 0-6.7-5.3-12.1-11.9-12.1s-11.9 5.4-11.9 12c0 6.7 5.3 12.1 11.9 12.1Zm-42.8 5c5.7 0 10.3-4.7 10.3-10.4s-4.6-10.4-10.3-10.4-10.3 4.7-10.3 10.4 4.6 10.4 10.3 10.4Zm-29.9 24.5c5.7 0 10.2-4.6 10.2-10.3 0-5.7-4.5-10.3-10.1-10.4-5.7 0-10.2 4.6-10.2 10.3 0 5.7 4.5 10.3 10.2 10.4h-.1Zm-6.8-28.7c4.9 0 8.8-4 8.8-8.9s-4-8.9-8.8-8.9-8.8 4-8.8 8.9 4 8.9 8.8 8.9Zm-.3-25.3c4.2 0 7.6-3.5 7.6-7.7s-3.4-7.7-7.6-7.7-7.6 3.4-7.6 7.7 3.4 7.7 7.6 7.7Zm4.2-21c3.6 0 6.4-2.9 6.4-6.5s-2.9-6.5-6.4-6.5-6.4 2.9-6.4 6.5 2.8 6.5 6.4 6.5Zm25.7-3.5c4.2 0 7.7-3.5 7.7-7.8s-3.4-7.8-7.7-7.8-7.7 3.5-7.7 7.8 3.4 7.7 7.6 7.8h.1Zm28.2-11c4.9 0 8.9-4.1 8.9-9s-3.9-9-8.9-9c-4.9 0-8.9 4.1-8.9 9s3.9 9 8.9 9Zm6.7 28.7c5.6 0 10.1-4.6 10.1-10.1s-4.6-10.1-10.1-10.1-10.1 4.6-10.1 10.1 4.5 10.1 10.1 10.1Zm-34.5 7.6c4.9 0 8.8-4 8.8-9s-4-9-8.8-9-8.8 4-8.8 8.9 3.8 8.9 8.7 9h.1Zm-97.6-13.3c10.5 0 19.1-8.7 19.1-19.4s-8.6-19.4-19.1-19.4-19.1 8.7-19.1 19.4 8.6 19.4 19.1 19.4Zm43.4-34.6c9.1 0 16.4-7.5 16.4-16.6s-7.4-16.6-16.4-16.6-16.4 7.5-16.4 16.6c0 9.3 7.4 16.7 16.4 16.6Zm-16.9-42.7c9 0 16.3-7.4 16.3-16.5s-7.3-16.5-16.3-16.5-16.3 7.4-16.3 16.5 7.2 16.5 16.2 16.6Zm41.8-20.2c7.7 0 14-6.3 14-14.2s-6.3-14.2-14-14.2-14 6.3-14 14.2 6.3 14.2 14 14.2Zm17.1 42.6c7.8 0 14-6.4 14-14.2s-6.3-14.2-14-14.2-14 6.4-14 14.2 6.3 14.2 14 14.2Zm38.1-8.9c6.6 0 12-5.5 11.9-12.1 0-6.6-5.2-12-11.7-12.1-6.6 0-12 5.2-12.1 11.7v.4c0 6.6 5.2 12 11.8 12.1h.1Zm32.9.1c5.7 0 10.3-4.7 10.3-10.4s-4.6-10.4-10.3-10.4-10.4 4.6-10.4 10.4 4.6 10.4 10.4 10.4Zm27.2 6.3c4.8 0 8.7-3.9 8.7-8.8s-3.9-8.7-8.7-8.7-8.7 3.9-8.7 8.7 3.9 8.8 8.7 8.8Zm3.5-32c4.2 0 7.6-3.5 7.6-7.7s-3.4-7.7-7.6-7.7-7.6 3.4-7.6 7.7 3.4 7.6 7.6 7.7ZM488.5 159c4.8 0 8.7-3.9 8.7-8.7s-3.9-8.7-8.7-8.7-8.7 3.9-8.7 8.7 3.9 8.7 8.7 8.7Zm-26.9-6.4c5.7 0 10.2-4.7 10.2-10.3s-4.6-10.3-10.2-10.3-10.2 4.7-10.2 10.3 4.5 10.3 10.2 10.3Zm-32.8.1c6.6 0 12-5.4 12-12.1s-5.3-12.1-12-12.1-12 5.4-12 12.1 5.3 12.1 12 12.1Zm-44.2-30.3c7.5 0 13.5-6.1 13.5-13.7S392 95 384.6 95s-13.5 6.1-13.5 13.7 6.1 13.7 13.5 13.7Zm38-8.4c6.6 0 12-5.4 12-12.1s-5.3-12.1-12-12.1-12 5.4-12 12.1 5.3 12.1 12 12.1Zm32.9.2c5.7 0 10.3-4.7 10.3-10.4s-4.6-10.4-10.3-10.4-10.3 4.7-10.3 10.4 4.6 10.4 10.3 10.4Zm27 6.2c4.9 0 8.8-3.9 8.8-8.8s-3.9-8.8-8.8-8.8-8.8 3.9-8.8 8.8c0 4.8 3.8 8.7 8.6 8.8h.2Zm20.7 10.8c4.3 0 7.8-3.6 7.7-8 0-4.2-3.5-7.7-7.7-7.7s-7.8 3.5-7.8 7.8 3.5 7.8 7.8 7.9Zm15.2 12.3c3.5 0 6.4-2.9 6.4-6.5s-2.8-6.5-6.3-6.5-6.4 2.9-6.4 6.5c0 3.5 2.8 6.4 6.3 6.5Z"/><g fill-rule="evenodd"><path d="M109.7 11c27.7-.8 47.4 11.3 59.2 36.2 1.1 3.3 2.3 6.6 3.6 9.8 17-4.6 34.3-5.9 51.9-3.9 6.8.9 13.5 2 20.1 3.4 5.3-21.7 18.5-36.1 39.8-43.1 22.3-5.1 42.3-.5 59.9 13.9 21.8 18.5 31.2 42 28.2 70.5-1.7 10-5.5 19.2-11.4 27.4-.3.9 0 1.8.5 2.6 2.2 2.6 4.4 5.3 6.5 8 13.8.2 27.6.3 41.3.5 2.2.6 3.8 1.9 4.9 3.9.8 9.3 1 18.6.5 27.9-.3 1.6-1.1 2.9-2.3 3.9-6 .3-12.1.3-18.1.3 0 5.4 0 10.7-.3 16 19.1 39.6 22 80.4 8.8 122.4-14.7 41.1-40.6 73-77.8 95.8-61.4 35.2-125.8 41.8-193.2 19.6-57.4-19.7-97.1-57.9-119.1-114.4-13.5-42.9-10.4-84.5 9.6-124.8-.5-4.9-.7-9.8-.5-14.7-6 0-12.1 0-18.1-.3-1.2-.6-2-1.5-2.3-2.8 0-4.6-.2-9.3-.3-13.9 0-5 .2-10 .8-15 1.4-1.9 3.2-3.1 5.4-3.9 13.4 0 26.9-.3 40.3-.8 2.6-3 5-6.1 7.2-9.3-14.6-21.6-16.9-44.5-7-68.7 12.4-26.5 33-42 61.7-46.5Z" fill="#040303"/><path d="M157.2 59.1c-2.2-1.1-4.4-2.1-6.7-3.1-1.8-5.4-4.9-9.8-9.3-13.4-.7-.9-1.4-1.7-2.1-2.6-2.2-2.3-4.8-4.1-7.7-5.4-4.3-1.1-8.6-2.1-12.9-3.1-6.9-.7-13.7-.1-20.1 1.8-1.3-.9-2.4-.6-3.1.8-2.2.1-4 1.1-5.2 2.8-1.1.6-2.1 1.3-3.1 2.1-2.6 1.1-5.2 2.3-7.7 3.6-1.9.7-3.8 1.6-5.7 2.6 16.1-18.1 35.7-23.5 58.9-16.3 13.7 5.7 21.9 15.7 24.8 30.2Z" fill="#f9f9f7"/><path d="M339.6 43.1c-.8.1-1.5 0-2.1-.5-1.1-1.7-2.5-2.9-4.4-3.6-2.2 0-4.2-.7-5.9-2.3-1-.3-2.1-.3-3.1-.3-3.7-2.5-7.9-3.9-12.4-4.4-6.6-.3-13.1-.1-19.6.5-3 1.2-6.1 2-9.3 2.6-.3.5-.7 1-1 1.5-2 .9-3.9 2-5.7 3.4-.3.5-.5 1-.5 1.5-.5.9-1.2 1.5-2.1 2.1-1.3.4-2.4 1-3.4 2.1-1.1 3.7-3.1 6.9-5.9 9.6-1.4.3-2.8.6-4.1.8.1 1-.2 1.7-1 2.1 4.2-16.8 14.7-27.4 31.5-31.8 19.2-2.4 35.5 3.2 49.1 16.8Z" fill="#f8f8f7"/><path d="M139.1 40c-5-3.2-10.5-5.3-16.5-6.2-.6-.4-1.3-.7-2.1-.8-5.5-.3-11-.3-16.5 0-4.7 1.2-9.3 2.5-13.9 3.9 1.2-1.7 2.9-2.7 5.2-2.8.7-1.4 1.8-1.7 3.1-.8 6.5-1.9 13.2-2.5 20.1-1.8 4.3 1 8.6 2 12.9 3.1 3 1.3 5.6 3.1 7.7 5.4Z" fill="#fdf6e4"/><path d="M324.1 36.4c-4.7-1.6-9.5-2.7-14.5-3.4-7.9-.9-15.7-.2-23.2 2.1-2.6 1.1-5 2.6-7.2 4.4-1.3.6-2.5 1.2-3.6 2.1 0-.6.2-1.1.5-1.5 1.8-1.4 3.6-2.5 5.7-3.4.3-.5.7-1 1-1.5 3.2-.5 6.3-1.4 9.3-2.6 6.5-.6 13.1-.8 19.6-.5 4.5.5 8.7 1.9 12.4 4.4Z" fill="#fdf4e2"/><path d="M122.6 33.8c6 .9 11.5 3 16.5 6.2.7.9 1.4 1.7 2.1 2.6 1.3 2.9 3.1 5.5 5.4 7.7 3 5.4 3.9 11.1 2.8 17-1 .7-1.9.7-2.8 0-.3-1.9-.8-3.8-1.3-5.7-1 0-1.9.3-2.6 1-1-1-1.9-2-2.6-3.1-6-13-16.3-19.2-30.7-18.6-4.1 0-8 .8-11.6 2.6-.9 0-1.5.4-2.1 1-12 3.4-20.3 11-24.8 22.7-5.3 9.9-6 20.2-2.1 31 0 .3-.2.5-.5.5-5-5.4-8.6-11.6-10.8-18.6.3-5.7 1.4-11.2 3.4-16.5.5-1.3 1.2-2.3 2.3-3.1 1.3-1.7 2.6-3.4 3.9-5.2.2-.7.3-1.4.5-2.1 3.3-2.9 6.5-5.8 9.6-8.8.5-.9 1.2-1.6 2.1-2.1 2.5-1.3 5.1-2.6 7.7-3.6 4.9-1.8 9.9-3.3 15-4.4 6.9-1.3 13.7-1.6 20.7-.8Z" fill="#eab16f"/><path d="M327.7 38.9c6.6 2.4 12.3 6.2 17 11.4 0 .6.2 1.1.5 1.5-1.2-.6-2.3-1.3-3.4-2.1-2.8.7-2.9 1.2-.3 1.5-.1 2.1-.4 4.2-.8 6.2 1.7 3.6 3.7 7 5.9 10.3 1.7 4.1 2.8 8.4 3.4 12.9-.8 4.9-1.4 9.9-1.8 15-.2.3-.3.7-.5 1-.3-.2-.5-.6-.5-1 1.2-7 1.3-14.1.3-21.2-1-2.5-2.1-4.9-3.4-7.2-4.6-12-13-19.6-25.3-22.7-4.5-2.3-9.3-3.4-14.5-3.1-15.1.1-25 7.3-29.7 21.7-.4 1.5-.6 3.1-.8 4.6-1.1.1-1.8.7-2.1 1.8.7 1 .6 1.7-.5 2.3-1.2-.8-2.6-1.2-4.1-1.3-1.5-3.5-1.9-7.2-1.3-11.1 2-4.2 3.8-8.5 5.4-12.9.5-1.2 1.2-2.2 2.1-3.1.9-.5 1.5-1.2 2.1-2.1 1.1-.8 2.3-1.5 3.6-2.1h2.6v-1.5c2.1 0 3.8-.8 5.2-2.3 4.6-.7 9.1-1.5 13.7-2.3 5.8.5 11.6 1.3 17.3 2.6 3.2 1.4 6.4 2.5 9.8 3.1Z" fill="#eab071"/><path d="M122.6 33.8c-6.9-.8-13.8-.5-20.7.8-5.1 1.1-10.1 2.6-15 4.4 1-.8 2-1.5 3.1-2.1 4.6-1.4 9.3-2.7 13.9-3.9 5.5-.3 11-.3 16.5 0 .8.1 1.5.4 2.1.8Z" fill="#e2b681"/><path d="M324.1 36.4c1.3.7 2.5 1.6 3.6 2.6-3.4-.6-6.7-1.7-9.8-3.1-5.7-1.2-11.5-2.1-17.3-2.6-4.6.8-9.1 1.6-13.7 2.3-1.4 1.5-3.1 2.3-5.2 2.3v1.5h-2.6c2.2-1.8 4.6-3.3 7.2-4.4 7.6-2.2 15.3-2.9 23.2-2.1 4.9.7 9.8 1.8 14.5 3.4Z" fill="#e3b988"/><path d="M324.1 36.4c1 0 2.1 0 3.1.3 1.8 1.6 3.8 2.4 5.9 2.3 1.9.7 3.3 1.9 4.4 3.6.6.5 1.3.7 2.1.5 2.4 2.4 4.7 5 6.7 7.7 0 .2 0 .4-.3.5-.4-.5-.8-.8-1.3-1-4.8-5.2-10.4-9-17-11.4-1.1-1-2.3-1.8-3.6-2.6Z" fill="#faf3e2"/><path d="M318.9 44.6c-9.8-1.7-17.7 1.2-23.8 8.8h-1.5c-1.4 2.8-2.5 5.7-3.4 8.8-.6 7.3-.1 14.6 1.5 21.7 1.2 1.3 1.9 2.8 2.1 4.6 1.4 1.3 2.7 2.7 3.9 4.1-7.4-4.2-14.9-8.1-22.5-11.9-1-4.2-1.4-8.6-1.3-12.9.2-1.6.4-3.1.8-4.6 4.7-14.4 14.6-21.6 29.7-21.7 5.2-.3 10 .8 14.5 3.1Z" fill="#a46135"/><path d="M123.1 89.6c-2.1 1.3-4.4 2.5-6.7 3.6 4.5-5.6 7.5-12 9-19.1 1.5-21.4-8.4-31.2-29.7-29.4.5-.6 1.2-1 2.1-1 2.8-.3 5.5-.7 8-1 1.4.3 2.8.6 4.1 1 .9-.6 1.6-.4 2.3.5 1.4-1 2.9-1.3 4.6-.8.4.5.6 1.1.5 1.8 1.7.2 3.2-.2 4.6-1 .8.3 1.7.5 2.6.5.3 1.8-.2 2.3-1.5 1.5-.7.1-1.4.4-2.1.8.3.4.7.7 1.3.8.7-.3 1.5-.5 2.3-.5-.5 5.3.2 10.4 2.1 15.2-.2 1.9-.2 3.9 0 5.9 0 3.8-.6 7.5-1.5 11.1.2.5.6.8 1 1-1.8 2.4-3.4 5-4.6 7.7.3.7.8 1.2 1.5 1.3Z" fill="#a0643b"/><path d="M79.2 42.6c-.8.5-1.5 1.2-2.1 2.1-3.2 1.9-6 4.3-8.5 7.2-.2-.1-.3-.3-.3-.5 1.5-2.2 3.3-4.3 5.2-6.2 1.8-1 3.7-1.9 5.7-2.6Z" fill="#f4ead5"/><path d="M140.1 59.6c.4 1.4.8 2.8 1.3 4.1.3 5.7.3 11.4-.3 17-5.9 3-12 5.9-18.1 8.8-.7-.1-1.3-.6-1.5-1.3 1.3-2.7 2.8-5.3 4.6-7.7-.5-.2-.8-.5-1-1 1-3.6 1.5-7.3 1.5-11.1-.2-2.1-.2-4 0-5.9-1.9-4.9-2.6-9.9-2.1-15.2-.8 0-1.6.2-2.3.5-.5 0-1-.3-1.3-.8.6-.4 1.3-.7 2.1-.8 1.4.7 1.9.2 1.5-1.5-.9 0-1.7-.2-2.6-.5-1.4.8-3 1.2-4.6 1 0-.7 0-1.3-.5-1.8-1.7-.5-3.3-.2-4.6.8-.7-.9-1.5-1.1-2.3-.5-1.3-.4-2.7-.7-4.1-1-2.5.3-5.2.7-8 1 3.6-1.7 7.5-2.6 11.6-2.6 14.5-.6 24.7 5.6 30.7 18.6Z" fill="#a96336"/><path d="M77.1 44.6c-3.1 3-6.3 5.9-9.6 8.8-.2.7-.3 1.4-.5 2.1-1.2 1.8-2.5 3.5-3.9 5.2.9-3.6 2.6-6.7 5.2-9.3 0 .2 0 .4.3.5 2.5-2.9 5.3-5.3 8.5-7.2Z" fill="#d2a875"/><path d="M141.2 42.6c4.4 3.6 7.5 8.1 9.3 13.4.1 1.3.5 2.5 1 3.6.4 5.9-.3 11.6-2.1 17-1.2.6-2.2 1.5-3.1 2.6-1.6.8-3.4 1.3-5.2 1.5.5-5.7.6-11.4.3-17-.5-1.4-.9-2.7-1.3-4.1.7 1.1 1.6 2.1 2.6 3.1.7-.8 1.6-1.1 2.6-1 .5 1.9 1 3.7 1.3 5.7.9.7 1.9.7 2.8 0 1.1-6 .2-11.7-2.8-17-2.3-2.3-4.1-4.9-5.4-7.7Z" fill="#e8b075"/><path d="M151.5 59.6c.4 1.4 1 2.8 1.8 4.1.2 1.5.3 3.1.5 4.6 1.3 2 2 1.6 2.1-1 .3 2.4.5 4.8.8 7-.4 1-.9 2-1.5 2.8l2.1 3.6c-1.5.7-3.1.7-4.6 0-.3-1.6-.8-3.2-1.5-4.6-.4 1.2-.7 2.4-.8 3.6-1.5.7-2.9 1.5-4.4 2.3 1.1.6 1.6 1.6 1.5 2.8 2.7-.5 5.2-1.3 7.5-2.6.5.2 1 .3 1.5.5 1.3-.9 2.8-1.2 4.4-1-2.4.9-4.9 2-7.2 3.1-2.6.4-5.2 1-7.7 1.8-5.3 2.4-10.6 4.6-16 6.7-5.3 2.7-10.5 5.5-15.5 8.5-3.1 1.7-6 3.6-8.8 5.7-.4 0-.7 0-1-.3 1.2-.9 2-2 2.6-3.4 11.7-8.3 24-16 36.7-23 1.6-.4 3.1-1 4.6-1.5.9-.7 1.2-1.7 1-2.8 1.8-5.5 2.5-11.2 2.1-17Z" fill="#fef6da"/><path d="M345.3 51.9c1.6 1 2.9 2.4 3.9 4.1.9 2.3 1.8 4.5 2.6 6.7l.5-.5c.2.7.3 1.4.5 2.1l.5-.5c0 2.3.8 4.2 2.3 5.7.9 2.5 1.4 5.1 1.5 7.7-.7 7.3-3.6 13.5-8.8 18.6.4-5.1 1-10 1.8-15-.6-4.5-1.7-8.8-3.4-12.9-2.2-3.3-4.2-6.8-5.9-10.3.4-2 .7-4.1.8-6.2-2.6-.4-2.5-.9.3-1.5 1.1.8 2.2 1.5 3.4 2.1Z" fill="#eeb26e"/><path d="M344.2 67.4c1.2 2.3 2.4 4.7 3.4 7.2 1.1 7.1 1 14.1-.3 21.2 0 .5.2.8.5 1-1.2 1.4-2.4 2.8-3.6 4.1-2.7-11.6-9.8-19.1-21.2-22.5-2.9-.3-5.9-.3-8.8 0-1.2.5-2.3 1.1-3.4 1.8-.2-.3-.3-.7-.3-1 3.5-7.9 9.3-13.1 17.6-15.8 5.9-.7 11.1.7 15.8 4.4.2-.1.3-.3.3-.5Z" fill="#c38777"/><path d="M105 80.3c-11.4-4.4-20.9-1.6-28.7 8.3-2.7 3.8-4.7 8-5.9 12.4l-2.1-2.1c.3 0 .5-.2.5-.5-3.9-10.8-3.3-21.1 2.1-31 5.6-4.3 11.8-5.3 18.6-2.8 7.7 2.8 12.9 8.1 15.5 15.8Z" fill="#c48778"/><path d="M273.4 43.6c-.9.9-1.6 1.9-2.1 3.1-.5.2-.9.6-1.3 1-2 3.9-3.8 7.8-5.2 11.9-.7 6.5 0 12.9 2.1 19.1 14.2 7 27.5 15.3 40 24.8 0 .4 0 .7-.3 1-.7-.5-1.5-.6-2.3-.5-4.1-2.6-8.2-5.1-12.4-7.5-16.6-7.9-33.8-14-51.7-18.3 1.9 0 3.8 0 5.7.3 2.5 1.1 5.1 1.8 7.7 2.3 1.2-.2 2.4-.6 3.6-1-.7-.3-1.4-.7-2.1-1 1 .1 2 0 2.8-.5 0-3.6 0-7.2-.3-10.8-.1-3.2.2-6.3 1-9.3.8-.4 1.2-1.1 1-2.1 1.4-.2 2.8-.5 4.1-.8 2.8-2.6 4.8-5.8 5.9-9.6.9-1 2.1-1.7 3.4-2.1Z" fill="#fdf6dd"/><path d="M255.4 78.7c.6.3 1.3.7 2.1 1-1.2.5-2.4.8-3.6 1-2.7-.5-5.3-1.3-7.7-2.3-1.9-.3-3.8-.3-5.7-.3-4.8-.7-9.6-1.2-14.5-1.5-4.5-1.4-9.1-1.8-13.9-1.3-1.4 3.4-1.3 6.8.5 10.1 0 1.3.3 2.5.8 3.6 3.3 5.1 6.8 10.1 10.3 15 1.9 4.3 3.8 8.5 5.9 12.7.3 1.3.6 2.6.8 3.9 1.1.8 1.9 1.9 2.3 3.1 1.3 3.8 2.3 7.8 3.1 11.9v.5h-55.3v-.5c1.7-11.6 5.5-22.4 11.4-32.5 3.6-5.7 7.4-11.2 11.4-16.5 1.7-.6 2.6-1.8 2.8-3.6.6-2.8.1-5.5-1.3-8-4.6-.3-9.3-.3-13.9 0-4.8.9-9.6 1.5-14.5 1.8v1.5c-5.5.9-11 1.8-16.5 2.6v-1.5c2.7-2.6 5.8-4.8 9.3-6.5 25.5-7.9 51-7.9 76.5 0 3.6 1.5 6.9 3.5 9.8 5.9Z" fill="#fdfdfc"/><path d="M344.7 50.3c.5.2.9.6 1.3 1 .2-.1.3-.3.3-.5 3.6 4.5 6.4 9.5 8.5 15 .5 1.2.8 2.4.8 3.6-1.5-1.5-2.3-3.4-2.3-5.7l-.5.5c-.2-.7-.3-1.4-.5-2.1l-.5.5c-.8-2.2-1.7-4.5-2.6-6.7-.9-1.8-2.2-3.1-3.9-4.1-.3-.5-.5-1-.5-1.5Z" fill="#d5aa79"/><path d="M271.4 46.7c-1.7 4.4-3.5 8.7-5.4 12.9-.6 3.9-.2 7.6 1.3 11.1 1.5 0 2.9.5 4.1 1.3 1.1-.6 1.3-1.4.5-2.3.3-1.1 1-1.7 2.1-1.8-.2 4.4.3 8.7 1.3 12.9 7.6 3.8 15.1 7.7 22.5 11.9.4.9 1.1 1.4 2.1 1.5 1.2 1 2.4 2.1 3.6 3.1 3.4 2.5 6.5 5.5 9.3 8.8-2-.6-3.9-1.4-5.7-2.6-12.5-9.5-25.9-17.8-40-24.8-2.1-6.2-2.8-12.6-2.1-19.1 1.4-4.1 3.1-8 5.2-11.9.4-.5.8-.8 1.3-1Z" fill="#e8b37d"/><path d="M150.5 56c2.3 1 4.5 2 6.7 3.1.4 6.3.7 12.7.8 19.1.4.7 1 1 1.8 1v1.5c5.5-.8 11-1.6 16.5-2.6-5.1 1.3-10.2 2.5-15.5 3.6-1.6-.2-3.1.2-4.4 1-.5-.2-1-.3-1.5-.5-2.3 1.3-4.8 2.1-7.5 2.6 0-1.3-.4-2.2-1.5-2.8 1.5-.8 2.9-1.6 4.4-2.3 0-1.2.4-2.4.8-3.6.7 1.5 1.2 3 1.5 4.6 1.5.7 3.1.7 4.6 0l-2.1-3.6c.7-.9 1.2-1.8 1.5-2.8-.2-2.2-.5-4.5-.8-7 0 2.7-.8 3-2.1 1-.2-1.5-.3-3.1-.5-4.6-.8-1.4-1.4-2.7-1.8-4.1-.6-1.1-.9-2.3-1-3.6Z" fill="#fbf6e2"/><path d="M225.9 76.7c-4.5-.5-8.9-.6-13.4-.3-.8.8-1.1 1.7-1 2.8.6 2.5 1.3 4.9 2.1 7.2l-1-1c-1.8-3.3-1.9-6.6-.5-10.1 4.8-.5 9.5 0 13.9 1.3Z" fill="#e0bb90"/><path d="M203.7 84.4c.7-2.5.6-4.9-.3-7.2-1.8-.3-3.6-.5-5.4-.5-5.3.7-10.6 1.1-16 1.3-4.6 1.3-9.3 2.3-13.9 3.1-4.5 2.3-9.3 3.6-14.5 3.9 2.4-1.1 4.8-2.2 7.2-3.1 5.3-1.1 10.4-2.3 15.5-3.6 6.2-1.1 12.4-2.1 18.6-2.8 2.8-.3 5.5-.3 8.3 0 1.8.8 2.5 2.2 2.1 4.1.2 1.9-.3 3.6-1.5 4.9Z" fill="#e4b986"/><path d="M105 80.3c.7 1 .5 2-.5 2.8-12.5 6.8-23.7 15.3-33.6 25.6 0-2.6 0-5.2-.5-7.7 1.3-4.4 3.3-8.6 5.9-12.4 7.7-9.9 17.3-12.7 28.7-8.3Z" fill="#825049"/><path d="M344.2 100.9c-.6 1.8-1 3.7-1 5.7-9.9-9.1-20.7-16.9-32.5-23.2-.7-1.5-.7-2.8 0-4.1 0 .4 0 .7.3 1 1.1-.7 2.2-1.3 3.4-1.8 2.9-.3 5.9-.3 8.8 0 11.4 3.4 18.5 10.9 21.2 22.5Z" fill="#835149"/><path d="M203.7 84.4c-.2.7-.3 1.4-.5 2.1-4 5.4-7.8 10.9-11.4 16.5-1 .5-1.7 1.2-2.1 2.3-.5.3-1.1.2-1.5-.3-1.5 1.5-1.8 3.2-1 5.2-1.4 1.9-2.2 3.9-2.6 5.9-.7 1.2-1.6 2.2-2.8 2.8.1 1.9-.2 3.8-1 5.7-1.3-2.4-1-4.7.8-6.7-1.7-.5-3.4-.7-5.2-.5v8.3h3.6c.2 2.1-.3 4-1.5 5.7 1.4.9 1.7 2 1 3.4-25.8.3-51.7.3-77.5 0-1.2 0-2.4-.4-3.6-.8 1.9-.9 3.7-1.6 5.7-2.1 3.3 1.1 6.7 1.3 10.1.5 5.5.9 11.1 1.3 16.8 1v-1.5c4.8-.2 4.8-.7 0-1.5 1.3-.5 2.7-.7 4.1-.5v-16.5H131v-4.1h-12.4v4.1h-4.1v-3.1h-4.1c0-1.5 0-3 .5-4.4 1.5-1.1 2.7-2.4 3.6-3.9 5-3 10.2-5.8 15.5-8.5 5.4-2.1 10.7-4.3 16-6.7 2.5-.8 5.1-1.5 7.7-1.8 5.1-.2 10-1.5 14.5-3.9 4.7-.8 9.3-1.8 13.9-3.1 5.4-.2 10.7-.6 16-1.3 1.9 0 3.7.2 5.4.5.9 2.4 1 4.8.3 7.2Z" fill="#ecb26f"/><path d="M225.9 76.7c4.8.3 9.7.9 14.5 1.5 17.9 4.3 35.1 10.4 51.7 18.3 4.2 2.4 8.3 4.9 12.4 7.5 6.3 4 12.4 8.3 18.3 12.9.2-.1.3-.3.3-.5.5.3 1 .5 1.5.8 5.3 5.7 10.1 11.7 14.5 18.1-34.4.3-68.9.3-103.3.3-.8-4.1-1.8-8.1-3.1-11.9-.3-2.1-.8-4.2-1.5-6.2-.6-2.4-1-4.8-1.3-7.2-3.2-3.9-5.7-8.2-7.7-12.9-1.7-1.8-3.2-3.9-4.4-6.2-.9-.8-1.7-1.4-2.6-2.1-.9-.6-1.4-1.5-1.5-2.6-.8-2.4-1.5-4.8-2.1-7.2 0-1.1.3-2.1 1-2.8 4.5-.3 9-.2 13.4.3Z" fill="#edb36f"/><path d="M203.2 86.5c.2-.7.3-1.4.5-2.1 1.2-1.4 1.8-3 1.5-4.9.4-2-.3-3.4-2.1-4.1-2.8-.3-5.5-.3-8.3 0-6.2.8-12.4 1.7-18.6 2.8v-1.5c4.9-.3 9.7-1 14.5-1.8 4.6-.3 9.3-.3 13.9 0 1.4 2.5 1.9 5.2 1.3 8-.2 1.8-1.2 3-2.8 3.6Z" fill="#fef6e5"/><path d="M295.1 53.4c-3.9 6-5.3 12.5-4.4 19.6 1.1 7.9 4.1 15 9 21.2-1-.1-1.7-.6-2.1-1.5-1.2-1.5-2.5-2.8-3.9-4.1-.2-1.8-.8-3.4-2.1-4.6-1.7-7.1-2.2-14.4-1.5-21.7.9-3.1 2-6 3.4-8.8h1.5Z" fill="#996443"/><path d="M149.4 76.7c.2 1.1-.2 2.1-1 2.8-1.5.6-3.1 1.1-4.6 1.5-12.7 7-25 14.6-36.7 23-3.3 3.2-7 5.9-10.8 8.3 4.3-4.7 8.8-9.1 13.4-13.4 1.4-1 2.6-2.2 3.6-3.6 1-.7 2.1-1.4 3.1-2.1 2.4-1.1 4.6-2.3 6.7-3.6 6.1-2.8 12.1-5.8 18.1-8.8 1.8-.2 3.5-.7 5.2-1.5.9-1.1 1.9-2 3.1-2.6Z" fill="#e6b67c"/><path d="M357.1 77.2c.4.8.7 1.6.8 2.6 1 9.8-.3 19.3-4.1 28.4-.9 2.2-2.2 4.3-3.6 6.2-2.2-2.7-4.6-5.3-7-7.7 0-2 .4-3.9 1-5.7 1.2-1.3 2.4-2.7 3.6-4.1.2-.3.3-.7.5-1 5.1-5.1 8.1-11.3 8.8-18.6Z" fill="#a36339"/><path d="M113.3 95.2c-1 1.4-2.2 2.6-3.6 3.6-4.1 1.9-8.1 3.9-11.9 6.2 4.6-4 9.8-7.3 15.5-9.8Z" fill="#865938"/><path d="M57.5 80.3c2.3 7 5.9 13.2 10.8 18.6l2.1 2.1c.4 2.6.6 5.1.5 7.7-1.7 2-3.5 3.9-5.4 5.7-1-.9-1.9-1.9-2.6-3.1-4.8-9.9-6.6-20.2-5.4-31Z" fill="#a3623a"/><path d="M215.1 89c.9.6 1.7 1.3 2.6 2.1 1.2 2.3 2.7 4.4 4.4 6.2 2 4.7 4.6 9 7.7 12.9.3 2.5.7 4.9 1.3 7.2-1.8-3.9-3.7-7.8-5.4-11.9-3.4-5.6-7-11.1-10.6-16.5Z" fill="#e1b482"/><path d="M109.7 98.9c-4.6 4.3-9.1 8.8-13.4 13.4-1.5 1.4-3.1 2.8-4.6 4.1-2.3-.2-2.8-1-1.5-2.6-.6-.6-.6-1.2 0-1.8 3-1.9 5.6-4.2 7.7-7 3.8-2.3 7.8-4.3 11.9-6.2Z" fill="#a06433"/><path d="M114.3 102c-.9 1.5-2.1 2.8-3.6 3.9-.4 1.4-.6 2.9-.5 4.4h4.1v3.1h4.1v-4.1h12.4v4.1h4.1v16.5c-1.4-.2-2.8 0-4.1.5 4.8.8 4.8 1.4 0 1.5v1.5c-5.7.2-11.3-.1-16.8-1-3.4.7-6.8.6-10.1-.5-1.9.5-3.8 1.2-5.7 2.1 1.2.4 2.4.7 3.6.8 25.8.3 51.7.3 77.5 0 .7-1.4.3-2.5-1-3.4 1.2-1.7 1.8-3.6 1.5-5.7h-3.6v-8.3c1.8-.2 3.5 0 5.2.5-1.8 2-2 4.3-.8 6.7.8-1.9 1.2-3.8 1-5.7 1.2-.6 2.2-1.6 2.8-2.8.3-2.1 1.2-4 2.6-5.9-.8-1.9-.4-3.7 1-5.2.5.4 1 .5 1.5.3.4-1.1 1.1-1.9 2.1-2.3-5.8 10.1-9.6 21-11.4 32.5-34.4 0-68.9 0-103.3-.3 3.7-6.2 8.2-11.8 13.4-16.8 0 .2 0 .4.3.5 4.6-4.3 9.5-8.1 14.7-11.4 2.8-2.1 5.7-4 8.8-5.7Z" fill="#ebb374"/><path d="M303.4 97.3c8.9 4.2 17 9.5 24.3 16-1.7-.1-3.3-.6-4.6-1.5.1 1.2-.2 2.3-1 3.1-3.1-2.9-6.2-5.9-9.3-8.8-2.8-3.3-5.9-6.2-9.3-8.8Z" fill="#9e6741"/><path d="M107.1 104c-.5 1.3-1.4 2.4-2.6 3.4.3.2.7.3 1 .3-5.3 3.3-10.2 7.1-14.7 11.4-.2-.1-.3-.3-.3-.5.6-.6.9-1.3 1-2.1 1.5-1.4 3.1-2.8 4.6-4.1 3.9-2.3 7.5-5.1 10.8-8.3Z" fill="#fce2b4"/><path d="M307 103.5c1.8 1.2 3.7 2 5.7 2.6 3.1 2.9 6.2 5.9 9.3 8.8.3.5.7 1 1 1.5 0 .2 0 .4-.3.5-5.9-4.6-12-8.9-18.3-12.9.8-.1 1.6 0 2.3.5.2-.3.3-.7.3-1Z" fill="#fdddaf"/><path d="m212.5 85.4 1 1c.1 1.1.6 2 1.5 2.6 3.6 5.4 7.1 10.9 10.6 16.5 1.8 4 3.6 8 5.4 11.9.7 2 1.2 4.1 1.5 6.2-.4-1.2-1.2-2.3-2.3-3.1-.2-1.3-.4-2.6-.8-3.9-2.1-4.2-4.1-8.4-5.9-12.7-3.6-4.9-7-9.9-10.3-15-.5-1.2-.8-2.4-.8-3.6Z" fill="#fef6e4"/><path d="M327.7 113.3c8.3 6.4 15.5 13.8 21.7 22.2-37.9.5-75.8.7-113.7.5v-.5c34.4 0 68.9 0 103.3-.3-4.3-6.4-9.1-12.4-14.5-18.1-.5-.3-1-.5-1.5-.8-.3-.5-.7-1-1-1.5.8-.8 1.2-1.9 1-3.1 1.4.9 2.9 1.4 4.6 1.5Z" fill="#a46940"/><path d="M97.8 105.1c-2.2 2.8-4.8 5.1-7.7 7-.6.6-.6 1.2 0 1.8-1.2 1.6-.7 2.4 1.5 2.6-.1.8-.5 1.5-1 2.1-5.3 4.9-9.8 10.5-13.4 16.8 34.4.3 68.9.3 103.3.3v.5c-38.1.2-76.1 0-114.2-.5 8.7-12.1 19.2-22.3 31.5-30.5Z" fill="#a26a40"/><path d="M60.1 151.6v16H46.7v-15.5c4.4-.5 8.9-.7 13.4-.5Z" fill="#fcfcfc"/><path d="M73 152.1h12.9v15.5H73v-15.5Z" fill="#fefefe"/><path d="M98.8 151.6h13.4v16H98.8v-16Z" fill="#fdfdfd"/><path d="M292 168.1h-.5v-16h-12.9v15.5c4.2-.2 8.4 0 12.4.5-4.2-.2-8.4 0-12.4.5h-11.4c3.5-.5 7.1-.7 10.8-.5v-16.5h13.9v16.5Z" fill="#a7a7a7"/><path d="M291.5 168.1h-.5c-4-.5-8.2-.7-12.4-.5v-15.5h12.9v16Z" fill="#fefefe"/><path d="M316.3 151.6v16h-12.4c-.5-5.1-.7-10.2-.5-15.5 4.2-.5 8.5-.7 12.9-.5Z" fill="#fdfdfd"/><path d="M73 152.1v-.5h13.4v16h-.5v-15.5H73Z" fill="#afafaf"/><path d="M268.8 167.6v-15.5h-12.9v15.5c-.5-5.2-.7-10.6-.5-16h13.9c.2 5.4 0 10.8-.5 16Z" fill="#c5c5c5"/><path d="M268.8 167.6h-12.9v-15.5h12.9v15.5ZM233.7 188.2c4.6.5 9.2.7 13.9.5-.2 4.2 0 8.4.5 12.4.5 1.3 1.3 2.4 2.6 3.1 4 .5 8.2.7 12.4.5-.2 4.7 0 9.4.5 13.9.5.8 1.2 1.5 2.1 2.1 5.6.5 11.3.7 17 .5-.2 3.9 0 7.7.5 11.4.6.8 1.3 1.6 2.1 2.3 16.7.3 33.4.3 50.1 0 1.3-.6 2.2-1.5 2.6-2.8.5-3.5.7-7.1.5-10.8 5.4.2 10.8 0 16-.5 1.2-.5 2.2-1.2 3.1-2.1 7 4.9 13.5 10.4 19.6 16.5.3.5.5 1 .5 1.5 7.8 43.1-7.2 75.7-44.9 97.9-39.2 21.1-80.9 28.1-125 20.9-40.3 6.3-78.8 1.1-115.7-15.8-13.6-6.5-25.5-15.2-35.9-26.1-18.6-22.6-24.6-48.3-17.8-77 .3-.7.7-1.4 1-2.1C45.5 228.4 52 222.9 59 218h.5c.3 1.1 1 1.9 2.1 2.3 5.9.3 11.7.3 17.6.3 0 4.1 0 8.3.3 12.4l1.3 1.3c8.7.6 17.5.9 26.3.8 8.4 0 16.9-.2 25.3-.3 1.1-.5 1.8-1.3 2.3-2.3.3-4 .3-7.9.3-11.9 5.9 0 11.7 0 17.6-.3l1.8-1.8c.3-4.6.3-9.3.3-13.9 4 0 7.9 0 11.9-.3 1.3-.6 2.2-1.5 2.8-2.8.3-4.5.3-9 .3-13.4 4.7 0 9.3 0 13.9-.3.9-.4 1.7-1 2.3-1.8.8-9.9 1-19.9.8-30h43.4c0 9.8 0 19.6.3 29.4.9 1.2 2 2 3.4 2.6Z" fill="#fefefe"/><path d="M303.4 152.1c-.2 5.3 0 10.4.5 15.5v.5c.2 5.4 0 10.8-.5 16v-15.5h-11.9v15.5h-.5v-16h11.9c-.2-5.4 0-10.8.5-16Z" fill="#cbcbcb"/><path d="M46.6 152.1v15.5H60v16.5c-.5-5.2-.7-10.6-.5-16H46.1c-.2-5.4 0-10.8.5-16Z" fill="#7c7c7c"/><path d="M60.1 151.6c.5 5.2.7 10.6.5 16h11.9v.5H60.1v-16.5Z" fill="#4f4f4f"/><path d="M98.8 151.6v16h13.4c-4.5.3-9 .7-13.4 1h-.5c0-.3-.2-.5-.5-.5.3-5.6.7-11.1 1-16.5Z" fill="#7c7c7c"/><path d="M316.3 151.6c.5 5.4.7 10.9.5 16.5h-12.9v-.5h12.4v-16Z" fill="#909090"/><path d="M291 168.1v16.5h-11.9c.2-2.2 0-4.2-.5-6.2v-9.8c4-.5 8.2-.7 12.4-.5Z" fill="#040404"/><path d="M60.1 168.1H73c.2 5.4 0 10.8-.5 16H60.1v-16Z" fill="#fcfcfc"/><path d="M73.5 168.1h11.9v16H73.5v-16Z"/><path d="M267.2 168.6h11.4v9.8c.2 2 0 3.9-.5 5.7h-11.4c-.2-5.3 0-10.4.5-15.5ZM303.4 184.1h-11.9v-15.5h11.9v15.5Z" fill="#fdfdfd"/><path d="M73 168.1h.5v16h11.9v.5H73v17.6c-.5-5.9-.7-12-.5-18.1.5-5.2.7-10.6.5-16Z" fill="#333"/><path d="M86.4 168.1h11.4c.3 0 .5.2.5.5h.5v15.5H86.4c-.7-5.3-.7-10.7 0-16Z" fill="#cfcfcf"/><path d="M98.3 168.6v15H86.4v-15h11.9Z" fill="#fefefe"/><path d="M85.4 184.6c.5 5.8.7 11.6.5 17.6H73v-17.6h12.4Z" fill="#fdfdfd"/><path d="M73 151.6v16h13.4v.5c-.7 5.3-.7 10.7 0 16 .2 6.1 0 12.1-.5 18.1.2-5.9 0-11.8-.5-17.6v-16.5H72.5v-.5c-.2-5.4 0-10.8.5-16Z" fill="#838383"/><path d="M98.8 184.6h13.4v19.1h13.9v14.5H98.7v-33.6Z" fill="#fdfdfd"/><path d="M139.1 185.1v.5c-.5 5.2-.7 10.6-.5 16h-12.4v-16.5h12.9Z" fill="#fefefe"/><path d="M279.1 184.6H291c.5 5.8.7 11.6.5 17.6h-12.9c-.2-5.9 0-11.8.5-17.6Z" fill="#fcfcfc"/><path d="M316.8 203.7h12.4v14.5h-25.3v-33.1h12.4c-.2 6.3 0 12.5.5 18.6Z" fill="#fefefe"/><path d="M329.2 184.6h13.9v17.6h-13.9v-17.6Z" fill="#c5c5c5"/><path d="M329.8 185.1h12.9v16.5h-12.9v-16.5Z" fill="#fefefe"/><path d="M139.1 185.1h-12.9v16.5h12.4c-.2-5.4 0-10.8.5-16v16.5h-13.4v-17.6c4.6-.2 9 0 13.4.5Z" fill="#e1e0e1"/><path d="M316.8 203.7c-.5-6.1-.7-12.3-.5-18.6h-12.4v33.1h25.3c-8.5.5-17.1.7-25.8.5v-34.1h13.4v19.1Z" fill="#cecece"/><path d="M233.7 188.2h14.5v12.9c-.5-4-.7-8.2-.5-12.4-4.7.2-9.4 0-13.9-.5Z" fill="#b7b7b6"/><path d="M291 184.6v-.5h1c.2 6.1 0 12.1-.5 18.1.2-5.9 0-11.8-.5-17.6Z" fill="#6e6e6e"/><path d="M42.5 188.2c.4 4.2.7 8.5.8 12.9.4.6.7 1.3.8 2.1-.5 0-.9-.1-1.3-.5-.3-4.8-.3-9.6-.3-14.5Z" fill="#70482e"/><path d="M278.6 178.4c.5 2 .7 4 .5 6.2-.5 5.8-.7 11.6-.5 17.6-.5-5.9-.7-12-.5-18.1.5-1.8.7-3.7.5-5.7Z" fill="#929292"/><path d="M98.8 184.6v33.6h27.4c-9.2.5-18.5.7-27.9.5-.2-11.5 0-22.8.5-34.1Z" fill="#878787"/><path d="M112.2 184.6c.5 6.1.7 12.3.5 18.6 4.6-.2 9 0 13.4.5h-13.9v-19.1Z" fill="#757474"/><path d="M42.5 188.2c0 4.8 0 9.6.3 14.5.3.4.8.6 1.3.5 2.1 1 4.3 1.3 6.7 1v.5c-5.3 9.4-9.1 19.4-11.4 30-.6-.1-1.1 0-1.5.5-.9 1.5-2.1 2.8-3.6 3.6-2.4-1.1-3.2-3-2.6-5.7h-3.6c-2.6-4.9-2.2-9.6 1-14.2.7-.2 1.3-.4 1.8-.8.4-1.2.8-2.4 1.3-3.6-.4-.4-.8-.8-1-1.3.9-4.1 2.5-8 4.6-11.6.6-1.5 1-3 1-4.6 1.5-3.2 3.4-6.1 5.7-8.8Z" fill="#a76339"/><path d="M375.7 191.3h-1.5c0 3.6 0 7.2-.3 10.8-.5 1.1-1.3 1.8-2.3 2.3-2.1.3-4.1.3-6.2.3h-7.2c.2 4.2 0 8.4-.5 12.4v-12.9c4.5.2 9 0 13.4-.8l1.8-1.8c0-4.5.3-9 .8-13.4.9.9 1.6 1.9 2.1 3.1Z" fill="#8b5e3f"/><path d="M50.8 204.8h8.3v13.4c-7 4.9-13.5 10.4-19.6 16.5 2.3-10.6 6.1-20.6 11.4-30Z" fill="#ebb172"/><path d="M50.8 204.8v-.5h8.8v13.9h-.5v-13.4h-8.3Z" fill="#aa855f"/><path d="M250.7 204.3h12.9v14.5c-.5-4.6-.7-9.2-.5-13.9-4.2.2-8.4 0-12.4-.5Z" fill="#979797"/><path d="M364.9 204.8h.5c1.3 3 2.8 5.9 4.4 8.8.4 1 .7 2 .8 3.1.2 1.5.2 3 0 4.4.5 1.5 1 3.1 1.5 4.6 0 .7-.4 1.1-1 1.3-1.2-1.2-2.5-2.2-4.1-2.8-1.8-2.9-4.4-4.6-7.7-5.2-.5-4.5-.7-9.1-.5-13.7 2.2.2 4.2 0 6.2-.5Z" fill="#ecb16a"/><path d="M381.4 202.2c5 9.4 8.4 19.4 10.3 30-1-3.8-2.2-7.4-3.6-10.8-1-1.5-1.6-3.3-1.8-5.2-.6-1-1.3-1.8-2.1-2.6-1-3.8-2-7.6-2.8-11.4Z" fill="#8f5d40"/><path d="M364.9 204.8c-2 .5-4 .7-6.2.5-.2 4.6 0 9.2.5 13.7 3.4.6 6 2.3 7.7 5.2 1.6.7 3 1.6 4.1 2.8.6-.2 1-.6 1-1.3-.5-1.6-1-3.1-1.5-4.6.2-1.4.2-2.9 0-4.4 2.8 5.9 5.1 12.1 6.7 18.6-6.1-6.1-12.6-11.6-19.6-16.5v-1.5c.5-4 .7-8.2.5-12.4h6.7Z" fill="#e9b379"/><path d="M265.7 220.8h17.6v11.9c-.5-3.7-.7-7.5-.5-11.4-5.8.2-11.5 0-17-.5Z" fill="#a5a5a5"/><path d="M354.6 220.8c-5.2.5-10.6.7-16 .5.2 3.7 0 7.3-.5 10.8v-11.4h16.5Z" fill="#9e9e9e"/><path d="M215.6 285.4c-.1-.4-.4-.8-.8-1-.4 5.6-.3 11.1.3 16.5 2.7 7.8 8.2 12 16.5 12.7 3.9 3.3 4.1 6.8.5 10.6-6.5 2-12.5 1-18.1-2.8-2.5-1.5-4.7-3.3-6.7-5.4-5.7 6.6-13 9.6-21.7 9-3.2-1.9-4.4-4.8-3.4-8.5.6-1.1 1.4-2 2.3-2.8 8.5-1 14-5.6 16.5-13.7.7-4.9.7-9.9 0-15-.3 0-.5.2-.5.5-11.4 10.1-24.6 14.3-39.8 12.4-1-.7-2.2-1.1-3.6-1-4.1-1.3-7.8-3.4-11.1-6.2-2.6-3.6-2.3-6.9.8-10.1 1.5-.8 3-.9 4.6-.5 16.8 8.3 31.7 5.7 44.7-8 3-3.6 4.4-7.7 4.1-12.4-2.5-2.3-4.8-4.8-7-7.5-11.2-3.4-14.7-10.5-10.6-21.4 6.8-8.9 15.2-10.8 25.3-5.7 7.1-3.6 14.1-3.4 20.9.8 7.5 7 8.1 14.6 2.1 22.7-2.4 1.9-5.2 3.1-8.3 3.6-1.9 3-4.3 5.6-7 8 0 3.3.8 6.4 2.6 9.3 10.5 13.5 24 18.1 40.6 13.7 2.6-1.5 5.2-2.6 8-3.4 6.1 1.7 7.5 5.3 4.1 10.8-6.6 5.5-14.3 8.1-23 7.7-12.4-.4-23.3-4.8-32.5-12.9Z" fill="#050404"/><path d="M375.7 191.3c2.5 3.2 4.4 6.9 5.7 10.8.9 3.8 1.8 7.6 2.8 11.4.8.8 1.5 1.6 2.1 2.6.2 1.9.8 3.6 1.8 5.2-.6 2-.4 4 .5 5.9a28.8 28.8 0 0 0-1.5 10.1c-2.1-.2-4.1.1-5.9 1-1-.6-1.8-1.5-2.3-2.6-.5-.3-1-.5-1.5-.5-1.6-6.5-3.9-12.7-6.7-18.6 0-1.1-.4-2.1-.8-3.1-1.6-2.9-3.1-5.8-4.4-8.8 2.1 0 4.1 0 6.2-.3 1.1-.5 1.8-1.3 2.3-2.3.3-3.6.3-7.2.3-10.8h1.5Z" fill="#a86338"/><path d="M388.1 221.3c1.4 3.5 2.6 7.1 3.6 10.8.7 9.8 1.6 19.5 2.6 29.2 0 2.3-.2 4.6-.3 7l-.5.5c-.4-1.7-1-3.2-1.8-4.6-3.1-9.9-7.8-19-13.9-27.4 0-.6-.2-1.1-.5-1.5.6 0 1.1.2 1.5.5.5 1.1 1.3 2 2.3 2.6 1.8-.9 3.8-1.3 5.9-1 0-3.4.4-6.8 1.5-10.1-.9-2-1.1-3.9-.5-5.9Z" fill="#a6653c"/><path d="M226.9 237.8c-1.1-.5-2.1-1.1-3.1-1.8-2.1-.3-4.1-.3-6.2 0-2.8 1.8-5.7 3-8.8 3.9-1.4 0-2.8-.3-4.1-.8-2.2-1.3-4.4-2.6-6.7-3.6-2.9-.6-5.5 0-7.7 1.8-.5-.4-.6-.9-.5-1.5.7-2.2 2.1-3.8 4.1-4.9 2.4-.3 4.8-.3 7.2 0 2.5 1.2 4.9 2.4 7.2 3.9 2.9-2.4 6.2-3.8 9.8-4.1 5.2-.2 8.1 2.2 8.8 7.2Z" fill="#f9f6f5"/><path d="M36.8 197c0 1.6-.4 3.2-1 4.6-2.2 3.6-3.7 7.5-4.6 11.6.3.5.6.9 1 1.3-.5 1.2-.9 2.4-1.3 3.6-.6.4-1.2.6-1.8.8-3.2 4.6-3.6 9.3-1 14.2h3.6c-.7 2.7.2 4.6 2.6 5.7 1.5-.9 2.8-2.1 3.6-3.6.4-.5.9-.6 1.5-.5-.3.7-.7 1.4-1 2.1-2.1 2.4-3.9 5-5.4 7.7-2.5 4.4-4.8 8.9-7 13.4 1.5-3.9 2.9-7.9 4.1-11.9-.8-.5-1.7-.7-2.6-.5v-8.3c-1.1 0-2.1 0-3.1.5-.8 3.2-1.2 6.5-1.3 9.8 0 1-.5 1.7-1.3 2.1v-5.2c1.8-17 6.8-32.8 15-47.5Z" fill="#a0623c"/><path d="M226.9 237.8c-1.6 4.3-4.7 5.8-9.3 4.6-2.1.8-4.2 1.7-6.2 2.8-2.2.8-4.4.9-6.7.5l-5.7-3.6c-2.1-.3-4.1-.3-6.2-.3-2.8-1.3-3.8-3.4-3.1-6.2-.1.6 0 1.1.5 1.5 2.3-1.8 4.8-2.4 7.7-1.8 2.3 1.1 4.5 2.3 6.7 3.6 1.3.5 2.7.8 4.1.8 3.1-.8 6-2.1 8.8-3.9 2.1-.3 4.1-.3 6.2 0 1 .7 2 1.3 3.1 1.8Z" fill="#e7aa99"/><path d="M26 258c-1.2 4.5-2.4 8.9-3.6 13.4-.1.6-.5 1-1 1-.2-7.7 0-15.2.5-22.7.8-.4 1.2-1.1 1.3-2.1 0-3.3.5-6.6 1.3-9.8 1-.4 2-.6 3.1-.5v8.3c.9-.1 1.8 0 2.6.5-1.2 4-2.6 8-4.1 11.9Z" fill="#aa673c"/><path d="M21.8 244.6v5.2c-.5 7.5-.7 15.1-.5 22.7-.3-3.9-.5-7.8-.5-11.9-.1-5.5.2-10.8 1-16Z" fill="#7a4f37"/><path d="M391.8 232.2c1 2.3 1.6 4.7 1.8 7.2 1.4 12.4 1.6 24.8.8 37.2-.7-4.1-1.6-8.2-2.6-12.4.8 1.4 1.4 3 1.8 4.6l.5-.5c0-2.3.2-4.6.3-7-1-9.7-1.9-19.4-2.6-29.2Z" fill="#926245"/><path d="M38.4 236.8c-6.8 28.7-.8 54.4 17.8 77 10.4 10.9 22.4 19.6 35.9 26.1 36.9 16.8 75.5 22.1 115.7 15.8 44.1 7.1 85.8.2 125-20.9 37.7-22.2 52.7-54.8 44.9-97.9 6.2 8.3 10.8 17.5 13.9 27.4 1 4.2 1.9 8.3 2.6 12.4-2.3 19.8-8.3 38.4-18.1 55.8-1.1-.3-2.3-.3-3.6 0v-2.1c-2.8 0-5.5-.1-8.3-.3-18.4 13.8-38.7 24.2-61 31-30.9 10-62.6 13.1-95.1 9.6-20.7 2.3-41.4 1.9-62-1.3-8.1-1.5-16.2-3.1-24.3-4.6-3.4-1.8-7-3-10.8-3.6-6.7-2.7-13.6-5.1-20.7-7.2-9.6-4.5-18.9-9.4-27.9-14.7-.5-1.7-1.7-2.6-3.6-2.8-1.6-2.4-3.9-3.7-6.7-3.9v-2.1H48v6.2h-2.1c-.4 1.4-.5 2.8-.3 4.1-.4-.8-.9-.9-1.3-.5-14.3-20.2-22.1-42.8-23.2-67.7.6 0 .9-.4 1-1 1.2-4.5 2.4-9 3.6-13.4 2.2-4.5 4.5-9 7-13.4 1.6-2.8 3.4-5.4 5.4-7.7Z" fill="#d0d9db"/><path d="M157.2 296.7c1.4 0 2.6.3 3.6 1-1.4 0-2.6-.3-3.6-1Z" fill="#565656"/><path d="M200.6 285.4c0-.3.2-.5.5-.5.7 5.1.7 10.1 0 15 .2-4.9 0-9.7-.5-14.5Z" fill="#868686"/><path d="M215.6 285.4c-.5 5.1-.7 10.2-.5 15.5-.6-5.4-.7-10.9-.3-16.5.4.3.6.6.8 1Z" fill="#c5c5c5"/><path d="M192.8 242c2.1 0 4.1 0 6.2.3l5.7 3.6c2.3.4 4.5.2 6.7-.5 2-1.1 4.1-2.1 6.2-2.8-1.9 2.1-3.2 4.5-3.9 7.2-3.1 3.6-6.6 4-10.3 1-1.3-1.7-2.1-3.6-2.6-5.7-.6-.9-1.4-1.7-2.3-2.3-2 0-3.9-.3-5.7-.8Z" fill="#8d5b58"/><path d="M376.3 332.4c-8.4 14.4-18.7 27.3-31 38.7-1.2-.6-1.8-1.7-1.8-3.1-1.3-.5-2.1-1.5-2.3-2.8-2.2-.9-4.4-1-6.7-.3-9.6 7.1-20 13.1-31 17.8-56.6 23.1-114.1 25.5-172.6 7.2-9.1-3.2-18.1-6.7-26.9-10.6-5.7-3.5-11.6-6.8-17.6-10.1l-7.2-5.7c-2.1-.4-4.2-.3-6.2.3-1.2 1.4-1.2 2.7 0 3.9-1.5.6-3.1 1-4.6 1.3-9.3-8.6-17.2-18.2-23.8-28.9.4-.4.9-.3 1.3.5-.2-1.3-.1-2.7.3-4.1h2.1v-6.2h4.1v2.1c2.8.2 5.1 1.5 6.7 3.9 1.9.2 3.1 1.2 3.6 2.8 9 5.3 18.3 10.2 27.9 14.7 7.1 2.1 14 4.5 20.7 7.2 3.9.6 7.5 1.8 10.8 3.6 8.1 1.6 16.2 3.1 24.3 4.6 20.6 3.2 41.3 3.6 62 1.3 32.5 3.6 64.2.4 95.1-9.6 22.3-6.8 42.6-17.2 61-31 2.7.1 5.5.2 8.3.3v2.1c1.3-.3 2.5-.3 3.6 0Z" fill="#c5ced2"/><path d="M104 379.4c-.5 0-1.1.2-1.8.5-.3 2.8-.3 5.5-.3 8.3h-4.1v-4.1h-4.1v2.1h-2.1c.1.9-.2 1.4-1 1.5-8.3-5.1-15.7-11.3-22.2-18.6 1.6-.3 3.1-.7 4.6-1.3-1.2-1.2-1.2-2.5 0-3.9 2-.6 4.1-.7 6.2-.3l7.2 5.7c6 3.3 11.9 6.6 17.6 10.1Z" fill="#adb9bf"/><path d="M345.3 371.1c-15.9 14.9-34 26.7-54.2 35.4-20.8 8.9-42.5 14.4-65.1 16.5-4.1.3-8.3.5-12.4.8-7.6 0-15.2-.2-22.7-.5-36.6-3.3-70-15.2-100.2-35.6.8-.2 1.1-.7 1-1.5h2.1v-2.1h4.1v4.1h4.1c0-2.8 0-5.5.3-8.3.7-.3 1.3-.5 1.8-.5 8.8 3.9 17.7 7.4 26.9 10.6 58.4 18.3 115.9 15.9 172.6-7.2 11-4.7 21.4-10.7 31-17.8 2.3-.7 4.5-.6 6.7.3.2 1.4 1 2.3 2.3 2.8 0 1.4.6 2.5 1.8 3.1Z" fill="#a7b1b7"/><path d="M190.8 423.3c7.6.3 15.2.5 22.7.5-7.6.7-15.2.5-22.7-.5Z" fill="#393939"/></g></g></svg>