<?xml version="1.0" encoding="UTF-8"?>
<!DOCTYPE svg PUBLIC "-//W3C//DTD SVG 1.1//EN" "http://www.w3.org/Graphics/SVG/1.1/DTD/svg11.dtd">
<svg xmlns="http://www.w3.org/2000/svg" version="1.1" width="835px" height="865px" style="shape-rendering:geometricPrecision; text-rendering:geometricPrecision; image-rendering:optimizeQuality; fill-rule:evenodd; clip-rule:evenodd" xmlns:xlink="http://www.w3.org/1999/xlink">
<g><path style="opacity:0.999" fill="#040303" d="M 226.5,15.5 C 280.055,14.0132 318.222,37.3465 341,85.5C 343.186,91.9305 345.52,98.2639 348,104.5C 380.964,95.5893 414.464,93.0893 448.5,97C 461.585,98.7174 474.585,100.884 487.5,103.5C 497.682,61.4811 523.349,33.6478 564.5,20C 607.638,10.119 646.305,19.119 680.5,47C 722.777,82.822 740.943,128.322 735,183.5C 731.753,202.919 724.42,220.586 713,236.5C 712.48,238.289 712.813,239.956 714,241.5C 718.287,246.575 722.453,251.742 726.5,257C 753.167,257.333 779.833,257.667 806.5,258C 810.746,259.198 813.913,261.698 816,265.5C 817.567,283.465 817.9,301.465 817,319.5C 816.394,322.548 814.894,325.048 812.5,327C 800.838,327.5 789.171,327.667 777.5,327.5C 777.536,337.87 777.37,348.203 777,358.5C 813.974,435.195 819.641,514.195 794,595.5C 765.533,674.964 715.366,736.798 643.5,781C 524.596,849.224 399.929,861.891 269.5,819C 158.306,780.804 81.4726,706.97 39,597.5C 12.7931,514.466 18.9597,433.966 57.5,356C 56.5386,346.541 56.2053,337.041 56.5,327.5C 44.8286,327.667 33.1619,327.5 21.5,327C 19.1853,325.891 17.6853,324.057 17,321.5C 16.8333,312.5 16.6667,303.5 16.5,294.5C 16.3577,284.738 16.8577,275.071 18,265.5C 20.6691,261.908 24.1691,259.408 28.5,258C 54.5064,257.833 80.5064,257.333 106.5,256.5C 111.549,250.786 116.215,244.786 120.5,238.5C 92.2557,196.672 87.7557,152.338 107,105.5C 131.023,54.2872 170.856,24.2872 226.5,15.5 Z"/></g>
<g><path style="opacity:1" fill="#f9f9f7" d="M 318.5,108.5 C 314.285,106.354 309.952,104.354 305.5,102.5C 301.975,92.1163 295.975,83.4497 287.5,76.5C 286.167,74.8333 284.833,73.1667 283.5,71.5C 279.267,67.0377 274.267,63.5377 268.5,61C 260.206,58.8742 251.873,56.8742 243.5,55C 230.08,53.5919 217.08,54.7585 204.5,58.5C 201.937,56.7663 199.937,57.2663 198.5,60C 194.161,60.286 190.827,62.1193 188.5,65.5C 186.364,66.6528 184.364,67.9862 182.5,69.5C 177.391,71.5542 172.391,73.8875 167.5,76.5C 163.736,77.8808 160.069,79.5474 156.5,81.5C 187.66,46.5055 225.66,36.0055 270.5,50C 296.977,60.971 312.977,80.471 318.5,108.5 Z"/></g>
<g><path style="opacity:1" fill="#f8f8f7" d="M 671.5,77.5 C 670.022,77.762 668.689,77.4287 667.5,76.5C 665.421,73.2552 662.588,70.9218 659,69.5C 654.796,69.62 650.963,68.12 647.5,65C 645.527,64.5045 643.527,64.3379 641.5,64.5C 634.266,59.7148 626.266,56.8815 617.5,56C 604.815,55.4355 592.148,55.7688 579.5,57C 573.689,59.2864 567.689,60.9531 561.5,62C 560.833,63 560.167,64 559.5,65C 555.562,66.7021 551.896,68.8688 548.5,71.5C 547.873,72.4168 547.539,73.4168 547.5,74.5C 546.5,76.1667 545.167,77.5 543.5,78.5C 540.972,79.1845 538.805,80.5178 537,82.5C 534.807,89.7254 530.974,95.892 525.5,101C 522.832,101.567 520.166,102.067 517.5,102.5C 517.771,104.38 517.104,105.713 515.5,106.5C 523.534,73.9657 543.867,53.4657 576.5,45C 613.603,40.3488 645.269,51.1821 671.5,77.5 Z"/></g>
<g><path style="opacity:1" fill="#fdf6e4" d="M 283.5,71.5 C 273.755,65.3047 263.088,61.3047 251.5,59.5C 250.391,58.71 249.058,58.21 247.5,58C 236.833,57.3333 226.167,57.3333 215.5,58C 206.424,60.3632 197.424,62.8632 188.5,65.5C 190.827,62.1193 194.161,60.286 198.5,60C 199.937,57.2663 201.937,56.7663 204.5,58.5C 217.08,54.7585 230.08,53.5919 243.5,55C 251.873,56.8742 260.206,58.8742 268.5,61C 274.267,63.5377 279.267,67.0377 283.5,71.5 Z"/></g>
<g><path style="opacity:1" fill="#fdf4e2" d="M 641.5,64.5 C 632.402,61.4594 623.069,59.2927 613.5,58C 598.175,56.341 583.175,57.6743 568.5,62C 563.393,64.1923 558.726,67.0256 554.5,70.5C 552.031,71.5686 549.698,72.9019 547.5,74.5C 547.539,73.4168 547.873,72.4168 548.5,71.5C 551.896,68.8688 555.562,66.7021 559.5,65C 560.167,64 560.833,63 561.5,62C 567.689,60.9531 573.689,59.2864 579.5,57C 592.148,55.7688 604.815,55.4355 617.5,56C 626.266,56.8815 634.266,59.7148 641.5,64.5 Z"/></g>
<g><path style="opacity:1" fill="#eab16f" d="M 251.5,59.5 C 263.088,61.3047 273.755,65.3047 283.5,71.5C 284.833,73.1667 286.167,74.8333 287.5,76.5C 290.001,82.0973 293.501,87.0973 298,91.5C 303.796,101.913 305.629,112.913 303.5,124.5C 301.629,125.767 299.796,125.767 298,124.5C 297.379,120.75 296.546,117.084 295.5,113.5C 293.508,113.328 291.842,113.995 290.5,115.5C 288.568,113.583 286.901,111.583 285.5,109.5C 273.845,84.4062 254.012,72.4062 226,73.5C 218.019,73.4485 210.519,75.1151 203.5,78.5C 201.847,78.6596 200.514,79.3263 199.5,80.5C 176.212,87.1171 160.212,101.784 151.5,124.5C 141.206,143.607 139.873,163.607 147.5,184.5C 147.376,185.107 147.043,185.44 146.5,185.5C 136.902,174.965 129.902,162.965 125.5,149.5C 126.042,138.486 128.209,127.82 132,117.5C 132.881,114.986 134.381,112.986 136.5,111.5C 139.085,108.295 141.585,104.962 144,101.5C 144.333,100.167 144.667,98.8333 145,97.5C 151.363,91.9673 157.529,86.3007 163.5,80.5C 164.527,78.8058 165.861,77.4725 167.5,76.5C 172.391,73.8875 177.391,71.5542 182.5,69.5C 191.906,65.9803 201.573,63.147 211.5,61C 224.765,58.445 238.098,57.945 251.5,59.5 Z"/></g>
<g><path style="opacity:1" fill="#eab071" d="M 648.5,69.5 C 661.304,74.0727 672.304,81.406 681.5,91.5C 681.557,92.609 681.89,93.609 682.5,94.5C 680.226,93.403 678.059,92.0696 676,90.5C 670.576,91.8172 670.409,92.8172 675.5,93.5C 675.295,97.6154 674.795,101.615 674,105.5C 677.364,112.411 681.197,119.077 685.5,125.5C 688.72,133.402 690.886,141.735 692,150.5C 690.438,160.056 689.271,169.723 688.5,179.5C 688.167,180.167 687.833,180.833 687.5,181.5C 686.876,181.083 686.543,180.416 686.5,179.5C 688.892,165.86 689.059,152.193 687,138.5C 685.058,133.623 682.892,128.956 680.5,124.5C 671.62,101.274 655.286,86.6077 631.5,80.5C 622.83,76.0032 613.496,74.0032 603.5,74.5C 574.229,74.7145 555.063,88.7145 546,116.5C 545.304,119.478 544.804,122.478 544.5,125.5C 542.436,125.762 541.103,126.929 540.5,129C 541.93,130.88 541.596,132.38 539.5,133.5C 537.118,131.929 534.451,131.096 531.5,131C 528.639,124.136 527.806,116.97 529,109.5C 532.79,101.299 536.29,92.9653 539.5,84.5C 540.415,82.2459 541.748,80.2459 543.5,78.5C 545.167,77.5 546.5,76.1667 547.5,74.5C 549.698,72.9019 552.031,71.5686 554.5,70.5C 556.167,70.5 557.833,70.5 559.5,70.5C 559.5,69.5 559.5,68.5 559.5,67.5C 563.551,67.4942 566.884,65.9942 569.5,63C 578.319,61.5579 587.152,60.0579 596,58.5C 607.287,59.431 618.454,61.0977 629.5,63.5C 635.601,66.2529 641.934,68.2529 648.5,69.5 Z"/></g>
<g><path style="opacity:1" fill="#e2b681" d="M 251.5,59.5 C 238.098,57.945 224.765,58.445 211.5,61C 201.573,63.147 191.906,65.9803 182.5,69.5C 184.364,67.9862 186.364,66.6528 188.5,65.5C 197.424,62.8632 206.424,60.3632 215.5,58C 226.167,57.3333 236.833,57.3333 247.5,58C 249.058,58.21 250.391,58.71 251.5,59.5 Z"/></g>
<g><path style="opacity:1" fill="#e3b988" d="M 641.5,64.5 C 644.009,65.9213 646.343,67.5879 648.5,69.5C 641.934,68.2529 635.601,66.2529 629.5,63.5C 618.454,61.0977 607.287,59.431 596,58.5C 587.152,60.0579 578.319,61.5579 569.5,63C 566.884,65.9942 563.551,67.4942 559.5,67.5C 559.5,68.5 559.5,69.5 559.5,70.5C 557.833,70.5 556.167,70.5 554.5,70.5C 558.726,67.0256 563.393,64.1923 568.5,62C 583.175,57.6743 598.175,56.341 613.5,58C 623.069,59.2927 632.402,61.4594 641.5,64.5 Z"/></g>
<g><path style="opacity:1" fill="#faf3e2" d="M 641.5,64.5 C 643.527,64.3379 645.527,64.5045 647.5,65C 650.963,68.12 654.796,69.62 659,69.5C 662.588,70.9218 665.421,73.2552 667.5,76.5C 668.689,77.4287 670.022,77.762 671.5,77.5C 676.178,82.1793 680.511,87.1793 684.5,92.5C 684.565,92.9382 684.399,93.2716 684,93.5C 683.292,92.6195 682.458,91.9528 681.5,91.5C 672.304,81.406 661.304,74.0727 648.5,69.5C 646.343,67.5879 644.009,65.9213 641.5,64.5 Z"/></g>
<g><path style="opacity:1" fill="#a46135" d="M 631.5,80.5 C 612.6,77.1269 597.267,82.7936 585.5,97.5C 584.5,97.5 583.5,97.5 582.5,97.5C 579.886,102.922 577.719,108.589 576,114.5C 574.75,128.682 575.75,142.682 579,156.5C 581.375,158.945 582.709,161.945 583,165.5C 585.739,168.008 588.239,170.675 590.5,173.5C 576.228,165.447 561.728,157.78 547,150.5C 545.032,142.285 544.199,133.951 544.5,125.5C 544.804,122.478 545.304,119.478 546,116.5C 555.063,88.7145 574.229,74.7145 603.5,74.5C 613.496,74.0032 622.83,76.0032 631.5,80.5 Z"/></g>
<g><path style="opacity:1" fill="#a0643b" d="M 252.5,167.5 C 248.392,170.057 244.059,172.39 239.5,174.5C 248.228,163.585 254.062,151.251 257,137.5C 259.836,96.1694 240.67,77.1694 199.5,80.5C 200.514,79.3263 201.847,78.6596 203.5,78.5C 208.951,77.8406 214.118,77.1739 219,76.5C 221.727,77.0629 224.393,77.7295 227,78.5C 228.68,77.3966 230.18,77.7299 231.5,79.5C 234.208,77.5643 237.208,77.0643 240.5,78C 241.337,79.0113 241.67,80.1779 241.5,81.5C 244.765,81.7918 247.765,81.1251 250.5,79.5C 252.135,80.0463 253.801,80.3796 255.5,80.5C 256.165,83.8884 255.165,84.8884 252.5,83.5C 251.062,83.7189 249.729,84.2189 248.5,85C 249.108,85.8699 249.941,86.3699 251,86.5C 252.44,85.8524 253.94,85.5191 255.5,85.5C 254.548,95.7714 255.881,105.605 259.5,115C 259.058,118.687 259.058,122.52 259.5,126.5C 259.423,133.797 258.423,140.964 256.5,148C 256.905,148.945 257.572,149.612 258.5,150C 254.921,154.72 251.921,159.72 249.5,165C 250.078,166.417 251.078,167.25 252.5,167.5 Z"/></g>
<g><path style="opacity:1" fill="#f4ead5" d="M 167.5,76.5 C 165.861,77.4725 164.527,78.8058 163.5,80.5C 157.305,84.1824 151.805,88.8491 147,94.5C 146.601,94.2716 146.435,93.9382 146.5,93.5C 149.486,89.183 152.82,85.183 156.5,81.5C 160.069,79.5474 163.736,77.8808 167.5,76.5 Z"/></g>
<g><path style="opacity:1" fill="#a96336" d="M 285.5,109.5 C 286.226,112.179 287.059,114.846 288,117.5C 288.653,128.516 288.486,139.516 287.5,150.5C 275.993,156.345 264.327,162.011 252.5,167.5C 251.078,167.25 250.078,166.417 249.5,165C 251.921,159.72 254.921,154.72 258.5,150C 257.572,149.612 256.905,148.945 256.5,148C 258.423,140.964 259.423,133.797 259.5,126.5C 259.058,122.52 259.058,118.687 259.5,115C 255.881,105.605 254.548,95.7714 255.5,85.5C 253.94,85.5191 252.44,85.8524 251,86.5C 249.941,86.3699 249.108,85.8699 248.5,85C 249.729,84.2189 251.062,83.7189 252.5,83.5C 255.165,84.8884 256.165,83.8884 255.5,80.5C 253.801,80.3796 252.135,80.0463 250.5,79.5C 247.765,81.1251 244.765,81.7918 241.5,81.5C 241.67,80.1779 241.337,79.0113 240.5,78C 237.208,77.0643 234.208,77.5643 231.5,79.5C 230.18,77.7299 228.68,77.3966 227,78.5C 224.393,77.7295 221.727,77.0629 219,76.5C 214.118,77.1739 208.951,77.8406 203.5,78.5C 210.519,75.1151 218.019,73.4485 226,73.5C 254.012,72.4062 273.845,84.4062 285.5,109.5 Z"/></g>
<g><path style="opacity:1" fill="#d2a875" d="M 163.5,80.5 C 157.529,86.3007 151.363,91.9673 145,97.5C 144.667,98.8333 144.333,100.167 144,101.5C 141.585,104.962 139.085,108.295 136.5,111.5C 138.274,104.617 141.608,98.6166 146.5,93.5C 146.435,93.9382 146.601,94.2716 147,94.5C 151.805,88.8491 157.305,84.1824 163.5,80.5 Z"/></g>
<g><path style="opacity:1" fill="#e8b075" d="M 287.5,76.5 C 295.975,83.4497 301.975,92.1163 305.5,102.5C 305.721,105.067 306.388,107.401 307.5,109.5C 308.265,120.894 306.932,131.894 303.5,142.5C 301.272,143.713 299.272,145.38 297.5,147.5C 294.32,149.095 290.987,150.095 287.5,150.5C 288.486,139.516 288.653,128.516 288,117.5C 287.059,114.846 286.226,112.179 285.5,109.5C 286.901,111.583 288.568,113.583 290.5,115.5C 291.842,113.995 293.508,113.328 295.5,113.5C 296.546,117.084 297.379,120.75 298,124.5C 299.796,125.767 301.629,125.767 303.5,124.5C 305.629,112.913 303.796,101.913 298,91.5C 293.501,87.0973 290.001,82.0973 287.5,76.5 Z"/></g>
<g><path style="opacity:1" fill="#fef6da" d="M 307.5,109.5 C 308.359,112.212 309.525,114.878 311,117.5C 311.333,120.5 311.667,123.5 312,126.5C 314.476,130.303 315.81,129.637 316,124.5C 316.524,129.216 317.024,133.716 317.5,138C 316.782,139.987 315.782,141.821 314.5,143.5C 315.833,145.833 317.167,148.167 318.5,150.5C 315.5,151.833 312.5,151.833 309.5,150.5C 308.874,147.363 307.874,144.363 306.5,141.5C 305.686,143.766 305.186,146.1 305,148.5C 302.156,149.926 299.322,151.426 296.5,153C 298.677,154.186 299.677,156.019 299.5,158.5C 304.637,157.595 309.471,155.928 314,153.5C 315,153.833 316,154.167 317,154.5C 319.547,152.823 322.38,152.156 325.5,152.5C 320.763,154.302 316.096,156.302 311.5,158.5C 306.402,159.191 301.402,160.358 296.5,162C 286.272,166.615 275.938,170.948 265.5,175C 255.257,180.232 245.257,185.732 235.5,191.5C 229.582,194.746 223.915,198.413 218.5,202.5C 217.761,202.631 217.094,202.464 216.5,202C 218.79,200.223 220.457,198.056 221.5,195.5C 244.195,179.343 267.862,164.51 292.5,151C 295.56,150.152 298.56,149.152 301.5,148C 303.155,146.556 303.822,144.722 303.5,142.5C 306.932,131.894 308.265,120.894 307.5,109.5 Z"/></g>
<g><path style="opacity:1" fill="#eeb26e" d="M 682.5,94.5 C 685.662,96.4454 688.162,99.1121 690,102.5C 691.735,106.869 693.402,111.202 695,115.5C 695.333,115.167 695.667,114.833 696,114.5C 696.333,115.833 696.667,117.167 697,118.5C 697.333,118.167 697.667,117.833 698,117.5C 698.125,121.922 699.625,125.589 702.5,128.5C 704.286,133.317 705.286,138.317 705.5,143.5C 704.123,157.585 698.456,169.585 688.5,179.5C 689.271,169.723 690.438,160.056 692,150.5C 690.886,141.735 688.72,133.402 685.5,125.5C 681.197,119.077 677.364,112.411 674,105.5C 674.795,101.615 675.295,97.6154 675.5,93.5C 670.409,92.8172 670.576,91.8172 676,90.5C 678.059,92.0696 680.226,93.403 682.5,94.5 Z"/></g>
<g><path style="opacity:1" fill="#c38777" d="M 680.5,124.5 C 682.892,128.956 685.058,133.623 687,138.5C 689.059,152.193 688.892,165.86 686.5,179.5C 686.543,180.416 686.876,181.083 687.5,181.5C 685.139,184.279 682.806,186.946 680.5,189.5C 675.289,167.12 661.623,152.62 639.5,146C 633.833,145.333 628.167,145.333 622.5,146C 620.254,147.039 618.087,148.206 616,149.5C 615.536,148.906 615.369,148.239 615.5,147.5C 622.258,132.243 633.591,122.076 649.5,117C 660.855,115.563 671.022,118.396 680,125.5C 680.399,125.272 680.565,124.938 680.5,124.5 Z"/></g>
<g><path style="opacity:1" fill="#c48778" d="M 217.5,149.5 C 195.47,140.994 176.97,146.327 162,165.5C 156.802,172.894 152.969,180.894 150.5,189.5C 149.167,188.167 147.833,186.833 146.5,185.5C 147.043,185.44 147.376,185.107 147.5,184.5C 139.873,163.607 141.206,143.607 151.5,124.5C 162.38,116.104 174.38,114.271 187.5,119C 202.46,124.459 212.46,134.625 217.5,149.5 Z"/></g>
<g><path style="opacity:1" fill="#fdf6dd" d="M 543.5,78.5 C 541.748,80.2459 540.415,82.2459 539.5,84.5C 538.542,84.9528 537.708,85.6195 537,86.5C 533.072,93.9646 529.739,101.631 527,109.5C 525.581,122.139 526.915,134.472 531,146.5C 558.457,160.132 584.291,176.132 608.5,194.5C 608.631,195.239 608.464,195.906 608,196.5C 606.644,195.62 605.144,195.286 603.5,195.5C 595.649,190.495 587.649,185.662 579.5,181C 547.387,165.685 514.053,153.851 479.5,145.5C 483.182,145.335 486.848,145.501 490.5,146C 495.319,148.075 500.319,149.575 505.5,150.5C 507.909,150.085 510.242,149.418 512.5,148.5C 511.051,147.828 509.718,147.161 508.5,146.5C 510.467,146.739 512.301,146.406 514,145.5C 514.039,138.516 513.873,131.516 513.5,124.5C 513.294,118.251 513.96,112.251 515.5,106.5C 517.104,105.713 517.771,104.38 517.5,102.5C 520.166,102.067 522.832,101.567 525.5,101C 530.974,95.892 534.807,89.7254 537,82.5C 538.805,80.5178 540.972,79.1845 543.5,78.5 Z"/></g>
<g><path style="opacity:1" fill="#fdfdfc" d="M 508.5,146.5 C 509.718,147.161 511.051,147.828 512.5,148.5C 510.242,149.418 507.909,150.085 505.5,150.5C 500.319,149.575 495.319,148.075 490.5,146C 486.848,145.501 483.182,145.335 479.5,145.5C 470.215,144.173 460.881,143.173 451.5,142.5C 442.797,139.883 433.797,139.05 424.5,140C 421.726,146.658 422.06,153.158 425.5,159.5C 425.523,161.927 426.023,164.26 427,166.5C 433.418,176.337 440.085,186.003 447,195.5C 450.607,203.733 454.44,211.9 458.5,220C 459.161,222.464 459.661,224.964 460,227.5C 462.131,229.117 463.631,231.117 464.5,233.5C 467.023,240.908 469.023,248.575 470.5,256.5C 470.5,256.833 470.5,257.167 470.5,257.5C 434.833,257.5 399.167,257.5 363.5,257.5C 363.5,257.167 363.5,256.833 363.5,256.5C 366.867,234.063 374.201,213.063 385.5,193.5C 392.443,182.558 399.776,171.892 407.5,161.5C 410.745,160.373 412.578,158.039 413,154.5C 414.101,148.984 413.267,143.817 410.5,139C 401.5,138.333 392.5,138.333 383.5,139C 374.229,140.659 364.896,141.826 355.5,142.5C 355.5,143.5 355.5,144.5 355.5,145.5C 344.856,147.33 334.189,148.997 323.5,150.5C 323.5,149.5 323.5,148.5 323.5,147.5C 328.769,142.417 334.769,138.25 341.5,135C 390.865,119.668 440.198,119.668 489.5,135C 496.508,137.867 502.842,141.701 508.5,146.5 Z"/></g>
<g><path style="opacity:1" fill="#d5aa79" d="M 681.5,91.5 C 682.458,91.9528 683.292,92.6195 684,93.5C 684.399,93.2716 684.565,92.9382 684.5,92.5C 691.434,101.288 696.934,110.954 701,121.5C 701.977,123.74 702.477,126.073 702.5,128.5C 699.625,125.589 698.125,121.922 698,117.5C 697.667,117.833 697.333,118.167 697,118.5C 696.667,117.167 696.333,115.833 696,114.5C 695.667,114.833 695.333,115.167 695,115.5C 693.402,111.202 691.735,106.869 690,102.5C 688.162,99.1121 685.662,96.4454 682.5,94.5C 681.89,93.609 681.557,92.609 681.5,91.5 Z"/></g>
<g><path style="opacity:1" fill="#e8b37d" d="M 539.5,84.5 C 536.29,92.9653 532.79,101.299 529,109.5C 527.806,116.97 528.639,124.136 531.5,131C 534.451,131.096 537.118,131.929 539.5,133.5C 541.596,132.38 541.93,130.88 540.5,129C 541.103,126.929 542.436,125.762 544.5,125.5C 544.199,133.951 545.032,142.285 547,150.5C 561.728,157.78 576.228,165.447 590.5,173.5C 591.262,175.262 592.596,176.262 594.5,176.5C 596.833,178.5 599.167,180.5 601.5,182.5C 608.104,187.435 614.104,193.102 619.5,199.5C 615.588,198.416 611.921,196.75 608.5,194.5C 584.291,176.132 558.457,160.132 531,146.5C 526.915,134.472 525.581,122.139 527,109.5C 529.739,101.631 533.072,93.9646 537,86.5C 537.708,85.6195 538.542,84.9528 539.5,84.5 Z"/></g>
<g><path style="opacity:1" fill="#fbf6e2" d="M 305.5,102.5 C 309.952,104.354 314.285,106.354 318.5,108.5C 319.314,120.758 319.814,133.091 320,145.5C 320.816,146.823 321.983,147.489 323.5,147.5C 323.5,148.5 323.5,149.5 323.5,150.5C 334.189,148.997 344.856,147.33 355.5,145.5C 345.701,148.065 335.701,150.398 325.5,152.5C 322.38,152.156 319.547,152.823 317,154.5C 316,154.167 315,153.833 314,153.5C 309.471,155.928 304.637,157.595 299.5,158.5C 299.677,156.019 298.677,154.186 296.5,153C 299.322,151.426 302.156,149.926 305,148.5C 305.186,146.1 305.686,143.766 306.5,141.5C 307.874,144.363 308.874,147.363 309.5,150.5C 312.5,151.833 315.5,151.833 318.5,150.5C 317.167,148.167 315.833,145.833 314.5,143.5C 315.782,141.821 316.782,139.987 317.5,138C 317.024,133.716 316.524,129.216 316,124.5C 315.81,129.637 314.476,130.303 312,126.5C 311.667,123.5 311.333,120.5 311,117.5C 309.525,114.878 308.359,112.212 307.5,109.5C 306.388,107.401 305.721,105.067 305.5,102.5 Z"/></g>
<g><path style="opacity:1" fill="#e0bb90" d="M 451.5,142.5 C 442.849,141.58 434.183,141.413 425.5,142C 423.993,143.473 423.326,145.307 423.5,147.5C 424.651,152.278 425.984,156.945 427.5,161.5C 426.833,160.833 426.167,160.167 425.5,159.5C 422.06,153.158 421.726,146.658 424.5,140C 433.797,139.05 442.797,139.883 451.5,142.5 Z"/></g>
<g><path style="opacity:1" fill="#e4b986" d="M 408.5,157.5 C 409.85,152.742 409.684,148.076 408,143.5C 404.584,142.852 401.084,142.518 397.5,142.5C 387.239,143.849 376.906,144.682 366.5,145C 357.538,147.506 348.538,149.506 339.5,151C 330.796,155.517 321.463,158.017 311.5,158.5C 316.096,156.302 320.763,154.302 325.5,152.5C 335.701,150.398 345.701,148.065 355.5,145.5C 367.436,143.351 379.436,141.517 391.5,140C 396.833,139.333 402.167,139.333 407.5,140C 410.937,141.506 412.27,144.173 411.5,148C 411.895,151.713 410.895,154.88 408.5,157.5 Z"/></g>
<g><path style="opacity:1" fill="#825049" d="M 217.5,149.5 C 218.887,151.489 218.553,153.322 216.5,155C 192.287,168.112 170.62,184.612 151.5,204.5C 151.663,199.453 151.329,194.453 150.5,189.5C 152.969,180.894 156.802,172.894 162,165.5C 176.97,146.327 195.47,140.994 217.5,149.5 Z"/></g>
<g><path style="opacity:1" fill="#835149" d="M 680.5,189.5 C 679.298,193.048 678.631,196.715 678.5,200.5C 659.432,182.799 638.432,167.799 615.5,155.5C 614.2,152.691 614.2,150.024 615.5,147.5C 615.369,148.239 615.536,148.906 616,149.5C 618.087,148.206 620.254,147.039 622.5,146C 628.167,145.333 633.833,145.333 639.5,146C 661.623,152.62 675.289,167.12 680.5,189.5 Z"/></g>
<g><path style="opacity:1" fill="#ecb26f" d="M 408.5,157.5 C 408.167,158.833 407.833,160.167 407.5,161.5C 399.776,171.892 392.443,182.558 385.5,193.5C 383.616,194.382 382.283,195.882 381.5,198C 380.451,198.492 379.451,198.326 378.5,197.5C 375.651,200.414 374.984,203.747 376.5,207.5C 373.826,211.199 372.159,215.032 371.5,219C 370.217,221.412 368.384,223.245 366,224.5C 366.274,228.148 365.607,231.815 364,235.5C 361.548,230.764 362.048,226.43 365.5,222.5C 362.232,221.513 358.898,221.18 355.5,221.5C 355.5,226.833 355.5,232.167 355.5,237.5C 357.833,237.5 360.167,237.5 362.5,237.5C 362.897,241.58 361.897,245.246 359.5,248.5C 362.118,250.2 362.784,252.366 361.5,255C 311.5,255.667 261.5,255.667 211.5,255C 209.1,254.814 206.766,254.314 204.5,253.5C 208.081,251.753 211.747,250.419 215.5,249.5C 221.878,251.61 228.378,251.943 235,250.5C 245.709,252.26 256.542,252.927 267.5,252.5C 267.5,251.5 267.5,250.5 267.5,249.5C 276.744,249.127 276.744,248.127 267.5,246.5C 270.086,245.52 272.753,245.187 275.5,245.5C 275.5,234.833 275.5,224.167 275.5,213.5C 272.833,213.5 270.167,213.5 267.5,213.5C 267.5,210.833 267.5,208.167 267.5,205.5C 259.5,205.5 251.5,205.5 243.5,205.5C 243.5,208.167 243.5,210.833 243.5,213.5C 240.833,213.5 238.167,213.5 235.5,213.5C 235.5,211.5 235.5,209.5 235.5,207.5C 232.833,207.5 230.167,207.5 227.5,207.5C 227.319,204.603 227.652,201.77 228.5,199C 231.358,196.923 233.691,194.423 235.5,191.5C 245.257,185.732 255.257,180.232 265.5,175C 275.938,170.948 286.272,166.615 296.5,162C 301.402,160.358 306.402,159.191 311.5,158.5C 321.463,158.017 330.796,155.517 339.5,151C 348.538,149.506 357.538,147.506 366.5,145C 376.906,144.682 387.239,143.849 397.5,142.5C 401.084,142.518 404.584,142.852 408,143.5C 409.684,148.076 409.85,152.742 408.5,157.5 Z"/></g>
<g><path style="opacity:1" fill="#edb36f" d="M 451.5,142.5 C 460.881,143.173 470.215,144.173 479.5,145.5C 514.053,153.851 547.387,165.685 579.5,181C 587.649,185.662 595.649,190.495 603.5,195.5C 615.705,203.196 627.538,211.53 639,220.5C 639.399,220.272 639.565,219.938 639.5,219.5C 640.473,219.987 641.473,220.487 642.5,221C 652.795,231.937 662.128,243.603 670.5,256C 603.834,256.5 537.167,256.667 470.5,256.5C 469.023,248.575 467.023,240.908 464.5,233.5C 463.905,229.385 462.905,225.385 461.5,221.5C 460.39,216.923 459.557,212.256 459,207.5C 452.896,199.889 447.896,191.556 444,182.5C 440.678,178.985 437.845,174.985 435.5,170.5C 433.815,169.047 432.149,167.714 430.5,166.5C 428.75,165.341 427.75,163.674 427.5,161.5C 425.984,156.945 424.651,152.278 423.5,147.5C 423.326,145.307 423.993,143.473 425.5,142C 434.183,141.413 442.849,141.58 451.5,142.5 Z"/></g>
<g><path style="opacity:1" fill="#fef6e5" d="M 407.5,161.5 C 407.833,160.167 408.167,158.833 408.5,157.5C 410.895,154.88 411.895,151.713 411.5,148C 412.27,144.173 410.937,141.506 407.5,140C 402.167,139.333 396.833,139.333 391.5,140C 379.436,141.517 367.436,143.351 355.5,145.5C 355.5,144.5 355.5,143.5 355.5,142.5C 364.896,141.826 374.229,140.659 383.5,139C 392.5,138.333 401.5,138.333 410.5,139C 413.267,143.817 414.101,148.984 413,154.5C 412.578,158.039 410.745,160.373 407.5,161.5 Z"/></g>
<g><path style="opacity:1" fill="#996443" d="M 585.5,97.5 C 578.021,109.055 575.187,121.721 577,135.5C 579.057,150.857 584.891,164.524 594.5,176.5C 592.596,176.262 591.262,175.262 590.5,173.5C 588.239,170.675 585.739,168.008 583,165.5C 582.709,161.945 581.375,158.945 579,156.5C 575.75,142.682 574.75,128.682 576,114.5C 577.719,108.589 579.886,102.922 582.5,97.5C 583.5,97.5 584.5,97.5 585.5,97.5 Z"/></g>
<g><path style="opacity:1" fill="#e6b67c" d="M 303.5,142.5 C 303.822,144.722 303.155,146.556 301.5,148C 298.56,149.152 295.56,150.152 292.5,151C 267.862,164.51 244.195,179.343 221.5,195.5C 215.02,201.663 208.02,206.996 200.5,211.5C 208.86,202.473 217.527,193.806 226.5,185.5C 229.167,183.5 231.5,181.167 233.5,178.5C 235.5,177.167 237.5,175.833 239.5,174.5C 244.059,172.39 248.392,170.057 252.5,167.5C 264.327,162.011 275.993,156.345 287.5,150.5C 290.987,150.095 294.32,149.095 297.5,147.5C 299.272,145.38 301.272,143.713 303.5,142.5 Z"/></g>
<g><path style="opacity:1" fill="#a36339" d="M 705.5,143.5 C 706.302,144.952 706.802,146.618 707,148.5C 708.999,167.505 706.333,185.839 699,203.5C 697.171,207.828 694.838,211.828 692,215.5C 687.663,210.331 683.163,205.331 678.5,200.5C 678.631,196.715 679.298,193.048 680.5,189.5C 682.806,186.946 685.139,184.279 687.5,181.5C 687.833,180.833 688.167,180.167 688.5,179.5C 698.456,169.585 704.123,157.585 705.5,143.5 Z"/></g>
<g><path style="opacity:1" fill="#865938" d="M 233.5,178.5 C 231.5,181.167 229.167,183.5 226.5,185.5C 218.583,189.131 210.916,193.131 203.5,197.5C 212.478,189.671 222.478,183.337 233.5,178.5 Z"/></g>
<g><path style="opacity:1" fill="#a3623a" d="M 125.5,149.5 C 129.902,162.965 136.902,174.965 146.5,185.5C 147.833,186.833 149.167,188.167 150.5,189.5C 151.329,194.453 151.663,199.453 151.5,204.5C 148.136,208.363 144.636,212.029 141,215.5C 138.981,213.812 137.314,211.812 136,209.5C 126.755,190.358 123.255,170.358 125.5,149.5 Z"/></g>
<g><path style="opacity:1" fill="#e1b482" d="M 430.5,166.5 C 432.149,167.714 433.815,169.047 435.5,170.5C 437.845,174.985 440.678,178.985 444,182.5C 447.896,191.556 452.896,199.889 459,207.5C 459.557,212.256 460.39,216.923 461.5,221.5C 457.926,213.977 454.426,206.311 451,198.5C 444.338,187.682 437.504,177.015 430.5,166.5 Z"/></g>
<g><path style="opacity:1" fill="#a06433" d="M 226.5,185.5 C 217.527,193.806 208.86,202.473 200.5,211.5C 197.5,214.167 194.5,216.833 191.5,219.5C 187.122,219.205 186.122,217.538 188.5,214.5C 187.385,213.402 187.385,212.235 188.5,211C 194.273,207.395 199.273,202.895 203.5,197.5C 210.916,193.131 218.583,189.131 226.5,185.5 Z"/></g>
<g><path style="opacity:1" fill="#ebb374" d="M 235.5,191.5 C 233.691,194.423 231.358,196.923 228.5,199C 227.652,201.77 227.319,204.603 227.5,207.5C 230.167,207.5 232.833,207.5 235.5,207.5C 235.5,209.5 235.5,211.5 235.5,213.5C 238.167,213.5 240.833,213.5 243.5,213.5C 243.5,210.833 243.5,208.167 243.5,205.5C 251.5,205.5 259.5,205.5 267.5,205.5C 267.5,208.167 267.5,210.833 267.5,213.5C 270.167,213.5 272.833,213.5 275.5,213.5C 275.5,224.167 275.5,234.833 275.5,245.5C 272.753,245.187 270.086,245.52 267.5,246.5C 276.744,248.127 276.744,249.127 267.5,249.5C 267.5,250.5 267.5,251.5 267.5,252.5C 256.542,252.927 245.709,252.26 235,250.5C 228.378,251.943 221.878,251.61 215.5,249.5C 211.747,250.419 208.081,251.753 204.5,253.5C 206.766,254.314 209.1,254.814 211.5,255C 261.5,255.667 311.5,255.667 361.5,255C 362.784,252.366 362.118,250.2 359.5,248.5C 361.897,245.246 362.897,241.58 362.5,237.5C 360.167,237.5 357.833,237.5 355.5,237.5C 355.5,232.167 355.5,226.833 355.5,221.5C 358.898,221.18 362.232,221.513 365.5,222.5C 362.048,226.43 361.548,230.764 364,235.5C 365.607,231.815 366.274,228.148 366,224.5C 368.384,223.245 370.217,221.412 371.5,219C 372.159,215.032 373.826,211.199 376.5,207.5C 374.984,203.747 375.651,200.414 378.5,197.5C 379.451,198.326 380.451,198.492 381.5,198C 382.283,195.882 383.616,194.382 385.5,193.5C 374.201,213.063 366.867,234.063 363.5,256.5C 296.833,256.667 230.166,256.5 163.5,256C 170.624,243.911 179.291,233.077 189.5,223.5C 189.435,223.938 189.601,224.272 190,224.5C 198.829,216.155 208.329,208.822 218.5,202.5C 223.915,198.413 229.582,194.746 235.5,191.5 Z"/></g>
<g><path style="opacity:1" fill="#9e6741" d="M 601.5,182.5 C 618.684,190.588 634.351,200.921 648.5,213.5C 645.118,213.274 642.118,212.274 639.5,210.5C 639.747,212.858 639.081,214.858 637.5,216.5C 631.5,210.833 625.5,205.167 619.5,199.5C 614.104,193.102 608.104,187.435 601.5,182.5 Z"/></g>
<g><path style="opacity:1" fill="#fce2b4" d="M 221.5,195.5 C 220.457,198.056 218.79,200.223 216.5,202C 217.094,202.464 217.761,202.631 218.5,202.5C 208.329,208.822 198.829,216.155 190,224.5C 189.601,224.272 189.435,223.938 189.5,223.5C 190.6,222.395 191.267,221.062 191.5,219.5C 194.5,216.833 197.5,214.167 200.5,211.5C 208.02,206.996 215.02,201.663 221.5,195.5 Z"/></g>
<g><path style="opacity:1" fill="#fdddaf" d="M 608.5,194.5 C 611.921,196.75 615.588,198.416 619.5,199.5C 625.5,205.167 631.5,210.833 637.5,216.5C 638.167,217.5 638.833,218.5 639.5,219.5C 639.565,219.938 639.399,220.272 639,220.5C 627.538,211.53 615.705,203.196 603.5,195.5C 605.144,195.286 606.644,195.62 608,196.5C 608.464,195.906 608.631,195.239 608.5,194.5 Z"/></g>
<g><path style="opacity:1" fill="#fef6e4" d="M 425.5,159.5 C 426.167,160.167 426.833,160.833 427.5,161.5C 427.75,163.674 428.75,165.341 430.5,166.5C 437.504,177.015 444.338,187.682 451,198.5C 454.426,206.311 457.926,213.977 461.5,221.5C 462.905,225.385 463.905,229.385 464.5,233.5C 463.631,231.117 462.131,229.117 460,227.5C 459.661,224.964 459.161,222.464 458.5,220C 454.44,211.9 450.607,203.733 447,195.5C 440.085,186.003 433.418,176.337 427,166.5C 426.023,164.26 425.523,161.927 425.5,159.5 Z"/></g>
<g><path style="opacity:1" fill="#a46940" d="M 648.5,213.5 C 664.518,225.851 678.518,240.185 690.5,256.5C 617.17,257.5 543.836,257.833 470.5,257.5C 470.5,257.167 470.5,256.833 470.5,256.5C 537.167,256.667 603.834,256.5 670.5,256C 662.128,243.603 652.795,231.937 642.5,221C 641.473,220.487 640.473,219.987 639.5,219.5C 638.833,218.5 638.167,217.5 637.5,216.5C 639.081,214.858 639.747,212.858 639.5,210.5C 642.118,212.274 645.118,213.274 648.5,213.5 Z"/></g>
<g><path style="opacity:1" fill="#a26a40" d="M 203.5,197.5 C 199.273,202.895 194.273,207.395 188.5,211C 187.385,212.235 187.385,213.402 188.5,214.5C 186.122,217.538 187.122,219.205 191.5,219.5C 191.267,221.062 190.6,222.395 189.5,223.5C 179.291,233.077 170.624,243.911 163.5,256C 230.166,256.5 296.833,256.667 363.5,256.5C 363.5,256.833 363.5,257.167 363.5,257.5C 289.83,257.833 216.164,257.5 142.5,256.5C 159.293,233.038 179.626,213.372 203.5,197.5 Z"/></g>
<g><path style="opacity:1" fill="#fcfcfc" d="M 130.5,287.5 C 130.5,297.833 130.5,308.167 130.5,318.5C 121.833,318.5 113.167,318.5 104.5,318.5C 104.5,308.5 104.5,298.5 104.5,288.5C 112.984,287.507 121.651,287.174 130.5,287.5 Z"/></g>
<g><path style="opacity:1" fill="#fefefe" d="M 155.5,288.5 C 163.833,288.5 172.167,288.5 180.5,288.5C 180.5,298.5 180.5,308.5 180.5,318.5C 172.167,318.5 163.833,318.5 155.5,318.5C 155.5,308.5 155.5,298.5 155.5,288.5 Z"/></g>
<g><path style="opacity:1" fill="#fdfdfd" d="M 205.5,287.5 C 214.167,287.5 222.833,287.5 231.5,287.5C 231.5,297.833 231.5,308.167 231.5,318.5C 222.833,318.5 214.167,318.5 205.5,318.5C 205.5,308.167 205.5,297.833 205.5,287.5 Z"/></g>
<g><path style="opacity:1" fill="#a7a7a7" d="M 579.5,319.5 C 579.167,319.5 578.833,319.5 578.5,319.5C 578.5,309.167 578.5,298.833 578.5,288.5C 570.167,288.5 561.833,288.5 553.5,288.5C 553.5,298.5 553.5,308.5 553.5,318.5C 561.684,318.174 569.684,318.508 577.5,319.5C 569.316,319.174 561.316,319.508 553.5,320.5C 546.167,320.5 538.833,320.5 531.5,320.5C 538.313,319.509 545.313,319.175 552.5,319.5C 552.5,308.833 552.5,298.167 552.5,287.5C 561.5,287.5 570.5,287.5 579.5,287.5C 579.5,298.167 579.5,308.833 579.5,319.5 Z"/></g>
<g><path style="opacity:1" fill="#fefefe" d="M 578.5,319.5 C 578.167,319.5 577.833,319.5 577.5,319.5C 569.684,318.508 561.684,318.174 553.5,318.5C 553.5,308.5 553.5,298.5 553.5,288.5C 561.833,288.5 570.167,288.5 578.5,288.5C 578.5,298.833 578.5,309.167 578.5,319.5 Z"/></g>
<g><path style="opacity:1" fill="#fdfdfd" d="M 626.5,287.5 C 626.5,297.833 626.5,308.167 626.5,318.5C 618.5,318.5 610.5,318.5 602.5,318.5C 601.506,308.681 601.173,298.681 601.5,288.5C 609.65,287.507 617.983,287.174 626.5,287.5 Z"/></g>
<g><path style="opacity:1" fill="#afafaf" d="M 155.5,288.5 C 155.5,288.167 155.5,287.833 155.5,287.5C 164.167,287.5 172.833,287.5 181.5,287.5C 181.5,297.833 181.5,308.167 181.5,318.5C 181.167,318.5 180.833,318.5 180.5,318.5C 180.5,308.5 180.5,298.5 180.5,288.5C 172.167,288.5 163.833,288.5 155.5,288.5 Z"/></g>
<g><path style="opacity:1" fill="#c5c5c5" d="M 534.5,318.5 C 534.5,308.5 534.5,298.5 534.5,288.5C 526.167,288.5 517.833,288.5 509.5,288.5C 509.5,298.5 509.5,308.5 509.5,318.5C 508.506,308.347 508.172,298.014 508.5,287.5C 517.5,287.5 526.5,287.5 535.5,287.5C 535.828,298.014 535.494,308.347 534.5,318.5 Z"/></g>
<g><path style="opacity:1" fill="#fefefe" d="M 534.5,318.5 C 526.167,318.5 517.833,318.5 509.5,318.5C 509.5,308.5 509.5,298.5 509.5,288.5C 517.833,288.5 526.167,288.5 534.5,288.5C 534.5,298.5 534.5,308.5 534.5,318.5 Z"/></g>
<g><path style="opacity:1" fill="#fefefe" d="M 466.5,358.5 C 475.318,359.493 484.318,359.827 493.5,359.5C 493.174,367.684 493.508,375.684 494.5,383.5C 495.443,386.109 497.11,388.109 499.5,389.5C 507.316,390.492 515.316,390.826 523.5,390.5C 523.173,399.682 523.507,408.682 524.5,417.5C 525.473,419.139 526.806,420.473 528.5,421.5C 539.321,422.495 550.321,422.828 561.5,422.5C 561.175,430.019 561.508,437.352 562.5,444.5C 563.625,446.129 564.959,447.629 566.5,449C 598.833,449.667 631.167,449.667 663.5,449C 666.079,447.924 667.746,446.091 668.5,443.5C 669.491,436.687 669.825,429.687 669.5,422.5C 680.014,422.828 690.347,422.494 700.5,421.5C 702.754,420.585 704.754,419.252 706.5,417.5C 720.021,427.009 732.687,437.676 744.5,449.5C 745.11,450.391 745.443,451.391 745.5,452.5C 760.531,535.914 731.531,599.081 658.5,642C 582.556,682.824 501.889,696.324 416.5,682.5C 338.568,694.77 263.901,684.604 192.5,652C 166.269,639.46 143.103,622.627 123,601.5C 86.9171,557.705 75.4171,508.039 88.5,452.5C 89.1667,451.167 89.8333,449.833 90.5,448.5C 102.313,436.676 114.979,426.009 128.5,416.5C 128.833,416.5 129.167,416.5 129.5,416.5C 130.023,418.708 131.356,420.208 133.5,421C 144.828,421.5 156.162,421.667 167.5,421.5C 167.334,429.507 167.5,437.507 168,445.5C 168.833,446.333 169.667,447.167 170.5,448C 187.412,449.153 204.412,449.653 221.5,449.5C 237.833,449.333 254.167,449.167 270.5,449C 272.57,448.052 274.07,446.552 275,444.5C 275.5,436.841 275.666,429.174 275.5,421.5C 286.838,421.667 298.172,421.5 309.5,421C 310.667,419.833 311.833,418.667 313,417.5C 313.5,408.506 313.666,399.506 313.5,390.5C 321.174,390.666 328.841,390.5 336.5,390C 339,388.833 340.833,387 342,384.5C 342.5,375.84 342.666,367.173 342.5,358.5C 351.506,358.666 360.506,358.5 369.5,358C 371.286,357.215 372.786,356.049 374,354.5C 375.475,335.259 375.975,315.926 375.5,296.5C 403.5,296.5 431.5,296.5 459.5,296.5C 459.333,315.503 459.5,334.503 460,353.5C 461.777,355.79 463.944,357.457 466.5,358.5 Z"/></g>
<g><path style="opacity:1" fill="#cbcbcb" d="M 601.5,288.5 C 601.173,298.681 601.506,308.681 602.5,318.5C 602.5,318.833 602.5,319.167 602.5,319.5C 602.828,330.014 602.494,340.347 601.5,350.5C 601.5,340.5 601.5,330.5 601.5,320.5C 593.833,320.5 586.167,320.5 578.5,320.5C 578.5,330.5 578.5,340.5 578.5,350.5C 578.167,350.5 577.833,350.5 577.5,350.5C 577.5,340.167 577.5,329.833 577.5,319.5C 577.833,319.5 578.167,319.5 578.5,319.5C 578.833,319.5 579.167,319.5 579.5,319.5C 586.5,319.5 593.5,319.5 600.5,319.5C 600.172,308.986 600.506,298.653 601.5,288.5 Z"/></g>
<g><path style="opacity:1" fill="#7c7c7c" d="M 104.5,288.5 C 104.5,298.5 104.5,308.5 104.5,318.5C 113.167,318.5 121.833,318.5 130.5,318.5C 130.5,318.833 130.5,319.167 130.5,319.5C 130.5,329.833 130.5,340.167 130.5,350.5C 129.506,340.347 129.172,330.014 129.5,319.5C 120.833,319.5 112.167,319.5 103.5,319.5C 103.172,308.986 103.506,298.653 104.5,288.5 Z"/></g>
<g><path style="opacity:1" fill="#4f4f4f" d="M 130.5,287.5 C 131.494,297.653 131.828,307.986 131.5,318.5C 139.167,318.5 146.833,318.5 154.5,318.5C 154.5,318.833 154.5,319.167 154.5,319.5C 146.5,319.5 138.5,319.5 130.5,319.5C 130.5,319.167 130.5,318.833 130.5,318.5C 130.5,308.167 130.5,297.833 130.5,287.5 Z"/></g>
<g><path style="opacity:1" fill="#7c7c7c" d="M 205.5,287.5 C 205.5,297.833 205.5,308.167 205.5,318.5C 214.167,318.5 222.833,318.5 231.5,318.5C 222.833,319.167 214.167,319.833 205.5,320.5C 205.167,320.5 204.833,320.5 204.5,320.5C 204.5,319.833 204.167,319.5 203.5,319.5C 204.145,308.735 204.812,298.068 205.5,287.5 Z"/></g>
<g><path style="opacity:1" fill="#909090" d="M 626.5,287.5 C 627.494,297.987 627.828,308.654 627.5,319.5C 619.167,319.5 610.833,319.5 602.5,319.5C 602.5,319.167 602.5,318.833 602.5,318.5C 610.5,318.5 618.5,318.5 626.5,318.5C 626.5,308.167 626.5,297.833 626.5,287.5 Z"/></g>
<g><path style="opacity:1" fill="#040404" d="M 577.5,319.5 C 577.5,329.833 577.5,340.167 577.5,350.5C 577.5,350.833 577.5,351.167 577.5,351.5C 569.833,351.5 562.167,351.5 554.5,351.5C 554.817,347.298 554.483,343.298 553.5,339.5C 553.5,333.167 553.5,326.833 553.5,320.5C 561.316,319.508 569.316,319.174 577.5,319.5 Z"/></g>
<g><path style="opacity:1" fill="#fcfcfc" d="M 130.5,319.5 C 138.5,319.5 146.5,319.5 154.5,319.5C 154.833,319.5 155.167,319.5 155.5,319.5C 155.828,330.014 155.494,340.347 154.5,350.5C 146.5,350.5 138.5,350.5 130.5,350.5C 130.5,340.167 130.5,329.833 130.5,319.5 Z"/></g>
<g><path style="opacity:1" fill="#000000" d="M 156.5,319.5 C 164.167,319.5 171.833,319.5 179.5,319.5C 179.5,329.833 179.5,340.167 179.5,350.5C 171.833,350.5 164.167,350.5 156.5,350.5C 156.5,340.167 156.5,329.833 156.5,319.5 Z"/></g>
<g><path style="opacity:1" fill="#fdfdfd" d="M 531.5,320.5 C 538.833,320.5 546.167,320.5 553.5,320.5C 553.5,326.833 553.5,333.167 553.5,339.5C 553.815,343.371 553.482,347.038 552.5,350.5C 545.167,350.5 537.833,350.5 530.5,350.5C 530.173,340.319 530.506,330.319 531.5,320.5 Z"/></g>
<g><path style="opacity:1" fill="#fdfdfd" d="M 601.5,350.5 C 594.167,350.5 586.833,350.5 579.5,350.5C 579.167,350.5 578.833,350.5 578.5,350.5C 578.5,340.5 578.5,330.5 578.5,320.5C 586.167,320.5 593.833,320.5 601.5,320.5C 601.5,330.5 601.5,340.5 601.5,350.5 Z"/></g>
<g><path style="opacity:1" fill="#333333" d="M 155.5,319.5 C 155.833,319.5 156.167,319.5 156.5,319.5C 156.5,329.833 156.5,340.167 156.5,350.5C 164.167,350.5 171.833,350.5 179.5,350.5C 179.5,350.833 179.5,351.167 179.5,351.5C 171.5,351.5 163.5,351.5 155.5,351.5C 155.5,362.833 155.5,374.167 155.5,385.5C 154.505,374.012 154.172,362.345 154.5,350.5C 155.494,340.347 155.828,330.014 155.5,319.5 Z"/></g>
<g><path style="opacity:1" fill="#cfcfcf" d="M 181.5,319.5 C 188.833,319.5 196.167,319.5 203.5,319.5C 204.167,319.5 204.5,319.833 204.5,320.5C 204.833,320.5 205.167,320.5 205.5,320.5C 205.5,330.5 205.5,340.5 205.5,350.5C 197.5,350.5 189.5,350.5 181.5,350.5C 180.167,340.167 180.167,329.833 181.5,319.5 Z"/></g>
<g><path style="opacity:1" fill="#fefefe" d="M 204.5,320.5 C 204.5,330.167 204.5,339.833 204.5,349.5C 196.833,349.5 189.167,349.5 181.5,349.5C 181.5,339.833 181.5,330.167 181.5,320.5C 189.167,320.5 196.833,320.5 204.5,320.5 Z"/></g>
<g><path style="opacity:1" fill="#fdfdfd" d="M 179.5,351.5 C 180.495,362.654 180.828,373.988 180.5,385.5C 172.167,385.5 163.833,385.5 155.5,385.5C 155.5,374.167 155.5,362.833 155.5,351.5C 163.5,351.5 171.5,351.5 179.5,351.5 Z"/></g>
<g><path style="opacity:1" fill="#838383" d="M 155.5,287.5 C 155.5,287.833 155.5,288.167 155.5,288.5C 155.5,298.5 155.5,308.5 155.5,318.5C 163.833,318.5 172.167,318.5 180.5,318.5C 180.833,318.5 181.167,318.5 181.5,318.5C 181.5,318.833 181.5,319.167 181.5,319.5C 180.167,329.833 180.167,340.167 181.5,350.5C 181.828,362.345 181.495,374.012 180.5,385.5C 180.828,373.988 180.495,362.654 179.5,351.5C 179.5,351.167 179.5,350.833 179.5,350.5C 179.5,340.167 179.5,329.833 179.5,319.5C 171.833,319.5 164.167,319.5 156.5,319.5C 156.167,319.5 155.833,319.5 155.5,319.5C 155.167,319.5 154.833,319.5 154.5,319.5C 154.5,319.167 154.5,318.833 154.5,318.5C 154.172,307.986 154.506,297.653 155.5,287.5 Z"/></g>
<g><path style="opacity:1" fill="#fdfdfd" d="M 205.5,351.5 C 214.167,351.5 222.833,351.5 231.5,351.5C 231.5,363.833 231.5,376.167 231.5,388.5C 240.5,388.5 249.5,388.5 258.5,388.5C 258.5,397.833 258.5,407.167 258.5,416.5C 240.833,416.5 223.167,416.5 205.5,416.5C 205.5,394.833 205.5,373.167 205.5,351.5 Z"/></g>
<g><path style="opacity:1" fill="#fefefe" d="M 283.5,352.5 C 283.5,352.833 283.5,353.167 283.5,353.5C 282.506,363.653 282.172,373.986 282.5,384.5C 274.5,384.5 266.5,384.5 258.5,384.5C 258.5,373.833 258.5,363.167 258.5,352.5C 266.833,352.5 275.167,352.5 283.5,352.5 Z"/></g>
<g><path style="opacity:1" fill="#fcfcfc" d="M 554.5,351.5 C 562.167,351.5 569.833,351.5 577.5,351.5C 578.495,362.654 578.828,373.988 578.5,385.5C 570.167,385.5 561.833,385.5 553.5,385.5C 553.172,373.988 553.505,362.654 554.5,351.5 Z"/></g>
<g><path style="opacity:1" fill="#fefefe" d="M 627.5,388.5 C 635.5,388.5 643.5,388.5 651.5,388.5C 651.5,397.833 651.5,407.167 651.5,416.5C 635.167,416.5 618.833,416.5 602.5,416.5C 602.5,395.167 602.5,373.833 602.5,352.5C 610.5,352.5 618.5,352.5 626.5,352.5C 626.172,364.678 626.505,376.678 627.5,388.5 Z"/></g>
<g><path style="opacity:1" fill="#c5c5c5" d="M 651.5,351.5 C 660.5,351.5 669.5,351.5 678.5,351.5C 678.5,362.833 678.5,374.167 678.5,385.5C 669.5,385.5 660.5,385.5 651.5,385.5C 651.5,374.167 651.5,362.833 651.5,351.5 Z"/></g>
<g><path style="opacity:1" fill="#fefefe" d="M 652.5,352.5 C 660.833,352.5 669.167,352.5 677.5,352.5C 677.5,363.167 677.5,373.833 677.5,384.5C 669.167,384.5 660.833,384.5 652.5,384.5C 652.5,373.833 652.5,363.167 652.5,352.5 Z"/></g>
<g><path style="opacity:1" fill="#e1e0e1" d="M 283.5,352.5 C 275.167,352.5 266.833,352.5 258.5,352.5C 258.5,363.167 258.5,373.833 258.5,384.5C 266.5,384.5 274.5,384.5 282.5,384.5C 282.172,373.986 282.506,363.653 283.5,353.5C 283.5,364.167 283.5,374.833 283.5,385.5C 274.833,385.5 266.167,385.5 257.5,385.5C 257.5,374.167 257.5,362.833 257.5,351.5C 266.349,351.174 275.016,351.507 283.5,352.5 Z"/></g>
<g><path style="opacity:1" fill="#cecece" d="M 627.5,388.5 C 626.505,376.678 626.172,364.678 626.5,352.5C 618.5,352.5 610.5,352.5 602.5,352.5C 602.5,373.833 602.5,395.167 602.5,416.5C 618.833,416.5 635.167,416.5 651.5,416.5C 635.008,417.497 618.342,417.83 601.5,417.5C 601.5,395.5 601.5,373.5 601.5,351.5C 610.167,351.5 618.833,351.5 627.5,351.5C 627.5,363.833 627.5,376.167 627.5,388.5 Z"/></g>
<g><path style="opacity:1" fill="#b7b7b6" d="M 466.5,358.5 C 475.833,358.5 485.167,358.5 494.5,358.5C 494.5,366.833 494.5,375.167 494.5,383.5C 493.508,375.684 493.174,367.684 493.5,359.5C 484.318,359.827 475.318,359.493 466.5,358.5 Z"/></g>
<g><path style="opacity:1" fill="#6e6e6e" d="M 577.5,351.5 C 577.5,351.167 577.5,350.833 577.5,350.5C 577.833,350.5 578.167,350.5 578.5,350.5C 578.833,350.5 579.167,350.5 579.5,350.5C 579.828,362.345 579.495,374.012 578.5,385.5C 578.828,373.988 578.495,362.654 577.5,351.5 Z"/></g>
<g><path style="opacity:1" fill="#70482e" d="M 96.5,358.5 C 97.3294,366.657 97.8294,374.99 98,383.5C 98.7914,384.745 99.2914,386.078 99.5,387.5C 98.5041,387.586 97.6708,387.252 97,386.5C 96.5002,377.173 96.3335,367.839 96.5,358.5 Z"/></g>
<g><path style="opacity:1" fill="#929292" d="M 553.5,339.5 C 554.483,343.298 554.817,347.298 554.5,351.5C 553.505,362.654 553.172,373.988 553.5,385.5C 552.505,374.012 552.172,362.345 552.5,350.5C 553.482,347.038 553.815,343.371 553.5,339.5 Z"/></g>
<g><path style="opacity:1" fill="#878787" d="M 205.5,351.5 C 205.5,373.167 205.5,394.833 205.5,416.5C 223.167,416.5 240.833,416.5 258.5,416.5C 240.674,417.497 222.674,417.83 204.5,417.5C 204.169,395.327 204.503,373.327 205.5,351.5 Z"/></g>
<g><path style="opacity:1" fill="#757474" d="M 231.5,351.5 C 232.495,363.322 232.828,375.322 232.5,387.5C 241.349,387.174 250.016,387.507 258.5,388.5C 249.5,388.5 240.5,388.5 231.5,388.5C 231.5,376.167 231.5,363.833 231.5,351.5 Z"/></g>
<g><path style="opacity:1" fill="#a76339" d="M 96.5,358.5 C 96.3335,367.839 96.5002,377.173 97,386.5C 97.6708,387.252 98.5041,387.586 99.5,387.5C 103.527,389.358 107.86,390.025 112.5,389.5C 112.5,389.833 112.5,390.167 112.5,390.5C 102.232,408.627 94.8984,427.96 90.5,448.5C 89.325,448.281 88.325,448.614 87.5,449.5C 85.8333,452.5 83.5,454.833 80.5,456.5C 75.9006,454.358 74.2339,450.691 75.5,445.5C 73.1667,445.5 70.8333,445.5 68.5,445.5C 63.5617,436.06 64.2283,426.893 70.5,418C 71.7659,417.691 72.9326,417.191 74,416.5C 74.7348,414.129 75.5682,411.795 76.5,409.5C 75.689,408.784 75.0223,407.95 74.5,407C 76.3154,399.021 79.3154,391.521 83.5,384.5C 84.6781,381.609 85.3447,378.609 85.5,375.5C 88.4223,369.314 92.089,363.648 96.5,358.5 Z"/></g>
<g><path style="opacity:1" fill="#8b5e3f" d="M 741.5,364.5 C 740.5,364.5 739.5,364.5 738.5,364.5C 738.666,371.508 738.5,378.508 738,385.5C 737.052,387.57 735.552,389.07 733.5,390C 729.514,390.499 725.514,390.666 721.5,390.5C 721.167,390.5 720.833,390.5 720.5,390.5C 716.167,390.5 711.833,390.5 707.5,390.5C 707.826,398.684 707.492,406.684 706.5,414.5C 706.5,406.167 706.5,397.833 706.5,389.5C 715.276,389.941 723.942,389.441 732.5,388C 733.667,386.833 734.833,385.667 736,384.5C 736.168,375.814 736.668,367.148 737.5,358.5C 739.337,360.176 740.67,362.176 741.5,364.5 Z"/></g>
<g><path style="opacity:1" fill="#ebb172" d="M 112.5,390.5 C 117.833,390.5 123.167,390.5 128.5,390.5C 128.5,399.167 128.5,407.833 128.5,416.5C 114.979,426.009 102.313,436.676 90.5,448.5C 94.8984,427.96 102.232,408.627 112.5,390.5 Z"/></g>
<g><path style="opacity:1" fill="#aa855f" d="M 112.5,390.5 C 112.5,390.167 112.5,389.833 112.5,389.5C 118.167,389.5 123.833,389.5 129.5,389.5C 129.5,398.5 129.5,407.5 129.5,416.5C 129.167,416.5 128.833,416.5 128.5,416.5C 128.5,407.833 128.5,399.167 128.5,390.5C 123.167,390.5 117.833,390.5 112.5,390.5 Z"/></g>
<g><path style="opacity:1" fill="#979797" d="M 499.5,389.5 C 507.833,389.5 516.167,389.5 524.5,389.5C 524.5,398.833 524.5,408.167 524.5,417.5C 523.507,408.682 523.173,399.682 523.5,390.5C 515.316,390.826 507.316,390.492 499.5,389.5 Z"/></g>
<g><path style="opacity:1" fill="#ecb16a" d="M 720.5,390.5 C 720.833,390.5 721.167,390.5 721.5,390.5C 724.041,396.273 726.874,401.94 730,407.5C 730.813,409.436 731.313,411.436 731.5,413.5C 731.827,416.482 731.827,419.315 731.5,422C 732.495,424.971 733.495,427.971 734.5,431C 734.387,432.28 733.72,433.113 732.5,433.5C 730.249,431.165 727.583,429.332 724.5,428C 721.046,422.433 716.046,419.1 709.5,418C 708.516,409.251 708.183,400.418 708.5,391.5C 712.702,391.817 716.702,391.483 720.5,390.5 Z"/></g>
<g><path style="opacity:1" fill="#8f5d40" d="M 752.5,385.5 C 762.152,403.79 768.819,423.123 772.5,443.5C 770.625,436.2 768.292,429.2 765.5,422.5C 763.515,419.514 762.348,416.18 762,412.5C 760.907,410.651 759.574,408.984 758,407.5C 755.984,400.211 754.151,392.877 752.5,385.5 Z"/></g>
<g><path style="opacity:1" fill="#e9b379" d="M 720.5,390.5 C 716.702,391.483 712.702,391.817 708.5,391.5C 708.183,400.418 708.516,409.251 709.5,418C 716.046,419.1 721.046,422.433 724.5,428C 727.583,429.332 730.249,431.165 732.5,433.5C 733.72,433.113 734.387,432.28 734.5,431C 733.495,427.971 732.495,424.971 731.5,422C 731.827,419.315 731.827,416.482 731.5,413.5C 736.982,424.934 741.315,436.934 744.5,449.5C 732.687,437.676 720.021,427.009 706.5,417.5C 706.5,416.5 706.5,415.5 706.5,414.5C 707.492,406.684 707.826,398.684 707.5,390.5C 711.833,390.5 716.167,390.5 720.5,390.5 Z"/></g>
<g><path style="opacity:1" fill="#a5a5a5" d="M 528.5,421.5 C 539.833,421.5 551.167,421.5 562.5,421.5C 562.5,429.167 562.5,436.833 562.5,444.5C 561.508,437.352 561.175,430.019 561.5,422.5C 550.321,422.828 539.321,422.495 528.5,421.5 Z"/></g>
<g><path style="opacity:1" fill="#9e9e9e" d="M 700.5,421.5 C 690.347,422.494 680.014,422.828 669.5,422.5C 669.825,429.687 669.491,436.687 668.5,443.5C 668.5,436.167 668.5,428.833 668.5,421.5C 679.167,421.5 689.833,421.5 700.5,421.5 Z"/></g>
<g><path style="opacity:1" fill="#050404" d="M 431.5,546.5 C 431.217,545.711 430.717,545.044 430,544.5C 429.175,555.341 429.341,566.008 430.5,576.5C 435.766,591.587 446.433,599.754 462.5,601C 470.141,607.367 470.475,614.201 463.5,621.5C 450.978,625.288 439.311,623.455 428.5,616C 423.733,613.069 419.399,609.569 415.5,605.5C 404.379,618.227 390.379,624.06 373.5,623C 367.24,619.235 365.073,613.735 367,606.5C 368.122,604.376 369.622,602.543 371.5,601C 387.921,598.975 398.588,590.142 403.5,574.5C 404.823,564.992 404.823,555.325 403.5,545.5C 402.893,545.624 402.56,545.957 402.5,546.5C 380.496,566.087 354.829,574.087 325.5,570.5C 323.485,569.076 321.152,568.41 318.5,568.5C 310.501,566.004 303.335,562.004 297,556.5C 292.009,549.589 292.509,543.089 298.5,537C 301.366,535.543 304.366,535.21 307.5,536C 339.974,552.108 368.807,546.941 394,520.5C 399.883,513.517 402.55,505.517 402,496.5C 397.133,491.968 392.633,487.134 388.5,482C 366.815,475.463 359.982,461.63 368,440.5C 381.094,423.295 397.428,419.628 417,429.5C 430.74,422.493 444.24,422.993 457.5,431C 471.94,444.502 473.274,459.169 461.5,475C 456.804,478.681 451.471,481.014 445.5,482C 441.746,487.758 437.246,492.925 432,497.5C 431.814,503.952 433.481,509.952 437,515.5C 457.294,541.709 483.46,550.542 515.5,542C 520.458,539.097 525.625,536.931 531,535.5C 542.822,538.83 545.488,545.83 539,556.5C 526.184,567.175 511.351,572.175 494.5,571.5C 470.442,570.629 449.442,562.296 431.5,546.5 Z"/></g>
<g><path style="opacity:1" fill="#a86338" d="M 741.5,364.5 C 746.401,370.766 750.068,377.766 752.5,385.5C 754.151,392.877 755.984,400.211 758,407.5C 759.574,408.984 760.907,410.651 762,412.5C 762.348,416.18 763.515,419.514 765.5,422.5C 764.42,426.388 764.753,430.221 766.5,434C 764.363,440.323 763.363,446.823 763.5,453.5C 759.398,453.044 755.565,453.711 752,455.5C 750.018,454.279 748.518,452.612 747.5,450.5C 746.583,449.873 745.583,449.539 744.5,449.5C 741.315,436.934 736.982,424.934 731.5,413.5C 731.313,411.436 730.813,409.436 730,407.5C 726.874,401.94 724.041,396.273 721.5,390.5C 725.514,390.666 729.514,390.499 733.5,390C 735.552,389.07 737.052,387.57 738,385.5C 738.5,378.508 738.666,371.508 738.5,364.5C 739.5,364.5 740.5,364.5 741.5,364.5 Z"/></g>
<g><path style="opacity:1" fill="#a6653c" d="M 765.5,422.5 C 768.292,429.2 770.625,436.2 772.5,443.5C 773.848,462.381 775.515,481.214 777.5,500C 777.333,504.5 777.167,509 777,513.5C 776.667,513.833 776.333,514.167 776,514.5C 775.275,511.21 774.108,508.21 772.5,505.5C 766.407,486.314 757.407,468.648 745.5,452.5C 745.443,451.391 745.11,450.391 744.5,449.5C 745.583,449.539 746.583,449.873 747.5,450.5C 748.518,452.612 750.018,454.279 752,455.5C 755.565,453.711 759.398,453.044 763.5,453.5C 763.363,446.823 764.363,440.323 766.5,434C 764.753,430.221 764.42,426.388 765.5,422.5 Z"/></g>
<g><path style="opacity:1" fill="#f9f6f5" d="M 453.5,454.5 C 451.391,453.609 449.391,452.442 447.5,451C 443.5,450.333 439.5,450.333 435.5,451C 430.106,454.398 424.439,456.898 418.5,458.5C 415.741,458.458 413.075,457.958 410.5,457C 406.294,454.398 401.961,452.064 397.5,450C 391.886,448.821 386.886,449.988 382.5,453.5C 381.614,452.675 381.281,451.675 381.5,450.5C 382.863,446.298 385.53,443.131 389.5,441C 394.167,440.333 398.833,440.333 403.5,441C 408.294,443.231 412.961,445.731 417.5,448.5C 423.077,443.874 429.41,441.207 436.5,440.5C 446.475,440.155 452.142,444.821 453.5,454.5 Z"/></g>
<g><path style="opacity:1" fill="#a0623c" d="M 85.5,375.5 C 85.3447,378.609 84.6781,381.609 83.5,384.5C 79.3154,391.521 76.3154,399.021 74.5,407C 75.0223,407.95 75.689,408.784 76.5,409.5C 75.5682,411.795 74.7348,414.129 74,416.5C 72.9326,417.191 71.7659,417.691 70.5,418C 64.2283,426.893 63.5617,436.06 68.5,445.5C 70.8333,445.5 73.1667,445.5 75.5,445.5C 74.2339,450.691 75.9006,454.358 80.5,456.5C 83.5,454.833 85.8333,452.5 87.5,449.5C 88.325,448.614 89.325,448.281 90.5,448.5C 89.8333,449.833 89.1667,451.167 88.5,452.5C 84.5299,457.084 81.0299,462.084 78,467.5C 73.2003,476.102 68.7003,484.769 64.5,493.5C 67.4666,485.908 70.1332,478.242 72.5,470.5C 70.9547,469.548 69.288,469.215 67.5,469.5C 67.5,464.167 67.5,458.833 67.5,453.5C 65.4086,453.318 63.4086,453.652 61.5,454.5C 59.9817,460.726 59.1484,467.06 59,473.5C 58.8784,475.437 58.045,476.77 56.5,477.5C 56.5,474.167 56.5,470.833 56.5,467.5C 60.0261,434.677 69.6928,404.011 85.5,375.5 Z"/></g>
<g><path style="opacity:1" fill="#e7aa99" d="M 453.5,454.5 C 450.347,462.744 444.347,465.744 435.5,463.5C 431.444,465.025 427.444,466.859 423.5,469C 419.259,470.457 414.926,470.791 410.5,470C 406.833,467.667 403.167,465.333 399.5,463C 395.514,462.501 391.514,462.334 387.5,462.5C 382.154,459.904 380.154,455.904 381.5,450.5C 381.281,451.675 381.614,452.675 382.5,453.5C 386.886,449.988 391.886,448.821 397.5,450C 401.961,452.064 406.294,454.398 410.5,457C 413.075,457.958 415.741,458.458 418.5,458.5C 424.439,456.898 430.106,454.398 435.5,451C 439.5,450.333 443.5,450.333 447.5,451C 449.391,452.442 451.391,453.609 453.5,454.5 Z"/></g>
<g><path style="opacity:1" fill="#aa673c" d="M 64.5,493.5 C 62.1807,502.132 59.8474,510.798 57.5,519.5C 57.2528,520.713 56.5862,521.38 55.5,521.5C 55.1707,506.657 55.504,491.99 56.5,477.5C 58.045,476.77 58.8784,475.437 59,473.5C 59.1484,467.06 59.9817,460.726 61.5,454.5C 63.4086,453.652 65.4086,453.318 67.5,453.5C 67.5,458.833 67.5,464.167 67.5,469.5C 69.288,469.215 70.9547,469.548 72.5,470.5C 70.1332,478.242 67.4666,485.908 64.5,493.5 Z"/></g>
<g><path style="opacity:1" fill="#7a4f37" d="M 56.5,467.5 C 56.5,470.833 56.5,474.167 56.5,477.5C 55.504,491.99 55.1707,506.657 55.5,521.5C 54.8336,514.007 54.5003,506.341 54.5,498.5C 54.2805,487.951 54.9472,477.617 56.5,467.5 Z"/></g>
<g><path style="opacity:1" fill="#926245" d="M 772.5,443.5 C 774.346,447.868 775.513,452.535 776,457.5C 778.62,481.462 779.12,505.462 777.5,529.5C 776.112,521.565 774.445,513.565 772.5,505.5C 774.108,508.21 775.275,511.21 776,514.5C 776.333,514.167 776.667,513.833 777,513.5C 777.167,509 777.333,504.5 777.5,500C 775.515,481.214 773.848,462.381 772.5,443.5 Z"/></g>
<g><path style="opacity:1" fill="#d0d9db" d="M 88.5,452.5 C 75.4171,508.039 86.9171,557.705 123,601.5C 143.103,622.627 166.269,639.46 192.5,652C 263.901,684.604 338.568,694.77 416.5,682.5C 501.889,696.324 582.556,682.824 658.5,642C 731.531,599.081 760.531,535.914 745.5,452.5C 757.407,468.648 766.407,486.314 772.5,505.5C 774.445,513.565 776.112,521.565 777.5,529.5C 773.093,567.887 761.426,603.887 742.5,637.5C 740.302,636.933 737.969,636.933 735.5,637.5C 735.5,636.167 735.5,634.833 735.5,633.5C 730.122,633.439 724.788,633.272 719.5,633C 683.979,659.763 644.645,679.763 601.5,693C 541.684,712.266 480.351,718.432 417.5,711.5C 377.413,715.937 337.413,715.104 297.5,709C 281.895,706.013 266.228,703.013 250.5,700C 243.991,696.497 236.991,694.164 229.5,693C 216.51,687.74 203.176,683.074 189.5,679C 170.969,670.238 152.969,660.738 135.5,650.5C 134.472,647.286 132.138,645.452 128.5,645C 125.325,640.415 120.991,637.915 115.5,637.5C 115.5,636.167 115.5,634.833 115.5,633.5C 112.833,633.5 110.167,633.5 107.5,633.5C 107.5,637.5 107.5,641.5 107.5,645.5C 106.167,645.5 104.833,645.5 103.5,645.5C 102.765,648.272 102.599,650.939 103,653.5C 102.162,652.001 101.329,651.668 100.5,652.5C 72.7922,613.401 57.7922,569.734 55.5,521.5C 56.5862,521.38 57.2528,520.713 57.5,519.5C 59.8474,510.798 62.1807,502.132 64.5,493.5C 68.7003,484.769 73.2003,476.102 78,467.5C 81.0299,462.084 84.5299,457.084 88.5,452.5 Z"/></g>
<g><path style="opacity:1" fill="#565656" d="M 318.5,568.5 C 321.152,568.41 323.485,569.076 325.5,570.5C 322.848,570.59 320.515,569.924 318.5,568.5 Z"/></g>
<g><path style="opacity:1" fill="#868686" d="M 402.5,546.5 C 402.56,545.957 402.893,545.624 403.5,545.5C 404.823,555.325 404.823,564.992 403.5,574.5C 403.827,564.985 403.494,555.652 402.5,546.5 Z"/></g>
<g><path style="opacity:1" fill="#c5c5c5" d="M 431.5,546.5 C 430.506,556.319 430.173,566.319 430.5,576.5C 429.341,566.008 429.175,555.341 430,544.5C 430.717,545.044 431.217,545.711 431.5,546.5 Z"/></g>
<g><path style="opacity:1" fill="#8d5b58" d="M 387.5,462.5 C 391.514,462.334 395.514,462.501 399.5,463C 403.167,465.333 406.833,467.667 410.5,470C 414.926,470.791 419.259,470.457 423.5,469C 427.444,466.859 431.444,465.025 435.5,463.5C 431.826,467.471 429.326,472.138 428,477.5C 421.91,484.562 415.243,485.229 408,479.5C 405.566,476.205 403.899,472.538 403,468.5C 401.833,466.667 400.333,465.167 398.5,464C 394.644,463.823 390.977,463.323 387.5,462.5 Z"/></g>
<g><path style="opacity:1" fill="#c5ced2" d="M 742.5,637.5 C 726.269,665.41 706.269,690.41 682.5,712.5C 680.228,711.277 679.061,709.277 679,706.5C 676.453,705.527 674.953,703.693 674.5,701C 670.25,699.297 665.917,699.13 661.5,700.5C 642.872,714.316 622.872,725.816 601.5,735C 491.918,779.763 380.585,784.429 267.5,749C 249.843,742.84 232.51,736.006 215.5,728.5C 204.457,721.802 193.123,715.302 181.5,709C 176.833,705.333 172.167,701.667 167.5,698C 163.459,697.173 159.459,697.34 155.5,698.5C 153.165,701.197 153.165,703.697 155.5,706C 152.568,707.145 149.568,707.978 146.5,708.5C 128.528,691.875 113.195,673.208 100.5,652.5C 101.329,651.668 102.162,652.001 103,653.5C 102.599,650.939 102.765,648.272 103.5,645.5C 104.833,645.5 106.167,645.5 107.5,645.5C 107.5,641.5 107.5,637.5 107.5,633.5C 110.167,633.5 112.833,633.5 115.5,633.5C 115.5,634.833 115.5,636.167 115.5,637.5C 120.991,637.915 125.325,640.415 128.5,645C 132.138,645.452 134.472,647.286 135.5,650.5C 152.969,660.738 170.969,670.238 189.5,679C 203.176,683.074 216.51,687.74 229.5,693C 236.991,694.164 243.991,696.497 250.5,700C 266.228,703.013 281.895,706.013 297.5,709C 337.413,715.104 377.413,715.937 417.5,711.5C 480.351,718.432 541.684,712.266 601.5,693C 644.645,679.763 683.979,659.763 719.5,633C 724.788,633.272 730.122,633.439 735.5,633.5C 735.5,634.833 735.5,636.167 735.5,637.5C 737.969,636.933 740.302,636.933 742.5,637.5 Z"/></g>
<g><path style="opacity:1" fill="#adb9bf" d="M 215.5,728.5 C 214.502,728.587 213.335,728.92 212,729.5C 211.501,734.823 211.334,740.156 211.5,745.5C 208.833,745.5 206.167,745.5 203.5,745.5C 203.5,742.833 203.5,740.167 203.5,737.5C 200.833,737.5 198.167,737.5 195.5,737.5C 195.5,738.833 195.5,740.167 195.5,741.5C 194.167,741.5 192.833,741.5 191.5,741.5C 191.715,743.179 191.048,744.179 189.5,744.5C 173.462,734.632 159.129,722.632 146.5,708.5C 149.568,707.978 152.568,707.145 155.5,706C 153.165,703.697 153.165,701.197 155.5,698.5C 159.459,697.34 163.459,697.173 167.5,698C 172.167,701.667 176.833,705.333 181.5,709C 193.123,715.302 204.457,721.802 215.5,728.5 Z"/></g>
<g><path style="opacity:1" fill="#a7b1b7" d="M 682.5,712.5 C 651.705,741.402 616.705,764.236 577.5,781C 537.168,798.25 495.168,808.916 451.5,813C 443.495,813.5 435.495,814 427.5,814.5C 412.825,814.452 398.159,814.119 383.5,813.5C 312.666,807.116 248,784.116 189.5,744.5C 191.048,744.179 191.715,743.179 191.5,741.5C 192.833,741.5 194.167,741.5 195.5,741.5C 195.5,740.167 195.5,738.833 195.5,737.5C 198.167,737.5 200.833,737.5 203.5,737.5C 203.5,740.167 203.5,742.833 203.5,745.5C 206.167,745.5 208.833,745.5 211.5,745.5C 211.334,740.156 211.501,734.823 212,729.5C 213.335,728.92 214.502,728.587 215.5,728.5C 232.51,736.006 249.843,742.84 267.5,749C 380.585,784.429 491.918,779.763 601.5,735C 622.872,725.816 642.872,714.316 661.5,700.5C 665.917,699.13 670.25,699.297 674.5,701C 674.953,703.693 676.453,705.527 679,706.5C 679.061,709.277 680.228,711.277 682.5,712.5 Z"/></g>
<g><path style="opacity:1" fill="#393939" d="M 383.5,813.5 C 398.159,814.119 412.825,814.452 427.5,814.5C 412.806,815.821 398.14,815.488 383.5,813.5 Z"/></g>
</svg>
