<svg xmlns="http://www.w3.org/2000/svg" viewBox="0 0 500 500"><defs><clipPath id="a"><circle cx="250.2" cy="249.8" r="250" fill="none"/></clipPath></defs><g clip-path="url(#a)"><path fill="#e9e3b3" d="M213.8 40h78.3v11.2h10.8v11.2h9.8q.8 0 1.5.5v43.7H325V95.8h45v10.8h9.8q1 0 1.5.5V117.5h9.9q1 0 1.5.5V161.9q0 .7-.5 1.2h-10.8v10.8h-11.2v11.7h-10.8v65.1q0 1.1-.5 1.5H348V295.2q0 .7-.5 1.2H336.6V327.2q0 2.1-.5 2.6h-10.8V374h10.8c.8.8.5 2.3.5 3.4v18.1c0 3.8 0 7.7.1 11.5h.9c1.4 0 2.8 0 4.2.2h4.2q1 0 1.4.5V440.6h11.7v21.7h10.4c.8.8.5 2 .5 3v8q0 1.1-.5 1.5H138q-2.5 0-3-.5V452.5q0-.9.5-1.3h10.8v-22.5c1.4-.3 2.5-.5 3.9-.5h4.9q.8 0 2 .5v-32.5c3.5-1.7 7.8-.4 11.7-.4v-66.2H158c-.1-10.9-.3-21.7-.4-32.9-3.4-.1-6.9-.3-10.4-.4-.7-.7-.5-1.6-.5-2.6V263h-9.9q-1 0-1.5-.5v-21.1c0-3.8 0-7.7-.1-11.5-3.4-.1-6.9-.3-10.4-.4-.1-14.6-.3-29.1-.4-44.2-3.6-.1-7.2-.3-10.8-.4v-11.2h-10.8v-55.8h10.8v-11.2h11.2V95.9h44.6v10.8h11.2v11.2h9.8q1 0 1.5.5V140h21.7v-10.4h-9.4q-1 0-1.4-.5V107h-9.9q-1 0-1.5-.5V62h10.8v-9.8q0-1 .5-1.5h10.8V39.9Z"/><path fill="#65645c" d="M213.8 40h78.3v11.2h10.8v11.2h9.8q.8 0 1.5.5v43.7H325V95.8h45v10.8h9.8q1 0 1.5.5V117.5h9.9q1 0 1.5.5V161.9q0 .7-.5 1.2h-10.8v10.8h-11.2v11.7h-10.8v65.1q0 1.1-.5 1.5H348V295.2q0 .7-.5 1.2H336.6V327.2q0 2.1-.5 2.6h-10.8V374h10.8c.8.8.5 2.3.5 3.4v18.1c0 3.8 0 7.7.1 11.5h.9c1.4 0 2.8 0 4.2.2h4.2q1 0 1.4.5V440.6h10.8v22.5H369v11.2h-11.2v-10.8H348q-1 0-1.5-.5v-22.1H337.5q-1 0-1.8-.5v-32.9h-10.8c-.7-.7-.5-1.6-.5-2.6v-30.7h-10.8v-43.9q0-.7.5-1.2h10.4v-33.3h11.2V252.5q0-.7.5-1.2H346.6v-64.7q.1-1.1.9-2H358v-9.9q0-1 .5-1.5h10.8v-10.8h10.8v-44.2h-10.4l-.8-.8v-10h-43.3v10.4h-10.1q-1.1 0-1.5-.5V106.9h-11.2v11.2H314v33.3H191.5v-11.2h-11.2v-22.1h-10.8v-11.2h-44.2v10.8l-.4.4h-10.8v44.2h10.4c.7.7.5 1.7.5 2.7V167.9c0 1.7.1 3.4.2 5.2 3.6.1 7.2.3 10.8.4q.2 5.4.2 7.1v2.7q0 1 .5 1.5V228.1h.9c1.3 0 2.6-.2 3.9-.2H145.4q1 .1 1.8.6c.8 1.2.7 2.5.6 3.9V262.1h9.3q1 0 1.4.5v33.2h10.8c.6 1.3.5 2.5.5 3.9v29.5h10.1q1.1 0 1.5.5v21.2h10c.5 1.1.5 1.8.5 3V374.6h-10.8v20.3q0 .9-.5 1.7h-10.8V427q0 2.1-.9 3h-10.5v20.7q0 .9-.5 1.3H147v20.7q0 .9-.5 1.3h-10.8v-22.5h10.8v-22.1h11.2v-33.8h10.8v-66.2h-10.8c-.1-10.9-.3-21.7-.4-32.9-3.4-.1-6.9-.3-10.4-.4-.7-.7-.5-1.6-.5-2.6v-30.7h-9.9q-1 0-1.5-.5v-21.1c0-3.8 0-7.7-.1-11.5-3.4-.1-6.9-.3-10.4-.4-.1-14.6-.3-29.1-.4-44.2-3.6-.1-7.2-.3-10.8-.4v-11.2h-10.8v-55.8h10.8v-11.2h11.2V95.7h44.6v10.8h11.2v11.2h9.8q1 0 1.5.5v21.6h21.7v-10.4h-9.4q-1 0-1.4-.5v-22.1h-9.9q-1 0-1.5-.5V61.8h10.8V52q0-1 .5-1.5h10.8V39.7Z"/><path fill="#97a198" d="m125 117.9.4.8h-10.8V162H125c.3.1.6.3.8.4v10.4h9.4q1.1 0 1.9.9t0 2.5V184.6H146.2q1 0 1.4.5V218h9.9q1 0 1.5.5v33.2h10.8V285H181v33.3h10.8v22.5H203c.1 3.6.3 7.1.4 10.8q3.3.1 6.5.2h2.5q1 0 1.4.5c0 .7.1 1.5.1 2.2V358.7c0 1.2 0 2.4.1 3.5h.9c1.4 0 2.8 0 4.2.2h4.2q1 0 1.4.5V373.3h11.2v11.2c-7.3.1-14.6.3-22.1.4-.1 3.4-.3 6.9-.4 10.4-3.6.1-7.2.3-10.8.4v10.8h-11.2V429h-10.8v30.8q0 2.1-.5 2.6h-10.8v11.2h-22.5c.1-7.3.3-14.6.4-22.1 3.6-.1 7.2-.3 10.8-.4.1-7.1.3-14.3.4-21.7 3.4-.1 6.9-.3 10.4-.4.8-.8.5-2.3.5-3.4v-18.1c0-3.8 0-7.7.1-11.5h10.8c.1-7.3.3-14.6.4-22.1h10.8c-.1-7.8-.3-15.7-.4-23.8h-10c-.1-7-.3-14-.4-21.2-3.7-.1-7.4-.3-11.2-.4-.1-11-.3-22-.4-33.3h-10.8c-.1-11-.3-22-.4-33.3-3.4-.1-6.9-.3-10.4-.4v-30.7q0-1.7-1-3-1-.1-2.2 0h-7.5v-1.6c0-5.1 0-10.2-.1-15.3v-25.7q0-.7-.5-1.1V173.2h-9.9q-1 0-1.5-.5c0-.8-.1-1.5-.1-2.3V167.5c0-1.7-.1-3.4-.2-5.2-3.4-.1-6.9-.3-10.4-.4v-44.2c3.6-.1 7.1-.3 10.8-.4Z"/><path fill="#c56c2f" d="M214.2 51.7h77.5v10.4h-10.8c.1 3.7.3 7.4.4 11.2h10.4c.1-3.4.3-6.9.4-10.4h8.6q1 0 1.8.5v41q0 .4-.5 1.6c-3.3 1.1-6.9.7-10.4.8-.1 7.3-.3 14.6-.4 22.1q-12 .5-15.7.5H236.1v-11.2h-11.2V96.5c-3.4-.1-6.9-.3-10.4-.4q-.4-.4-.5-1.3V74l10.4-.4c.1-3.6.3-7.1.4-10.8H214V52Z"/><path fill="#7a7c7a" d="M103.8 118.3h10v44.6H125l.4 10.4c3.6.1 7.2.3 10.8.4q.2 5.4.2 7.1v2.7q0 1 .5 1.5V228.3h.9c1.3 0 2.6-.2 3.9-.2H145.6q1 .1 1.8.6c.8 1.2.7 2.5.6 3.9V262.3h9.3q1 0 1.4.5V296h10.8c.6 1.3.5 2.5.5 3.9v29.5h10.1q1.1 0 1.5.5v21.2h10c.5 1.1.5 1.8.5 3V374.8h-10.8v20.3q0 .9-.5 1.7H170v30.4q0 2.1-.9 3h-10.5v20.7q0 .9-.5 1.3H147.2v20.7q0 .9-.5 1.3h-10.8v-22.5h10.8v-22.1h11.2v-33.8h10.8v-66.2h-10.8c-.1-10.9-.3-21.7-.4-32.9-3.4-.1-6.9-.3-10.4-.4-.7-.7-.5-1.6-.5-2.6V263h-9.9q-1 0-1.5-.5v-21.1c0-3.8 0-7.7-.1-11.5-3.4-.1-6.9-.3-10.4-.4-.1-14.6-.3-29.2-.4-44.2-3.6-.1-7.1-.3-10.8-.4v-11.7h-10.4V119.6q0-.9.5-1.3Z"/><path fill="#4b4a46" d="M369.6 95.8h.4v10.8h9.8q.8 0 1.5.5V117.5h9.9q1 0 1.5.5V161.9q0 .7-.5 1.2h-10.8v10.8h-11.2v11.7h-10.8v65.1q0 1.1-.5 1.5H348V295.2q0 .7-.5 1.2H336.6V327.2q0 2.1-.5 2.6h-10.8V374h10.8c.8.8.5 2.3.5 3.4v18.1c0 3.8 0 7.7.1 11.5h.9c1.4 0 2.8 0 4.2.2h4.2q1 0 1.4.5V440.6h10.8v22.5H369v11.2h-11.2v-10.8H348q-1 0-1.5-.5v-22.1H337.5q-1 0-1.8-.5v-32.9h-10.8c-.7-.7-.5-1.6-.5-2.6v-30.7h-10.8v-43.9q0-.7.5-1.2h10.4v-33.3h11.2V252.5q0-.7.5-1.2H346.6v-64.7q.1-1.1.9-2H358v-9.9q0-1 .5-1.5h10.8v-10.8h10.8v-44.2h-10.4l-.8-.8v-10h-43.3v10.4h-.4V107h44.2V95.8Z"/><path fill="#754326" d="M213.8 40h78.3v11.2h10.8v11.2h10.8v.4h-10.8v42.7q0 .5-.5 1.1H292v22.1h10.8l.8.4v10.1q0 1.1-.5 1.5h-10.6q-1.1 0-1.5-.5V129.3h-10.4v.8h-.8v7.6q0 .8-.5 1.2H246c-6.6 0-13.2 0-19.7.1-.3-1.3-.5-2.6-.5-4V129.7q0-.8-.5-1.2c-.8 0-1.6-.1-2.4-.1h-3c-1.8 0-3.6-.1-5.4-.2-.1-7.2-.3-14.3-.4-21.7-3.6-.1-7.1-.3-10.8-.4v22.1h10.8v11.2h-.4V129h-9.4q-1 0-1.4-.5v-22.1H193q-1 0-1.5-.5V61.4h10.8v-9.8q0-1 .5-1.5h10.8V39.3Zm.4 11.7v10.8H225c-.1 3.6-.3 7.2-.4 10.8l-10.4.4V94.4q0 .9.5 1.3c3.4.1 6.9.3 10.4.4v21.7h11.2V129h40.5c4.9 0 9.7-.3 14.5-.5.1-7.3.3-14.6.4-22.1 3-.1 6.1-.3 9.2-.4.4-.1.8-.3 1.2-.4.5-.9.5-1.5.5-2.5v-40c-1.1-.5-1.8-.5-3-.5h-7.4c-.1 3.4-.3 6.9-.4 10.4h-10.4c-.1-3.7-.3-7.4-.4-11.2h10.8V51.4h-77.5Z"/><path fill="#1b1511" d="M247.5 285h55.4v22.1h-11.2v11.2h-10.8v10.8H303v11.7h-55.4v-11.2h22.1v-11.2h-9.4q-.6 0-1.4-.5v-10.8h-11.2V285Z"/><path fill="#090301" d="M293.8 108.3h8.3c.1 3.3.3 6.6.4 10l11.2.4v32.1H192v-10c7.3-.1 14.6-.3 22.1-.4.1-3.7.3-7.4.4-11.2h9.1q.7 0 1.4.5l.4 10.4h55c.1-3.4.3-6.9.4-10.4h10.4c.1 3.6.3 7.2.4 10.8h11.7v-10.2q0-1.1-.5-2c-3.3-.1-6.6-.3-10-.4v-15.8q.1-1 .9-3.9Z"/><path fill="#151311" d="M136.2 117.9h22.5v10.8h9.8q.8 0 1.5.5v22.5h-11.2v10.8h-22.5v-11.2h-11.2V130.6q0-.9.5-1.3h10.8v-11.2Z"/><path fill="#151412" d="M336.2 117.9H357.4q.9 0 1.3.5c0 .8.1 1.5.1 2.3V123.6q0 2.6.2 5.2l10.8.4v22.1l-11.2.4c-.1 3.4-.3 6.9-.4 10.4h-21.7v-10.4h-11.2v-22.5h10.8V118Z"/><path fill="#020101" d="M103.8 118.3h10v44.6H125l.4 10.4c3.6.1 7.2.3 10.8.4v55.4h-10.4q-.4-.4-.5-1.2t0-1v-42.4h-11.2l-.4-10.8c-3.4-.1-6.9-.3-10.4-.4V119.7q0-.9.5-1.3Z"/><path fill="#fad031" d="M214.2 51.7h77.5v10.4c-3.6.1-7.2.3-10.8.4q-.1 3.5-.2 7.1v2.7q0 .7-.5 1.5H271.5q-.9 0-1.3-.5c-.1-3.6-.3-7.1-.4-10.8-11-.1-22-.3-33.3-.4.3 7.3.5 14.6.8 22.1 3.3.1 6.6.3 10 .4q.4.4.5 1.5v9.8h-11.2V85.1h-10.8V62.6h-11.2V51.8Z"/><path fill="#f0f0f4" d="M29.6 496.2h441.3v2.5H29.6v-2.5Z"/><path fill="#010101" d="M170 329.6h10q.4.4.5 1.3t0 1.2v19.6h11.2v22.5h-11.2v21.7h-10.4v-66.2Z"/><path fill="#0b0702" d="M214.2 40.4h77.5v10.8h-75q-2 0-2.5-.5V40.3Z"/><path fill="#050404" d="M347.9 185h10.4v66.2h-10.4V185Z"/><path fill="#e4ce94" d="M254.9 283.6H302.1q.9 0 1.3.5V326.5c0 .9.2 1.7.5 2.5V339.6q0 1.1-.5 1.5c-.8 0-1.5 0-2.3.1h-7.6c-1.3 0-2.5.1-3.8.2-4.7.3-9.3.4-14 .3H251q-1.7 0-3 .9t0 2.1v2c-.3-.1-.5-.3-.8-.4v-6.2h-.8V330.4q0-1.1.9-2.4c2.2-.6 4.5-.5 6.7-.4H267.4q.7 0 1.1-.5v-4c0-1.3 0-2.3-.5-3.6h-4.9c-2.3 0-3.8-.2-5.5-1.8q-.4-1-.6-2c0-.3-.1-.7-.2-1v-.8h-.4q0-2.4.4-3.3v-2.5H253q-1.2 0-2.5-.5l-1.2.4c-1.3-.4-2-.7-2.9-1.7-.9-4.5-.4-9.5-.2-14.1v-2.5c0-2 .1-4 .2-6 2.9-.9 5.6-.9 8.6-.9Zm-7.4 1.4v22.1h11.2v9.8q0 1 .5 1.5H269.6v11.2h-22.1v11.2h55.4v-11.7h-22.1v-10.8h10.8v-11.2h11.2V285h-55.4Z"/><path fill="#fcca35" d="M214.2 51.7h77.5v10.4c-3.6.1-7.2.3-10.8.4q-.1 3.5-.2 7.1v2.7q0 .7-.5 1.5H271.5q-.9 0-1.3-.5c-.1-3.6-.3-7.1-.4-10.8-11-.1-22-.3-33.3-.4.3 7.3.5 14.6.8 22.1 3.3.1 6.6.3 10 .4q.4.4.5 1.5v9.8h-11.2V85.1h-10.8c.1-.3.3-.5.4-.8 1.1-.2 2.3-.4 3.4-.5.3 0 .6 0 1-.1 1.8-.2 3.4-.2 5.2.2 0-.4 0-.9-.1-1.3-.2-3.1-.4-6 .1-9.1h-.8V63.9c.1-1.4.5-2.5.9-3.8 4.5 0 9 0 13.5-.1h18.8q.9 0 2.4.3.8 1 1.2 2.1c.3.1.6.3.8.4q.2.9.3 2c0 .4 0 .7.1 1.1 0 1-.1 1.7-.4 2.7v3.8h6.2v-4.5q0-2.5.5-3.4h.8v-2.1h.8c.1-.4.3-.8.4-1.2 1.5-1.2 3.5-.9 5.3-.9h3.4v-6.7q-36.1.2-72.9.4c-.1 2.1-.3 4.1-.4 6.2h9.6v1.2h.8c.4 1.5.5 2.9.5 4.5v7.6h-1.7V62.7h-11.2V51.9Z"/><path fill="#020101" d="M314.2 329.6H325v44.2h-10.8v-44.2Z"/><path fill="#0b0702" d="M192.1 62.9h10.8v42.6q0 .7-.5 1.1H192V62.8Z"/><path fill="#070605" d="M336.7 251.7h10.4v44.2h-10.4v-44.2Z"/><path fill="#060505" d="M381.2 118.3h10.4v43.8h-10.4v-43.8Z"/><path fill="#060405" d="M325.8 96.2h43.8v10.4h-43.8V96.2Z"/><path fill="#050405" d="M125.4 96.2h43.8v10.4h-43.8V96.2Z"/><path fill="#0c0802" d="M303.8 62.9h10v42.9c-1.1.5-1.8.5-3 .5h-7.5V64q0-.7.5-1.1Z"/><path fill="#020202" d="M158.8 295.8h10.8v33.3h-10.8v-33.3Z"/><path fill="#090807" d="M325.4 374.2h10.8v32.9h-10.8v-32.9ZM325.4 296.2h10.8v32.9h-10.8v-32.9Z"/><path fill="#070707" d="M147.5 262.9h10.8v32.9h-10.8v-32.9Z"/><path fill="#0e0801" d="M239.2 62.4h30.5v10.8h-32.9q0-10.9 2.5-10.9Z"/><path fill="#020101" d="M336.7 407.5h10.4v32.9h-10.4v-32.9Z"/><path fill="#35291f" d="m302.9 62.9.8.4c-.1 14.2-.3 28.3-.4 42.9l10.4-.4V62.9h.4v43.8h10.8V95.9h44.6v.4h-43.8v10.4h43.8v.4h-44.2v10.8h-9.8q-1 0-1.5-.5V107h-11.2v11.2H314v32.9H191.9v-.4h121.7v-32.1h-11.2q-.4-.4-.5-1.4v-9q-.5.1-1.1.2c-1.5.2-3 .3-4.5.2h-2.8c-.5 1-.5 1.5-.5 2.6v10c0 2.2 0 4.3-.1 6.5h10v1.2c-3.6-.1-7.1-.3-10.8-.4v-22.1l10.4-.4c.1-14.3.3-28.6.4-43.3Z"/><path fill="#040404" d="M158.8 396.7h10.4v32.5h-10.4v-32.5ZM136.7 229.6h10c.7.7.5 1.6.5 2.5v30h-10.4v-32.5Z"/><path fill="#ae9c77" d="M254.9 283.6H302.1q.9 0 1.3.5V307.8h-10.8v10.4c-1.1.5-1.9.5-3.1.5H281.8v9.6h20.3q.9.1 1.7.9.1 1.2 0 2.6v5q0 4.1-.5 4.6c-.8 0-1.5 0-2.3.1h-7.6c-1.3 0-2.5.1-3.8.2-4.7.3-9.3.4-14 .3h-24.7q-1.7 0-3 .9-.1 1 0 2.1v2c-.3-.1-.5-.3-.8-.4v-6.2h-.8V330.7q0-1.1.9-2.4c2.2-.6 4.5-.5 6.7-.4H267.3q.7 0 1.1-.5v-4c0-1.3 0-2.3-.5-3.6H263c-2.3 0-3.8-.2-5.5-1.8q-.4-1-.6-2c0-.3-.1-.7-.2-1v-.8h-.4q0-2.4.4-3.3v-2.5h-3.8q-1.2 0-2.5-.5l-1.2.4c-1.3-.4-2-.7-2.9-1.7-.9-4.5-.4-9.5-.2-14.1V290c0-2 .1-4 .2-6 2.9-.9 5.6-.9 8.6-.9Zm-7.4 1.4v22.1h11.2v9.8q0 1 .5 1.5H269.6v11.2h-22.1v11.2h55.4v-11.7h-22.1v-10.8h10.8v-11.2h11.2V285h-55.4Z"/><path fill="#f4f4de" d="M157.5 396.2h.8v33.3h-11.2v22.1h-10.8v22.5h5.7c22.4-.3 44.8-.4 67.2-.4h133.5c8.9 0 17.8 0 26.7.5V463h-10.8v-22.5h.8v21.7h10.4c.8.8.5 2 .5 3v8q0 .8-.5 1.5H138.3q-2.5 0-3-.5V452.4q0-.9.5-1.3h10.8v-22.5c1.4-.3 2.5-.5 3.9-.5h4.9q.8 0 2 .5v-32.5Z"/><path fill="#040000" d="M281.9 195.8H292V217q0 .9-.5 1.3h-11.2V197.1c0-1.3.2-1.3 1.5-1.4Z"/><path fill="#010001" d="M225.4 195.8h10.8v22.5H225V197.1q0-.9.5-1.3Z"/><path fill="#080908" d="M147.5 430h10.8v22.1h-10.8V430Z"/><path fill="#0a0807" d="M180.8 118.3h10.4q.4.4.5 1.3t0 1.1v19.2h-10.8v-21.7Z"/><path fill="#908e86" d="M336.2 374.2h.4c.1 10.7.3 21.4.4 32.5 3.4.1 6.9.3 10.4.4.7.7.5 1.6.5 2.6v30.7h10.8v22.5h10.8v11.2h-11.2v-10.8h-9.8q-1 0-1.5-.5v-22.1h-10v-.4h10v-32.9h-10.4v32.9h-.4v-32.9h-10.8v-.4h10.8v-32.9Zm11.3 66.6v21.7h10.8v-21.7h-10.8Z"/><path fill="#030202" d="M136.7 452.5h10v21.2h-10v-21.2Z"/><path fill="#110802" d="M203.8 107.1h9.6q.4.4.5 1.3t0 1.1v18.9h-10v-21.2Z"/><path fill="#6d6057" d="M213.8 40h78.3v11.2h10.8v.4h-10.8v10.8h-11.2V62h10.8V51.6h-77.5V62h-.4V51.6h-10.4v11.2h2.1l-1.2.8c-.1 1.3-.2 2.5-.1 3.9v36.6c0 .9-.2 1.7-.5 2.5v14.3c0 2.6 0 5.2-.1 7.8h10.8v11.2h-.4v-10.4h-9.4q-.6 0-1.4-.5v-22.1h-9.9q-1 0-1.5-.5V61.9h10.8v-9.8q0-1 .5-1.5h10.8V39.8Zm.4.4v10.4c.7.7 1.6.5 2.5.5H291.8V40.5h-77.5Zm-22.1 22.5v43.8h10.4q.5-.4.5-1.1V63h-10.8Z"/><path fill="#dddcdc" d="M215.9 39.1H290q.8 0 2.2.2c.9 1.4.9 1.9.9 3.6V50.6h9.3q1 0 1.4.5V62h9.3q1.1 0 1.9.5v44.2c3-.1 6.1-.3 9.2-.4V104c0-1 0-1.9.1-2.9v-4.2q0-1 .5-1.4h44.5v.8h-44.6v10.8h-10.8q-.2-21.7-.4-43.8l-10.8-.4V51.7h-10.8V40.5h-78.3v10.8l-11.2.4v-.8c2.4-.3 4.7-.5 7.1-.4h3.4V41.5c.2-2 1.3-1.9 3.1-2Z"/><path fill="#4d3f29" d="M259.2 317.9H270q.2 1 .4 2.1h.8c.5 1.8.4 3.5.3 5.4v1c0 1.5-.2 2.5-.9 3.8-1.7.9-3.2.8-5.1.7h-3.8c-2.5 0-4.9 0-7.3.2H250.5q-.6 0-1.3.5c-.1.9-.2 1.7-.3 2.6 0 .5 0 .9-.1 1.4q0 1.5.4 3.5h52.9v-8.3H283q-.9 0-2.2-.5c-.6-1.2-.5-2.1-.5-3.4v-8.7h.4V329h22.1v11.7h-55.4v-11.2h22.1v-11.2h-10.4v-.4Z"/><path fill="#767569" d="M347.5 185h.4v66.2h10.4v.4h-10.8v44.6h-10.8V327q0 2.1-.5 2.6h-10.8v44.2h10.8v.4h-10.8v32.9h-.4v-32.9h-10.8v-.4H325v-44.2h-10.4v-.4H325v-33.3h11.2V252.6q0-.7.5-1.2H347.1v-64.7q0-1.1.5-1.5Zm-10.8 66.7v44.2h10.4v-44.2h-10.4Zm-11.3 44.5v32.9h10.8v-32.9h-10.8Z"/><path fill="#555756" d="M169.6 329.6h.4v66.2h10.4v-21.7h11.2v-22.5h.4v22.9h-10.8v20.3q0 .9-.5 1.7h-10.8v30.4q0 2.1-.9 3h-10.4v21.7h-.4v-21.7h-10.8V472.9q0 .7-.5 1.2h-10.8v-22.5h10.8v-22.1h11.2v-33.3h11.2v-66.7Zm-10.8 67.1v32.5h10.4v-32.5h-10.4Zm-22.1 55.8v21.2h10v-21.2h-10Z"/><path fill="#302714" d="M214.2 40.4h77.5v10.8h-75q-2 0-2.5-.5V40.3Zm1.2 1.3V50h75.4v-8.8H217.7q-1.3-.1-2.4.5Z"/><path fill="#433f2c" d="M136.2 117.9h22.5v10.8h9.8q.8 0 1.5.5v22.5h-11.2v10.8h-22.5v-11.2h-11.2V130.6q0-.9.5-1.3h10.8v-11.2Zm2.6 1.3c-1 1.5-1 2.5-1 4.3 0 2.1-.2 3.8-1 5.7-1.1.5-1.9.5-3.1.5H129.5c-1.2 0-2.3 0-3.5.1-.4 7-.5 13.9-.4 20.8l11.2.4c.1 3.4.3 6.9.4 10.4h20.4V151c3.7-.1 7.4-.3 11.2-.4v-20.8c-3.3-.1-6.6-.3-10-.4l-1.2-.4v-10h-17.9c-.3 0-.5 0-.8.2Z"/><path fill="#d3d2d1" d="M191.2 62.5h.4c.1 14.6.3 29.1.4 44.2l10.8.4c.1 7.3.3 14.6.4 22.1 3.4.1 6.9.3 10.4.4V140h-21.7c-.1-7.2-.3-14.3-.4-21.7-3.6-.1-7.1-.3-10.8-.4v-11.2h-11.2V95.9h-44.6v10.8h-10.8v-.4c3.3-.1 6.6-.3 10-.4v-2.3c0-1 0-1.9.1-2.9v-4.2q0-1 .5-1.4h43.2q.8.1 2.1.9t.1 2.3V106h9.3q1 0 1.4.5v11.2h9.9q1 0 1.5.5v13.7c0 2.5 0 5 .1 7.5 6.6.1 13.2.3 20 .4v-9.2H203.2q-.5 0-1-.1c-.9-1.3-.9-1.7-1-3.3v-11.5c0-2.4 0-4.9-.1-7.3h-.9c-1.3 0-2.6 0-3.9-.1H192.4q-1-.1-1.8-1-.1-.8-.1-1.8V62.7Z"/><path fill="#b7b5a0" d="m125 117.9.4.8h-10.8V162H125c.3.1.6.3.8.4v10.4h9.4q1.1 0 1.9.9t0 2.5V184.6H146.2q1 0 1.4.5V218h9.9q1 0 1.5.5v33.2h10.8V285h-.4v-32.9h-10.8c-.7-.7-.5-1.6-.5-2.6v-30.7h-8.9q-1.1 0-2.3-.9c-.6-3.1-.5-6.3-.4-9.5 0-5.6 0-11.1-.2-16.6v-.9c0-1.7-.1-3.4-.2-5h-.8c-1.2 0-2.4 0-3.5-.1h-3.5q-.9-.1-1.7-1V173.9h-9.9q-1 0-1.5-.5c0-.8-.1-1.5-.1-2.3V168.2c0-1.7-.1-3.4-.2-5.2-3.4-.1-6.9-.3-10.4-.4v-44.2c3.6-.1 7.1-.3 10.8-.4Z"/><path fill="#e7c750" d="M214.2 51.7h77.5v10.4h-10.8v-.4q4.7-.2 9.6-.4c.1-2.9.3-5.8.4-8.8-8.3 0-16.5 0-24.8.1h-26.8c-7.6 0-15 .2-22.6 1-.1 2.1-.3 4.1-.4 6.2h9.6V61h.8c.4 1.5.5 2.9.5 4.5v7.6h-1.7V62.3h-11.2V51.5Z"/><path fill="#573626" d="M203.3 106.7h10.8q.4.4.5 1.3v20.8h9.8q1.1 0 1.9.9t.2 2.3V136.2c0 1.2 0 2.3.1 3.5.3 0 .6-.1.9-.2 1.1-.2 2.2-.3 3.4-.3H260.8c6.3 0 12.6 0 18.9-.1.1-2.7.3-5.5.4-8.3h.8v8.7q0 .9-.5 1.3H226.3q-.9 0-1.3-.5c0-.8-.1-1.5-.1-2.3v-4.4c0-1.2 0-2.5-.1-3.7-3.3-.1-6.6-.3-10-.4v10.1q0 1.1-.5 1.5h-22.1v-.4c7.1-.1 14.3-.3 21.7-.4.1-3.7.3-7.4.4-11.2h-10.8V107Zm.5.4v21.2h10v-20q0-.8-.5-1.3h-9.6Z"/><path fill="#c8cbad" d="M191.7 318.3h.4V340h11.2v11.2h9.4q1.1 0 1.9.5v10.8h11.2c.8 2.4.5 5 0 7.5.3.1.5.3.8.4-.3 1-.5 1.9-.8 2.9h10.8v12.1h-22.1v10.4c-.1.3-.3.6-.4.8h-10.8v10.8h-11.2v22.5l-10 .4c-.6 1.2-.5 2.5-.5 3.8v17.1c0 3.7 0 7.4-.1 11.1h-.4v-32.9h10.8v-22.5h11.2v-10.8c1.1-.5 1.9-.5 3.1-.5H213.9v-9.3q0-1 .5-1.4h22.1v-11.2h-11.2l-.4-10.4-6.8-.2h-2.6q-1 0-1.4-.5c0-.7-.1-1.5-.1-2.2V356.2c0-1.2 0-2.4-.1-3.5h-.9c-1.4 0-2.7 0-4.1-.2h-4.1q-1 0-1.4-.5v-10.8h-11.2v-22.5Z"/><path fill="#d4c197" d="M280.8 318.3h10.8v.4h-10v9.6h20.3q.9.1 1.7.9.1 1.2 0 2.6v5q0 4.1-.5 4.6c-.8 0-1.5 0-2.3.1h-7.6c-1.3 0-2.5.1-3.8.2-4.7.3-9.3.4-14 .3h-24.7q-1.7 0-3 .9-.1 1 0 2.1v2c-.3-.1-.5-.3-.8-.4v-6.2h-.8V330.7q0-1.1.9-2.4c2.2-.6 4.5-.5 6.7-.4H267.1q.7 0 1.1-.5v-4c0-1.3 0-2.3-.5-3.6h-7.1q-.9-.1-2.1-1.4h10.4v10h-21.7v12.1h55.4v-11.7h-22.1V318Z"/><path fill="#010101" d="M281.9 295.8H291.8c0 1.1.2 2.2.2 3.3v.9c.1 2.1.1 4.1-.3 6.1-1.3.9-1.6.9-3.2.9H285q-2.8 0-4.3-.5c-.5-1.2-.5-2.4-.5-3.7v-5.9c0-1.2.3-1.2 1.5-1.3Z"/><path fill="#fdfcfc" d="M292.1 129.2h10.8v11.2h-10.8v-11.2Z"/><path fill="#0d0c0a" d="M358.8 173.8h10.8v10.8h-10.8v-10.8Z"/><path fill="#0e0c0b" d="M169.6 107.1h10.8v10.8h-10.8v-10.8Z"/><path fill="#0f0c0a" d="M114.2 107.1H125v10.8h-10.8v-10.8Z"/><path fill="#9ea295" d="M315.6 173.7h9.4v10.8h-10.8V175.1c0-1.4.1-1.4 1.5-1.5Z"/><path fill="#050002" d="M370 107.1h9.4q1 0 1.4.5V118h-9.4q-.6 0-1.4-.5V107.1Z"/><path fill="#d1cdb2" d="M335.4 117.9h.8v11.2h-10.8v22.5h11.2V162h21.7v-10.4q.4-.4 1.5-.5h10.1v.8h-.8c-1.2 0-2.3 0-3.5.2h-3.5c-.9 0-1.8.2-2.7.5v8.9q-.2 1.1-1 1.8c-2 .7-4 .6-6.2.6H336.6c-.3 0-.6-.1-.9-.2-.9-1.4-.9-1.8-.9-3.5V152.8h-8.1q-1 0-2.2-.9t-.1-2.3v-21.5h.9c1.3 0 2.6 0 3.9-.2H333.1q.9 0 1.3-.5c0-.7.1-1.4.1-2.1v-4.1c0-1.1 0-2.3.1-3.4Z"/><path fill="#cccaaf" d="M357.9 173.8h.4v10.8q-5.2.2-6.8.2h-2.6q-1 0-1.4.5v41.1c0 8.2 0 16.4-.1 24.6l-10.4.4c-.1 14.6-.3 29.1-.4 44.2h-10.8v-.4h10V252q.1-.8.9-1.6c2.3-.5 4.5-.4 6.8-.2h.9c.8 0 1.5.1 2.3.2V187q0-1.2.5-2.4c1.1-.6 2-.5 3.2-.5H358.5v-10.4Z"/><path fill="#483920" d="M247.5 285h55.4v22.1h-10.8c.1-.4.3-.8.4-1.2H299.1q1 0 2.5-.5.2-9.7.4-19.6h-53.8q.2 7.3.8 14.6c0 1 0 1.9-.2 2.9 0 .5 0 1-.1 1.4 0 .4 0 .7-.1 1.1H256.4q.4 0 .9.1c.3.4.5.8.8 1.2h-10.8V285Z"/><path fill="#070606" d="M359.2 463.3h10.4v10.4h-10.4v-10.4Z"/><path fill="#020002" d="M370 162.9h10.4v10.4H370v-10.4Z"/><path fill="#0f0501" d="M215.5 62.9h9.1v10.4h-10.4v-9.1c0-1.3.1-1.4 1.4-1.4Z"/><path fill="#9fa294" d="M304.7 162.9h9v8.6q0 1-.9 1.8H303.1V164.2c0-1.3.1-1.4 1.4-1.4Z"/><path fill="#676867" d="M113.8 173.8h.4v10.8h11.2c.1 14.6.3 29.1.4 44.2 3.4.1 6.9.3 10.4.4v-44.6h.4v44.2H147c.6 1.3.5 2.6.5 3.9v29.8h-11.7c-.1-10.7-.3-21.4-.4-32.5-3.4-.1-6.9-.3-10.4-.4-.1-14.6-.3-29.1-.4-44.2l-10.8-.4v-11.2Zm22.9 55.8v32.5h10.4v-29.9q.1-1.4-.5-2.5h-10Z"/><path fill="#7f7b6e" d="M169.6 106.7h11.2v11.2h9.8q.8 0 1.5.5V140h21.7v.4h-21.7v10.8h122.1v.4H191.7v-11.2h-11.2v-22.1h-10.8v-.4h10.8v-10.8h-10.8v-.4Zm11.2 11.6V140h10.8V119.6q0-.9-.5-1.3h-10.4Z"/><path fill="#f5ce41" d="M232.9 52.5h58V59.2q0 .8-.5 2.1c-1 .5-1.7.5-2.8.5H280.8v.8h-.8V71.6q0 1-.5 1.8h-7.1q-.8 0-1.2-.5V62.5h.8c0 .7.2 1.3.2 2q0 .6.1 1.1c0 1 0 1.7-.4 2.7v3.8h6.2v-4.5q0-2.5.5-3.4h.8v-2.1h.8c.1-.4.3-.8.4-1.2 1.5-1.2 3.5-.9 5.3-.9h3.4v-6.7h-70v-.4c4.5-.3 8.9-.5 13.4-.5Z"/><path fill="#170804" d="M292.5 51.7h10v10.4h-10V51.7Z"/><path fill="#070705" d="M314.6 107.5H325v8.2q0 .6-.5 1.8h-10v-10Z"/><path fill="#140501" d="M281.2 62.9h10v9.6c-1 .5-1.8.5-2.9.5h-2.5c-1.5 0-3 .1-4.5.2V62.8Z"/><path fill="#fefdfd" d="M303.8 107.5h10v10h-10v-10Z"/><path fill="#7e553f" d="M292.1 51.7h.4v10.4h10V51.7h.4v10.8h10.8v.4h-10.8v42.7q0 .7-.5 1.1H292v22.1h10.8v.4H292V140h-.4c-.3-7.1-.5-14.2-.5-21.2v-11.3q0-.8.5-1.2l10.4-.4c.1-14 .3-28 .4-42.5-3.4-.1-6.9-.3-10.4-.4v9.4q0 .6-.5 1.4h-9.4q-1 0-1.4-.5V62.5h11.2V51.7Zm-10.9 11.2v10.4c1.5 0 3-.1 4.5-.2h3.7q1 0 1.8-.5V63h-10Z"/><path fill="#beb99f" d="M302.9 107.1h11.2c.1 3.4.3 6.9.4 10.4 3.4.1 6.9.3 10.4.4v.4h-10.4v33.8H191.6v-.4h122.5v-33.3h-11.2v-11.2Zm.9.4v10h10v-10h-10Z"/><path fill="#0f0903" d="M203.8 52.1h9.6v10h-9.6v-10Z"/><path fill="#c2c1c0" d="M302.9 51.2h.4V62H315v44.2c3-.1 6.1-.3 9.2-.4v-2.3c0-1 0-1.9.1-2.9v-4.2q0-1 .5-1.4h44.5v.8h-44.6v10.8h-10.8c-.1-14.4-.3-28.9-.4-43.8l-10.8-.4V51.2Z"/><path fill="#8d8160" d="M213.8 40h78.3v11.2h10.8v.4h-10.8v10.8h-11.2V62h10.8V51.6h-77.1v-.4h77.1V40.4h-77.5v10.8H203v-.4h10.8V40Z"/><path fill="#9c6334" d="M236.2 62.1h31q2.1 0 2.6.5v12q-4.1 1.7-5.8 1.7c-.1-.3-.3-.5-.4-.8-4.8 0-9.7 0-14.5.2h-5.3q-5.3.1-6.9-1.1c-1-1.3-.9-2.1-.9-3.7v-9Zm.5.8v10.4h32.9V62.5h-30.4q-.4 0-2.5.5Z"/><path fill="#343027" d="M314.2 329.6H325v44.2h-10.8v-44.2Zm.8 1.2v41.7c1.5.5 3 .5 4.6.5h.9c1.6 0 2.3 0 3.7-.9q.2-.8.2-1.7v-37.1q.2-1.7-.5-3.1h-7.1q-.8 0-1.6.5Z"/><path fill="#605e58" d="M313.8 62.9h.4v43.8H325V95.9h44.6v.4h-43.8v10.4h43.8v.4h-44.2v10.8h-9.8q-1 0-1.5-.5V107h-10.8v-.4h10.4V62.8Zm.8 44.6v10h10c.5-1 .5-1.8.5-2.9v-7h-10.4Z"/><path fill="#2a2a27" d="M124.6 162.9h.4c.1 3.4.3 6.9.4 10.4l10.8.4v55.4h-10.4q-.4-.4-.5-1.2v-43h.4v43.3h9.6c-.1-17.6-.3-35.2-.4-53.3-3.3-.1-6.6-.3-10-.4-.6-1.1-.5-2-.5-3.3V162.8Z"/><path fill="#241b14" d="M192.1 62.9h10.8v42.6q0 .7-.5 1.1H192V62.8Zm.8.4v42.5h8.3q.9-.7.9-1.6V63.3h-9.2Z"/><path fill="#241109" d="M303.8 62.9h10v42.9c-1.1.5-1.8.5-3 .5h-7.5V64q0-.7.5-1.1Zm2 .4v.8c-.4.1-.8.3-1.2.4v38.2q-.2 1.7.5 3.1H312.3q.8 0 1.2-.5v-42H306Z"/><path fill="#ad6739" d="M290.4 107.5h.8v21.2q-12 .5-15.7.5H236.1V118c.9 1.4.9 1.8.9 3.5V128.9l1.4-.2c2-.2 3.9-.3 5.9-.3h32.8c2 0 3.8-.1 5.8-.5l.4-.4h2.5v-.8h3.8v-17.6q.1-.8.9-1.6Z"/><path fill="#64635d" d="M380.8 118.3h.4v43.8h10.4v-43.8h.4v44.6h-10.8v10.8H370v10.8h-.4v-10.8h-10.8v-.4h10.8v-10.8c3.6-.1 7.1-.3 10.8-.4.1-14.4.3-28.9.4-43.8ZM370 162.9v10.4h10.4v-10.4H370Z"/><path fill="#cbcbcb" d="M157.5 396.2h.8v33.3h-11.2v22.1h-10.8v22.5h10.8v.4H137q-.7 0-1.5-.5V452.2q0-.9.5-1.3h10.8v-22.5c1.4-.3 2.5-.5 3.9-.5h4.9q.8 0 2 .5v-32.5Z"/><path fill="#1d1c17" d="M103.8 118.3h10v44.6h-.8v-43.8h-9.2v53.3h10.4c-.1.4-.3.8-.4 1.2-3.4-.1-6.9-.3-10.4-.4V119.6q0-.9.5-1.3Z"/><path fill="#c5c5c5" d="M126.7 94.9h41.5q.8.1 2.1.9t.1 2.3V105.8h9.3q1 0 1.4.5v11.2h10.8c-.1.3-.3.5-.4.8l-10.8-.4v-11.2h-11.2V95.9h-44.6v10.8h-10.8v-.4c3.3-.1 6.6-.3 10-.4v-2.3c0-1 0-1.9.1-2.9v-4.2c.1-1.7.7-1.5 2.2-1.5Z"/><path fill="#d2d2d2" d="m135.8 262.5 11.2.4c.1 10.9.3 21.7.4 32.9 3.4.1 6.9.3 10.4.4.7.7.5 1.6.5 2.6v30.7h-.8c-.1-10.6-.3-21.2-.4-32.1-3.2-.1-6.3-.3-9.6-.4l-1.2-.8c-.1-1.1-.2-2-.1-3.1v-29.5h-10c-.1-.4-.3-.8-.4-1.2Z"/><path fill="#6d6955" d="M136.2 117.9h22.5v10.8h9.8q.8 0 1.5.5v22.5h-11.2v10.8h-.4v-11.7h10.4V130h-10l-.8-.8v-10.8h-21.7v-.4Z"/><path fill="#5e5a46" d="M336.2 117.9H357.4q.9 0 1.3.5c0 .8.1 1.5.1 2.3V123.6q0 2.6.2 5.2l10.8.4v22.1h-.4v-21.7h-10.8l-.8-.4v-10.4H337v10.4q-.4.4-1.5.5h-9.8v21.2h10l.4.8h-10.8v-22.5h10.8V118Z"/><path fill="#383429" d="M225.4 195.8h10.8v22.5H225V197.1q0-.9.5-1.3Zm.8 2.1v19.3h9.2v-19.6c-1.8-.9-7.6-1.1-9.2.4Z"/><path fill="#babca4" d="M147.1 185h.4v32.9h10.8c.7.7.5 1.6.5 2.6v31h10.8v33.3h-.4v-32.9h-10.8c-.7-.7-.5-1.6-.5-2.6v-30.7H148.9q-1 0-1.8-.5v-33.3Z"/><path fill="#af6c40" d="M301.7 63.3h.8v41q0 .8-.5 1.6c-1.3.4-2.2.5-3.6.5H294.2c-1.2 0-2.3 0-3.5.1.1-.4.3-.8.4-1.2 2.6-.8 5-.9 7.7-.7h1c1.1-1.6 1-2.9 1-4.7V80c0-4.3 0-8.5.1-12.8h.8c-.1-1.2-.3-2.5-.4-3.8Z"/><path fill="#bdad89" d="M280.8 318.3h10.8v.4h-10v9.6h20.3q.9.1 1.7.9.1 1.2 0 2.6v5q0 4.1-.5 4.6h-55.5v-.4h55v-11.7h-22.1v-10.8Z"/><path fill="#181a18" d="M170 329.6h10q.4.4.5 1.3t0 1.2v19.6h-.4c-.4-7.1-.5-14.2-.4-21.2-1.4 0-2.8.1-4.1.2h-3.4q-.8 0-1.2.5V371.4c0 8 0 16-.1 23.9h9.6v-21.2h.4v21.7h-10.4v-66.2Z"/><path fill="#dadada" d="M113.8 185h9.9q.7 0 1.5.5v43.7l-1.2-.4c-.1-14.2-.3-28.3-.4-42.9H114v-.8Z"/><path fill="#2b150b" d="M214.6 129.2h9.1q.7 0 1.4.5c.1 3.4.3 6.9.4 10.4h55c.1-3.4.3-6.9.4-10.4h10.4v10.8c-.3-.1-.6-.3-.8-.4-.1-3.2-.3-6.3-.4-9.6-.7.1-1.4.3-2.1.4h-3.5q-1.2 0-2.3.9c-.6 2.1-.6 4.3-.7 6.4q-.1 2.3-.6 2.7H226q-.9 0-1.3-.5c-.1-.9-.2-1.8-.2-2.7q0-.7-.1-1.5v-6.3c-3-.1-6.1-.3-9.2-.4v10h-.4v-10.4Z"/><path fill="#dcbc58" d="M240.9 60.7H266.9c1.9.3 2.9.8 4.4 1.9q.4 1.1.4 2.4v8c2.6.1 5.2.3 7.9.4.1-3.6.3-7.1.4-10.8h.4v9.9q0 1-.5 1.5H271.2q-.9 0-1.3-.5l-.4-10.8c-11-.1-22-.3-33.3-.4 1.9-1.4 2.4-1.4 4.6-1.4Z"/><path fill="#cfc092" d="M249.6 283.8h52.5q.9 0 1.3.5V308h-10.8v10.4h-.8v-11.2H303v-22.5h-12.6c-9.7 0-19.4 0-29.1-.2h-.9c-3.6 0-7.2-.1-10.8-.2v-.4Z"/><path fill="#c6c7a9" d="M302.9 162.1h10.2q1.1 0 1.5.5V173.5h9.9q.6 0 1.5.5v9.8q0 1.1-.5 1.9h-9.8q-1.1 0-1.9-.9v-10.5H303v-12.1Zm.4 1.2v9.9h8.6q1.1 0 1.8-.9.1-1 0-2.2v-7.5H304.6q-.9 0-1.4.5Zm10.9 10.9V184.6H325v-10.8H315.6q-1 0-1.4.5Z"/><path fill="#3f2e25" d="M203.3 106.7h10.8q.4.4.5 1.3v20.8h10.8V140h-.4l-.4-10.4c-3.3-.1-6.6-.3-10-.4v10.1q0 1.1-.5 1.5H192v-.4c7.1-.1 14.3-.3 21.7-.4.1-3.7.3-7.4.4-11.2h-10.8v-22.1Zm.5.4v21.2h10v-20q0-.8-.5-1.3h-9.6Z"/><path fill="#1e1c18" d="M336.7 407.5h10.4v32.9h-10.4v-32.9Zm.4.8v27.4q0 1.6.9 3.9h8.3v-31.2h-9.2Z"/><path fill="#cfb356" d="M214.2 51.7h77.5v10.4h-10.8v-.4h10.4v-9.6h-76.2v9.6h10v.8h-10.8V51.7Z"/><path fill="#282928" d="M158.8 295.8h10.8v33.3h-10.8v-33.3Zm.8 1.7c-.1 1-.2 1.9-.2 3V328.7h10v-32.1q-7.4-.8-9.6.8Z"/><path fill="#efca48" d="M235.4 60H270c.4.8.8 1.7 1.2 2.5-.2-.1-.5-.3-.8-.4-1.8-.9-3.1-.9-5.1-.9h-26.1q-.8 0-3 .5c-.1 7.4-.3 14.8-.4 22.5h-5c1.9-.9 2.6-.8 4.6-.4 0-.4 0-.9-.1-1.3-.2-3.1-.4-6 .1-9.1h-.8V63.8q0-1.3.9-3.8Z"/><path fill="#3f290a" d="M239.2 62.4h30.5v10.8h-32.9q0-10.9 2.5-10.9Zm-2.1.9v9.2c1.2.6 2.4.5 3.8.5h28V64.7q0-.6-.5-1.3h-31.1Z"/><path fill="#c2bfa7" d="m325 407.1 11.2.4v32.9l10.8.4v21.7h-.4c0-2.8-.1-5.5-.2-8.3V443.8q0-.9.5-2.1t-1 .2c-1.8.2-3.5.2-5.3 0h-2.9q-.8-.1-2-1c-.1-1.1-.2-2-.1-3.1V408h-10.4v-.8Z"/><path fill="#6f6e69" d="M336.2 374.2h.4c.1 10.7.3 21.4.4 32.5 3.4.1 6.9.3 10.4.4v33.3h-.4v-32.9h-10.4v32.9h-.4v-32.9h-10.8v-.4h10.8v-32.9Z"/><path fill="#ebc74e" d="M289.6 52.5h1.2V59.2q0 .8-.5 2.1c-1 .5-1.7.5-2.8.5H280.7v.8h-.8V71.6q0 .6-.5 1.8h-7.1q-.8 0-1.2-.5V62.5h.8c0 .7.2 1.3.2 2 0 .4 0 .7.1 1.1 0 1 0 1.7-.4 2.7v3.8h6.2v-4.5q0-2.5.5-3.4h.8v-2.1h.8l.4-1.2c1.5-1.2 3.5-.9 5.3-.9h3.4v-7.5Z"/><path fill="#605a49" d="M281.9 195.8H292V217q0 .9-.5 1.3h-11.2V197.1c0-1.3.2-1.3 1.5-1.4Zm-.7.4v21.2h10v-21.2h-10Z"/><path fill="#d2cfaf" d="M158.8 251.2H170c.5 1.4.5 2.4.5 3.8V259.3c0 8.4-.2 16.7-.5 25.1h1c1.5 0 2.9-.1 4.4-.2h4.5q.7 0 1.5.4V305.8c0 3.9 0 7.8.1 11.7.4-.1.8-.3 1.2-.4v.8h8.8v.4h-10.8V285h-11.2v-33.3h-10.8v-.4Z"/><path fill="#cbc7ad" d="M370 118.3h10.4v44.2h-10.8v10.8l-11.2.4v-1.2h10.4q0-3.3-.1-6.5v-2.5c0-.3 0-.7.1-1 3.1-2.1 7.5-.8 11.2-.8-.1-14.2-.3-28.3-.4-42.9H370v-.4Z"/><path fill="#d8d4b6" d="M325.8 107.5h43.3l.4 10 .4 1.2h9.6v.4H370.5c-.3 0-.7 0-1-.1-2-3-.8-7.2-.8-10.8q-20.8.2-42.1.4c-.1 3-.3 6.1-.4 9.2h-.4v-10.4Z"/><path fill="#a19e96" d="M302.9 107.1h11.2c.1 3.4.3 6.9.4 10.4 3.4.1 6.9.3 10.4.4v.4h-10.4v32.9h-.4v-32.9h-11.2v-11.2Zm.9.4v10h10v-10h-10Z"/><path fill="#24201d" d="M370 107.1h9.4q1 0 1.4.5V118h-9.4q-.6 0-1.4-.5V107.1Zm1.2 1.2c-.4 1.7-.5 3.3-.4 5.1V116.6c1.5.5 2.8.5 4.4.5h1.4q1.4 0 3-.5v-8.3h-8.3Z"/><path fill="#a56132" d="M214.2 73.8h10v.4h-9.6c.1 6.9.3 13.8.4 20.8q3.4 0 6.8.2h2.6c.3 0 .7.1 1.1.2.9 1.4.9 1.7.9 3.3v18.8h10v.4h-11.2V96.2c-3.4-.1-6.9-.3-10.4-.4q-.4-.4-.5-1.3t0-1.2V73.7Z"/><path fill="#271a08" d="M248.3 285.8h53.8c-.1.3-.3.6-.4.8h-1.5c-12.4 0-24.8 0-37.1.2h-1c-4.3 0-8.5.1-12.8.2-.1.8-.3 1.7-.4 2.5h-.4v-3.8Z"/><path fill="#220f00" d="M237.1 63.3H266.4q2 0 2.5.5v9h-29.7q-1.3 0-2.1-.5v-9.2Zm.8 1.7v4.5q-.2 1.6.5 3h29.9v-8.3c-5.7-.3-11.4-.5-17.1-.5H244q-3.3 0-6.2 1.4Z"/><path fill="#161009" d="M281.2 196.2h10v21.2h-8.3v-.4q3.5-.2 7.1-.4.3-2.6.5-5.2v-8.8c0-1.9 0-3.7.1-5.6-.4.1-.8.3-1.2.4q-3.5.2-7.1.4v19.6h-1.2v-21.2Z"/><path fill="#956347" d="M292.1 62.9h9.6c-1.2 1.2-2.6 1.6-4.2 2.1l-1.2-.4c-1.3.4-2 .7-2.9 1.7l.4.4c.8 2.7.2 4.6-1 7.1-.7 1-1.2 1.3-2.3 1.7H285.6c-.4-.1-.9-.1-1.4-.2-1.1 0-2.2-.1-3.3-.2l.4-1.7h10.4c.1-3.4.3-6.9.4-10.4Z"/><path fill="#c6c5c6" d="M358.8 440.4h.8v21.7H370c.8.8.5 2 .5 3v8q0 1.1-.5 1.5h-11.2v-.4h10.8V463h-10.8v-22.5Z"/><path fill="#d6d2b7" d="M325.8 118.3c-1 1-1.3.9-2.7 1h-5.5q-.9 0-1.7 1V124.4q-.1 1.4.5 2.6v4q0 2.2-.5 2.7c0 1 0 2.1-.1 3.1v8.9c0 1.9-.2 3.6-.5 5.5h-.4v-32.9q10.4-.4 11.2 0Z"/><path fill="#6f6e6a" d="M358.3 173.8h.4v10.8h10.8v.4h-10.8v66.2h-.4V185h-10.4v-.4h10.4v-10.8Z"/><path fill="#dedede" d="M158.3 329.6h10.8v66.2h-10.4v-.4h10v-64.6c-3.3-.1-6.6-.3-10-.4l-.4-.8Z"/><path fill="#dca133" d="M235.8 62.5h.4c.3 7.1.5 14.3.8 21.7 3.3.1 6.6.3 10 .4q.4.4.5 1.5v9.8h-11.2V85.1h-10.8l.4-.8h10V62.6Zm.9 22.9v10h10.4V85H238q-.9 0-1.4.5Z"/><path fill="#202320" d="M180.4 351.7h11.2v22.5h-11.2v-.8c3.2-.8 6.7-.7 10-.8V353q-4.7-.2-9.6-.4l-.4-.8Z"/><path fill="#583e1f" d="M292.1 51.7h.4v10.4h10V51.7h.4v10.8l-10.4.4-.2 6.8v2.6q0 1-.5 1.4h-9.4q-1 0-1.4-.5V62.4h11.2V51.6Zm-10.9 11.2v10.4c1.5 0 3-.1 4.5-.2h3.7q1 0 1.8-.5V63h-10Z"/><path fill="#323029" d="M347.5 440.8h10.8v21.7h-10.8v-21.7Zm.8.9v20.4h9.6v-20.4h-9.6Z"/><path fill="#924f24" d="M225.4 117.9h10.8v11.2h44.2v.4c-.6.2-1.3.3-2 .4q-.5.1-1.1.2t-2 0c-1.7-.3-3.3-.3-5-.3h-34.6q-.5-3.7-.5-5.4v-5.9c-.4.1-.8.3-1.2.4-.7 0-1.4 0-2-.1-.4 0-.8 0-1.2-.1-.4 0-.8 0-1.2-.1q-.6 0-1.2-.1l-3-.3v-.4Z"/><path fill="#cccac9" d="M292.1 129.2h10.8v11.2h-10.8v-11.2Zm.8.8v9.2h9.2V131.3q0-.8-.5-1.3h-8.8Z"/><path fill="#312b1f" d="M136.2 118.3h21.7v10.8h-.4v-10c-6.2.1-12.4.3-18.8.4-.6 1.2-.5 2.4-.6 3.8-.1 2.3-.4 4.1-1.5 6.2-.3-.1-.5-.3-.8-.4.1-3.6.3-7.1.4-10.8Z"/><path fill="#b4af95" d="M136.7 117.4H158.3v.4h-22.1V129c-3.6.1-7.1.3-10.8.4-.1 7.1-.3 14.3-.4 21.7h-.4V129.9q0-.9.5-1.8h.9c1.3 0 2.6 0 3.9-.2H133.8q.6 0 1.3-.5c0-.7 0-1.4.1-2.1V118.7c.1-1.2.2-1.3 1.4-1.4Z"/><path fill="#402f18" d="M203.3 51.7h10.4c.1 3.4.3 6.9.4 10.4l10.8.4v10.8h-.4V62.9c-3.3.1-6.6.3-10 .4-.1 3.3-.3 6.6-.4 10h-.4l-.4-10h-2.7c-2.5 0-4.8-.2-7.3-.4V51.7Zm.5.4v10h9.6v-10h-9.6Z"/><path fill="#8c908d" d="M181.2 374.6h10.4v.4h-10v21.2l-.8.4c.1-7.3.3-14.6.4-22.1ZM170 396.7h10.8c-.1.3-.3.5-.4.8h-9.6c-.1 10.5-.3 20.9-.4 31.7h-.4v-32.5Z"/><path fill="#dcdcdc" d="m135.8 262.5 11.2.4v33.3h-.8v-32.5h-10c-.1-.4-.3-.8-.4-1.2Z"/><path fill="#7b7965" d="M359.8 151.2H369.7v.4c-3.3.1-6.6.3-10 .4-.1 3.4-.3 6.9-.4 10.4-1 .5-1.7.5-2.9.5h-18.7q-.9 0-1.3-.5V151.5h.4v10.4h21.7v-10.4q.4-.4 1.5-.5Z"/><path fill="#12100a" d="M303.3 118.8h10.4v32.1h-10.8v-.4c3.3-.1 6.6-.3 10-.4v-30.8h-9.6v-.4Z"/><path fill="#261202" d="M215.5 62.9h9.1v10.4h-10.4v-9.1c0-1.3.1-1.4 1.4-1.4Zm6.7.6c-1.4.3-2.8.4-4.2.5-1 0-2 .1-3 .2v8.3h7.5q.8 0 1.2-.5v-8.9q-.8 0-1.5.2Z"/><path fill="#b0b497" d="M224.6 363.3h.4v10.4h11.2v11.2c-7.3.1-14.6.3-22.1.4-.1 1.5-.3 3-.4 4.6h-.4V386q0-1.1.5-1.6h13.7c2.5 0 5 0 7.5-.1.2-3.1.5-6.1.4-9.2h-8.7q-1 0-2.3-.9t-.2-2v-3.8q-.1-3.4.4-5Z"/><path fill="#1b1813" d="M370 162.9h10.4v10.4H370v-10.4Zm1.2.9c-.3 2.1-.5 3.9-.4 6v2.7h8.8v-8.8h-8.3Z"/><path fill="#553121" d="m302.9 62.9.8.4c-.1 14.2-.3 28.3-.4 42.9l10.4-.4v.8l-10.4.4c-.1 3.6-.3 7.2-.4 10.8h-.4V107h-10.4v-.4l10.4-.4c.1-14.3.3-28.6.4-43.3Z"/><path fill="#362913" d="M290.8 307.5h.8v10.8h-11.2v-1.2h9.2v-7.5c.4-.1.8-.3 1.2-.4v-1.7Z"/><path fill="#d7d8ba" d="M137.1 184.2h9.4q1 0 1.4.5c0 .7.1 1.4.1 2.1v4.3c0 1 0 2.1.1 3.1 0 1.6.1 3.2.2 4.8 0 1 0 2 .1 3v1.4c0 2.4 0 4.7-.3 7.1v7c3.2-.1 6.3-.3 9.6-.4l.4.8h-10.8c-.1-10.9-.3-21.7-.4-32.9-3.3-.1-6.6-.3-10-.4v-.4Z"/><path fill="#d6d3b5" d="M114.6 118.8H125v.4h-10c.1 13.6.3 27.2.4 41.2l.8-.4v1.2H120.3c1.6 0 3.1 0 4.6.5v.4h-10.4v-43.3Z"/><path fill="#b2ae94" d="M335.4 117.9h.8v11.2h-10.8v22.1h-.4v-22.9c3.2-.1 6.3-.3 9.6-.4.7-.7.5-1.6.5-2.6v-4.1c0-1.1 0-2.3.1-3.4Z"/><path fill="#9f9071" d="M302.9 285h.4v22.9h-10.8v10.4h-.8v-11.2h11.2V285Z"/><path fill="#a19e84" d="M125 151.2h11.2v11.2h22.1v.4H136.6q-.9 0-1.3-.5V151.9h-10l-.4-.8Z"/><path fill="#7e8280" d="M180.4 329.2c.4.1.8.3 1.2.4v21.2h10v.8h-9.4q-.6 0-1.4-.5v-14.3c0-2.6 0-5.2-.1-7.8Z"/><path fill="#d6d3d1" d="M292.1 40.4h.8v10h9.4q1 0 1.4.5V61.8h10.4v.4h-10.8V51.4h-11.2V40.6Z"/><path fill="#65635b" d="M358.3 453.3h.4v9.6h10.8v.4h-10.4v10.4h10.4v.4h-11.2l-.4-10.8c-3.3-.1-6.6-.3-10-.4v-.4h10.4v-9.2Z"/><path fill="#d9c498" d="m247.1 340.4.8.4H276c5.2 0 10.3 0 15.5.1v.4c-5.3.3-10.6.5-16 .4h-24.7q-.4 0-3 .9-.1 1 0 2.1v2c-.3-.1-.5-.3-.8-.4v-6.2Z"/><path fill="#efedec" d="M303.8 107.5h10v10h-10v-10Zm.4.4v8.8c1.4.3 2.1.5 3.4.4h2c1.1 0 2.3-.2 3.4-.2v-8.3c-2.9-.1-5.8-.3-8.8-.4Z"/><path fill="#f9be45" d="M238 85h9v2.1h-9.6v4.6c-.1 1.1-.3 2.2-.4 3.3 3.3-.1 6.6-.3 10-.4v.8h-10.4v-9.1c0-1.3.1-1.4 1.4-1.4Z"/><path fill="#cb8822" d="M237.1 84.2h9.4c.3 0 .7 0 1.1.1 1 1.5.9 2.1.9 3.8v2.4l1.2.4v.8l-.8.4v2.8q0 .9-.9 1.7t-2.3.2c-2 .1-4 .3-6 .6v-.8c-1.1-.1-2.2-.3-3.3-.4v-.4h11.2l-.4-10.8c-3.3-.1-6.6-.3-10-.4v-.4Z"/><path fill="#8f9592" d="M147.9 229.6h.4c.3 10.4.5 20.9.8 31.7 3 .1 6.1.3 9.2.4v.4h-10.4v-32.5Z"/><path fill="#b97f25" d="M225 62.5h.4c.1 7.3.3 14.6.4 22.1l-1.2.4v-5h-1.7c0-.9 0-1.8-.1-2.6v-1.5c0-.4.1-.9.2-1.3l.8-.6q.4-.3 1.1-1.8v-9.7Z"/><path fill="#954e24" d="M213.8 74.2h.4c.1 7 .3 14 .4 21.2 3.4.1 6.9.3 10.4.4q.4.4.4 1.5v1l-.4-1.7q-1.4.3-2.1 1.7v-2.1h-8.8c-.8-1.5-.9-1.9-.9-3.5V79.1c0-1.7 0-3.4.5-5.1Z"/><path fill="#efeeee" d="M337.1 376.7h.4c.1 9.8.3 19.5.4 29.6h9.6v.8h-10.4v-30.4Z"/><path fill="#a16b4b" d="M290.8 108.3h.4v20.4H280v-.4c.5 0 .9-.1 1.4-.2q1.4 0 1.9-.7h2.5v-.8h5v-18.3Z"/><path fill="#80807a" d="m369.6 162.5.8.4c-.1 3.4-.3 6.9-.4 10.4h10.8v-10.4h.4v10.8H370v10.8h-.4v-10.8h-10.8v-.4h10.8v-10.8Z"/><path fill="#2c1400" d="M281.2 62.9h10c-1.3.8-1.6.9-3 1h-2.1q-1.8 0-3.7.2c-.1 2.8-.3 5.5-.4 8.3q4.3-.2 8.8-.4v-6.7h.4v7.1c-1 .5-1.8.5-2.9.5h-2.5c-1.5 0-3 .1-4.5.2V62.7Z"/><path fill="#0f0f0e" d="M324.2 330.8h.4v42.5h-8.8l-.8-.8h7.1q.5 0 1.7-.5c.1-13.6.3-27.2.4-41.2Z"/><path fill="#b8c09f" d="M180.4 430h.4v30.4q0 2.1-.5 2.5H169.4v-.4h1.4c.6 0 1.2 0 1.8-.1h.9q1.7 0 3.3-.4.9-.2 2.9.2c.1-10.6.3-21.2.4-32.1Z"/><path fill="#dcdcdc" d="M125 229.6h9.4q1 0 1.4.5v32.6h-.4c-.1-10.5-.3-20.9-.4-31.7q-4.7-.2-9.6-.4l-.4-.8Z"/><path fill="#dadada" d="M370 173.8h11.2c-.1.4-.3.8-.4 1.2h-9.6l-.2 5.4v2q0 .5-1 2.2v-10.8Z"/><path fill="#4f4a38" d="M126.4 129.1h9.4v.8h-10v4.3c0 5.7-.2 11.3-.4 17h-.4V130.5c0-1.3.2-1.3 1.5-1.3Z"/><path fill="#d2d0b4" d="M158.8 151.7h10.4v.4q-.5 0-1 .2c-.4 0-.7.2-1.1.3-.1.3-.3.5-.4.8-1.1.1-2.2.2-3.4.3h-1c-.8 0-1.6 0-2.3.1V160.5q-.1.8-1 2.1v-10.8Z"/><path fill="#c4c2a7" d="M180.4 140.4h11.2v10.8h-.8c0-1.4-.2-2.9-.2-4.3v-3.5q0-.9.4-1.7h-8.1q-1-.1-2.2-1.4Z"/><path fill="#e1ddbb" d="M115 119.2h9.6v.4h-.8c-1.1 0-2.3 0-3.4.2H117q-.6 0-1.2.5v25.8c0 4.7 0 9.5-.1 14.2h-.4v-41.2Z"/><path fill="#b79f53" d="M214.2 51.7H225v.4h-10v9.6h10v.8h-10.8V51.7Z"/><path fill="#e2dabe" d="M224.2 195.8h.4c.1 7.4.3 14.8.4 22.5-.7-.1-1.4-.3-2.1-.4v-3.3q0-.7.4-.4c0-1.2 0-2.5.1-3.7v-12.4q0-.8.5-2Z"/><path fill="#d3d6b8" d="M178.8 284.2h2.1c.8.8.5 2.4.5 3.5v18.1c0 3.9 0 7.8.1 11.7l1.2-.4v.8h8.8v.4h-10.8c-.1-11-.3-22-.4-33.3l-1.7-.8Z"/><path fill="#e3debd" d="M237.1 195.8q.8.8.9 2.4v5.1l.4.4c.5 3.2.5 6.3 0 9.5 0 .3 0 .6-.1.9 0 .7-.2 1.4-.4 2.1l-.8.4v-20.8Z"/><path fill="#d5d2b8" d="M347.5 463.3h10.8v10.4l-1.2-.4v-9.2h-7.9q-.6 0-1.7-.9Z"/><path fill="#1e0d06" d="M281.2 129.6h10v10.8l-.8-.4q-.2-4.7-.4-9.6c-.7.1-1.4.3-2.1.4h-3.5q-1.2 0-2.3.9t-.4 2.1h-.4v-4.2Z"/><path fill="#c8c6aa" d="m369.6 151.2.4.8h-.8c-1.2 0-2.3 0-3.5.2h-3.5q-1.1 0-2.7.5v10c-1.1.5-1.8.5-3 .5h-20v-.4q11.1-.2 22.5-.4V152c.7-.7 1.7-.5 2.6-.5H365.8c1.2 0 2.4 0 3.5-.1Z"/><path fill="#c9c4a9" d="M292.1 194.6v1.2l-11.2.4c-.1 7.1-.3 14.3-.4 21.7h-.4V196.7q0-.9.5-1.8c1.8 0 3.6-.1 5.4-.2H292.3Z"/><path fill="#1c1c1c" d="M114.2 173.8h.8c.1 3.2.3 6.3.4 9.6h7.4q.5 0 2.2.5v.8h-10.8v-10.8Z"/><path fill="#a3a08c" d="M114.2 162.1h9.8q.6 0 1.9.5V173c3.3.1 6.6.3 10 .4v.4h-9.4q-1 0-1.4-.5c0-.8-.1-1.5-.1-2.3V168.1c0-1.7-.1-3.4-.2-5.2-3.4-.1-6.9-.3-10.4-.4v-.4Z"/><path fill="#ededed" d="M381.2 107.1h.4v2.1h.8v7.5h7.4q.9 0 2.2.9h-10.8v-10.4Z"/><path fill="#aaae93" d="M192.1 340.8h10.8c.1 3.6.3 7.1.4 10.8 3.3.1 6.6.3 10 .4v.4h-11.2v-11.2h-10v-.4Z"/><path fill="#ddd" d="M369.6 95.4h.8c.4 1.2.5 2 .5 3.3V101.1c0 1.4.1 2.8.2 4.3 3.3.1 6.6.3 10 .4l-.4 1.2-10.8-.4c-.1-3.7-.3-7.4-.4-11.2Z"/><path fill="#dedab6" d="M336.2 116.7H356.1q.9.1 2.2.9c-7.4.1-14.8.3-22.5.4.1-.4.3-.8.4-1.2Z"/><path fill="#d8c059" d="M225 62.1q1.7.8 2.1 1.2v9.9h-1.7c-.1-3.7-.3-7.4-.4-11.2Z"/><path fill="#f6c440" d="M271.2 62.5h.8c0 .7.2 1.3.2 2 0 .4 0 .7.1 1.1 0 1 0 1.7-.4 2.7v3.8h6.2V65c.3-.3.5-.6.8-.8.1 3 .3 6.1.4 9.2h-7.1q-.8 0-1.2-.5V62.5Z"/><path fill="#372b13" d="M258.8 307.1h.8c.1 3.2.3 6.3.4 9.6h2.7q4.1 0 6 .4l.4.8h-10.4v-10.8Z"/><path fill="#2e2313" d="M302.1 286.2h.4v20.4h-10v-.8H299.1q1 0 2.5-.5c.1-6.3.3-12.6.4-19.2Z"/><path fill="#a4a793" d="M167.5 252.1h1.7v32.5h-.4v-31.2h-2.1c.3-.4.5-.8.8-1.2Z"/><path fill="#55534d" d="M380.8 157.9h.4v4.2h10.4v.4l-10.4.4c-.1 3.4-.3 6.9-.4 10.4h-.4v-10.4h-10v-.4c3.3-.1 6.6-.3 10-.4.1-1.4.3-2.7.4-4.2Z"/><path fill="#a9653c" d="M280.8 73.3q5.8.2 11.7.4c-.4.5-.8 1.1-1.2 1.7q-1.1.2-2.4 0h-1.4c-.5 0-1 0-1.5-.1h-1.5c-1.2 0-2.4-.1-3.6-.2v-1.7Z"/><path fill="#afb39a" d="M191.2 407.5h.4v22.1h-10.4v-.4h.7c1.1 0 2.2 0 3.3-.2h3.3q1 0 2.2-.5c.1-6.9.3-13.8.4-20.8Z"/><path fill="#d0ceb4" d="M158.8 118.3h.8v.8c0 1.2 0 2.5.2 3.7v3.7q0 .9.5 1.3t3.3-.4c.8.1 1.7.3 2.5.4 1 .1 1.9.3 2.9.4v.4h-10.4v-10.4Z"/><path fill="#4f3b30" d="M313.8 105.8v.8l-10.4.4c-.1 3.6-.3 7.1-.4 10.8h-.4V107h-10.4v-.4c3-.1 5.9-.2 8.9-.4 1 0 2 0 3-.1 1.4 0 2.9-.1 4.3-.2h5.5Z"/><path fill="#f3b942" d="M227.5 72.1c.1.4.3.8.4 1.2q-.3.3-.6.7c-.9 1.3-.7 2.2-.7 3.7s-.2 2.9-.4 4.4v.8l.4.4h1.4q.7 0 2.3.9h-5V73.4h1.7c.1-.4.3-.8.4-1.2Z"/><path fill="#edd054" d="M289.6 52.5h1.2V59.2q0 .4-.5 2.1c-2.5-.1-5-.3-7.5-.4v-.4c2.2-.1 4.4-.3 6.7-.4v-7.5Z"/><path fill="#bdac88" d="M246.7 329.2h.8v11.2h-1.2v-9.9q0-1 .5-1.5Z"/><path fill="#ddc69a" d="M250.8 307.9H257.5c.7.7.5 1.6.5 2.5V317q0 1 .5 1.8l-1.2-.4q-.3-.9-.5-1.9c0-.3-.1-.7-.2-1 0-.3 0-.5-.1-.8h-.4q0-2.4.4-3.3v-2.5h-3.9q-1.2 0-2-.9Z"/><path fill="#dcbf58" d="M215 52.1h11.2v.4h-10v.8h-.8v7.5c3.2.1 6.3.3 9.6.4v.4h-10V52Z"/><path fill="#cfd1b2" d="m180.4 462.5.4.8c-3.3.1-6.6.3-10 .4-.3 1.4-.5 2.4-.5 3.8v5.3l-.8.4v-10.4c3.6-.1 7.1-.3 10.8-.4Z"/><path fill="#18160e" d="M113.8 162.9h10.8v10.8h-.4l-.4-10h-5c-1.7 0-3.3 0-5-.5v-.4Z"/><path fill="#efefee" d="M112.9 107.1h.4v10.4h-10v-.8h9.2c.1-3.2.3-6.3.4-9.6Z"/><path fill="#c57926" d="M270 73.3h10.4v.8c-.4.1-.8.3-1.2.4-.1.3-.3.6-.4.8H273v-.8c-1-.1-1.9-.3-2.9-.4v-.8Z"/><path fill="#4e210d" d="M291.2 62.9h.4v10.8h-10.4c1.3-.9 1.8-1 3.3-1H286.9c1.4 0 2.8-.1 4.3-.2v-9.6Z"/><path fill="#dbd8b8" d="M357.9 172.9c.6 1.1.4 1.9.4 3.2v4.4c0 1.2-.1 2.4-.2 3.7h-8.8l.4-.8h1c2.5 0 4.6 0 6.9-.9 0-.3-.1-.5-.2-.8-.3-1.7-.2-3.2 0-4.9v-1q.2-2.4.6-2.9Z"/><path fill="#e0debd" d="M325.4 407.9h10c-1.2 1.2-2.1 1.1-3.8 1.2l-1 .2c-1.5.3-2.9.2-4.4.2v-.8l-.8-.8Z"/><path fill="#281a08" d="M270.4 320h.8c.5 1.9.4 3.6.3 5.5v2.9q-.2.8-1.4 1.6c.1-3.3.3-6.6.4-10Zm-4.2 10h3.8c-.1.3-.3.5-.4.8h-2.5l-.8-.8Z"/><path fill="#d7c796" d="m292.5 318.8-1.2 1.2-.4-.4H287.3c-1.7 0-3.5.3-5.2.5v8.3h-.4v-9.6c1.6 0 3.3-.2 4.9-.2h4.1q.6 0 1.8.4Z"/><path fill="#a3753b" d="M269.6 62.5h.4v12.1q-.8.4-1.7.8v-.8h-8.8v-.4c3.3-.1 6.6-.3 10-.4V62.6Z"/><path fill="#b06c42" d="M214.6 74.2h8.8q-1.2 1.2-2.4 1.4h-1.3q-2.1 0-4.2.4c-.3.3-.5.6-.8.8v-2.5Z"/><path fill="#ae6f4e" d="M292.9 63.3h7.9q-.8.4-1.7.8c-.3.2-.6.3-.9.5q-.8.3-2.1 0c-1.3.4-2.2.9-3.3 1.7v-2.9Z"/><path fill="#e0dfdf" d="M337.1 403.8h.4c.1.7.3 1.4.4 2.1 3.2.1 6.3.3 9.6.4v.8h-10.4v-3.3Z"/><path fill="#110e08" d="M348.3 185.4h9.6v7.5h-.4c-.1-2.2-.3-4.4-.4-6.7h-4.3c-1.3 0-2.4 0-3.6.5-.1 1.1-.3 2.2-.4 3.3h-.4v-4.6Z"/><path fill="#dcd6b7" d="M280.8 218.8H292c-.1.4-.3.8-.4 1.2H283q-1-.1-2.3-1.4Z"/><path fill="#7a7971" d="M336.2 373.8v.4c-7.4.4-14.7.4-22.1 0v-.4c7.4-.4 14.7-.4 22.1 0Z"/><path fill="#acb194" d="M202.5 396.7h.4v10.4h-2.1l.6-1.2c.8-1.8.8-3.4.7-5.4v-3.4l.4-.4Z"/><path fill="#afb194" d="M180 457.1h.4v5.8h-10.8v-.4h1.4c.6 0 1.2 0 1.8-.1h.9q.4 0 3.3-.4.9-.2 2.9.2v-5Z"/><path fill="#dfdec1" d="M159.6 107.9h9.2c-.1.8-.3 1.7-.4 2.5h-.4v-2.1h-.8c-.3.5-.5 1.1-.8 1.7v-.8h-3.3v-.8h-3.3v-.4Z"/><path fill="#1b0f07" d="M292.9 52.1h9.2v.4c-2.8.1-5.5.3-8.3.4-.1 2.5-.3 5-.4 7.5h-.4v-8.3Z"/><path fill="#d4c098" d="M292.5 307.9h7.5v.4h-3.7q-.6 0-2.9 1c-.1 2.9-.3 5.8-.4 8.8h-.4v-10.4Z"/><path fill="#b06f44" d="M285.8 126.7h3.8v1.7h-6.7c.1-.3.3-.5.4-.8h2.5v-.8Z"/><path fill="#0c0a0a" d="M280.8 295.8q.9.2 1.7.4c-.4.3-.8.5-1.2.8q-.2 1-.1 2.1v7c-.9-1.3-.9-1.7-.9-3.3V299.2q0-3 .5-3.5Z"/><path fill="#0d0b08" d="M260.2 295.4h5.7c1.2 0 2.4.1 3.7.2q-.8.8-1.8.9H260.6q-.5 0-1.3.5c-.2 1-.3 1.9-.4 2.9h-.4v-2.8c.1-1.4.6-1.7 2-1.8Z"/><path fill="#d2d6b8" d="M192.1 407.5h10.4v.4h-.7c-1.1 0-2.2 0-3.3.1h-3.3c-1.1.2-1.5.5-2.2 1.4q-.3 1.5-.4 2.9h-.4v-5Z"/><path fill="#f3d14a" d="M271.2 62.5h.8c0 .7.2 1.3.2 2 0 .4 0 .7.1 1.1 0 1 0 1.7-.4 2.7v2.9q0 .8-.9 1.7V62.5Z"/><path fill="#f8c840" d="M227.5 72.1c.1.4.3.8.4 1.2q-.3.3-.6.7c-.9 1.3-.7 2.2-.7 3.7 0 1.6-.2 3.2-.4 4.8h-.4v-9.2h1.2c.1-.4.3-.8.4-1.2Z"/><path fill="#e7e2c6" d="M335.4 290v5h-1.7c0-.3.1-.6.2-.9.2-1.3.2-2.4.2-3.7q.8-.4 1.2-.4Z"/><path fill="#e0dbc0" d="M170.4 129.6q.8.8.9 1.6v.9q0 1.3.4 2.5c-.1.8-.2 1.6-.4 2.3 0 .4-.2.8-.2 1.3 0 .3-.1.6-.2 1h-.4v-9.6Z"/><path fill="#ac6f45" d="M292.9 66.7h.8c.5 2.7.4 4.3-.8 6.7h-.4l.4-6.7Z"/><path fill="#b97919" d="M237.9 96.2h7.9v.4c-.7.1-1.3.3-2 .4q-.5.1-1.1.2c-1.1.2-2.1.2-3.2.2v-.8l-1.7-.4Z"/><path fill="#d2c08e" d="m292.5 318.8-1.2 1.2-.4-.4c-.7 0-1.4-.1-2-.1h-3.8c-1.1 0-2.2 0-3.2-.1v-.4c1.6 0 3.3-.2 4.9-.2h4.1q.6 0 1.8.4Z"/><path fill="#a0a187" d="M176.2 285.4h3.8v1.2h-3.8v-1.2Z"/><path fill="#c1761d" d="M248.3 90.4c.4.1.8.3 1.2.4v.8l-.8.4v2.8q0 .9-.9 1.7c-.4-.1-.8-.3-1.2-.4.3-.1.5-.3.8-.4q.2-1.2.2-2.5t.6-2.9Z"/><path fill="#9ea081" d="M177.9 460h2.1v2.1h-2.1V460Z"/><path fill="#a2a98a" d="M314.6 174.2h5v.4c-.3 0-.6 0-.9.1-.4 0-.8.1-1.1.2-.4 0-.8.1-1.1.2q-1.1.3-1.5 1.2c0 .3-.2.5-.3.8v-2.9Z"/><path fill="#deddbe" d="M115.8 160c.1.4.3.8.4 1.2h6.7v.4H115l.8-1.7Z"/><path fill="#e4d59e" d="m247.1 341.2 1.7.8-.8.8q-.1 1 0 2.1v2c-.3-.1-.5-.3-.8-.4v-5.4Z"/><path fill="#9f9f89" d="M171.2 285.4h3.3l-.8 1.2q-.4.6-2.5 0v-1.2Z"/><path fill="#e7e8c0" d="M162.9 108.3h4.2c-.3.6-.5 1.1-.8 1.7v-.8H163v-.8Z"/><path fill="#914f16" d="M222.9 95.8h2.1q.4.4.4 1.5v1c-.1-.6-.3-1.1-.4-1.7q-1.4.3-2.1 1.7v-2.5Z"/><path fill="#dbdcc0" d="M192.1 407.9h2.1q-.3.3-.6.7c-.8 1.3-.9 2.4-1.1 3.9h-.4v-4.6Z"/><path fill="#e7e4c4" d="M167.5 126.6h1.2v.8c-.8.3-1.7.5-2.5.8-.1-.4-.3-.8-.4-1.2q.4-.4 1.7-.4Z"/><path fill="#fec547" d="M237.1 93.3h1.7c.1.6.3 1.1.4 1.7h-2.1v-1.7Z"/></g></svg>