<svg xmlns="http://www.w3.org/2000/svg" viewBox="0 0 1000 1000"><defs><clipPath id="a"><circle cx="499.5" cy="499.5" r="500" fill="none"/></clipPath></defs><circle cx="499.5" cy="499.5" r="500" fill="#fcee21"/><g clip-path="url(#a)"><path fill="#64d429" d="m911.8 684.6-.2-1.1c-5.4-26.2-10.6-51-42.5-55h-10.3c-53.2 0-163.8 0-170.9 51.4 0 7 1.4 13.6 2.7 20 2.4 11.3 4.7 22-1.5 33.3-3.7 9.5-7.6 19.4 1 47.8.9 4.2 3.5 6.7 6.9 9.9 3.5 3 7.8 8.3 8.2 13.7.2 2.6-.6 4.9-2.4 6.8-17.6 10.2-38 5.7-57.7 1.4-7-1.5-13.6-3-20.1-3.8-12-.7-21-4.8-25.2-11.4-3.7-5.7-3.7-13.3-.2-22 6.3-19.7 8.4-42.4 5.9-65.6-2.3-22.9-9.2-45.9-19.9-66.6-46.5-64.8-14.6-109.2 19.2-156.2 17.7-24.7 36-50.2 44.4-80 3.1-13.2 3.5-26.8 3.7-40 .2-8.4.4-17.1 1.3-25.6 3.6-19.4 10.9-38.1 17.5-53.9 4.7-12.9 12.3-25.6 19.6-37.8 9.9-16.5 20.1-33.5 23.2-51.1 7-34.1-2.3-67.1-25.7-90.6-24.2-24.3-60.3-34.8-96.6-28.1-7.5.6-13.9 2.3-20.5 4.1-5 1.3-10.2 2.7-15.9 3.6-7.7.5-83.4 7.7-91.9 7.2-7.7-1.8-15.3-4.1-22.8-6.3-21.1-6.3-43-12.8-65.4-9.2-38.9 4-72.2 29.7-82.8 64.1-1.4 3.3-2.7 6.7-4.1 10.1-6 14.8-12.2 30.1-19.1 44.6-4.8 7.8-12.3 13.3-19.5 18.6-4.1 3-8.3 6.1-12 9.5-3.3 2.4-6.7 4.7-10 7-15.3 10.4-31 21.2-41.8 37.1-14.3 17.2-29.7 33.6-44.6 49.4-29.6 31.4-60.2 64-82.4 103.5-7.1 11.8-14.8 23.8-22.3 35.4-26.3 40.8-56 100.7-20.5 236.8 3.9 15.1 25.3 55.4 31 59s13.4 8.4 20 12.5c17.6 10.9 35.8 22.2 52.3 34.7 5.9 7.5 11.6 15.4 17.2 23 10.4 14.2 21.2 28.8 33.4 42.8 27.6 37.9 67 66.2 105.2 93.5 7.1 5.1 14.4 10.3 21.4 15.4 9.7 9.9 203.1 59.5 214.4 45.4 3.3-4.2 16-1 23.9-2.9 12.1-2.8 24.3-4.2 36.2-5.5 9-1 18.3-2 27.6-3.7 93.9-18 140.5-35.5 214.9-97.7 10.5-6.8 21.5-13.2 32.2-19.4 16.2-9.3 32.9-19 48-30.4l.2-.2c21.5-29.8 20.5-168.3 17.7-177.6Z"/><path fill="#3e8d0b" d="M31.1 469C4.7 509.7-8.7 556.1-1.5 604.5c5.7 38.4 24.2 73.6 44.4 106.2s20.6 32 29.9 48.5 29.7 1.4 21.8-12.7c-16.4-29.2-36.3-56.3-51.3-86.4s-26-69.1-20.2-105.5 15.3-50.6 29.8-72.9c8.8-13.7-13-26.3-21.8-12.7ZM136.8 686.5c-25.1 36.2-37 81.8-20.1 124 9.8 24.4 25.9 44.4 45.3 61.9 32.7 29.6 68.7 54.1 106.1 77.5 25.9 16.2 55.6 27.6 83.7 39 36.2 14.7 74.9 30.6 114.2 33.8 9.9.8 19.3-9.3 18.9-18.9-.5-10.9-8.3-18-18.9-18.9-1.3-.1-2.6-.3-4-.4-3.8-.4 3.9.7 1.3.2s-1.5-.2-2.2-.3c-3.5-.6-7.1-1.3-10.6-2.1-7.8-1.8-15.6-3.9-23.2-6.2-17.1-5.1-33.9-11.2-50.5-17.7-8.7-3.4-17.4-6.9-26-10.5s2.8 1.2.2 0-1.9-.8-2.8-1.2l-6.3-2.7c-4-1.8-8-3.5-12-5.3-12-5.4-24-11-35.5-17.3-15.2-8.3-29.6-18.6-44.1-28.1-8.4-5.5-16.7-11-24.8-16.9l-5.7-4.2c-3-2.2-1.1-.8-.5-.4-1-.8-1.9-1.5-2.9-2.3-4.6-3.6-9.1-7.4-13.5-11.2-8.4-7.2-16.8-14.7-24.6-22.5-3.8-3.9-7.4-7.9-10.9-12.1s1.3 2-.4-.5-1.8-2.4-2.7-3.7c-2-2.9-4-5.9-5.8-9s-4-7.4-5.7-11.2-1.2-3.3.4.9c-.4-1.2-1-2.4-1.4-3.7-.7-1.9-1.3-3.8-1.9-5.7-1.3-4.2-2.2-8.5-2.9-12.9s0 .2 0 .8c-.1-1.5-.3-2.9-.4-4.4-.2-2.5-.2-5-.2-7.5 0-2.6.2-5.2.4-7.8s.2-2.1.3-3.2c-.3 2.8-.2 1.2.2-.6 1-5.4 2.3-10.8 4.1-16s.8-2.3 1.2-3.5 2.2-5.4.9-2.6c1.3-3.1 2.8-6.1 4.4-9.1 3.4-6.5 7.3-12.8 11.5-18.8s1.5-21-6.8-25.9c-9.4-5.5-20-1.6-25.9 6.8ZM392.6 803.7c2.1-8 3.3-16.7 2.5-25s-3.9-12.4-7.3-18.6c-8.1-14.6-16.9-29.1-30.7-39-4.9-3.6-9.7 4.6-4.8 8.2 11.9 8.6 19.5 21.7 26.5 34.3s6.1 9.6 6.8 15.2-.2 15.3-2.1 22.5 7.6 8.4 9.1 2.5Z"/><path fill="#3e8d0b" d="M133.2 348.6c-22.6 23.3-41.1 50.6-57.9 78.2-16.9 27.8-32.2 56.6-46.6 85.7-7.7 15.8-12.5 31.5-15 49-2.4 17.3-3.1 34.5-1.5 51.9 2.8 31 10.8 60.9 22 89.8 5 12.9 10.6 25.7 16.2 38.4 1.1 2.4 2.1 4.8 3.2 7.2s1.2 2.1 1.2 2.8c-1.3-3-1.5-3.7-.8-1.9.2.5.5 1.1.7 1.7 1.2 3 2.4 6.1 3.1 9.2 2.2 10 13.8 15.8 23.3 13.2 10.3-2.8 15.4-13.3 13.2-23.3s-5.3-14.8-8.4-21.8c-1.7-4-3.5-7.9-5.2-11.9s-2.2-4.9-3.2-7.3-1.1-2.6-1.7-3.9c-1.5-3.4 1.2 3-.7-1.6-10.5-25.8-19.4-52.4-23.7-80l-.6-3.9c.5 3.7-.3-2.7-.3-2.8-.4-4-.8-7.9-1-11.9-.5-8.1-.5-16.3 0-24.4s1-12.3 2.4-19.9 1.8-8.4 2.9-12.6 1.3-4.2 1.8-6.3c.9-2.4 1-2.8.2-1.2.5-1 1-2 1.5-3.1 13.4-27.6 27.6-54.9 43.2-81.3 9-15.3 18.5-30.4 28.7-44.9s5.3-7.4 8.1-11.1c0 0 3.8-5 1.7-2.2 1.2-1.5 2.3-2.9 3.5-4.4 5.2-6.4 10.7-12.7 16.4-18.6s7.3-19.4 0-26.7c-7.2-7.2-19.6-7.4-26.7 0ZM193.7 514.5c3.1 14.4 2.2 29.3 4.3 43.8 1 6.9 2.7 14 6 20.2 2.6 4.9 6.1 9.2 9.7 13.4 3.9 4.7 8.1 9.1 11.8 14s13.2-.5 10.1-4.6c-6.6-8.8-14.9-16.3-20.5-25.7s-.5-.9-.7-1.3c-.6-1 .2.3-.1-.3s-.2-.5-.4-.8c-.7-1.6-1.3-3.3-1.9-5-1.1-3.4-1.9-7-2.6-10.6-1.2-7-1.6-14.2-1.9-21.3s-1-16.6-2.7-24.8-4.5-2.5-6.4-1.9-5.1 2.2-4.6 4.9Z"/><path fill="#3e8d0b" d="M146.9 331.1c-17.3 4.6-29.9 24.2-39.4 37.8s-24.7 39.3-33.9 60.5c-10.2 23.4-19.4 48.3-19.8 74.2-.2 12.4 2.3 24.4 7.8 35.4.8 1.6 1.8 3.5 3 4.9s3.5-27.8 4-28.3c-.7.7-2.2 1.8 1.8-1.3 5.4-4.2-3.4.9 2.5-1.6 5.1-2.1-1.5.4-2.9.9-2.6.8-5.2 1.6-7.9 2.3-15.4 4.5-34.2 9.4-39.2 26.9-1.6 5.7-1.6 12.6-1.9 18.6-.3 5.2-.4 10.5 0 15.7 1 13.4 4 26.3 11 37.9s22.9 16.5 34.5 9c11.3-7.3 16.4-22.4 9-34.5-1.1-1.8-2.1-3.5-2.9-5.4 2.5 5.5.1-.5-.2-1.6-.5-1.8-1.2-4.1-1.3-6 0 6.5.1-.4 0-1.5-.2-4.2-.1-8.4 0-12.6s.3-4.2.4-6.3c.1-1.4.2-2.8.4-4.2-.4 5.6-2.5 10.3-6.3 14.2 2.3-2.4-6 4.5-3 2.4s1.7-.6 2.2-1.1c-3.1 3.1-5.9 2.2-2.4 1.1 1-.3 2.1-.7 3.1-1.1 4.9-1.6 10-3 15-4.4 15.1-4.6 31.6-12.1 31.5-30.8 0-7.6-3.9-13.1-7.4-19.4s2.2 6.6 1.2 2.7-.6-1.8-.8-2.7-.5-1.8-.7-2.8c-.6-2.9.4-5.9.1 1.9.1-4.2-.5-8.4-.2-12.7s.2-2.2.3-3.4c.2-2.8 1.9-4.2-.3 2.1.9-2.5.9-5.6 1.5-8.3 2.3-10.7 5.8-21.1 9.8-31.3s1-2.6 1.5-3.8c1.9-4.8-2.5 5.7-.4.9 1.1-2.5 2.3-5.1 3.4-7.6 2.5-5.4 5.2-10.8 8-16.1 5.1-9.6 10.6-19.1 16.5-28.2s5.9-8.9 9.1-13.2 1.2-1.7 1.9-2.5c3.5-4.8-3.4 4.3-.9 1.2s2.6-3.3 4-4.9c2.2-2.6 4.6-4.9 6.9-7.3 3.8-3.8-6.1 3.9-1.9 1.4s-6.6 2.2-3.5 1.3c12.8-3.4 21.8-18.2 17.6-31-4.2-13.1-17.3-21.2-31-17.6Z"/><path fill="#3e8d0b" d="M271.1 202.7c.4.7.8 1.3 1.1 2-.2-.4-1-2.2-.2 0s.4 2.4.1-.4v1.5c0 .3-.2 2.6 0 .7s-.2.3-.2.7c-.6 2.6.8-.7-.6 1.7s-1.5 2.5-2.3 3.7 0-.1.2-.3c-.5.6-1 1.2-1.6 1.8-2.3 2.4-4.8 4.7-7.4 6.9-8.8 7.1-22.8 14.6-34 21.3-12.3 7.2-21.8 16.2-29.3 28.5-8.9 14.6-14.4 31.1-20 47.1-2.8 8-5.4 15.6-8.7 22.4s-3.4 6.7-5.6 9.8-1.2 1.6-.4.6-.9 1.1-1.1 1.3l-1.5 1.5c-1.9 1.9 1.7-1-.6.6-5.6 3.9-8.2 11-4.5 17.2s11.6 8.5 17.2 4.5c13.4-9.4 19.7-24.7 25.3-39.5s10.8-32.8 19-48 8.3-12.8 14.3-18.7-2.4 1.5.5-.3 2-1.4 3.1-2c2.7-1.7 5.4-3.2 8.1-4.8 13.5-7.8 27.3-15.5 39-26s21.5-29.3 11.8-46.3c-8-14.1-29.8-1.4-21.8 12.7ZM143.7 372.3c-20.6 16-38.9 33-55.9 53-14.8 17.4-28.1 35.9-41.3 54.6S33.1 499.3 28.1 510c-4.8 10.2-8.5 20.9-12.1 31.6s7.2 8.2 9.1 2.5c3.9-11.4 7.8-22.8 13.2-33.6s11.3-18.9 17.7-27.8c13.2-18.6 26.5-37 41.4-54.2S131 394 150.3 379c4.8-3.7-1.9-10.4-6.7-6.7ZM189.2 488.4c-44.6 6.1-86.6 33.1-108.2 73-13.3 24.5-21.1 54-16.7 81.9 3.3 20.7 16.3 38.1 34.1 48.7 15.9 9.5 34.2 13.5 52.1 17.4 9.6 2.1 20.9-2.9 23.3-13.2s-2.9-21-13.2-23.3c-6.6-1.5-13.3-2.8-19.9-4.6s-6.4-1.8-9.5-2.8-3.2-1.1-4.7-1.7-2.3-.6-2.6-1c.7 1.1 3.7 1.7.4.1-3-1.5-5.9-3-8.7-4.8s-1.5-1-2.3-1.5c-2-1.3-2.2-.2.7.6-1.4-.4-3.1-2.7-4.1-3.7s-3.2-2.7-3.7-4.1c1.2 3.1 1.7 2.6.9 1.1s-1.3-1.9-1.9-2.9-1.4-2.8-2.2-4.2c2.2 4.1.7 2 .3.6s-.9-2.8-1.3-4.2-.7-3.5-1.1-5.2c1.1 5.3-.1-2-.2-3.6 0-2.6 0-5.3.1-7.9s.2-2.2.3-3.4c.4-5.6-.8 3.7.3-2.1s2.3-11.5 4-17.2 1.9-6 3-9 .9-2.3 1.4-3.4c-1.3 3.2 1.1-2.3 1.4-2.9 2.4-4.9 5.1-9.7 8.1-14.2s2.5-3.6 3.8-5.4c-2.5 3.4.8-.9 1.1-1.3 1-1.2 2.1-2.4 3.2-3.6 3.2-3.5 6.5-6.7 10.1-9.8s2.1-1.6 2.9-2.5c2.1-2.1-3.5 2.5.4-.3 2-1.5 4-2.9 6.1-4.3 4.5-2.9 9.1-5.6 13.9-7.9s1.7-.8 2.6-1.2c.9-.4 1.7-.8 2.6-1.2-2.2.9-2.6 1.1-1.3.5 2.4-.9 4.7-1.9 7.1-2.7 8.9-3.1 18.1-5.3 27.4-6.5 10.1-1.4 15.7-14.4 13.2-23.3s-13.1-14.6-23.3-13.2ZM772.5 853c-20.5 12.4-41.1 23.5-63.8 31.2-16.4 5.5-33.5 10.6-50.6 13.2-16.6 2.6-33.6 2.4-50.2 5.8-39.9 8.2-68.7 39.4-105.3 55.2-28.9 12.5-60.5 14.9-91.6 12.8-8.1-.6-8.1 12 0 12.6 29 2 58.7 0 86.3-9.8 20-7.2 37.9-18.2 55.5-30s31.8-21.2 50.3-26.6c16.1-4.7 32.9-4.8 49.5-6.6 18.3-2 36.5-6.8 53.9-12.5 25.8-8.5 49.2-20.2 72.5-34.3 6.9-4.2.6-15.1-6.4-10.9Z"/><path fill="#88ed51" d="M413.4 345c27.8-16.4 54.5-34.7 80.4-53.9 22.3-16.5 44.1-33.6 66.3-50.2s19.6-14.4 29.7-21.1 9.4-6.1 14.2-9c2.3-1.4 4.6-2.7 7-4s2.2-1.2 3.4-1.9 1.1-.6 1.6-.9c-4 2.1-2.6 1.4-1.7.9s.7-.4 1.1-.6c7.6-3.9 15.5-7.2 23.2-10.9s19.9-9.7 29.3-15.6c9.4-5.9 18.4-12.9 25.1-21.9 5.5-7.4 8.5-16.7 6-25.8s-1.4-4.1-2.5-6c-.3-1.1-.9-1.8-1.8-2.3-.9-.8-2-1.3-3.2-1.5-2.9-.7-6.7-.4-9.6.4s-6.3 2.1-8.5 4.4-3.5 3.9-2.4 5.9c1.9 3.6 3.2 7.5 3.3 11.5v-1.9c0 3.3-.7 6.5-2 9.5l.8-2c-1.4 3.3-3.4 6.3-5.7 9l1.6-1.9c-2.6 3-5.5 5.8-8.6 8.3s-.9.7-1.3 1.1-.4.3-.5.4c3.1-2.4 2.1-1.6 1.5-1.1s-1.9 1.4-2.8 2.1c-1.8 1.3-3.6 2.5-5.5 3.7-3.8 2.4-7.7 4.6-11.6 6.7s-.5.3-.8.4c-.8.4-2 1 1.9-1-.4.2-.9.4-1.3.7-1.1.5-2.1 1.1-3.2 1.6-1.9 1-3.9 1.9-5.8 2.8-6.6 3.2-13.3 6.1-19.9 9.2-8.9 4.2-17.5 9-25.9 14.1-17.8 10.9-34.5 23.3-51.1 35.8-19.5 14.8-38.8 29.8-58.5 44.3s-45.2 32.2-68.9 46.6c-3.1 1.9-6.1 3.7-9.2 5.5s-4.4 3.4-4.8 5.7.8 4 2.7 4.9c5.6 2.8 13.1.8 18.1-2.2Z"/><path fill="#3e8d0b" d="M695 737.6c-6 13.4-3.9 29.5.6 43.2 5.1 15.3 29.5 8.7 24.3-6.7-1.4-4.2-2.6-8.4-3.1-12.8s-1.3-8.2-.1-11c2.8-6.2 1.8-13.5-4.5-17.2-5.4-3.1-14.5-1.7-17.2 4.5ZM598.9 295.6c1.2 12.6 1.5 25.2.8 37.8-.2 3-.4 5.9-.7 8.9s-1.4 9.8-.5 4.3c-1.1 6.6-2.2 13.2-3.8 19.7s-3 11.5-4.8 17.2-1.9 5.6-2.9 8.4-1 2.8-1.6 4.2-2.9 7.3-.8 2.2c-2.2 5.4-4.8 10.7-7.5 15.8-1.3 2.4-2.6 4.9-4.1 7.2s-1.5 2.3-2.2 3.5c-3.4 5.5 3.3-3.3-1 1.5s-3.8 4-5.8 5.9-3.7 2.3.3-.2c-1.1.7-2.2 1.5-3.4 2.2-2.3 1.4-4.8 2.5-7.1 3.8 4.2-2.4 1.7-.7.4-.2-1.9.7-3.9 1.4-5.8 2-5.3 1.6-10.7 2.8-16.1 3.8s-5.4.9-8.2 1.4-2.9.4-4.4.6c5.2-.8-2.5.3-2.9.4-26.7 3.3-53.7 4.5-80.6 3.8-15.3-.4-30.5-1.5-45.7-3.2s-3.2-.4-4.8-.6-5.4-.7-1.7-.2c-4-.5-8-1.1-11.9-1.8-7.9-1.3-15.8-2.7-23.7-4.3 2 15.4 4 30.7 6 46.1 2.3-1.6 4.6-3.1 7-4.4s8.5-3.9 3.3-1.9c5.1-2 10.4-3.7 15.8-5.1 10.6-2.7 21.3-4.4 32-6.5 21.6-4.2 42.1-11.1 62.3-19.7 38.1-16.4 73.2-41.2 101.5-71.6 16.6-17.8 31.2-37.7 42.9-59-15.7-4.2-31.3-8.5-47-12.7 0 4.1-.1 8.3-.4 12.4s-.4 4.7-.6 7l-.2 1.7c-.3 2.8-.3 2.3.2-1.5.5 3.4-1.4 8.7-2.1 12-.8 3.9-1.8 7.8-2.9 11.7s-2.2 7.1-3.4 10.6-1.1 4.8-2.1 5.5c1.5-3.4 1.7-3.9.6-1.4l-.7 1.5c-3.2 7-7 13.8-11.3 20.3-.9 1.4-1.9 2.7-2.8 4-1.6 2.2-1.3 1.8 1-1.2-.7.9-1.4 1.7-2 2.5-2.2 2.7-4.6 5.3-7.1 7.8s-5 4.9-7.7 7.1c-.8.7-1.7 1.4-2.5 2 3-2.3 3.4-2.6 1.2-1-1.3.9-2.6 1.9-4 2.8-3.2 2.1-6.5 4-9.9 5.8s-3.5 1.6-5.2 2.5c-1.7.8-1 .5 2.2-.9-1 .4-2.1.8-3.1 1.2-7.6 2.8-15.5 4.7-23.6 5.9-13.1 1.9-21.4 19.2-17.6 31s17 19.7 31 17.6c38.4-5.7 70.9-28.8 92.7-60.3 21.3-30.8 30.6-69.6 30.7-106.7s-34.8-34.8-47-12.7c-4.8 8.6-9.9 17-15.6 25s-2.6 3.6-3.9 5.4-1.5 2.1-2.3 3c.5-.6 3.3-4.1.4-.6s-6.4 7.9-9.8 11.7c-6.4 7.1-13.1 13.9-20.1 20.3-3.5 3.2-7.1 6.4-10.8 9.4s-3.4 3.4-5.2 4.2c3.8-1.7 2.1-1.6.6-.4s-2.6 1.9-3.8 2.8c-16 11.6-33.2 21.6-51.3 29.7s-6.4 3.3-1.9.9c-2.2 1.2-4.8 1.9-7.1 2.8-4.8 1.8-9.6 3.5-14.5 5-9.2 2.9-18.6 5.3-28 7.2-25.2 5.1-51.4 8.5-73.2 23.5-8.5 5.9-13.5 14.5-12 25.1s8.3 19 18.1 21c59.3 12.1 120.4 15.4 180.5 8.2s60.5-7.9 84-28.8 17.9-21.7 23.9-34c6.6-13.6 12.3-27.8 16.6-42.4 9-30.9 12.3-63.9 9.1-96-1.3-13.1-10.7-25.9-25.2-25.2s-26.6 11.2-25.2 25.2ZM309.4 979.5c32.2 9.1 65.2 15.9 98.2 21.7 45.8 7.9 92.7 14.1 139.3 12.3 15.4-.6 30.8-2.1 45.8-5.8 13.3-3.2 26.4-7.2 39.4-11.2 33.9-10.4 67.5-21.9 100.9-33.8 15.3-5.5 30.5-11 45.6-17s18.9-6.5 26.4-12.5 4.4-13.4 0-17.8c-5.3-5.3-12.5-4.3-17.8 0 4.3-3.5 1.8-1.3.4-.7s-2.7 1.3-4 1.9-1.8.8-2.7 1.2c-1.7.8 2.8-1.2 0 0s-4.8 2-7.3 2.9c-12.8 5.1-25.7 9.8-38.7 14.5-32.6 11.8-65.3 23-98.3 33.4-24.7 7.8-50.7 16.6-75.7 18.7-44.1 3.7-89.1-1.3-132.7-8.2-37.7-6-75.4-13.6-112.2-24-15.6-4.4-22.3 19.9-6.7 24.3Z"/><path fill="#3e8d0b" d="M233.1 748.9c21.3 19.3 45.9 39 60.1 64.5 8.3 15 15 31.1 20.8 47.2 7 19.6 10.8 39.7 20.8 58.2 11.3 20.9 27.5 38.5 47.1 51.8 6.7 4.6 13-6.3 6.4-10.9-17.6-12-31.9-27.8-42.1-46.5s-13.6-38.7-20.7-58.2-20.2-51.1-38.4-71.7c-13.8-15.6-29.5-29.5-44.9-43.5s-14.9 3.5-8.9 8.9ZM212.8 376.5c-4 24.7-5.8 53.3 10 74.6 14.3 19.3 37.5 27.7 60.1 33 16.3 3.8 32.8 6.3 49.3 8.8s13.5-1.7 15.5-8.8-2-14.5-8.8-15.5c-24.5-3.7-49.8-6.9-73.1-15.9-2.2-.9.8.4-1.3-.6s-2.1-1-3.1-1.5c-2.1-1.1-4.2-2.2-6.3-3.5s-2.1-1.3-3.1-2-2.5-1.9-.8-.5c-1.7-1.4-3.4-2.9-4.9-4.5s-1.4-1.5-2-2.2c-1.6-1.8-.2-.1-.5-.6-1.2-1.8-2.4-3.7-3.5-5.7s-.9-1.9-1.4-2.8c.9 2 0-.1-.3-1-.8-2.3-1.5-4.7-2-7.1s-.6-2.7-.8-4.1c.3 2.1-.2-1.6-.2-2.3-.3-3.2-.4-6.4-.4-9.5 0-7.2.8-14.3 1.9-21.4s-1.7-13.6-8.8-15.5-14.4 2-15.5 8.8ZM151 334.2c-.1.5-1 3.1-.2.9s-.2.3-.4.8c-1 1.7-1.9 3.4-3 5s-1.3 1.8-1.9 2.7c1.3-1.8.1-.1-.5.6-1.7 2-3.3 4-5.1 5.9-8.1 9.1-17 17.5-25.9 25.8-19.3 18.1-39.6 35.5-57.3 55.2-8.1 9-15.8 18.5-20.1 29.9s2.7 13.8 8.8 15.5 13-2.4 15.5-8.8-1.4 2.4.2-.3.8-1.6 1.2-2.3c1.1-2 2.4-3.9 3.7-5.7s1.5-2 2.2-3c-1.3 1.7.4-.4.8-1 1.8-2.2 3.7-4.4 5.6-6.5 8.5-9.5 17.7-18.4 27-27.1 18.8-17.7 38.8-34.6 56.1-53.9 7.1-7.9 14.7-16.6 17.7-27 4.5-15.6-19.8-22.3-24.3-6.7Z"/><path fill="#88ed51" d="M348.7 508.3c.9.2 1.7.5 2.5.7l-3-.9c18.4 5.3 36.1 12.9 52.8 22.4s8.9 5.2 13.2 8l-2.1-1.4c15.5 10 30 21.6 43.4 34.2s22.4 22.6 32.4 34.8c6.3 7.7 12.3 15.7 17.5 24.2l-1.1-1.9c10.7 17.9 17.8 37.8 20 58.6.6 6.1.9 12.1.8 18.2V703c-.2 11.7-1.9 23.4-4.6 34.8-.6 2.6 1 4.4 3.2 5.5s7.6 1.4 10.8.9 8.8-1.8 12.5-4.2 5.6-3.6 6.3-6.6c5.5-23.1 6.5-47.6 1.3-70.8-5-22.3-15.7-42.9-29.6-60.9-10.5-13.6-22-26.6-34.3-38.6s-30.6-27.3-47.8-38.5-40.5-23.2-62.8-30.2c-3.7-1.2-7.4-2.2-11.1-3.3s-8.8 0-12.2.9-8.2 2.7-11 5.4-4.3 4.1-3.4 6.7 3.7 3.4 6.3 4.1Z"/><path fill="#88ed51" d="M533.9 605.1c5.9 7.8 10.8 16.4 15.4 24.9s3.8 7.2 5.5 10.8l-.8-1.6c9.3 19 16.8 39.2 20.8 60 1.2 6.1 2 12.2 2.4 18.4v-1.8c.4 7.3.3 14.6-.5 21.8s-1 7.1-1.9 10.6-.4 1.7-.6 2.5-.2.9-.4 1.3c-.3 1.1.5-1.5 0 0s-1.1 3.4-1.7 5.1c-1.5 3.9-3.3 7.6-5.3 11.2-2.2 3.9 2 7.4 5.6 7.7s9.5-1.5 11.9-5.6c14.1-24.6 13.7-54.5 7.7-81.4-5.5-24.9-15.7-48.8-28.1-70.9-4-7.2-8.3-14.5-13.3-21.1s-8.8-3.3-12.4-1.4-7.2 5.7-4.3 9.4Z"/><path fill="#3e8d0b" d="M587.1 127.5c9.9.6 20 1.6 28.8-3.7s.6-15.1-6.4-10.9-15.1 2.5-22.5 2-8.1 12.1 0 12.6Z"/><path fill="#88ed51" d="M227.4 504c8 1.6 15.9 3.9 23.6 6.7l-2-.7c21.6 7.9 41.5 20.2 58.1 36.1 4.7 4.5 9.1 9.2 13.2 14.2l-.9-1.1c13.5 16.6 26 36.2 29 57.8.8 6 .8 12-.2 18l.2-1.5c-1.9 11.4-7.2 21.8-14.6 30.7l1.3-1.6c-2.3 2.8-4.8 5.4-7.4 7.8s-2.4 2.8-.7 4.2 6.4 1.1 8.3.9c4.3-.4 8.7-1.4 12.8-2.9s6.7-2.5 9.2-4.9c6.8-6.5 13-13.9 17.3-22.2s5.8-14.5 6.6-22.3c1.6-14.2-2.3-28.4-8.5-41.1s-15.6-26.1-25.5-37.4a166.84 166.84 0 0 0-38.8-32.2c-14.9-8.9-31.2-15.6-48-19.7s-4.1-.9-6.1-1.4c-3.3-.7-7.2-.2-10.4.4s-8.7 2-12.5 3.9l-3.1 1.7c-1.5.8-2.7 1.9-3.7 3.3l-.2 1.5c.6 1.1 1.6 1.8 2.9 1.9Z"/><path fill="#88ed51" d="M340.5 693c13.8.6 27.6 2.1 41.2 5l-3.8-.8c12.9 2.8 25.6 6.9 37.5 12.6l-3.2-1.5c10.6 5.1 20.6 11.6 29.3 19.6l-2.4-2.2c8.4 7.8 15.5 16.9 20.6 27.1l-1.4-2.7c4.9 10 7.8 20.8 8.5 31.9l-.2-3.1c.6 10.5-.7 21.1-3.9 31.1l1-3.1c-1.5 4.8-3.4 9.4-5.6 13.9s-1.3 6.3.6 8.9 6.1 4.2 9.3 4.5 9-.3 13-2.3 6.7-4.1 8.5-7.7c6-12.2 10-25.9 10.5-39.5s-1.6-27-6.9-39.3c-2.9-6.8-6.5-13.5-10.9-19.5-4.6-6.4-10.1-12-16-17.3-12.6-11.4-27.9-19.6-43.7-25.6-19.7-7.5-41-11.4-62-12.9-2.9-.2-5.7-.4-8.6-.5-4.5-.2-8.8.3-13 2.3-3.1 1.5-7.1 4.3-8.5 7.7s-1.6 6.3.6 8.9 5.8 4.4 9.3 4.5ZM436.7 885.6c3.8-2.8 7.5-5.8 11.1-8.8s4.4-3.7 6.6-5.6 1.8-1.5 2.7-2.3.9-.8 1.3-1.1 2.6-2.2.3-.2c7.9-6.6 15.9-13 24.6-18.6s4.5-2.7 6.7-4.1c-2.8 1.6-.6.3 0 0s1.2-.6 1.8-1c1.3-.7 2.7-1.4 4-2 2.6-1.3 5.2-2.4 7.9-3.5s2.7-1.1 4.1-1.5-2.5.9-.9.3.7-.2 1-.4c.8-.3 1.6-.5 2.3-.8 3.1-1 6.2-1.8 9.4-2.6s3.1-.7 4.7-1 3.7-.7.4 0c.9-.2 1.8-.3 2.7-.5 5.9-.9 11.9-1.5 17.9-1.7s-1.6 0-1.5 0h5.3c2 0 3.9.2 5.9.4 4.1.4 8.2 1 12.2 1.6s1 .2 1.5.3.5 0 .8.1c1.3.2-2-.4-1-.2s2.1.4 3.2.6c2.2.4 4.3.8 6.5 1.3 4.3.9 8.7 1.8 13 2.7 10 2.1 20.1 4 30.2 5.2 11.2 1.4 22.4 1.9 33.6 1.6 28.6-.8 56.7-8.3 82.9-19.6s7.5-3.3 11.1-5.1 3.8-2.2 4.8-4 .9-3.3-.2-4.5c-2.9-3.2-8.8-2.5-12.3-.9-7.5 3.6-15.1 6.9-22.9 9.9s-1.7.6-2.6 1-1.7.6.8-.3c-.5.2-1 .4-1.6.5l-5.4 1.8c-3.4 1.1-6.8 2.1-10.2 3-3.3.9-6.7 1.7-10.1 2.4s-3.1.6-4.7.9-.6.1-.9.2c3.1-.6 1.3-.2.6-.1s-1.7.3-2.5.4c-6 1-12.1 1.7-18.2 2-2.9.2-5.8.3-8.7.3h1.1-7.2c-5.4-.2-10.7-.5-16-1.1s-9.8-1.2-14.7-2-2.3-.4-3.5-.6c-2-.3 2 .4 0 0s-1.4-.2-2-.4c-2.3-.4-4.7-.9-7-1.4-17.1-3.4-34.4-8-51.9-8.4-26.3-.6-52.7 6.7-75.5 19.7-9.1 5.2-17.6 11.4-25.8 18.1s-8.4 7-12.6 10.5-1.8 1.5-2.7 2.3-2.3 1.9 0 0c-.5.4-1.1.9-1.6 1.3-1.8 1.5-3.7 3-5.5 4.5s-3.5 2.8-5.3 4.1-3 2.6-3.3 4.4.7 3.2 2.1 4c3.8 2.1 9.6 1.2 13-1.4ZM324.9 129.3c.8-.9 1.6-1.7 2.5-2.6s2.2-2 .2-.3 0 0 .4-.3c1.8-1.5 3.8-2.9 5.8-4.1s.6-.4.9-.5c-3.8 2.4-2.8 1.6-1.9 1.1s1.1-.6 1.7-.9c1.1-.6 2.2-1.1 3.3-1.6s2.3-1 3.4-1.5 1.1-.4 1.7-.6c1.4-.5-3.9 1.4-2.1.8s.7-.2 1-.4c2.5-.8 5-1.5 7.5-2.2s2.6-.6 3.9-.9 1.3-.2 1.9-.4c1.1-.2 2.7-.4-2.1.4.4 0 .8-.1 1.2-.2 5.7-.9 11.5-1.5 17.2-1.8s6.1-.2 9.1-.3 1.5 0 2.2 0h4.3c6.5.2 13 .5 19.5 1 13.5.9 26.9 2.4 40.4 3.7 26 2.7 52.5 5.7 78.7 3.7 12.3-1 24.4-3.3 35.9-8s4.5-1.8 6.8-2.7 1.1-.4 1.7-.6c2.4-.9-2.7 1-1 .4s2.4-.8 3.5-1.2c4.2-1.4 8.5-2.7 12.9-3.8s4-1 6-1.4 1.9-.4 2.8-.5c1.6-.3-3.8.6-1.6.3s1.1-.2 1.6-.3c3.6-.6 7.2-1 10.8-1.2s3.4-.2 5-.2h1.2-2.4 3.2c3 .1 6 .4 9 .9s2.8.5 4.2.7-3.3-.7-1.6-.3.6.1 1 .2c.7.2 1.4.3 2.1.5 2.5.7 5 1.4 7.4 2.3s2.3.9 3.5 1.4 1.1.5 1.6.7.5.2.8.4c1.8.8-1.2-.5-1.2-.6 0 0 5.6 2.9 6.1 3.2 3.7 2.1 7.3 4.5 10.8 7s5.3 4 7.8 6.2l-1.8-1.6c8.1 7.4 14.7 16.2 19.7 25.9l-1.1-2.1c4.9 9.8 8.1 20.5 8.8 31.5v-2.3c.2 7-.4 13.9-2.6 20.6l.8-2.3c-.9 2.8-2.1 5.6-3.6 8.2-.3.6-.7 1.2-1.1 1.8l-.6.9c-.6 1 1.6-2.3.7-1s-1.9 2.5-3 3.7c-1.6 1.8-2.8 4.5-2.2 6.9s3.1 4.2 5.3 4.9c6.1 1.8 13.8 0 18.1-4.8 12.4-13.7 15.7-32.2 13-50-2.8-18.1-12.1-35.7-24.7-48.8-10.3-10.6-22.9-19-36.5-24.7-15.4-6.5-32.8-8.2-49.3-6.5s-22.5 3.6-33.3 7.1-13.3 4.7-19.8 7.4c-.7.3-3.4 1.3-.5.2s0 0-.7.2c-1.5.5-3 .9-4.5 1.3s-3.1.8-4.7 1.1-4.7.8.8-.1c-.9.1-1.7.3-2.6.4-3.4.5-6.8.9-10.2 1.1s-7.4.4-11.1.5-1.8 0-2.8 0h-1.3 1.1c-1.6 0-3.9 0-5.9-.1-16.8-.5-33.5-2.2-50.2-3.9s-34.2-3.6-51.4-4.5c-16.4-.8-33.1-1.1-49.4 1.6s-31.7 7.2-44.4 17.2c-3 2.4-5.9 5-8.5 7.9s-2.8 4.5-2.2 6.9 3.1 4.2 5.3 4.9c6.1 1.8 13.8 0 18.1-4.8Z"/><path fill="#3e8d0b" d="M245.4 449.6c27.3 12.7 56 21.7 85.8 26 6.7 1 13.5-1.7 15.5-8.8s-2-14.5-8.8-15.5c-27.6-4-54.6-11.6-79.8-23.4s-13.6-1.7-17.2 4.5c-3.2 5.5-1.7 14.4 4.5 17.2Z"/><path fill="#88ed51" d="M768 649.5c24.6-2.3 49.8-6.7 74.6-4.7 9.6.7 18.3 3.3 26.8 7.9s2.6 1.3 4 3.7 2.6 4.9 3.5 7.5c6.3 16.8 9.2 35.2 11.6 52.9 3 21.7 4.6 43.6 5 65.4.3 18.7.8 39-4.7 57.1-2.4 7.8 9.8 11.1 12.2 3.4 5.3-17.1 5.3-36.2 5.3-54s-1.8-46.3-4.7-69.2-5.4-39.6-12.1-58.1c-2-5.6-4.4-12-8.8-16.2-5.9-5.7-17.4-9.8-25.2-11.4-28.4-5.7-59.1.6-87.5 3.2s-8.1 13.3 0 12.6Z"/><path fill="#88ed51" d="M710.5 682.4c3.3-4.3 8.6-9.7 12.8-11.3-1 .4 1.8-.4 2.1-.5-2.6.5.5 0 1.2 0 3.3 0-2.3-.7.9 0s2 .6 3 .9c2.3.7-1-.5.3.1s1.8.9 2.7 1.4c1.6.9 3.1 1.8 4.6 2.8 4.2 2.6 8.5 4.7 12.9 7 13.6 7.1 27 13.8 42.7 14.4 12.1.5 27.4-.7 36.4-9.8s-6.4-29.4-17.8-17.8c-1.6 1.6 1.2-.3-1 .7 1.9-.8-2.1.6-2.1.6-2.8.8-4.8 1-7.5 1.1s-5.8.2-8.7 0-4-.3-3.2-.2c1.3.2-1.6-.3-1.8-.4-12.8-3-25.5-10.2-36.7-17.1-8-5-16.6-9.4-26.3-8.8-15.9.9-27 12.3-36.2 24.2-4.2 5.4-.8 14.1 4.5 17.2s13.1.9 17.2-4.5Z"/><path fill="#3e8d0b" d="M317.3 247.5c3.9 6 10.4 8.4 16.6 11.7s8.6 4.3 13.1 6.1c10.3 4.1 21.3 6.7 32.4 7.1 33.7 1.4 62.5-18.1 83.6-42.8 5.2-6.1-3.6-15.1-8.9-8.9-18.8 21.9-43.4 39.9-73.4 39.1-9.7-.2-19.3-2.5-28.4-5.9s-6.8-2.9-10.1-4.6-11.6-4.4-14-8.2c-4.4-6.8-15.3-.5-10.9 6.4Z"/><ellipse cx="386.6" cy="166.8" fill="#fcee21" rx="61.9" ry="55.2"/><ellipse cx="276.9" cy="318.6" fill="#bdf8b1" rx="45.8" ry="45.2"/><g fill="#1b1d1e"><path d="M914 683.2c-3.1-9.7-4.1-21.1-7.8-30.9-5.5-13.7-22.1-26.6-38.4-27.7-19.6-.5-39.5-.5-59 1.2-41.9 2.3-117.7 5.5-126 52.8 0 .3 0 .6-.1.9-.9 10 2.5 17.7 4.4 26.6 5.5 29.6-17.2 25.3-2 75.7 1.5 6.4 6.1 9.5 10.7 14.3 3.1 3.4 6 9.1 2.7 12.7-2 2.2-5.3 2.9-8.8 3.3-4.6.6-10.1 1-15.1 1.1-9.7.5-19.8-1-28.7-4-.2 0-.4-.1-.6-.2-8.1-2.1-16.1-3.2-24.5-4.5-17.9-1.7-25.9-10.7-19.3-27.8 0-.1.1-.3.2-.4 13.1-41.1 7.6-92.6-13.6-133.6-.2-.4-.3-.7-.5-1.1-3.3-9.9-10.6-19.1-15-27.9-38.2-76.8 62.6-132.9 78.8-206 5.2-21.5 2.8-43.9 5.1-65.7 0-.3 0-.6.1-.9 3.5-18.1 10-35.4 17.2-52.3 5-11.1 9.6-22.4 16.2-32.7 13.4-20.2 22.5-36.8 26.9-57 11.8-49.2-18-103-66.2-119.3-13.3-4.8-28.7-5.9-43.4-4.8-13.1.2-26 1.6-39.3 5.5s-.7.2-1 .4c-27.9 12-92.4 13-104.4 10.1-12.1-2.9-32.6-10.1-42.9-12.3-44.4-10.8-90.3.4-118.7 37.6-9.6 12.3-11.8 24.4-17.4 37.2s-.1.3-.2.4c-6.7 13.4-11.2 28.7-18.3 42.3-1.5 2.7-3.4 5.1-5.6 7.2-8.1 6.7-16.7 12.9-24.9 19.8-11.4 8.9-24.9 15.6-35.1 25.5-6.3 5.7-12.2 12.2-17.3 19.2-30.3 38.4-67.3 68.5-96.4 107.8-8.9 11.6-17.4 24.1-25 36.6C29.3 461-16.9 535.9-22.1 592.4c-1.7 18.3 10.2 24.4 18.6 62.3 7.8 35.5 22.6 69.1 43.1 99.2 15 22.2 36.1 65.9 59.7 92.2 23.6 26.4 41.2 52.4 77.5 83.1 76.2 64.4 147.4 76 233.6 90.8 58.3 10 79.9 16.3 144.2 11.8C706.1 1021.2 807.9 935.4 819 928c26.2-17.1 54.5-40.7 76.4-63.1 26.5-27.1 30.2-86.4 29.4-109-.9-22.6-2.8-48.4-10.3-72.8ZM701.1 736h.2c9.1-1.7 6.1 20.2 6.2 24.6-.3 4.4 1.4 8.1 2.7 12.4 1.1 3.5 2.7 7.2 1.2 10.6-7.5 11.1-22.5-43.1-10.2-47.6Zm-115.8 5.2v.4c-1.1 9-13.5 10.7-17.1 2.4-3.4-8-6.1-16.3-5.9-19.8.9-13-1.7-25.8-3.2-38.7-1.2-15-2.3-31.8-7-44.6-1.6-4.3-3.2-12.9-.9-16.4 1.4-1.6 3.3 1.3 4.2 2.6 19 29.7 33 76 29.9 114.1ZM60.2 568.3c-6.6 10-18 43.5-17.2 80.7.7 34.7 42.4 72.1 35.4 119-3.1 20.5-31.3-22.4-59.2-96.6-33.3-88.6-12.3-76.9 31.8-164.5 21.3-42.3 95.3-160.8 99.4-165.5 2.6-3 6.5-7.7 8.8-8.2 6-.6-1 28.9-3.9 36.8s16.2 16.7 23.6-5.6c.2-.5.3-1 .3-1.5 8.8-58.8 29.5-104.8 85.2-131.5 5.1-2.6 22.1-12.2 29.6-18.7 1.1-.9 2-2.1 2.5-3.5s.6-2.4.8-3.6c4.1-25.6 6.2-57.5 23.2-82.2s.4-.6.6-.8c16.7-20 39.3-27.6 64.9-26.3 13 .8 28.3 1.6 41.3 5.9 56.3 20 111.1 8.1 166-8.3s1.2-.3 1.8-.3c30.7-3 71.1 8.1 90.6 34.2 10.9 15.4 4.7 29.1-11.6 36.4-97.6 50.1-188.5 120-282.5 175.5-27.6 16.3-47.3 25.4-81.2 28-8.4.6-11.5 11.7-4.4 16.3s.7.4.9.5c18.4 4.4 35 .7 48.7-4.6s31.1-18 45.5-27.1c32.8-19.9 64.8-39.9 97.9-61.9 59.6-37.5 116.2-76.7 180.9-104.4 16.4-6.3 18.5 9.6 5.1 18.1-9.3 6.7-23.9 12-34.7 17.1-.2 0-.4.2-.5.3-35 19-118.3 73.6-130.4 81.6-37.3 24.1-167.2 107.6-190.5 113.1-29.6 7-43.2 6.1-62.5 2.9-32.3-5.3-23.1-17.2-22.4-27.9.7-10.7-4-14.7-10.8-23-6.8-8.3-15.3-6.2-16.9 2.2-.6 3.2-19.9 63 29.5 71.3 18.1 3 41.8 9.8 65.6 10.1 23.8.3 37.9.9 59.5-3.7 28.4-6 48.5-13.9 77.2-31.9 2.3-1.4 96.4-63.7 102-68.4 9.8-8.3 32.6-26.8 35.4-29.4 7.4-5.9 41.3-40.7 53.1-38.7 7.6 1.9-2.2 38-2.4 39.6-6.4 40.6 4.1 104.8-45.6 146.2-25.7 21.4-114.7 29-177 24.7-38.2-2.6-81.4.3-99.9-7-15-6-30.6-10.4-46.6-13.3L231 464c-.3 0-.6-.1-1-.2-7.6-2.1-28-1.6-61.4 8.3-33.2 9.8-59.6 38.6-85.1 62.4-.1.1-.2.2-.4.3-5.7 5.9-16.7 23.4-23.2 33.2Zm376.4 80.3c-50.8-43-11-57.5-73.7-121.1-13.1-10.7-22.2-14.5-12.6-16.2 41.2-4.7 95.4 25.6 121.1 47.7 40.2 34.6 66.6 86.4 64.8 137.8-.2 18.2-10.2 51.8-21.4 31.9-16.6-29.6-27.5-37.1-78.3-80Zm449.2 198.6-.2.2c-21.2 33.7-127.5 92.9-156.2 107.5-28.7 14.6-109.5 47.3-243.8 46.5-139.7-.9-256.7-66.4-300.3-110-29.6-29.6-35.1-36.8-48.6-54.7-2.5-3.3-10.9-66.5-10.1-88.8.8-22.3 9.6-30.2 18.5-40.3 8.7-9.7 74.3-9.9 95.6-16.4 1.5-.5 2.9-1.3 3.9-2.5 5.7-6.7-3.6-10.3-6.3-11.1-6.4-1.7-62.5 2.1-83.9-.3-21.5-2.4-52.2-13.4-58.8-18.2-15.6-12-16.6-47.9-3.4-69.7 13.2-21.8 24.3-32.9 31.5-42 2.4-3.3 12.3-21.4 41-33.7 28.8-12.3 107.4-21.5 149.2 6.9 5.3 3.5 27 22.6 31.6 29.8 29.7 52.8 26.5 95.5-23 127.3-17.2 10.2-17.9 16.3-5.1 13.9.5 0 .9-.2 1.3-.4 61-22.7 147.2 6.8 156.5 74.8 1.6 12.3 2.4 28.2-6.2 38.6-3.4 4-8.5 5.6-12.6 8.3-14.1 8.3-32.8 50.9-34.2 65.4-.3 3.2-1.4 8.9.4 11.1.1.1.3.2.5.2 5.1-1.3 11.8-10.8 15.4-15.6 38.3-53.9 101.4-64.4 161.7-49.5 18.4 3.7 37.3 7.9 55.6 9.8 13 1.3 25 1.6 37.6-.5 48.6-8.4 96.6-23.5 139.1-54.1 6.5-6.2-24.2-6.6-27-7.2-5.5-.5-9-1.1-13.3-2.4-24.9-6.5-37.9-30.5-54.6-48l-.6-.6c-9.5-8.6-22-14.1-29.5-24.8-11.9-16.3 1.4-37.1 20.8-37.2 30.4-2 58.3 33 87.4 26.9 11.4-1.9 25.6-6 32.6-16.8 2-3.3 2.7-6.4.3-7.1-8-1.2-25.1 5.7-25-1.3 0-1.8.8-3.5 1.7-5.2.9-1.7 1.9-3.3 2.2-4.3.3-1.2-.3-1.6-1.5-1.7-17.8 3.2-34.4 8.7-51.3 3.2-17.1-5.6-1.9-10.5 12.8-11.8 32.7-2.3 71.7-4.2 88.3 4.5 21 10.4 19.5 38 23.3 59.7v.6c4.1 42 12.2 101.2-13.3 141.2Z"/><path d="M246.7 365c.5.3 1.1.6 1.7.8 35.7 13 71-10.7 85.2-43.5 8.8-23.8-8.3-50.9-28.6-59.2-18.6-9.1-42.6-3.9-59.4 9.7-.1 0-.3.2-.4.3-18.3 17.9-24.5 35.3-25 46.7-.5 11.4 2.5 31.8 26.5 45.3Zm12.2-77.6.5-.3c13-8.4 34.8-12.2 46.7 0 .6.7 1.2 1.4 1.7 2.2 13.8 20.7 5.5 48-14.4 59.3-44.5 27.3-75.8-33.7-34.5-61.1ZM465.3 213.6c-1.4-.6-14.4 8-17.2 9.5-51 25.5-76.2 28.9-128.7 12.1-5.7-.5-1.7 6.8 1 9 15.3 14.1 38.8 22.8 70 16.7 31.2-6.1 49.8-15.6 67.6-31.8 3.7-3.7 6.4-7.6 7.7-12 .2-1.1.8-2.8-.4-3.5Z"/><path d="M330.4 225c.7.7 1.8 1.4 3.1 2.1 4.3 2.3 9.1 3.8 14 4.4 7.8 1 21.8 2.2 35.9 0 58.5-9.2 107-65.4 59.8-112.7l-.3-.2c-66.6-41.8-164 13.8-123.1 91.9 2.8 5.7 6 10.4 10.5 14.6Zm113.2-60.8c.2.5.3 1.2.4 2.1 2 37-74.4 67.1-85 40.9 0-.4.1-.8.3-1.1 10.5.8 22.9-.9 35.8-5.4 9.7-2.6 18.7-6.9 26.7-13.4 10.2-7 17.8-15.2 21.8-23.2Zm-110.7.3c.3-36.9 54.6-63.5 85.6-41.7l.3.2c7.3 5.1 9.8 8.1 9.1 9.8-13.4-3.4-32.3-1.4-51.3 6.5-19.9 8.3-35.1 21.1-41.5 33.5-1.9-2.1-2.2-5.4-2.3-8.2ZM616.7 112.6c1.8 4.5-7 6.3-11 8.4-13.4 6.5-29.7 2.9-23.7-6.2 1.8-2.6 4.6-4.4 7.7-5.1 7.5-1.7 24.1-4.5 27 2.9ZM247.5 738.5c104.6 18.3 66.2 138.8 135.6 190.6 10.7 7.6 51.4 30.6 104.5-8.7 44.5-32.9 97.8-52.2 153.3-55.1 3.1-.2 6.1-.3 9.2-.5 34.7 1.9-19.7 14.7-2 16.6 38.1 2.1 130.9-37.7 133.2-27.3.1 9.7-59.1 28.3-75.8 34.8-9.8 3.2-16 6.4-33.9 9.4-17.9 2.9-34.7-.3-51 3.5-62.2 14.7-81.6 43.1-111.8 55.3-68.7 27.7-132.9 32-173.6-60.6-14.8-31.6-23.4-72.3-40.2-102.3-2.6-4.3-5-8-8.8-11.2-13.2-9.4-28.2-19.2-41.3-28.2-4.4-3.2-15-8.4-13.5-12.8 2.2-3 10.9-4.2 15.8-3.6h.3ZM359.6 536.4c-.9-3-8.1-10.9-14.8-15.7-21.3-15.5-90.2-56-181.6-9.9-2 1-31.3 14.9-28.8 15.8 27.8-13.9 51.2-19.6 62.5-19.8 11.3-.2 9.5 13.2 10.7 42 1.2 28.8 4.5 29.8 13.7 42.4 9.2 12.6 17.3 18.5 14 6-8.3-31.8-9.2-49.1-7.8-66 1.5-16.9 6.1-33.6 39.7-28.1 33.6 5.6 57.1 16.8 67.8 31 10.7 14.2 20.5 35.6 27.1 44.6 4 4.2 1-32.1-2.7-42.1Z"/><path d="M376.8 729.8c6.7 5.1 8.8 9.3 14.7 18.8 2.9 4.6 5.4 9.4 7.3 14.3 6.4 16.1 6.6 32.6-7.1 43.3-5.9 3.5-4.4-3.3-3-6.9 22.2-46.2-59.5-84.4-31.2-79.3 4.5.9 12.6 4.7 19.3 9.8Z"/></g><g fill="#1b1d1e"><path d="M593.7 352h1.1c2.4-.3 4.3-1.9 5.2-4.4 1.2-3.2.7-7.2-1.2-9.4-1.3-1.5-3-2-5-1.6h-.3c-4 1.8-6.9 7.5-5.9 11.5.7 2.6 2.8 4 6 4ZM619.5 344.3h.2c2.3 0 4.2-1.2 5.5-3.4 1.7-2.9 1.9-6.8.4-9.3-1-1.6-2.6-2.4-4.5-2.3h-.3c-4.1 1.1-7.8 6-7.5 10.1.2 2.9 2.5 4.7 6.2 5ZM622 358.4c-1.6-1.3-3.5-1.5-5.5-.6l-.3.2c-3.8 2.6-5.6 9-3.8 12.9 1 2.1 2.8 3.1 5.2 3.1s1.9-.1 2.9-.4c2.4-.8 4-2.8 4.5-5.6.6-3.6-.7-7.6-3.1-9.5ZM593.4 379.4h.2c2.4 0 4.4-1.3 5.7-3.6 1.8-3 1.9-7 .4-9.6-1-1.7-2.7-2.5-4.7-2.4h-.3c-4.3 1.1-8.1 6.2-7.7 10.4.3 3 2.6 4.9 6.4 5.1ZM570.7 372.5c.5 0 1.1 0 1.6-.1 2.4-.4 4.2-2.1 5-4.7 1.1-3.3.3-7.2-1.7-9.4-1.3-1.4-3.1-1.9-5.1-1.3h-.3c-3.9 2.1-6.5 7.9-5.2 11.8.8 2.4 2.8 3.7 5.7 3.7ZM620.8 382.1c-1.7-1.2-3.6-1.3-5.6-.4l-.3.2c-3.7 2.8-5.3 9.4-3.2 13.3 1 1.9 2.8 3 5.1 3s2.1-.2 3.3-.6c2.4-.9 4-3 4.3-5.9.5-3.7-1-7.7-3.6-9.5ZM612.2 411.6h-.3c-4.1 1.2-7.6 6.2-7.2 10.2.3 2.9 2.6 4.6 6.3 4.8 2.3 0 4.3-1.3 5.6-3.6 1.6-2.9 1.7-6.8.1-9.2-1-1.6-2.6-2.4-4.6-2.2ZM593.2 405.5c2.1-2.3 2.9-5.8 2-8.3-.6-1.6-1.9-2.7-3.7-2.9h-.3c-3.9.2-8.2 4-8.6 7.7-.3 2.7 1.4 4.7 4.7 5.6.4.1.9.2 1.3.2 1.7 0 3.2-.8 4.5-2.2ZM574.1 391.4c1.2-3.5.5-7.6-1.6-9.9-1.4-1.5-3.3-2-5.3-1.5h-.3c-4.1 2.1-7 8.2-5.7 12.3.8 2.6 2.9 4 6.1 4s1 0 1.5-.1c2.5-.4 4.4-2.2 5.3-4.9ZM547.9 385.7c1.8-2.6 2.3-6.2 1.2-8.6-.8-1.6-2.2-2.5-4-2.6s-.3 0-.3 0c-3.9.6-7.8 4.9-7.8 8.7 0 2.7 1.9 4.6 5.3 5.2h.8c1.9 0 3.6-1 4.9-2.7ZM525.6 413.4h.3c2.5-.2 4.5-1.6 5.7-4.2 1.5-3.2 1.3-7.3-.5-9.7-1.2-1.6-2.9-2.3-5-2h-.3c-4.2 1.6-7.6 7.1-6.8 11.3.5 2.9 3 4.6 6.7 4.6ZM547.9 415.4c.6 2.4 2.7 3.7 5.6 3.7h1.1c2.3-.3 4-1.8 4.9-4.3 1.1-3.1.6-6.8-1.2-8.9-1.2-1.4-2.9-1.9-4.7-1.4h-.3c-3.7 1.8-6.4 7.1-5.4 10.9ZM583 417.3h-.3c-4.2 0-9 4-9.6 8-.4 2.9 1.4 5.1 4.9 6.3.5.1 1.1.2 1.6.2 1.7 0 3.4-.8 4.8-2.2 2.3-2.4 3.4-6.2 2.5-8.9-.6-1.8-2-3-3.9-3.3ZM598.6 434.5h-.3c-4.4.3-9 4.8-9.3 8.9-.2 3 1.8 5.2 5.5 6.1.4 0 .8.1 1.3.1 1.9 0 3.7-.9 5.2-2.7 2.2-2.7 3-6.6 1.9-9.4-.7-1.8-2.2-2.9-4.2-3.1ZM579.8 455.3h-.3c-4 .3-8.3 4.4-8.6 8.3-.2 2.8 1.6 4.8 5.1 5.6.4 0 .8.1 1.2.1 1.8 0 3.5-.9 4.8-2.5 2.1-2.5 2.8-6.1 1.8-8.7-.7-1.7-2.1-2.7-3.9-2.9ZM534.7 423.8h-.3c-4.3 0-9.1 4-9.8 8-.4 2.9 1.3 5.2 4.9 6.4.6.2 1.1.2 1.7.2 1.7 0 3.4-.8 4.8-2.2 2.4-2.5 3.5-6.3 2.6-9-.6-1.8-2-3-3.9-3.4ZM497.1 434.4c.7 0 1.6 0 2.4-.3 2.4-.7 4-2.5 4.6-5.2.8-3.4-.3-7.3-2.5-9.3-1.5-1.3-3.3-1.6-5.2-.9h-.3c-3.7 2.4-5.9 8.5-4.3 12.4.9 2.1 2.7 3.3 5.3 3.3ZM528.4 447.4h-.3c-3.6 2.4-5.6 8.2-4 12 .9 2 2.6 3.1 5 3.1s1.5-.1 2.4-.3c2.3-.7 3.8-2.4 4.4-5 .7-3.3-.3-7-2.5-8.9-1.4-1.2-3.2-1.5-5-.8ZM553.3 461.6c-1.6-1.1-3.4-1.1-5.2-.2l-.3.2c-3.4 2.7-4.7 8.8-2.6 12.4 1 1.7 2.6 2.6 4.6 2.6s2.1-.2 3.2-.6c2.2-.9 3.6-2.9 3.8-5.6.3-3.4-1.2-7-3.6-8.7ZM516.4 468.6h-.3c-4 1.3-7.4 6.3-6.8 10.3.4 2.8 2.7 4.5 6.3 4.6 2.3 0 4.3-1.3 5.5-3.7 1.5-2.9 1.5-6.8 0-9.1-1-1.5-2.7-2.2-4.6-2.1ZM486.4 470.6h-.3c-3.4 2.4-5.3 8-3.7 11.6.8 1.9 2.5 2.9 4.8 2.9s1.5-.1 2.4-.3c2.2-.7 3.7-2.4 4.2-4.9.7-3.2-.4-6.8-2.5-8.6-1.4-1.2-3.1-1.4-4.9-.7ZM461.5 470h-.3c-4.2.3-8.7 4.6-9 8.6-.2 2.9 1.7 5 5.3 5.9.4 0 .8.1 1.2.1 1.9 0 3.6-.9 5-2.6 2.2-2.6 3-6.4 1.9-9.1-.7-1.7-2.1-2.8-4.1-3ZM501 446.2h-.3c-4.1.5-8.3 4.9-8.4 8.9 0 2.8 1.9 4.8 5.4 5.5h.9c1.9 0 3.7-1 5.1-2.7 2-2.6 2.6-6.4 1.4-8.9-.8-1.7-2.2-2.7-4.1-2.8ZM557.8 435.7h-.3c-3.8 1-7.3 5.6-6.9 9.4.2 2.7 2.3 4.4 5.8 4.6h.2c2.1 0 4-1.1 5.2-3.2 1.6-2.7 1.7-6.3.3-8.6-.9-1.5-2.4-2.3-4.2-2.2ZM442 458.2c-1.4-1-3.1-1.1-4.7-.3l-.3.2c-3.1 2.4-4.3 7.9-2.5 11.2.9 1.6 2.3 2.4 4.2 2.4s1.8-.2 2.8-.5c2-.8 3.3-2.6 3.5-5 .3-3.1-1-6.4-3.1-7.9ZM470.5 441.3h-.3c-4.4 1.5-7.9 7.2-7.2 11.5.5 3.1 3.1 4.8 7 4.8 2.6-.1 4.7-1.6 5.9-4.2 1.6-3.3 1.4-7.5-.4-10-1.2-1.6-3-2.4-5.1-2.1Z"/></g></g></svg>