<?xml version="1.0" encoding="UTF-8"?><svg id="Layer_2" xmlns="http://www.w3.org/2000/svg" viewBox="0 0 229.84 229.84"><defs><style>.cls-1{fill:#fff;}</style></defs><g id="Layer_1-2"><circle class="cls-1" cx="114.92" cy="114.92" r="114.92"/><path d="M88.06,183.06h49c1.45,0,2.79-.77,3.51-2.03l26.84-46.49c.72-1.25,.72-2.8,0-4.05l-24.5-42.44c-1.56-2.7-5.46-2.7-7.02,0l-51.34,88.93c-1.56,2.7,.39,6.08,3.51,6.08Z"/><path d="M141.66,46.98h-49c-1.45,0-2.79,.77-3.51,2.03l-26.84,46.49c-.72,1.25-.72,2.8,0,4.05l24.5,42.44c1.56,2.7,5.46,2.7,7.02,0l51.34-88.93c1.56-2.7-.39-6.08-3.51-6.08Z"/></g></svg>