<svg xmlns="http://www.w3.org/2000/svg" viewBox="0 0 132.71 132.71"><defs><style>.cls-1{fill:#0027a5;}.cls-2{fill:#00e9f9;}</style></defs><g id="Layer_2" data-name="Layer 2"><g id="Layer_2-2" data-name="Layer 2"><circle class="cls-1" cx="66.36" cy="66.36" r="66.36"/><path class="cls-2" d="M58.34,100.61a7.7,7.7,0,0,0,.57-3.13,10.43,10.43,0,0,0-2.34-6.67,9.68,9.68,0,0,0-7.51-2.65c-4,.17-6.79,2.62-9.52,5.18-1.93,1.81-3.81,3.7-5.9,5.31a5,5,0,0,1-6.14.07,5.83,5.83,0,0,1-3-5.63,8.85,8.85,0,0,1,8.09-8.3c2.38-.15,4.78.08,7.18.14,2.76.08,5.44-.12,7.48-2.35,1.29-1.42,1.23-2.77-.38-3.78a29.65,29.65,0,0,0-4.35-2.12C38.74,75.1,35,73.42,32,70.4,28.9,67.19,26.48,63.59,26.25,59c-.23-4.81,2.58-7,7.28-6S41,57,42,61.65c.42,2,.85,4,1.4,5.93a10.65,10.65,0,0,0,3.38,5.22,17.68,17.68,0,0,0,2.86,2,14.52,14.52,0,0,0,1.59.76,4,4,0,0,0,1.4.35c.4,0,.66-.25.53-1-.23-1.12-1-2-1.41-3a19.72,19.72,0,0,1-.89-3.2,28.31,28.31,0,0,1-.45-6.56c0-1.46.18-2.91.36-4.35a77.63,77.63,0,0,1,1.25-8.34,14,14,0,0,0-2.49-11.92c-2.34-3.33-4.29-7-4.65-11.13a13.65,13.65,0,0,1,6-12.79,5.57,5.57,0,0,1,6.6-.09c2.17,1.54,3,4.13,2.26,7.11-.8,3.23-1.7,6.44-2.34,9.71a13.54,13.54,0,0,0,0,4.49c.39,2.6,2.17,3.55,4.56,2.42a44.32,44.32,0,0,0,5-2.91c1.59-1,3.08-2.16,4.68-3.13a12.48,12.48,0,0,1,3.12-1.4c2.24-.61,4.5-.62,6.27,1.19a6.86,6.86,0,0,1,1.62,7.11,7.29,7.29,0,0,1-8,5.22c-1.89-.21-3.58-1.19-5.47-1.42a7.09,7.09,0,0,0-4.47.83,12.33,12.33,0,0,0-4.19,4.94c-2.69,4.93-3.24,10.35-3,15.78a105.09,105.09,0,0,0,1.76,12.18,12,12,0,0,0,1.24,3.19c.82,1.65,1.78,1.93,3.44,1.14,2.33-1.11,3.08-3.32,3.61-5.56a16.61,16.61,0,0,0-1.07-10.09,8.09,8.09,0,0,1,.84-8.17,6.43,6.43,0,0,1,7-2.64,7.43,7.43,0,0,1,4.81,6.53c0,3.52-1.44,6.59-3.15,9.52-2.55,4.36-5.25,8.64-7.82,13A12,12,0,0,0,66.88,86c-.16.72,0,1.94.8,2.28a1.48,1.48,0,0,0,.86,0c1.7-.38,3.26-2,4.38-3.25a43.08,43.08,0,0,0,3.37-4.46,53,53,0,0,0,8-16.5,12,12,0,0,0-.1-7.51A8.24,8.24,0,0,1,88.6,46.17c4-1.78,7.78.7,7.44,5a18.16,18.16,0,0,1-1.44,6c-2.92,6.37-6.1,12.63-9.12,19-.6,1.26-1.18,2.53-1.69,3.82a18.22,18.22,0,0,0-.93,2.35c-.13.55-.27,1.87.47,2.08,1.1.3,1.9-1.11,2.35-1.87s.88-1.41,1.3-2.13c.87-1.47,1.71-3,2.57-4.44a22,22,0,0,1,7-7.88,10.76,10.76,0,0,1,7.31-1.73,6.85,6.85,0,0,1,3,12.28A25.27,25.27,0,0,1,101,81.61C97.14,83.16,93.24,84.47,89.4,86a25,25,0,0,0-3.77,1.87,2.22,2.22,0,0,0-1.29,2.72c.42,1.34,1.54,1.37,2.55,1.17,2.6-.52,5.17-1.18,7.75-1.79,3.2-.76,6.39-1.55,9.72-.85,2.51.53,5.07,3,5.39,5.28s-1.23,4.59-3.82,5.91a10.16,10.16,0,0,1-8,.79c-1.87-.61-3.68-1.43-5.49-2.2A71.06,71.06,0,0,0,85,95.71a14.35,14.35,0,0,0-10.87,1.23,19.91,19.91,0,0,0-7.48,7.43,24.28,24.28,0,0,0-2.19,4.88c-1,3-1.63,6.66-5.43,7.08a8.07,8.07,0,0,1-7.13-3.63,4.76,4.76,0,0,1-.27-4.47,11,11,0,0,1,3.44-4A9.94,9.94,0,0,0,58.34,100.61Z"/></g></g></svg>