<svg xmlns="http://www.w3.org/2000/svg" xmlns:xlink="http://www.w3.org/1999/xlink" xml:space="preserve" style="fill-rule:evenodd;clip-rule:evenodd;stroke-linecap:round;stroke-linejoin:round;stroke-miterlimit:1.5" viewBox="0 0 504 657"><ellipse cx="1525.49" cy="2474.14" rx="218.589" ry="315.625" style="fill:#003613" transform="matrix(1.06496 0 0 .97451 -1375.907 -2083.041)"/><path d="M1387.27 2189.95c-20.08 259.47 182.86 318.28 169.81 566.43" style="fill:none;stroke:#35caa4;stroke-width:43px" transform="translate(-1212.73 -2148.58)"/><path d="M1393.45 2188.17c-72.44 215.54 231.85 303.1 221.47 532.51" style="fill:none;stroke:#35caa4;stroke-opacity:.7;stroke-width:48.38px" transform="matrix(.73353 0 0 1.02065 -796.826 -2205.358)"/><path d="M1595.55 2147.18c-89.12 181.35 234.67 305.71 199.95 494.04" style="fill:none;stroke:#07785b;stroke-opacity:.82;stroke-width:48.38px" transform="matrix(.73353 0 0 1.02065 -896.238 -2161.73)"/><path d="M1408.23 2176.66c-31.06 150.78 291.22 343.61 219.66 507.41M1716.7 2111.56c-72.43 150.6 168.92 241.89 191.4 401.65" style="fill:none;stroke:#08503e;stroke-opacity:.82;stroke-width:48.38px" transform="matrix(.73353 0 0 1.02065 -939.077 -2114.77)"/><path d="M1402.62 2187.82c-25.11 215.36 279.36 348.26 226.29 539.54" style="fill:none;stroke:#07785b;stroke-opacity:.82;stroke-width:48.38px" transform="matrix(.73353 0 0 1.02065 -896.238 -2161.73)"/><ellipse cx="1525.49" cy="2474.14" rx="218.589" ry="315.625" style="fill:none;stroke:#08503e;stroke-width:20.91px" transform="matrix(1.09917 0 0 1.00245 -1425.512 -2152.797)"/><use xlink:href="#a" width="502.498" height="656.123" x=".92" y=".407" opacity=".75" transform="scale(.999 .99867)"/></svg>