<svg xmlns="http://www.w3.org/2000/svg" viewBox="0 0 400 400"><defs><clipPath id="a"><circle cx="200" cy="200" r="200" fill="none"/></clipPath></defs><g clip-path="url(#a)"><path fill="#f0f3fa" d="M0 0h400v400H0V0Z"/><path fill="#0281fb" d="M258.04 111.11c-21.87 0-38.96 16.51-54.44 37.51-21.27-27.16-39.02-37.51-60.31-37.51-43.38 0-76.62 56.64-76.62 116.6 0 37.51 18.09 61.18 48.4 61.18 21.8 0 37.49-10.31 65.38-59.22l19.62-34.78c2.8 4.53 5.73 9.42 8.84 14.67L222 231.63c25.47 42.76 39.64 57.27 65.38 57.27 29.53 0 45.96-24 45.96-62.27 0-62.78-34-115.51-75.29-115.51Zm-98.86 105.33c-22.6 35.56-30.44 43.51-43.02 43.51s-20.67-11.42-20.67-31.78c0-43.51 21.64-88 47.42-88 13.98 0 25.64 8.07 43.51 33.73-16.96 26.13-27.24 42.53-27.24 42.53Zm85.33-4.48-15.64-26.16c-3.93-6.44-7.99-12.79-12.18-19.07 14.09-21.8 25.71-32.69 39.53-32.69 28.71 0 51.69 42.42 51.69 94.53 0 19.84-6.49 31.38-19.91 31.38s-19.04-8.53-43.49-48Z"/></g></svg>