<svg width="792" height="792" viewBox="0 0 792 792" fill="none" xmlns="http://www.w3.org/2000/svg">
<g clip-path="url(#clip0_225_2)">
<mask id="mask0_225_2" style="mask-type:luminance" maskUnits="userSpaceOnUse" x="0" y="0" width="792" height="792">
<path d="M792 0H0V792H792V0Z" fill="white"/>
</mask>
<g mask="url(#mask0_225_2)">
<path d="M396 792C614.705 792 792 614.705 792 396C792 177.295 614.705 0 396 0C177.295 0 0 177.295 0 396C0 614.705 177.295 792 396 792Z" fill="#101233"/>
<path fill-rule="evenodd" clip-rule="evenodd" d="M284.17 681.753C284.17 681.753 320.016 657.106 396.238 657.106C472.46 657.106 508.322 681.753 508.322 681.753C508.322 681.753 497.867 694.996 485.306 698.956C472.745 702.916 456.018 699.193 435.093 714.067C414.169 728.941 396.238 727.325 396.238 727.325C396.238 727.325 378.307 728.909 357.398 714.067C336.489 699.225 319.731 702.9 307.17 698.956C294.608 695.012 284.17 681.753 284.17 681.753Z" fill="#03F5AE"/>
<path fill-rule="evenodd" clip-rule="evenodd" d="M369.674 146.884C348.005 145.696 317.275 148.294 298.901 141.768C267.522 130.68 262.469 119.449 235.905 125.025C216.517 129.096 211.907 144.286 209.991 159.73C257.004 151.287 283.932 162.201 283.932 162.201C216.374 169.408 193.485 187.688 192.06 188.828C190.276 190.428 188.79 192.332 187.672 194.451C185.486 199.093 187.181 200.788 187.577 209.943C281.445 181.431 356.432 201.231 356.432 201.231C288.003 202.815 224.025 214.711 162.803 244.443L171.801 275.949C228.096 255.658 259.776 270.104 259.776 270.104C226.138 278.212 193.714 290.717 163.342 307.296L169.124 321.9C156.071 331.927 145.364 369.341 145.364 369.341C142.196 349.114 154.868 321.219 154.868 321.219C128.367 322.803 118.436 347.957 118.436 368.882C118.436 389.807 131.852 413.424 148.12 428.789C164.387 444.154 168.11 461.102 168.11 461.102C180.449 427.379 156.483 424.67 163.009 384.611C169.535 344.552 217.626 323.247 217.626 323.247C207.751 321.073 197.728 319.637 187.641 318.954C208.343 315.786 222.837 282.617 351.093 365.936C479.35 449.254 558.772 364.969 601.365 339.467C614.037 349.811 627.28 364.969 630.479 384.611C636.99 424.607 613.055 427.379 625.363 461.102C625.363 461.102 629.086 444.138 645.353 428.789C661.621 413.44 675.117 389.727 675.117 368.819C675.117 347.91 665.122 322.787 638.605 321.156C638.605 321.156 651.404 349.05 648.109 369.278C648.109 369.278 637.021 330.47 623.589 321.314L630.638 303.542L624.096 298.885C532.778 243.524 396.237 245.52 396.237 245.52C528.501 233.893 621.894 276.535 621.894 276.535L629.672 244.554L605.721 232.848C605.721 232.848 606.767 210.023 602.807 201.643C600.478 196.701 593.683 191.838 588.551 188.686C538.797 166.842 453.198 162.201 453.198 162.201C529.404 155.152 567.246 159.857 582.5 163.009C579.855 146.947 572.996 123.251 555.778 119.623C544.5 117.247 537.087 117.897 529.88 120.304C526.712 116.677 516.907 106.128 505.486 102.532C491.61 98.1601 473.109 102.263 450.046 85.8207C426.983 69.3788 407.088 71.1845 407.088 71.1845C407.088 71.1845 387.272 69.3946 364.146 85.8365C341.019 102.278 322.518 98.1759 308.706 102.548C294.893 106.92 283.267 121.556 283.267 121.556C283.267 121.556 311.129 140.69 369.785 146.9L369.674 146.884Z" fill="#03F5AE"/>
<path fill-rule="evenodd" clip-rule="evenodd" d="M396.237 644.34C396.237 644.34 331.135 644.577 299.74 655.729C268.345 666.88 263.308 678.047 236.744 672.471C217.34 668.385 213.222 651.246 211.305 635.786C258.319 644.245 283.932 629.909 283.932 629.909C216.374 622.686 193.485 604.407 192.06 603.282C190.276 601.682 188.79 599.778 187.672 597.659C185.486 593.002 186.215 589.898 186.611 580.758C280.495 609.238 356.4 590.832 356.4 590.832C287.971 589.248 223.993 577.352 162.771 547.621L172.101 512.63C230.709 527.33 259.697 522.007 259.697 522.007C226.068 513.917 193.656 501.427 163.294 484.862L170.676 466.25C265.51 504.932 526.886 504.932 621.72 466.25L630.559 488.569L624.096 493.21C532.778 548.65 396.237 546.654 396.237 546.654C528.501 558.281 621.894 515.64 621.894 515.64L629.672 547.621L605.721 559.247C605.721 559.247 608.747 589.232 604.787 597.612C602.458 602.538 595.663 607.401 590.531 610.553C540.777 632.412 453.198 629.894 453.198 629.894C529.404 636.942 566.66 637.734 581.851 634.645C579.205 650.707 573.043 668.892 555.778 672.535C529.262 678.11 524.098 666.959 492.766 655.792C461.435 644.625 396.269 644.403 396.269 644.403L396.237 644.34Z" fill="#03F5AE"/>
<path fill-rule="evenodd" clip-rule="evenodd" d="M254.629 388.761C254.629 388.761 242.511 417.891 266.255 429.518C290 441.144 349.637 435.267 349.637 435.267C349.637 435.267 297.935 397.156 254.597 388.761H254.629Z" fill="white"/>
<path fill-rule="evenodd" clip-rule="evenodd" d="M550.171 418.667C550.171 418.667 554.813 442.839 534.823 447.955C514.832 453.072 470.195 439.132 470.195 439.132C470.195 439.132 515.751 418.176 550.171 418.667Z" fill="white"/>
<path d="M635.073 245.9C635.073 245.9 680.281 248.862 707.811 264.29C731.681 277.643 754.919 308.405 754.919 308.405C754.919 308.405 720.815 319.144 710.202 331.626C700.461 343.126 698.449 348.337 698.449 348.337C698.449 348.337 673.232 297.285 627.803 278.531L635.073 245.9Z" fill="#03F5AE"/>
<path d="M560.182 667.893C560.182 667.893 582.579 687.519 602.554 693.237C619.867 698.116 644.973 694.631 644.973 694.631C644.973 694.631 634.107 673.786 634.978 663.046C635.786 653.162 637.275 649.804 637.275 649.804C618.217 647.173 599.584 642.084 581.835 634.661L560.182 667.893Z" fill="#03F5AE"/>
<path d="M162.819 462.084C162.819 462.084 128.747 491.959 98.3659 500.544C72.0398 507.957 33.8496 502.651 33.8496 502.651C33.8496 502.651 50.3866 470.923 49.1035 454.608C47.868 439.592 45.6029 434.475 45.6029 434.475C45.6029 434.475 99.5381 452.755 144.92 433.889L162.819 462.084Z" fill="#03F5AE"/>
<path d="M280.368 118.642C280.368 118.642 255.119 100.141 244.791 80.927C235.842 64.295 233.703 37.7313 233.703 37.7313C233.703 37.7313 257.574 44.0673 268.393 40.7885C278.34 37.6997 281.445 35.4187 281.445 35.4187C281.445 35.4187 277.2 74.5277 296.683 102.311L280.368 118.642Z" fill="#03F5AE"/>
</g>
</g>
<defs>
<clipPath id="clip0_225_2">
<rect width="792" height="792" fill="white"/>
</clipPath>
</defs>
</svg>
