<svg xmlns="http://www.w3.org/2000/svg" viewBox="0 0 400 400"><path fill="#070707" d="M200 387.5c-50.1 0-97.2-19.5-132.6-54.9C32 297.2 12.5 250.1 12.5 200S32 102.8 67.4 67.4C102.8 32 149.9 12.5 200 12.5S297.2 32 332.6 67.4c35.4 35.4 54.9 82.5 54.9 132.6s-19.5 97.2-54.9 132.6c-35.4 35.4-82.5 54.9-132.6 54.9Z"/><path fill="#90fb75" d="M200 25c23.6 0 46.6 4.6 68.1 13.7 20.8 8.8 39.6 21.4 55.6 37.5s28.7 34.8 37.5 55.6c9.1 21.6 13.7 44.5 13.7 68.1s-4.6 46.6-13.7 68.1c-8.8 20.8-21.4 39.6-37.5 55.6s-34.8 28.7-55.6 37.5c-21.6 9.1-44.5 13.7-68.1 13.7s-46.6-4.6-68.1-13.7c-20.8-8.8-39.6-21.4-55.6-37.5S47.6 288.8 38.8 268c-9.1-21.6-13.7-44.5-13.7-68.1s4.6-46.6 13.7-68.1c8.8-20.8 21.4-39.6 37.5-55.6s34.8-28.7 55.6-37.5C153.5 29.6 176.4 25 200 25Zm0-25C89.5 0 0 89.5 0 200s89.5 200 200 200 200-89.5 200-200S310.5 0 200 0Z"/><path fill="#90fb75" d="m226.7 342.6-4-27.2c-4.9-33-19.6-62.8-41-86.3-3.4-3.8-7-7.4-10.8-10.8-23.5-21.4-53.2-36.1-86.3-41l-27.2-4 253.9-84.6-84.6 253.9Z"/><path fill="#65bf40" d="m311.3 88.7-84.6 253.9-4-27.2c-4.9-33-19.6-62.8-41-86.3L311.3 88.6Z"/><path fill="#111212" d="M181.7 229.1c-3.4-3.8-7-7.4-10.8-10.8L311.4 88.7 181.8 229.2Z"/></svg>