<?xml version="1.0" encoding="UTF-8" standalone="no"?>
<!DOCTYPE svg PUBLIC "-//W3C//DTD SVG 1.1//EN" "http://www.w3.org/Graphics/SVG/1.1/DTD/svg11.dtd">
<svg width="100%" height="100%" viewBox="0 0 63 78" version="1.1" xmlns="http://www.w3.org/2000/svg" xmlns:xlink="http://www.w3.org/1999/xlink" xml:space="preserve" xmlns:serif="http://www.serif.com/" style="fill-rule:evenodd;clip-rule:evenodd;stroke-linejoin:round;stroke-miterlimit:2;">
    <g transform="matrix(1,0,0,1,-3.166,-9.05949)">
        <path d="M24.428,12.031L15.248,23.052L28.014,18.476L24.428,12.031Z" style="fill:rgb(213,213,213);fill-rule:nonzero;"/>
        <path d="M24.529,36.438L28.014,18.476L15.248,23.052L14.451,42.432L24.529,36.438Z" style="fill:rgb(227,227,227);fill-rule:nonzero;"/>
        <path d="M15.248,23.052L6.102,41.34L14.451,42.432L15.248,23.052Z" style="fill:rgb(199,199,199);fill-rule:nonzero;"/>
        <path d="M34.324,9.235L24.428,12.031L28.014,18.476L34.324,9.235Z" style="fill:rgb(237,237,237);fill-rule:nonzero;"/>
        <path d="M24.529,36.438L34.371,26.669L28.014,18.476L24.529,36.438Z" style="fill:rgb(213,213,213);fill-rule:nonzero;"/>
        <path d="M18.722,51.729L13.347,62.984L21.724,64.267L21.631,63.831L21.724,64.267L21.736,64.269L18.722,51.729Z" style="fill:rgb(171,171,171);fill-rule:nonzero;"/>
        <path d="M14.451,42.432L18.722,51.729L24.529,36.438L14.451,42.432Z" style="fill:rgb(171,171,171);fill-rule:nonzero;"/>
        <path d="M21.724,64.267L24.071,75.294L34.371,71.41L21.736,64.269L21.724,64.267Z" style="fill:rgb(171,171,171);fill-rule:nonzero;"/>
        <path d="M6.102,41.34L3.166,55.472L14.451,42.432L6.102,41.34Z" style="fill:rgb(227,227,227);fill-rule:nonzero;"/>
        <path d="M18.722,51.729L14.451,42.432L3.166,55.472L13.347,62.984L18.722,51.729Z" style="fill:rgb(199,199,199);fill-rule:nonzero;"/>
        <path d="M12.306,77.537L22.43,84.301L24.071,75.294L12.306,77.537Z" style="fill:rgb(112,112,112);fill-rule:nonzero;"/>
        <path d="M22.43,84.301L34.371,86.677L24.071,75.294L22.43,84.301Z" style="fill:rgb(91,91,91);fill-rule:nonzero;"/>
        <path d="M21.724,64.267L13.347,62.984L12.306,77.537L24.071,75.294L21.724,64.267Z" style="fill:rgb(123,123,123);fill-rule:nonzero;"/>
        <path d="M3.166,55.472L5.542,67.413L13.347,62.984L3.166,55.472Z" style="fill:rgb(123,123,123);fill-rule:nonzero;"/>
        <path d="M5.542,67.413L12.306,77.537L13.347,62.984L5.542,67.413Z" style="fill:rgb(91,91,91);fill-rule:nonzero;"/>
        <path d="M34.371,26.669L34.389,9.059L28.014,18.476L34.371,26.669Z" style="fill:rgb(227,227,227);fill-rule:nonzero;"/>
        <path d="M24.071,75.294L34.371,86.677L34.371,71.41L24.071,75.294Z" style="fill:rgb(123,123,123);fill-rule:nonzero;"/>
        <path d="M44.314,12.031L53.495,23.052L40.729,18.476L44.314,12.031Z" style="fill:rgb(213,213,213);fill-rule:nonzero;"/>
        <path d="M44.214,36.438L40.729,18.476L53.495,23.052L54.292,42.432L44.214,36.438Z" style="fill:rgb(171,171,171);fill-rule:nonzero;"/>
        <path d="M53.495,23.052L62.641,41.34L54.292,42.432L53.495,23.052Z" style="fill:rgb(123,123,123);fill-rule:nonzero;"/>
        <path d="M34.205,9.081L44.314,12.031L40.729,18.476L34.205,9.081Z" style="fill:rgb(227,227,227);fill-rule:nonzero;"/>
        <path d="M44.214,36.438L34.371,26.669L40.729,18.476L44.214,36.438Z" style="fill:rgb(199,199,199);fill-rule:nonzero;"/>
        <path d="M50.021,51.729L55.396,62.984L47.019,64.267L47.112,63.831L47.019,64.267L47.007,64.269L50.021,51.729Z" style="fill:rgb(90,90,90);fill-rule:nonzero;"/>
        <path d="M54.292,42.432L50.021,51.729L44.214,36.438L54.292,42.432Z" style="fill:rgb(199,199,199);fill-rule:nonzero;"/>
        <path d="M47.019,64.267L44.671,75.294L34.371,71.41L47.007,64.269L47.019,64.267Z" style="fill:rgb(171,171,171);fill-rule:nonzero;"/>
        <path d="M62.641,41.34L65.576,55.472L54.292,42.432L62.641,41.34Z" style="fill:rgb(91,91,91);fill-rule:nonzero;"/>
        <path d="M50.021,51.729L54.292,42.432L65.576,55.472L55.396,62.984L50.021,51.729Z" style="fill:rgb(123,123,123);fill-rule:nonzero;"/>
        <path d="M56.437,77.537L46.313,84.301L44.671,75.294L56.437,77.537Z" style="fill:rgb(38,38,38);fill-rule:nonzero;"/>
        <path d="M46.313,84.301L34.371,86.677L44.671,75.294L46.313,84.301Z" style="fill:rgb(61,61,61);fill-rule:nonzero;"/>
        <path d="M47.019,64.267L55.396,62.984L56.437,77.537L44.671,75.294L47.019,64.267Z" style="fill:rgb(61,61,61);fill-rule:nonzero;"/>
        <path d="M65.576,55.472L63.201,67.413L55.396,62.984L65.576,55.472Z" style="fill:rgb(61,61,61);fill-rule:nonzero;"/>
        <path d="M63.201,67.413L56.437,77.537L55.396,62.984L63.201,67.413Z" style="fill:rgb(38,38,38);fill-rule:nonzero;"/>
        <path d="M48.714,48.29L44.214,36.438L34.371,26.669L24.529,36.438L18.722,51.729L19.686,55.739C29.934,59.164 40.883,55.497 48.714,48.29Z" style="fill:rgb(237,237,237);fill-rule:nonzero;"/>
        <path d="M19.686,55.739L21.736,64.269L34.371,71.41L47.007,64.269L50.021,51.729L48.714,48.29C40.883,55.497 29.934,59.164 19.686,55.739Z" style="fill:rgb(213,213,213);fill-rule:nonzero;"/>
        <path d="M34.371,26.669L34.453,9.147L40.729,18.476L34.371,26.669Z" style="fill:rgb(237,237,237);fill-rule:nonzero;"/>
        <path d="M44.671,75.294L34.371,86.677L34.371,71.41L44.671,75.294Z" style="fill:rgb(38,38,38);fill-rule:nonzero;"/>
    </g>
</svg>
