<svg xmlns="http://www.w3.org/2000/svg" viewBox="0 0 15 15"><g data-name="eth"><path fill="#404779" d="M7.5 0C11.67 0 15 3.39 15 7.5S11.67 15 7.5 15 0 11.61 0 7.5 3.33 0 7.5 0"/><path fill="#f0cdc2" d="M7.49 12.75v-2.63L4.04 8.21z"/><path fill="#1616b4" d="M7.49 12.88s-.08-.02-.1-.05L3.94 8.29s-.03-.11 0-.16c.04-.04.1-.06.16-.03l3.45 1.91s.06.06.06.11v2.63c0 .05-.03.1-.08.12h-.04ZM4.5 8.61l2.87 3.77v-2.19L4.5 8.6Z"/><path fill="#c9b3f5" d="M7.51 12.75v-2.63l3.45-1.91z"/><path fill="#1616b4" d="M7.51 12.88h-.04a.12.12 0 0 1-.08-.12v-2.63s.02-.09.06-.11l3.45-1.91c.05-.03.12-.02.16.03.04.04.04.11 0 .16l-3.45 4.54s-.06.05-.1.05Zm.12-2.69v2.19l2.87-3.77-2.87 1.59Z"/><path fill="#88aaf1" d="M7.49 9.46V6.1L4 7.58l3.49 1.89Z"/><path fill="#1616b4" d="M7.49 9.59s-.04 0-.06-.01L3.94 7.69s-.07-.07-.07-.12.03-.09.08-.11l3.49-1.48s.08-.01.12.01.06.06.06.1v3.37s-.02.08-.06.11c-.02.01-.04.02-.06.02Zm-3.2-2 3.08 1.67V6.29z"/><path fill="#c9b3f5" d="M7.51 9.46V6.1L11 7.58 7.51 9.47Z"/><path fill="#1616b4" d="M7.51 9.59s-.04 0-.06-.02c-.04-.02-.06-.06-.06-.11V6.09s.02-.08.06-.1c.03-.02.08-.03.12-.01l3.49 1.48s.07.06.08.11-.02.09-.07.12L7.58 9.58s-.04.01-.06.01Zm.12-3.3v2.97l3.08-1.67z"/><path fill="#f0cdc2" d="m4 7.57 3.49-5.32V6.1L4 7.58Z"/><path fill="#1616b4" d="M4 7.71s-.05 0-.07-.02a.11.11 0 0 1-.06-.1c0-.02 0-.06.02-.08l3.49-5.32s.09-.07.14-.05.09.06.09.12v3.85c0 .05-.03.1-.08.12L4.04 7.71h-.05Zm3.37-5.04L4.33 7.31l3.04-1.29z"/><path fill="#b8faf6" d="M11 7.57 7.51 2.25V6.1L11 7.58Z"/><path fill="#1616b4" d="M11 7.71h-.05L7.46 6.23s-.08-.06-.08-.12V2.26c0-.06.04-.1.09-.12s.11 0 .14.05l3.49 5.32s.02.04.02.07c0 .05-.02.09-.06.11-.02.01-.04.02-.07.02ZM7.63 6.02l3.04 1.29-3.04-4.64z"/><path fill="#0d1122" d="M7.5 1C11.08 1 14 3.92 14 7.5S11.08 14 7.5 14 1 11.08 1 7.5 3.92 1 7.5 1m0-1C3.33 0 0 3.39 0 7.5S3.33 15 7.5 15 15 11.61 15 7.5 11.67 0 7.5 0"/></g></svg>