<svg xmlns="http://www.w3.org/2000/svg" viewBox="0 0 15 15"><g data-name="base"><path fill="#fff" d="M7.5 0C11.67 0 15 3.39 15 7.5S11.67 15 7.5 15 0 11.61 0 7.5 3.33 0 7.5 0"/><path fill="#00f" d="M3.23 3.91c0-.23 0-.35.04-.44a.43.43 0 0 1 .2-.2c.09-.04.2-.04.44-.04h7.18c.23 0 .35 0 .44.04.08.04.15.11.2.2.04.09.04.2.04.44v7.18c0 .23 0 .35-.04.44-.04.08-.11.15-.2.2-.09.04-.2.04-.44.04H3.91c-.23 0-.35 0-.44-.04a.43.43 0 0 1-.2-.2c-.04-.09-.04-.2-.04-.44z"/><path fill="#0d1122" d="M7.5 1C11.08 1 14 3.92 14 7.5S11.08 14 7.5 14 1 11.08 1 7.5 3.92 1 7.5 1m0-1C3.33 0 0 3.39 0 7.5S3.33 15 7.5 15 15 11.61 15 7.5 11.67 0 7.5 0"/></g></svg>