<svg xmlns="http://www.w3.org/2000/svg" viewBox="0 0 15 15"><g data-name="mega"><path fill="#ece8e8" d="M7.5.5c3.87 0 7 3.13 7 7s-3.13 7-7 7-7-3.13-7-7 3.13-7 7-7"/><g fill="#19191a"><path d="M9.01 11.72c.47 0 .86-.36.86-.81s-.39-.81-.86-.81-.86.36-.86.81c-.01.45.39.81.86.81M5.91 11.75c.47 0 .86-.36.86-.81s-.39-.81-.86-.81-.86.36-.86.81.39.81.86.81"/><path d="M4.01 3.25h2.06c.39.98 1.39 3.78 1.47 3.93.01-.08 1.04-3.12 1.32-3.92H11v6.96c-.27-.14-.53-.28-.82-.43-.19-.1-.39-.2-.58-.28-.01-1.34-.03-2.69-.07-4.09-.28.81-1.28 3.64-1.36 3.72H6.85L5.5 5.54c-.01 1.33-.03 2.65-.09 4.02-.79.38-1.26.6-1.41.64V3.25s.01 0 0 0Z"/></g><path fill="#0d1122" d="M7.5 1C11.08 1 14 3.92 14 7.5S11.08 14 7.5 14 1 11.08 1 7.5 3.92 1 7.5 1m0-1C3.33 0 0 3.39 0 7.5S3.33 15 7.5 15 15 11.61 15 7.5 11.67 0 7.5 0"/></g></svg>