<?xml version="1.0" encoding="utf-8"?>
<!-- Generator: Adobe Illustrator 27.8.0, SVG Export Plug-In . SVG Version: 6.00 Build 0)  -->
<svg version="1.1" id="Layer_1" xmlns="http://www.w3.org/2000/svg" xmlns:xlink="http://www.w3.org/1999/xlink" x="0px" y="0px"
	 viewBox="0 0 1920 1920" enable-background="new 0 0 1920 1920" xml:space="preserve">
<circle fill="#000912" cx="960" cy="960" r="960"/>
<g>
	<g>
		<path fill="#FFFFFF" d="M1241.4,1036.4c-4.1-2.4-6.6-3.8-9.1-5.2c-13-7.1-25.7-14.9-39.1-21.2c-45.3-21.3-93.2-31.3-143.2-31.3
			c-85.8-0.1-171.6,0-257.4,0c-1.8,0-3.6,0-5.3,0c-15.6,0.6-24.6,9.7-25,25.3c-1.6,69.6,52.9,125.5,122.5,125.6
			c54.9,0,109.8-0.2,164.7,0.2c13.3,0.1,26.8,1.3,39.8,4c98.6,20.4,164.5,114.9,148.8,214.8c-14,89.4-93.8,158.8-184.3,159.1
			c-64.4,0.2-128.8,0.6-193.2-0.1c-53.4-0.6-98.7-21.2-135.2-60.2c-34.7-37-51.2-81.3-51.2-132c0-283.2,0-566.4,0-849.6
			c0-3.3,0-6.5,0-9.8c-0.5-34.5-24.5-64-58.3-71.8c-33.8-7.8-68.5,8.2-84.2,38.7c-6.4,12.5-8.5,25.7-8.5,39.6
			c0.1,285,0,569.9,0.2,854.9c0,15.1,0.8,30.3,2.9,45.3c11.1,81.7,47,150.8,107.7,206.4c64.2,58.7,140.3,88.8,227.4,89.5
			c64.4,0.5,128.8,0.4,193.2-0.1c17.7-0.1,35.7-1.4,53.1-4.5c99.1-17.8,176.2-69.4,230.8-153.8c33.5-51.7,51.1-108.9,52.4-170.6
			c0.9-42.1,0.5-84.3,0.5-126.4c0-246.4,0-492.8,0-739.1c0-3.9-0.1-7.7-0.3-11.6c-2.3-35.5-29.8-65.2-64.3-69.4
			c-37.7-4.6-72,16.4-82.7,51.4c-2.5,8.4-3.5,17.5-3.5,26.3c0.1,187.6,0.4,375.2,0.7,562.8C1241.4,1027.2,1241.4,1031,1241.4,1036.4
			z"/>
		<path fill="#FFFFFF" d="M913.4,800.2c0-10.4,0-20.8,0-31.2c0-19.9,0.1-39.8-0.1-59.7c-0.1-13.8-8.3-22-22.1-22.7
			c-1.5-0.1-3,0-4.5,0c-32.7,0-65.3,0-98,0c-2.7,0-5.4,0-8,0.4c-10,1.5-17.2,8.9-18.3,18.9c-0.3,2.6-0.2,5.3-0.2,8
			c0,44.8,0,89.6,0,134.5c0,14-0.2,27.9,0.1,41.9c0.2,13.9,8.4,22.4,22.1,22.5c35.6,0.2,71.2,0.1,106.9,0.1c8.4,0,15.4-3.2,19-10.8
			c2-4.1,2.9-9.1,2.9-13.7C913.5,858.9,913.4,829.6,913.4,800.2z"/>
		<path fill="#FFFFFF" d="M1000.9,799.7c0,28.2,0,56.3,0,84.5c0,1.8,0,3.6,0,5.3c0.2,15,8.1,23.2,23.1,23.2
			c34.4,0.1,68.8,0.1,103.2,0c16.5,0,24.7-8,24.8-24.5c0.1-59,0.1-118,0-177c0-16.5-8.2-24.6-24.7-24.7
			c-33.8-0.1-67.6,0.2-101.4-0.2c-17.8-0.2-25.5,11.7-25.2,25.2C1001.4,741,1000.9,770.4,1000.9,799.7z"/>
	</g>
</g>
</svg>
