<svg xmlns="http://www.w3.org/2000/svg" viewBox="0 0 400 400"><defs><clipPath id="a"><circle cx="200" cy="200" r="200" fill="none"/></clipPath></defs><g clip-path="url(#a)"><path fill="#0090ba" d="M0 0h400v400H0V0Z"/><path fill="#fff" d="M257.64 88.89 207.97 237.6c-.59 1.8-1.67 3.41-3.11 4.64a9.075 9.075 0 0 1-4.87 2.13v.07h52.49c4.14-.1 7.74-2.86 8.93-6.82L311.1 88.89h-53.47Z"/><path fill="#fff" d="M196.98 240c2.36 0 4.44-1.33 5.71-3.33.38-.61.69-1.27.91-1.96l14.18-44.09-8.29-25.78a7.777 7.777 0 0 0-2.27-3.27 6.3 6.3 0 0 0-7.07-.89 7.223 7.223 0 0 0-2.84 2.67c-.38.61-.68 1.26-.91 1.93l-14.18 44.04 8.33 25.87a7.736 7.736 0 0 0 2.58 3.47c1.11.84 2.46 1.3 3.84 1.31v.02Zm3.02-84.44h-52.8a9.56 9.56 0 0 0-8.89 6.84L88.89 311.11h53.2l49.4-148.71c.61-1.9 1.76-3.58 3.31-4.84 1.48-1.2 3.3-1.9 5.2-2Z"/></g></svg>