<?xml version="1.0" encoding="UTF-8"?><svg id="Layer_2" xmlns="http://www.w3.org/2000/svg" viewBox="0 0 400 400"><g id="Layer_1-2"><circle cx="200" cy="200" r="200" style="stroke-width:0px;"/><path d="m320.57,134.09c0,10.59.08,21.17-.02,31.76-.16,16.16-11.57,27.49-27.78,27.56-20.39.08-40.79.09-61.18,0-16.28-.07-27.59-11.23-27.71-27.58-.15-21.17-.16-42.35.03-63.52.15-16.69,11.38-27.73,27.98-27.78,20.24-.07,40.48-.07,60.72.03,16.92.08,27.91,11.25,27.97,28.24.04,10.43,0,20.86,0,31.29h-.02Zm-14.03.45c0-10.27.04-20.54-.01-30.82-.05-9.47-5.25-14.77-14.7-14.81-19.77-.07-39.53-.07-59.3,0-9.39.04-14.74,5.49-14.75,14.84-.03,20.08-.03,40.15,0,60.23.01,9.7,4.95,14.79,14.53,14.82,19.77.06,39.53.06,59.3,0,10.29-.03,14.91-4.84,14.93-15.32.02-9.65,0-19.3,0-28.95Z" style="fill:#fff; stroke-width:0px;"/><path d="m262.6,208.32c10.28,0,20.55-.05,30.83.02,15.39.09,26.98,11.37,27.11,26.74.17,20.86.16,41.72-.01,62.58-.12,14.85-11.35,26.18-26.45,26.38-21.32.28-42.66.28-63.98,0-14.91-.19-25.77-10.9-26.1-26.14-.45-21.01-.43-42.04-.03-63.05.3-15.75,11.99-26.49,27.82-26.54,10.28-.03,20.55,0,30.83,0Zm-.38,14.6v-.02c-9.8,0-19.61-.05-29.41.01-10.02.07-15.06,5.25-15.06,15.36,0,18.67,0,37.35,0,56.02,0,10.59,5.05,15.62,15.77,15.63,19.14.02,38.28.02,57.42-.01,10.26-.02,15.58-5.3,15.59-15.45.02-18.67.02-37.35,0-56.02,0-10.48-4.93-15.47-15.37-15.52-9.65-.05-19.29,0-28.94,0Z" style="fill:#fff; stroke-width:0px;"/><path d="m190.15,134.08c0,10.59.19,21.18-.04,31.77-.37,16.77-11.46,27.5-28.21,27.55-18.22.05-36.44.06-54.67.03-17.03-.03-28.21-10.87-28.37-27.89-.19-21.18-.2-42.36-.03-63.54.14-16.37,11.42-27.37,27.83-27.43,18.53-.07,37.07-.08,55.6,0,16.87.07,27.67,10.81,27.9,27.74.14,10.59.03,21.18.03,31.77-.01,0-.03,0-.04,0Zm-13.85.47h-.02c0-10.27.09-20.54-.03-30.81-.11-9.47-5.42-14.79-14.8-14.82-17.9-.06-35.79-.06-53.69.03-9.83.05-14.97,5.19-15.01,15.03-.08,19.92-.08,39.84-.01,59.76.03,10.37,4.81,15.05,15.17,15.06,17.74,0,35.48-.01,53.22-.05,10.1-.02,15.14-5.09,15.17-15.24.03-9.65,0-19.3,0-28.94Z" style="fill:#fff; stroke-width:0px;"/><path d="m190.22,266.4c0,9.96.14,19.92-.03,29.88-.28,16.33-10.55,27.26-26.61,27.59-19.44.4-38.91.39-58.35.09-15.47-.24-26.21-11.27-26.37-26.83-.21-20.54-.25-41.08.03-61.62.22-16.58,11.34-27.16,27.94-27.18,18.52-.02,37.04-.04,55.55.01,16.78.04,27.67,10.84,27.89,27.72.13,10.11.02,20.23.02,30.34h-.06Zm-13.94.07c0-9.66.06-19.32-.02-28.97-.08-9.64-5.11-14.68-14.78-14.72-17.76-.07-35.51-.07-53.27,0-10.58.04-15.42,4.87-15.46,15.48-.07,18.85-.06,37.69,0,56.54.03,10,4.93,14.92,14.96,14.96,17.91.07,35.83.07,53.74,0,9.5-.03,14.72-5.27,14.81-14.78.09-9.5.02-19,.02-28.5Z" style="fill:#fff; stroke-width:0px;"/><path d="m272.02,167.93h-13.69c0-7.79.02-15.52,0-23.24-.03-8.74-.64-9.33-9.27-9.32-7.44,0-14.89,0-22.63,0v-13.93c11.02,0,21.89-.58,32.66.2,7.33.53,12.61,7.05,12.85,14.45.33,10.42.08,20.86.08,31.83Z" style="fill:#fff; stroke-width:0px;"/><path d="m226.31,278.4v-14.06c8.13,0,16.14,0,24.16,0,6.62,0,7.88-1.24,7.91-7.89.03-7.76,0-15.52,0-23.66h13.46c0,10.76.51,21.47-.18,32.1-.48,7.32-7.35,13.22-14.56,13.44-10.08.31-20.18.08-30.79.08Z" style="fill:#fff; stroke-width:0px;"/><path d="m167.89,120.78v14.64c-7.5,0-14.76-.01-22.03,0-5.6.01-7.22,1.52-7.28,7.14-.08,8.36-.02,16.72-.02,25.32h-13.59c0-5.79,0-11.48,0-17.17,0-4.2-.09-8.4-.02-12.61.16-9.75,5.24-16.32,14.83-17.16,9.22-.81,18.56-.17,28.11-.17Z" style="fill:#fff; stroke-width:0px;"/><path d="m125.03,232.02h13.54c0,5.5,0,10.87,0,16.24,0,3.11-.07,6.22,0,9.33.12,5.08,1.73,6.7,6.74,6.73,7.43.05,14.86.01,22.56.01v14.14c-1.97,0-4.06,0-6.15,0-7,0-14,.12-20.99-.03-8.8-.19-15.39-6.45-15.63-15.23-.28-10.23-.07-20.47-.07-31.18Z" style="fill:#fff; stroke-width:0px;"/></g></svg>