<?xml version="1.0" encoding="UTF-8"?>
<svg id="Layer_1" xmlns="http://www.w3.org/2000/svg" version="1.1" xmlns:xlink="http://www.w3.org/1999/xlink" viewBox="0 0 240 240">
  <!-- Generator: Adobe Illustrator 29.6.1, SVG Export Plug-In . SVG Version: 2.1.1 Build 9)  -->
  <defs>
    <style>
      .st0 {
        fill: #eaece8;
      }

      .st1 {
        fill: #4f8eb9;
      }

      .st2 {
        fill: #a7b4b1;
      }

      .st3 {
        fill: #cacaca;
      }

      .st4 {
        fill: #602c2c;
      }

      .st5 {
        fill: #73bdd2;
      }

      .st6 {
        fill: #090a14;
      }

      .st7 {
        fill: #202e37;
      }

      .st8 {
        fill: #9f9f9f;
      }

      .st9 {
        opacity: .3;
      }

      .st10 {
        fill: #874b2b;
      }

      .st11 {
        fill: none;
      }

      .st12 {
        fill: #c6cecb;
      }

      .st13 {
        fill: #809695;
      }

      .st14 {
        fill: #fe2626;
      }

      .st15 {
        fill: #ac7757;
      }

      .st16 {
        fill: #752438;
      }

      .st17 {
        fill: #6c6c6c;
      }

      .st18 {
        fill: #dd9d41;
      }

      .st19 {
        fill: #151d28;
      }

      .st20 {
        fill: #fe9a00;
      }

      .st21 {
        fill: #ce573c;
      }

      .st22 {
        fill: #394a50;
      }

      .st23 {
        fill: #577277;
      }

      .st24 {
        fill: #a3dcda;
      }

      .st25 {
        fill: #d9853e;
      }

      .st26 {
        fill: #bd772b;
      }

      .st27 {
        fill: url(#radial-gradient);
        opacity: .2;
      }

      .st28 {
        fill: #fefefe;
      }

      .st29 {
        clip-path: url(#clippath);
      }

      .st30 {
        fill: #10141f;
      }

      .st31 {
        fill: #818181;
      }

      .st32 {
        fill: #a43030;
      }
    </style>
    <radialGradient id="radial-gradient" cx="120" cy="120" fx="120" fy="120" r="120" gradientUnits="userSpaceOnUse">
      <stop offset="0" stop-color="#fe9a00"/>
      <stop offset="1" stop-color="#ff6900"/>
    </radialGradient>
    <clipPath id="clippath">
      <circle class="st11" cx="120" cy="120" r="108"/>
    </clipPath>
  </defs>
  <circle cx="120" cy="120" r="120"/>
  <circle class="st27" cx="120" cy="120" r="120"/>
  <g class="st9">
    <path class="st20" d="M120,4c30.98,0,60.11,12.07,82.02,33.98,21.91,21.91,33.98,51.04,33.98,82.02s-12.07,60.11-33.98,82.02c-21.91,21.91-51.04,33.98-82.02,33.98s-60.11-12.07-82.02-33.98C16.07,180.11,4,150.98,4,120s12.07-60.11,33.98-82.02C59.89,16.07,89.02,4,120,4M120,0C53.73,0,0,53.73,0,120s53.73,120,120,120,120-53.73,120-120S186.27,0,120,0h0Z"/>
  </g>
  <g class="st29">
    <g>
      <path class="st6" d="M212.02,92v-8h-.02s-8,0-8,0V4h0s-8,0-8,0c0-2.66,0-5.33,0-7.99h-8c0,2.66,0,5.33,0,7.99h-8v8.01h-16c-.01-5.33,0-10.67,0-16h-8c0-2.66,0-5.34,0-8h-8V-4h-8v16h-7.99V-4.01h-8.01c-.01-5.33,0-10.67,0-15.99h0s-8,0-8,0c0-2.66,0-5.33,0-7.99h-8c0,2.66,0,5.33,0,7.99h-8.01V-4.01h-7.99V12h-8c-.02-5.33.01-10.67,0-16h-8c0-2.66,0-5.34,0-8h-8c0,2.66,0,5.34,0,8h-8v16h0s-8,0-8,0v73.42h0c0,7.52,0,15.05,0,22.57h0s-8,0-8,0v9.94c-.02,6.71,0,13.42,0,20.13v33.93h0c2.66.01,5.34,0,8,0h0s0,0,0,0h0s0,0,0,0c0,2.66,0,5.34,0,8h8v8h24v8h-16v8h-8v8h-8v8h-5.62c-.79,0-1.59,0-2.38,0h0s-.01,0-.01,0v48h160.01v-48h-8v-8s0,0,0,0h-7.99v-8h-8.01v-8h0s-24,0-24,0c0-2.66,0-5.34,0-8h24c.01-2.66-.02-5.34,0-8h8v-8c2.66-.02,5.34.01,8,0h0s.03,0,.03,0v-7.99h7.97v-24c2.66,0,5.34,0,8,0h0s.02,0,.02,0v-8c2.65,0,5.32,0,7.98,0v-40c-2.65,0-5.32,0-7.98,0Z"/>
      <path class="st3" d="M212,100c0-2.66,0-5.34,0-8-5.33-.02-10.67.01-16,0-5.33-.01-10.67.02-16,0-2.66,0-5.34,0-8,0,0-2.66,0-5.34,0-8-2.66,0-5.34,0-8,0-31.99.03-64.01-.11-96,0-2.66,0-5.34,0-8,0,0,8,0,16.01,0,24-2.66,0-5.34,0-8,0v56s0,5.34,0,8c2.66,0,5.34,0,8,0,0,2.66,0,5.34,0,8,2.66,0,5.34,0,8,0,31.99.07,64.01.03,96,0,2.66,0,5.34,0,8,0,2.66,0,5.34,0,8,0,.02-2.66-.01-5.34,0-8,2.66-.01,5.34.02,8,0,.02-2.66-.01-5.34,0-8,2.66-.01,5.34.02,8,0,.03-7.99,0-16.01,0-24,2.66,0,5.34,0,8,0,0-2.66,0-5.34,0-8,2.66,0,5.34,0,8,0,.04-10.66.02-21.34,0-32Z"/>
      <path class="st18" d="M196,4c-2.66,0-5.34,0-8,0,0,2.66,0,5.34,0,8h-8c0,2.66,0,5.34,0,8h-8v8h-8c0-2.66,0-5.34,0-8s0-5.34,0-8h-8c0-2.66,0-5.34,0-8s0-5.34,0-8c-2.66,0-5.34,0-8,0,0,2.66,0,5.34,0,8,0,2.66,0,5.34,0,8-2.66,0-5.34-.01-8,0,0,2.66,0,5.34,0,8h-8c0-2.66,0-5.34,0-8-2.66,0-5.34,0-8,0-.01-5.33.01-10.67,0-16-2.66,0-5.34,0-8,0-.01-5.33.02-10.67,0-16-2.66,0-5.34,0-8,0-.02,5.33.01,10.67,0,16-2.66,0-5.34,0-8,0-.01,5.33,0,10.67,0,16-2.66,0-5.34-.01-8,0,0,2.66,0,5.34,0,8h-8c0-2.66,0-5.34,0-8-2.66,0-5.34,0-8,0-.01-5.33.02-10.67,0-16-2.66,0-5.34,0-8,0-.02,5.33.01,10.67,0,16-2.66.01-5.34-.02-8,0-.04,18.66-.06,37.34,0,56,0,2.66,0,5.34,0,8,2.66,0,5.34-.01,8,0,29.33.1,58.67.03,88,0,5.33,0,10.67.01,16,0v8c2.66,0,5.34,0,8,0,5.33-.01,10.67,0,16,0-.07-26.66.09-53.34,0-80Z"/>
      <path class="st22" d="M188,260v-8c2.66,0,5.34,0,8,0v-8c-2.66,0-5.34,0-8,0,0-2.66,0-5.34,0-8,2.66,0,5.34,0,8,0v-8c-2.66,0-5.34,0-8,0,0-2.66,0-5.34,0-8-2.66,0-5.34.01-8,0,0-2.66,0-5.34,0-8-2.66,0-5.34.01-8,0,0-2.66,0-5.34,0-8-2.66,0-5.34.01-8,0v-8h-8c0,2.66,0,5.34,0,8-2.66,0-5.34,0-8,0,0-5.33,0-10.67,0-16h-8c0,5.33.01,10.67,0,16,0,2.66,0,5.34,0,8-2.66,0-5.34,0-8,0,0-5.33.02-10.67,0-16,0-2.66,0-5.34,0-8h-8c0,2.66,0,5.34,0,8-.02,5.33,0,10.67,0,16-2.66,0-5.34,0-8,0,0-5.33.02-10.67,0-16,0-2.66,0-5.34,0-8h-8c0,2.66,0,5.34,0,8-.02,5.33,0,10.67,0,16-2.66,0-5.34,0-8,0,0-5.33.02-10.67,0-16,0-2.66,0-5.34,0-8h-8c-.01,2.66.02,5.34,0,8-.02,2.66.01,5.34,0,8-2.66,0-5.34-.01-8,0-2.66,0-5.34,0-8,0v-8c-2.66.02-5.34-.01-8,0,0,2.66.01,5.34,0,8,0,2.66,0,5.34,0,8-2.66,0-5.34,0-8,0,0,2.66,0,5.34,0,8-2.66,0-5.34,0-8,0,0,2.66,0,5.34,0,8,0,2.66,0,5.34,0,8,0,2.66,0,5.34,0,8v24h144v-8c-2.66,0-5.34.01-8,0Z"/>
      <rect class="st11" x="12" y="-36" width="216" height="312"/>
      <path class="st0" d="M44,156c2.66,0,5.34,0,8,0s5.34,0,8,0,5.34,0,8,0v8c-2.66,0-5.34,0-8,0s-5.34,0-8,0-5.34,0-8,0-5.34,0-8,0v-8c2.66,0,5.34,0,8,0Z"/>
      <path class="st14" d="M36,156v8c-2.66,0-5.34,0-8,0v-8c2.66,0,5.34,0,8,0Z"/>
      <g>
        <path class="st23" d="M68,196c0,2.66.01,5.34,0,8,2.66,0,5.34,0,8,0v-8c-2.66.02-5.34-.01-8,0Z"/>
        <path class="st23" d="M156,196c0,2.66,0,5.34,0,8,2.66,0,5.34,0,8,0v-8h-8Z"/>
      </g>
      <path class="st30" d="M188,228c2.66,0,5.34,0,8,0v8c-2.66,0-5.34,0-8,0,0-2.66,0-5.34,0-8Z"/>
      <path class="st31" d="M180,132c0,2.66,0,5.34,0,8h-8c0-2.66,0-5.34,0-8h8Z"/>
      <path class="st31" d="M212,100c.02,10.66.04,21.34,0,32-2.66,0-5.34,0-8,0,0,2.66,0,5.34,0,8-2.66,0-5.34,0-8,0,0,7.99.03,16.01,0,24-2.66.02-5.34-.01-8,0-.01,2.66.02,5.34,0,8-2.66.02-5.34-.01-8,0-.01,2.66.02,5.34,0,8-2.66,0-5.34,0-8,0v-16h8c0-7.99,0-16,0-24,5.33,0,10.67.01,16,0,0-2.66,0-5.34,0-8,2.66,0,5.34,0,8,0,0-10.66,0-21.34,0-32h8Z"/>
      <path class="st30" d="M140,204c.01-5.33,0-10.67,0-16h8c0,5.33,0,10.67,0,16h-8Z"/>
      <path class="st8" d="M60,164v8c2.66,0,5.34,0,8,0v8c-2.66,0-5.34,0-8,0,0-2.66,0-5.34,0-8-2.66,0-5.34,0-8,0,0-2.66,0-5.34,0-8,2.66,0,5.34,0,8,0Z"/>
      <path class="st8" d="M172,172v8c-2.66,0-5.34,0-8,0v-8s8,0,8,0Z"/>
      <path class="st30" d="M92,196c.02-2.66-.01-5.34,0-8h8c0,2.66,0,5.34,0,8h-8Z"/>
      <path class="st30" d="M108,196c0-2.66,0-5.34,0-8h8c0,2.66,0,5.34,0,8h-8Z"/>
      <path class="st30" d="M124,196c0-2.66,0-5.34,0-8h8c0,2.66,0,5.34,0,8h-8Z"/>
      <g>
        <path class="st19" d="M156,212c0,2.66,0,5.34,0,8,2.66,0,5.34,0,8,0v-8c-2.66,0-5.34,0-8,0Z"/>
        <path class="st19" d="M180,228c2.66,0,5.34,0,8,0,0-2.66,0-5.34,0-8-2.66,0-5.34.01-8,0,0,2.66,0,5.34,0,8Z"/>
        <path class="st19" d="M164,220v8c2.66,0,5.34,0,8,0,0-2.66,0-5.34,0-8-2.66,0-5.34,0-8,0Z"/>
        <path class="st19" d="M172,220c2.66,0,5.34,0,8,0,0-2.66,0-5.34,0-8-2.66,0-5.34.01-8,0,0,2.66,0,5.34,0,8Z"/>
        <path class="st19" d="M172,212c0-2.66,0-5.34,0-8-2.66,0-5.34.01-8,0v8c2.66,0,5.34,0,8,0Z"/>
        <path class="st19" d="M172,228c0,2.66,0,5.34,0,8,2.66,0,5.34,0,8,0,0-2.66,0-5.34,0-8-2.66,0-5.34,0-8,0Z"/>
        <path class="st19" d="M188,244c0-2.66,0-5.34,0-8-2.66,0-5.34,0-8,0,0,2.66,0,5.34,0,8,2.66,0,5.34,0,8,0Z"/>
        <path class="st19" d="M60,212c0,2.66,0,5.34,0,8,2.66,0,5.34,0,8,0,0-2.66-.01-5.34,0-8-2.66,0-5.34,0-8,0Z"/>
        <path class="st19" d="M52,228c2.66,0,5.34,0,8,0,0-2.66,0-5.34,0-8-2.66,0-5.34,0-8,0,0,2.66,0,5.34,0,8Z"/>
        <path class="st19" d="M68,204c0,2.66,0,5.34,0,8,2.66,0,5.34,0,8,0v-8c-2.66,0-5.34,0-8,0Z"/>
        <path class="st19" d="M52,244h8v-8h-8c0,2.66,0,5.34,0,8Z"/>
        <path class="st19" d="M92,196c-.02,2.66.01,5.34,0,8-2.66,0-5.34-.01-8,0v8c2.66,0,5.34,0,8,0,2.66,0,5.34,0,8,0,0-5.33.02-10.67,0-16h-8Z"/>
        <path class="st19" d="M124,196c-.02,5.33,0,10.67,0,16,2.66,0,5.34,0,8,0,0-5.33.02-10.67,0-16h-8Z"/>
        <path class="st19" d="M108,196c-.02,5.33,0,10.67,0,16,2.66,0,5.34,0,8,0,0-5.33.02-10.67,0-16h-8Z"/>
        <path class="st19" d="M140,212c2.66,0,5.34,0,8,0,0-2.66,0-5.34,0-8h-8c0,2.66,0,5.34,0,8Z"/>
      </g>
      <g>
        <path class="st13" d="M76,204v8c2.66,0,5.34,0,8,0v-8c-2.66,0-5.34,0-8,0Z"/>
        <path class="st13" d="M148,204c0,2.66,0,5.34,0,8,2.66,0,5.34,0,8,0,0-2.66,0-5.34,0-8-2.66,0-5.34,0-8,0Z"/>
        <path class="st13" d="M140,220c2.66,0,5.34,0,8,0v-8c-2.66,0-5.34,0-8,0,0,2.66,0,5.34,0,8Z"/>
      </g>
      <g>
        <path class="st7" d="M132,236c-2.66,0-5.34,0-8,0v8c2.66,0,5.34,0,8,0v-8Z"/>
        <path class="st7" d="M140,228h-8c0,2.66,0,5.34,0,8,2.66,0,5.34,0,8,0,0-2.66,0-5.34,0-8Z"/>
        <path class="st7" d="M148,244c0-2.66,0-5.34,0-8-2.66,0-5.34,0-8,0v8c2.66,0,5.34,0,8,0Z"/>
        <path class="st7" d="M164,236c-2.66,0-5.34,0-8,0v8c2.66,0,5.34,0,8,0v-8Z"/>
        <rect class="st7" x="92" y="236" width="8" height="8"/>
        <path class="st7" d="M156,228c-2.66,0-5.34,0-8,0,0,2.66.01,5.34,0,8,2.66,0,5.34,0,8,0,0-2.66,0-5.34,0-8Z"/>
        <path class="st7" d="M68,236h8c.01-5.33,0-10.67,0-16,2.66,0,5.34.01,8,0v-8c-2.66,0-5.34,0-8,0-2.66,0-5.34,0-8,0,0,2.66,0,5.34,0,8-2.66,0-5.34-.01-8,0,0,2.66,0,5.34,0,8,2.66,0,5.34,0,8,0,0,2.66-.01,5.34,0,8Z"/>
        <path class="st7" d="M68,236h-8v8h8c0-2.66,0-5.34,0-8Z"/>
        <path class="st7" d="M52,228c0,2.66,0,5.34,0,8h8c0-2.66,0-5.34,0-8-2.66,0-5.34,0-8,0Z"/>
        <path class="st7" d="M188,236c0-2.66,0-5.34,0-8-2.66,0-5.34,0-8,0,0,2.66,0,5.34,0,8,2.66,0,5.34,0,8,0Z"/>
        <path class="st7" d="M84,244c0-2.66,0-5.34,0-8h-8c0,2.66,0,5.34,0,8h8Z"/>
        <rect class="st7" x="108" y="236" width="8" height="8"/>
        <path class="st7" d="M108,228c-2.66,0-5.34,0-8,0,0,2.66,0,5.34,0,8h8c0-2.66,0-5.34,0-8Z"/>
        <path class="st7" d="M92,228c-2.66,0-5.34,0-8,0,0,2.66.01,5.34,0,8h8v-8Z"/>
        <path class="st7" d="M148,212v8c2.66,0,5.34,0,8,0,0-2.66,0-5.34,0-8-2.66,0-5.34,0-8,0Z"/>
        <path class="st7" d="M164,228v-8c-2.66,0-5.34,0-8,0,0,2.66,0,5.34,0,8,2.66,0,5.34,0,8,0Z"/>
        <path class="st7" d="M172,236c0,2.66,0,5.34,0,8,2.66,0,5.34,0,8,0,0-2.66,0-5.34,0-8-2.66,0-5.34,0-8,0Z"/>
        <path class="st7" d="M172,236c0-2.66,0-5.34,0-8-2.66,0-5.34,0-8,0v8c2.66,0,5.34,0,8,0Z"/>
        <path class="st7" d="M108,212c-2.66,0-5.34,0-8,0,0,2.66,0,5.34,0,8,2.66,0,5.34,0,8,0,0-2.66,0-5.34,0-8Z"/>
        <path class="st7" d="M124,212c-2.66,0-5.34,0-8,0,0,2.66,0,5.34,0,8,2.66,0,5.34,0,8,0,0-2.66,0-5.34,0-8Z"/>
        <path class="st7" d="M140,212c-2.66,0-5.34,0-8,0,0,2.66,0,5.34,0,8,2.66,0,5.34,0,8,0,0-2.66,0-5.34,0-8Z"/>
      </g>
      <path class="st26" d="M180,20c-.04,18.66,0,37.34,0,56-2.66,0-5.34,0-8,0-5.33.01-10.67,0-16,0v-8h8c-.01-13.33.01-26.67,0-40h8v-8h8Z"/>
      <path class="st8" d="M68,84v16c0,2.66,0,5.34,0,8h-8c-.02,15.99.01,32.01,0,48-2.66,0-5.34,0-8,0v-48c2.66,0,5.34,0,8,0,0-8,0-16.01,0-24,2.66,0,5.34.01,8,0Z"/>
      <path class="st8" d="M180,140c0,8,0,16.01,0,24h-8c0-8,0-16.01,0-24h8Z"/>
      <path class="st8" d="M212,92c0,2.66,0,5.34,0,8h-8c0,10.66.01,21.34,0,32-2.66,0-5.34,0-8,0,0-5.33.02-10.67,0-16,0-2.66,0-5.34,0-8-2.66,0-5.34.01-8,0s-5.34,0-8,0c0,7.99,0,16.01,0,24h16c0,2.66,0,5.34,0,8-5.33.01-10.67,0-16,0,0-2.66,0-5.34,0-8h-8c0-7.99-.03-16.01,0-24,2.66,0,5.34,0,8,0v-8c5.33-.02,10.67.01,16,0v-8c5.33.01,10.67-.02,16,0Z"/>
      <path class="st8" d="M172,84c0,2.66,0,5.34,0,8,2.66,0,5.34-.01,8,0v8c-2.66,0-5.34,0-8,0,0,2.66.01,5.34,0,8-2.66,0-5.34,0-8,0v-24c2.66,0,5.34,0,8,0Z"/>
      <path class="st26" d="M60,68h8s0,8,0,8c-2.66,0-5.34,0-8,0,0-2.66.01-5.34,0-8Z"/>
      <path class="st10" d="M188,12c-.05,21.33.03,42.67,0,64-2.66,0-5.34-.01-8,0v8c-2.66,0-5.34,0-8,0v-8c2.66,0,5.34,0,8,0,0-18.66-.04-37.34,0-56,0-2.66,0-5.34,0-8h8Z"/>
      <path class="st4" d="M196,4c.09,26.66-.07,53.34,0,80-5.33,0-10.67-.01-16,0v-8c2.66,0,5.34,0,8,0,.03-21.33-.05-42.67,0-64,0-2.66,0-5.34,0-8,2.66,0,5.34,0,8,0Z"/>
      <path class="st26" d="M164,12c0,2.66,0,5.34,0,8h-8c0-2.66.01-5.34,0-8h8Z"/>
      <path class="st26" d="M116-20c.02,5.33-.01,10.67,0,16,2.66,0,5.34,0,8,0,.01,5.33-.01,10.67,0,16,2.66,0,5.34,0,8,0,0,2.66,0,5.34,0,8v8c-2.66,0-5.34,0-8,0,0-5.33.01-10.67,0-16-2.66,0-5.34,0-8,0,0-5.33.01-10.67,0-16-2.66,0-5.34,0-8,0,.01-5.33-.02-10.67,0-16,2.66,0,5.34,0,8,0Z"/>
      <path class="st26" d="M156-4c0,2.66,0,5.34,0,8h-8c0-2.66,0-5.34,0-8,2.66,0,5.34,0,8,0Z"/>
      <path class="st4" d="M92,20c0,2.66,0,5.34,0,8h-8c0-2.66,0-5.34,0-8h8Z"/>
      <path class="st4" d="M140,20c0,2.66,0,5.34,0,8-2.66,0-5.34,0-8,0v-8h8Z"/>
      <path class="st30" d="M172,212c0,2.66,0,5.34,0,8-2.66,0-5.34,0-8,0v-8c2.66,0,5.34,0,8,0Z"/>
      <path class="st30" d="M164,204v8c-2.66,0-5.34,0-8,0,0-2.66,0-5.34,0-8,2.66,0,5.34,0,8,0Z"/>
      <path class="st30" d="M180,220c0,2.66,0,5.34,0,8-2.66,0-5.34,0-8,0,0-2.66,0-5.34,0-8,2.66,0,5.34,0,8,0Z"/>
      <path class="st8" d="M124,108c0,2.66,0,5.34,0,8,2.66,0,5.34-.01,8,0,0,2.66,0,5.34,0,8s0,5.34,0,8c-2.66.02-5.34-.01-8,0v8s-24,0-24,0v-8c-2.66-.01-5.34.02-8,0,0-2.66,0-5.34,0-8s0-5.34,0-8c2.66,0,5.34,0,8,0,0-2.66,0-5.34,0-8,7.99-.03,16.01.02,24,0Z"/>
      <path class="st6" d="M76,100v-8h16v8h8v8c-2.66,0-5.34,0-8,0,0,2.66.01,5.34,0,8-2.66,0-5.34,0-8,0h-16c0-2.66,0-5.34,0-8s0-5.34,0-8c2.66,0,5.34,0,8,0,0,2.66,0,5.34,0,8h8v-8c-2.66,0-5.34,0-8,0Z"/>
      <path class="st6" d="M132,100c0-2.66,0-5.34,0-8h16v8h8c-.01,5.33.02,10.67,0,16h-16c-2.66,0-5.34,0-8,0,0-2.66,0-5.34,0-8,2.66,0,5.34,0,8,0v-8h-8c0,2.66,0,5.34,0,8-2.66,0-5.34,0-8,0,0-2.66,0-5.34,0-8,2.66,0,5.34,0,8,0Z"/>
      <path class="st24" d="M148,124v24h-16c0-2.66,0-5.34,0-8s0-5.34,0-8c2.66-.02,5.34.01,8,0,0-2.66,0-5.34,0-8,2.66,0,5.34,0,8,0Z"/>
      <path class="st24" d="M84,124c0,2.66,0,5.34,0,8,2.66.01,5.34-.02,8,0,0,2.66,0,5.34,0,8s0,5.34,0,8h-16v-24c2.66,0,5.34,0,8,0Z"/>
      <path class="st15" d="M100,156c10.66-.01,21.34,0,32,0v8c-10.66,0-21.34.01-32,0v-8Z"/>
      <path class="st25" d="M92,156v8c-5.33-.01-10.67,0-16,0v-8c5.33,0,10.67.01,16,0Z"/>
      <path class="st5" d="M156,116c0,2.66,0,5.34,0,8-2.66,0-5.34-.01-8,0s-5.34,0-8,0c0,2.66,0,5.34,0,8-2.66.01-5.34-.02-8,0,0-2.66,0-5.34,0-8h8v-8h16Z"/>
      <path class="st5" d="M84,116v8h8c0,2.66,0,5.34,0,8-2.66-.02-5.34.01-8,0,0-2.66,0-5.34,0-8-2.66,0-5.34,0-8,0s-5.34,0-8,0c0-2.66.01-5.34,0-8h16Z"/>
      <path class="st17" d="M92,132c2.66.02,5.34-.01,8,0v8h-8c0-2.66,0-5.34,0-8Z"/>
      <path class="st17" d="M132,132c0,2.66,0,5.34,0,8h-8v-8c2.66-.01,5.34.02,8,0Z"/>
      <path class="st21" d="M100,156v8c-2.66,0-5.34,0-8,0v-8c2.66,0,5.34,0,8,0Z"/>
      <path class="st0" d="M124,220c0,2.66,0,5.34,0,8h-8c0,2.66,0,5.34,0,8h-8c0-2.66,0-5.34,0-8,2.66,0,5.34,0,8,0,0-2.66,0-5.34,0-8,2.66,0,5.34,0,8,0Z"/>
      <g>
        <path class="st2" d="M84,220c2.66,0,5.34,0,8,0v-8c-2.66,0-5.34,0-8,0v8Z"/>
        <path class="st2" d="M100,228c2.66,0,5.34,0,8,0,0-2.66,0-5.34,0-8-2.66,0-5.34,0-8,0,0,2.66,0,5.34,0,8Z"/>
        <path class="st2" d="M132,220c0,2.66,0,5.34,0,8h8c0-2.66,0-5.34,0-8-2.66,0-5.34,0-8,0Z"/>
      </g>
      <path class="st32" d="M108,28v24h-8c-.03-7.99.02-16.01,0-24,2.66,0,5.34,0,8,0Z"/>
      <path class="st16" d="M108,28c2.66,0,5.34,0,8,0-.02,7.99.03,16.01,0,24h-8v-24Z"/>
      <path class="st26" d="M140,52h8c0,2.66,0,5.34,0,8h-16c0-2.66,0-5.34,0-8h8Z"/>
      <path class="st32" d="M76,36v16h-8c-.02-5.33.02-10.67,0-16,2.66,0,5.34.01,8,0Z"/>
      <path class="st16" d="M84,36c-.01,5.33.02,10.67,0,16-2.66,0-5.34,0-8,0v-16c2.66,0,5.34,0,8,0Z"/>
      <path class="st26" d="M84,36c2.66,0,5.34,0,8,0v16c-2.66,0-5.34,0-8,0,0,2.66,0,5.34,0,8h-16c0-2.66,0-5.34,0-8h8c2.66,0,5.34,0,8,0,.02-5.33-.01-10.67,0-16Z"/>
      <path class="st32" d="M140,36v16h-8c-.02-5.33.02-10.67,0-16,2.66,0,5.34,0,8,0Z"/>
      <path class="st16" d="M140,36c2.66,0,5.34,0,8,0-.02,5.33.02,10.67,0,16h-8v-16Z"/>
      <path class="st26" d="M108,52h8c0,2.66,0,5.34,0,8h-16c0-2.66,0-5.34,0-8h8Z"/>
      <path class="st17" d="M188,108v8s8,0,8,0c.02,5.33,0,10.67,0,16h-16c0-7.99,0-16.01,0-24,2.66,0,5.34,0,8,0Z"/>
      <path class="st31" d="M188,108c2.66,0,5.34,0,8,0,0,2.66-.01,5.34,0,8h-8s0-8,0-8Z"/>
      <path class="st1" d="M100,108c0,2.66,0,5.34,0,8-2.66,0-5.34-.01-8,0,0,2.66,0,5.34,0,8h-8v-8c2.66,0,5.34,0,8,0,0-2.66,0-5.34,0-8,2.66,0,5.34.01,8,0Z"/>
      <path class="st1" d="M132,108c0,2.66,0,5.34,0,8,2.66,0,5.34,0,8,0v8h-8c0-2.66,0-5.34,0-8-2.66,0-5.34,0-8,0,0-2.66,0-5.34,0-8,2.66,0,5.34,0,8,0Z"/>
      <path class="st0" d="M76,100c2.66,0,5.34,0,8,0v8h-8c0-2.66,0-5.34,0-8Z"/>
      <path class="st0" d="M132,100h8v8c-2.66,0-5.34,0-8,0,0-2.66,0-5.34,0-8Z"/>
      <g>
        <path class="st12" d="M36,92v-8h-8c0,2.66,0,5.34,0,8,2.66-.02,5.34.01,8,0Z"/>
        <path class="st12" d="M36,116v-8c-2.66-.01-5.34.02-8,0-.01,7.99,0,16.01,0,24h-8v24c2.66,0,5.34,0,8,0,2.66,0,5.34,0,8,0,0-5.33,0-10.67,0-16h8c0-7.99-.03-16,0-24h-8Z"/>
        <path class="st12" d="M28,92c-2.66.02-5.34-.01-8,0v16c2.66.01,5.34-.02,8,0,0-5.33-.02-10.67,0-16Z"/>
        <path class="st12" d="M92,228c2.66,0,5.34,0,8,0,0-2.66,0-5.34,0-8-2.66,0-5.34,0-8,0v8Z"/>
        <path class="st12" d="M116,236c2.66,0,5.34,0,8,0,0-2.66,0-5.34,0-8h-8c0,2.66,0,5.34,0,8Z"/>
        <path class="st12" d="M124,220c0,2.66,0,5.34,0,8h8c0-2.66,0-5.34,0-8-2.66,0-5.34,0-8,0Z"/>
      </g>
      <path class="st28" d="M116,220c0,2.66,0,5.34,0,8-2.66,0-5.34,0-8,0,0-2.66,0-5.34,0-8,2.66,0,5.34,0,8,0Z"/>
      <rect class="st11" x="12" y="-36" width="216" height="312"/>
    </g>
  </g>
</svg>