<?xml version="1.0" encoding="UTF-8"?><svg id="Layer_2" xmlns="http://www.w3.org/2000/svg" viewBox="0 0 400 400"><g id="Layer_1-2"><circle cx="200" cy="200" r="200" style="fill:#0000fe; stroke-width:0px;"/><path d="m133.07,236.94h-44.51c-.11-1.7-.31-3.29-.31-4.88-.02-25.32.07-50.65-.09-75.97-.03-4,1.25-5.08,5.13-5.08,71.14.1,142.27.08,213.41.05,2.89,0,5.16-.03,5.14,4.04-.13,26.49-.08,52.98-.11,79.47,0,.64-.22,1.27-.42,2.37h-44.37l.12.12v-48.63h-45.13v48.62l.12-.12c-14.7,0-29.4,0-44.11,0l.12.12v-48.64h-45.13v48.64l.13-.13Z" style="fill:#fff; stroke-width:0px;"/><path d="m177.95,236.94v67.77h-44.88v-67.77l-.13.13c15.04,0,30.09,0,45.13,0l-.12-.12Z" style="fill:#fff; stroke-width:0px;"/><path d="m266.94,236.94v67.77h-44.89v-67.77s-.12.12-.12.12c15.04,0,30.09,0,45.13,0l-.12-.12Z" style="fill:#fff; stroke-width:0px;"/><path d="m178.15,95.09h43.61v35.74h-43.61v-35.74Z" style="fill:#fff; stroke-width:0px;"/></g></svg>