<?xml version="1.0" encoding="utf-8"?>
<!-- Generator: Adobe Illustrator 28.0.0, SVG Export Plug-In . SVG Version: 6.00 Build 0)  -->
<svg version="1.1" id="sd_x5F_token" xmlns="http://www.w3.org/2000/svg" xmlns:xlink="http://www.w3.org/1999/xlink" x="0px"
	 y="0px" viewBox="0 0 1080 1080" style="enable-background:new 0 0 1080 1080;" xml:space="preserve">
<style type="text/css">
	.st0{fill:#495DB2;}
	.st1{fill:#FE3C00;}
</style>
<circle id="BG" class="st0" cx="540" cy="540" r="540"/>
<g id="sd_x5F_logo">
	<g>
		<path class="st1" d="M540.5,658.1c-83.6,0-151.6-68-151.6-151.6c0-37.7,13.9-73.8,39.2-101.7l22.3,20.2
			c-20.2,22.4-31.4,51.3-31.4,81.5c0,67,54.5,121.5,121.5,121.5S662,573.5,662,506.5c0-31-11.7-60.5-32.9-83.1l22-20.6
			c26.5,28.2,41.1,65,41.1,103.7C692.1,590.1,624.1,658.1,540.5,658.1z"/>
	</g>
	<g>
		<polygon class="st1" points="538.6,529.7 219.8,210.9 241.1,189.5 538.6,487.1 728.7,297 557.4,297 557.4,266.8 801.5,266.8 		"/>
	</g>
	<g>
		<rect x="525.4" y="643" class="st1" width="30.1" height="299.2"/>
	</g>
	<g>
		<rect x="677" y="493.3" class="st1" width="182.7" height="30.1"/>
	</g>
	<g>
		<rect x="220.8" y="493.3" class="st1" width="183.1" height="30.1"/>
	</g>
	<g>
		
			<rect x="285.2" y="652.5" transform="matrix(0.7071 -0.7072 0.7072 0.7071 -361.4179 462.6607)" class="st1" width="185" height="30.1"/>
	</g>
	<g>
		
			<rect x="687.9" y="575.2" transform="matrix(0.7071 -0.7071 0.7071 0.7071 -265.9878 692.521)" class="st1" width="30.1" height="184.2"/>
	</g>
</g>
</svg>
