<?xml version="1.0" encoding="utf-8"?>
<!-- Generator: Adobe Illustrator 27.5.0, SVG Export Plug-In . SVG Version: 6.00 Build 0)  -->
<svg version="1.1" id="Layer_1" xmlns="http://www.w3.org/2000/svg" xmlns:xlink="http://www.w3.org/1999/xlink" x="0px" y="0px"
	 viewBox="0 0 1080 1080" style="enable-background:new 0 0 1080 1080;" xml:space="preserve">
<style type="text/css">
	.st0{fill:#031724;}
	.st1{fill:#FFFFFF;}
	.st2{fill-rule:evenodd;clip-rule:evenodd;fill:#FFFFFF;}
	.st3{fill:#FFFFFF;filter:url(#Adobe_OpacityMaskFilter);}
	
		.st4{mask:url(#path-6-inside-1_211_2_00000103225008439326807020000012834143522196073088_);fill:#FFFFFF;stroke:#031724;stroke-width:20.3807;}
</style>
<circle class="st0" cx="540" cy="540" r="540"/>
<path class="st1" d="M812.8,356.4c-43.4-67.5-111.9-115-190.3-131.9c-78.4-17-160.3-2-227.7,41.5S280,378.2,263,456.7
	s-2.1,160.6,41.3,228.1l46.7-30.2c-35.5-55.1-47.6-122.1-33.7-186.2c13.9-64.1,52.6-120.1,107.6-155.7
	c55-35.5,121.9-47.7,185.9-33.9c64,13.8,119.9,52.6,155.3,107.7L812.8,356.4z"/>
<path class="st2" d="M265.7,758.6c0.3,62,1,73.3,2.4,73.3c1.2,0,0.3-47.8,0.1-61.6c0-2.1-0.1-3.4-0.1-3.6c0-1.5,4.6-3.4,10.7-5.3
	l249.6,54.2l207.9-57.1l4.9-23.1c0.3-0.5,0.6-1.1,0.8-1.6c2.1-4.2,3.7-7.3,8.6,5.7c2.1,5.7,6,2.4,9.4-0.6c2.5-2.2,4.8-4.1,5.9-2
	c1.9,3.6,6.7,46.3,9.5,71.6v0l0,0v0c1.1,10,2,17.3,2.1,18.3c-6.9-63.8-5.2-90.5-2.6-131v0l0,0c1.8-27.9,4-62.5,4-120.2l0-20l0.2-0.8
	V318.5l-0.2,237l-37.8,179.9c-1.8,3.3-4.3,6.2-9.4,1.4c-22.1-20.2-35.7-26.5-46.5-20.7l-5.7,2.8l-8.9-9.4
	c-16.9-17.4-22.3-28.2-16.9-33.6c0.9-0.9,3-12.2,4.4-25.1c4.5-40.6,7.8-55.9,15.5-70.9c2.4-5,4.5-11,4.5-13.2c0-2.4-4-13.6-8.9-24.9
	c-14.3-33.4-17.8-45.1-17.8-60.1c0-7.3,1-17.4,2.3-22.5c3-12.4,1.4-42.8-4.2-80.1c-4.4-29.4-7.8-41.1-12.5-43
	c-9.8-3.7-27.3,10.6-37.3,30.5c-7.8,15.5-18.3,33.3-22.5,38.3c-3.5,3.8-3.7,4-9.2,1c-3.8-2.1-10.3-3-19.7-3.1l-13.9-0.2l-1.4,47
	c-2.1,73.1-6.3,68.8-7-7.3c-0.2-21.2-0.9-39-1.2-39.3c-0.5-0.3-7.1-1.2-14.8-1.6c-14.6-1-29.8,1.7-32.2,5.6c-3,4.9-7.1-0.9-20.4-27
	c-16-32.2-24.4-42.7-33.9-42.7c-7.8,0-15,5.6-16.2,12.7c-1.9,11-6.1,73.8-6.1,90c0.2,9.1,1.2,21.6,2.6,27.9
	c4.2,19.3,3.5,31-3.5,49.1c-3.3,8.9-6.1,17.2-6.1,18.5c0,1.4-1,4.9-2.4,7.8c-1.4,3.1-4.2,10.3-6.1,16.2l-3.7,10.6l4.4,7.8
	c5.6,9.9,10.6,32.9,13.9,62.8c1.4,12.5,3.3,26.8,4.2,31.5c0.9,4.7,1,10.1,0.3,11.8c-1.6,4.4-23.2,30.6-26.1,31.9
	c-1.4,0.5-3.3,0.2-4.4-0.9c-2.3-2.3-13.4-2.3-19.2,0c-4.9,1.7-27.2,17.2-34.8,24.2c-2.6,2.4-8.2,9.2-12,15c0,0-17.7,3.4-29.7,7
	L265.7,758.6z M265.5,318.3v256.8c0,87,0.1,145,0.2,183.5l-0.2-0.1V318.3L265.5,318.3z M779.1,318.3H265.5l0,0h256.8H779.1z
	 M419.7,359.8c-1.2,3.8-4.2,31.7-5.7,54.8c-0.7,11.1-0.3,20.4,1,27c1.2,5.4,2.6,11.7,3,13.9c1.2,5.7,3.1,3.5,7.5-8.4
	c2.1-5.7,4.9-10.4,6.1-10.4c4.4,0,4.4-5.2,0.2-13.8c-3.7-7.3-4.5-11.8-5.2-30.1c-1.2-26.6-2.4-36.2-4.4-36.2
	C421.3,356.6,420.3,358,419.7,359.8z M628.3,399.3c0.7-8.7,1.6-18.3,2.1-21.6c1.6-9.4,3.7-4.4,8.7,20.4c4.5,22.3,4.5,23.3,1.6,31.3
	c-3.1,9.1-4,12.7-4.4,20.4c-0.2,4.7-0.3,4.9-2.3,1.9c-1.2-1.9-3.3-4.5-4.7-6.1c-11.5-12.4-12.5-16.7-6.3-25.1
	C626.6,416,627.4,412,628.3,399.3z M467.3,489.8c-19.7,13.2-3.7,30.1,21.8,22.8c11.7-3.5,12.4-6.1,4.2-16.4
	c-5.2-6.4-12.4-10.8-17.8-10.8C474.4,485.5,470.6,487.4,467.3,489.8z M563.2,505.3c0-5.4,5.4-12.9,11.8-16.2c10.6-5.7,19-4,27.9,5.6
	c6.4,6.8,4.5,11.7-6.4,17.1c-7.8,3.8-10.3,4.4-16.2,3C570.7,512.6,563.2,508.4,563.2,505.3z M563.7,581.4c4.9-8.4,2.6-25.1-4-31.9
	c-4.7-4.7-5.6-4.9-22.1-4.7c-12.5,0-19,0.9-24.2,3.3c-4,1.7-7.7,4.5-8.4,6.1c-1.6,4.4-1.2,10.4,0.9,12.5c1.4,1.4,1.4,2.3,0,3
	c-3,1.9-2.3,10.8,1.2,14.6c3,3.5,25.6,19.5,27.3,19.5C537.8,603.9,561.1,585.9,563.7,581.4z M465.5,616.2
	c-7-7.1-15.5-21.4-15.5-26.3c0-4.7,3.1-0.3,9.2,12.2c3.8,8.2,8.4,15.1,11,16.9c4.9,3.1,6.3,3,47.7-3.3c15.7-2.3,16-2.3,36.7,0.9
	c21.6,3.5,31.2,3.7,36.9,1c2.6-1.2,7.1-7.3,11.5-15.7c4-7.5,8.5-13.8,9.9-13.8s2.4,0.5,2.4,1c0,1.2-13.1,23.3-16,27
	c-5.6,6.8-9.1,7.3-68.2,7.7l-57.6,0.3L465.5,616.2z M611.9,654.2c0-0.9-0.2-1.6-0.3-1.4c-0.2,0.1-1,0.3-2.2,0.6
	c-1.4,0.3-3.3,0.8-5.3,1.4c-3.8,0.9-13.9,3.1-22.6,5c-8.5,2.1-21.1,5.4-27.9,7.7c-6.6,2.3-15,4.5-18.3,5.2
	c-8,1.4-31.5-2.8-63.5-11.3c-14.3-3.8-27.7-7-29.6-7c-1.6,0-2.4,0-2.5,0.2c-0.1,0.3,0.7,0.8,2.5,2l0,0c5.6,3.8,17.2,7.8,37.1,13.2
	c41.8,11.3,58.1,11.5,91.8,1.2C593.7,663.9,611.9,656.4,611.9,654.2z"/>
<path class="st1" d="M523.3,402.9l-3.1,2L507,448.8l27.5,71.3l7.1-38.7l-7.1-78.5H523.3z"/>
<path class="st0" d="M776,391.7l-7.1,3.1l13.2,19.4v-26.5L776,391.7z"/>
<path class="st0" d="M783,376l-7,4.5l-4,10l9.5,4L783,376z"/>
<defs>
	<filter id="Adobe_OpacityMaskFilter" filterUnits="userSpaceOnUse" x="264.6" y="392.4" width="578.1" height="495.8">
		<feColorMatrix  type="matrix" values="1 0 0 0 0  0 1 0 0 0  0 0 1 0 0  0 0 0 1 0"/>
	</filter>
</defs>
<mask maskUnits="userSpaceOnUse" x="264.6" y="392.4" width="578.1" height="495.8" id="path-6-inside-1_211_2_00000103225008439326807020000012834143522196073088_">
	<path class="st3" d="M278.7,743.6c44.6,66.8,113.8,113,192.5,128.6c78.7,15.6,160.3-0.7,227-45.4
		c66.7-44.7,112.9-114.1,128.5-192.9c15.6-78.8-0.7-160.6-45.3-227.4l-60.7,40.7c33.8,50.7,46.2,112.7,34.3,172.5
		c-11.8,59.8-46.9,112.4-97.5,146.4c-50.6,33.9-112.5,46.3-172.2,34.5c-59.7-11.8-112.2-46.9-146.1-97.6L278.7,743.6z"/>
</mask>
<path class="st4" d="M278.7,743.6c44.6,66.8,113.8,113,192.5,128.6c78.7,15.6,160.3-0.7,227-45.4c66.7-44.7,112.9-114.1,128.5-192.9
	c15.6-78.8-0.7-160.6-45.3-227.4l-60.7,40.7c33.8,50.7,46.2,112.7,34.3,172.5c-11.8,59.8-46.9,112.4-97.5,146.4
	c-50.6,33.9-112.5,46.3-172.2,34.5c-59.7-11.8-112.2-46.9-146.1-97.6L278.7,743.6z"/>
<path class="st0" d="M266.5,617l-2.5,0.5l-2.5,51.5l5,0.5V617z"/>
<path class="st0" d="M277.7,664.8h-22.4l-3.1,36.7h25.5V664.8z"/>
<path class="st0" d="M283.8,685.2l-53,48.9l-18.3,68.3l65.2,55l39.7-30.6l-11.2-49.9l-28.5-32.6L283.8,685.2z"/>
<path class="st0" d="M793.3,710.7l-29.6,47.9v39.7l29.6,51V710.7z"/>
<path class="st0" d="M775,739.2l-13.2,20.4l-18.3,52l51,45.9L775,739.2z"/>
<path class="st0" d="M294,705.6l-42.8-25.5v44.8L294,705.6z"/>
</svg>
