<svg xmlns="http://www.w3.org/2000/svg" width="62" height="62" fill="none" viewBox="33.5 36.5 62 62"><rect width="62" height="62" x="33.5" y="36.5" fill="#110807" stroke="#2B2322" rx="31"/><g filter="url(#a)"><path fill="url(#b)" d="M61.062 57.213a.08.08 0 0 1-.078-.08c0-.033.02-.06.042-.081a.186.186 0 0 0 .01-.01l5.021-5.173c.945-.974 2.372-1.307 3.552-.661a18.432 18.432 0 0 1 4.38 3.337c3.448 3.554 5.386 8.374 5.386 13.4 0 5.027-1.938 9.847-5.387 13.401a18.432 18.432 0 0 1-4.345 3.319c-1.18.649-2.61.316-3.557-.659l-5.088-5.243a.05.05 0 0 1-.014-.035.05.05 0 0 1 .048-.05c2.745-.013 5.375-1.142 7.317-3.143 1.953-2.013 3.05-4.743 3.05-7.59 0-2.846-1.097-5.576-3.05-7.589-1.935-1.993-4.553-3.122-7.287-3.143Z"/><path fill="url(#c)" d="M60.984 78.749c-2.78 0-5.447-1.139-7.413-3.165-1.966-2.026-3.071-4.773-3.071-7.639 0-2.865 1.105-5.612 3.07-7.638 1.967-2.026 4.633-3.165 7.414-3.165 0 0-3.776 4.258-3.776 10.803 0 6.546 3.776 10.804 3.776 10.804Z"/></g><defs><linearGradient id="b" x1="63.395" x2="-5.518" y1="18.267" y2="62.725" gradientUnits="userSpaceOnUse"><stop stop-color="#FBC67E"/><stop offset=".523" stop-color="#FF9401"/></linearGradient><linearGradient id="c" x1="63.395" x2="-5.518" y1="18.267" y2="62.725" gradientUnits="userSpaceOnUse"><stop stop-color="#FBC67E"/><stop offset=".523" stop-color="#FF9401"/></linearGradient><filter id="a" width="62" height="62" x="33.5" y="36.5" color-interpolation-filters="sRGB" filterUnits="userSpaceOnUse"><feFlood flood-opacity="0" result="BackgroundImageFix"/><feColorMatrix in="SourceAlpha" result="hardAlpha" values="0 0 0 0 0 0 0 0 0 0 0 0 0 0 0 0 0 0 127 0"/><feOffset/><feGaussianBlur stdDeviation="25"/><feComposite in2="hardAlpha" operator="out"/><feColorMatrix values="0 0 0 0 0.984679 0 0 0 0 0.777276 0 0 0 0 0.492339 0 0 0 0.2 0"/><feBlend in2="BackgroundImageFix" result="effect1_dropShadow_622_7052"/><feBlend in="SourceGraphic" in2="effect1_dropShadow_622_7052" result="shape"/></filter></defs></svg>