<?xml version="1.0" encoding="utf-8"?>
<!-- Generator: Adobe Illustrator 25.4.1, SVG Export Plug-In . SVG Version: 6.00 Build 0)  -->
<svg version="1.1" id="Layer_1" xmlns="http://www.w3.org/2000/svg" xmlns:xlink="http://www.w3.org/1999/xlink" x="0px" y="0px"
	 viewBox="0 0 1080 1080" style="enable-background:new 0 0 1080 1080;" xml:space="preserve">
<style type="text/css">
	.st0{fill:#231F20;}
</style>
<g>
	<path class="st0" d="M261.1,822.9c31.2-30.1,58-56,84.9-81.9c105.5,98.7,231.1,67.4,297,5.3c75.8-71.4,104.9-210.1,12.6-320
		c26.7-26.7,53.4-53.3,83.3-83.1c16.2,24,34,46.4,47.4,71.2c94.2,173.4,27.4,406.1-167.7,484.3c-124.3,49.8-238.6,24.7-339.4-62.9
		C274.2,831.4,268.4,828.1,261.1,822.9z"/>
	<path class="st0" d="M426,653c-28,26.6-55,52.3-83.3,79.3c-3.8-4.2-9.4-10-14.4-16.2c-135.7-166.6-85.5-420.9,103.2-523.1
		c120.6-65.3,276.7-42.6,374.3,54c8.5,8.4,10,13.5,0.5,22.4c-20.8,19.6-40.6,40.3-60.4,61c-7,7.3-11.5,8.4-20.1,0.9
		c-67.5-59.1-144.3-75.1-226.7-38.8c-85.1,37.4-127.2,106.9-131.4,199.1c-2.6,56.2,15.5,106.1,50.2,150
		C420.2,644.6,422.3,647.8,426,653z"/>
</g>
</svg>
