<svg xmlns="http://www.w3.org/2000/svg" viewBox="0 0 2010.1 2010.1"><defs><style>.cls-1{fill:#00e0ca;}.cls-2{fill:#00121f;}</style></defs><g id="Layer_2" data-name="Layer 2"><g id="Layer_1-2" data-name="Layer 1"><circle class="cls-1" cx="1005.05" cy="1005.05" r="1005.05"/><path class="cls-2" d="M1245.05,360.93a247.79,247.79,0,0,0-82.26-14.49c-177.14,0-474.86,210.79-478.13,397.74-1.08,61.33,25.77,116.73,70.86,157.49a329.6,329.6,0,0,0,73,49.87c24.83,12.37,49.38,25.42,75,36.11,22.21,9.26,51.8,23.43,75.9,14.63,20.69-7.56,31.79-31.3,31.52-53.32-.47-38.79-21.7-74.31-51.34-97.8-26.88-21.3-58.84-36.62-79.54-64.91-79-108,172-251.46,254.26-270.62a176.19,176.19,0,0,1,46.74-6.54c149.56,0,30.38,251.45-29,322-32.25,36.92-1.87,85.06,36.93,85.06a51.31,51.31,0,0,0,33.65-14.49C1359.56,779.7,1484.82,447.86,1245.05,360.93Z"/><path class="cls-2" d="M1198.15,997.51c-42.81-12.19-88.25,5.72-104.79,53.67-9.92,28.78,12.56,41.56,28.58,60.68,21.39,25.51,35,56.56,35.77,90.1a156.7,156.7,0,0,1-2.86,33c-24.31,136.94-269.22,246.31-401,246.31-31.78,0-60.76-9.81-73.85-38.79-30.38-69.18,46.74-156.11,87.4-204.25,36.93-45.34,1.41-101.42-42.06-101.42a58.66,58.66,0,0,0-42.07,17.76c-86.93,80.39-173.86,170.59-158.91,300.06,13.09,115.91,86.94,193,206.12,199.57,222,11.22,538-140.21,594.05-372,22.25-92-14.72-210.67-92.38-267.82A106.68,106.68,0,0,0,1198.15,997.51Z"/></g></g></svg>