<svg xmlns="http://www.w3.org/2000/svg" viewBox="0 0 512 512">
  <defs>
    <linearGradient id="b" x1="129.16" x2="379.59" y1="114.28" y2="396.63" gradientTransform="matrix(1 0 0 -1 0 512)" gradientUnits="userSpaceOnUse">
      <stop offset=".08" stop-color="#9945ff"/>
      <stop offset=".3" stop-color="#8752f3"/>
      <stop offset=".5" stop-color="#5497d5"/>
      <stop offset=".6" stop-color="#43b4ca"/>
      <stop offset=".72" stop-color="#28e0b9"/>
      <stop offset=".97" stop-color="#19fb9b"/>
    </linearGradient>
    <mask id="a" width="1836.79" height="272.96" x="98.41" y="118.24" maskUnits="userSpaceOnUse">
      <path fill="#fff" d="M98.41 118.24H1935.2V391.2H98.41z"/>
    </mask>
  </defs>
  <circle cx="256" cy="256" r="256"/>
  <g mask="url(#a)">
    <path fill="url(#b)" d="m407.01 333.46-50.38 54.02a11.7 11.7 0 0 1-8.53 3.72H109.25a5.88 5.88 0 0 1-5.84-5.9c0-1.46.56-2.86 1.55-3.94l50.32-54.02c2.21-2.37 5.29-3.71 8.53-3.72h238.84a5.827 5.827 0 0 1 4.36 9.83m-50.39-108.81c-2.22-2.35-5.3-3.7-8.53-3.72H109.25c-3.23 0-5.85 2.63-5.85 5.86 0 1.48.56 2.9 1.56 3.98l50.32 54.06c2.22 2.35 5.3 3.7 8.53 3.72h238.84a5.864 5.864 0 0 0 5.81-5.92 5.8 5.8 0 0 0-1.55-3.91l-50.3-54.06Zm-247.37-38.81h238.84c3.24 0 6.32-1.36 8.53-3.72L407 128.08a5.85 5.85 0 0 0-.28-8.28c-.26-.24-.54-.46-.83-.65-.97-.62-2.09-.94-3.24-.91H163.81c-3.24 0-6.32 1.36-8.53 3.72l-50.32 54.03a5.86 5.86 0 0 0 .31 8.28c1.08 1 2.5 1.56 3.98 1.56"/>
  </g>
</svg>
