<?xml version="1.0" encoding="UTF-8"?><svg id="Layer_2" xmlns="http://www.w3.org/2000/svg" xmlns:xlink="http://www.w3.org/1999/xlink" viewBox="0 0 255.78 255.78"><defs><style>.cls-1{fill:url(#linear-gradient);}.cls-1,.cls-2,.cls-3,.cls-4,.cls-5,.cls-6,.cls-7,.cls-8{stroke-width:0px;}.cls-2{fill:url(#linear-gradient-6);}.cls-3{fill:url(#linear-gradient-5);}.cls-4{fill:url(#linear-gradient-2);}.cls-5{fill:url(#linear-gradient-7);}.cls-6{fill:url(#linear-gradient-3);}.cls-7{fill:url(#linear-gradient-8);}.cls-8{fill:url(#linear-gradient-4);}</style><linearGradient id="linear-gradient" x1="-12.95" y1="73.61" x2="260.38" y2="178.95" gradientUnits="userSpaceOnUse"><stop offset="0" stop-color="#fff"/><stop offset=".39" stop-color="#6f663e"/><stop offset=".59" stop-color="#e0ded5"/><stop offset=".81" stop-color="#7b734f"/></linearGradient><linearGradient id="linear-gradient-2" x1="92.79" y1="268.51" x2="157.24" y2="10.29" gradientUnits="userSpaceOnUse"><stop offset="0" stop-color="#898045"/><stop offset="1" stop-color="#e5c07f"/></linearGradient><linearGradient id="linear-gradient-3" x1="16" y1="127.89" x2="239.78" y2="127.89" xlink:href="#linear-gradient"/><linearGradient id="linear-gradient-4" x1="154.49" y1="49.03" x2="91.82" y2="234.8" gradientUnits="userSpaceOnUse"><stop offset="0" stop-color="#ffda87"/><stop offset="1" stop-color="#a99b58"/></linearGradient><linearGradient id="linear-gradient-5" x1="145.82" y1="94.98" x2="105.37" y2="169.21" xlink:href="#linear-gradient"/><linearGradient id="linear-gradient-6" x1="48.88" y1="75.52" x2="188.88" y2="160.41" gradientUnits="userSpaceOnUse"><stop offset=".11" stop-color="#83cab8"/><stop offset=".29" stop-color="#c0efd6"/><stop offset=".59" stop-color="#83cab8"/><stop offset=".79" stop-color="#c0efd6"/><stop offset=".93" stop-color="#90d2bf"/><stop offset="1" stop-color="#c0efd6"/></linearGradient><linearGradient id="linear-gradient-7" x1="113.99" y1="116.67" x2="146.42" y2="129.52" gradientUnits="userSpaceOnUse"><stop offset="0" stop-color="#83cab8"/><stop offset="1" stop-color="#c0efd6"/></linearGradient><linearGradient id="linear-gradient-8" x1="145.4" y1="95.75" x2="105.9" y2="168.24" gradientUnits="userSpaceOnUse"><stop offset="0" stop-color="#c2a566"/><stop offset="1" stop-color="#9c8c51"/></linearGradient></defs><g id="Layer_5"><path class="cls-1" d="m127.89,255.78C57.37,255.78,0,198.41,0,127.89S57.37,0,127.89,0s127.89,57.37,127.89,127.89-57.37,127.89-127.89,127.89Zm0-253.78C58.47,2,2,58.47,2,127.89s56.47,125.89,125.89,125.89,125.89-56.47,125.89-125.89S197.3,2,127.89,2Z"/><circle class="cls-4" cx="127.89" cy="127.89" r="126.89"/><path class="cls-6" d="m127.89,239.78c-61.7,0-111.89-50.19-111.89-111.89S66.19,16,127.89,16s111.89,50.19,111.89,111.89-50.19,111.89-111.89,111.89Zm0-221.78c-60.59,0-109.89,49.3-109.89,109.89s49.3,109.89,109.89,109.89,109.89-49.3,109.89-109.89S188.48,18,127.89,18Z"/><circle class="cls-8" cx="127.89" cy="127.89" r="110.89"/><circle class="cls-3" cx="127.89" cy="127.89" r="48.67"/><path class="cls-2" d="m105.89,186.87c-29.53-7.63-51.41-34.5-51.41-66.39,0-37.8,30.75-68.56,68.56-68.56,35.38,0,64.58,26.93,68.18,61.37-6.39-28.53-31.92-49.91-62.35-49.91-35.23,0-63.89,28.66-63.89,63.89,0,26.94,16.91,50.31,40.91,59.6Z"/><path class="cls-5" d="m91.47,180.23c-21.77-11.5-35.99-34.29-35.99-59.74,0-37.25,30.31-67.56,67.56-67.56,29.37,0,54.58,18.63,63.81,45.26-10.85-21.42-33.24-35.81-57.97-35.81-35.78,0-64.89,29.11-64.89,64.89,0,21.18,10.6,40.93,27.48,52.95Z"/><circle class="cls-7" cx="127.89" cy="127.89" r="47.53"/></g></svg>