<svg xmlns="http://www.w3.org/2000/svg" viewBox="0 0 400 400"><defs><linearGradient id="b" x1="284" x2="205.11" y1="584" y2="584" gradientTransform="matrix(1 0 0 -1 0 784)" gradientUnits="userSpaceOnUse"><stop offset="0" stop-color="#1950f0"/><stop offset="1" stop-color="#0082fa"/></linearGradient><linearGradient id="c" x1="40.26" x2="101.59" y1="636.88" y2="550.44" gradientTransform="matrix(1 0 0 -1 0 784)" gradientUnits="userSpaceOnUse"><stop offset="0" stop-color="#1950f0"/><stop offset="1" stop-color="#0082fa"/></linearGradient><clipPath id="a"><circle cx="200" cy="200" r="200" fill="none"/></clipPath></defs><g clip-path="url(#a)"><path fill="#f0f3fa" d="M0 0h400v400H0V0Z"/><path fill="#04289c" d="M133.33 207.33v-14.67h52.89v14.67h-52.89Zm0 37.11v-14.89h59.33v14.89h-59.33Zm0-74v-14.89h59.33v14.89h-59.33Z"/><path fill="url(#b)" d="M244.44 244.44c-24.55.16-44.57-19.62-44.72-44.16-.04-6.13 1.19-12.2 3.61-17.84 4.56-10.57 12.99-19 23.56-23.56 5.33-2.22 11.11-3.33 17.56-3.33s12.22 1.11 17.56 3.33 10 5.33 14 9.33c17.31 17.56 17.31 45.77 0 63.33a44.873 44.873 0 0 1-31.56 12.89Zm0-14.88c17.56 0 29.56-14 29.56-29.78.25-15.95-12.48-29.09-28.43-29.34h-1.12c-17.78 0-29.56 13.78-29.56 29.33s11.78 29.78 29.56 29.78Z"/><path fill="#04289c" d="m296.22 230.22 10.22-10.89c4.67 5.56 10 9.78 17.11 10.22 6.67.67 18.67 0 17.78-10.22-.89-9.56-15.56-12.67-22.22-15.33-11.78-4.44-20.22-15.11-16.89-30a21.8 21.8 0 0 1 10-14c3.56-2.22 7.56-3.56 11.78-4a32.443 32.443 0 0 1 28.89 8.89l2.22 2.22-10.44 11.11c-3.74-4.7-9.34-7.54-15.33-7.78-4 0-10.22.44-12.67 4.44-1.56 2.67-1.56 7.56 1.33 10.22 4.67 4.44 12.22 5.78 17.78 8 10.22 4 19.33 10.89 19.78 24.44.67 21.33-18.67 28-34.44 26.67-9.91-.9-18.97-6-24.89-14Zm-195.33 14.22h-4v-88.89h14.22v88.89h-10.22Zm-52.45 0h-4v-88.89h14.22v88.89H48.44Z"/><path fill="url(#c)" d="m95.56 244.44-51.11-88.89h15.56l51.11 88.89H95.56Z"/></g></svg>