<svg xmlns="http://www.w3.org/2000/svg" viewBox="0 0 400 400"><defs><clipPath id="a"><circle cx="200" cy="200" r="200" fill="none"/></clipPath></defs><g clip-path="url(#a)"><path fill="#f0f3fa" d="M0 0h400v400H0V0Z"/><path fill="#273f33" d="M223.89 185.29c21.82 18.4 42.78 33.82 42.78 66.22 0 35.33-20.13 59.6-66.24 59.6-32.71 0-63.73-11.78-66.24-57.4l-.84-16.91h45.29c0 15.53 2.78 35.31 21.78 35.31 10.09 0 15.11-5.16 15.11-16.18 0-14.73-18.44-27.98-36.89-41.22-26.84-20.6-41.96-38.27-41.96-69.16s20.98-56.67 64.6-56.67c33.53 0 59.53 13.24 62.04 56.67v10h-41.93v-6.33c0-13.24-5.02-22.8-18.44-22.8-7.56 0-15.11 4.4-15.11 15.44-.82 16.2 9.24 22.07 36.07 43.42Z"/></g></svg>