<svg xmlns="http://www.w3.org/2000/svg" viewBox="0 0 400 400"><defs><clipPath id="a"><circle cx="200" cy="200" r="200" fill="none"/></clipPath></defs><g clip-path="url(#a)"><path fill="#f0f3fa" d="M0 0h400v400H0V0Z"/><path fill="#ed1c24" d="M119.11 92.67a301.295 301.295 0 0 1-7.91 216.82c-.44 1.18.96 2.22 2.44 1.18 47.13-33.56 88.24-97.87 101.78-150.44a391.941 391.941 0 0 1-92.24-70.4c-2.27-2.38-5.07.22-4.09 2.87l.02-.02Z"/><path fill="#840041" d="M331.44 201.02c-39.07-6.67-77.11-20.58-101.84-33.38-14.36 40.84-42.04 84.64-71.02 114.76-1.58 1.47-.31 4 2.27 2.04 61.89-46.53 126.4-68.89 170.67-78.2 2.42-.6 2.44-4.49-.07-5.22Z"/></g></svg>