<?xml version="1.0" encoding="utf-8"?>
<!-- Generator: Adobe Illustrator 28.2.0, SVG Export Plug-In . SVG Version: 6.00 Build 0)  -->
<svg version="1.1" id="svg" xmlns="http://www.w3.org/2000/svg" xmlns:xlink="http://www.w3.org/1999/xlink" x="0px" y="0px"
	 viewBox="0 0 400 400" enable-background="new 0 0 400 400" xml:space="preserve">
<g id="svgg">
	<circle fill-rule="evenodd" clip-rule="evenodd" fill="#DC3C2C" cx="200" cy="200" r="200"/>
	<path id="path0" fill-rule="evenodd" clip-rule="evenodd" fill="#FBFAF9" d="M195,93c-8.8,1-16.4,1.8-16.9,1.8
		c-0.6,0-1.7,1.1-3.7,3.7l-2.8,3.6v30v30l2,4.3l2,4.3l2.3,0.6c1.2,0.3,2.2,0.7,2.2,0.9c0,0.2-9.4,18.3-20.7,40.1
		c-15.2,29.3-20.5,39.8-20.1,40.1c1.7,1.1,2,1.1,4.8,0.5l2.9-0.6l18.8-40.2c16.6-35.6,19.3-41.1,20-40.5c0.1,0.1-4.8,29.8-10.8,66.1
		s-11,66.7-11,67.6l0,1.6l5.7,0.7c7.2,0.8,7.5,0.8,7.5-0.1c0-1.9,16.4-138.7,16.7-138.9c0.7-0.6,6.3-2.4,6.5-2.1
		c0.2,0.2,12.7,25,27.8,55.1l27.5,54.8l2.6-0.3c5.2-0.5,6.7,2.9-25.5-58.4c-15.2-28.9-27.6-52.8-27.6-52.9c0-0.2,1.8-0.9,4.1-1.7
		c3.7-1.2,12.7-7.8,11.8-8.6c-0.1-0.1-5.7,1.8-12.5,4.1c-16.1,5.4-18.3,6.2-18.7,6.2c-0.2,0-0.3-13.6-0.3-30.2v-30.2l0.9-0.2
		c0.5-0.1,7.9-1.5,16.5-3c8.6-1.5,15.6-2.9,15.7-3c0.1-0.1-1-1.7-2.4-3.5l-2.6-3.3l-3.3-0.1C212.5,91.3,203.8,92,195,93
		 M206.4,121.6c-3.9,3.9-3.7,17.3,0.3,20.4c0.8,0.6,1.6,0.8,4.4,0.8h3.4l-1.1-1.1c-3.4-3.5-3.6-14.7-0.5-19.4l1-1.5h-3.4
		C207.8,120.8,207.1,120.9,206.4,121.6 M214,124.1c-2.6,4.3-1.8,14.6,1.3,16.5c1.5,0.9,3.7-2.3,4-5.8c0.1-1,0.1-1.3,0-0.7
		c-0.2,1.5-0.8,1.4-1.1-0.2c-0.5-2.4-0.2-5.6,0.6-5.6c0.2,0,0.4,0.4,0.5,0.9c0.1,0.5,0.1,0.1,0-0.9
		C218.9,123.6,215.8,121.1,214,124.1"/>
</g>
</svg>
