<svg xmlns="http://www.w3.org/2000/svg" viewBox="0 0 245.95 245.95"><defs><style>.cls-1{fill:#00e9f9;}.cls-2{fill:#0027a5;}</style></defs><g id="Layer_2" data-name="Layer 2"><g id="assets"><path class="cls-1" d="M54,146.66c0-.8,0-1.6,0-2.41A35.12,35.12,0,0,1,64.38,95.63l.05,0a.91.91,0,0,1,1.2,1.32,23.45,23.45,0,0,0-2.55,24.85,35.26,35.26,0,0,1,10.41-7.88l.06,0a.91.91,0,0,1,1,1.45,23.4,23.4,0,0,0-6.52,13.17,23.29,23.29,0,0,0,5.51,3.83c1.76-1,3.54-2,5.36-3a101.69,101.69,0,0,1,10.39-4.77,37.24,37.24,0,0,1-3.68-12,47.41,47.41,0,0,1-7-22.94C77.54,64.41,96.1,43.07,120.06,42s44.29,18.61,45.39,43.85a47.41,47.41,0,0,1-3.06,19,88.31,88.31,0,0,0,16.35-8,.9.9,0,0,1,1.13-1.38l0,0,.46.28A63,63,0,0,0,201,73.37a136.66,136.66,0,0,0,12.11-34.05A123,123,0,0,0,21,191.7,141,141,0,0,1,54,146.66Z"/><path class="cls-2" d="M150.53,133.23a23.35,23.35,0,0,0,26.25-3.39,23.59,23.59,0,0,0-7.12-13.32.9.9,0,0,1,1-1.49l.06,0a35.18,35.18,0,0,1,11.28,8A23.41,23.41,0,0,0,178.74,97h0a88.31,88.31,0,0,1-16.35,8,45.14,45.14,0,0,1-1.94,4.44A37.4,37.4,0,0,1,150.53,133.23Z"/><path class="cls-2" d="M94.48,132.3a37.33,37.33,0,0,1-5.14-7.72A101.69,101.69,0,0,0,79,129.35c-1.82.94-3.6,1.94-5.36,3a23.29,23.29,0,0,0,20.89,0Z"/><path class="cls-2" d="M213.08,39.32A136.66,136.66,0,0,1,201,73.37a63,63,0,0,1-20.59,22.51,35.12,35.12,0,0,1,11.13,50,35.09,35.09,0,0,1-66.93,15.92,35.67,35.67,0,0,1-2.09-5.83c-.3.92-.63,1.84-1,2.75A35.07,35.07,0,0,1,54,146.66a141,141,0,0,0-33,45A123,123,0,1,0,213.08,39.32Z"/><path class="cls-2" d="M165.45,85.88C164.35,60.64,144,41,120.06,42S77.54,64.41,78.64,89.66a47.41,47.41,0,0,0,7,22.94,37.24,37.24,0,0,0,3.68,12c23.19-9.15,50.21-11.12,73-19.68A47.41,47.41,0,0,0,165.45,85.88Z"/><path class="cls-2" d="M68.08,128.49a23.4,23.4,0,0,1,6.52-13.17.91.91,0,0,0-1-1.45l-.06,0a35.26,35.26,0,0,0-10.41,7.88,23.45,23.45,0,0,1,2.55-24.85.91.91,0,0,0-1.2-1.32l-.05,0A35.12,35.12,0,0,0,54,144.25c0,.81,0,1.61,0,2.41a119.46,119.46,0,0,1,19.58-14.34A23.29,23.29,0,0,1,68.08,128.49Z"/><path d="M179.87,95.57A.9.9,0,0,0,178.74,97l1.64-1.07-.46-.28Z"/><path class="cls-1" d="M178.74,97a23.41,23.41,0,0,1,3.24,26.1,35.18,35.18,0,0,0-11.28-8l-.06,0a.9.9,0,0,0-1,1.49,23.59,23.59,0,0,1,7.12,13.32,23.35,23.35,0,0,1-26.25,3.39,37.4,37.4,0,0,0,9.92-23.89,45.14,45.14,0,0,0,1.94-4.44c-22.84,8.56-49.86,10.53-73,19.68a37.33,37.33,0,0,0,5.14,7.72,23.29,23.29,0,0,1-20.89,0A119.46,119.46,0,0,0,54,146.66a35.08,35.08,0,0,0,67.47,12.1c.38-.91.71-1.83,1-2.75a35.67,35.67,0,0,0,2.09,5.83,35.09,35.09,0,0,0,66.93-15.92,35.12,35.12,0,0,0-11.13-50L178.74,97Z"/></g></g></svg>