<svg xmlns="http://www.w3.org/2000/svg" viewBox="0 0 400 400"><defs><clipPath id="a"><circle cx="200" cy="200" r="200" fill="none"/></clipPath></defs><g clip-path="url(#a)"><path fill="#e82127" d="M200 0c110.71 0 200 89.29 200 200s-89.29 200-200 200S0 310.71 0 200 89.29 0 200 0Z"/><path fill="#fff" d="M200 328.57 232.14 150c30.71 0 40 0 41.43 14.29 0 0 20.71-7.86 30.71-22.86-40-18.57-80.71-19.29-80.71-19.29L200 150.71l-23.57-28.57s-40.71.71-80.71 19.29c10 15.71 30.71 22.86 30.71 22.86 1.43-13.57 10.71-14.29 41.43-14.29L200 328.57Z"/><path fill="#fff" d="M200 113.57c32.86 0 69.29 5 107.14 22.14 5-9.29 7.14-14.29 7.14-14.29-41.43-16.43-80.71-21.43-114.29-21.43s-72.86 5-114.29 21.43l7.14 14.29c37.86-16.43 74.29-22.14 107.14-22.14Z"/></g></svg>