<svg xmlns="http://www.w3.org/2000/svg" viewBox="0 0 240 240">
  <circle cx="120" cy="120" r="120" fill="#262626"/>
  <circle cx="120" cy="120" r="92.67"/>
  <g fill="#fff">
    <path d="M154.63 75.99c-3.26 0-6.29 1.69-8 4.47l-18.4 27.32c-.6.89-.37 2.11.53 2.71.73.5 1.71.44 2.38-.15l18.11-15.7a.74.74 0 0 1 1.04.05c.12.14.19.32.19.5v49.18c0 .41-.33.73-.73.73-.22 0-.43-.1-.57-.27L94.44 79.3a9.36 9.36 0 0 0-7.16-3.32h-1.91a9.38 9.38 0 0 0-9.38 9.38v69.27c0 5.18 4.2 9.38 9.38 9.38 3.26 0 6.29-1.69 7.99-4.47l18.4-27.32c.6-.89.37-2.11-.53-2.71-.73-.5-1.71-.44-2.38.15l-18.11 15.71a.74.74 0 0 1-1.23-.56V95.62c0-.41.33-.73.73-.73.22 0 .43.1.57.27l54.74 65.54a9.36 9.36 0 0 0 7.16 3.32h1.91c5.18 0 9.38-4.19 9.39-9.37V85.38c0-5.18-4.2-9.38-9.38-9.38Z"/>
    <path fill-opacity=".4" d="M154.63 75.99c-3.26 0-6.29 1.69-8 4.47l-18.4 27.32c-.6.89-.37 2.11.53 2.71.73.5 1.71.44 2.38-.15l18.11-15.7a.74.74 0 0 1 1.04.05c.12.14.19.32.19.5v49.18c0 .41-.33.73-.73.73-.22 0-.43-.1-.57-.27L94.44 79.3a9.36 9.36 0 0 0-7.16-3.32h-1.91a9.38 9.38 0 0 0-9.38 9.38v69.27c0 5.18 4.2 9.38 9.38 9.38 3.26 0 6.29-1.69 7.99-4.47l18.4-27.32c.6-.89.37-2.11-.53-2.71-.73-.5-1.71-.44-2.38.15l-18.11 15.71a.74.74 0 0 1-1.23-.56V95.62c0-.41.33-.73.73-.73.22 0 .43.1.57.27l54.74 65.54a9.36 9.36 0 0 0 7.16 3.32h1.91c5.18 0 9.38-4.19 9.39-9.37V85.38c0-5.18-4.2-9.38-9.38-9.38Z"/>
  </g>
  <circle cx="167.05" cy="175.04" r="40" fill="#fff"/>
  <circle cx="167.05" cy="175.04" r="35"/>
  <path fill="#d9d9d9" d="M167.19 192.06c1.81 0 3.28 1.47 3.28 3.28s-1.47 3.28-3.28 3.28-3.28-1.47-3.28-3.28 1.47-3.28 3.28-3.28m-7.29-1.4c1.81 0 3.28 1.47 3.28 3.28s-1.47 3.28-3.28 3.28-3.28-1.47-3.28-3.28 1.47-3.28 3.28-3.28m14.56-.09c1.81 0 3.28 1.47 3.28 3.28s-1.47 3.28-3.28 3.28-3.28-1.47-3.28-3.28 1.47-3.28 3.28-3.28m-20.77-4c1.81 0 3.28 1.47 3.28 3.28s-1.47 3.28-3.28 3.28-3.28-1.47-3.28-3.28 1.47-3.28 3.28-3.28m26.91-.2c1.81 0 3.28 1.47 3.28 3.28s-1.47 3.28-3.28 3.28-3.28-1.47-3.28-3.28 1.47-3.28 3.28-3.28m-13.29-2.47c1.81 0 3.28 1.47 3.28 3.28s-1.47 3.28-3.28 3.28-3.28-1.47-3.28-3.28 1.47-3.28 3.28-3.28m-7.24-2.76c1.81 0 3.28 1.47 3.28 3.28s-1.47 3.28-3.28 3.28-3.28-1.47-3.28-3.28 1.47-3.28 3.28-3.28m14.37-.24c1.81 0 3.28 1.47 3.28 3.28s-1.47 3.28-3.28 3.28-3.28-1.47-3.28-3.28 1.47-3.28 3.28-3.28m-24.92-.48c1.81 0 3.28 1.47 3.28 3.28s-1.47 3.28-3.28 3.28-3.28-1.47-3.28-3.28 1.47-3.28 3.28-3.28m35.13-.26c1.81 0 3.28 1.47 3.28 3.28s-1.47 3.28-3.28 3.28-3.28-1.47-3.28-3.28 1.47-3.28 3.28-3.28m-27.9-5.98c1.81 0 3.28 1.47 3.28 3.28s-1.47 3.28-3.28 3.28-3.28-1.47-3.28-3.28 1.47-3.28 3.28-3.28m20.75-.4c1.81 0 3.28 1.47 3.28 3.28s-1.47 3.28-3.28 3.28-3.28-1.47-3.28-3.28 1.47-3.28 3.28-3.28m-29.45-.65c1.81 0 3.28 1.47 3.28 3.28s-1.47 3.28-3.28 3.28-3.28-1.47-3.28-3.28 1.47-3.28 3.28-3.28m38-.27c1.81 0 3.28 1.47 3.28 3.28s-1.47 3.28-3.28 3.28-3.28-1.47-3.28-3.28 1.47-3.28 3.28-3.28m-29.39-6.61c1.81 0 3.28 1.47 3.28 3.28s-1.47 3.28-3.28 3.28-3.28-1.47-3.28-3.28 1.47-3.28 3.28-3.28m20.88-.4c1.81 0 3.28 1.47 3.28 3.28s-1.47 3.28-3.28 3.28-3.28-1.47-3.28-3.28 1.47-3.28 3.28-3.28m-29.49-.19c1.81 0 3.28 1.47 3.28 3.28s-1.47 3.28-3.28 3.28-3.28-1.47-3.28-3.28 1.47-3.28 3.28-3.28m38-.27c1.81 0 3.28 1.47 3.28 3.28s-1.47 3.28-3.28 3.28-3.28-1.47-3.28-3.28 1.47-3.28 3.28-3.28m-29.39-7.07c1.81 0 3.28 1.47 3.28 3.28s-1.47 3.28-3.28 3.28-3.28-1.47-3.28-3.28 1.47-3.28 3.28-3.28m-8.61-.12c1.81 0 3.28 1.47 3.28 3.28s-1.47 3.28-3.28 3.28-3.28-1.47-3.28-3.28 1.47-3.28 3.28-3.28m29.49-.28c1.81 0 3.28 1.47 3.28 3.28s-1.47 3.28-3.28 3.28-3.28-1.47-3.28-3.28 1.47-3.28 3.28-3.28m8.51 0c1.81 0 3.28 1.47 3.28 3.28s-1.47 3.28-3.28 3.28-3.28-1.47-3.28-3.28 1.47-3.28 3.28-3.28"/>
</svg>
