<?xml version="1.0" encoding="utf-8"?>
<!-- Generator: Adobe Illustrator 20.0.0, SVG Export Plug-In . SVG Version: 6.00 Build 0)  -->
<svg version="1.1" id="Layer_1" xmlns="http://www.w3.org/2000/svg" xmlns:xlink="http://www.w3.org/1999/xlink" x="0px" y="0px"
	 viewBox="0 0 435.1 339.1" style="enable-background:new 0 0 435.1 339.1;" xml:space="preserve">
<style type="text/css">
	.st0{fill:#6D6E71;}
	.st1{fill:url(#SVGID_1_);}
	.st2{fill:#A7A9AC;}
	.st3{filter:url(#Adobe_OpacityMaskFilter);}
	.st4{fill:url(#SVGID_3_);}
	.st5{opacity:0.15;mask:url(#SVGID_2_);}
	.st6{fill:url(#SVGID_4_);}
	.st7{filter:url(#Adobe_OpacityMaskFilter_1_);}
	.st8{fill:url(#SVGID_6_);}
	.st9{opacity:0.15;mask:url(#SVGID_5_);}
	.st10{fill:url(#SVGID_7_);}
	.st11{opacity:0.75;fill:url(#SVGID_8_);}
	.st12{fill:#1B75BC;}
	.st13{fill:#00AEEF;}
	.st14{fill:#75BEE9;}
	.st15{fill:#50B848;}
	.st16{fill:#00A651;}
	.st17{filter:url(#Adobe_OpacityMaskFilter_2_);}
	.st18{fill:url(#SVGID_10_);}
	.st19{opacity:0.15;mask:url(#SVGID_9_);}
	.st20{fill:#39B54A;}
	.st21{fill:#FFE600;}
	.st22{fill:#F7941D;}
	.st23{fill:url(#SVGID_11_);}
	.st24{fill:#FFC20E;}
	.st25{filter:url(#Adobe_OpacityMaskFilter_3_);}
	.st26{fill:url(#SVGID_13_);}
	.st27{opacity:0.15;mask:url(#SVGID_12_);}
	.st28{fill:url(#SVGID_14_);}
	.st29{fill:#5C5D60;}
</style>
<g>
	<g>
		<g>
			<g>
				<path d="M60.9,216.2c0,0,7.5,3.3,12.5,12c0.3-1.1,0.5-2.2,0.6-3.4c2.5-25.3-13.5-40.2-13.5-40.2c-21.1,11.8-22.9,35.7-22.9,35.7
					c-1.3,10.9,5.7,20.8,15.8,22c0.5,0.1,0.9,0.1,1.4,0.1c-0.1-0.2-0.1-0.4-0.2-0.7C54.7,241.7,51,227.3,60.9,216.2z"/>
				<path class="st0" d="M76.9,237c-0.8-3.4-2-6.4-3.5-8.9c-2.4,8.6-10.2,14.6-18.6,14.2c1.7,6.3,7.6,10.3,13.5,9.1
					C74.5,250.2,78.5,243.7,76.9,237z"/>
				
					<linearGradient id="SVGID_1_" gradientUnits="userSpaceOnUse" x1="74.5364" y1="279.6966" x2="67.4964" y2="222.2777" gradientTransform="matrix(0.9926 0.1217 -0.1217 0.9926 23.7724 -44.2716)">
					<stop  offset="0.1656" style="stop-color:#000000"/>
					<stop  offset="0.9939" style="stop-color:#636466"/>
				</linearGradient>
				<path class="st1" d="M73.4,228.2c-5-8.7-12.5-12-12.5-12c-10,11.2-6.3,25.6-6.3,25.6c0,0.2,0.1,0.4,0.2,0.7
					C63.3,242.8,71.1,236.8,73.4,228.2z"/>
				<path class="st2" d="M73.4,228.2c-5-8.7-12.5-12-12.5-12c-10,11.2-6.3,25.6-6.3,25.6c0,0.2,0.1,0.4,0.2,0.7
					C63.3,242.8,71.1,236.8,73.4,228.2z"/>
			</g>
			<defs>
				<filter id="Adobe_OpacityMaskFilter" filterUnits="userSpaceOnUse" x="37.5" y="255.3" width="39.8" height="67.1">
					<feColorMatrix  type="matrix" values="1 0 0 0 0  0 1 0 0 0  0 0 1 0 0  0 0 0 1 0"/>
				</filter>
			</defs>
			<mask maskUnits="userSpaceOnUse" x="37.5" y="255.3" width="39.8" height="67.1" id="SVGID_2_">
				<g class="st3">
					<linearGradient id="SVGID_3_" gradientUnits="userSpaceOnUse" x1="56.4617" y1="253.8157" x2="56.4617" y2="290.9679">
						<stop  offset="0" style="stop-color:#FFFFFF"/>
						<stop  offset="0.9939" style="stop-color:#000000"/>
					</linearGradient>
					<rect x="30.5" y="254.1" class="st4" width="52" height="73.4"/>
				</g>
			</mask>
			<g class="st5">
				<path d="M60.9,290.9c0,0,7.5-3.3,12.5-12c0.3,1.1,0.5,2.2,0.6,3.4c2.5,25.3-13.5,40.2-13.5,40.2c-21.1-11.8-22.9-35.7-22.9-35.7
					c-1.3-10.9,5.7-20.8,15.8-22c0.5-0.1,0.9-0.1,1.4-0.1c-0.1,0.2-0.1,0.4-0.2,0.7C54.7,265.3,51,279.7,60.9,290.9z"/>
				<path class="st0" d="M76.9,270c-0.8,3.4-2,6.4-3.5,8.9c-2.4-8.6-10.2-14.6-18.6-14.2c1.7-6.3,7.6-10.3,13.5-9.1
					C74.5,256.8,78.5,263.3,76.9,270z"/>
				
					<linearGradient id="SVGID_4_" gradientUnits="userSpaceOnUse" x1="141.2812" y1="824.0717" x2="134.2416" y2="766.6556" gradientTransform="matrix(0.9926 -0.1217 -0.1217 -0.9926 23.7719 1099.7775)">
					<stop  offset="0.1656" style="stop-color:#000000"/>
					<stop  offset="0.9939" style="stop-color:#636466"/>
				</linearGradient>
				<path class="st6" d="M73.4,278.9c-5,8.7-12.5,12-12.5,12c-10-11.2-6.3-25.6-6.3-25.6c0-0.2,0.1-0.4,0.2-0.7
					C63.3,264.3,71.1,270.2,73.4,278.9z"/>
				<path class="st2" d="M73.4,278.9c-5,8.7-12.5,12-12.5,12c-10-11.2-6.3-25.6-6.3-25.6c0-0.2,0.1-0.4,0.2-0.7
					C63.3,264.3,71.1,270.2,73.4,278.9z"/>
			</g>
		</g>
		<g>
			<defs>
				<filter id="Adobe_OpacityMaskFilter_1_" filterUnits="userSpaceOnUse" x="350.9" y="255.3" width="39.8" height="67.1">
					<feColorMatrix  type="matrix" values="1 0 0 0 0  0 1 0 0 0  0 0 1 0 0  0 0 0 1 0"/>
				</filter>
			</defs>
			<mask maskUnits="userSpaceOnUse" x="350.9" y="255.3" width="39.8" height="67.1" id="SVGID_5_">
				<g class="st7">
					<linearGradient id="SVGID_6_" gradientUnits="userSpaceOnUse" x1="369.8403" y1="253.831" x2="369.8403" y2="290.9943">
						<stop  offset="0" style="stop-color:#FFFFFF"/>
						<stop  offset="0.9939" style="stop-color:#000000"/>
					</linearGradient>
					<rect x="343.8" y="254.1" class="st8" width="52" height="73.4"/>
				</g>
			</mask>
			<g class="st9">
				
					<linearGradient id="SVGID_7_" gradientUnits="userSpaceOnUse" x1="313.9525" y1="-243.7758" x2="327.7013" y2="-188.5501" gradientTransform="matrix(0.9926 -0.1217 -0.1217 -0.9926 23.7719 117.5978)">
					<stop  offset="0.3252" style="stop-color:#1B75BC"/>
					<stop  offset="1" style="stop-color:#1F2771"/>
				</linearGradient>
				<path class="st10" d="M387.5,282.3c-1.1-10.9-10.6-18.8-20.6-17.5c-10.1,1.2-17.1,11.1-15.8,22c0,0,1.9,23.9,22.9,35.7
					C374,322.5,390,307.6,387.5,282.3z"/>
				
					<linearGradient id="SVGID_8_" gradientUnits="userSpaceOnUse" x1="372.5709" y1="-212.2098" x2="382.3752" y2="-185.9046" gradientTransform="matrix(1 0 0 -1 0 73.3262)">
					<stop  offset="0" style="stop-color:#6DCFF6"/>
					<stop  offset="1" style="stop-color:#008FD5"/>
				</linearGradient>
				<path class="st11" d="M390.3,270c1.6-6.6-2.4-13.1-8.6-14.4c-6.2-1.3-12.3,3.1-13.7,9.7c0,0-3.7,14.4,6.3,25.6
					C374.3,290.9,386.7,285.4,390.3,270z"/>
			</g>
			<g>
				<path class="st12" d="M374.2,216.2c0,0,7.5,3.3,12.5,12c0.3-1.1,0.5-2.2,0.6-3.4c2.5-25.3-13.5-40.2-13.5-40.2
					c-21.1,11.8-22.9,35.7-22.9,35.7c-1.3,10.9,5.7,20.8,15.8,22c0.5,0.1,0.9,0.1,1.4,0.1c-0.1-0.2-0.1-0.4-0.2-0.7
					C367.9,241.7,364.2,227.3,374.2,216.2z"/>
				<path class="st13" d="M390.2,237c-0.8-3.4-2-6.4-3.5-8.9c-2.4,8.6-10.2,14.6-18.6,14.2c1.7,6.3,7.6,10.3,13.5,9.1
					C387.8,250.2,391.8,243.7,390.2,237z"/>
				<path class="st14" d="M386.7,228.2c-5-8.7-12.5-12-12.5-12c-10,11.2-6.3,25.6-6.3,25.6c0,0.2,0.1,0.4,0.2,0.7
					C376.5,242.8,384.3,236.8,386.7,228.2z"/>
			</g>
		</g>
		<g>
			<path class="st15" d="M186.6,190.8c0,0-25.3,7.9-33.1,26.3c7.1,6.2,12.4,16.4,4.2,31.6c0,0,0.1,0.1,0.1,0.1l21-42.6l-18.6,44
				C207.9,237.9,186.6,190.8,186.6,190.8z"/>
			<path class="st15" d="M153.5,217c-6.8-6-15.3-8.4-15.3-8.4s-14.4,30.4,17.8,41l-16.5-38.2l14.2,29
				C150.2,231.3,150.7,223.5,153.5,217z"/>
			<path class="st16" d="M153.5,217c-2.8,6.5-3.3,14.3,0.2,23.5l3.9,8c0,0,0,0.1,0.1,0.1C165.9,233.4,160.6,223.3,153.5,217z"/>
			<defs>
				<filter id="Adobe_OpacityMaskFilter_2_" filterUnits="userSpaceOnUse" x="135" y="253.3" width="56.3" height="59.4">
					<feColorMatrix  type="matrix" values="1 0 0 0 0  0 1 0 0 0  0 0 1 0 0  0 0 0 1 0"/>
				</filter>
			</defs>
			<mask maskUnits="userSpaceOnUse" x="135" y="253.3" width="56.3" height="59.4" id="SVGID_9_">
				<g class="st17">
					<linearGradient id="SVGID_10_" gradientUnits="userSpaceOnUse" x1="163.4288" y1="252.0126" x2="163.4288" y2="281.8187">
						<stop  offset="0" style="stop-color:#FFFFFF"/>
						<stop  offset="0.9939" style="stop-color:#000000"/>
					</linearGradient>
					<rect x="130.4" y="251" class="st18" width="66.1" height="64.8"/>
				</g>
			</mask>
			<g class="st19">
				<path class="st20" d="M186.6,312.7c0,0-25.3-7.9-33.1-26.3c7.1-6.2,12.4-16.4,4.2-31.6c0,0,0.1-0.1,0.1-0.1l21,42.6l-18.6-44
					C207.9,265.5,186.6,312.7,186.6,312.7z"/>
				<path class="st20" d="M153.5,286.4c-6.8,6-15.3,8.4-15.3,8.4s-14.4-30.4,17.8-41L139.4,292l14.2-29
					C150.2,272.1,150.7,279.9,153.5,286.4z"/>
				<path class="st20" d="M153.5,286.4c-2.8-6.5-3.3-14.3,0.2-23.5l3.9-8c0,0,0-0.1,0.1-0.1C165.9,270.1,160.6,280.2,153.5,286.4z"
					/>
			</g>
		</g>
		<g>
			<g>
				<path class="st21" d="M292.7,225.2c-0.7-27-19.7-40.6-19.7-40.6c-20.6,15.3-19.4,40.8-19.4,40.8c0,6.9,3.1,13,7.8,16.9
					c-0.3-1.1-0.4-2.3-0.4-3.5c0,0-0.7-15.8,12.1-25.3c0,0,11.7,8.5,12.1,25.3c0,1.2-0.1,2.4-0.4,3.5
					C289.8,238.4,292.9,232.2,292.7,225.2z"/>
				<path class="st22" d="M261.5,242.3c1.4,5.6,6.1,9.7,11.7,9.7c5.6,0,10.4-4.1,11.7-9.7c-3.3,2.6-7.3,4.2-11.6,4.2
					C268.9,246.5,264.8,245,261.5,242.3z"/>
				
					<linearGradient id="SVGID_11_" gradientUnits="userSpaceOnUse" x1="273.4329" y1="353.7129" x2="273.4329" y2="291.7836" gradientTransform="matrix(1 -5.500000e-03 5.500000e-03 1 -2.1615 -105.694)">
					<stop  offset="0" style="stop-color:#FFC20E"/>
					<stop  offset="0.9939" style="stop-color:#FFF200"/>
				</linearGradient>
				<path class="st23" d="M273.2,213.5c-12.9,9.5-12.1,25.3-12.1,25.3c0,1.2,0.2,2.4,0.4,3.5c3.3,2.7,7.4,4.3,11.8,4.2
					c4.3,0,8.4-1.6,11.6-4.2c0.3-1.1,0.4-2.3,0.4-3.5C284.9,222,273.2,213.5,273.2,213.5z"/>
				<path class="st24" d="M273.2,213.5c-12.9,9.5-12.1,25.3-12.1,25.3c0,1.2,0.2,2.4,0.4,3.5c3.3,2.7,7.4,4.3,11.8,4.2
					c4.3,0,8.4-1.6,11.6-4.2c0.3-1.1,0.4-2.3,0.4-3.5C284.9,222,273.2,213.5,273.2,213.5z"/>
			</g>
			<defs>
				<filter id="Adobe_OpacityMaskFilter_3_" filterUnits="userSpaceOnUse" x="253.6" y="255" width="39.1" height="67.4">
					<feColorMatrix  type="matrix" values="1 0 0 0 0  0 1 0 0 0  0 0 1 0 0  0 0 0 1 0"/>
				</filter>
			</defs>
			<mask maskUnits="userSpaceOnUse" x="253.6" y="255" width="39.1" height="67.4" id="SVGID_12_">
				<g class="st25">
					<linearGradient id="SVGID_13_" gradientUnits="userSpaceOnUse" x1="271.1284" y1="253.789" x2="271.1284" y2="291.0456">
						<stop  offset="0" style="stop-color:#FFFFFF"/>
						<stop  offset="0.9939" style="stop-color:#000000"/>
					</linearGradient>
					<rect x="245" y="254.1" class="st26" width="52.2" height="73.6"/>
				</g>
			</mask>
			<g class="st27">
				<path class="st21" d="M292.7,281.8c-0.7,27-19.7,40.6-19.7,40.6c-20.6-15.3-19.4-40.8-19.4-40.8c0-6.9,3.1-13,7.8-16.9
					c-0.3,1.1-0.4,2.3-0.4,3.5c0,0-0.7,15.8,12.1,25.3c0,0,11.7-8.5,12.1-25.3c0-1.2-0.1-2.4-0.4-3.5
					C289.8,268.6,292.9,274.8,292.7,281.8z"/>
				<path class="st22" d="M261.5,264.8c1.4-5.6,6.1-9.7,11.7-9.7c5.6,0,10.4,4.1,11.7,9.7c-3.3-2.6-7.3-4.2-11.6-4.2
					C268.9,260.5,264.8,262.1,261.5,264.8z"/>
				
					<linearGradient id="SVGID_14_" gradientUnits="userSpaceOnUse" x1="270.7476" y1="842.0506" x2="270.7476" y2="780.1207" gradientTransform="matrix(1 5.500000e-03 5.500000e-03 -1 -2.162 1101.0822)">
					<stop  offset="0" style="stop-color:#FFC20E"/>
					<stop  offset="0.9939" style="stop-color:#FFF200"/>
				</linearGradient>
				<path class="st28" d="M273.2,293.5c-12.9-9.5-12.1-25.3-12.1-25.3c0-1.2,0.2-2.4,0.4-3.5c3.3-2.7,7.4-4.3,11.8-4.2
					c4.3,0,8.4,1.6,11.6,4.2c0.3,1.1,0.4,2.3,0.4,3.5C284.9,285,273.2,293.5,273.2,293.5z"/>
				<path class="st24" d="M273.2,293.5c-12.9-9.5-12.1-25.3-12.1-25.3c0-1.2,0.2-2.4,0.4-3.5c3.3-2.7,7.4-4.3,11.8-4.2
					c4.3,0,8.4,1.6,11.6,4.2c0.3,1.1,0.4,2.3,0.4,3.5C284.9,285,273.2,293.5,273.2,293.5z"/>
			</g>
		</g>
	</g>
	<g>
		<g>
			<path class="st29" d="M23.3,42.1h15v64.7c0,18.3,12.2,25.9,30.7,25.9c18.5,0,30.7-7.6,30.7-25.9V42.1h15V105
				c0,27-15,40.8-45.7,40.8c-30.7,0-45.7-13.7-45.7-40.8V42.1z"/>
			<path class="st29" d="M139.2,109.9c0.3,18.1,17.3,22.8,32.6,22.8c16,0,27.3-6.1,27.3-17.1c0-9.2-7.2-13-18.8-15l-22.9-3.8
				c-12-2-30-6.8-30-26.5c0-18.4,14.6-30.7,40.5-30.7c20.2,0,41.6,7.4,43,31.7h-15c-1.3-7.9-5.8-18.7-30-18.7
				c-11,0-23.5,4.7-23.5,16.6c0,6.2,4.1,11.2,16.6,13.3l24.8,4.2c7.9,1.4,30.4,5.2,30.4,25.9c0,25.8-23.1,33.1-43.5,33.1
				c-22.8,0-46.4-7.9-46.4-35.8H139.2z"/>
		</g>
		<g>
			<path class="st29" d="M307,78.5c-2.3-14-13.3-25.9-34.5-25.9c-23.9,0-39.1,13.7-39.1,41.3c0,19.1,10.3,38.8,38.2,38.8
				c17.7,0,31.1-8.5,35.4-28.2h15c-2.4,22.4-21.7,41.2-50.5,41.2c-25.5,0-53.1-14-53.1-53.4c0-29.5,18.4-52.8,53-52.8
				c20.2,0,48.1,8.6,50.7,38.9H307z"/>
			<path class="st29" d="M335.8,42.1h78.3v13h-63.3V85h60.3v13h-60.3v45.2h-15V42.1z"/>
		</g>
	</g>
</g>
</svg>
