<svg width="110" height="107" viewBox="0 0 110 107" fill="none" xmlns="http://www.w3.org/2000/svg">
<path d="M106.288 66.9479C99.2084 94.5373 70.4461 111.326 42.0465 104.448C13.6601 97.5694 -3.62147 69.6243 3.45979 42.0366C10.5361 14.444 39.2968 -2.34818 67.6881 4.53026C96.0861 11.4087 113.366 39.357 106.286 66.9479H106.288Z" fill="url(#paint0_linear_110_219)"/>
<path d="M108.873 54.4888C108.873 82.9316 85.1442 105.989 55.8731 105.989C26.6017 105.989 2.8728 82.9316 2.8728 54.4888C2.8728 26.0463 26.6017 2.98914 55.8731 2.98914C85.1439 2.98914 108.873 26.0463 108.873 54.4888" fill="#2A2A2A"/>
<mask id="mask0_110_219" style="mask-type:alpha" maskUnits="userSpaceOnUse" x="0" y="0" width="110" height="107">
<path d="M105.319 65.6688C98.3814 92.7064 70.1942 109.16 42.3626 102.419C14.544 95.6778 -2.39196 68.2916 4.54768 41.2556C11.4825 14.2149 39.6679 -2.24143 67.4914 4.49944C95.3214 11.2403 112.256 38.6296 105.318 65.6688H105.319Z" stroke="#E6DFD0" stroke-width="5.98007"/>
</mask>
<g mask="url(#mask0_110_219)">
<path d="M105.319 65.6688C98.3814 92.7064 70.1942 109.16 42.3626 102.419C14.544 95.6778 -2.39196 68.2916 4.54768 41.2556C11.4825 14.2149 39.6679 -2.24143 67.4914 4.49944C95.3214 11.2403 112.256 38.6296 105.318 65.6688H105.319Z" stroke="#E6DFD0" stroke-width="5.98007"/>
</g>
<path d="M53.4271 22.6214C61.4626 22.1785 69.0577 24.0586 75.5863 28.6937C92.4829 40.691 93.6938 64.9444 78.098 78.4691V78.4701C70.0242 85.4713 59.0732 88.1666 48.4613 85.7699C33.1703 82.3167 22.2515 68.2868 23.1889 53.0082C23.2037 52.7678 23.1391 52.3819 23.1879 52.1781C23.2002 52.1302 23.3038 52.1595 23.3148 52.0502C23.3623 51.5922 23.3158 51.0792 23.3793 50.5589C24.6375 40.2342 31.3638 30.9782 40.765 26.18C44.4274 24.3109 49.2866 22.8498 53.4271 22.6214ZM75.0111 34.7923C59.1596 20.6046 33.5018 28.4759 28.9379 48.8304C24.3098 69.4709 44.9742 87.1475 65.4779 80.015C84.9744 73.233 90.3301 48.5035 75.0111 34.7923ZM50.2894 65.058C50.5104 65.2204 50.2708 65.9351 50.4398 66.0502C51.3245 66.0556 52.1321 66.2635 52.9711 66.4955V68.4711C52.1178 68.2798 51.275 67.9464 50.3822 67.9925V70.0589C50.9374 70.2711 51.5561 70.319 52.1107 70.5951C53.9638 71.5189 54.0324 74.1496 52.3139 75.2298C51.7376 75.5918 51.0498 75.728 50.3822 75.8382V76.767C50.3279 76.8526 50.2594 76.8495 50.1693 76.8597C49.9534 76.8843 49.192 76.8916 48.9945 76.8568C48.9257 76.8448 48.879 76.8262 48.8402 76.767V75.8988C47.8161 75.8197 46.8443 75.7325 45.8812 75.3597V73.3832C46.8388 73.687 47.8167 73.9773 48.8402 73.9222V71.8558L48.7367 71.7767C46.6159 71.6125 45.2737 70.3798 45.7758 68.2201C46.0929 66.8558 47.5044 66.1716 48.8402 66.0755V65.058H50.2894ZM62.6303 65.058C65.2622 65.0582 67.2183 66.6613 68.6498 68.6664C69.2071 69.4471 69.0519 70.5353 68.3783 71.2054L63.5619 75.9974C63.0379 76.5183 62.2216 76.5183 61.6977 75.9974L56.8812 71.2054C56.2076 70.5353 56.0524 69.4471 56.6098 68.6664C58.0413 66.6612 59.9981 65.058 62.6303 65.058ZM50.3822 73.8617C51.8088 73.7459 51.7909 72.2475 50.3822 72.0658V73.8617ZM48.8402 68.0824C48.7499 67.9509 48.4203 68.0866 48.2865 68.1429C47.8564 68.324 47.6835 68.5825 47.7279 69.0453C47.7773 69.5564 48.3935 69.7528 48.8402 69.85V68.0824ZM56.3148 52.9457L62.3871 35.517H70.6478L70.7406 35.6068V64.3861C70.2199 64.2518 69.7536 63.8277 69.2816 63.558C67.9512 62.7978 66.5465 62.1932 65.1303 61.6009V43.0648C65.0446 43.0655 65.006 43.2364 64.9789 43.306C62.8722 48.6707 61.1958 54.2402 59.0453 59.5834C58.9743 59.7599 58.8276 60.2404 58.6303 60.2494C58.3951 60.26 57.9632 60.1396 57.7035 60.1312C56.8577 60.1036 55.8928 60.1001 55.0482 60.1312C54.759 60.142 53.8286 60.3531 53.6596 60.1683L47.3129 43.3343V61.6615C47.3129 61.6891 47.2467 61.7941 47.2035 61.8109C45.9114 62.2845 44.6593 62.8781 43.4721 63.5609C42.8767 63.9032 42.3257 64.3462 41.7025 64.6273V35.517H49.9945L56.3148 52.9457Z" fill="url(#paint1_linear_110_219)"/>
<defs>
<linearGradient id="paint0_linear_110_219" x1="83.3512" y1="2.71501" x2="25.7967" y2="105.306" gradientUnits="userSpaceOnUse">
<stop offset="0.0824662" stop-opacity="0.04"/>
<stop offset="0.393085" stop-opacity="0"/>
<stop offset="1" stop-opacity="0.08"/>
</linearGradient>
<linearGradient id="paint1_linear_110_219" x1="-2.12448" y1="103.862" x2="46.6734" y2="-32.9706" gradientUnits="userSpaceOnUse">
<stop stop-color="#C7BAAF"/>
<stop offset="0.149038" stop-color="#766D63"/>
<stop offset="0.476476" stop-color="#E6DFD0"/>
<stop offset="0.554118" stop-color="#E6DACA"/>
<stop offset="1" stop-color="#A29993"/>
</linearGradient>
</defs>
</svg>
