<svg xmlns="http://www.w3.org/2000/svg" viewBox="0 0 2000 2000"><defs><style>.cls-1{fill:#2775ca;}.cls-2{fill:#fff;}</style></defs><g id="Layer_2" data-name="Layer 2"><g id="Layer_1-2" data-name="Layer 1"><path class="cls-1" d="M1000,2000c554.17,0,1000-445.83,1000-1000S1554.17,0,1000,0,0,445.83,0,1000,445.83,2000,1000,2000Z"/><path class="cls-2" d="M787.5,1595.83c-325-116.66-491.67-479.16-370.83-800,62.5-175,200-308.33,370.83-370.83,16.67-8.33,25-20.83,25-41.67V325c0-16.67-8.33-29.17-25-33.33-4.17,0-12.5,0-16.67,4.16-395.83,125-612.5,545.84-487.5,941.67,75,233.33,254.17,412.5,487.5,487.5,16.67,8.33,33.34,0,37.5-16.67,4.17-4.16,4.17-8.33,4.17-16.66v-58.34C812.5,1620.83,800,1604.17,787.5,1595.83Zm441.67-1300c-16.67-8.33-33.34,0-37.5,16.67-4.17,4.17-4.17,8.33-4.17,16.67V387.5c0,16.67,12.5,33.33,25,41.67,325,116.66,491.67,479.16,370.83,800-62.5,175-200,308.33-370.83,370.83-16.67,8.33-25,20.83-25,41.67V1700c0,16.67,8.33,29.17,25,33.33,4.17,0,12.5,0,16.67-4.16,395.83-125,612.5-545.84,487.5-941.67-75-237.5-258.34-416.67-487.5-491.67Z"/><path class="cls-2" d="M797.43,1113a38.12,38.12,0,0,1,27.33-11.54c28.25,0,51.33,36.44,27.34,65.9-26.42,31.28-76.53,87.76-56.79,132.71,8.5,18.82,27.33,25.2,48,25.2,85.64,0,244.76-71.06,260.55-160C1122.67,1066.81,996,1026.12,928,997.88c-66.8-27.33-130.58-70.15-129.67-151.54C800.47,724.87,993.91,587.91,1109,587.91a160.86,160.86,0,0,1,53.44,9.42c155.79,56.48,74.4,272.09-14.57,351.35a33.33,33.33,0,0,1-21.87,9.41c-25.2,0-44.94-31.27-24-55.26,38.57-45.86,116-209.24,18.83-209.24a114.64,114.64,0,0,0-30.37,4.25C1037,710.29,874,803.52,925.28,873.67c32.49,45,153.66,94.14,207.11,134.84,59.52,44.94,101.43,108.71,81.69,187.36-36.44,150.63-241.73,249-386,241.73-77.43-4.25-125.41-54.36-133.92-129.67C684.46,1223.81,741,1165.2,797.43,1113Z"/></g></g></svg>