<?xml version="1.0" encoding="UTF-8"?>
<svg id="Layer_2" data-name="Layer 2" xmlns="http://www.w3.org/2000/svg" xmlns:xlink="http://www.w3.org/1999/xlink" viewBox="0 0 124 124">
  <defs>
    <style>
      .cls-1 {
        fill: #111;
      }

      .cls-2 {
        fill: url(#linear-gradient-2);
      }

      .cls-3 {
        fill: url(#linear-gradient);
      }
    </style>
    <linearGradient id="linear-gradient" x1="62" y1="126" x2="62" y2="2" gradientTransform="translate(0 126) scale(1 -1)" gradientUnits="userSpaceOnUse">
      <stop offset="0" stop-color="#fe9a4c"/>
      <stop offset="1" stop-color="#c25e14"/>
    </linearGradient>
    <linearGradient id="linear-gradient-2" x1="62" y1="0" x2="62" y2="124" gradientUnits="userSpaceOnUse">
      <stop offset="0" stop-color="#fcc397"/>
      <stop offset="1" stop-color="#fcc397" stop-opacity="0"/>
    </linearGradient>
  </defs>
  <g id="Layer_1-2" data-name="Layer 1">
    <circle class="cls-3" cx="62" cy="62" r="62"/>
    <path class="cls-2" d="M62,2c33.08,0,60,26.92,60,60s-26.92,60-60,60S2,95.08,2,62,28.92,2,62,2M62,0C27.76,0,0,27.76,0,62s27.76,62,62,62,62-27.76,62-62S96.24,0,62,0h0Z"/>
    <path class="cls-1" d="M24.31,36.41c-10.77,15.41-10.84,36.03-.22,51.51l-4.93,4.93c-13.21-18.27-13.13-43.17.23-61.36l4.92,4.92Z"/>
    <path class="cls-1" d="M92.34,104.44c-18.2,13.36-43.09,13.44-61.36.23l4.93-4.93c15.49,10.62,36.1,10.55,51.52-.22l4.92,4.92Z"/>
    <path class="cls-1" d="M87.1,24.92c-15.27-10.48-35.53-10.55-50.87-.22l-4.93-4.93c18.14-12.91,42.67-12.84,60.74.22l-4.93,4.93Z"/>
    <path class="cls-1" d="M103.84,31.8c13.06,18.06,13.13,42.6.22,60.74l-4.93-4.93c10.33-15.34,10.26-35.6-.22-50.88l4.93-4.93Z"/>
    <path class="cls-1" d="M73.64,59.81c-2.17-1.06-4.93-1.6-8.19-1.6h-9.1c-2.3,0-4.13-.64-5.42-1.87l-.06-.06c-1.27-1.35-1.88-2.88-1.88-4.66s.63-3.42,1.88-4.75c1.26-1.35,2.97-2.02,5.1-2.02h22.82v-5.85h-12.79v-9s-8,0-8,0v9h-2.87c-2.6,0-4.85.61-6.85,1.86-2,1.19-3.52,2.72-4.64,4.69-1.12,1.96-1.66,4.04-1.66,6.36,0,2.72.58,5.02,1.73,6.89,1.23,1.89,2.85,3.29,4.99,4.32,2.17.94,4.74,1.42,7.64,1.42h9.56c1.53,0,2.88.35,4.04,1.06,1.15.63,2.02,1.52,2.59,2.66.56,1.07.82,2.16.82,3.44s-.31,2.57-.93,3.74c-.61,1.18-1.56,2.17-2.79,2.93-1.16.69-2.57,1.04-4.19,1.04h-21.98s0,5.84,0,5.84h14.52s0,9.09,0,9.09h8v-9.09s.48,0,.48,0c2.78,0,5.15-.64,7.21-1.95,2.13-1.32,3.75-2.96,4.93-5.06,1.18-2.15,1.76-4.39,1.76-6.84,0-2.84-.59-5.27-1.75-7.2-1.1-1.93-2.73-3.37-4.98-4.39h0Z"/>
  </g>
</svg>