<svg xmlns="http://www.w3.org/2000/svg" viewBox="0 0 500 500"><defs><clipPath id="a"><circle cx="250" cy="250" r="250" fill="none"/></clipPath></defs><g clip-path="url(#a)"><path fill="#fff" d="M85.3 77.3c47.2 46.8 122.6 86.7 213.8 114.1-47.6-26.8-91.8-60.1-130.4-98.6a588.98 588.98 0 0 1-41.1-45.3l-9-11c-15.1 9.2-29.1 20.1-41.8 32.2l8.6 8.5ZM-.5 268c3.7 51.3 22.8 98.3 52.8 136.4l7.8-7.7c29.2-28.8 67.3-55 113.2-77.9 40.3-20 86.4-37.2 136.2-50.8H-.5Zm299.6 40.6C207.9 336 132.5 375.9 85.3 422.7l-8.6 8.5c12.8 12.1 26.8 23 41.8 32.2l9-11c12.9-15.7 26.7-31 41.1-45.3 38.6-38.5 82.8-71.8 130.4-98.6ZM157.2 26.8c11.7 14.1 24.1 27.7 37 40.6 81.6 81.3 184.4 135.1 297.1 155.4l9.2 1.7C487.6 98.2 380.5-.5 250.3-.5s-68.6 7.2-99 20.2l5.9 7.1ZM309.6 232c-49.8-13.6-95.9-30.8-136.2-50.8-45.9-22.9-83.9-49.1-113.2-77.9l-7.8-7.7C22.4 133.7 3.2 180.7-.5 232h310Zm181.6 45.2c-112.7 20.4-215.4 74.1-297.1 155.4-13 12.9-25.4 26.6-37 40.6l-5.9 7.1c30.4 13 63.8 20.2 99 20.2 130.2 0 237.3-98.6 250.2-224.9l-9.2 1.6Z"/></g></svg>