<svg xmlns="http://www.w3.org/2000/svg" viewBox="0 0 500 500"><defs><linearGradient id="a" x1="156.3" x2="156.3" y1="278.7" y2="129.5" gradientTransform="matrix(1 0 0 -1 0 502)" gradientUnits="userSpaceOnUse"><stop offset="0" stop-color="#0284fe"/><stop offset="1" stop-color="#70d3fe"/></linearGradient><linearGradient id="b" x1="343.7" x2="343.7" y1="278.7" y2="129.5" gradientTransform="matrix(1 0 0 -1 0 502)" gradientUnits="userSpaceOnUse"><stop offset="0" stop-color="#0284fe"/><stop offset="1" stop-color="#70d3fe"/></linearGradient><linearGradient id="c" x1="250" x2="250" y1="386.5" y2="209.4" gradientTransform="matrix(1 0 0 -1 0 502)" gradientUnits="userSpaceOnUse"><stop offset="0" stop-color="#0284fe"/><stop offset="1" stop-color="#70d3fe"/></linearGradient></defs><rect width="500" height="500" fill="#fff" rx="250" ry="250"/><path fill="url(#a)" d="m101.7 297.9 143 5.3-69.3 60.6c-11.5 11.5-30.1 11.5-41.6 0l-65.8-66 65.8-66c11.5-11.5 30.1-11.5 41.6 0l69.3 60.6-143 5.3Z"/><path fill="url(#b)" d="m398.3 297.9-143 5.3 69.3 60.6c11.5 11.5 30.1 11.5 41.6 0l65.8-66-65.8-66c-11.5-11.5-30.1-11.5-41.6 0l-69.3 60.6 143 5.3Z"/><path fill="url(#c)" d="m250 149.3-5.3 143.3-60.5-69.5c-11.5-11.5-11.5-30.2 0-41.7l65.8-66 65.8 66c11.5 11.5 11.5 30.2 0 41.7l-60.5 69.5-5.3-143.3Z"/></svg>