<?xml version="1.0" encoding="UTF-8"?>
<svg id="Layer_1" xmlns="http://www.w3.org/2000/svg" version="1.1" viewBox="0 0 1080 1080">
  <!-- Generator: Adobe Illustrator 29.5.1, SVG Export Plug-In . SVG Version: 2.1.0 Build 141)  -->
  <defs>
    <style>
      .st0 {
        fill: #00a3ff;
      }

      .st1 {
        fill: #33b5ff;
      }

      .st2 {
        fill: #99daff;
      }

      .st3 {
        fill: #fff;
      }
    </style>
  </defs>
  <rect class="st0" x="0" y="0" width="1080" height="1080" rx="540" ry="540"/>
  <g>
    <path class="st2" d="M765.93,505.66l-225.93,413.83c150.85,0,273.13-118.62,273.13-264.94,0-55.2-17.42-106.45-47.2-148.89Z"/>
    <path class="st3" d="M266.87,654.55c0,146.32,122.29,264.94,273.13,264.94l-225.93-413.83c-29.78,42.43-47.2,93.68-47.2,148.89Z"/>
  </g>
  <g>
    <polygon class="st3" points="352.16 452.7 540 344.85 540 166.39 352.16 452.7"/>
    <g>
      <polygon class="st2" points="352.16 452.7 540 564.41 540 344.85 352.16 452.7"/>
      <g>
        <path class="st2" d="M314.6,504.94c-.17.24-.36.48-.53.72l225.93,413.83v-293.28l-225.4-121.27Z"/>
        <path class="st1" d="M765.4,504.94l-225.4,121.27v293.28l225.93-413.83c-.17-.25-.36-.48-.53-.72Z"/>
      </g>
      <polygon class="st1" points="540 344.85 540 564.41 727.84 452.7 540 344.85"/>
    </g>
    <polygon class="st2" points="540 166.39 540 344.85 727.84 452.7 540 166.39"/>
  </g>
</svg>