<svg xmlns="http://www.w3.org/2000/svg" viewBox="0 0 62 62">
  <defs>
    <linearGradient id="a" x1="-20.6" x2="-19.09" y1="148.41" y2="64.95" gradientTransform="matrix(1.28 0 0 -1.28 56.38 163.23)" gradientUnits="userSpaceOnUse">
      <stop offset=".23" stop-color="#fbc67e"/>
      <stop offset=".69" stop-color="#ff9401"/>
    </linearGradient>
    <mask id="b" width="46.98" height="31.42" x="7.65" y="15.25" maskUnits="userSpaceOnUse">
      <path fill="#fff" d="M7.65 15.25h46.98v31.42H7.65z"/>
      <path d="M7.95 18.71h3.07v3.07H7.95zm3.07 0h3.07v3.07h-3.07zm0 3.07h3.07v3.07h-3.07zm-3.07 0h3.07v3.07H7.95zm3.07-6.14h3.07v3.07h-3.07zm3.08 3.07h3.07v3.07H14.1zm3.07 0h3.07v3.07h-3.07zm3.07 0h3.07v3.07h-3.07zm3.07 0h3.07v3.07h-3.07zm0-3.07h3.07v3.07h-3.07zm-3.07 0h3.07v3.07h-3.07zm-3.07 0h3.07v3.07h-3.07zm-3.07 0h3.07v3.07H14.1zm12.29 3.07h3.07v3.07h-3.07zm0 3.07h3.07v3.07h-3.07zm0 3.07h3.07v3.07h-3.07zm-3.08 0h3.07v3.07h-3.07zm0-3.07h3.07v3.07h-3.07zm0 6.15h3.07V31h-3.07zm-3.07 0h3.07V31h-3.07zm-3.07 0h3.07V31h-3.07zm-3.07 0h3.07V31H14.1zm0 3.07h3.07v3.07H14.1zm3.07 0h3.07v3.07h-3.07zm3.07 0h3.07v3.07h-3.07zm3.07 0h3.07v3.07h-3.07zm0 3.07h3.07v3.07h-3.07zm0 3.08h3.07v3.07h-3.07zm3.08 0h3.07v3.07h-3.07zm0-3.08h3.07v3.07h-3.07zm0 6.15h3.07v3.07h-3.07zm-3.08 0h3.07v3.07h-3.07zm0 3.07h3.07v3.07h-3.07zm-3.07-3.07h3.07v3.07h-3.07zm-3.07 0h3.07v3.07h-3.07zm-3.07 3.07h3.07v3.07H14.1zm-3.08 0h3.07v3.07h-3.07zm0-3.07h3.07v3.07h-3.07zm3.08 0h3.07v3.07H14.1zm3.07 3.07h3.07v3.07h-3.07zm3.07 0h3.07v3.07h-3.07zm-9.22-6.14h3.07v3.07h-3.07zm-3.07 0h3.07v3.07H7.95zm0 3.07h3.07v3.07H7.95zm24.59-21.51h3.07v3.07h-3.07zm3.07 0h3.07v3.07h-3.07zm0 3.07h3.07v3.07h-3.07zm-3.07 0h3.07v3.07h-3.07zm3.07-6.14h3.07v3.07h-3.07zm3.08 3.07h3.07v3.07h-3.07zm3.07 0h3.07v3.07h-3.07zm3.07 0h3.07v3.07h-3.07zm3.07 0h3.07v3.07H47.9zm0-3.07h3.07v3.07H47.9zm-3.07 0h3.07v3.07h-3.07zm-3.07 0h3.07v3.07h-3.07zm-3.07 0h3.07v3.07h-3.07zm12.29 3.07h3.07v3.07h-3.07zm0 3.07h3.07v3.07h-3.07zm0 3.07h3.07v3.07h-3.07zm-3.08 0h3.07v3.07H47.9zm0-3.07h3.07v3.07H47.9zm0 6.15h3.07V31H47.9zm-3.07 0h3.07V31h-3.07zm-3.07 0h3.07V31h-3.07zm-3.07 0h3.07V31h-3.07zm0 3.07h3.07v3.07h-3.07zm3.07 0h3.07v3.07h-3.07zm3.07 0h3.07v3.07h-3.07zm3.07 0h3.07v3.07H47.9zm0 3.07h3.07v3.07H47.9zm0 3.08h3.07v3.07H47.9zm3.08 0h3.07v3.07h-3.07zm0-3.08h3.07v3.07h-3.07zm0 6.15h3.07v3.07h-3.07zm-3.08 0h3.07v3.07H47.9zm0 3.07h3.07v3.07H47.9zm-3.07-3.07h3.07v3.07h-3.07zm-3.07 0h3.07v3.07h-3.07zm-3.07 3.07h3.07v3.07h-3.07zm-3.08 0h3.07v3.07h-3.07zm0-3.07h3.07v3.07h-3.07zm3.08 0h3.07v3.07h-3.07zm3.07 3.07h3.07v3.07h-3.07zm3.07 0h3.07v3.07h-3.07zm-9.22-6.14h3.07v3.07h-3.07zm-3.07 0h3.07v3.07h-3.07zm0 3.07h3.07v3.07h-3.07z"/>
    </mask>
  </defs>
  <path fill="#110807" d="M31 0c17.12 0 31 13.88 31 31S48.12 62 31 62 0 48.12 0 31 13.88 0 31 0"/>
  <path fill="url(#a)" d="M7.95 18.71h3.07v3.07H7.95zm3.07 0h3.07v3.07h-3.07zm0 3.07h3.07v3.07h-3.07zm-3.07 0h3.07v3.07H7.95zm3.07-6.14h3.07v3.07h-3.07zm3.08 3.07h3.07v3.07H14.1zm3.07 0h3.07v3.07h-3.07zm3.07 0h3.07v3.07h-3.07zm3.07 0h3.07v3.07h-3.07zm0-3.07h3.07v3.07h-3.07zm-3.07 0h3.07v3.07h-3.07zm-3.07 0h3.07v3.07h-3.07zm-3.07 0h3.07v3.07H14.1zm12.29 3.07h3.07v3.07h-3.07zm0 3.07h3.07v3.07h-3.07zm0 3.07h3.07v3.07h-3.07zm-3.08 0h3.07v3.07h-3.07zm0-3.07h3.07v3.07h-3.07zm0 6.15h3.07V31h-3.07zm-3.07 0h3.07V31h-3.07zm-3.07 0h3.07V31h-3.07zm-3.07 0h3.07V31H14.1zm0 3.07h3.07v3.07H14.1zm3.07 0h3.07v3.07h-3.07zm3.07 0h3.07v3.07h-3.07zm3.07 0h3.07v3.07h-3.07zm0 3.07h3.07v3.07h-3.07zm0 3.08h3.07v3.07h-3.07zm3.08 0h3.07v3.07h-3.07zm0-3.08h3.07v3.07h-3.07zm0 6.15h3.07v3.07h-3.07zm-3.08 0h3.07v3.07h-3.07zm0 3.07h3.07v3.07h-3.07zm-3.07-3.07h3.07v3.07h-3.07zm-3.07 0h3.07v3.07h-3.07zm-3.07 3.07h3.07v3.07H14.1zm-3.08 0h3.07v3.07h-3.07zm0-3.07h3.07v3.07h-3.07zm3.08 0h3.07v3.07H14.1zm3.07 3.07h3.07v3.07h-3.07zm3.07 0h3.07v3.07h-3.07zm-9.22-6.14h3.07v3.07h-3.07zm-3.07 0h3.07v3.07H7.95zm0 3.07h3.07v3.07H7.95zm24.59-21.51h3.07v3.07h-3.07zm3.07 0h3.07v3.07h-3.07zm0 3.07h3.07v3.07h-3.07zm-3.07 0h3.07v3.07h-3.07zm3.07-6.14h3.07v3.07h-3.07zm3.08 3.07h3.07v3.07h-3.07zm3.07 0h3.07v3.07h-3.07zm3.07 0h3.07v3.07h-3.07zm3.07 0h3.07v3.07H47.9zm0-3.07h3.07v3.07H47.9zm-3.07 0h3.07v3.07h-3.07zm-3.07 0h3.07v3.07h-3.07zm-3.07 0h3.07v3.07h-3.07zm12.29 3.07h3.07v3.07h-3.07zm0 3.07h3.07v3.07h-3.07zm0 3.07h3.07v3.07h-3.07zm-3.08 0h3.07v3.07H47.9zm0-3.07h3.07v3.07H47.9zm0 6.15h3.07V31H47.9zm-3.07 0h3.07V31h-3.07zm-3.07 0h3.07V31h-3.07zm-3.07 0h3.07V31h-3.07zm0 3.07h3.07v3.07h-3.07zm3.07 0h3.07v3.07h-3.07zm3.07 0h3.07v3.07h-3.07zm3.07 0h3.07v3.07H47.9zm0 3.07h3.07v3.07H47.9zm0 3.08h3.07v3.07H47.9zm3.08 0h3.07v3.07h-3.07zm0-3.08h3.07v3.07h-3.07zm0 6.15h3.07v3.07h-3.07zm-3.08 0h3.07v3.07H47.9zm0 3.07h3.07v3.07H47.9zm-3.07-3.07h3.07v3.07h-3.07zm-3.07 0h3.07v3.07h-3.07zm-3.07 3.07h3.07v3.07h-3.07zm-3.08 0h3.07v3.07h-3.07zm0-3.07h3.07v3.07h-3.07zm3.08 0h3.07v3.07h-3.07zm3.07 3.07h3.07v3.07h-3.07zm3.07 0h3.07v3.07h-3.07zm-9.22-6.14h3.07v3.07h-3.07zm-3.07 0h3.07v3.07h-3.07zm0 3.07h3.07v3.07h-3.07z"/>
  <g mask="url(#b)">
    <path fill="#fbc67e" d="M7.95 18.71v-.31h-.31v.31zm3.07 0h.31v-.31h-.31zm0 3.07v.31h.31v-.31zm-3.07 0h-.31v.31h.31zm3.07-3.07v-.31h-.31v.31zm3.08 0h.31v-.31h-.31zm0 3.07v.31h.31v-.31zm-3.08 0h-.31v.31h.31zm0 0v-.31h-.31v.31zm3.08 0h.31v-.31h-.31zm0 3.07v.31h.31v-.31zm-3.08 0h-.31v.31h.31zm-3.07-3.07v-.31h-.31v.31zm3.07 0h.31v-.31h-.31zm0 3.07v.31h.31v-.31zm-3.07 0h-.31v.31h.31zm3.07-9.21v-.31h-.31v.31zm3.08 0h.31v-.31h-.31zm0 3.07v.31h.31v-.31zm-3.08 0h-.31v.31h.31zm3.08 0v-.31h-.31v.31zm3.07 0h.31v-.31h-.31zm0 3.07v.31h.31v-.31zm-3.07 0h-.31v.31h.31zm3.07-3.07v-.31h-.31v.31zm3.07 0h.31v-.31h-.31zm0 3.07v.31h.31v-.31zm-3.07 0h-.31v.31h.31zm3.07-3.07v-.31h-.31v.31zm3.07 0h.31v-.31h-.31zm0 3.07v.31h.31v-.31zm-3.07 0h-.31v.31h.31zm3.07-3.07v-.31H23v.31zm3.08 0h.31v-.31h-.31zm0 3.07v.31h.31v-.31zm-3.08 0H23v.31h.31zm0-6.14v-.31H23v.31zm3.08 0h.31v-.31h-.31zm0 3.07v.31h.31v-.31zm-3.08 0H23v.31h.31zm-3.07-3.07v-.31h-.31v.31zm3.07 0h.31v-.31h-.31zm0 3.07v.31h.31v-.31zm-3.07 0h-.31v.31h.31zm-3.07-3.07v-.31h-.31v.31zm3.07 0h.31v-.31h-.31zm0 3.07v.31h.31v-.31zm-3.07 0h-.31v.31h.31zm-3.07-3.07v-.31h-.31v.31zm3.07 0h.31v-.31h-.31zm0 3.07v.31h.31v-.31zm-3.07 0h-.31v.31h.31zm12.29 0v-.31h-.31v.31zm3.07 0h.31v-.31h-.31zm0 3.07v.31h.31v-.31zm-3.07 0h-.31v.31h.31zm0 0v-.31h-.31v.31zm3.07 0h.31v-.31h-.31zm0 3.07v.31h.31v-.31zm-3.07 0h-.31v.31h.31zm0 0v-.31h-.31v.31zm3.07 0h.31v-.31h-.31zm0 3.08v.31h.31v-.31zm-3.07 0h-.31v.31h.31zm-3.08-3.08v-.31H23v.31zm3.08 0h.31v-.31h-.31zm0 3.08v.31h.31v-.31zm-3.08 0H23v.31h.31zm0-6.15v-.31H23v.31zm3.08 0h.31v-.31h-.31zm0 3.07v.31h.31v-.31zm-3.08 0H23v.31h.31zm0 3.08v-.31H23v.31zm3.08 0h.31v-.31h-.31zm0 3.07v.31h.31V31zm-3.08 0H23v.31h.31zm-3.07-3.07v-.31h-.31v.31zm3.07 0h.31v-.31h-.31zm0 3.07v.31h.31V31zm-3.07 0h-.31v.31h.31zm-3.07-3.07v-.31h-.31v.31zm3.07 0h.31v-.31h-.31zm0 3.07v.31h.31V31zm-3.07 0h-.31v.31h.31zm-3.07-3.07v-.31h-.31v.31zm3.07 0h.31v-.31h-.31zm0 3.07v.31h.31V31zm-3.07 0h-.31v.31h.31zm0 0v-.31h-.31V31zm3.07 0h.31v-.31h-.31zm0 3.07v.31h.31v-.31zm-3.07 0h-.31v.31h.31zM17.17 31v-.31h-.31V31zm3.07 0h.31v-.31h-.31zm0 3.07v.31h.31v-.31zm-3.07 0h-.31v.31h.31zM20.24 31v-.31h-.31V31zm3.07 0h.31v-.31h-.31zm0 3.07v.31h.31v-.31zm-3.07 0h-.31v.31h.31zM23.31 31v-.31H23V31zm3.08 0h.31v-.31h-.31zm0 3.07v.31h.31v-.31zm-3.08 0H23v.31h.31zm0 0v-.31H23v.31zm3.08 0h.31v-.31h-.31zm0 3.08v.31h.31v-.31zm-3.08 0H23v.31h.31zm0 0v-.31H23v.31zm3.08 0h.31v-.31h-.31zm0 3.07v.31h.31v-.31zm-3.08 0H23v.31h.31zm3.08-3.07v-.31h-.31v.31zm3.07 0h.31v-.31h-.31zm0 3.07v.31h.31v-.31zm-3.07 0h-.31v.31h.31zm0-6.15v-.31h-.31v.31zm3.07 0h.31v-.31h-.31zm0 3.08v.31h.31v-.31zm-3.07 0h-.31v.31h.31zm0 3.07v-.31h-.31v.31zm3.07 0h.31v-.31h-.31zm0 3.07v.31h.31v-.31zm-3.07 0h-.31v.31h.31zm-3.08-3.07v-.31H23v.31zm3.08 0h.31v-.31h-.31zm0 3.07v.31h.31v-.31zm-3.08 0H23v.31h.31zm0 0v-.31H23v.31zm3.08 0h.31v-.31h-.31zm0 3.07v.31h.31v-.31zm-3.08 0H23v.31h.31zm-3.07-6.14v-.31h-.31v.31zm3.07 0h.31v-.31h-.31zm0 3.07v.31h.31v-.31zm-3.07 0h-.31v.31h.31zm-3.07-3.07v-.31h-.31v.31zm3.07 0h.31v-.31h-.31zm0 3.07v.31h.31v-.31zm-3.07 0h-.31v.31h.31zm-3.07 0v-.31h-.31v.31zm3.07 0h.31v-.31h-.31zm0 3.07v.31h.31v-.31zm-3.07 0h-.31v.31h.31zm-3.08-3.07v-.31h-.31v.31zm3.08 0h.31v-.31h-.31zm0 3.07v.31h.31v-.31zm-3.08 0h-.31v.31h.31zm0-6.14v-.31h-.31v.31zm3.08 0h.31v-.31h-.31zm0 3.07v.31h.31v-.31zm-3.08 0h-.31v.31h.31zm3.08-3.07v-.31h-.31v.31zm3.07 0h.31v-.31h-.31zm0 3.07v.31h.31v-.31zm-3.07 0h-.31v.31h.31zm3.07 0v-.31h-.31v.31zm3.07 0h.31v-.31h-.31zm0 3.07v.31h.31v-.31zm-3.07 0h-.31v.31h.31zm3.07-3.07v-.31h-.31v.31zm3.07 0h.31v-.31h-.31zm0 3.07v.31h.31v-.31zm-3.07 0h-.31v.31h.31zm-9.22-9.21v-.31h-.31v.31zm3.08 0h.31v-.31h-.31zm0 3.07v.31h.31v-.31zm-3.08 0h-.31v.31h.31zm-3.07-3.07v-.31h-.31v.31zm3.07 0h.31v-.31h-.31zm0 3.07v.31h.31v-.31zm-3.07 0h-.31v.31h.31zm0 0v-.31h-.31v.31zm3.07 0h.31v-.31h-.31zm0 3.07v.31h.31v-.31zm-3.07 0h-.31v.31h.31zm0-24.27h3.07v-.61H7.95zm2.77-.31v3.07h.61v-3.07zm.3 2.77H7.95v.61h3.07zm-2.76.3v-3.07h-.61v3.07zm2.76-2.76h3.07v-.61h-3.07zm2.77-.31v3.07h.61v-3.07zm.31 2.77h-3.07v.61h3.07zm-2.77.3v-3.07h-.61v3.07zm-.31.31h3.07v-.61h-3.07zm2.77-.31v3.07h.61v-3.07zm.31 2.77h-3.07v.61h3.07zm-2.77.3v-3.07h-.61v3.07zm-3.38-2.76h3.07v-.61H7.95zm2.77-.31v3.07h.61v-3.07zm.3 2.77H7.95v.61h3.07zm-2.76.3v-3.07h-.61v3.07zm2.76-8.91h3.07v-.61h-3.07zm2.77-.3v3.07h.61v-3.07zm.31 2.76h-3.07v.61h3.07zm-2.77.31v-3.07h-.61v3.07zm2.77.31h3.07v-.61H14.1zm2.76-.31v3.07h.61v-3.07zm.31 2.77H14.1v.61h3.07zm-2.77.3v-3.07h-.61v3.07zm2.77-2.76h3.07v-.61h-3.07zm2.77-.31v3.07h.61v-3.07zm.3 2.77h-3.07v.61h3.07zm-2.77.3v-3.07h-.61v3.07zm2.77-2.76h3.07v-.61h-3.07zm2.77-.31v3.07h.61v-3.07zm.3 2.77h-3.07v.61h3.07zm-2.76.3v-3.07h-.61v3.07zm2.76-2.76h3.07v-.61h-3.07zm2.77-.31v3.07h.61v-3.07zm.31 2.77h-3.07v.61h3.07zm-2.77.3v-3.07h-.61v3.07zm-.31-5.84h3.07v-.61h-3.07zm2.77-.3v3.07h.61v-3.07zm.31 2.76h-3.07v.61h3.07zm-2.77.31v-3.07h-.61v3.07zm-3.38-2.77h3.07v-.61h-3.07zm2.77-.3v3.07h.61v-3.07zm.3 2.76h-3.07v.61h3.07zm-2.76.31v-3.07h-.61v3.07zm-3.38-2.77h3.07v-.61h-3.07zm2.77-.3v3.07h.61v-3.07zm.3 2.76h-3.07v.61h3.07zm-2.77.31v-3.07h-.61v3.07zm-3.37-2.77h3.07v-.61H14.1zm2.76-.3v3.07h.61v-3.07zm.31 2.76H14.1v.61h3.07zm-2.77.31v-3.07h-.61v3.07zm11.99.31h3.07v-.61h-3.07zm2.76-.31v3.07h.61v-3.07zm.31 2.77h-3.07v.61h3.07zm-2.77.3v-3.07h-.61v3.07zm-.3.31h3.07v-.61h-3.07zm2.76-.31v3.07h.61v-3.07zm.31 2.77h-3.07v.61h3.07zm-2.77.3v-3.07h-.61v3.07zm-.3.31h3.07v-.61h-3.07zm2.76-.31v3.07h.61v-3.07zm.31 2.77h-3.07v.61h3.07zm-2.77.31v-3.07h-.61v3.07zm-3.38-2.77h3.07v-.61h-3.07zm2.77-.31v3.07h.61v-3.07zm.31 2.77h-3.07v.61h3.07zm-2.77.31v-3.07h-.61v3.07zm-.31-5.84h3.07v-.61h-3.07zm2.77-.31v3.07h.61v-3.07zm.31 2.77h-3.07v.61h3.07zm-2.77.3v-3.07h-.61v3.07zm-.31 3.38h3.07v-.61h-3.07zm2.77-.3V31h.61v-3.07zm.31 2.76h-3.07v.61h3.07zm-2.77.31v-3.07h-.61V31zm-3.38-2.77h3.07v-.61h-3.07zm2.77-.3V31h.61v-3.07zm.3 2.76h-3.07v.61h3.07zm-2.76.31v-3.07h-.61V31zm-3.38-2.77h3.07v-.61h-3.07zm2.77-.3V31h.61v-3.07zm.3 2.76h-3.07v.61h3.07zm-2.77.31v-3.07h-.61V31zm-3.37-2.77h3.07v-.61H14.1zm2.76-.3V31h.61v-3.07zm.31 2.76H14.1v.61h3.07zM14.4 31v-3.07h-.61V31zm-.3.31h3.07v-.61H14.1zm2.76-.31v3.07h.61V31zm.31 2.77H14.1v.61h3.07zm-2.77.3V31h-.61v3.07zm2.77-2.76h3.07v-.61h-3.07zm2.77-.31v3.07h.61V31zm.3 2.77h-3.07v.61h3.07zm-2.77.3V31h-.61v3.07zm2.77-2.76h3.07v-.61h-3.07zm2.77-.31v3.07h.61V31zm.3 2.77h-3.07v.61h3.07zm-2.76.3V31h-.61v3.07zm2.76-2.76h3.07v-.61h-3.07zm2.77-.31v3.07h.61V31zm.31 2.77h-3.07v.61h3.07zm-2.77.3V31h-.61v3.07zm-.31.31h3.07v-.61h-3.07zm2.77-.31v3.07h.61v-3.07zm.31 2.77h-3.07v.61h3.07zm-2.77.31v-3.07h-.61v3.07zm-.31.3h3.07v-.61h-3.07zm2.77-.3v3.07h.61v-3.07zm.31 2.76h-3.07v.61h3.07zm-2.77.31v-3.07h-.61v3.07zm2.77-2.77h3.07v-.61h-3.07zm2.76-.3v3.07h.61v-3.07zm.31 2.76h-3.07v.61h3.07zm-2.77.31v-3.07h-.61v3.07zm-.3-5.84h3.07v-.61h-3.07zm2.76-.31v3.07h.61v-3.07zm.31 2.77h-3.07v.61h3.07zm-2.77.31v-3.07h-.61v3.07zm-.3 3.37h3.07v-.61h-3.07zm2.76-.3v3.07h.61v-3.07zm.31 2.77h-3.07v.61h3.07zm-2.77.3v-3.07h-.61v3.07zm-3.38-2.77h3.07v-.61h-3.07zm2.77-.3v3.07h.61v-3.07zm.31 2.77h-3.07v.61h3.07zm-2.77.3v-3.07h-.61v3.07zm-.31.31h3.07v-.61h-3.07zm2.77-.31v3.07h.61v-3.07zm.31 2.77h-3.07v.61h3.07zm-2.77.3v-3.07h-.61v3.07zm-3.38-5.84h3.07v-.61h-3.07zm2.77-.3v3.07h.61v-3.07zm.3 2.77h-3.07v.61h3.07zm-2.76.3v-3.07h-.61v3.07zm-3.38-2.77h3.07v-.61h-3.07zm2.77-.3v3.07h.61v-3.07zm.3 2.77h-3.07v.61h3.07zm-2.77.3v-3.07h-.61v3.07zm-3.37.31h3.07v-.61H14.1zm2.76-.31v3.07h.61v-3.07zm.31 2.77H14.1v.61h3.07zm-2.77.3v-3.07h-.61v3.07zm-3.38-2.76h3.07v-.61h-3.07zm2.77-.31v3.07h.61v-3.07zm.31 2.77h-3.07v.61h3.07zm-2.77.3v-3.07h-.61v3.07zm-.31-5.84h3.07v-.61h-3.07zm2.77-.3v3.07h.61v-3.07zm.31 2.77h-3.07v.61h3.07zm-2.77.3v-3.07h-.61v3.07zm2.77-2.77h3.07v-.61H14.1zm2.76-.3v3.07h.61v-3.07zm.31 2.77H14.1v.61h3.07zm-2.77.3v-3.07h-.61v3.07zm2.77.31h3.07v-.61h-3.07zm2.77-.31v3.07h.61v-3.07zm.3 2.77h-3.07v.61h3.07zm-2.77.3v-3.07h-.61v3.07zm2.77-2.76h3.07v-.61h-3.07zm2.77-.31v3.07h.61v-3.07zm.3 2.77h-3.07v.61h3.07zm-2.76.3v-3.07h-.61v3.07zm-9.53-8.91h3.07v-.61h-3.07zm2.77-.3v3.07h.61v-3.07zm.31 2.76h-3.07v.61h3.07zm-2.77.31v-3.07h-.61v3.07zm-3.38-2.77h3.07v-.61H7.95zm2.77-.3v3.07h.61v-3.07zm.3 2.76H7.95v.61h3.07zm-2.76.31v-3.07h-.61v3.07zm-.31.3h3.07v-.61H7.95zm2.77-.3v3.07h.61v-3.07zm.3 2.77H7.95v.61h3.07zm-2.76.3v-3.07h-.61v3.07zm24.28-24.58v-.31h-.31v.31zm3.07 0h.31v-.31h-.31zm0 3.07v.31h.31v-.31zm-3.07 0h-.31v.31h.31zm3.07-3.07v-.31h-.31v.31zm3.08 0H39v-.31h-.31zm0 3.07v.31H39v-.31zm-3.08 0h-.31v.31h.31zm0 0v-.31h-.31v.31zm3.08 0H39v-.31h-.31zm0 3.07v.31H39v-.31zm-3.08 0h-.31v.31h.31zm-3.07-3.07v-.31h-.31v.31zm3.07 0h.31v-.31h-.31zm0 3.07v.31h.31v-.31zm-3.07 0h-.31v.31h.31zm3.07-9.21v-.31h-.31v.31zm3.08 0H39v-.31h-.31zm0 3.07v.31H39v-.31zm-3.08 0h-.31v.31h.31zm3.08 0v-.31h-.31v.31zm3.07 0h.31v-.31h-.31zm0 3.07v.31h.31v-.31zm-3.07 0h-.31v.31h.31zm3.07-3.07v-.31h-.31v.31zm3.07 0h.31v-.31h-.31zm0 3.07v.31h.31v-.31zm-3.07 0h-.31v.31h.31zm3.07-3.07v-.31h-.31v.31zm3.07 0h.31v-.31h-.31zm0 3.07v.31h.31v-.31zm-3.07 0h-.31v.31h.31zm3.07-3.07v-.31h-.31v.31zm3.08 0h.31v-.31h-.31zm0 3.07v.31h.31v-.31zm-3.08 0h-.31v.31h.31zm0-6.14v-.31h-.31v.31zm3.08 0h.31v-.31h-.31zm0 3.07v.31h.31v-.31zm-3.08 0h-.31v.31h.31zm-3.07-3.07v-.31h-.31v.31zm3.07 0h.31v-.31h-.31zm0 3.07v.31h.31v-.31zm-3.07 0h-.31v.31h.31zm-3.07-3.07v-.31h-.31v.31zm3.07 0h.31v-.31h-.31zm0 3.07v.31h.31v-.31zm-3.07 0h-.31v.31h.31zm-3.07-3.07v-.31h-.31v.31zm3.07 0h.31v-.31h-.31zm0 3.07v.31h.31v-.31zm-3.07 0h-.31v.31h.31zm12.29 0v-.31h-.31v.31zm3.07 0h.31v-.31h-.31zm0 3.07v.31h.31v-.31zm-3.07 0h-.31v.31h.31zm0 0v-.31h-.31v.31zm3.07 0h.31v-.31h-.31zm0 3.07v.31h.31v-.31zm-3.07 0h-.31v.31h.31zm0 0v-.31h-.31v.31zm3.07 0h.31v-.31h-.31zm0 3.08v.31h.31v-.31zm-3.07 0h-.31v.31h.31zm-3.08-3.08v-.31h-.31v.31zm3.08 0h.31v-.31h-.31zm0 3.08v.31h.31v-.31zm-3.08 0h-.31v.31h.31zm0-6.15v-.31h-.31v.31zm3.08 0h.31v-.31h-.31zm0 3.07v.31h.31v-.31zm-3.08 0h-.31v.31h.31zm0 3.08v-.31h-.31v.31zm3.08 0h.31v-.31h-.31zm0 3.07v.31h.31V31zm-3.08 0h-.31v.31h.31zm-3.07-3.07v-.31h-.31v.31zm3.07 0h.31v-.31h-.31zm0 3.07v.31h.31V31zm-3.07 0h-.31v.31h.31zm-3.07-3.07v-.31h-.31v.31zm3.07 0h.31v-.31h-.31zm0 3.07v.31h.31V31zm-3.07 0h-.31v.31h.31zm-3.07-3.07v-.31h-.31v.31zm3.07 0h.31v-.31h-.31zm0 3.07v.31h.31V31zm-3.07 0h-.31v.31h.31zm0 0v-.31h-.31V31zm3.07 0h.31v-.31h-.31zm0 3.07v.31h.31v-.31zm-3.07 0h-.31v.31h.31zM41.76 31v-.31h-.31V31zm3.07 0h.31v-.31h-.31zm0 3.07v.31h.31v-.31zm-3.07 0h-.31v.31h.31zM44.83 31v-.31h-.31V31zm3.07 0h.31v-.31h-.31zm0 3.07v.31h.31v-.31zm-3.07 0h-.31v.31h.31zM47.9 31v-.31h-.31V31zm3.08 0h.31v-.31h-.31zm0 3.07v.31h.31v-.31zm-3.08 0h-.31v.31h.31zm0 0v-.31h-.31v.31zm3.08 0h.31v-.31h-.31zm0 3.08v.31h.31v-.31zm-3.08 0h-.31v.31h.31zm0 0v-.31h-.31v.31zm3.08 0h.31v-.31h-.31zm0 3.07v.31h.31v-.31zm-3.08 0h-.31v.31h.31zm3.08-3.07v-.31h-.31v.31zm3.07 0h.31v-.31h-.31zm0 3.07v.31h.31v-.31zm-3.07 0h-.31v.31h.31zm0-6.15v-.31h-.31v.31zm3.07 0h.31v-.31h-.31zm0 3.08v.31h.31v-.31zm-3.07 0h-.31v.31h.31zm0 3.07v-.31h-.31v.31zm3.07 0h.31v-.31h-.31zm0 3.07v.31h.31v-.31zm-3.07 0h-.31v.31h.31zm-3.08-3.07v-.31h-.31v.31zm3.08 0h.31v-.31h-.31zm0 3.07v.31h.31v-.31zm-3.08 0h-.31v.31h.31zm0 0v-.31h-.31v.31zm3.08 0h.31v-.31h-.31zm0 3.07v.31h.31v-.31zm-3.08 0h-.31v.31h.31zm-3.07-6.14v-.31h-.31v.31zm3.07 0h.31v-.31h-.31zm0 3.07v.31h.31v-.31zm-3.07 0h-.31v.31h.31zm-3.07-3.07v-.31h-.31v.31zm3.07 0h.31v-.31h-.31zm0 3.07v.31h.31v-.31zm-3.07 0h-.31v.31h.31zm-3.07 0v-.31h-.31v.31zm3.07 0h.31v-.31h-.31zm0 3.07v.31h.31v-.31zm-3.07 0h-.31v.31h.31zm-3.08-3.07v-.31h-.31v.31zm3.08 0H39v-.31h-.31zm0 3.07v.31H39v-.31zm-3.08 0h-.31v.31h.31zm0-6.14v-.31h-.31v.31zm3.08 0H39v-.31h-.31zm0 3.07v.31H39v-.31zm-3.08 0h-.31v.31h.31zm3.08-3.07v-.31h-.31v.31zm3.07 0h.31v-.31h-.31zm0 3.07v.31h.31v-.31zm-3.07 0h-.31v.31h.31zm3.07 0v-.31h-.31v.31zm3.07 0h.31v-.31h-.31zm0 3.07v.31h.31v-.31zm-3.07 0h-.31v.31h.31zm3.07-3.07v-.31h-.31v.31zm3.07 0h.31v-.31h-.31zm0 3.07v.31h.31v-.31zm-3.07 0h-.31v.31h.31zm-9.22-9.21v-.31h-.31v.31zm3.08 0H39v-.31h-.31zm0 3.07v.31H39v-.31zm-3.08 0h-.31v.31h.31zm-3.07-3.07v-.31h-.31v.31zm3.07 0h.31v-.31h-.31zm0 3.07v.31h.31v-.31zm-3.07 0h-.31v.31h.31zm0 0v-.31h-.31v.31zm3.07 0h.31v-.31h-.31zm0 3.07v.31h.31v-.31zm-3.07 0h-.31v.31h.31zm0-24.27h3.07v-.61h-3.07zm2.77-.31v3.07h.61v-3.07zm.3 2.77h-3.07v.61h3.07zm-2.76.3v-3.07h-.61v3.07zm2.76-2.76h3.07v-.61h-3.07zm2.77-.31v3.07h.61v-3.07zm.31 2.77h-3.07v.61h3.07zm-2.77.3v-3.07h-.61v3.07zm-.31.31h3.07v-.61h-3.07zm2.77-.31v3.07h.61v-3.07zm.31 2.77h-3.07v.61h3.07zm-2.77.3v-3.07h-.61v3.07zm-3.38-2.76h3.07v-.61h-3.07zm2.77-.31v3.07h.61v-3.07zm.3 2.77h-3.07v.61h3.07zm-2.76.3v-3.07h-.61v3.07zm2.76-8.91h3.07v-.61h-3.07zm2.77-.3v3.07h.61v-3.07zm.31 2.76h-3.07v.61h3.07zm-2.77.31v-3.07h-.61v3.07zm2.77.31h3.07v-.61h-3.07zm2.76-.31v3.07h.61v-3.07zm.31 2.77h-3.07v.61h3.07zm-2.77.3v-3.07h-.61v3.07zm2.77-2.76h3.07v-.61h-3.07zm2.77-.31v3.07h.61v-3.07zm.3 2.77h-3.07v.61h3.07zm-2.77.3v-3.07h-.61v3.07zm2.77-2.76h3.07v-.61h-3.07zm2.77-.31v3.07h.61v-3.07zm.3 2.77h-3.07v.61h3.07zm-2.76.3v-3.07h-.61v3.07zm2.76-2.76h3.07v-.61H47.9zm2.77-.31v3.07h.61v-3.07zm.31 2.77h-3.07v.61h3.07zm-2.77.3v-3.07h-.61v3.07zm-.31-5.84h3.07v-.61H47.9zm2.77-.3v3.07h.61v-3.07zm.31 2.76h-3.07v.61h3.07zm-2.77.31v-3.07h-.61v3.07zm-3.38-2.77h3.07v-.61h-3.07zm2.77-.3v3.07h.61v-3.07zm.3 2.76h-3.07v.61h3.07zm-2.76.31v-3.07h-.61v3.07zm-3.38-2.77h3.07v-.61h-3.07zm2.77-.3v3.07h.61v-3.07zm.3 2.76h-3.07v.61h3.07zm-2.77.31v-3.07h-.61v3.07zm-3.37-2.77h3.07v-.61h-3.07zm2.76-.3v3.07h.61v-3.07zm.31 2.76h-3.07v.61h3.07zm-2.77.31v-3.07h-.61v3.07zm11.99.31h3.07v-.61h-3.07zm2.76-.31v3.07h.61v-3.07zm.31 2.77h-3.07v.61h3.07zm-2.77.3v-3.07h-.61v3.07zm-.3.31h3.07v-.61h-3.07zm2.76-.31v3.07h.61v-3.07zm.31 2.77h-3.07v.61h3.07zm-2.77.3v-3.07h-.61v3.07zm-.3.31h3.07v-.61h-3.07zm2.76-.31v3.07h.61v-3.07zm.31 2.77h-3.07v.61h3.07zm-2.77.31v-3.07h-.61v3.07zm-3.38-2.77h3.07v-.61H47.9zm2.77-.31v3.07h.61v-3.07zm.31 2.77h-3.07v.61h3.07zm-2.77.31v-3.07h-.61v3.07zm-.31-5.84h3.07v-.61H47.9zm2.77-.31v3.07h.61v-3.07zm.31 2.77h-3.07v.61h3.07zm-2.77.3v-3.07h-.61v3.07zm-.31 3.38h3.07v-.61H47.9zm2.77-.3V31h.61v-3.07zm.31 2.76h-3.07v.61h3.07zm-2.77.31v-3.07h-.61V31zm-3.38-2.77h3.07v-.61h-3.07zm2.77-.3V31h.61v-3.07zm.3 2.76h-3.07v.61h3.07zm-2.76.31v-3.07h-.61V31zm-3.38-2.77h3.07v-.61h-3.07zm2.77-.3V31h.61v-3.07zm.3 2.76h-3.07v.61h3.07zm-2.77.31v-3.07h-.61V31zm-3.37-2.77h3.07v-.61h-3.07zm2.76-.3V31h.61v-3.07zm.31 2.76h-3.07v.61h3.07zm-2.77.31v-3.07h-.61V31zm-.3.31h3.07v-.61h-3.07zm2.76-.31v3.07h.61V31zm.31 2.77h-3.07v.61h3.07zm-2.77.3V31h-.61v3.07zm2.77-2.76h3.07v-.61h-3.07zm2.77-.31v3.07h.61V31zm.3 2.77h-3.07v.61h3.07zm-2.77.3V31h-.61v3.07zm2.77-2.76h3.07v-.61h-3.07zM47.6 31v3.07h.61V31zm.3 2.77h-3.07v.61h3.07zm-2.76.3V31h-.61v3.07zm2.76-2.76h3.07v-.61H47.9zm2.77-.31v3.07h.61V31zm.31 2.77h-3.07v.61h3.07zm-2.77.3V31h-.61v3.07zm-.31.31h3.07v-.61H47.9zm2.77-.31v3.07h.61v-3.07zm.31 2.77h-3.07v.61h3.07zm-2.77.31v-3.07h-.61v3.07zm-.31.3h3.07v-.61H47.9zm2.77-.3v3.07h.61v-3.07zm.31 2.76h-3.07v.61h3.07zm-2.77.31v-3.07h-.61v3.07zm2.77-2.77h3.07v-.61h-3.07zm2.76-.3v3.07h.61v-3.07zm.31 2.76h-3.07v.61h3.07zm-2.77.31v-3.07h-.61v3.07zm-.3-5.84h3.07v-.61h-3.07zm2.76-.31v3.07h.61v-3.07zm.31 2.77h-3.07v.61h3.07zm-2.77.31v-3.07h-.61v3.07zm-.3 3.37h3.07v-.61h-3.07zm2.76-.3v3.07h.61v-3.07zm.31 2.77h-3.07v.61h3.07zm-2.77.3v-3.07h-.61v3.07zm-3.38-2.77h3.07v-.61H47.9zm2.77-.3v3.07h.61v-3.07zm.31 2.77h-3.07v.61h3.07zm-2.77.3v-3.07h-.61v3.07zm-.31.31h3.07v-.61H47.9zm2.77-.31v3.07h.61v-3.07zm.31 2.77h-3.07v.61h3.07zm-2.77.3v-3.07h-.61v3.07zm-3.38-5.84h3.07v-.61h-3.07zm2.77-.3v3.07h.61v-3.07zm.3 2.77h-3.07v.61h3.07zm-2.76.3v-3.07h-.61v3.07zm-3.38-2.77h3.07v-.61h-3.07zm2.77-.3v3.07h.61v-3.07zm.3 2.77h-3.07v.61h3.07zm-2.77.3v-3.07h-.61v3.07zm-3.37.31h3.07v-.61h-3.07zm2.76-.31v3.07h.61v-3.07zm.31 2.77h-3.07v.61h3.07zm-2.77.3v-3.07h-.61v3.07zm-3.38-2.76h3.07v-.61h-3.07zm2.77-.31v3.07h.61v-3.07zm.31 2.77h-3.07v.61h3.07zm-2.77.3v-3.07h-.61v3.07zm-.31-5.84h3.07v-.61h-3.07zm2.77-.3v3.07h.61v-3.07zm.31 2.77h-3.07v.61h3.07zm-2.77.3v-3.07h-.61v3.07zm2.77-2.77h3.07v-.61h-3.07zm2.76-.3v3.07h.61v-3.07zm.31 2.77h-3.07v.61h3.07zm-2.77.3v-3.07h-.61v3.07zm2.77.31h3.07v-.61h-3.07zm2.77-.31v3.07h.61v-3.07zm.3 2.77h-3.07v.61h3.07zm-2.77.3v-3.07h-.61v3.07zm2.77-2.76h3.07v-.61h-3.07zm2.77-.31v3.07h.61v-3.07zm.3 2.77h-3.07v.61h3.07zm-2.76.3v-3.07h-.61v3.07zm-9.53-8.91h3.07v-.61h-3.07zm2.77-.3v3.07h.61v-3.07zm.31 2.76h-3.07v.61h3.07zm-2.77.31v-3.07h-.61v3.07zm-3.38-2.77h3.07v-.61h-3.07zm2.77-.3v3.07h.61v-3.07zm.3 2.76h-3.07v.61h3.07zm-2.76.31v-3.07h-.61v3.07zm-.31.3h3.07v-.61h-3.07zm2.77-.3v3.07h.61v-3.07zm.3 2.77h-3.07v.61h3.07zm-2.76.3v-3.07h-.61v3.07z"/>
  </g>
  <path fill="#fbc67e" d="m25.97 31.48-3.72 3.78c-.33.34-.1.92.38.92h4.06c.14 0 .28-.06.38-.16l3.72-3.78c.33-.34.1-.92-.38-.92h-4.06c-.14 0-.28.06-.38.16m10.45-.82 3.72-3.78c.33-.34.1-.92-.38-.92H35.7c-.14 0-.28.06-.38.16L31.6 29.9c-.33.34-.1.92.38.92h4.06c.14 0 .28-.06.38-.16m-10.54-.03-3.74-3.78c-.34-.34-.1-.92.37-.92h4.09c.14 0 .27.06.37.16l3.74 3.78c.34.34.1.92-.37.92h-4.09c-.14 0-.27-.06-.37-.16m10.45.96 3.74 3.78c.34.34.1.92-.37.92h-4.09c-.14 0-.27-.06-.37-.16l-3.74-3.78c-.34-.34-.1-.92.37-.92h4.09c.14 0 .27.06.37.16"/>
  <path fill="none" stroke="#462118" stroke-miterlimit="5.13" stroke-width="1.28" d="m25.97 31.48-3.72 3.78c-.33.34-.1.92.38.92h4.06c.14 0 .28-.06.38-.16l3.72-3.78c.33-.34.1-.92-.38-.92h-4.06c-.14 0-.28.06-.38.16Zm10.45-.82 3.72-3.78c.33-.34.1-.92-.38-.92H35.7c-.14 0-.28.06-.38.16L31.6 29.9c-.33.34-.1.92.38.92h4.06c.14 0 .28-.06.38-.16Zm-10.54-.03-3.74-3.78c-.34-.34-.1-.92.37-.92h4.09c.14 0 .27.06.37.16l3.74 3.78c.34.34.1.92-.37.92h-4.09c-.14 0-.27-.06-.37-.16Zm10.45.96 3.74 3.78c.34.34.1.92-.37.92h-4.09c-.14 0-.27-.06-.37-.16l-3.74-3.78c-.34-.34-.1-.92.37-.92h4.09c.14 0 .27.06.37.16Z"/>
</svg>
