<?xml version="1.0" encoding="utf-8"?>
<!-- Generator: Adobe Illustrator 27.7.0, SVG Export Plug-In . SVG Version: 6.00 Build 0)  -->
<svg version="1.1" id="Layer_1" xmlns="http://www.w3.org/2000/svg" xmlns:xlink="http://www.w3.org/1999/xlink" x="0px" y="0px"
	 viewBox="0 0 50 50" style="enable-background:new 0 0 50 50;" xml:space="preserve">
<style type="text/css">
	.st0{fill:#EAEAEA;}
</style>
<g>
	<circle class="st0" cx="25" cy="25" r="25"/>
	<path d="M41,18.3c-0.9-2-2.2-3.9-3.7-5.6c-1.6-1.6-3.4-2.9-5.4-3.8c-2.2-0.9-4.4-1.4-6.7-1.4c-2.4,0-4.7,0.5-6.7,1.4
		s-3.9,2.2-5.6,3.8c-1.8,1.6-3,3.4-3.9,5.6S7.6,22.7,7.6,25s0.5,4.6,1.4,6.7c0.9,2,2.2,3.9,3.7,5.6c1.6,1.6,3.4,2.9,5.6,3.7
		c2.2,0.9,4.4,1.4,6.7,1.4s4.6-0.5,6.7-1.4c2-0.9,3.9-2.2,5.6-3.8c1.6-1.6,2.9-3.4,3.7-5.6c0.9-2.2,1.4-4.4,1.4-6.7S42,20.3,41,18.3
		z M19.2,23.4c0.8-2.8,3.3-4.8,6.2-4.8h12c0.8,1.5,1.3,3.2,1.5,4.8C38.9,23.4,19.2,23.4,19.2,23.4z M39.1,26.7
		c-0.1,1.6-0.8,3.3-1.5,4.8h-12c-3,0-5.6-2-6.2-4.8H39.1z M15,15c2.7-2.7,6.2-4.2,10-4.2s7.3,1.5,10,4.2c0.1,0.1,0.1,0.1,0.3,0.3
		h-9.7c-2.7,0-5.1,1-6.8,2.9c-1.5,1.5-2.4,3.3-2.7,5.2h-4.9C11.4,20.2,12.8,17.3,15,15z M25,39.2c-3.8,0-7.3-1.5-10-4.2
		c-2.3-2.3-3.7-5.2-4-8.3h4.9c0.4,2,1.3,3.8,2.7,5.2c1.9,1.9,4.3,2.9,6.8,2.9h9.7C35,34.9,35,34.9,34.9,35
		C32.4,37.7,28.8,39.2,25,39.2z"/>
</g>
</svg>
