<?xml version="1.0" encoding="utf-8"?>
<!-- Generator: Adobe Illustrator 27.8.0, SVG Export Plug-In . SVG Version: 6.00 Build 0)  -->
<svg version="1.1" id="Gold_00000058575097920403539300000002400678050236493757_"
	 xmlns="http://www.w3.org/2000/svg" xmlns:xlink="http://www.w3.org/1999/xlink" x="0px" y="0px" viewBox="0 0 1920 1920"
	 enable-background="new 0 0 1920 1920" xml:space="preserve">
<circle fill="#66CEFF" cx="960" cy="960" r="960"/>
<path id="Gold" fill="#F4CB3E" d="M1680.8,933.2c-1.8-34.6-78.3-63.1-178-68.3V491.5h-1c0.1-1,0.2-2,0.2-3
	c0-38.9-94.3-70.4-210.6-70.4c-82.5,0-153.8,15.8-188.4,38.9V335.7h-15.1c6-6.5,9.2-13.4,9.2-20.6c0-38.9-94.3-70.4-210.6-70.4
	s-210.6,31.5-210.6,70.4c0,7.2,3.2,14.1,9.2,20.6h-7.7v291.9c-33.7-23.9-106.3-40.4-190.5-40.4c-114.3,0-207.3,30.4-210.5,68.3h-3
	v429.7c-16.2,5.7-27.5,18.9-27.5,34.2c0,4.1,0.8,8.1,2.3,11.8c-3.5,3.9-5.7,9.1-5.7,14.8v258.3c0,12.2,9.9,22.2,22.2,22.2h6.4
	c0.7,0.8,1.5,1.5,2.3,2.2v1.8h2.1c21.3,17.9,64,32.2,117.5,39.4v77.4c0,6.8,3.2,12.8,8.2,16.7c15,34,102.5,60,208.3,60
	c91.2,0,168.8-19.4,198.1-46.5h19.8c34.7,20.9,99,34.9,172.7,34.9c110.4,0,199.9-31.5,199.9-70.4l3.1-55.8h15.3
	c26.3,28.8,106.6,49.8,201.5,49.8c85.2,0,158.5-16.9,191.7-41.2l0,0l0,0c12.1-8.9,18.9-18.8,18.9-29.2l6.7-30.7l45.8-23.8V933.2
	H1680.8z"/>
<path id="Shadow" fill="#B3942E" d="M1398.2,550.7c0,0,100.9-26.3,104.6-49.9s4.8,52.3,4.8,52.3l-4.8,311.8l-68.1-0.4l-44.3,3.5
	l1.4-316.7L1398.2,550.7z M1518.1,1257.2l-0.1,274.5l41.9-9.8c17.5-5.4,34.4-12.9,50.1-22.3l19.1-15.9l4.8-224.5
	c0,0-1.1-75.8-4.8-52.3c-3.7,23.5-104.6,49.9-104.6,49.9L1518.1,1257.2z M1087.4,1329.2l-0.1,274.5l41.9-9.8
	c17.5-5.4,34.4-12.9,50.1-22.3l19.1-15.9l4.8-224.5c0,0-1.1-75.8-4.8-52.3c-3.7,23.5-104.6,49.9-104.6,49.9L1087.4,1329.2z
	 M773.3,953.7l0,102.7l44.6,35.7l3.4,122.9c18.6-5.4,32.6-1.4,49.2-10.8l20.2-3.2l5.9-276.8c0,0-12.8,1.5-17.3,4.3
	c-25.9,15.9-98.5,24.7-98.5,24.7L773.3,953.7z M594.3,721l0,105.2l24-7.6c0,0,39.8-5.8,58.6-5.8h22.9l1.6-134.2c0,0-11.5,1-15,4.3
	c-25.5,24.1-85.5,37.5-85.5,37.5L594.3,721z M1576.2,994l-3.2,149.4l41.4,23.9l14.8,39.5l4.8,233.3c16.7-5.4,14.6-6.1,29.5-15.5
	l18.2-15.9l4.6-412.7c0,0-1-75.8-4.6-52.3c-1.7,11.2-24.3,27.7-47.5,37c-25.6,10.3-52,12.8-52,12.8L1576.2,994z M1210.6,840.1
	l-3.6,347.5l19.5-28l32-20.1l-0.5-219.4l30.4-25.6l33-14.4l0.4-38.1c0,0-1.1-75.8-4.8-52.3S1210.6,840.1,1210.6,840.1z M996.8,377.2
	l-3.4,334.6l25.9-2.6l57.6-8l2.5-198.8l3.2-33.4l20.6-12l-2.6-79.2c0,0-1-64.1-10-42C1080.7,359.9,996.8,377.2,996.8,377.2z
	 M704.1,1165.5l-1.4,455.4l44.3-10.3l68.1-32.8l4.8-410.3c0,0-1.1-75.8-4.8-52.3c-3.7,23.5-104.6,49.9-104.6,49.9L704.1,1165.5z"/>
<path id="Icons" fill="#DFBA3A" d="M917.8,302.7c24.4-6.9,42.6,27.9,13.9,26c-7.8,1.2-51.8-7.8-35.3,5.5c16.2,1.7,32.7,1.8,48.6,5
	c21.2,11.3,8.9,42.8-14.8,33.8c-39.6-4.1-82.3-1.1-120-7.9c-2.8-3-11.5-1.6-9.5-6.8c-0.5-36.2,40-23,65.7-25.2
	c5.9,0.2,3.6-3.1,3.8-5.6c-13.9-11.7-68.1,14.4-59-22.2c-1.3-17.5,40.1-4.3,52.5-7.8c13.2-13.1-29-7.2-37.6-9.8
	c-20.3,5.9-23.5-34.2,0.8-31.9c25.6,4.9,174.8-10.3,111.6,41.2c-11.8,1.1-24.2-1.2-36-3.7C883.1,301.6,906.9,302.6,917.8,302.7z
	 M1309.2,466.6c11.8,2.5,24.2,4.8,36,3.7c63.2-51.6-86.1-36.4-111.6-41.2c-24.3-2.3-21.1,37.8-0.8,31.9c8.6,2.6,52.6-3.3,39.5,9.8
	c-12.4,3.5-55.7-9.7-54.4,7.8c-9,36.6,45.2,10.5,59,22.2c-0.1,2.5,2.1,5.8-3.8,5.6c-25.8,2.2-66.3-11-65.7,25.2
	c-2,5.2,6.7,3.8,9.5,6.8c37.7,6.7,80.4,3.8,120,7.9c23.7,9,36-22.5,14.8-33.8c-15.9-3.1-32.4-3.3-48.6-5
	c-16.5-13.3,27.5-4.2,35.3-5.5c28.7,1.9,10.5-32.9-13.9-26C1313.7,475.9,1289.9,474.9,1309.2,466.6z M1134.4,752.9
	c11.8,2.5,24.2,4.8,36,3.7c63.2-51.6-86.1-36.4-111.6-41.2c-24.3-2.3-21.1,37.8-0.8,31.9c8.6,2.6,52.6-3.3,39.5,9.8
	c-12.4,3.5-55.7-9.7-54.4,7.8c-9,36.6,45.2,10.5,59,22.2c-0.1,2.5,2.1,5.8-3.8,5.6c-25.8,2.2-66.3-11-65.7,25.2
	c-2,5.2,6.7,3.8,9.5,6.8c37.7,6.7,80.4,3.8,120,7.9c23.7,9,36-22.5,14.8-33.8c-15.9-3.1-32.4-3.3-48.6-5
	c-16.5-13.3,27.5-4.2,35.3-5.5c28.7,1.9,10.5-32.9-13.9-26C1138.8,762.2,1115.1,761.2,1134.4,752.9z M721.4,863.8
	c11.8,2.5,24.2,4.8,36,3.7c63.2-51.6-86.1-36.4-111.6-41.2c-24.3-2.3-21.1,37.8-0.8,31.9c8.6,2.6,50.8-3.3,37.6,9.8
	c-12.4,3.5-53.8-9.7-52.5,7.8c-9,36.6,45.2,10.5,59,22.2c-0.1,2.5,2.1,5.8-3.8,5.6c-25.8,2.2-66.3-11-65.7,25.2
	c-2,5.2,6.7,3.8,9.5,6.8c37.7,6.7,80.4,3.8,120,7.9c23.7,9,36-22.5,14.8-33.8c-15.9-3.1-32.4-3.3-48.6-5
	c-16.5-13.3,27.5-4.2,35.3-5.5c28.7,1.9,10.5-32.9-13.9-26C725.8,873.1,702,872.1,721.4,863.8z M496.5,635.1
	c11.8,2.5,24.2,4.8,36,3.7c63.2-51.6-86.1-36.4-111.6-41.2c-24.3-2.3-21.1,37.8-0.8,31.9c8.6,2.6,50.8-3.3,37.6,9.8
	c-12.4,3.5-53.8-9.7-52.5,7.8c-9,36.6,45.2,10.5,59,22.2c-0.1,2.5,2.1,5.8-3.8,5.6c-25.8,2.2-66.3-11-65.7,25.2
	c-2,5.2,6.7,3.8,9.5,6.8c37.7,6.7,80.4,3.8,120,7.9c23.7,9,36-22.5,14.8-33.8c-15.9-3.1-32.4-3.3-48.6-5
	c-16.5-13.3,27.5-4.2,35.3-5.5c28.7,1.9,10.5-32.9-13.9-26C500.9,644.5,477.1,643.4,496.5,635.1z M1483.5,912.2
	c11.8,2.5,24.2,4.8,36,3.7c63.2-51.6-86.1-36.4-111.6-41.2c-24.3-2.3-21.1,37.8-0.8,31.9c8.6,2.6,50.8-3.3,37.6,9.8
	c-12.4,3.5-53.8-9.7-52.5,7.8c-9,36.6,45.2,10.5,59,22.2c-0.1,2.5,2.1,5.8-3.8,5.6c-25.8,2.2-66.3-11-65.7,25.2
	c-2,5.2,6.7,3.8,9.5,6.8c37.7,6.7,80.4,3.8,120,7.9c23.7,9,36-22.5,14.8-33.8c-15.9-3.1-32.4-3.3-48.6-5
	c-16.5-13.3,27.5-4.2,35.3-5.5c28.7,1.9,10.5-32.9-13.9-26C1487.9,921.5,1464.2,920.5,1483.5,912.2z M1437.6,1171.1
	c11.8,2.5,24.2,4.8,36,3.7c63.2-51.6-86.1-36.4-111.6-41.2c-24.3-2.3-21.1,37.8-0.8,31.9c8.6,2.6,50.8-3.3,37.6,9.8
	c-12.4,3.5-53.8-9.7-52.5,7.8c-9,36.6,45.2,10.5,59,22.2c-0.1,2.5,2.1,5.8-3.8,5.6c-25.8,2.2-66.3-11-65.7,25.2
	c-2,5.2,6.7,3.8,9.5,6.8c37.7,6.7,80.4,3.8,120,7.9c23.7,9,36-22.5,14.8-33.8c-15.9-3.1-32.4-3.3-48.6-5
	c-16.5-13.3,27.5-4.2,35.3-5.5c28.7,1.9,10.5-32.9-13.9-26C1442,1180.5,1418.3,1179.4,1437.6,1171.1z M1002.9,1244
	c11.8,2.5,24.2,4.8,36,3.7c63.2-51.6-86.1-36.4-111.6-41.2c-24.3-2.3-21.1,37.8-0.8,31.9c8.6,2.6,50.8-3.3,37.6,9.8
	c-12.4,3.5-53.8-9.7-52.5,7.8c-9,36.6,45.2,10.5,59,22.2c-0.1,2.5,2.1,5.8-3.8,5.6c-25.8,2.2-66.3-11-65.7,25.2
	c-2,5.2,6.7,3.8,9.5,6.8c37.7,6.7,80.4,3.8,120,7.9c23.7,9,36-22.5,14.8-33.8c-15.9-3.1-32.4-3.3-48.6-5
	c-16.5-13.3,27.5-4.2,35.3-5.5c28.7,1.9,10.5-32.9-13.9-26C1007.3,1253.4,983.5,1252.3,1002.9,1244z M627.4,1076.1
	c11.8,2.5,24.2,4.8,36,3.7c63.2-51.6-86.1-36.4-111.6-41.2c-24.3-2.3-21.1,37.8-0.8,31.9c8.6,2.6,50.8-3.3,37.6,9.8
	c-12.4,3.5-53.8-9.7-52.5,7.8c-9,36.6,45.2,10.5,59,22.2c-0.1,2.5,2.1,5.8-3.8,5.6c-25.8,2.2-66.3-11-65.7,25.2
	c-2,5.2,6.7,3.8,9.5,6.8c37.7,6.7,80.4,3.8,120,7.9c23.7,9,36-22.5,14.8-33.8c-15.9-3.1-32.4-3.3-48.6-5
	c-16.5-13.3,27.5-4.2,35.3-5.5c28.7,1.9,10.5-32.9-13.9-26C631.8,1085.4,608,1084.4,627.4,1076.1z"/>
<path id="Kontur" d="M1691.6,971.3c13-73.4-56.1-88.9-111.6-103c0,0.1,0.1,0.3,0.1,0.4c-20.8-4.1-43.6-9.9-65.8-10.1
	c-5.2,0.1-6.1-1.4-6-6.2c-6.5-72.1,28.7-364.9-19.7-394.5c-108.6-62.2-264.5-58.5-379.3-14c-4.1-153,19.7-166.7-146-201.5
	c-79.5-8.4-162.1-7.5-237.5,20.1c-20.2,6.3-40.8,19.6-51.9,38.5c-10.5,100.6-1.1,204.2-4.2,305.8c4,17.9-10.5,2.7-19.5,0
	c-76.5-31.5-353.2-50.8-378,48.9c-2.7,137.3,0,276-3.5,414c-3.3,22.7-34.8,25.4-31.8,51.7c0.6,15.3-0.7,30.4-0.6,45.7
	c5,82-9,172.3,4.3,250.2c3.4,7.2,10,11.3,17.4,13.5c41.8,16.1,83.7,31.5,127.7,38.2c11.7,13.5-6.5,68,5,87.8
	c16.6,50.1,144.7,72.7,192.7,73.2c-0.4-0.2,50.6,1.9,58.5,1c5.9-0.6,21.3-0.5,28.4-0.3c2.9,0.1,5.9,0,8.8-0.4
	c32.3-4.3,64.1-10.5,95.2-21.6c0,0,3.2-2.1,0,0c7.3-4.7,7.2-6,16.8-10.3c0,0,0,0,0,0c6.8-5.6,14.4-9.9,22.7-12.7
	c-1-8,55.2,17.4,63.4,18.7c23.8,5,49.4,7.2,72.2,12.8c-1,0.3-2.1,0.4-3.1,0.5c5.4,0.1,11,0.3,16.4,1.2c-2.2-0.5-4.4-1.1-6.6-1.5
	c33.8-0.1,69.6,2.6,101.8-3.1c-0.4,0.3-0.8,0.5-1.3,0.8c25.1-4.2,50.5-9.6,75.4-15.7c-0.6,0.8-1.2,1.6-1.8,2.3
	c70.7-29.4,86.1-23.1,77.2-108c0.7,0.4,1.5,0.7,2.2,1.1c0-0.1,0-0.2,0-0.4c4.1,2.9,9.1,4.6,13.5,7.1c0.7,0.1,1.3,0.2,2,0.3
	c0,0,0,0,0,0c51.2,25,109.8,34.8,164.8,44.1c-0.5-0.2-1.1-0.5-1.6-0.7c63.8,2.9,122.4,0.4,182.5-20.4c0.7-0.3-3.6,1.4,0.7-0.3
	c25.7-10.1,59.1-16.6,67.9-43.3c0.9-12.8,0-25.6,2.2-38.1c11.9-2.8,20.1-12.4,31-17c10.5-4.5,15.7-11.9,15.7-24.4
	C1686.9,1258.1,1697.6,1114.7,1691.6,971.3z M1679.7,960c1,27.2,1.1,54.4,0.6,81.6c-0.2,6.7-9.2,6.6-14,9.5
	c-98.2,46-213.1,51.3-316.7,25.5c0,0,0,0,0,0c0,0,0,0,0,0c0,0,0,0,0,0c-28.3-6.4-56.2-17.8-82-32.4c-8.4-5.6-2.4-16.6-3-25.2
	c-0.3-20.6-0.5-41.1-0.7-61.7c85.3,62.5,241.3,64.8,345.9,38.9v0C1635.6,989.2,1660.5,979.5,1679.7,960z M1483.1,1131.8
	c154.7,19.1,209.8,95.1,15.9,120.5c-65.1,14.8-223.5,4.8-276.2-41.1C1166.3,1125.4,1437.7,1121.7,1483.1,1131.8z M1628,1268.5
	c0,10.4,0.1,20.7,0.1,31.1c0,5.1-4.9,5.6-8.5,7.3c-15.1,7.1-29.6,15.2-45.5,20.3c-90.4,29-192.1,33.6-282.9,6.1
	c-27.8-3.6-50.7-19.7-76-30.7c-6.2-4.1-1.8-14.1-3.1-20.8c0-22.9,0.3-46-0.3-68.7c77.6,74.1,340.1,80.9,415.4,4.9
	C1628,1234.9,1628,1251.8,1628,1268.5z M1252.9,1092.2c-98.7,42.9-233.6,25.1-331.4-18.7c-6.8-5-18.8-6.5-22.6-13.9
	c0.8-26.5,1.2-53.1,2.4-79.6c83.9,63.8,200.7,63.7,303,51C1275.9,1011,1247.3,1010.7,1252.9,1092.2z M898.7,1188
	C898.7,1188,898.7,1188,898.7,1188c0.1-11.8-0.3-23.5,0.4-35.3c19.1,14.4,39.5,27.4,64,35.7c-20.3,1.9-43-0.5-61.4,5.4
	C895.8,1194.4,898.9,1190.3,898.7,1188z M1059,1205.9c32.2,5.2,157.6,25.6,128.4,77.9c-67.4,49.4-161.6,49.3-243,45.5
	c-36.7-6.4-78.1-7.3-114-23.3c-2.8-0.9-4.1-3.3-4.1-6.9c0.3-23.5,0.4-47.1,0.2-70.6c0-5.1,2-7.2,6.5-8.7
	C906.8,1199,983.5,1197.1,1059,1205.9z M1197,1372.7c0,4.7-4.3,6-7.8,7.5c-41,20.3-84.8,33.6-130.2,38.2
	c-64.6,11.6-134.7,4.5-198.8-11.9c-11.7-4.6-45.1-6.4-34.7-24.9c0.3-20.4,0.4-41.4,0.6-62.1c-2.8-8.8,30.3,7.4,35.6,7.5
	c48.7,13.7,99.7,16.3,149.7,17c62.5-7.3,136.7-5.1,184.7-52.8C1197.5,1318.3,1196.7,1345.6,1197,1372.7z M890.2,1172.9
	c3.5,32.8-42.1,27.5-62.3,39c-4.1-20-0.8-48.4-2.2-71.2c3-14.7,26.6-10.4,37.5-17.4c5.3-0.5,28.1-17.3,26.7-8.1
	C889.9,1134.4,888.6,1153.8,890.2,1172.9z M811.7,1103.9c-31.4,57.4-173.7,63-233.3,57.5c-43.8-3.2-184.6-12.2-177.3-73.5
	C442.3,1010.2,793.6,1013.5,811.7,1103.9z M816,1204.9c-49,41.3-171.1,54.2-235.6,50.4c-29.1-1-57.2-5.9-86.1-12.4
	c-23.8-4.6-46.8-13.7-69.5-24.1c-8.5-3.4-19.3-5.1-23.6-12.7c-6.2-10.7-0.9-23.8-1.6-35.9c-0.3-16.3-0.6-32.6-0.8-48.8
	c0-0.7-0.2-3.5,1.2-1.3c85.4,71.8,330.5,77.3,415.6,4.1C816.3,1151,816.9,1178,816,1204.9z M499.5,1014c-0.1-5.8,0.3-11.6,0.4-17.5
	c13.4,9.3,26.5,19,41.6,25C514.5,1023,493.9,1041.1,499.5,1014z M760.4,1040.7c-0.9,3-3.3,1.8-5.2,1.8c-2.2-0.9-5.4,2.3-6.8-1.7
	c0,0,0,0,0,0c0,0,0,0,0,0l0.1-0.1c-55-17.6-111.1-21.1-169-19.9c-27.5,2.4-52.9-15-76.8-26.7c-4.9-2.9-2.9-8.7-2.9-13.4
	c-1.2-161-24,11.9,288.6-22.9c28.4-1.2,56-10,83-18.3c5.6-0.6,18.6-13.5,19.6-3.7c-4,19.1,9.3,69.8-9.9,76.9
	C842.1,1027.5,801.8,1036.4,760.4,1040.7z M716,820.1c35.6,2.2,184.4,9.1,175,59.3c-0.7,18.8,6,40.4-18.1,45.8
	c-14.8,6.5-33.4,8.4-46.2,13.7c-74.8,12.9-159,17.8-231.4-2.9c-103.1-13.9-136.2-76.9-14.1-104C622.8,820.2,671.4,820.4,716,820.1z
	 M892.9,761.9c-5.2,112.8,7.8,73.5-90.2,53.4c-31.5-8.1-67.8,0.3-94.7-19.9c-0.4-14.7-0.3-30.4-0.6-45.5c1.6-5.5-4.7-44.2,4.8-33.7
	h0c54.1,28,115.9,38.4,176.7,41.8C891.4,758.2,895.5,756.5,892.9,761.9z M859.6,746.2c-12.3-0.5-25.2-2.8-37.1-5.9
	c0.4,0.2,0.8,0.5,1.2,0.7c-0.9,0-1.9,0-2.8,0c-36.4-10.5-73.8-17.8-107.9-33.6c-12.2-6.6-5.5-17.9-7.5-27.7
	c-0.1-5-1.7-15.8-0.3-17.7c0.6-11.9-8.7-20.8-14.1-30.6c-10.3-7-14.8-7.7-12.1-22.7c75.7,51.4,171.7,62.6,261.3,57.1h0
	c43.5-7.9,90.1-11.8,128.9-35.7c3.3-1.8,2.7,0.8,2.7,2.5c-0.1,20-0.2,40-0.2,60c-0.2,2.3,1.8,6.1-3.4,5.1
	c-50.3,4.4-102.6,10.8-147.7,35C904,751.9,881.6,749.9,859.6,746.2z M1081.8,709.6c16.1,0,32.2,0.1,48.3,0
	c36.6,1.9,211,20.3,178.6,82.3c-82.7,64.4-235.1,52.8-333.6,30.9C793.1,762.4,1002,704,1081.8,709.6z M1252.4,1003.5
	c-1.6,9.8-12.6,3.8-18.3,7.6c-22,11-53.3,9.8-77.3,16.7c-87.9,1.9-178.5-3-254-52.5c-1.9,0.3-2.2-0.9-2.1-2.4
	c0.9-28.7,0.3-57.5,1.6-86.2c32.6,25,71.4,39,111.2,47.3c78.6,16.4,161.3,11.2,237.6-10.7c3-0.7,2.8,1,2.7,3
	C1251.8,951.9,1254,978,1252.4,1003.5z M1244.5,914.7c-33.9,11.4-72.8,10.6-105.6,18.1c-45.4-0.3-92.8-0.9-136.5-12.6
	c-5.8,0.7-10.2-3.3-15.7-4h0c-30-5.1-57.9-19.5-84.5-34c-1.2-28.3-0.2-57.4-0.1-85.9c84,71,332.8,80.3,415.3,4.2
	c1.5,19.2-0.1,39,0.4,58.3c0.6,10.9,3,20.7-12.6,22.9C1280.6,884.1,1268.1,912.6,1244.5,914.7z M1478.3,790
	c-44.9,25-96.7,35.7-147.7,38.1c-3.3,0.1-2.5-2.1-2.7-4c-1.9-20.6-0.3-41.5-5-61.8c-15.5-17.6,4.1-9.5,8.2-10.2
	c17.6-3,35.4-4.9,53.1-7.3c28.5-6.9,56.1-13.9,82.1-27c10.4-6.9,22.4-11.1,31.5-20.2c1.8-1.8,1.4,1.4,1.4,2.1
	c-0.7,21.6-1.4,43.3-2.2,64.9C1501.2,780.8,1487.3,784.6,1478.3,790z M1353.9,866.9c-4.9,4.2-15.4,3.4-22.3,6
	c-4.7-7.4-0.3-22.1-1.7-31.9c55.4-6.6,115.2-16.4,164.9-48.4c2.2-1.2,2.3,0.8,2.2,2.3c-0.6,19.9-1.1,39.7-1.6,59.6
	c-0.1,2.5-1.2,3-3.4,2.9c-17.7-1-35.5-0.4-53.3-0.5C1409.5,858.5,1382.5,860.9,1353.9,866.9z M1538.6,874.2
	c47.3,9.2,114.6,12.6,137.5,61h0c-15.5,64.7-186.5,65.7-241.3,62.8c-52.4-0.7-257.1-39.8-128.6-105.7
	C1378.1,865.1,1461.4,865.9,1538.6,874.2z M1499.8,640.3c-1.7,19.4,7.6,43.5-14.4,53.5c-42.2,30.2-94.2,43.1-145.5,45.5
	c-5.7,3.5-25.8,3.4-33.5,3.1c-9.2-1.6-15.4-11.1-24.9-13.3c-23.9-12.4-53.5-15.6-77.2-23.5c-129.5-25.2-125.9,34.7-121-105.5
	c114.4,79.7,280.2,72.2,403.9,14.5C1507.6,597.7,1497.8,628.7,1499.8,640.3z M1498.8,514.5c0.2-0.2,0.5-0.3,0.7-0.5
	c1.1,17.9,0,36.1,0.3,54.1c-1.2,12.7,5.9,30.7-9.7,35.6c-48,24.9-104.4,37-157.6,41.7c-85.2,4.8-170.3-5.5-245.9-47.1
	c-8.4-7.3-1.1-22.1-2.9-32.2c-0.2-18.9-0.8-37.7-0.7-56.6C1173.7,583.4,1406.2,589.9,1498.8,514.5z M1165.7,434.1
	c96.2-13.5,258.4-27.1,328.3,50.5c7.8,41.2-71.1,53.8-99,60.6c-85.4,12.9-175.1,11.2-256.8-14.1
	C1041.4,496.6,1094.4,449.2,1165.7,434.1z M691.2,292.4c58.1-42.3,135.3-41.6,203.6-42.5c54.8,3.8,163.9,7.7,194.4,61.1c0,0,0,0,0,0
	c17.4,52.5-152.5,70.5-187.5,69.1C861.2,383.1,635.9,365.5,691.2,292.4z M680.3,397c0.1-20.4-1.3-41-0.4-61.3
	c47.8,41.8,116.2,50.3,177.2,54.5c0,0,0,0,0,0c69.6,2.9,186,4.3,238.5-50.1c2.3,17.4,0.2,35.3,0.9,52.9c1,21.9,1.3,39.5-27.2,44.6
	c-37.7,17.9-78.8,27.5-120.8,30.7c-68.1,10.1-146.6,3.1-212.7-20.1c0.4,0.4,0.7,0.8,1,1.2c-18.1-8.2-37-14.9-53.8-25.2
	C674.4,418.9,681.1,406.3,680.3,397z M679.2,456.1c0.1-9.7,0.3-19.3,0.6-29c102.6,71.4,243.1,67.3,357.7,33.7
	c19.7-6.6,38-16.2,56.2-26.2c5.9-1.5,4,18.5-0.8,19.7c-26.8,14.6-18.5,47-21.9,72.2c-62.3,38.7-142,44.9-213.9,40.6l0,0
	c-15.6-1.5-31.7,0.2-46.6-5c0,0,0,0,0,0c-44.6-6.1-89.2-21.4-128.1-44.6C672.9,512.7,681.6,469,679.2,456.1z M678.1,584.2
	c1.7-21.1-0.4-42.6,0.7-63.8c3.8,2.7,7.5,5.5,11.3,8.2c20.9,15.4,46,26.3,72,31.8c97.5,30.7,207.8,24.8,299.7-15.4
	c1.4-4.5,6.6-3.1,9.2-5.7c2.1,24.9,0.2,50.1,1,75.1c0,7.5-7.2,8-11.4,9.9c-106.4,45.1-228,39.6-335.8,1c-9.3-0.5-15.2-8.5-23.7-10.8
	C685.8,608.9,674.5,603.3,678.1,584.2z M282.7,649.1c52.6-76.5,238.9-60,319.5-43.5c100.4,22.5,129.8,75,10.9,103.9
	c-51.9,11.6-108.4,14.9-163.1,11.7C412.9,716,271.5,703.9,282.7,649.1z M279,757.2c0.5-26,1.4-53.9,0.4-79.4
	c3.3-1.4,3.8,2.8,5.6,4.5c87,63.9,240.2,63.2,340.9,37c88.5-22.9,67-75.2,69.5,44.9c-75.7,56-236.3,62.3-326.7,35.7
	c-15.3-6-33.5-4.8-47.4-15.1C308.3,778,281.3,773.4,279,757.2z M288.9,775.8c23.3,16.2,49.2,25.9,76,34.7c0,0,0,0,0,0
	c6.2,2.3,12.4,3.7,18.8,4.9c0,0,0,0,0,0c66.1,13.1,141.4,15.1,204.8,0c-0.1,0.1-0.2,0.1-0.3,0.2c37.5-5.3,75.2-23,107.5-37.6
	c0.7,29.9,1.8,32.7-32.2,30.2c-26.1,0.8-51.7,5.8-77.2,10.9c0,0,0,0,0,0c-34.2,10.8-84.2,19-96.6,59.5c1,4.9,1.6,35.9-5.4,32.4
	c-57.9-1.9-114.3-8.4-167.8-32.6c0,0,0,0,0,0c-16.1-10.8-40.2-11.6-37.5-38.4c0-18.6,0.2-37.2,0-55.8
	C278.5,770.6,278.7,770.2,288.9,775.8z M278.4,891.9c0.2-9.3,0.5-18.5,0.8-27.8c2.8,1.8,5.6,3.7,8.5,5.5h0c3.4,3.8,9.2,4.5,12,9
	c0,0,0,0,0,0c23.8,10.2,45.3,22.4,72.1,26.6c25.4,7.4,53.6,10.4,79,14.9c27.2,4.7,40.8-4.2,37.7,31.8c-2.2,9.1,5.1,43.4-3.9,44.6
	c-64.3,0.1-129.3-12.3-185.9-40.9C268,950.5,280.6,915.1,278.4,891.9z M277.9,1024.9c0-22.1,0.1-44.1,0.1-66.2
	c0.1-2.6,0.2-5.1,0.3-7.7c59.8,41.8,133.9,55.6,205.7,58.7c4,0,4,1.6,4.9,5c11.3,36.6-90.2,30-112.1,32.9
	c-35.8,4.9-49.1,14.1-82.1-6.8c0,0,0,0,0,0C289,1035.4,275.2,1034.7,277.9,1024.9z M277.4,1065.8c0.6-9.8,0.3-19.7,0.9-29.6
	c1.5,0.9,3.2,1.5,4.6,2.5h0c9.2,10.2,22.5,13.4,32.5,21.7c-10.7,3.4-21.7,5.8-32.5,8.8C278.3,1072.5,277.1,1070.9,277.4,1065.8z
	 M245,1235.3c13.7,4,27.2,19.4,42.1,24.7c13.3,3.7,25,9.8,38.3,13.9c10.1,3.5,24.8,2.9,32.5,8.1c9.8,1.6,19.7,2.6,29.2,5.2
	c4.4,24.2-0.5,54.7,1.5,80.8c-15.1,8.4-53.5-8.4-72.4-12.8c-26.3-5.9-47.7-19.4-71-32C241.1,1296.6,244.5,1262.3,245,1235.3z
	 M386.2,1455.7c-39.2-0.2-77.6-18.3-114.3-31.2c0,0,0,0,0,0c0,0,0,0,0,0c-38.6-14.9-27.5-24.3-28.4-60.5c2.8-14-9.5-48.4,12.7-27.7
	c36.8,25.8,84.8,36.7,129.5,44.6c7.2,1.6,0.8,34.9,2.8,43.4c0,6.3,0,12.5,0,18.8C386.3,1446.7,393,1453.8,386.2,1455.7z
	 M371.9,1273.5c-41.5-7.7-82.1-19.2-119.7-39.2c-16.4-4-3-73.8-7.4-92.3c48.1,51.8,156,42,143.7,63.8c0,17.1,0,34.3,0,51.4
	C391,1270.8,388.6,1279.1,371.9,1273.5z M389.5,1097.1c-0.8,26-1.2,52-1,78.1c1.6,6.9-0.8,7.6-7.5,6.7
	c-229.6-33.6-128.4-123.2,36.5-124.3C402.3,1063.8,388.8,1079.4,389.5,1097.1z M808.8,1573.5c-86,56.9-200.6,57.7-297.8,36
	c-0.7-0.2-1.7-0.3-2.4-0.5c-20-4.1-36.8-13.2-55.7-19.3c0,0,0,0,0,0c-9.4-3.8-19.2-6.8-27.6-12.3v0c-42.4-14.4-26.3-67.9-27.7-102
	c19.5,20.4,47.6,29.7,73.3,41.7c0,0,0,0,0,0c112.1,30.8,240.7,45.8,337.6-32.9c0.4,11,0.3,22,0.4,32.9c6.1,1.5,1.6,13.7,2.9,18.8
	C810.1,1544.2,815.5,1571,808.8,1573.5z M812.7,1416.6c0.6,11.1-1.1,22.3-1,33.4c0.9,28.8,1.5,26.5-25.6,39.6h0
	c-27.6,13.1-56,24.8-84.1,35.5c-73.8,13.2-153.6,8.5-223.3-18.7c-22.9-6.9-49.3-12.6-67.2-27.8c-5.7-4.8-17.1-3.2-14.7-13.7
	c0-3.6,0-7.3,0-10.9c0.4-21-1-42.2,0.8-63.2c72.9,52.4,171.5,64.1,259.1,57.3c41.9-2.5,82.5-12.8,121.4-28
	c7.8-3.8,15.2-9.2,23.4-11.9C819.3,1391.8,812.4,1410.7,812.7,1416.6z M814.8,1324c-2.6,12.8,4.7,62.3-6,65.6
	c-75.1,50.1-172.1,54.9-259.8,45.5c-51.8-9.8-106-21.6-151.4-49.5c-0.9-27.3-0.6-54.8,0.1-82.3c93.7,68.2,221.7,68.1,333,44.1
	c4.7-1,20.1-7.3,25.3-8.8c6.2-1.7,13.4-4,18.1-7.3c9.3-5.1,18.8-9.8,27.7-15.6C814.5,1303.4,815.7,1308.5,814.8,1324z M816.4,1219.7
	c-0.9,23.3,0.1,46.7-0.9,70c-0.6,8.2-9.3,10.1-14.9,14.3c-106.3,67.1-257.9,59.3-370.6,12.7c-9.4-7.6-22.3-10.5-31.5-18.7
	c-1.2-29-0.2-58,0.5-87c20.3,12.2,39.5,25.8,62.3,33.2c76.2,25.7,159.8,27.5,240.7,14.9c23.4-8.7,53.3-12.3,76.3-23.5
	C786.5,1236.4,816.4,1212.3,816.4,1219.7z M804.9,1068.4c-10.6-6.5-20.2-14.5-31.7-19.2c38.8-5.1,77.8-13.1,113.8-29.4
	c3.9-1.7,3.4,0.5,3.4,3c-5.6,75.1,23,80.1-64.2,101.1C813.3,1115.5,835.4,1089,804.9,1068.4z M1195.5,1537.1
	c0.2,10.8-0.1,20.1-12.9,25.2c-15.5,11.1-33.8,17.2-51.4,25c-98.2,28.1-221.6,29.9-310.4-17.4c-1-135.6-19.2-34,184.1-40.1
	C1223.9,1523.3,1194.5,1410.5,1195.5,1537.1z M1197.1,1388.4c-0.7,19.6-0.7,39.1-0.8,58.7c3.6,15.8-8.1,20.3-18.2,27.8
	c-98.5,59.4-256.5,58.1-357.4,12.1c0.4-135.7-12.4-60.6,123.6-53.9c47.9,3,94.2,0,142.3-6.8c8.8-2.1,18.7-4.5,25.7-7.8
	c-0.5,0.3-1,0.6-1.5,0.9c28.4-8.3,57.6-16.1,82.8-32.7C1196.1,1385.3,1197.3,1384.6,1197.1,1388.4z M1199.9,1250.8
	c-9.9-15.4-27.1-21.9-41.8-32.1C1204.4,1214.4,1200.3,1197.3,1199.9,1250.8z M1200.6,1195.8c0,2-0.1,1.4,0,2c0.1,0.8,0,0.2-0.1,2.2
	c-0.2,3.3-2.9,2.8-5.1,2.7c-55.8,13.8-83.9,0.2-137.4-10c-14.9-4.1-30.2-2.4-45.3-3.1c-26.2-1.7-50.1-11-73.9-21.1
	c-1.1-0.5-36.3-17.6-38.5-22.8c-3.9-9.3-0.7-22.6-1.3-33.8c-3.2-98.7-4.6,9.4,203.3,13.8c49.6,2,99-3.9,146.8-17.1
	c3.4-0.8,4.2-0.3,3.9,2.9c0.2,25.7,0,32.4-25,42.1C1215.9,1158.9,1197.3,1178.6,1200.6,1195.8z M1626.4,1473.8
	c-4.6,22.8-55.5,36.4-76,44.3c-105.3,28.6-222.9,18.3-320.4-26.5c-13.9-4.6-23.9-11.8-19.6-28.7c0.1-21.5-0.3-43,0.3-64.4
	c7.5,7.4,15.9,13.2,25.3,17.9c0,0,0,0,0,0c106.9,51.7,236.9,53.6,348,11.9c3.7-6.2,11-6.4,16.5-9.5c9-3.2,16.4-12.2,25.2-14
	C1628.4,1427,1625.6,1451.1,1626.4,1473.8z M1614.3,1398.7c-97.8,63.3-244.7,59-350.6,21.7c-63.8-28.4-53.3-17.3-52.6-86.3
	c0.2-9.4-0.2-18.8,0.5-28.2c3.3,1.7,7.7,2.5,9.8,5.1c8.4,10.4,21.8,12.5,31.8,20.2c24.6,6.2,45.7,20.1,71.8,22
	c63.7,11.2,127.1,10.7,190.8,0c13-1.4,25.7-5.6,38.6-8c23-14,52-14.6,72.5-33.1c3.2,23.2-0.7,48.3,0.6,72.1
	C1627.5,1393.1,1619.1,1394.4,1614.3,1398.7z M1666.2,1414.7c-41.5,26.3-22.9,1.8-26.9-30.5c-1-48.7-5-37.8,34.3-64
	C1669.5,1339.5,1685.9,1411.3,1666.2,1414.7z M1677,1252.2c-2.7,26.9,7.9,63.7-25.1,72.9c-16.1,12.2-12.5-1.2-12.5-9.6
	c0-13.8,0.1-27.6,0.2-41.4c-1.4-17.6,6.5-25.4,26.2-30C1681.5,1230.1,1677.1,1244.8,1677,1252.2z M1679.1,1145.8
	c-0.4,25-0.7,50-1.3,75c-0.1,6-6.6,5.3-10.1,7.6c-7.6,5.6-32.7,28.1-30.2,5.9c-3.6-18.2,2-40.2-7.4-56.4c-5-4.3-4.1-6.2,1.4-8.3
	c16.3-6.3,31.4-14.7,45.2-25.3C1679.3,1142.4,1679.2,1144,1679.1,1145.8z M1680,1085.2c0,10.2-0.1,20.4-0.1,30.6
	c6.9,21.3-42.9,42.2-58.8,47.1c-6.3,1.7-12.3-4.9-17.3-9.6c-4.9,1.6-8.4-2.5-11.2-4.5c-8.2-5.6-17.2-8.4-26.5-11.2v0
	c-60.4-19.2-125.9-23.4-187-19c-129.4-2.9-117.3,62.4-115.6-44.6c0.6-9.1-0.9-18.3,0.8-27.3c49.8,36.6,111.6,50.8,173,54.4
	c19.3,1.8,43.1,5.8,61.8,0c62.3-1.9,125-15.5,179.2-47.3C1683.6,1049.9,1678.8,1080.9,1680,1085.2z"/>
</svg>
