<?xml version="1.0" encoding="utf-8"?>
<!-- Generator: Adobe Illustrator 28.0.0, SVG Export Plug-In . SVG Version: 6.00 Build 0)  -->
<svg version="1.1" id="Layer_1" xmlns="http://www.w3.org/2000/svg" xmlns:xlink="http://www.w3.org/1999/xlink" x="0px" y="0px"
	 viewBox="0 0 1080 1080" style="enable-background:new 0 0 1080 1080;" xml:space="preserve">
<style type="text/css">
	.st0{fill:url(#SVGID_1_);}
	.st1{fill:#FFFFFF;}
</style>
<linearGradient id="SVGID_1_" gradientUnits="userSpaceOnUse" x1="327.2975" y1="74.7991" x2="740.6309" y2="978.7991">
	<stop  offset="5.102041e-03" style="stop-color:#1CCE77"/>
	<stop  offset="1" style="stop-color:#14AD65"/>
</linearGradient>
<circle class="st0" cx="540" cy="540" r="540"/>
<g>
	<path class="st1" d="M179.9,458.8c54.1-70,108.1-140,163.3-211.6c54.9,71.1,109,141.2,164.1,212.7c-4.1,0.3-6.5,0.7-8.8,0.7
		c-24.9,0.1-49.8,0.2-74.8,0c-5.9-0.1-7.7,1.7-7.7,7.6c0.2,58.1,0,116.3,0.1,174.4c0,11.4,6.2,19.9,13.8,27.5
		c15.4,15.2,34.5,24.1,54.7,30.7c52.9,17.3,104.5,12.3,154.5-11c12-5.6,23.1-13.1,31.3-23.8c10.7-13.9,11.2-31-0.1-44.6
		c-6.1-7.3-13.6-13.9-21.5-19c-32.9-21.4-66.2-42.2-99.5-63c-4.3-2.7-6.2-5.5-6.2-10.7c0.2-84.4,0.2-168.8,0.2-253.2
		c0-9.3,0-9.3,9-9.3c90.2,0,180.5,0,270.7,0c9.2,0,9.2,0,9.2,9.4c0,42.7-0.1,85.3,0.1,128c0,6.7-1.8,8.8-8.7,8.8
		c-42-0.3-84,0-125.9-0.3c-6.3,0-8.8,1.7-8.7,8.2c0.3,17.1,0.1,34.1-0.2,51.2c-0.1,5.2,2.1,8,6.4,10.7c33.6,21.1,67.6,41.7,100.5,64
		c24.2,16.4,38,39.4,36.5,70.1c-0.7,14.8-0.1,29.6-0.1,44.4c0,7.6-0.4,15.3,0.1,22.9c1.4,21.3-7.5,38.2-21.8,53
		c-15.1,15.5-33.7,25.9-51.9,37.1c-63.1,38.7-126.3,77.4-189.3,116.2c-18,11.1-18,11.4-35.8,0.4c-76-46.5-152.2-92.6-227.6-140.1
		c-22.2-14-36-34.6-35.8-63.2c0.6-72.3,0.2-144.6,0.1-216.9c0-9.3,0-9.4-9.2-9.4c-24,0-48-0.1-72.1-0.1c-2.7,0-5.3,0-8,0
		C180.6,460.1,180.3,459.5,179.9,458.8z"/>
</g>
</svg>
