<svg xmlns="http://www.w3.org/2000/svg" viewBox="0 0 400 400"><defs><clipPath id="a"><circle cx="200" cy="200" r="200" fill="none"/></clipPath></defs><g clip-path="url(#a)"><path fill="#f0f3fa" d="M0 0h400v400H0V0Z"/><path fill="#002f6d" d="M333.33 195.11c0-46.27-59.69-84-133.33-84s-133.33 37.73-133.33 84v4.91c0 49.11 52.18 88.87 133.33 88.87s133.33-39.76 133.33-88.84v-4.93Z"/><path fill="#ffe900" d="M328.22 195.07c0 43.62-57.4 79-128.2 79s-128.18-35.38-128.18-79 57.38-79 128.16-79 128.22 35.38 128.22 79Z"/><path fill="#fff" d="M157.47 170.16c-.07.11-1.33 1.4-.53 2.42 2.04 2.49 8.29 3.91 14.6 2.56 3.78-.82 8.58-4.51 13.27-8.09 5.04-3.87 10.09-7.76 15.11-9.29a17.88 17.88 0 0 1 11.04-.29c2.49.71 5.4 2.29 10.07 5.67 8.78 6.33 44.04 36 50.13 41.11 18.2-7.59 37.08-13.44 56.38-17.47-2.58-15.22-12.22-29.13-26.78-40.56-20.31 8.22-45.16 12.51-69.44 1.11-.11-.07-13.27-6.07-26.22-5.78-19.27.44-27.6 8.47-36.44 16.98l-11.18 11.62Z"/><path fill="#fff" d="M269.73 207.49c-.42-.36-41.49-34.96-50.78-41.71-5.38-3.89-8.38-4.89-11.53-5.27-1.84-.14-3.69.03-5.47.51-4.33 1.13-10 4.78-15.02 8.62-5.2 4-10.09 7.76-14.67 8.73-5.78 1.24-12.89-.22-16.13-2.33a7.02 7.02 0 0 1-2.67-2.84c-1.2-2.67 1-4.8 1.36-5.16l11.33-11.82c1.33-1.27 2.64-2.53 4-3.78-3.64.44-7.02 1.36-10.31 2.24-4.11 1.11-8.07 2.18-12.07 2.18-1.67 0-10.6-1.42-12.29-1.87a188.247 188.247 0 0 1-32.71-11.38c-16.09 11.56-26.89 26-30 41.91 2.33.58 6.07 1.64 7.62 2 36.44 7.78 47.82 15.84 49.87 17.51 4.65-4.98 12.46-5.24 17.43-.59.54.51 1.04 1.06 1.48 1.66 2.49-1.92 5.55-2.95 8.69-2.93 1.69 0 3.44.29 5.22.89 4.11 1.33 6.22 4 7.33 6.38 1.6-.7 3.32-1.05 5.07-1.04 1.98 0 4 .44 6.07 1.29 6.73 2.78 7.78 9.13 7.16 13.93 7.8-.92 14.87 4.65 15.79 12.45.05.46.09.93.1 1.39 0 2.3-.58 4.57-1.71 6.58 2.18 1.18 7.69 3.82 12.56 3.24 3.87-.49 5.33-1.76 5.87-2.47.36-.49.76-1.07.38-1.49l-10.27-11s-1.71-1.56-1.13-2.16 1.62.27 2.36.89c5.24 4.2 11.62 10.56 11.62 10.56.11.07.53.87 2.89 1.27 2.85.48 5.77-.17 8.13-1.82.65-.52 1.25-1.11 1.78-1.76l-.09.09c2.62-3.24-.31-6.53-.31-6.53l-12-12.98s-1.71-1.53-1.13-2.16c.53-.53 1.62.29 2.38.89 3.8 3.07 9.18 8.24 14.31 13.11 1.02.71 5.56 3.4 11.53-.4 3.64-2.29 4.36-5.11 4.27-7.24-.27-2.8-2.53-4.82-2.53-4.82l-16.4-15.89s-1.73-1.42-1.11-2.13c.49-.62 1.6.27 2.36.87 5.22 4.2 19.36 16.69 19.36 16.69a10.27 10.27 0 0 0 11.13-.22 7.131 7.131 0 0 0 3.67-5.64c.2-4.04-2.76-6.44-2.76-6.44Z"/><path fill="#fff" d="M190.18 227.62c-2.56-.02-5.33 1.42-5.71 1.22-.2-.13.16-1.11.4-1.69.24-.56 3.6-10.27-4.58-13.64-6.22-2.58-10.04.33-11.38 1.64-.33.33-.49.31-.53-.13a8.688 8.688 0 0 0-6.33-8.04c-5.18-1.58-10.78.34-13.91 4.76a8.804 8.804 0 0 0-8.82-7.51c-4.85-.09-8.86 3.77-8.96 8.62 0 4.76 4 8.6 8.93 8.6 2.3.02 4.51-.84 6.2-2.4.04.04.07.13.04.29-.38 2.13-1.07 9.89 7.33 13.04 2.91 1.08 6.18.6 8.64-1.29.71-.49.82-.29.71.36-.29 2 .09 6.27 6.29 8.67 3.16 1.49 6.91.82 9.36-1.67.8-.69 1.02-.58 1.04.51.22 5.78 5.2 10.33 11.24 10.33s11.24-4.82 11.27-10.82c-.15-6.08-5.16-10.92-11.24-10.84Z"/><path fill="#002f6d" d="M190.18 248.53c-5.5.14-10.12-4.11-10.44-9.6 0-.47-.04-1.69-1.11-1.69-.44 0-.84.24-1.29.62a7.452 7.452 0 0 1-8.51 1.56c-5.93-2.33-6.02-6.27-5.78-7.87.07-.42.09-.84-.22-1.2l-.36-.31h-.38c-.31 0-.6.11-1.04.4a8.93 8.93 0 0 1-5.04 1.73c-.96 0-1.92-.19-2.82-.53-7.82-2.93-7.22-10.07-6.82-12.22.04-.42-.07-.76-.36-.98l-.56-.44-.51.49a8.24 8.24 0 0 1-5.62 2.18c-4.4.07-8.04-3.42-8.13-7.82.09-4.41 3.72-7.92 8.13-7.84 4.07 0 7.51 2.96 8.04 6.84l.27 2.11 1.2-1.78c2.2-3.06 5.7-4.91 9.47-5 1.16 0 2.33.18 3.56.53 3.31.95 5.64 3.93 5.76 7.38.07 1.02.82 1.07.98 1.07.42 0 .73-.24.93-.47.91-.91 2.89-2.44 6-2.44 1.55.03 3.07.36 4.49.98 7.64 3.18 4.18 12.53 4.13 12.64-.67 1.56-.67 2.22-.07 2.64l.31.13h.22c.33 0 .78-.16 1.49-.38 5.23-2.31 11.35.06 13.66 5.29.54 1.23.84 2.56.88 3.91 0 5.56-4.69 10.07-10.44 10.07Zm81.13-45.2c-12.64-10.62-41.87-35.11-49.78-40.82-4.53-3.29-7.62-5.02-10.33-5.78-1.64-.5-3.35-.77-5.07-.78-2.19.03-4.36.38-6.44 1.04-5.11 1.56-10.22 5.47-15.11 9.24l-.27.2c-4.6 3.51-9.33 7.13-12.93 7.91-1.56.36-3.18.51-4.8.51-4 0-7.62-1.11-8.98-2.78-.22-.27-.09-.71.44-1.36l.07-.09 11.11-11.56c8.73-8.4 16.96-16.31 35.91-16.73h.93c11.78 0 23.58 5.07 24.89 5.67a79.644 79.644 0 0 0 33.98 7.84c11.96 0 24.29-2.84 37.27-8.6a99.37 99.37 0 0 0-4.51-3.44c-11.4 4.76-22.27 7.18-32.73 7.16-10.69 0-21.4-2.47-31.78-7.33-.53-.27-13.56-6.18-27.11-6.2H205c-15.91.38-24.89 5.82-30.89 10.6-5.87.13-10.93 1.49-15.44 2.71-4 1.07-7.47 2-10.87 2-1.38 0-3.89-.13-4.11-.13-3.89-.11-23.49-4.73-39.09-10.44-1.6 1.11-3.11 2.22-4.62 3.36 16.29 6.44 36.11 11.42 42.38 11.8 1.73.11 3.58.31 5.44.31 4.13 0 8.27-1.11 12.27-2.2 2.54-.72 5.12-1.34 7.71-1.84l-2.2 2.11-11.31 11.78c-.89.87-2.82 3.18-1.56 6a7.79 7.79 0 0 0 2.98 3.2c2.71 1.73 7.53 2.91 12 2.93 1.71 0 3.31-.18 4.8-.49 4.73-1.02 9.71-4.84 14.96-8.89 4.22-3.2 10.18-7.27 14.73-8.47 1.68-.42 3.42-.59 5.16-.49 3.02.38 5.93 1.36 11.13 5.11 9.29 6.73 50.36 41.33 50.76 41.67.02.02 2.64 2.22 2.44 5.82-.09 2-1.24 3.8-3.27 5.04a10.275 10.275 0 0 1-5.38 1.62c-1.68 0-3.32-.46-4.76-1.33-.16-.11-14.22-12.53-19.4-16.71-.84-.67-1.62-1.27-2.44-1.27-.41-.01-.81.17-1.07.49-.82.98.09 2.31 1.16 3.2l16.44 15.91s2.04 1.84 2.27 4.29c.13 2.64-1.18 4.84-3.89 6.56a10.902 10.902 0 0 1-5.84 1.87c-1.66 0-3.27-.48-4.67-1.38l-2.38-2.22c-4.31-4.11-8.76-8.33-12-10.93-.8-.64-1.64-1.22-2.44-1.22-.39 0-.77.14-1.04.42-.38.4-.62 1.11.29 2.29.38.49.84.89.84.89l12 12.98c.09.11 2.44 2.82.24 5.56l-.42.49c-.35.37-.72.72-1.11 1.04a9.83 9.83 0 0 1-7.49 1.67c-1.18-.22-1.96-.53-2.36-.98l-.13-.13c-3.75-3.71-7.65-7.25-11.71-10.62-.67-.53-1.49-1.2-2.33-1.2-.41-.01-.81.15-1.09.44-.98 1.07.51 2.62 1.13 3.2l10.22 10.87c-.09.24-.21.47-.38.67-.38.49-1.6 1.67-5.33 2.13-.44.05-.89.07-1.33.07-3.84 0-7.91-1.78-10-2.87.94-1.94 1.43-4.07 1.42-6.22-.15-8.28-6.98-14.88-15.27-14.73-.17 0-.34 0-.51.02.27-3.71-.29-10.71-7.76-13.8-2.02-.87-4.18-1.33-6.38-1.36-1.59 0-3.17.27-4.67.82-1.6-2.94-4.29-5.14-7.49-6.11-1.76-.6-3.61-.92-5.47-.93-3.11 0-5.98.89-8.53 2.62-4.65-5.55-12.92-6.27-18.47-1.62-.23.19-.45.39-.66.59-3.2-2.36-15.82-10.09-49.62-17.47-2.58-.63-5.16-1.31-7.71-2.04-.38 1.76-.67 3.56-.84 5.33l7.44 1.71c34.53 7.38 45.96 15.07 47.89 16.51-.66 1.52-1 3.15-1 4.8.11 7.03 5.9 12.64 12.93 12.53.8-.01 1.59-.1 2.38-.26 1.07 5.04 4.51 8.89 9.76 10.84 2.41.91 5.04 1.08 7.56.51.98 2.38 3.16 5.33 8.02 7.24 1.71.67 3.42 1 5.09 1 1.36 0 2.67-.22 3.96-.67 3.56 7.82 12.78 11.27 20.6 7.71 1.65-.75 3.15-1.78 4.44-3.05 2.44 1.31 7.64 3.69 12.89 3.69.69 0 1.33-.04 1.98-.11 5.2-.64 7.64-2.6 8.76-4.13.2-.27.38-.55.53-.84 1.34.39 2.73.6 4.13.62a14.35 14.35 0 0 0 8.36-2.89c2.71-1.87 4.67-4.58 4.93-6.89v-.09c.92.18 1.86.27 2.8.27 2.93 0 5.82-.89 8.58-2.62 5.33-3.36 6.22-7.73 6.16-10.62 3.76.77 7.67.02 10.87-2.09 5.37-3.14 7.19-10.04 4.05-15.41-.08-.14-.17-.28-.25-.41 17.29-6.8 35.1-12.17 53.27-16.07-.15-1.79-.4-3.57-.73-5.33-29.02 6.22-50.67 15.24-56.11 17.56Z"/></g></svg>