<?xml version="1.0" encoding="UTF-8"?>
<svg id="Layer_1" xmlns="http://www.w3.org/2000/svg" version="1.1" viewBox="0 0 1080 1080">
  <!-- Generator: Adobe Illustrator 29.5.1, SVG Export Plug-In . SVG Version: 2.1.0 Build 141)  -->
  <defs>
    <style>
      .st0 {
        fill: #dae5eb;
      }

      .st1 {
        fill: #aebfd3;
      }

      .st2 {
        fill: #fc6e30;
      }

      .st3 {
        fill: #130e16;
      }

      .st4 {
        fill: #e9f1f4;
      }
    </style>
  </defs>
  <circle class="st2" cx="539.52" cy="540" r="540"/>
  <g id="G928Ft">
    <g>
      <path class="st3" d="M871.17,310.92v78.46c0,.1-.93,1.06-1.21,1.19l-50.49.61c-1,.56-1.1,1.36-1.23,2.38-.54,4.22-.43,15.54,0,19.9.2,2,.31,3.18,2.71,3.3l49.03.27c1,.56,1.1,1.36,1.23,2.38.95,7.4-1.2,16.3.57,23.77h24.95c.06,0,.9.84.9.9v184.57c0,.06-.84.9-.9.9h-24.95c.33.77-.6,1.78-.6,2.1v23.45c0,.06-.84.9-.9.9h-51.1c-.06,0-.9.84-.9.9v24.05c0,.06.84.9.9.9h50.5c.1,0,1.06.93,1.19,1.21v78.14c-.13.28-1.09,1.21-1.19,1.21h-24.05c-.06,0-.9.84-.9.9v24.05c0,.1-.93,1.06-1.21,1.19H235.12c-.28-.13-1.21-1.09-1.21-1.19v-24.05c0-.06-.84-.9-.9-.9h-24.05c-.1,0-1.06-.93-1.19-1.21v-78.14c.13-.28,1.09-1.21,1.19-1.21h50.5c.06,0,.9-.84.9-.9v-24.05c0-.06-.84-.9-.9-.9h-51.1c-.74,0-1.42-2.48-1.52-3.29-.42-3.57.73-20.59-.25-21.99-.72-1.03-22.19-.89-25.19-1.14l-1.03-3.3.04-180.97c.08-.62.33-1.19.83-1.58,2.46-1.93,21.22.72,25.61-1.14v-24.95c1.38-1,5.01-1.48,6.89-1.53,8.73-.22,17.76.07,26.45,0,6.39-.05,12.8.07,19.19.07.62-.17.95-3.2,1-3.92.21-3.14.38-18.58-.72-20.37-.24-.39-.36-.81-.89-.92l-49.25-.05c-2.4.02-2.53-2.04-2.7-3.91-2.09-23.55,1.64-50.13,0-74-.23-.76,1.04-2.68,1.53-2.68h24.05c.79,0,1.4-3.66,1.49-4.52.52-4.96-.87-10.79-.65-15.62.08-1.8.52-5,1.56-6.31h607.81c.23,0,2.1,1.37,2.1,1.5v24.05c0,.06.84.9.9.9h24.05c.2,0,.91.8,1.5.6ZM790.61,391.48c1.22-.27,1.94-1.07,3.28-1.23,7.47-.89,16.3,1.19,23.78-.57v-24.95c0-.06.84-.9.9-.9h24.65c.5,0,1.06-1.46.93-2.07-1.19-15.54,1.89-32.18.6-47.55-.24-2.87-.31-3.56-3.32-3.88l-604.24-.03c-2.19-.08-3.02.58-3.3,2.71-1.96,14.97,2.25,33.38.6,48.75-.13.62.43,2.07.93,2.07h24.65c.06,0,.9.84.9.9v24.65c0,.06.84.9.9.9h24.65c.06,0,.9.84.9.9v24.65c0,.06-.84.9-.9.9h-24.05c-.18,0-2.74,1.61-2.1,2.4.1.13,1.1-.13,1.2,0,.12.16-.03,2.36,0,3.01-1.82-.34-1.16.92-1.2,2.08-.21,6.29.2,12.62-.06,18.91l-47.75.04-2.69,1.22c-.37-.05-.82,0-1.2,0-.43,0-1.29-.26-1.21.36.73,51.87-.92,103.82-.02,155.68.13,7.65-.23,19.35.6,26.45.07.61.27,2.07.93,2.07h50.5c.11,0,1.5,1.4,1.5,1.5v24.05c0,.06.84.9.9.9h24.05c.76,0,1.43,1.88,1.53,2.68.92,6.85-.77,15.69,0,22.78l-2.43,2.2c-7.52.03-15.06.02-22.59-.05-1.2-.18-.76,1.16-.86,1.25-.08.08-.81-.17-1.06.11-.78.91.3,20.89-.14,23.94h-24.95c-.22,0-.97.61-1.41.7l-.14.78,1.55,51.42h607.81c.66,0,.86-1.47.93-2.07.83-7.05.48-18.88.6-26.46.12-7.81.34-16.11-.63-23.77h-24.95c-.06,0-.9-.84-.9-.9v-23.45c0-.34-.87-1.34-.61-2.1-.64-.25-1.12.59-1.2.6-7.27.97-16.55-.72-24.05,0-1.04-1.74.33-5.35-1.8-4.81-.2-5.57-.22-11.87,0-17.43,2.5,1.01-.23-5.41,2.1-5.41h22.24c.32,0,1.31.97,2.1.6-.17-.59.61-1.29.61-1.5v-24.05c0-.11,1.4-1.5,1.5-1.5h50.5c.34,0,.92-1.01.9-1.5,1.02-60.81.54-121.79.52-182.68-.43-1.26-4.81-1.51-6.21-1.61-10.44-.71-24.34-.39-34.92.03-1.16.05-2.41-.62-2.08,1.2h-1.2c-.05-.34.1-1.13,0-1.2-.67-.5-8.42.87-8.42-.9v-24.35c0-.18-2.76-1.17-3.28-1.23-6.76-.87-15.5.88-22.31.08-1.22-.14-.69-1.56-2.07-1.25-.66-7.13-.11-16.68,0-24.05Z"/>
      <path class="st1" d="M367.97,364.43c-.01-.95-1.06-2.1-1.24-3.87-.47-4.55-.51-16.03.01-20.51.07-.61.27-2.07.93-2.07h51.7c.06,0,.9.84.9.9v23.45c0,.06.84.9.9.9h51.4c.36,2.31,1.08,5.24,1.2,7.52.31,5.91-.62,12.52-.38,18.55.11,2.82,3.19,1,5.47.95,58.08-1.24,116.52,1.6,174.4,0,4.04-.11,5.38-.81,9-1.16s21.28.62,22.57-.27c1.47-1.02-.21-14.53-.06-17.5.07-1.32.73-7.49,1.53-7.49h24.65c2.04,0,.87,4.82.87,5.69.01,2.75.41,19.28-.23,20.2-.93,1.34-21.45.17-24.61.54-.74.15-.26.92-.38,1.23-.31.79-.56.86-.64,2.03-.51,7.37.07,15.88.64,23.22-.18.04-.98,1.05-1.8,1.2h-25.25c-.2,8.39.28,16.86,0,25.25-.48,14.6-1.36,26.8-.58,41.76.09,1.68-.64,11.15.88,11.15h24.65c.06,0,.9.84.9.9v23.45c0,1.18,1.08,2.69-1.5,3.31l-51.4.6v22.54c0,2.25,2.21,2.43,3.98,2.63,3.84.42,21.34-2.03,22.39,1.06.43,28.63-.3,57.29.05,85.92.02,1.44.66,2.77.68,4.19.03,1.8-1.85,14.73.85,14.73h23.45c.1,0,1.06.93,1.19,1.21.55,1.17.64,20.71.35,23.18s-1.79,1.34-1.84,3.27c-25.41-.72-52.45,1.59-77.55,0-.32-.02-.87-.57-1.2-.6v-25.85s-25.85,0-25.85,0l-.6-.6-.66-25.79c-7.88.2-16.14-.5-23.98-.07-.4.02-.8-.04-1.2,0-.05.8.04,1.61,0,2.41-.02.4,0,.8,0,1.2-.34,14.71.28,29.49.03,44.21-.02.93-.74,2.9-.57,3.19.93,1.62,3.81.65,5.02.67,5.57.08,15.61-.87,20.45.04.99.19,1.67.63,2.01,1.61l.11,51.28c79.13-.84,158.36,1.11,237.47,0,.4,0,.8,0,1.2,0,5.15,1.01,11.69,1.01,16.83,0,.8,0,1.61.03,2.4,0,1.83,1.07,5.79,1.19,6.01-1.2.7-7.45-.52-15.89,0-23.45h-25.85c-.02-.53-.6-1.09-.6-1.2-.31-8.57.72-17.41-.6-25.85.08-.01.56-.85,1.2-.6-.26.77.61,1.77.61,2.1v23.45c0,.06.84.9.9.9h24.95c.96,7.66.74,15.96.63,23.77-.11,7.57.23,19.41-.6,26.46-.07.61-.27,2.07-.93,2.07H235.41l-1.55-51.42.14-.78c.44-.09,1.19-.7,1.41-.7h24.95c.44-3.04-.64-23.03.14-23.94.25-.29.98-.03,1.06-.11-.11,7.8.15,15.65,0,23.45,0,.13-.58,1.18-.6,2.4h-25.85c.47,7.61-.62,15.92,0,23.45.05.55-.33,1.72.35,1.82,96.77-1.58,193.77.09,290.62-.61.4,0,.8,0,1.2,0,4.52,1.01,10.51,1.01,15.03,0,1,.03,2.01.02,3.01,0,.87.88,2.13.89,3.01,0,.59.05,1.22-.07,1.8,0,2.6.3,3.33-.05,1.8-3.01.6-1.8.49-3.03.6-4.81.04-.6-.02-1.2,0-1.8.08-2.18.02-4.43,0-6.61-.02-1.6.06-3.21,0-4.81-.05-1.2.04-2.41,0-3.61h-26.46s-1.2-1.2-1.2-1.2v-25.85c-8.38-.28-16.88.39-25.25,0-.13,0-.68-.58-1.2-.6v-25.85c-8.4-.12-16.85.17-25.25,0-.3,0-.9-.59-1.2-.6v-25.85c-8.41-.48-17.53.66-25.85,0-.04,0-.06-.57-.6-.6v-52.31s-25.25,0-25.25,0c-.11-1.16.42-1.37-1.2-1.2v-79.36l1.2-1.2h25.25v-51.1h-25.25l-1.2-1.2v-51.71s-25.85,0-25.85,0c-.01-.54-.6-1.09-.6-1.2-.09-3.69.56-25.15-.69-26.38l-1.12-.07-21.64.6c-.31-.1-.83.06-1.2,0ZM419.07,389.68v-24.35c0-.06-.84-.9-.9-.9h-23.75v25.25h24.65ZM471.98,391.48h-51.1v51.1h25.55c.06,0,.9.84.9.9v51.1c0,.79-1.18,2.71-2.1,2.71h-24.05c-.06,0-.9.84-.9.9v76.35c0,.06.84.9.9.9h24.05c.2,0,1.45.66,1.53,1.01.25,1.14.51,5.01.6,6.48.9,14.81-.72,30.52-.02,45.42h24.35c.63,0,2.1,1.48,2.1,2.1v24.05c0,.06.84.9.9.9h24.05c.11,0,1.5,1.4,1.5,1.5v24.95h24.35c.06,0,.9-.84.9-.9v-104.01c0-.74,2.48-1.42,3.29-1.52,3.06-.36,20.37-.43,22.59.28.45.15,1.77.97,1.77,1.23v51.4h24.35c.23,0,2.1,1.37,2.1,1.5v24.65c0,.06.84.9.9.9h24.65c.06,0,.9.84.9.9v24.05c0,.2.8.91.6,1.5h50.8c.06,0,.9-.84.9-.9v-24.35c-.59.2-1.3-.6-1.5-.6h-24.05c-.06,0-.9-.84-.9-.9v-104.01c0-.06-.84-.9-.9-.9h-51.1c-.29,0-.59-.71-.77-1.04-.94-1.74-1.19-24.77-.44-26.02.28-.47.99-.72,1.5-.95l77.57-.24v-23.75c0-.06-.84-.9-.9-.9h-24.65c-.06,0-.9-.84-.9-.9v-52.3c0-.14,1.88-1.5,2.1-1.5h24.35v-23.75c0-.06-.84-.9-.9-.9h-183.36c-.11,0-1.5-1.4-1.5-1.5v-24.95ZM684.2,391.48h-24.65v24.65h24.65v-24.65ZM551.94,707.71v-23.75c0-.06-.84-.9-.9-.9h-23.45c-.06,0-.9.84-.9.9v22.85c0,.06.84.9.9.9h24.35Z"/>
      <path class="st1" d="M261.56,419.14c-.1-.13-1.1.12-1.2,0-.64-.79,1.92-2.4,2.1-2.4h24.05c.06,0,.9-.84.9-.9v-24.65c0-.06-.84-.9-.9-.9h-24.65c-.06,0-.9-.84-.9-.9v-24.65c0-.06-.84-.9-.9-.9h-24.65c-.5,0-1.06-1.46-.93-2.07,1.65-15.38-2.56-33.78-.6-48.75.28-2.14,1.11-2.79,3.3-2.71l604.24.03c3.01.32,3.08,1.01,3.32,3.88,1.3,15.37-1.78,32.01-.6,47.55.13.62-.43,2.07-.93,2.07h-24.65c-.06,0-.9.84-.9.9v24.95c-7.47,1.76-16.31-.32-23.78.57-1.33.16-2.06.96-3.28,1.23,0-.4,0-.8,0-1.2,0-.46.53-2.52.57-4.48.08-3.22-.46-19.47.33-20.77.16-.27,1.63-1.2,1.8-1.2h23.45c1.86,0,.83-11.35.88-12.95.04-1.42.59-2.73.65-4.15.12-2.99-.68-5.8.01-8.71l25.22-.03c.03-.4-.02-.8,0-1.2.4-8.17-.3-16.47,0-24.65l-8.09-.62-599.75.29c-1.36.95-.12,21.89-.59,25.21.15.74.92.26,1.23.38,1.91.76,4.17,1.21,6.01,0,4.58.27,10.04-.54,14.43,0,.46.06,2.11,1.08,3.22.69l.91.89.17,24.18,26.28,1.38c2.18,7.38-.87,16.04.06,23.08.62,4.71,5.82,2.07,8.75,2.08,1.45,0,2.99.67,4.82.65s13.52-1.85,13.52.86v25.25c0,2.68-7.62.9-9.29.88-5.92-.1-11.92.56-17.77.63-7.9.09-15.87-.26-23.77,0-1.17.04-2.41-.62-2.08,1.2Z"/>
      <path class="st1" d="M208.66,444.39v25.85c0,43.87-.03,87.77.03,131.63l51.67.93c2.6,1.27.61,10,.57,12.6-.05,3.33.41,5.92.63,9.05.06.83-.58,1.72-.55,2.45.12,3.83,8.74,1.44,11.07,1.41,1.68-.02,3.41.71,5.42.69,3.23-.02,6.99-1.87,10.23.54.48,7.25-1.29,16.06-.35,23.2.11.84.14,1.56.87,2.13,1.89,1.49,19.42,0,23.53.52.84.11,1.56.14,2.13.87v25.97c-.57.73-1.29.77-2.13.87-6.8.86-17.11-.07-24.38-.03-.8,0-1.6,0-2.4,0l2.43-2.2c-.77-7.08.92-15.93,0-22.78-.11-.79-.77-2.68-1.53-2.68h-24.05c-.06,0-.9-.84-.9-.9v-24.05c0-.11-1.4-1.5-1.5-1.5h-50.5c-.66,0-.86-1.47-.93-2.07-.83-7.1-.47-18.81-.6-26.45-.9-51.86.75-103.81.02-155.68-.08-.62.78-.35,1.21-.36Z"/>
      <path class="st1" d="M827.88,444.39c-.34-1.82.92-1.16,2.08-1.2,10.58-.42,24.48-.74,34.92-.03,1.4.1,5.78.35,6.21,1.61.02,60.9.5,121.87-.52,182.68.02.49-.56,1.5-.9,1.5h-50.5c-.11,0-1.5,1.4-1.5,1.5v24.05c0,.22-.78.92-.61,1.5-.79.36-1.78-.6-2.1-.6h-22.24c-2.34,0,.39,6.42-2.1,5.41.06-1.54-.2-3.37,0-4.81.31-2.22.6-1.63.6-4.51v-21.04c0-2.78,4.57-.93,6.29-.88,4.86.14,12.96.59,17.49,0,3.01-.39,4.19-4.37,3.9-6.87-.05-.44-1.21-.12-1.3-1.26-.13-1.55.68-2.92.7-4.26.03-2.13-.73-5.78-.63-7.79.07-1.38.59-6.5,1.59-6.83l50.72-.08c-.25-43.19.3-86.41.02-129.6,0-1.13-.62-2.24-.63-2.66-.06-7.26.47-13.88-.06-21.35-.09-1.24.88-3.15.09-3.61-1.68-.37-3.39-.79-5.12-.92-11.35-.84-24.8.02-36.39.02Z"/>
      <path class="st4" d="M209.86,444.39c3.71.52,4.24.04,7.49-.02,14.32-.29,28.69.27,43.01.02-.51,6.87,1.21,13.96.62,20.76-.09,1.05-.48,4.32-1.19,4.82l-51.14.27v-25.85c.39,0,.84-.05,1.2,0Z"/>
      <path class="st4" d="M826.68,444.39h1.2c11.6,0,25.04-.86,36.39-.02,1.72.13,3.43.55,5.12.92.79.46-.17,2.37-.09,3.61.53,7.47,0,14.08.06,21.35l-50.5-.3c-1-.56-1.1-1.36-1.23-2.38-.77-5.97,2.04-18.72.03-23.17h9.02Z"/>
      <path class="st4" d="M790.61,390.28c0,.4,0,.8,0,1.2-.11,7.37-.66,16.92,0,24.05.04.39-.09.9,0,1.2-2.9-.08-5.83.1-8.74.02-1.62-.04-3.13-.79-4.78-.67s-2.81,1.3-4.81,1.3c-.77,0-5.38-.56-5.93-.74-2.45-.79-.94-9.1-.96-11.01-.05-5.22-.94-10.2-.02-15.35h25.24Z"/>
      <path class="st4" d="M790.61,656.01c-.2,1.44.06,3.27,0,4.81-.22,5.57-.2,11.86,0,17.43.04,1.08-.2,2.71,0,3.61h-25.85v-18.94c0-.35.85-4.49,1.05-4.96,1.61-3.91,5.49-1.97,8.24-1.93,5.51.1,11.05-.12,16.56-.03Z"/>
      <path class="st4" d="M816.46,683.06c1.32,8.44.3,17.28.6,25.85-7.25-.69-16.14.92-23.17.03-.89-.11-1.53-.15-2.15-.9-1.39-1.65-.19-21.41.08-24.98.18.05.41-.04.6,0,7.5-.72,16.78.97,24.05,0Z"/>
      <path class="st4" d="M287.41,417.93c-.45,3.91.06,7.81.02,11.75-.01,1.57-.64,3.06-.68,4.78s.86,3.37.68,5.41c-.54,6.37-6.66,3.21-10.55,3.26-4.22.05-8.71,1.07-13.29.69-1.21-.1-1.47-.09-2.05-1.24.44-6.14.25-14.21,0-20.44-.03-.65.12-2.85,0-3.01-.33-1.82.91-1.16,2.08-1.2,7.9-.26,15.87.08,23.77,0Z"/>
      <path class="st4" d="M285.01,683.06c.8,0,1.6,0,2.4,0,.24,5.72-.18,11.4-.53,17.07-.11,1.71.91,4.93-.83,6.83-2.33,2.55-18.53,2.26-22.45,1.99-1.21-.08-1.48-.1-2.05-1.24.15-7.8-.11-15.64,0-23.45.1-.1-.34-1.44.86-1.25,7.53.07,15.07.08,22.59.05Z"/>
      <path class="st1" d="M261.56,422.14c.25,6.23.44,14.3,0,20.44,0,.11-1.15,1.05-1.2,1.8-14.32.24-28.69-.31-43.01-.02-3.25.07-3.78.55-7.49.02l2.69-1.22,47.75-.04c.26-6.28-.15-12.62.06-18.91.04-1.16-.61-2.41,1.2-2.08Z"/>
      <path class="st1" d="M790.61,415.53c1.37-.31.85,1.11,2.07,1.25,6.81.8,15.55-.95,22.31-.08.51.07,3.28,1.06,3.28,1.23v24.35c0,1.78,7.75.4,8.42.9.1.07-.06.86,0,1.2h-9.02c-.13-.3-.26-.52-.6-.6v-25.85s-25.25,0-25.25,0c-.6-.19-1.03-.59-1.2-1.2-.09-.3.04-.81,0-1.2Z"/>
      <path class="st1" d="M790.61,678.25c2.13-.54.76,3.07,1.8,4.81-.19-.04-.42.05-.6,0-.56-.17-1.07-.62-1.2-1.2-.2-.9.04-2.53,0-3.61Z"/>
      <path class="st0" d="M843.52,336.77c-.02.4.03.8,0,1.2l-25.22.03c-.69,2.92.11,5.72-.01,8.71-.06,1.42-.61,2.73-.65,4.15-.05,1.6.98,12.95-.88,12.95h-23.45c-.17,0-1.64.93-1.8,1.2-.79,1.3-.25,17.54-.33,20.77-.05,1.96-.57,4.03-.57,4.48h-25.24c-.92,5.15-.03,10.14.02,15.36.02,1.92-1.49,10.23.96,11.01.56.18,5.16.74,5.93.74,2,0,3.1-1.18,4.81-1.3s3.15.63,4.78.67c2.91.08,5.84-.11,8.74-.02.17.61.6,1.01,1.2,1.2-.8,4.66-.66,9.41-.63,14.15,0,1.21.54,2.31.57,3.52.04,1.89-1.73,5.95.32,7.65l24.99.53c.34.08.47.31.6.6,2.01,4.45-.8,17.2-.03,23.17.13,1.02.23,1.82,1.23,2.38l50.5.3c0,.42.62,1.53.63,2.66.28,43.2-.27,86.41-.02,129.6l-50.72.08c-1,.33-1.52,5.45-1.59,6.83-.1,2.01.66,5.66.63,7.79-.02,1.34-.82,2.71-.7,4.26.09,1.14,1.25.82,1.3,1.26.28,2.5-.9,6.48-3.9,6.87-4.53.58-12.63.13-17.49,0-1.71-.05-6.29-1.9-6.29.88v21.04c0,2.88-.29,2.29-.6,4.51-5.51-.1-11.04.12-16.56.03-2.75-.05-6.63-1.99-8.24,1.93-.2.47-1.05,4.62-1.05,4.96v18.94h25.85c.13.58.64,1.04,1.2,1.2-.27,3.58-1.47,23.33-.08,24.98.63.74,1.27.78,2.15.9,7.04.89,15.93-.72,23.17-.03,0,.11.58.67.6,1.2.25,6.34.06,11.87-.04,18.34-.02,1.3.65,2.49.69,3.64.04,1.04-1.94.89-1.25,2.66-79.12,1.11-158.35-.83-237.47,0l-.11-51.28c-.34-.98-1.02-1.43-2.01-1.61-4.84-.91-14.88.04-20.45-.04-1.22-.02-4.09.95-5.02-.67-.17-.29.56-2.25.57-3.19.25-14.72-.37-29.5-.03-44.21,1.82-.34,1.16.92,1.2,2.08.22,6.71-.17,13.46,0,20.16h24.65s.6.6.6.6c.61,7.15-.82,15.57-.01,22.56.6,5.21,3.3,2.3,6.94,2.67,3.16.32,4.77,1.77,8.97,1.19,4.66-.64,4.74-1.01,9.95-.57.33.03.88.58,1.2.6-1.83,6.21-.46,12.92-.57,19.56-.04,2.42-1.76,4.21,1.19,5.97l76.51.19,2.09-2.05.15-23.68c-.6-.02-1.2.02-1.8,0,.05-1.93,1.56-.87,1.84-3.27s.2-22.01-.35-23.18c-.13-.28-1.09-1.21-1.19-1.21h-23.45c-2.7,0-.82-12.93-.85-14.73-.02-1.42-.66-2.75-.68-4.19-.36-28.63.38-57.29-.05-85.92-1.05-3.08-18.55-.63-22.39-1.06-1.78-.2-3.98-.38-3.98-2.63v-22.54l51.4-.6c2.58-.61,1.5-2.13,1.5-3.31v-23.45c0-.06-.84-.9-.9-.9h-24.65c-1.51,0-.79-9.46-.88-11.15-.78-14.95.09-27.15.58-41.76,8.29,1.32,16.95.56,25.29-.26l-.04-24.99c.82-.15,1.63-1.17,1.8-1.2,4.54-.93,12.86.43,17.67.55,1.81.04,4.01-1.04,6.36.05,2.12-5.39-.16-11.8.59-17.15.19-1.36,1.15-2.15,1.23-3,.11-1.12-.82-2.35-.62-3.5.04-.24,2.39-.91.9-2.19h-26.12c.12-.3-.36-1.08.38-1.22,3.16-.37,23.68.8,24.61-.54.64-.93.25-17.45.23-20.2,0-.87,1.17-5.69-.87-5.69h-24.65c-.8,0-1.46,6.17-1.53,7.49-.15,2.97,1.54,16.47.06,17.5-1.29.9-19-.07-22.57.27s-4.96,1.04-9,1.16c-57.88,1.61-116.32-1.24-174.4,0-2.28.05-5.36,1.87-5.47-.95-.23-6.03.7-12.65.38-18.55-.12-2.28-.83-5.21-1.2-7.52h-51.4c-.06,0-.9-.84-.9-.9v-23.45c0-.06-.84-.9-.9-.9h-51.7c-.66,0-.86,1.47-.93,2.07-.53,4.48-.48,15.96-.01,20.51.18,1.77,1.23,2.92,1.24,3.87.02,1.38-1.69,3.62-1.85,5.68-.25,3.1.97,7.1,1.24,10.26.17,1.97-.45,8.32.27,9.35s13.36.5,15.69.54c3.06.06,5.9,1,9.29.02,0,.11.59.66.6,1.2.29,12.43.06,25.03-.02,37.55-.03,4.75.2,9.47.29,14.19l25.59-.04,1.2,1.2c.24,1.34-.66,2.71-.63,3.93.02.85.63,1.58.63,1.78v39.68c0,.22-.62.99-.65,1.8-.05,1.34.62,2.58.65,3.91l-1.2,1.2h-24.35c-.47.04-.95.15-1.24.56-.9,1.29.39,20.25.36,23.81-.03,4.59-.03,9.17,0,13.78.08,13.73-.11,27.48-.03,41.21h25.25c1.62-.17,1.09.04,1.2,1.2,1.02,10.46.35,26.16.02,37-.07,2.17-1.21,5.26-1.13,7.21.08,2.09,1.93,4.85,1.1,7.49,2.82.66,5.51-.08,8.09-.03,5.71.1,11.38.3,17.16.63.54.03.56.6.6.6-.48,2.53.48,5.14.54,7.45.11,4.03-.77,10.02-.57,13.87.04.69,1.05,4.28,1.32,4.45,1.03.66,21.21.01,24.56.08.3,0,.9.6,1.2.6.64,4.17-1.22,23.11.89,25.27,1.28,1.31,2.76,0,4.23-.02,6.63-.03,13.43.27,20.14.6.53.03,1.08.6,1.2.6l-.02,24.96c2.07,2.09,21.16.26,25.27.89l1.2,1.2v24.65c-96.85.7-193.85-.97-290.62.61-.68-.09-.31-1.26-.35-1.82,3.46.51,23.7,1.39,25.27.33.5-.34.94-1.85.98-2.51.39-6.35-.53-14.51-.4-21.26.02-1.22.6-2.28.6-2.4.57,1.14.83,1.16,2.05,1.24,3.92.27,20.12.56,22.45-1.99,1.74-1.9.72-5.12.83-6.83.35-5.67.77-11.35.53-17.07,7.26-.04,17.57.89,24.38.03.84-.11,1.56-.14,2.13-.87v-25.97c-.57-.73-1.29-.77-2.13-.87-4.11-.52-21.64.98-23.53-.52-.73-.58-.76-1.29-.87-2.13-.94-7.14.83-15.95.35-23.2-3.24-2.41-7.01-.56-10.23-.54-2.01.01-3.74-.72-5.42-.69-2.34.03-10.96,2.42-11.07-1.41-.02-.73.61-1.62.55-2.45-.22-3.12-.68-5.71-.63-9.05.04-2.6,2.03-11.33-.57-12.6l-51.67-.93c-.06-43.87-.03-87.76-.03-131.63l51.14-.27c.71-.5,1.1-3.78,1.19-4.82.59-6.8-1.13-13.9-.62-20.76.06-.75,1.19-1.7,1.2-1.8.57,1.16.84,1.14,2.05,1.24,4.58.38,9.07-.64,13.29-.69,3.88-.05,10.01,3.11,10.55-3.26.17-2.04-.72-3.68-.68-5.41s.67-3.21.68-4.78c.03-3.94-.48-7.83-.02-11.75,5.85-.06,11.84-.72,17.77-.63,1.67.03,9.29,1.8,9.29-.88v-25.25c0-2.7-11.77-.88-13.52-.86s-3.37-.65-4.82-.65c-2.92,0-8.13,2.63-8.75-2.08-.92-7.05,2.12-15.7-.06-23.08l-26.28-1.38-.17-24.18-.91-.89c-1.1.38-2.76-.64-3.22-.69l586.76-.6ZM259.16,496.69c-6.09-.34-12.23.11-18.36.03-1.66-.02-5.32-1.59-6.19.97-.22.66-.65,6.88-.72,8.29-1.05,19.15-1.19,45.9,0,64.98.11,1.71.78,3.34.63,5.08h25.24c.57.19,1.07.61,1.2,1.21.73,3.2.1,13.73.03,17.76-.04,2.36-1.75,5.67.83,7.53,1.76,1.27,3.49-.03,5.43-.07,19.25-.38,38.41.66,57.71,0,3.4-.12,12.54.73,14.96-.06.7-.23,1.01-.68,1.01-1.41l-.62-23.75c.08,0,.68-.61,1.46-.63,8.5-.18,17.23.66,25.6-.58v-77.85c0-.12-1.08-2.1-1.2-2.1h-24.35c-.14,0-1.5-1.88-1.5-2.1v-23.45c0-.06-.84-.9-.9-.9h-77.55c-.45,0-1.36,1.46-1.49,2.12-1.13,5.92.73,15.24,0,21.64-.17,1.52-1.11,2.53-1.22,3.29ZM818.27,577.25c.88-.02,2.05-.59,3.28-.62,5.87-.14,15.9.97,21.06,0,.99-.18,1.67-.62,2-1.61l-.19-77.72c-.13-.28-1.09-1.21-1.19-1.21h-24.95v-24.95c0-.1-.93-1.06-1.21-1.19l-77.6-.05c-3.33.92-1.22,9.94-1.27,12.66-.08,4.21-1,9.4-1.08,13.53l-25,1.17c-.54.76.45,3.14.38,4.52-.09,1.71-1.08,3.35-1.26,5.41-.68,7.54.64,19.61.65,27.66.02,13.74-.06,27.48-.03,41.21h25.25s1.2,1.2,1.2,1.2c.88,6.83-1.19,16.68.02,23.13.39,2.11,2.01,2.58,3.85,2.76,17.27,1.67,40.68-.11,58.33-.66,3.58-.11,13.68.76,16.17-.06.48-.16.79-.4.9-.9-.45-2.71.69-5.98.71-8.36,0-1.58-.66-3.02-.65-4.75.02-3.76-.08-7.44.63-11.15Z"/>
      <path class="st3" d="M471.98,391.48v24.95c0,.11,1.4,1.5,1.5,1.5h183.36c.06,0,.9.84.9.9v23.75h-24.35c-.23,0-2.1,1.37-2.1,1.5v52.3c0,.06.84.9.9.9h24.65c.06,0,.9.84.9.9v23.75l-77.57.24c-.5.24-1.21.48-1.5.95-.75,1.26-.5,24.28.44,26.02.18.32.48,1.04.77,1.04h51.1c.06,0,.9.84.9.9v104.01c0,.06.84.9.9.9h24.05c.2,0,.91.8,1.5.6v24.35c0,.06-.84.9-.9.9h-50.8c.2-.59-.6-1.3-.6-1.5v-24.05c0-.06-.84-.9-.9-.9h-24.65c-.06,0-.9-.84-.9-.9v-24.65c0-.14-1.88-1.5-2.1-1.5h-24.35v-51.4c0-.26-1.32-1.09-1.77-1.23-2.22-.72-19.52-.64-22.59-.28-.81.09-3.29.78-3.29,1.52v104.01c0,.06-.84.9-.9.9h-24.35v-24.95c0-.11-1.4-1.5-1.5-1.5h-24.05c-.06,0-.9-.84-.9-.9v-24.05c0-.63-1.48-2.1-2.1-2.1h-24.35c-.69-14.9.92-30.61.02-45.42-.09-1.47-.35-5.34-.6-6.48-.08-.36-1.33-1.01-1.53-1.01h-24.05c-.06,0-.9-.84-.9-.9v-76.35c0-.06.84-.9.9-.9h24.05c.92,0,2.1-1.92,2.1-2.71v-51.1c0-.06-.84-.9-.9-.9h-25.55v-51.1h51.1ZM526.23,496.55l52.02.3c.37-.19.84-.39,1.05-.75.64-1.09.56-24.1,0-25.26-.43-.88-1.44-1.23-2.38-1.23l-50.23.33c-1,.56-1.1,1.36-1.23,2.38-.61,4.73-.4,16.14,0,21.1.08.94.11,2.47.77,3.14Z"/>
      <path class="st4" d="M683.6,683.06c.6.02,1.21-.03,1.8,0l-.15,23.68-2.09,2.05-76.51-.19c-2.95-1.76-1.23-3.55-1.19-5.97.12-6.65-1.26-13.35.57-19.56,25.1,1.59,52.14-.72,77.55,0Z"/>
      <path class="st4" d="M419.07,496.69v79.36h-25.25c-.08-13.72.11-27.47.03-41.21-.03-4.6-.03-9.19,0-13.78.03-3.56-1.26-22.52-.36-23.81.29-.42.76-.53,1.24-.56h24.35Z"/>
      <path class="st4" d="M393.22,391.48h25.85s0,51.7,0,51.7l-25.59.04c-.09-4.72-.32-9.45-.29-14.19.09-12.52.32-25.11.02-37.55Z"/>
      <path class="st4" d="M420.28,577.25h25.25s0,52.3,0,52.3c-5.78-.33-11.45-.53-17.16-.63-2.58-.04-5.27.69-8.09.03.84-2.64-1.01-5.4-1.1-7.49-.08-1.96,1.06-5.04,1.13-7.21.33-10.84,1-26.54-.02-37Z"/>
      <path class="st4" d="M420.28,444.39h25.25v51.1h-25.25c-.03-1.33-.7-2.56-.65-3.91.03-.81.65-1.58.65-1.8v-39.68c0-.2-.61-.93-.63-1.78-.03-1.22.87-2.59.63-3.93Z"/>
      <path class="st4" d="M578.99,656.61h25.85s0,25.85,0,25.85c-5.21-.44-5.3-.08-9.95.57-4.2.58-5.81-.87-8.97-1.19-3.64-.37-6.34,2.55-6.94-2.67-.8-6.99.62-15.41.01-22.56Z"/>
      <path class="st4" d="M499.63,683.06c8.37.39,16.87-.28,25.25,0v25.85c-4.11-.63-23.2,1.2-25.27-.89l.02-24.96Z"/>
      <path class="st4" d="M446.13,630.16c8.32.66,17.44-.49,25.85,0v25.85c-3.36-.07-23.53.58-24.57-.08-.27-.17-1.28-3.75-1.32-4.45-.2-3.85.68-9.84.57-13.87-.06-2.31-1.02-4.92-.54-7.45Z"/>
      <path class="st4" d="M684.8,417.93l.04,24.99c-8.34.82-17,1.58-25.29.26.28-8.39-.2-16.86,0-25.25h25.25Z"/>
      <path class="st4" d="M390.82,363.83l1.12.07c1.25,1.23.6,22.7.69,26.38-3.4.98-6.24.03-9.29-.02-2.33-.04-14.95.53-15.69-.54s-.09-7.38-.27-9.35c-.28-3.16-1.5-7.16-1.24-10.26.17-2.06,1.87-4.3,1.85-5.68.38.06.89-.1,1.2,0,4.09,1.27,14.74.79,19.57.6,1.16-.05,2.41.62,2.08-1.2Z"/>
      <path class="st4" d="M686.6,391.48h26.12c1.49,1.28-.86,1.95-.9,2.19-.19,1.15.73,2.38.62,3.5-.08.85-1.04,1.64-1.23,3-.75,5.36,1.53,11.76-.59,17.15-2.35-1.09-4.54,0-6.36-.05-4.81-.12-13.13-1.48-17.67-.55-.58-7.34-1.16-15.85-.64-23.22.08-1.18.33-1.25.64-2.03Z"/>
      <path class="st4" d="M473.18,656.61c8.4.17,16.85-.12,25.25,0v25.85c-6.71-.33-13.51-.63-20.14-.6-1.47,0-2.94,1.33-4.23.02-2.11-2.16-.24-21.09-.89-25.27Z"/>
      <path class="st4" d="M553.74,630.16c7.84-.43,16.1.26,23.98.07l.66,25.79h-24.65c-.17-6.71.22-13.46,0-20.17-.04-1.16.61-2.41-1.2-2.08,0-.4-.02-.8,0-1.2,1.63.3,1.27-1.09,1.2-2.4Z"/>
      <path class="st4" d="M526.09,710.11h26.46c.03,1.19-.05,2.41,0,3.61-.34.06-1.13-.09-1.2,0-.14.18-.07,4.24-.02,4.45.13.66.7.29,1.22.36.02,2.19.08,4.43,0,6.61-1.79-.53-1.91,2.27,0,1.8-.11,1.78,0,3.01-.6,4.81-.28.86-1.37,2.1-1.8,3.01-.59-.07-1.21.05-1.8,0-1.67-.14-1.76-.02-3.01,0-1,.02-2.01.03-3.01,0-5.09-.15-10.06-.04-15.03,0-.4,0-.8,0-1.2,0v-24.65Z"/>
      <path class="st3" d="M419.07,389.68h-24.65v-25.25h23.75c.06,0,.9.84.9.9v24.35Z"/>
      <path class="st4" d="M260.96,710.11c-.13,6.75.79,14.91.4,21.26-.04.66-.48,2.17-.98,2.51-1.57,1.06-21.81.18-25.27-.33-.63-7.52.47-15.84,0-23.45h25.85Z"/>
      <path class="st3" d="M551.94,707.71h-24.35c-.06,0-.9-.84-.9-.9v-22.85c0-.06.84-.9.9-.9h23.45c.06,0,.9.84.9.9v23.75Z"/>
      <path class="st4" d="M817.66,710.11h25.85c-.52,7.56.69,16,0,23.45-1.81.65-3.72.6-5.61.72-.5.03-.37.48-.4.49-.8.03-1.61,0-2.4,0-5.41.02-11.44-.08-16.83,0-.4,0-.8,0-1.2,0-.69-1.77,1.29-1.62,1.25-2.66-.04-1.15-.71-2.35-.69-3.64.11-6.47.29-12,.04-18.34Z"/>
      <rect class="st3" x="659.55" y="391.48" width="24.65" height="24.65"/>
      <path class="st0" d="M390.82,363.83c.34,1.82-.92,1.16-2.08,1.2-4.83.19-15.47.67-19.57-.6l21.64-.6Z"/>
      <path class="st0" d="M835.1,734.76c-5.15,1.01-11.69,1.01-16.83,0,5.39-.08,11.42.02,16.83,0Z"/>
      <path class="st0" d="M542.32,734.76c-4.52,1.01-10.51,1.01-15.03,0,4.97-.04,9.94-.15,15.03,0Z"/>
      <path class="st0" d="M843.52,733.56c-.22,2.39-4.18,2.28-6.01,1.2.03,0-.1-.45.4-.49,1.89-.12,3.81-.06,5.61-.72Z"/>
      <path class="st0" d="M552.54,713.72c.06,1.59-.02,3.21,0,4.81-.52-.06-1.1.31-1.22-.36-.04-.22-.11-4.28.02-4.45.07-.09.86.06,1.2,0Z"/>
      <path class="st0" d="M551.94,731.76c1.52,2.96.8,3.31-1.8,3.01.43-.91,1.52-2.15,1.8-3.01Z"/>
      <path class="st0" d="M548.33,734.76c-.87.89-2.13.88-3.01,0,1.25-.02,1.33-.14,3.01,0Z"/>
      <path class="st0" d="M553.74,630.16c.07,1.32.43,2.7-1.2,2.4.04-.8-.05-1.61,0-2.41.4-.03.8.03,1.2,0Z"/>
      <path class="st0" d="M552.54,725.14c-.02.6.04,1.21,0,1.8-1.91.47-1.79-2.33,0-1.8Z"/>
      <path class="st4" d="M236.31,337.37c-.31-.12-1.08.36-1.23-.38.47-3.32-.78-24.26.59-25.21l599.75-.29,8.09.62c-.3,8.18.39,16.48,0,24.65l-586.76.6c-4.39-.54-9.84.27-14.43,0-.11,0-.79-.55-2.06-.63-1.16-.08-3.28-.3-3.95.63Z"/>
      <path class="st0" d="M242.32,337.37c-1.84,1.21-4.1.76-6.01,0,.67-.94,2.79-.71,3.95-.63,1.27.09,1.96.63,2.06.63Z"/>
      <path class="st4" d="M791.81,417.93h25.25s0,25.85,0,25.85l-24.99-.53c-2.04-1.7-.27-5.76-.32-7.65-.03-1.21-.56-2.31-.57-3.52-.03-4.74-.17-9.49.63-14.15Z"/>
      <path class="st1" d="M737.1,496.09c.09-4.13,1-9.31,1.08-13.53.05-2.72-2.06-11.75,1.27-12.66l77.6.05c.28.13,1.21,1.09,1.21,1.19v24.95h24.95c.1,0,1.06.93,1.19,1.21l.19,77.72c-.33.98-1.01,1.42-2,1.61-5.16.97-15.19-.15-21.06,0-1.22.03-2.39.61-3.28.62-26.62.52-53.33-.39-79.96,0l-1.2-1.2c.41-26.63-.55-53.34,0-79.96ZM817.06,497.29h-77.25c-.06,0-.9.84-.9.9v77.25h77.85l.3-78.16Z"/>
      <path class="st1" d="M259.16,496.69c.11-.76,1.05-1.77,1.22-3.29.73-6.4-1.13-15.72,0-21.64.13-.66,1.04-2.12,1.49-2.12h77.55c.06,0,.9.84.9.9v23.45c0,.23,1.37,2.1,1.5,2.1h24.35c.12,0,1.2,1.98,1.2,2.1v77.85c-8.37,1.24-17.09.4-25.6.58-.78.02-1.38.62-1.46.63-26.42.51-52.93-.38-79.36,0-.14-.6-.63-1.02-1.2-1.2-.01-24.95,0-49.91.03-74.87,0-1.51-.83-3.05-.63-4.49ZM261.56,496.69c-.28,1.1-.54,2.12-.63,3.28-1.86,23.58,1.47,49.56,0,73.4,0,2.02,1.39,2.87,3.3,2.71,22.95-1.54,48.33,1.93,71-.01,1.04-.09,4.32-.48,4.82-1.19l-.04-76.98c-.13-.28-1.09-1.21-1.19-1.21h-77.25Z"/>
      <path class="st4" d="M259.16,496.69c-.2,1.43.63,2.98.63,4.49-.02,24.96-.04,49.92-.03,74.87h-25.24c.15-1.75-.52-3.37-.63-5.09-1.19-19.08-1.06-45.83,0-64.98.08-1.41.5-7.64.72-8.29.87-2.56,4.53-1,6.19-.97,6.13.09,12.27-.36,18.36-.03Z"/>
      <path class="st4" d="M818.27,577.25c-.71,3.71-.61,7.39-.63,11.15,0,1.73.66,3.17.65,4.75-.01,2.38-1.15,5.65-.71,8.36-.12.51-.43.75-.9.9-2.49.82-12.6-.05-16.17.06-17.65.56-41.06,2.33-58.33.66-1.85-.18-3.46-.65-3.85-2.76-1.2-6.45.86-16.3-.02-23.13,26.63-.39,53.34.52,79.96,0Z"/>
      <path class="st4" d="M340.32,577.25l.62,23.75c0,.73-.32,1.18-1.01,1.41-2.42.79-11.56-.05-14.96.06-19.3.65-38.46-.39-57.71,0-1.94.04-3.67,1.34-5.43.07-2.58-1.87-.87-5.17-.83-7.53.07-4.03.7-14.56-.03-17.76,26.43-.38,52.93.51,79.36,0Z"/>
      <path class="st4" d="M737.1,496.09c-.55,26.62.41,53.33,0,79.96h-25.25c-.03-13.72.05-27.47.03-41.21-.01-8.05-1.33-20.12-.65-27.66.19-2.05,1.17-3.69,1.26-5.41.07-1.38-.93-3.75-.38-4.52l25-1.17Z"/>
      <path class="st1" d="M526.23,496.55c-.66-.67-.69-2.2-.77-3.14-.4-4.95-.61-16.37,0-21.1.13-1.02.23-1.82,1.23-2.38l50.23-.33c.94,0,1.95.34,2.38,1.23.57,1.16.64,24.17,0,25.26-.21.36-.68.56-1.05.75l-52.02-.3Z"/>
      <path class="st3" d="M817.06,497.29l-.3,78.16h-77.85v-77.25c0-.06.84-.9.9-.9h77.25Z"/>
      <path class="st3" d="M261.56,496.69h77.25c.1,0,1.06.93,1.19,1.21l.04,76.98c-.5.71-3.78,1.1-4.82,1.19-22.66,1.95-48.04-1.53-71,.01-1.91.15-3.29-.69-3.3-2.71,1.47-23.84-1.86-49.82,0-73.4.09-1.16.35-2.18.63-3.28Z"/>
    </g>
  </g>
</svg>