<svg xmlns="http://www.w3.org/2000/svg" viewBox="0 0 400 400"><defs><clipPath id="a"><circle cx="200" cy="200" r="200" fill="none"/></clipPath></defs><g clip-path="url(#a)"><path fill="#132f57" d="M0 0h400v400H0V0Z"/><path fill="#fff" d="M333.33 167.13h-92.18c12.11-42.33 23.07-78.24 23.07-78.24s-41.47 41.27-78.33 78.24H46.18c-2.31 0-2.31 1.09 0 1.09 1.13 0 132.76 5.89 132.76 5.89-28.8 28.4-44.36 44.49-44.91 45.02-1.16 1.07 0 1.62 1.13.53.58-.53 21.33-18.22 50.71-45.56l45.49.53c-2.89 12.33-5.16 23.58-8.62 36.98-55.89 27.89-146.89 73.44-146.89 73.44-1.16.53-.58 1.6.58 1.07.58-.53 85.24-40.2 144.58-68.07-9.78 41.27-16.13 69.67-16.13 70.22-.58.51.58 1.04 1.16 0 0-.56 8.64-28.96 21.33-72.91 52.96-25.18 105.98-48.22 105.98-48.22v-.02Zm-140 0a5403.47 5403.47 0 0 1 50.71-45.56s-4.04 17.69-10.93 45.56h-39.78Zm45.54 7.51 55.29 1.09s-27.64 13.93-65.11 32.67c3.47-11.78 6.36-21.96 9.82-33.76Z"/></g></svg>