<svg xmlns="http://www.w3.org/2000/svg" viewBox="0 0 200 200"><defs><style>.cls-1{fill:#fff;}.cls-2,.cls-3{fill:none;stroke:#000;stroke-linecap:round;stroke-width:10px;}.cls-2{stroke-linejoin:round;}.cls-3{stroke-miterlimit:10;}</style></defs><title>10</title><g id="_2" data-name="2"><g id="1-2" data-name="1"><circle class="cls-1" cx="100" cy="100" r="100"/><polygon class="cls-2" points="100.06 180 48.82 106.35 100.06 20 151.18 106.15 100.06 180"/><path class="cls-3" d="M165.12,127.74l-.18.24c-4.21,5.46-10.14,5.44-14.29,0l-.18-.24c-4.15-5.49-10.09-5.51-14.29,0l-.19.24c-4.2,5.46-10.13,5.44-14.28,0l-.19-.24c-4.15-5.49-10.08-5.51-14.28,0l-.19.24c-4.2,5.46-10.14,5.44-14.29,0l-.18-.24c-4.15-5.49-10.08-5.51-14.29,0l-.18.24c-4.21,5.46-10.14,5.44-14.29,0l-.18-.24c-4.15-5.49-10.09-5.51-14.29-.05l-.19.24c-4.2,5.46-10.13,5.44-14.28,0"/></g></g></svg>