<svg xmlns="http://www.w3.org/2000/svg" viewBox="0 0 400 400"><defs><clipPath id="a"><circle cx="200" cy="200" r="200" fill="none"/></clipPath><clipPath id="b"><circle cx="200" cy="200" r="200" fill="#fff" clip-path="url(#a)"/></clipPath></defs><circle cx="200" cy="200" r="200" fill="#fff"/><g fill="#ffa600" clip-path="url(#b)"><path d="M200 373 27 286.54V113.46L200 27l173 86.46v173.09l-173 86.46ZM57.07 271.44 200 342.97l142.93-71.53V128.56L200 57.03 57.07 128.56v142.88Z"/><path fill-rule="evenodd" d="M207.37 277.37c12.06.04 24.05-1.6 35.51-4.84 10.92-2.9 21.14-7.53 30.12-13.68v-57.97h-29.52v45.34c-10.53 5.13-22.45 7.7-34.51 7.44-10.91.13-21.68-2.14-31.32-6.57-8.97-4.29-16.42-10.64-21.55-18.35-5.24-7.95-7.93-16.97-7.78-26.13-.2-9.33 2.48-18.54 7.78-26.65 5.03-7.68 12.52-13.94 21.55-18 9.72-4.4 20.56-6.61 31.52-6.4 17.4-.22 34.13 5.79 46.29 16.62l19.55-16.62c-7.88-7.81-17.8-13.87-28.93-17.65-12.21-4.11-25.21-6.17-38.3-6.06-16.18-.18-32.16 3.15-46.49 9.69-41.69 20.25-56.6 66.05-33.3 102.29.26.4.52.8.79 1.19 7.71 11.33 18.9 20.56 32.32 26.65 14.27 6.5 30.17 9.84 46.29 9.69h-.02Z"/></g></svg>