<svg width="25" height="24" viewBox="0 0 25 24" fill="none" xmlns="http://www.w3.org/2000/svg">
<path d="M12.2389 24C18.8713 24 24.2479 18.6274 24.2479 12C24.2479 5.37258 18.8713 0 12.2389 0C5.60656 0 0.22998 5.37258 0.22998 12C0.22998 18.6274 5.60656 24 12.2389 24Z" fill="#FB80D8"/>
<path d="M7.86493 13.3584C7.86493 13.3584 6.60878 15.9153 7.89179 19.1868C9.17481 22.4584 12.5316 22.1478 12.5316 22.1478C12.5316 22.1478 15.1063 22.3024 15.3111 20.3412C15.5158 18.38 15.2602 10.2559 15.2602 10.2559L20.2449 4.13078C20.2449 4.13078 14.6539 2.40032 13.5154 5.80972C12.3493 9.29892 12.8685 10.1449 12.8685 10.1449C12.8685 10.1449 10.4404 10.8596 10.0367 11.2594C9.63298 11.6592 9.37521 8.2904 6.63782 8.11264C3.90043 7.93488 1.49487 10.2704 1.49487 10.2704L7.86493 13.3584Z" fill="white"/>
<path d="M7.04948 13.8677H5.47095V15.445H7.04948V13.8677Z" fill="black"/>
<path d="M8.62883 13.8677H7.05029V15.445H8.62883V13.8677Z" fill="white"/>
<path d="M10.2074 13.8677H8.62891V15.445H10.2074V13.8677Z" fill="black"/>
<path d="M8.62883 15.4451H7.05029V17.0224H8.62883V15.4451Z" fill="black"/>
<path d="M10.2074 15.4451H8.62891V17.0224H10.2074V15.4451Z" fill="black"/>
<path d="M11.7858 13.8677H10.2073V15.445H11.7858V13.8677Z" fill="black"/>
<path d="M13.3644 13.8677H11.7859V15.445H13.3644V13.8677Z" fill="white"/>
<path d="M14.943 13.8677H13.3645V15.445H14.943V13.8677Z" fill="black"/>
<path d="M16.5221 13.8677H14.9436V15.445H16.5221V13.8677Z" fill="black"/>
<path d="M13.3644 15.4451H11.7859V17.0224H13.3644V15.4451Z" fill="black"/>
<path d="M14.943 15.4451H13.3645V17.0224H14.943V15.4451Z" fill="black"/>
</svg>
