<svg xmlns="http://www.w3.org/2000/svg" viewBox="0 0 400 400"><defs><clipPath id="a"><circle cx="200" cy="200" r="200" fill="none"/></clipPath></defs><g clip-path="url(#a)"><path fill="#01b1ac" d="M0 0h400v400H0V0Z"/><path fill="#ddd" d="m101.33 178.22-20.89 20.44c-18.1 17.82-18.33 46.95-.5 65.05.17.17.33.34.5.5 18.22 18 48.22 18 66.44 0l46.44-45.78c3.9-3.12 9.44-3.12 13.33 0l-40-39.33c-18.09-17.58-46.77-17.97-65.33-.89Z"/><path fill="#fff" d="m319.56 198.67-86.22-85.11c-18.5-18.18-48.16-18.18-66.67 0l-65.56 64.22c18.61-17.27 47.54-16.78 65.56 1.11l40 39.56 46.67 45.56c18 18 48 18 66.22 0 18.44-18 18.44-47.56 0-65.56v.22Z"/></g></svg>