<svg xmlns="http://www.w3.org/2000/svg" viewBox="0 0 400 400"><defs><clipPath id="a"><circle cx="200" cy="200" r="200" fill="none"/></clipPath></defs><g clip-path="url(#a)"><path fill="#0070b8" d="M0 0h400v400H0V0Z"/><path fill="#fff" d="M355.58 155.56h-78.89l1.33 2.67v84l-1.33 2.22h35.87l-1.44-2.4v-34.53h35.07l2.96 1.49v-17.4l-3.64 1.07h-34.38v-22.27h42.42l2.04 1.78v-16.62Zm-278.78.11H44.49l2.22 1.98 30.93 52.93v31.64l-2.82 2.22h39.02l-2.73-2.22v-31.67l29.2-52.51 1.96-2.49h-32.31L93.8 189.13l-17-33.47ZM166.73 155.56h30.78c29.56 0 38.64.6 42.13 1.87 4.51 1.62 10 5.64 12.67 9.27 3.44 4.67 4.38 8.89 4.11 18.29-.13 4.91-1.2 11-3.33 14.38a29.4 29.4 0 0 1-14.51 12.18c-3.09.84-12 3.27-26.58 3.67h-12v26.62l1.67 2.62h-35.38l1.82-3.07v-81.93l-1.38-3.89Zm38.45 13.55H200v31.07h7.42c3.76 0 7.96-.22 9.33-.49 3.33-.64 6.91-2.67 8.18-4.67 3.04-4.8 2.76-11.07 1.6-16.56a11.56 11.56 0 0 0-6.18-7.44c-2.6-1.16-8.64-1.93-15.18-1.93v.02Z"/></g></svg>