<svg xmlns="http://www.w3.org/2000/svg" viewBox="0 0 400 400"><defs><linearGradient id="b" x1="81.16" x2="493.39" y1="720.52" y2="246.96" gradientTransform="matrix(1 0 0 -1 0 784)" gradientUnits="userSpaceOnUse"><stop offset="0" stop-color="#1a1e21"/><stop offset="1" stop-color="#06060a"/></linearGradient><clipPath id="a"><circle cx="200" cy="200" r="200" fill="none"/></clipPath></defs><g clip-path="url(#a)"><path fill="url(#b)" d="M0 0h400v400H0V0Z"/><path fill="#fff" d="m149.33 160.89 19.33-13.56 30.67-60V66.66l-50 94.22ZM88.89 287.33l34-71.11-2.89 28.89-15.56 32-15.56 10.22Zm222.22 0-34-71.11 2.89 28.89 15.56 32 15.56 10.22Zm-16.67-8.89H104.89l-14.44 10.44h219.11l-15.11-10.44Zm-62.66-131.11 19.33 13.56-50.22-94.22v20.89l30.89 59.78ZM200 177.78v66.67h14.89v-43.78l12.22 43.78h10.44l14.22-43.78v43.78h14.89v-66.67H245.1l-12.67 35.56-9.56-35.56h-22.89Zm-49.56 0h-17.11l22.22 37.78v28.89h12.89v-28.89l20-37.78h-16.22l-10.67 22.89-11.11-22.89Z"/></g></svg>