<?xml version="1.0" encoding="UTF-8"?>
<svg id="USDM" xmlns="http://www.w3.org/2000/svg" version="1.1" viewBox="0 0 1068.5 1068.7">
  <!-- Generator: Adobe Illustrator 29.5.1, SVG Export Plug-In . SVG Version: 2.1.0 Build 141)  -->
  <defs>
    <style>
      .st0 {
        fill: #345941;
      }

      .st1 {
        fill: #c7ccc8;
      }
    </style>
  </defs>
  <g>
    <path class="st0" d="M844.1,205.6c264.1,248.9,139.3,693.5-214.2,768.6C300,1044.2,12.1,739.2,101.4,413.8,190.4,89.2,597.5-26.9,844.1,205.6ZM435.3,216.1h-134.4v485.6c10.1-4.7,19-12.1,28.7-17.8,19.2-11.4,39.5-21.3,60.5-29.2.7-.3,1.8-2,1.8-2.5v-305.7l102.8,280.8c2.7,3.1,17.8-.4,22.5-.6,13.7-.5,29.3-.5,43,0,4.2.1,11.2,2.1,15,2,3.2-.2,5.6-8.2,6.7-11.1,34.8-89.1,62-182,96.2-271.5.4-1.2,1.1-4,2.5-4v309.2c23,9.9,45.7,20,67.3,32.6,7.7,4.5,15.2,11.6,23.7,13.8V217.6l-1.5-1.5h-133.9l-98.4,290.7-102.4-290.7h0ZM482.8,700.7c-13.6-3.9-26.7-7.3-41-7.4-2.8-1.9,1.1-13.8-2.4-16.5h-23.5v17c-21.6,1.6-44.5,13-49.7,35.8-8.1,36,13.6,56.6,48,59.3l1.7,1.3v34.5c-16.6.9-32.4-3.9-48-9v33c15.6,6.2,31.4,7.7,48,9v14.5c.6,1,1.4,1.3,2.5,1.5,3.2.6,15.5.5,19,0,1.5-.2,2.6-.1,3.5-1.5v-15.5c10.8-1.8,22-4.1,31.3-10.2,27.8-18,26.7-61.9-3.3-77.3-9-4.6-19-5.4-28-9v-34.5c14.5-.8,28.1,4.8,42,8v-33h0ZM656.6,676.7h-24v17c-30,1.7-55.1,22.2-51.8,54.3,2.9,28.3,26.7,38.5,51.8,41.6v35c-16.5.9-32.1-3.6-47.4-9-2.8,1.7-.6,4.6-.5,7.4.2,8.5-.4,17,0,25.4,15.2,7,31.4,7.5,47.8,9.1v14.5l1.5,1.5h22.5v-15.5c2.6-3.2,6.5-2.1,10-2.9,30.1-7.4,46.9-27.2,40.5-59.6-4.2-21.2-29.3-32.5-48.8-34.1l-1.7-1.3v-34.5c14.9-1.3,28.6,5.2,43,8v-33c-7.6-1.7-15-4.4-22.8-5.7-3.6-.6-20.2-.7-20.2-3.8v-14.5h0Z"/>
    <path class="st1" d="M435.3,216.1l102.4,290.7,98.4-290.7h133.9l1.5,1.5v480.1c-8.4-2.2-16-9.3-23.7-13.8-21.6-12.7-44.3-22.8-67.3-32.6v-309.2c-1.4,0-2,2.9-2.5,4-34.1,89.5-61.3,182.4-96.2,271.5-1.2,2.9-3.5,11-6.7,11.1-3.8.2-10.8-1.8-15-2-13.7-.5-29.3-.5-43,0-4.7.2-19.8,3.7-22.5.6l-102.8-280.8v305.7c0,.5-1.1,2.2-1.8,2.5-20.9,7.9-41.2,17.8-60.5,29.2-9.6,5.7-18.6,13.1-28.7,17.8V216.1h134.4,0Z"/>
    <path class="st1" d="M482.8,700.7v33c-13.8-3.2-27.5-8.8-42-8v34.5c9,3.5,19,4.3,28,9,30,15.4,31.1,59.3,3.3,77.3-9.3,6-20.5,8.3-31.3,10.2v15.5c-.9,1.4-2,1.4-3.5,1.5-3.5.4-15.8.5-19,0-1.1-.2-1.9-.5-2.5-1.5v-14.5c-16.6-1.3-32.4-2.8-48-9v-33c15.5,5.1,31.4,9.9,48,9v-34.5l-1.7-1.3c-34.4-2.7-56.1-23.3-48-59.3,5.1-22.8,28-34.2,49.7-35.8v-17h23.5c3.6,2.7-.3,14.6,2.4,16.5,14.3,0,27.4,3.6,41,7.4h0ZM415.9,756.7v-29.5c-1.5-2.2-6.8,0-9,1-7,3-9.8,7.3-9.1,15,.8,8.5,10.8,11.8,18,13.4h0ZM440.8,793.6v30c23.1-1.9,22.8-26.9,0-30Z"/>
    <path class="st1" d="M656.6,676.7v14.5c0,3,16.6,3.2,20.2,3.8,7.8,1.3,15.1,4,22.8,5.7v33c-14.3-2.7-28-9.3-43-8v34.5l1.7,1.3c19.5,1.6,44.6,12.9,48.8,34.1,6.5,32.3-10.4,52.2-40.5,59.6-3.5.9-7.4-.3-10,2.9v15.5h-22.5l-1.5-1.5v-14.5c-16.4-1.7-32.6-2.2-47.8-9.1-.5-8.4.1-16.9,0-25.4,0-2.8-2.3-5.7.5-7.4,15.3,5.4,30.9,9.8,47.4,9v-35c-25.1-3.1-48.9-13.3-51.8-41.6-3.3-32.1,21.9-52.6,51.8-54.3v-17h24,0ZM632.7,726.7c-24.8-.4-24.2,28.2,0,30v-30ZM656.6,795.1v27c0,3.7,10.3-1,11.9-2,7.1-4.8,8.6-15,2-20.9-1.9-1.7-13-7.4-13.9-4h0Z"/>
    <path class="st0" d="M415.9,756.7c-7.2-1.6-17.2-4.9-18-13.4-.7-7.7,2.1-12,9.1-15,2.2-.9,7.5-3.2,9-1v29.5h0Z"/>
    <path class="st0" d="M440.8,793.6c22.8,3,23.1,28,0,30v-30Z"/>
    <path class="st0" d="M632.7,726.7v30c-24.2-1.8-24.8-30.4,0-30Z"/>
    <path class="st0" d="M656.6,795.1c.9-3.3,12,2.4,13.9,4,6.7,5.8,5.1,16.1-2,20.9-1.6,1.1-11.9,5.7-11.9,2v-27h0Z"/>
  </g>
  <path class="st1" d="M890.7,932.7c-130.8,116.8-308.3,161.8-480.3,121.8C162.7,996.8-14.3,762.8.9,507.9c.2-4-.8-10.4,0-13.8.2-.8,1.9-.3,2.1-2.1.8-7.6,0-16.2,1-24.9C24.4,294.9,133.4,140.5,285.7,60.4,345.1,29.2,423.8,4.9,490.9,1c130.2-7.4,253.3,24,359.1,101.3,273.8,200.1,293.4,604.7,40.7,830.3h0ZM840.7,204.1C583.8-32.6,168,98.7,94.1,438.2c-75,344.3,259.9,639.2,592.1,520.2,316-113.1,402.7-525.7,154.5-754.4h0Z"/>
</svg>