<?xml version="1.0" encoding="UTF-8" standalone="no"?>
<!DOCTYPE svg PUBLIC "-//W3C//DTD SVG 1.1//EN" "http://www.w3.org/Graphics/SVG/1.1/DTD/svg11.dtd">
<svg width="100%" height="100%" viewBox="0 0 73 91" version="1.1" xmlns="http://www.w3.org/2000/svg" xmlns:xlink="http://www.w3.org/1999/xlink" xml:space="preserve" xmlns:serif="http://www.serif.com/" style="fill-rule:evenodd;clip-rule:evenodd;stroke-linejoin:round;stroke-miterlimit:2;">
    <g transform="matrix(1,0,0,1,-1.292,-222.226)">
        <g transform="matrix(1,0,0,1.28213,0,-87.9332)">
            <path d="M26.346,311.674C33.853,312.709 41.321,312.671 48.754,311.674L37.55,298.704L26.346,311.674Z" style="fill:rgb(20,95,161);fill-rule:nonzero;"/>
        </g>
        <g transform="matrix(1,0,0,1.28213,0,-87.9332)">
            <path d="M58.011,283.838L73.809,277.19L58.011,270.542L58.011,283.838Z" style="fill:rgb(20,98,161);fill-rule:nonzero;"/>
        </g>
        <g transform="matrix(1,0,0,1.28213,0,-87.9332)">
            <path d="M17.09,270.542L1.292,277.19L17.09,283.838L17.09,270.542Z" style="fill:rgb(87,177,255);fill-rule:nonzero;"/>
        </g>
        <g transform="matrix(1,0,0,1.28213,0,-87.9332)">
            <path d="M48.754,242.707C41.587,241.626 34.109,241.66 26.346,242.707L37.55,255.677L48.754,242.707Z" style="fill:rgb(202,230,255);fill-rule:nonzero;"/>
        </g>
        <g transform="matrix(1,0,0,1.28213,0,-87.9332)">
            <path d="M26.346,242.707C18.791,246.232 12.667,250.576 8.217,255.878L24.905,259.786L26.346,242.707Z" style="fill:rgb(202,230,255);fill-rule:nonzero;"/>
        </g>
        <g transform="matrix(1,0,0,1.28213,0,-87.9332)">
            <path d="M37.55,255.677L26.346,242.707L24.905,259.786L37.55,255.677Z" style="fill:rgb(143,203,255);fill-rule:nonzero;"/>
        </g>
        <g transform="matrix(1,0,0,1.28213,0,-87.9332)">
            <path d="M8.217,255.878C4.496,263.168 2.366,270.248 1.292,277.19L17.09,270.542L8.217,255.878Z" style="fill:rgb(171,216,255);fill-rule:nonzero;"/>
        </g>
        <g transform="matrix(1,0,0,1.28213,0,-87.9332)">
            <path d="M24.905,259.786L8.217,255.878L17.09,270.542L24.905,259.786Z" style="fill:rgb(87,177,255);fill-rule:nonzero;"/>
        </g>
        <g transform="matrix(1,0,0,1.28213,0,-87.9332)">
            <path d="M73.809,277.19C72.817,270.2 70.537,263.098 66.884,255.878L58.011,270.542L73.809,277.19Z" style="fill:rgb(31,141,237);fill-rule:nonzero;"/>
        </g>
        <g transform="matrix(1,0,0,1.28213,0,-87.9332)">
            <path d="M58.011,270.542L66.884,255.878L50.195,259.786L58.011,270.542Z" style="fill:rgb(26,118,198);fill-rule:nonzero;"/>
        </g>
        <g transform="matrix(1,0,0,1.28213,0,-87.9332)">
            <path d="M66.884,255.878C62.177,250.761 56.066,246.407 48.754,242.707L50.195,259.786L66.884,255.878Z" style="fill:rgb(87,177,255);fill-rule:nonzero;"/>
        </g>
        <g transform="matrix(1,0,0,1.28213,0,-87.9332)">
            <path d="M48.754,311.674C55.567,308.042 61.778,303.817 66.884,298.503L50.195,294.595L48.754,311.674Z" style="fill:rgb(20,95,161);fill-rule:nonzero;"/>
        </g>
        <g transform="matrix(1,0,0,1.28213,0,-87.9332)">
            <path d="M37.55,298.704L48.754,311.674L50.195,294.595L37.55,298.704Z" style="fill:rgb(31,141,237);fill-rule:nonzero;"/>
        </g>
        <g transform="matrix(1,0,0,1.28213,0,-87.9332)">
            <path d="M8.217,298.503C13.1,303.87 19.118,308.282 26.346,311.674L24.905,294.595L8.217,298.503Z" style="fill:rgb(31,141,237);fill-rule:nonzero;"/>
        </g>
        <g transform="matrix(1,0,0,1.28213,0,-87.9332)">
            <path d="M24.905,294.595L26.346,311.674L37.55,298.704L24.905,294.595Z" style="fill:rgb(26,118,198);fill-rule:nonzero;"/>
        </g>
        <g transform="matrix(1,0,0,1.28213,0,-87.9332)">
            <path d="M58.011,283.838L66.884,298.503C69.9,291.689 72.208,284.585 73.809,277.19L58.011,283.838Z" style="fill:rgb(31,141,237);fill-rule:nonzero;"/>
        </g>
        <g transform="matrix(1,0,0,1.28213,0,-87.9332)">
            <path d="M50.195,294.595L66.884,298.503L58.011,283.838L50.195,294.595Z" style="fill:rgb(26,118,198);fill-rule:nonzero;"/>
        </g>
        <g transform="matrix(1,0,0,1.28213,0,-87.9332)">
            <path d="M1.292,277.19C2.307,284.861 4.553,291.993 8.217,298.503L17.09,283.838L1.292,277.19Z" style="fill:rgb(31,141,237);fill-rule:nonzero;"/>
        </g>
        <g transform="matrix(1,0,0,1.28213,0,-87.9332)">
            <path d="M17.09,283.838L8.217,298.503L24.905,294.595L17.09,283.838Z" style="fill:rgb(20,95,161);fill-rule:nonzero;"/>
        </g>
        <g transform="matrix(1,0,0,1.28213,0,-87.9332)">
            <path d="M41.495,265.051L37.55,255.678L33.606,265.051L41.495,265.051Z" style="fill:rgb(87,177,255);fill-rule:nonzero;"/>
        </g>
        <g transform="matrix(1,0,0,1.28213,0,-87.9332)">
            <path d="M50.195,259.786L48.754,242.707L37.55,255.677L50.195,259.786Z" style="fill:rgb(171,216,255);fill-rule:nonzero;"/>
        </g>
        <g transform="matrix(1,0,0,1.28213,0,-87.9332)">
            <path d="M37.55,298.704L50.195,294.595L41.495,289.33L37.55,298.704Z" style="fill:rgb(26,118,198);fill-rule:nonzero;"/>
        </g>
        <g transform="matrix(1,0,0,1.28213,0,-87.9332)">
            <path d="M50.315,277.19L58.01,270.543L47.877,269.687L50.315,277.19Z" style="fill:rgb(26,118,198);fill-rule:nonzero;"/>
        </g>
        <g transform="matrix(1,0,0,1.28213,0,-87.9332)">
            <path d="M24.786,277.19L17.09,283.838L27.224,284.693L24.786,277.19Z" style="fill:rgb(87,177,255);fill-rule:nonzero;"/>
        </g>
        <g transform="matrix(1,0,0,1.28213,0,-87.9332)">
            <path d="M37.55,255.678L24.905,259.786L33.606,265.051L37.55,255.678Z" style="fill:rgb(171,216,255);fill-rule:nonzero;"/>
        </g>
        <g transform="matrix(1,0,0,1.28213,0,-87.9332)">
            <path d="M49.499,274.679L47.877,269.687L41.495,265.051L33.606,265.051L27.224,269.687L24.786,277.19L25.886,280.577C34.076,282.919 43.684,280.807 49.499,274.679Z" style="fill:rgb(202,230,255);fill-rule:nonzero;"/>
        </g>
        <g transform="matrix(1,0,0,1.28213,0,-87.9332)">
            <path d="M25.886,280.577L27.224,284.693L33.606,289.33L41.495,289.33L47.877,284.693L50.315,277.19L49.499,274.679C43.684,280.807 34.076,282.919 25.886,280.577Z" style="fill:rgb(181,220,255);fill-rule:nonzero;"/>
        </g>
        <g transform="matrix(1,0,0,1.28213,0,-87.9332)">
            <path d="M24.905,259.786L17.09,270.543L27.224,269.687L24.905,259.786Z" style="fill:rgb(171,216,255);fill-rule:nonzero;"/>
        </g>
        <g transform="matrix(1,0,0,1.28213,0,-87.9332)">
            <path d="M33.606,265.051L24.905,259.786L27.224,269.687L33.606,265.051Z" style="fill:rgb(87,177,255);fill-rule:nonzero;"/>
        </g>
        <g transform="matrix(1,0,0,1.28213,0,-87.9332)">
            <path d="M17.09,270.543L17.09,283.838L24.786,277.19L17.09,270.543Z" style="fill:rgb(171,216,255);fill-rule:nonzero;"/>
        </g>
        <g transform="matrix(1,0,0,1.28213,0,-87.9332)">
            <path d="M27.224,269.687L17.09,270.543L24.786,277.19L27.224,269.687Z" style="fill:rgb(87,177,255);fill-rule:nonzero;"/>
        </g>
        <g transform="matrix(1,0,0,1.28213,0,-87.9332)">
            <path d="M47.877,269.687L58.01,270.543L50.195,259.786L47.877,269.687Z" style="fill:rgb(87,179,255);fill-rule:nonzero;"/>
        </g>
        <g transform="matrix(1,0,0,1.28213,0,-87.9332)">
            <path d="M47.877,269.687L50.195,259.786L41.495,265.051L47.877,269.687Z" style="fill:rgb(87,177,255);fill-rule:nonzero;"/>
        </g>
        <g transform="matrix(1,0,0,1.28213,0,-87.9332)">
            <path d="M50.195,259.786L37.55,255.678L41.495,265.051L50.195,259.786Z" style="fill:rgb(202,230,255);fill-rule:nonzero;"/>
        </g>
        <g transform="matrix(1,0,0,1.28213,0,-87.9332)">
            <path d="M50.195,294.595L58.01,283.838L47.877,284.693L50.195,294.595Z" style="fill:rgb(31,141,237);fill-rule:nonzero;"/>
        </g>
        <g transform="matrix(1,0,0,1.28213,0,-87.9332)">
            <path d="M41.495,289.33L50.195,294.595L47.877,284.693L41.495,289.33Z" style="fill:rgb(20,95,161);fill-rule:nonzero;"/>
        </g>
        <g transform="matrix(1,0,0,1.28213,0,-87.9332)">
            <path d="M24.905,294.595L37.55,298.704L33.606,289.33L24.905,294.595Z" style="fill:rgb(31,141,237);fill-rule:nonzero;"/>
        </g>
        <g transform="matrix(1,0,0,1.28213,0,-87.9332)">
            <path d="M33.606,289.33L37.55,298.704L41.495,289.33L33.606,289.33Z" style="fill:rgb(20,95,161);fill-rule:nonzero;"/>
        </g>
        <g transform="matrix(1,0,0,1.28213,0,-87.9332)">
            <path d="M58.01,283.838L58.01,270.543L50.315,277.19L58.01,283.838Z" style="fill:rgb(31,141,237);fill-rule:nonzero;"/>
        </g>
        <g transform="matrix(1,0,0,1.28213,0,-87.9332)">
            <path d="M47.877,284.693L58.01,283.838L50.315,277.19L47.877,284.693Z" style="fill:rgb(20,95,161);fill-rule:nonzero;"/>
        </g>
        <g transform="matrix(1,0,0,1.28213,0,-87.9332)">
            <path d="M17.09,283.838L24.905,294.595L27.224,284.693L17.09,283.838Z" style="fill:rgb(31,141,237);fill-rule:nonzero;"/>
        </g>
        <g transform="matrix(1,0,0,1.28213,0,-87.9332)">
            <path d="M27.224,284.693L24.905,294.595L33.606,289.33L27.224,284.693Z" style="fill:rgb(26,118,198);fill-rule:nonzero;"/>
        </g>
    </g>
</svg>
