<svg xmlns="http://www.w3.org/2000/svg" viewBox="0 0 48 48">
  <defs>
    <linearGradient id="a" x1=".154" x2=".868" y1=".166" y2=".819" gradientUnits="objectBoundingBox">
      <stop offset="0" stop-color="#507ce7"/>
      <stop offset="1" stop-color="#54c6e5"/>
    </linearGradient>
  </defs>
  <g transform="translate(-575 -2812)">
    <circle cx="24" cy="24" r="24" fill="url(#a)" transform="translate(575 2812)"/>
    <path fill="#fff" d="M605.6 2839.8c0-3.5-2.1-4.7-6.3-5.2-3-.4-3.6-1.2-3.6-2.6s1-2.3 3-2.3c1.8 0 2.8.6 3.3 2.1a.75.75 0 0 0 .7.5h1.6a.684.684 0 0 0 .7-.7v-.1a5 5 0 0 0-4.5-4.1v-2.4c0-.4-.3-.7-.8-.8h-1.5c-.4 0-.7.3-.8.8v2.3c-3 .4-4.9 2.4-4.9 4.9 0 3.3 2 4.6 6.2 5.1 2.8.5 3.7 1.1 3.7 2.7s-1.4 2.7-3.3 2.7c-2.6 0-3.5-1.1-3.8-2.6a.73.73 0 0 0-.7-.6h-1.7a.684.684 0 0 0-.7.7v.1c.4 2.5 2 4.3 5.3 4.8v2.4c0 .4.3.7.8.8h1.5c.4 0 .7-.3.8-.8v-2.4c3-.5 5-2.6 5-5.3"/>
    <path fill="#fff" d="M593.9 2850.3a14.964 14.964 0 0 1 0-28.1 1 1 0 0 0 .6-1v-1.4a.76.76 0 0 0-.6-.8.6.6 0 0 0-.4.1 18 18 0 0 0 0 34.3.608.608 0 0 0 .9-.4c.1-.1.1-.2.1-.4v-1.4a1.33 1.33 0 0 0-.6-.9m10.6-31.2a.608.608 0 0 0-.9.4c-.1.1-.1.2-.1.4v1.4a1.33 1.33 0 0 0 .6 1 14.964 14.964 0 0 1 0 28.1 1 1 0 0 0-.6 1v1.4a.76.76 0 0 0 .6.8.6.6 0 0 0 .4-.1 18.072 18.072 0 0 0 0-34.4"/>
  </g>
</svg>
