<svg width="25" height="25" viewBox="0 0 25 25" fill="none" xmlns="http://www.w3.org/2000/svg">
<path d="M13.6933 24.9915C13.0377 25.0749 12.4992 24.5301 12.4992 23.8692V23.5534C12.4992 22.8924 11.9627 22.3609 11.3033 22.3162C5.75902 21.9406 0.677342 18.9526 0.00846043 13.6941C-0.0749403 13.0385 0.469864 12.5 1.13081 12.5H1.4452C2.10615 12.5 2.63766 11.9635 2.68235 11.3041C3.05801 5.75999 6.04619 0.677421 11.3051 0.00846113C11.9608 -0.0749432 12.4992 0.469861 12.4992 1.13081V1.44667C12.4992 2.10762 13.0357 2.63913 13.6951 2.6838C19.2396 3.05942 24.3225 6.04733 24.9915 11.3059C25.075 11.9615 24.5301 12.5 23.8692 12.5H23.5549C22.8939 12.5 22.3624 13.0365 22.3177 13.6959C21.9419 19.24 18.9524 24.3226 13.6933 24.9915Z" fill="#0101FF"/>
<path d="M11.5351 21.4072C12.0639 21.484 12.5006 21.0425 12.5006 20.5081C12.5006 19.9736 12.9346 19.5444 13.4675 19.5034C17.3441 19.2057 20.8774 17.1161 21.4073 13.465C21.484 12.9364 21.0427 12.5 20.5086 12.5C19.9745 12.5 19.5454 12.0662 19.5045 11.5336C19.2069 7.65704 17.1173 4.12305 13.4661 3.5928C12.9372 3.516 12.5006 3.95755 12.5006 4.49196C12.5006 5.02636 12.0665 5.45565 11.5337 5.49657C7.65686 5.79436 4.12276 7.88388 3.59274 11.5351C3.51601 12.0636 3.95731 12.5 4.49141 12.5C5.02552 12.5 5.45456 12.9338 5.49547 13.4663C5.79326 17.3429 7.88368 20.877 11.5351 21.4072Z" fill="white"/>
</svg>
