<?xml version="1.0" encoding="utf-8"?>
<!-- Generator: Adobe Illustrator 27.8.0, SVG Export Plug-In . SVG Version: 6.00 Build 0)  -->
<svg version="1.1" id="Layer_1" xmlns="http://www.w3.org/2000/svg" xmlns:xlink="http://www.w3.org/1999/xlink" x="0px" y="0px"
	 viewBox="0 0 1080.5 1080.5" enable-background="new 0 0 1080.5 1080.5" xml:space="preserve">
<circle cx="540.2" cy="538.6" r="540.2"/>
<path fill="#FFFFFF" d="M886.2,624.5l-111-192.2L664.2,240c-55.1-95.5-192.9-95.5-248,0l-111,192.2l-111,192.2
	c-55.1,95.5,13.8,214.8,124,214.8h444C872.5,839.2,941.4,719.9,886.2,624.5L886.2,624.5z M750.9,776.6h-24.1
	c-85.7,0-155.1-69.4-155.1-155.1v-27.9c0-8.3,3.3-16.3,9.2-22.1l73-73c12.2-12.2,12.2-32,0-44.3l0,0c-12.2-12.2-32-12.2-44.3,0
	l-47.2,47.2c-12.2,12.2-32,12.2-44.3,0l-47.2-47.2c-12.2-12.2-32-12.2-44.3,0l0,0c-12.2,12.2-12.2,32.1,0,44.3l73.2,73
	c5.9,5.9,9.2,13.8,9.2,22.2v27.8c0,85.7-69.4,155.1-155.1,155.1h-24.4c-67.8,0-110.2-73.4-76.3-132.2L358.6,462L464,279.5
	c33.9-58.7,118.7-58.7,152.6,0L721.9,462l105.3,182.5C861.2,703.2,818.8,776.6,750.9,776.6L750.9,776.6z"/>
</svg>
