<svg xmlns="http://www.w3.org/2000/svg" viewBox="0 0 400 400"><defs><linearGradient id="b" x1="103.11" x2="296.89" y1="585" y2="585" gradientTransform="matrix(1 0 0 -1 0 784)" gradientUnits="userSpaceOnUse"><stop offset="0" stop-color="#4047ff"/><stop offset="1" stop-color="#04006c"/></linearGradient><clipPath id="a"><circle cx="200" cy="200" r="200" fill="none"/></clipPath></defs><g clip-path="url(#a)"><path fill="#030167" d="M0 0h400v400H0V0Z"/><path fill="url(#b)" d="M297.11 161.33c-1.56 10.44-6.22 44.44-30.44 78A185.504 185.504 0 0 1 200 295.77c-9.78-5.11-42.22-21.78-66.67-56.44a171.07 171.07 0 0 1-30.22-78l14.67-8.22V142l14.44-8.67v-11.11c20-10 42.22-16.44 67.78-20 23.55 2.85 46.45 9.61 67.78 20v11.11l14.44 8.22v11.33l14.89 8.22v.22Z"/><path fill="#ffc200" d="M295.56 145.11V134l-14.67-8.44v-11.78l-7.33-3.56c-21.33-10.44-44.67-17.33-71.78-21.11l-1.78-.22h-1.78c-26.89 4-50.44 11.11-71.56 21.56l-7.33 3.56v11.78l-14.67 8v11.33l-15.78 8.89 1.33 9.11c4.22 31.33 15.11 59.78 32.67 84.44A197.389 197.389 0 0 0 193.99 308l6 3.11 5.78-3.11a197.315 197.315 0 0 0 71.11-60.67 185.823 185.823 0 0 0 32.89-84.22l1.33-9.33-15.56-8.67Zm1.55 16.22c-1.56 10.44-6.22 44.44-30.44 78A185.504 185.504 0 0 1 200 295.77c-9.78-5.11-42.22-21.78-66.67-56.44a171.07 171.07 0 0 1-30.22-78l14.67-8.22V142l14.44-8.67v-11.11c20-10 42.22-16.44 67.78-20 23.55 2.85 46.45 9.61 67.78 20v11.11l14.44 8.22v11.33l14.89 8.22v.22Z"/><path fill="#ffc200" d="M177.78 129.11v92.44a297.78 297.78 0 0 1-17.33-86c-4.44 2.22-9.56 4.67-14.67 8 2.22 27.78 6.67 52.22 14.89 75.56l-4.67 2.67A177.764 177.764 0 0 1 130 156c-4 3.56-7.56 7.56-11.56 12 7.33 31.11 18.89 54.67 35.56 73.78l12.89-8c6.22 13.78 15.11 27.11 24.89 37.78V126.67c-4.89.67-8.89 1.56-14 2.67v-.22Zm84.44 48.22c4.13-4.11 6.38-9.73 6.22-15.56 0-7.56-6-14.22-14.89-20a93.728 93.728 0 0 0-46.22-14.44v145.33c29.56-15.56 64.44-58.67 64.67-80.67.44-6.67-2.89-11.11-10-14.67h.22Zm-40-32.66c7.11 0 30.67 7.56 30.67 17.33 0 3.56-2.89 8.67-12.22 13.78L222.23 186v-41.56.22Zm18.22 80.44c-4.44 5.11-11.11 12.67-18.22 18.44v-41.33L249.78 186c7.78 2.22 7.56 8.22 7.56 8.67 0 7.56-7.56 19.56-16.89 30.67v-.22Z"/></g></svg>