<svg xmlns="http://www.w3.org/2000/svg" viewBox="0 0 400 400"><path fill="#487ce5" d="M200 400c110.5 0 200-89.5 200-200S310.5 0 200 0 0 89.5 0 200s89.5 200 200 200Z"/><path fill="#fff" d="M301.5 99H174.8c-14.2 0-24.7 2.9-31.5 8.6-6.8 5.8-11.4 14.6-13.8 26.7l-10.4 49.8c-.8 2.9-1.2 5.8-1.2 8.8-.1 2.8.4 5.5 1.4 8 1.1 2.5 2.7 4.8 4.8 6.6 4.1 3.6 10.9 5.4 20.2 5.4h82.3c5.6 0 8.4 2.2 8.4 6.4 0 1.4-.1 2.7-.4 4l-5.6 26.9c-.5 3.6-2.2 6.9-4.8 9.4-2.1 1.8-6 2.6-11.6 2.6H106.3c-1.2 0-2.3.4-3.2 1.1-.9.7-1.5 1.7-1.8 2.9L95 295.9c-.2.7-.1 1.5 0 2.2.2.7.5 1.4 1 2 .5.6 1.1 1 1.7 1.4s1.4.5 2.2.5h128.7c13.9 0 24.2-2.9 30.9-8.6 6.7-5.7 11.4-14.7 14.1-26.7l12-57c.3-1.3.5-2.7.6-4 .1-1.3.2-2.7.2-4 .1-2.8-.4-5.5-1.4-8.1-1-2.6-2.6-4.9-4.6-6.8-4-3.8-10.7-5.6-20-5.6h-82.3c-2.6.2-5.3-.2-7.6-1.4-.7-.5-1.2-1.2-1.6-2.1-.3-.8-.5-1.7-.4-2.6 0-.7 0-1.5.2-2.2.1-.6.3-1.5.6-2.5l5.2-23.7c.4-3.4 1.9-6.6 4.4-9 3-1.9 6.5-2.8 10-2.5h107c1.2 0 2.3-.4 3.2-1.1.9-.7 1.5-1.7 1.8-2.9l5.5-26.1c.2-.7.2-1.5 0-2.3-.2-.7-.5-1.5-1-2.1-.5-.6-1.1-1.1-1.8-1.4-.7-.3-1.4-.5-2.2-.5ZM269.5 12.4C258.4 8.3 246.9 5.1 235 3l-15.4 71.3c-.2.7-.1 1.5 0 2.2.2.7.5 1.4 1 2 .5.6 1.1 1 1.7 1.4.7.3 1.4.5 2.2.5h26.6c1.2 0 2.3-.4 3.2-1.1.9-.7 1.5-1.7 1.8-2.9l13.5-64.1ZM187.9 399.7l15.6-73.2c.2-.7.1-1.5 0-2.2-.2-.7-.5-1.4-1-2-.5-.6-1.1-1-1.7-1.4-.7-.3-1.4-.5-2.2-.5h-26.2c-1.2 0-2.3.4-3.2 1.1-.9.7-1.5 1.7-1.8 2.9l-15.1 69.9c11.5 2.8 23.4 4.6 35.6 5.4Z"/></svg>