<svg xmlns="http://www.w3.org/2000/svg" viewBox="0 0 199.21 199.21"><defs><style>.cls-1{fill:#0027a5;}.cls-2{fill:#f9198b;}</style></defs><g id="Layer_2" data-name="Layer 2"><g id="Layer_4" data-name="Layer 4"><circle class="cls-1" cx="99.61" cy="99.61" r="99.61"/><path class="cls-2" d="M53.1,127.8a42.61,42.61,0,0,1-25.63-8.28c-2.39-1.81-3.59-3.35-3.87-5s.42-3.49,1.1-5.07c7.93-18.51,23-29.56,40.17-29.56,1,0,2.06,0,3.1.11,4.88.37,21.33,2.45,27.89,13.85,1.63,2.84,1.47,5.79-.52,9C88.19,114.44,77.05,123,64.76,126.28A45.17,45.17,0,0,1,53.1,127.8Z"/><path class="cls-2" d="M102.29,80.23c-.29,0-.6,0-.91,0-8.74-.85-16.79-4.69-24.57-8.41l-1.76-.84c-7.17-3.41-13.93-7.54-14.78-14.63C59.78,52.26,58,31.82,70.44,27.89a17.29,17.29,0,0,1,5.22-.77c8.34,0,17.11,5,22.54,9.64,8,6.86,13.07,15.89,13.92,24.78.43,4.43-.37,10.73-3.1,14.82a7.83,7.83,0,0,1-6.73,3.87Z"/><path class="cls-2" d="M124.81,80.23c-.46,0-.91,0-1.36,0-3.34-.19-3.8-1.35-4-1.78-.57-1.4-.09-3.85.42-6.45L122,61.12c1.48-7.61,3.43-14.71,11.05-18.09a38.89,38.89,0,0,1,11.21-3.11,11.93,11.93,0,0,1,1.32-.07,11.06,11.06,0,0,1,9.58,5.61c3.56,5.69,4,14.52,1.12,20.53-1.66,3.41-5.49,5.33-9.19,7.18l-1.88,1C137.47,78.18,130.61,80.23,124.81,80.23Z"/><path class="cls-2" d="M156.55,130.31c-11.23,0-19.14-10.19-25.4-20.17-.24-.37-.57-.88-1-1.49-7.67-11.58-7.83-15.22-6.61-16.23.91-.76,3.2-1,5.05-1.15l1.13-.11a61.25,61.25,0,0,1,6.31-.32,96.2,96.2,0,0,1,20,2.41c4.39.93,9.31,2.48,12.59,6.89,4.14,5.57,7.88,13.55,6.9,18.79a9.57,9.57,0,0,1-3.4,5.31,27.82,27.82,0,0,1-7.8,4.55A22,22,0,0,1,156.55,130.31Z"/><path class="cls-2" d="M101.92,172.09c-3.34,0-6.25-2.52-8.11-4.62-5.89-6.7-9.77-18.76-9-24.28,1.18-9.14,6.5-17.29,11.65-25.18.93-1.43,1.85-2.85,2.74-4.26.35-.54.69-1.09,1-1.65,2-3.23,3.88-6.29,6.81-8.4a6.09,6.09,0,0,1,3.54-1.28,5.12,5.12,0,0,1,3,1c8.4,5.89,13.39,20.49,15.15,26.5,3.62,12.42.2,21.83-11.82,32.5l-1.37,1.23c-3.28,3-7.36,6.64-11.07,8a7.17,7.17,0,0,1-2.47.45Z"/></g></g></svg>