<svg xmlns="http://www.w3.org/2000/svg" viewBox="0 0 400 400"><defs><clipPath id="a"><circle cx="200" cy="200" r="200" fill="none"/></clipPath></defs><g clip-path="url(#a)"><path fill="#0052ff" d="M0 0h400v400H0V0Z"/><path fill="#fff" d="M309.33 177.78h-58c-12.02-28.23-44.65-41.37-72.88-29.34-20.64 8.79-33.97 29.13-33.78 51.57-.25 30.68 24.42 55.76 55.1 56.01 22.43.18 42.78-13.14 51.57-33.78h58c-12.27 60.25-71.06 99.14-131.32 86.87-60.25-12.27-99.14-71.06-86.87-131.32 12.27-60.25 71.06-99.14 131.32-86.87 43.76 8.91 77.96 43.11 86.87 86.87Z"/></g></svg>