<svg xmlns="http://www.w3.org/2000/svg" viewBox="0 0 400 400"><defs><linearGradient id="b" x1="81.16" x2="493.5" y1="720.49" y2="246.89" gradientTransform="matrix(1 0 0 -1 0 784)" gradientUnits="userSpaceOnUse"><stop offset="0" stop-color="#1a1e21"/><stop offset="1" stop-color="#06060a"/></linearGradient><clipPath id="a"><circle cx="200" cy="200" r="200" fill="none"/></clipPath></defs><g clip-path="url(#a)"><path fill="url(#b)" d="M0 0h400v400H0V0Z"/><path fill="#fff" d="M200 190.13h-44.44v-31.24c0-6.56-.36-20.44-11.44-20.44-10.07 0-10.78 11.84-10.78 17.96v89.33c0 6.18.87 17.62 10.78 17.62 10.73 0 11.44-12.13 11.44-18.93v-14.8h-6.07v-29.62H200v88.89h-22.73l-4.16-13.18c-6 8-18.04 13.18-32.89 13.18-22.6 0-46.04-10.93-49.84-31.89-1-5.56-1.49-13.82-1.49-24.89v-59.93c0-36.44 11.96-61.07 55.22-61.07S200 130.36 200 166.54v23.6Z"/><path fill="#ff4d44" d="M311.11 170.38h-44.44v-16.47c0-5.69-2.89-12.78-11.09-12.78-6.36 0-11.13 3.93-11.13 12.29 0 11.78 6.49 20.38 17.84 25.69 31.96 15 48.82 29.56 48.82 63.62 0 31.53-22.69 46.16-54.18 46.16-41.87 0-56.93-22.53-56.93-59.27h44.44v15.89c0 6.6 2.22 14.11 11.51 14.11 7.04 0 10.71-4.31 10.71-12.93 0-9.47-2.93-15.64-6.22-18.56-3.33-2.91-9.33-11.76-22.47-18.56-23.8-12.47-37.98-22.29-37.98-50.11 0-33.16 19.67-48.36 52.36-48.36 39.22 0 58.76 14.31 58.76 48.36v10.91Z"/></g></svg>