<?xml version="1.0" encoding="UTF-8"?>
<svg xmlns="http://www.w3.org/2000/svg" viewBox="0 0 1969.58 1972.56">
  <defs>
    <style>
      .cls-1 {
        fill: none;
        stroke: #fff;
        stroke-miterlimit: 10;
        stroke-width: 30px;
      }

      .cls-2 {
        fill: #fff;
      }

      .cls-2, .cls-3 {
        stroke-width: 0px;
      }

      .cls-3 {
        fill: #141212;
      }
    </style>
  </defs>
  <g id="Ebene_2" data-name="Ebene 2">
    <ellipse class="cls-2" cx="1017.62" cy="969.87" rx="878.87" ry="896.77"/>
  </g>
  <g id="Ebene_1" data-name="Ebene 1">
    <g>
      <path class="cls-3" d="M945.14,15.09c-3.21.19-13.73.78-23.38,1.36-166.27,9.94-330.49,64.48-471.43,156.62C247.44,305.64,100.65,511.56,41.43,746.49c-15,59.22-23.28,112.11-28.15,178.25-1.56,21.72-1.56,98.09,0,119.81,4.87,66.14,13.15,119.03,28.15,178.25,24.25,96.43,64.48,190.72,117.37,275.55,80.36,128.86,191.79,238.64,321.72,316.85,46.07,27.76,97.5,53.08,147.57,72.66,81.92,32.14,169.77,53.28,257.14,61.95,37.6,3.7,52.6,4.38,96.43,4.38s58.83-.68,96.43-4.38c154.38-15.29,304.29-68.18,434.91-153.61,202.89-132.57,349.68-338.48,408.9-573.41,15-59.22,23.28-112.11,28.15-178.25,1.56-21.72,1.56-98.09,0-119.81-4.87-66.14-13.15-119.03-28.15-178.25-24.25-96.43-64.48-190.72-117.37-275.55-73.93-118.64-174.64-221.5-291.53-297.86-77.53-50.65-163.44-90.68-251.11-117.08-71.01-21.33-140.36-33.9-218.38-39.55-14.32-1.07-86.88-2.05-98.38-1.36ZM532.15,376.16c57.47,58.15,81.62,76.36,118.35,89.32,25.71,9.16,34.29,10.23,90.1,11.3l35.07.68,19.87-6.53c51.53-16.85,97.11-24.74,156.82-26.98,80.84-3.02,148.64,5.65,214.97,27.47l17.53,5.75h16.07c24.94-.1,67.79-1.75,77.44-3.02,16.56-2.14,47.53-13.25,64.48-23.18,20.65-12.08,62.83-49.09,93.22-81.92,8.67-9.35,18.02-18.9,20.75-21.23q4.97-4.09,12.86-4.09h7.99l16.75,8.38c31.07,15.68,51.62,31.07,69.06,51.82,19.77,23.57,30.78,45.49,39.64,78.99,3.31,12.37,5.84,34.09,5.84,49.58,0,44.81-18.41,121.66-39.25,163.35-10.32,20.84-23.86,38.77-48.6,64.29l-5.65,5.94,15,29.61c26.49,52.21,40.91,86.3,53.08,125.16,1.75,5.36,3.8,11.88,4.68,14.61.78,2.63,1.85,6.14,2.24,7.79.39,1.56,1.75,6.43,2.92,10.71,2.24,8.28,7.89,30.78,10.23,41.4.88,3.51,2.63,10.71,4.09,16.07,1.75,6.62,2.63,13.15,2.92,20.16.58,13.64,1.56,13.05-22.6,13.73-18.41.58-33.31-.1-47.24-2.14-26.88-3.99-58.54-7.31-61.56-6.62-2.44.68-2.44.88-3.02,13.93-.39,7.4-.68,19.09-.68,26.1,0,12.76-2.14,37.5-3.99,44.9-.49,2.14-1.36,6.53-2.05,9.74-.97,5.26-.88,5.84.68,6.82,22.01,12.66,50.84,41.3,57.76,57.27,1.46,3.51,1.46,8.67,0,11.88-1.36,3.12-7.31,6.33-11.69,6.33-1.75,0-4.09.68-5.06,1.46-1.07.78-3.7,1.46-5.84,1.46s-4.87.68-5.84,1.46c-1.07.78-3.21,1.46-4.68,1.46-1.56,0-4.38.68-6.33,1.46-1.85.78-4.58,1.46-6.04,1.46-1.36.1-3.6.68-4.97,1.46-3.21,1.85-16.75,1.85-21.92,0-2.14-.78-6.82-1.46-10.32-1.46s-8.08-.68-9.94-1.46c-1.95-.78-6.43-1.46-10.03-1.46s-9.06-.68-12.37-1.56c-4.97-1.27-11.4-1.46-41.98-1.07-36.53.39-44.42,1.07-44.42,4.09,0,.78,1.27,1.56,2.92,1.95,1.56.39,3.12,1.07,3.41,1.56.39.49,1.36.88,2.24.88,3.6,0,36.33,16.66,51.04,26.01,17.14,10.81,39.74,29.32,52.21,42.66,15.58,16.66,32.92,41.79,42.66,61.56,3.8,7.79,4.77,10.81,5.26,16.66.39,4.68.1,8.08-.68,10.03-1.17,2.82-1.27,2.82-9.16,2.82s-8.08-.1-22.21-7.01c-79.48-38.86-97.99-47.05-135.88-59.81-8.57-2.92-15.78-5.06-15.97-4.77-1.17,1.07,1.27,3.7,6.33,7.01,42.18,26.79,81.04,73.64,102.86,123.99,8.18,18.8,17.63,43.83,20.75,55.03.88,3.21,2.24,7.79,3.02,10.23.68,2.44,1.56,8.38,1.95,13.25.49,8.18.39,9.06-1.56,11.01-1.56,1.56-3.21,2.05-7.21,2.05-4.68,0-5.94-.49-13.44-5.65-8.86-6.14-36.53-26.59-75.97-56.3-13.73-10.32-29.9-22.01-36.04-26.01-12.76-8.38-28.73-17.24-30.97-17.24-1.75.1-9.06,6.62-11.2,10.03-1.07,1.75-1.17,5.55-.39,21.14.97,21.23.19,74.22-1.27,86.2-1.36,11.79-6.04,30.68-8.57,35.26-.58.97-2.63,5.65-4.58,10.52-10.81,27.08-26.88,51.62-51.43,78.6-28.83,31.75-53.67,53.08-87.47,75.2-25.62,16.66-27.37,17.53-36.14,18.02-6.72.29-7.89.1-9.84-1.75s-2.34-3.31-2.82-12.95c-.29-5.94-.97-11.2-1.46-11.69-.68-.68-5.36,2.05-13.54,7.6-15.39,10.62-35.07,23.47-42.47,27.66-3.02,1.66-5.84,3.51-6.14,3.99s-6.82.88-14.42.88c-10.71,0-14.22-.29-15.1-1.36-.58-.68-4.68-3.41-9.16-5.94-8.86-5.16-41.01-26.4-46.56-30.78-6.14-4.87-6.72-3.99-6.72,9.94,0,9.06-.19,9.94-2.44,12.08-2.05,2.14-3.21,2.44-9.45,2.44-6.82,0-7.6-.19-15.88-4.97-11.88-6.82-36.82-23.38-48.41-32.24-29.42-22.4-59.22-52.4-81.82-82.21-20.45-27.08-34.09-56.4-40.13-86.2-3.6-17.82-4.58-34.77-4.38-79.19l.1-39.74-4.19-4.29c-2.34-2.44-5.26-4.58-6.33-4.87-2.92-.78-21.14,8.57-34.29,17.44-5.75,3.9-30.39,22.01-54.74,40.23-24.35,18.31-48.6,36.14-53.86,39.74l-9.55,6.62-5.84-.39c-3.7-.29-6.23-.97-6.82-1.85-1.56-2.44-.97-15.1,1.17-23.96,3.21-13.44,13.05-41.59,20.36-58.25,7.4-16.85,9.74-21.72,14.9-31.17,5.36-9.74,12.66-21.53,21.92-35.36,12.57-18.7,42.37-46.95,66.23-62.73,8.57-5.75,11.01-8.57,7.21-8.57-2.44,0-32.14,10.32-47.44,16.46-6.92,2.82-18.31,7.89-25.32,11.3-6.92,3.31-15.68,7.5-19.48,9.25-3.7,1.75-9.94,4.68-13.83,6.43-3.9,1.85-7.21,3.31-7.4,3.31s-8.67,3.99-18.8,8.86c-26.59,12.86-33.41,15.49-39.55,15.49-8.28,0-9.55-1.46-9.55-10.71,0-7.5.1-7.79,6.72-20.84,16.95-33.51,40.42-61.56,73.93-88.25,16.66-13.25,42.27-27.95,66.92-38.47,9.55-4.09,12.18-5.45,11.69-6.23-.29-.58-3.9-1.75-8.08-2.73-6.43-1.56-11.49-1.75-36.92-1.56-19.19.1-33.99.68-42.37,1.66-7.11.78-17.34,1.95-22.69,2.53s-12.18,1.46-15.1,1.95c-7.01,1.07-23.86,1.17-28.25.1-4.77-1.17-31.56-8.47-37.99-10.42-7.79-2.24-8.77-3.51-8.77-10.42,0-5.16.49-6.82,3.8-12.37,8.77-14.71,33.7-39.25,48.9-47.92,6.92-4.09,7.11-4.48,4.87-12.18-3.41-11.69-5.26-31.07-6.53-70.52-.39-11.1-.97-20.75-1.46-21.43-.58-1.07-3.41-1.07-15.68,0-19.29,1.56-44.51,4.77-54.35,6.82-7.69,1.66-21.82,2.14-41.88,1.46l-19.48-.68v-17.44c0-9.55.39-18.12.88-19.09.49-.88,1.56-4.97,2.53-8.96.88-3.99,2.44-10.13,3.41-13.64s3.12-11.59,4.77-18.02c16.27-63.02,30.58-100.23,64.09-167.14,9.25-18.51,16.85-33.9,16.85-34.09,0-.29-3.6-4.19-8.08-8.67-26.49-27.18-41.49-48.41-51.82-73.54-1.95-4.87-3.99-9.45-4.38-10.42-1.17-2.24-7.79-22.01-7.79-23.28,0-.58-.58-2.44-1.36-4.09-.78-1.75-1.56-4.68-1.85-6.53-.19-1.85-1.46-7.6-2.82-12.66s-3.02-11.69-3.7-14.61c-3.7-17.14-5.06-23.96-7.79-39.74-2.92-17.05-3.02-17.82-2.63-44.61.19-20.45.68-28.83,1.85-33.99l2.63-11.4c1.56-7.01,5.94-21.04,8.47-26.79.78-1.66,1.36-3.31,1.36-3.6,0-1.75,7.89-16.95,12.47-23.96,9.25-14.12,15.39-22.01,25.71-32.63,17.34-18.12,33.02-29.32,60.68-43.44l16.56-8.57h8.77l8.77-.1,32.14,32.44Z"/>
      <path class="cls-3" d="M494.45,469.38c-26.3,25.03-37.7,45.88-41.69,76.27-4.97,37.99,12.66,113.57,35.45,152.53,5.75,9.64,8.86,13.15,11.1,12.27.88-.39,9.35-3.31,18.7-6.43,26.4-8.96,29.9-9.55,65.75-11.1,34.77-1.46,35.55-1.36,35.55,4.38,0,2.34-2.34,5.36-11.79,15.78-36.72,40.23-69.94,85.52-93.9,127.89-3.6,6.43-7.6,13.44-8.77,15.58-2.73,4.87-15.1,29.42-18.02,36.04-13.05,28.83-23.28,58.34-28.34,81.62-.97,4.48-.97,5.84-.1,6.43.68.39,5.94-.39,11.69-1.85s13.93-3.31,18.21-4.19,10.91-2.24,14.71-3.02,13.44-2.14,21.53-3.12l14.61-1.66,14.03,3.6c19.19,4.97,19.68,5.65,13.93,20.07-2.44,6.04-2.53,6.62-1.46,14.12.58,4.29,1.95,15.49,3.02,24.84,2.24,20.07,3.99,33.51,6.82,51.62,1.17,7.21,2.44,15.78,2.92,18.99s1.95,11.79,3.31,18.99c1.27,7.21,2.92,16.56,3.6,20.84.68,4.19,1.75,7.79,2.44,8.08.58.19,4.48-1.75,8.77-4.38,4.19-2.63,10.13-6.04,13.05-7.69,2.92-1.56,9.35-5.16,14.32-7.89,32.82-18.31,63.99-31.66,85.71-36.72,12.66-3.02,36.82-7.31,40.81-7.31,8.18,0,9.64,7.11,3.41,16.36-3.99,5.84-16.85,31.75-20.65,41.59-4.29,11.1-9.06,19.38-11.88,20.75-2.34,1.17-3.99,1.07-11.69-.68-18.31-4.29-28.93-5.84-46.07-6.92-20.45-1.27-45.97,0-60.78,2.82-5.06,1.07-11.01,2.14-13.15,2.44-5.36.88-15.29,4.48-17.05,6.23-1.56,1.46,1.95,1.36,25.81-.78,15-1.36,54.25-1.17,76.46.49,29.71,2.14,52.11,5.45,70.62,10.23,24.84,6.53,30.78,9.94,27.66,15.68-1.07,2.14-1.17,2.14-17.82,1.27-9.16-.49-20.45-.88-25.13-.88-12.37,0-12.66.39-13.54,17.73-1.07,18.9-2.44,29.51-3.99,31.07-.78.78-7.79,2.44-15.97,3.8-7.99,1.36-17.82,3.31-21.92,4.38-21.43,5.55-52.4,19.48-75.1,33.8-19.58,12.47-20.36,15.19-1.66,6.33,34.58-16.46,84.35-33.02,120.2-40.13,5.94-1.07,12.95-2.53,15.58-3.12,5.75-1.17,38.18-2.24,41.69-1.36,2.73.68,4.09,3.41,3.12,6.33-.68,2.14-4.58,3.51-18.99,6.92-13.64,3.12-27.86,7.6-34.77,10.91-6.62,3.12-7.11,4.09-5.16,9.94.49,1.66,2.92,8.96,5.36,16.27,3.41,10.32,4.38,14.71,4.38,19.68,0,5.84-.19,6.53-2.73,8.38-1.46.97-5.55,2.82-8.96,3.99-10.42,3.51-20.45,9.35-28.73,16.66-8.28,7.21-10.91,8.86-20.84,12.95-8.08,3.31-15.1,8.57-26.1,19.77-12.57,12.76-31.75,38.28-30.2,39.94.39.29,6.92-5.55,14.61-13.05,28.73-27.95,66.23-56.59,96.14-73.54,23.86-13.54,37.21-19.29,44.61-19.29,4.48,0,6.04,1.36,6.04,5.45,0,3.7-2.63,6.04-17.34,15.88-4.97,3.31-9.35,6.72-9.64,7.5-.68,1.95,1.27,4.68,10.62,14.51,15.39,16.27,35.94,32.53,51.92,41.01,7.69,4.09,25.42,10.52,37.31,13.44,3.31.88,11.98,2.24,19.09,3.12,11.98,1.46,14.03,1.46,25.23,0,17.34-2.24,30.68-6.82,41.59-14.22,6.04-4.09,12.66-10.91,12.66-13.15,0-4.87-12.76-13.73-38.96-27.27-10.52-5.45-22.11-11.79-25.81-14.22-14.9-9.64-28.73-22.5-38.18-35.36-17.05-23.18-23.28-56.2-20.75-110.16,1.27-25.91,2.44-30.49,8.57-34.68,5.55-3.7,12.66-4.77,16.27-2.44,1.85,1.27,2.44,2.44,2.44,5.26,0,1.95.49,5.16.97,7.01.58,1.85,1.46,6.04,1.95,9.25.88,6.04,2.34,12.47,4.09,17.53.49,1.56,1.36,4.58,1.85,6.62,1.66,6.72,6.33,15.68,10.32,19.77,6.14,6.23,18.8,11.49,34.38,14.03,2.44.39,6.82,1.27,9.74,1.85,8.18,1.56,22.5,3.8,36.04,5.55,14.22,1.75,56.3,1.56,70.13-.49,11.59-1.66,25.81-3.9,32.14-5.16,2.92-.58,7.31-1.36,9.74-1.75,16.07-2.63,28.15-7.79,34.38-14.71,4.09-4.38,5.06-6.04,7.69-12.57,1.36-3.21,2.05-5.45,6.04-19.38.88-2.82,1.56-6.04,1.56-7.01s.68-4.29,1.46-7.4c.78-3.02,1.46-7.89,1.46-10.71,0-3.99.49-5.55,2.24-7.21,4.38-4.09,17.24-.39,21.62,6.33,4.19,6.33,6.14,65.55,2.82,86.69-4.97,32.34-13.54,49.77-34.77,70.42-13.15,12.76-24.25,20.36-47.44,32.24-24.84,12.66-35.16,19.38-38.38,24.64-1.46,2.44-1.36,2.73,1.75,7.11,8.86,12.57,28.15,21.14,53.86,23.96,20.07,2.34,50.26-3.8,75.29-15.29,10.71-4.97,32.92-21.14,46.36-33.7,9.06-8.57,19.87-21.04,19.87-22.89,0-.58-5.26-4.68-11.69-9.06-14.22-9.64-16.56-11.79-16.56-14.81,0-4.58,2.05-5.94,8.38-5.36,5.84.58,6.82.88,22.31,8.08,33.21,15.39,76.66,46.56,114.16,81.92,13.05,12.27,15.88,14.42,15.88,12.08,0-1.17-14.71-20.65-19.38-25.71-1.95-2.05-7.21-6.14-11.79-9.06-11.1-7.21-19.77-14.32-32.63-26.59-9.74-9.25-11.88-10.81-22.89-16.27-6.72-3.41-15.19-7.21-18.99-8.57-8.38-2.92-11.2-5.84-11.2-11.49,0-2.24,2.53-11.98,5.94-22.5,4.29-13.15,5.75-18.8,5.06-19.87-2.05-3.31-19.38-9.94-36.33-13.83-5.06-1.17-12.27-3.02-16.07-4.19-6.43-2.05-6.82-2.34-7.11-5.26-.49-5.06,1.46-5.55,22.11-4.87,36.14,1.17,81.04,12.95,142.31,37.31,2.44.97,9.55,4.29,15.88,7.4s12.18,5.65,13.05,5.65c2.63,0-1.85-4.19-9.64-8.96-3.8-2.34-8.38-5.26-10.42-6.53-7.11-4.68-31.95-16.56-38.08-18.12-3.51-.97-10.52-3.7-15.58-6.14-10.42-4.87-22.11-7.99-39.84-10.71-9.74-1.56-12.47-2.34-13.83-3.9-1.95-2.53-2.82-8.96-3.7-28.05-.78-17.53-1.56-19.38-8.38-20.45-2.53-.29-11.2-.1-19.29.49-27.18,2.05-30.97,1.46-29.51-4.29,1.66-6.43,29.51-14.42,68.18-19.48,35.26-4.68,94.19-5.65,123.22-2.05,12.86,1.66,15.97,1.46,12.27-.68-4.87-2.82-13.05-4.87-34.77-8.86-14.51-2.63-39.74-3.7-58.54-2.53-19.19,1.17-25.42,2.05-39.64,5.45-5.65,1.36-12.18,2.53-14.51,2.63-3.7.19-4.58-.19-7.01-3.12-1.46-1.85-5.45-9.74-8.77-17.53-7.5-17.73-16.27-35.36-21.33-43.25-2.14-3.21-3.9-6.72-3.9-7.79,0-2.05,1.75-5.75,3.31-6.72,2.24-1.56,10.62-.58,32.24,3.7,16.95,3.31,35.45,8.96,50.16,15.19,12.18,5.16,50.26,24.55,57.96,29.42,1.07.68,5.06,2.92,8.77,4.97,3.8,2.05,9.16,5.16,12.08,6.92,2.82,1.75,5.75,2.92,6.43,2.73.58-.29,1.66-4.09,2.24-8.47s1.75-11.49,2.63-15.78c1.85-10.03,6.92-41.2,9.25-57.47,2.05-13.34,3.12-22.21,5.36-42.76.78-6.82,1.85-15.58,2.44-19.48,1.07-6.72,1.07-7.11-1.85-14.22-3.51-8.38-3.7-11.69-1.27-13.93.97-.88,8.08-3.21,15.78-5.26l13.93-3.6,14.22,1.75c18.6,2.24,33.9,5.16,54.16,10.32,14.51,3.7,14.22,4.09,9.84-13.34-5.75-22.99-14.51-47.44-25.13-70.42-4.38-9.45-17.92-36.62-21.23-42.37-30.97-55.03-60.97-96.43-101.3-140.26-4.87-5.36-9.64-10.71-10.42-11.88-1.75-2.73-1.07-6.62,1.56-7.99,1.17-.68,12.18-.58,33.41.39,36.23,1.56,38.28,1.95,67.21,11.59l18.8,6.23,2.24-2.05c4.77-4.38,15.97-25.62,21.23-40.13,11.4-31.46,18.21-60.2,21.43-89.9,1.46-13.83,1.56-17.53.49-28.15-1.85-18.9-6.62-35.07-14.12-47.53-3.8-6.33-12.27-17.92-16.95-23.08-6.04-6.72-23.57-22.21-25.23-22.21-.78,0-9.45,7.69-19.19,17.14-21.14,20.65-47.14,43.25-58.34,50.94-8.38,5.75-30.29,18.7-37.21,22.01-17.14,8.28-53.08,18.21-70.81,19.68-5.36.39-7.6.97-7.6,1.85,0,1.27,9.55,16.27,32.24,51.04,15.58,23.77,15.49,23.57,15.49,28.05,0,3.12-.49,4.29-2.05,5.06-3.12,1.75-6.33.1-22.6-11.49-37.31-26.69-64.68-43.83-93.51-58.64-14.81-7.69-39.84-18.99-50.84-22.99-8.96-3.31-35.45-12.08-40.42-13.44-2.92-.78-8.67-2.24-12.66-3.31-16.36-4.48-38.38-8.57-53.57-9.94-14.71-1.27-86.4-1.27-101.59.1-27.86,2.44-67.5,12.08-102.47,25.03-44.51,16.46-91.17,42.27-142.21,78.6-25.81,18.41-26.2,18.6-29.61,15.19-1.17-1.17-2.05-3.02-2.05-4.29,0-2.92,6.62-13.83,26.3-43.54,13.54-20.45,22.4-34.58,22.4-35.84,0-.49-3.6-1.17-7.99-1.56-14.32-1.07-46.07-9.35-63.8-16.56-8.67-3.6-25.91-13.05-38.86-21.62-14.81-9.64-33.8-25.71-62.24-52.89-10.71-10.23-20.16-18.6-21.04-18.6-.78,0-7.01,5.26-13.73,11.69ZM815.59,618.8c4.29.78,11.79,2.14,16.56,3.02,4.87.97,12.08,2.24,16.07,3.02,46.17,8.57,71.88,9.25,97.01,2.82,8.57-2.24,30.2-4.87,39.35-4.68,9.55.1,24.35,2.14,32.63,4.48,11.98,3.41,20.84,4.58,33.41,4.58,15.78,0,37.11-2.44,63.51-7.21,14.71-2.73,25.03-4.58,32.63-6.04,4.29-.78,10.91-1.66,14.71-2.05,6.82-.49,7.01-.49,8.67,2.05,2.34,3.51,1.46,10.23-1.75,15-4.58,6.43-18.12,20.45-26.3,26.98-16.95,13.73-31.95,19.68-64.97,25.81-47.05,8.77-57.66,12.57-69.45,25.23-10.71,11.49-14.71,21.14-14.81,35.65,0,11.2-.39,10.91,9.35,7.5,5.94-2.14,19.97-4.38,36.43-6.04,36.23-3.51,58.34-5.94,75.49-8.18,6.14-.88,14.51-1.95,18.51-2.53,17.73-2.34,40.71-6.62,53.08-9.94,20.16-5.26,33.41-15.49,47.44-36.43,4.77-7.11,5.45-7.69,8.86-7.99,5.55-.49,6.14,1.85,4.68,16.75-2.44,25.03-9.35,38.57-26.69,52.6-14.71,11.98-36.53,20.75-68.86,27.86-32.92,7.21-45.97,10.52-52.6,13.05-13.54,5.36-22.99,9.64-37.01,16.75-26.2,13.25-43.05,25.03-61.07,42.57-12.76,12.47-10.81,12.18-27.57,4.29-8.38-3.9-13.25-7.01-18.99-11.98-15.88-13.64-32.82-24.64-55.03-35.84-29.32-14.81-40.81-18.6-82.31-27.57-31.85-6.82-48.99-12.76-65.26-22.69-9.84-5.94-16.17-11.69-22.79-20.45-8.67-11.49-12.18-22.6-13.34-42.57-.78-11.98-.1-13.34,5.65-12.76,2.82.29,3.8,1.27,8.96,9.06,11.1,16.95,25.91,29.03,41.98,33.99,23.67,7.4,69.74,14.03,151.95,22.01,21.53,2.05,33.02,4.29,40.13,7.5,5.26,2.44,6.14,1.36,6.14-7.21,0-22.5-14.22-42.57-36.04-51.14-7.01-2.82-17.53-5.45-33.6-8.57-29.12-5.65-35.84-7.11-44.81-9.94-19.38-6.04-30.2-12.86-47.34-29.9-13.64-13.73-17.44-19.19-17.44-25.23,0-6.92,1.85-8.38,10.23-7.6,3.8.29,10.32,1.17,14.61,1.95ZM700.65,883.83c15.49,2.73,27.47,7.01,46.66,16.66,25.03,12.57,57.96,34.29,83.86,55.42,26.2,21.23,29.81,23.86,33.21,23.86,2.44,0,9.06-6.14,12.66-11.69,2.73-4.29,2.82-4.77,2.73-16.56,0-10.03-.49-13.93-2.63-21.92-4.38-16.27-3.41-21.92,3.99-21.92,2.92,0,4.29.78,8.38,5.06,6.23,6.53,16.07,21.23,21.14,31.66,4.97,10.13,6.62,22.01,4.97,35.36-1.17,9.84-3.41,15.78-14.51,38.96-8.38,17.34-8.67,17.92-21.23,45.29-9.35,20.16-12.47,26.49-13.83,27.47-.88.68-3.21,1.27-5.16,1.27s-4.38.68-5.45,1.46c-2.24,1.75-7.4,1.85-8.96.29-2.63-2.63-.97-13.73,7.69-52.89,1.17-5.36,2.24-10.81,2.24-12.18l.1-2.44-27.76-.19c-32.24-.19-46.66-1.75-71.1-7.5-34.97-8.28-57.18-28.83-78.9-73.15-2.63-5.36-5.26-12.18-5.94-15.1-1.27-6.14-2.14-7.01-6.23-6.33-6.92,1.17-25.71,3.7-30.29,4.09-5.16.49-6.33-.19-7.69-4.38-.58-1.95.1-3.12,4.48-7.11,2.82-2.63,4.87-4.97,4.48-5.36-.78-.78-18.31,1.17-27.76,3.12-9.55,1.95-12.86,1.56-14.71-1.66-2.92-5.26,2.63-11.2,17.82-19.29,9.94-5.26,28.73-10.71,41.98-12.18,7.99-.88,37.31.29,45.78,1.85ZM1317.22,883.73c16.56,3.41,33.7,10.81,44.22,19.09,4.09,3.21,4.97,4.48,4.97,7.01,0,3.8-2.44,6.62-5.75,6.62-1.36,0-7.11-.88-12.76-1.85-13.05-2.34-25.32-3.51-25.32-2.34,0,.49,2.24,2.53,4.87,4.48,4.19,3.12,4.87,4.09,4.87,6.92,0,6.33-.88,6.43-27.27,2.63-8.08-1.17-13.64-1.56-14.71-1.07-.97.58-1.85,2.73-2.24,5.45-1.07,8.08-14.51,33.7-25.42,48.6-10.62,14.32-20.65,23.38-34.68,31.07-7.5,4.09-14.42,6.53-27.18,9.35-5.06,1.07-12.08,2.63-15.58,3.41-11.69,2.63-27.57,3.6-54.25,3.6-24.35-.1-26.59.1-26.59,1.56,0,1.95,1.07,7.11,7.21,36.62,4.68,22.31,5.16,25.81,3.51,28.93-1.27,2.24-6.43,2.44-9.16.39-1.07-.78-3.8-1.46-5.94-1.46-4.87,0-6.04-1.07-10.13-10.03-1.66-3.6-4.38-9.45-6.04-13.15-1.66-3.6-4.09-8.77-5.26-11.4-6.53-14.12-10.52-22.69-24.06-51.14-8.67-18.02-9.06-19.77-9.06-36.53.1-15.68.68-18.9,5.94-28.34,7.89-14.42,14.32-23.67,21.23-30.88,2.92-2.92,4.29-3.6,7.4-3.6s4.19.49,5.36,2.34c1.95,2.92,1.46,7.11-2.24,22.01-3.41,13.93-3.51,27.66-.29,34.38,2.63,5.36,11.01,13.34,14.12,13.34,2.44,0,13.44-7.89,27.95-19.97,7.79-6.53,26.01-20.26,40.32-30.49,12.57-8.86,33.99-21.62,49.58-29.51,21.72-10.81,36.14-15.19,59.03-17.82,7.01-.78,36.82.39,43.34,1.75Z"/>
      <path class="cls-3" d="M739.81,941.4c-1.17,1.17.39,7.31,3.31,13.64,4.97,10.62,16.66,21.43,29.71,27.66,9.35,4.38,13.93,4.68,23.47,1.46,4.38-1.56,8.18-3.31,8.47-3.99.68-1.85-2.63-4.19-29.81-19.97-35.36-20.75-33.99-19.97-35.16-18.8Z"/>
      <path class="cls-3" d="M1215.43,943.64c-1.36,1.07-7.21,4.38-13.15,7.4-8.67,4.58-21.92,12.18-29.71,17.05-.78.49-4.87,2.92-8.96,5.45-10.42,6.14-10.23,7.21,2.44,11.1,8.77,2.63,11.69,2.24,23.08-3.12,15.78-7.5,27.27-19.87,30.78-33.31,1.75-6.72.39-8.18-4.48-4.58Z"/>
      <path class="cls-3" d="M976.3,1464.55c-5.55,1.27-8.77,2.73-13.83,6.82-3.12,2.34-7.69,5.45-10.23,6.72-11.01,5.65-38.57,10.42-68.96,12.08-50.84,2.63-79.58,0-112.31-10.42-9.84-3.12-14.61-4.29-15.29-3.6-2.24,2.24,11.1,59.9,17.92,77.83,6.92,18.12,24.94,45.68,41.4,63.12,13.15,14.03,45.39,41.59,46.75,40.03.88-.97,2.63-27.08,3.7-54.25.68-17.24,1.17-19.19,5.26-19.19,3.6,0,5.55,1.95,10.71,10.42,14.12,23.57,17.73,28.05,42.66,52.99s37.6,36.43,45.58,41.69c6.04,3.99,12.47,4.09,20.45.39,6.72-3.21,23.86-18.7,50.75-45.78,19.09-19.29,25.03-26.79,36.23-45.1,7.99-13.25,9.35-14.81,13.05-14.42,4.19.39,5.45,3.51,5.45,13.44,0,13.83,2.92,58.83,3.9,59.81.88.88,15.78-11.2,33.31-27.08,24.74-22.4,47.53-55.13,56.4-81.14,5.65-16.66,16.46-62.83,16.46-70.71,0-3.12-1.75-3.41-7.31-1.17-6.33,2.73-26.2,8.08-37.11,10.13-36.04,6.72-103.34,4.58-138.22-4.29-7.6-1.95-11.79-3.7-19.97-8.57-13.83-8.28-21.23-11.01-26.79-9.74Z"/>
    </g>
  </g>
  <g id="Ebene_3" data-name="Ebene 3">
    <ellipse class="cls-1" cx="984.79" cy="986.28" rx="969.79" ry="971.28"/>
  </g>
</svg>