<svg xmlns="http://www.w3.org/2000/svg" viewBox="0 0 893 804">
  <circle cx="446.5" cy="402" r="367.62" fill="#014ee5"/>
  <g fill="#fefefe">
    <path d="M656.7 487.66h56.13v-46.65H580.82v2.28c-1.94 31.4-12.57 60.88-31.36 83.71-8.99 10.58-19.68 19.77-31.72 27.26-21.62 13.09-45.41 20.05-69.35 20.45h-3.52c-23.94-.41-47.73-7.36-69.36-20.45-12.04-7.48-22.73-16.67-31.72-27.25-18.79-22.83-29.42-52.31-31.36-83.71-.01-.74-.04-1.48-.04-2.23h-.22v-.05H180.16v46.65h56.39c1.61 6.61 3.53 12.97 5.7 19.19 5.42 16.43 12.57 31.96 21.66 47.07-8.69 15.24-27.8 25.51-33.51 37.39l-2.39 2.5 1.11 1.08c0 .02-.01.04-.02.07l56.5 56.87c2.17 2.36 4.34 4.74 6.51 7.15l.92-.9c12.43-8.59 21.2-19.12 30.86-30.07l5.86-5.71c22.44 11.33 44.63 22.54 69.11 27.6l1.37 53.2h.41v.07l46-.03 46 .03v-.07h.41l1.37-53.2c24.49-5.06 46.67-16.27 69.11-27.6l5.86 5.71c9.66 10.94 18.43 21.47 30.86 30.07l.92.9c2.16-2.41 4.33-4.79 6.51-7.15l56.5-56.87s-.01-.04-.02-.07l1.11-1.08-2.39-2.5c-5.71-11.87-24.82-22.14-33.51-37.39 9.08-15.12 16.24-30.64 21.66-47.07a209 209 0 0 0 5.7-19.19Z"/>
    <rect width="532.67" height="53.17" x="180.17" y="346.59" rx="19.03" ry="19.03"/>
    <path d="M660.8 322.89c-3.64-32.42-14.52-63.11-31.14-90.03-.23-.38-.47-.74-.7-1.12-.36-.58-.73-1.17-1.1-1.75-23.72-37.87-58.89-67.73-103.9-85.24l-.66 68.84-17.77-.26c-1.34-.3-2.68-.67-4.03-1.11l-.33-112.25c-5.64-.58-11.17-.91-16.7-1.05-8.72-.27-17.32.04-26.55.55l-.59 43.64-.32 12.52-11.1.31-11.1-.31-.32-12.51-.59-43.64c-9.23-.51-17.83-.82-26.55-.55-5.53.14-11.06.48-16.7 1.05l-.33 112.25c-1.35.44-2.69.81-4.03 1.11l-17.77.26-.66-68.84c-45.01 17.51-80.17 47.37-103.9 85.24l-1.11 1.77c-.23.37-.46.73-.69 1.1-16.61 26.92-27.5 57.61-31.14 90.03h.08c-.02.18-.05.35-.08.52l96.72.1 118.15-.22 118.15.22 96.72-.1c-.02-.18-.05-.35-.08-.52h.08Z"/>
  </g>
</svg>
