<svg xmlns="http://www.w3.org/2000/svg" viewBox="0 0 400 400"><defs><clipPath id="a"><circle cx="200" cy="200" r="200" fill="none"/></clipPath></defs><g clip-path="url(#a)"><path fill="#f0f3fa" d="M0 0h400v400H0V0Z"/><path fill="#1496ff" d="M161.11 107.56c-2.67 15.11-6 37.33-8 60-3.11 40-1.11 66.67-1.11 66.67l-55.11 53.78s-4.22-30-6.22-63.78a918.86 918.86 0 0 1-1.78-50.89l.22-1.78c0-.89 1.11-8.22 8.22-15.33 7.78-7.56 64.89-53.33 63.78-48.89v.22Z"/><path fill="#b4dc00" d="M88.89 168v3.33c.67-2.67 1.78-4.44 4-7.33 4.67-5.56 12.22-7.11 15.33-7.56A636.62 636.62 0 0 1 240.44 154l53.33-51.33s-29.78-5.33-64-9.11c-22.22-2.67-41.78-4-52.89-4.44-.89 0-8.67-1.11-16 5.56l-65.33 58.67c-7.33 6.67-6.67 14.22-6.67 14.89v-.22Z"/><path fill="#6f2da8" d="M291.78 243.33c-15.56 2.22-38.22 4.44-61.33 5.11-40.67 1.33-72-2.89-72-2.89l-52.44 52.22a949.834 949.834 0 0 0 114.67 13.33l2.89-.67c.89 0 8.89-1.33 16-8 8.22-7.11 56.67-59.33 52.22-58.89v-.22Z"/><path fill="#73be28" d="M226.44 311.11h-3.56c2.89-.67 4.67-1.56 7.56-3.78 6-4.44 7.78-11.78 8.44-14.89 2.67-15.11 6.22-37.33 7.78-60 3.11-40 1.33-66.67 1.33-66.67l54.67-53.78c.77 38.79 3.59 77.51 8.44 116 0 .89.67 8.67-6.67 15.56l-62.22 61.56c-7.56 6.89-15.11 6-15.78 6Z"/></g></svg>