<?xml version="1.0" encoding="utf-8"?>
<!-- Generator: Adobe Illustrator 22.0.1, SVG Export Plug-In . SVG Version: 6.00 Build 0)  -->
<svg version="1.1" id="Ebene_1" xmlns="http://www.w3.org/2000/svg" xmlns:xlink="http://www.w3.org/1999/xlink" x="0px" y="0px"
	 viewBox="0 0 96 96" enable-background="new 0 0 96 96" xml:space="preserve">
<g>
	<circle fill="#00E0CA" cx="48.3" cy="48.3" r="47.3"/>
	<path fill="#00262F" d="M25.9,71.1c2.3-1.8,4.5-3.5,7-5.4c-6.8-8.2-9.2-17-6.8-26.7c1.7-6.9,5.6-12.4,11.5-16.4
		c10.6-7.1,25.7-5.2,33.5,4.3c-2,2.1-4,4.3-6.1,6.5c13.7,17.5,5.3,36.1-5.4,42.9C48.9,83,33.2,81.1,25.9,71.1z M33.5,65
		c5.6,6,14.3,7,21,2.5c3.6-2.4,5.9-5.6,7.2-9.7c2-6.6,0.1-12.4-3.9-17.7c2.2-2.3,4.2-4.4,6.2-6.5c-5.1-6-14.3-7-21-2.5
		c-8.7,5.9-9.8,15.2-3.2,27.4C37.6,60.7,35.6,62.8,33.5,65z"/>
</g>
</svg>
