<svg width="390" height="390" viewBox="0 0 390 390" fill="none" xmlns="http://www.w3.org/2000/svg">
<path d="M195 390C302.696 390 390 302.696 390 195C390 87.3045 302.696 0 195 0C87.3045 0 0 87.3045 0 195C0 302.696 87.3045 390 195 390Z" fill="#D2FF79"/>
<path d="M195.024 380.048C297.21 380.048 380.048 297.21 380.048 195.024C380.048 92.8381 297.21 10 195.024 10C92.8381 10 10 92.8381 10 195.024C10 297.21 92.8381 380.048 195.024 380.048Z" fill="url(#paint0_linear_4869_146)"/>
<path d="M195.037 140.478C189.381 140.408 184.079 141.327 179.13 143.235C174.252 145.074 170.258 147.619 167.147 150.871C164.037 154.123 162.481 157.905 162.481 162.217C162.481 167.52 163.931 171.549 166.829 174.306C169.728 177.064 173.616 179.114 178.494 180.457C183.442 181.729 188.957 182.896 195.037 183.956C204.793 185.511 213.807 188.092 222.078 191.698C230.42 195.303 237.101 200.111 242.121 206.12C247.211 212.058 249.756 219.375 249.756 228.071C249.756 236.06 247.635 243.165 243.393 249.386C239.152 255.536 233.461 260.521 226.32 264.338C219.251 268.085 211.438 270.453 202.884 271.443V292.97H187.296V271.443C180.155 270.737 173.368 269.04 166.935 266.353C160.573 263.666 155.023 260.096 150.286 255.642C145.55 251.189 142.121 246.028 140 240.16L160.679 232.419C161.881 235.812 164.178 238.852 167.572 241.539C171.035 244.154 175.136 246.205 179.873 247.689C184.68 249.174 189.735 249.916 195.037 249.916C200.693 249.916 205.995 248.997 210.944 247.159C215.964 245.32 219.993 242.775 223.033 239.524C226.144 236.272 227.699 232.454 227.699 228.071C227.699 223.547 226.072 219.835 222.821 216.936C219.639 214.037 215.539 211.74 210.52 210.043C205.571 208.347 200.41 207.074 195.037 206.226C184.645 204.529 175.313 202.054 167.041 198.803C158.841 195.551 152.337 190.991 147.529 185.123C142.793 179.255 140.424 171.62 140.424 162.217C140.424 154.229 142.545 147.124 146.787 140.902C151.029 134.681 156.684 129.697 163.754 125.95C170.895 122.133 178.742 119.764 187.296 118.845V97H202.884V118.845C209.813 119.552 216.458 121.249 222.821 123.935C229.254 126.622 234.874 130.192 239.682 134.646C244.49 139.029 247.989 144.26 250.18 150.34L229.289 157.87C228.087 154.405 225.79 151.401 222.397 148.856C219.003 146.24 214.903 144.19 210.095 142.705C205.359 141.221 200.339 140.478 195.037 140.478Z" fill="white"/>
<path d="M180.816 38.2216C141.778 42.3783 110.117 56.9266 83.4713 82.8699C69.2887 96.7732 60.0485 109.53 51.453 127.016C46.5822 137.05 41.7831 149.878 40.064 157.69L39.1328 161.846L36.3392 161.488C34.835 161.273 32.2564 160.843 30.6089 160.628C27.9586 160.198 27.7437 160.341 28.1735 161.488C30.1075 166.72 40.4937 190.441 40.8519 190.441C41.1384 190.441 45.7227 184.565 51.0949 177.326L60.9081 164.283L56.0373 163.71C53.387 163.423 50.8084 162.993 50.307 162.85C48.4446 162.205 54.4615 143.356 60.8365 129.883C81.9671 85.1632 122.08 54.7049 171.862 45.5316C183.036 43.4533 210.04 43.3099 220.928 45.1733C237.331 48.1116 249.866 52.0533 263.906 58.9333C304.734 78.8566 334.532 115.622 345.563 159.553C346.494 163.351 347.354 167.221 347.569 168.225L347.855 170.016L347.998 168.081C348.142 165.286 343.629 148.086 340.549 139.916C320.636 86.5249 273.576 48.2549 216.988 39.5833C209.754 38.4366 186.761 37.5766 180.816 38.2216Z" fill="white" fill-opacity="0.6"/>
<path d="M348.212 171.809C348.212 172.813 348.355 173.171 348.57 172.669C348.713 172.239 348.713 171.379 348.57 170.878C348.355 170.448 348.212 170.806 348.212 171.809Z" fill="white" fill-opacity="0.6"/>
<path d="M339.905 213.518L330.092 226.633L334.963 227.207C337.613 227.493 340.192 227.852 340.693 228.067C341.338 228.282 341.051 230.145 339.762 235.018C333.1 260.388 319.634 283.895 301.368 302.385C278.447 325.533 250.368 340.01 217.347 345.743C207.248 347.463 180.172 347.463 170.072 345.743C135.618 339.723 106.966 324.601 83.4004 300.02C65.2782 281.172 52.8863 259.027 45.795 232.725C44.6489 228.568 43.7177 225.845 43.7177 226.633C43.6461 227.422 44.5773 231.65 45.7234 236.022C72.656 338.29 190.343 384.945 280.739 329.188C299.506 317.65 317.628 299.876 330.163 280.742C338.616 267.842 348.071 246.27 350.936 233.227L351.867 229.07L354.661 229.428C356.165 229.643 358.744 230.073 360.391 230.288C363.041 230.718 363.256 230.575 362.826 229.428C360.892 224.197 350.506 200.475 350.148 200.475C349.862 200.475 345.277 206.352 339.905 213.518Z" fill="white" fill-opacity="0.6"/>
<path d="M42.3564 219.108C42.3564 220.112 42.4997 220.47 42.7146 219.968C42.8579 219.538 42.8579 218.678 42.7146 218.177C42.4997 217.747 42.3564 218.105 42.3564 219.108Z" fill="white" fill-opacity="0.6"/>
<path d="M43.0732 223.051C43.0732 224.198 43.2165 224.628 43.4314 223.911C43.5746 223.266 43.5746 222.263 43.4314 221.761C43.2165 221.331 43.0732 221.833 43.0732 223.051Z" fill="white" fill-opacity="0.6"/>
<defs>
<linearGradient id="paint0_linear_4869_146" x1="16.1941" y1="769.426" x2="394.025" y2="765.233" gradientUnits="userSpaceOnUse">
<stop stop-color="#7EAE17"/>
<stop offset="1" stop-color="#264C18"/>
</linearGradient>
</defs>
</svg>
