<svg xmlns="http://www.w3.org/2000/svg" viewBox="0 0 400 400"><defs><linearGradient id="b" x1="81.16" x2="493.5" y1="720.49" y2="246.89" gradientTransform="matrix(1 0 0 -1 0 784)" gradientUnits="userSpaceOnUse"><stop offset="0" stop-color="#1a1e21"/><stop offset="1" stop-color="#06060a"/></linearGradient><clipPath id="a"><circle cx="200" cy="200" r="200" fill="none"/></clipPath></defs><g clip-path="url(#a)"><path fill="url(#b)" d="M0 0h400v400H0V0Z"/><path fill="#76b900" d="M93.91 187.64s24.62-37.6 72.76-41.31v-13c-53.33 4.31-100 51.56-100 51.56s26.67 74.82 100 81.78v-13.82c-53.82-6.82-72.76-65.2-72.76-65.2Zm72.76 39.12v12.64c-40.67-7.31-52.47-49.91-52.47-49.91s20.02-21.78 52.47-25.33v13.89c-17.02-2.07-30.89 13.96-30.89 13.96s7.96 26.98 30.89 34.73v.02Zm0-115.65v22.22c1.56-.11 2.62-.22 4.2-.27 60.62-2.07 100.11 51.84 100.11 51.84s-45.36 55.56-92.62 55.56c-4.33 0-7.89-.38-11.69-1.07v13.44c3.27.42 6.13.67 9.64.67 44 0 75.78-21.24 106.6-48.04 5.11 4.13 26 14.16 30.31 18.53-29.29 24.71-97.56 43.24-136.22 43.24-3.73 0-6.82-.22-10.33-.58v22.22h166.67V111.11H166.67Zm0 53.05v-17.82c1.56-.11 2.6-.2 4.2-.22 43.6-1.4 72.2 39.49 72.2 39.49s-30.89 43.22-64 43.22c-4.78 0-8.56-.78-12.4-2.09v-48.67c16.98 2.04 19.89 9.6 30.09 26.73l22.67-19.27s-16.53-21.89-44.47-21.89c-3.04 0-5.44.22-8.29.51Z"/></g></svg>