<svg xmlns="http://www.w3.org/2000/svg" viewBox="0 0 400 400"><defs><clipPath id="a"><circle cx="200" cy="200" r="200" fill="none"/></clipPath></defs><g clip-path="url(#a)"><path fill="#da261d" d="M0 0h400v400H0V0Z"/><path fill="#fff" d="M200 285.71c79.14-.14 142.86-38.57 142.86-85.64S279.15 114.36 200 114.28c-78.86 0-142.86 38.57-142.86 86s64 85.5 142.86 85.43Zm0-157.14c73.57 0 135.71 32.86 135.71 71.43S273.57 271.29 200 271.43c-73.21 0-135.71-33.14-135.71-71.43s62.5-71.43 135.71-71.43Zm91.79 42.86h-48.93v57.14h14.29v-42.86h23.86l4.71 5.14v23.43h-14.29v14.29H300v-47l-8.29-10.14h.07Zm-98.93 21.43h19.07l2.36-2.86v-18.57h14.29v30.07l-6.14 5.64h-15.29v21.43h-14.29v-35.71Zm-10.72-21.43h-14.29v29.64l6.79 6.07h11.07v-14.29l-3.57-2.5v-18.93Zm-33.07 0 8.07 9v16.43l-4.14 3.36 4.14 3.57v19.14l-8.79 5.64h-26.93v-14.29h21.43v-10.71h-28.57v25H99.99v-57.14h49.14-.07Zm-6.21 14.28h-28.57v10.71h28.57v-10.71Z"/></g></svg>