<svg xmlns="http://www.w3.org/2000/svg" viewBox="0 0 1024 1024">
  <circle cx="512" cy="512" r="512"/>
  <g fill="#02fd1a">
    <path d="M756.47 742.64c16.48-20.32 26.98-44.45 34.62-69.39 15.16-49.5 14.66-101.14-1.56-150.16-5.21-15.74-11-30.56-18.95-45.39-24.61-45.89-57.27-88.21-96.98-121.35-31.14-25.99-65.36-46.61-102.74-61.12-89.24-34.65-173.24-32.89-260.29 7.29-22.38 10.33-42.95 22.94-60.78 40.18-33.65 32.55-46.34 70.25-48.84 117.01-1.83 34.15 7.86 68.3 32.91 92.15 20.68 19.69 47.04 33.48 74.77 40.29 26.3 6.46 53.41 4.31 78.6-4.52 4.99-1.75 8.72-4.76 14.16-4.99 5.17-.21 9.71 2.73 10.99 7.42 1.5 5.52 0 10.5-5.2 13.31-32.35 17.54-68.76 21.92-104.48 13.3-22.41-5.4-43.42-13.82-63.39-25.35-23.3-13.45-41.69-32.29-54.18-56.51-13.15-25.51-19.7-53.12-21.87-82.05-1.7-22.6-2.15-44.54 1.61-66.91 4.38-26.09 13.43-50.33 27.23-72.81 44.9-73.15 124.07-122.11 206.01-140.78 74.47-16.96 152.9-12.71 225.21 11.33 43.91 17.72 83.83 42.14 118.87 74.32 31.02 29.77 57.78 64.49 77.91 103.03 58.69 112.36 57.39 251.51-14.5 356.96-39.71 58.24-88.79 106.25-154.74 131.25-11.86 4.5-23.1 8.13-35.76 10.15-36.14 5.77-72.49 1.9-107.81-8.1-36.12-10.22-70.36-25.02-103.42-43.03-27.99-15.25-56.69-27.79-88-33.62-14.32-2.67-27.97-.21-41.44 4.89-14.2 5.37-25.97 14.28-37.71 23.19-5.79 4.39-12.82 3.95-17-.95-3.95-4.62-3.46-11.97 1.59-16.81 36.8-35.32 78.52-68.85 125.44-89.86 24.87-11.14 50.6-13.58 77.27-7.29 37.54 8.84 71.12 26.77 103.45 48.15 26.12 17.27 53.57 30.69 83.16 40.23 18.49 5.96 36.31 8.39 55.56 8.59 35.1.36 67.48-13.92 90.28-42.05"/>
    <path d="M495.31 694.45c-5.24 2.61-10.68 3.18-14.82-.3-3.09-2.59-3.22-6.69-2.97-10.95.48-8.47 19.45-13.05 32.3-34.2 7.39-12.17 7.78-27.83-1.47-40.18-23.33-31.16-51.88-57.98-80.5-84.46-32.85-30.4-70.69-79.44-48.63-124.89 21.9-45.12 64.91-82.35 108.12-105.17 5.97-3.16 12.53-.47 15.29 4.51 3.2 5.77.58 11.96-4.82 15.6-8.25 5.55-15.87 11.63-21.85 19.79-25.36 34.63 17.92 79.21 44.76 102.31s52.29 48.72 68.04 80.49c23.52 47.44 7.48 95.2-28.52 130.46-10.14 9.93-20.58 18.92-32.33 26.77-10.74 7.18-20.94 14.42-32.6 20.22"/>
  </g>
</svg>
