<svg xmlns="http://www.w3.org/2000/svg" viewBox="0 0 400 400"><defs><clipPath id="a"><circle cx="200" cy="200" r="200" fill="none"/></clipPath></defs><g clip-path="url(#a)"><path fill="#d9232e" d="M0 0h400v400H0V0Z"/><path fill="#fff" d="m255.29 221.56 78.04-14.4-65.04-13.33 34.69-38.98-60.71 14.36 10.84-56.4-41.18 26.67-19.51-72.8-17.36 83.07-49.87-36.91 16.27 50.24-47.69-8.18 41.18 41.02-68.29 13.33 69.38 14.38-28.18 29.71 43.33-3.09-19.49 55.4 47.69-46.16 14.09 73.84 15.18-73.84 36.87 36.93-4.33-46.18 53.11 17.44-39.02-46.16v.02Zm-27.11-19.52c0 17.44-14.09 30.78-32.51 30.78s-32.53-13.33-32.53-30.78 14.11-30.76 32.53-30.76 32.51 13.33 32.51 30.76Z"/></g></svg>