<?xml version="1.0" encoding="utf-8"?>
<!-- Generator: Adobe Illustrator 28.0.0, SVG Export Plug-In . SVG Version: 6.00 Build 0)  -->
<svg version="1.1" id="Layer_1" xmlns="http://www.w3.org/2000/svg" xmlns:xlink="http://www.w3.org/1999/xlink" x="0px" y="0px"
	 viewBox="0 0 168.3 168.3" style="enable-background:new 0 0 168.3 168.3;" xml:space="preserve">
<style type="text/css">
	.st0{fill:#0E1326;}
	.st1{fill:#FFFFFF;}
</style>
<g id="Layer_2_00000062168567650413586180000014748095054596071303_">
	<g id="Layer_1-2">
		<path class="st0" d="M84.2,0L84.2,0c46.5,0,84.2,37.7,84.2,84.2l0,0c0,46.5-37.7,84.2-84.2,84.2l0,0C37.7,168.3,0,130.7,0,84.2
			l0,0C0,37.7,37.7,0,84.2,0z"/>
		<path class="st1" d="M38.1,89.3c-0.4-0.6-0.5-1.3-0.3-2l12.1-38.8c0.3-0.9,1.2-1.6,2.2-1.6h24.5c0.7,0,1.4,0.3,1.8,0.9
			c0.4,0.6,0.5,1.3,0.3,2L66.6,88.7c-0.3,1-1.2,1.6-2.2,1.6H39.9C39.2,90.3,38.5,89.9,38.1,89.3z"/>
		<path class="st1" d="M72.8,84.8c-0.4-0.6-0.5-1.3-0.3-2L79,62c0.3-1,1.2-1.6,2.2-1.6h15.5c0.7,0,1.4,0.3,1.8,0.9
			c0.4,0.6,0.5,1.3,0.3,2l-6.5,20.8c-0.3,1-1.2,1.6-2.2,1.6H74.7C73.9,85.7,73.3,85.4,72.8,84.8z"/>
		<path class="st1" d="M95.8,89.3c-0.4-0.6-0.5-1.3-0.3-2l12.1-38.8c0.3-1,1.2-1.6,2.2-1.6h24.5c0.7,0,1.4,0.3,1.8,0.9
			c0.4,0.6,0.5,1.3,0.3,2l-12.1,38.8c-0.3,1-1.2,1.6-2.2,1.6H97.7C97,90.3,96.3,89.9,95.8,89.3z"/>
		<path class="st1" d="M30.8,115.2c-0.4-0.6-0.5-1.3-0.3-2l4.9-15.6c0.3-0.9,1.2-1.6,2.2-1.6h81.3c1.3,0,2.3,1,2.3,2.2
			c0,0.3,0,0.5-0.1,0.8l-4.9,15.6c-0.3,1-1.2,1.6-2.2,1.6H32.6C31.9,116.2,31.2,115.8,30.8,115.2z"/>
	</g>
</g>
</svg>
