<svg width="2904" height="3079" viewBox="0 0 2904 3079" fill="none" xmlns="http://www.w3.org/2000/svg">
<path d="M1452.46 2423.92C1940.93 2423.92 2336.92 2027.93 2336.92 1539.46C2336.92 1050.99 1940.93 655 1452.46 655C963.987 655 568 1050.99 568 1539.46C568 2027.93 963.987 2423.92 1452.46 2423.92Z" fill="#075A5A"/>
<g style="mix-blend-mode:screen" opacity="0.3">
<path opacity="0.8" d="M1450.43 916.696L1450.43 1376.72L1839.24 1550.46L1450.43 916.696Z" fill="white"/>
<path d="M1450.43 916.676L1061.55 1550.44L1450.43 1376.69L1450.43 916.676Z" fill="white"/>
<path opacity="0.8" d="M1450.46 1848.68L1450.46 2161.27L1839.54 1622.96L1450.46 1848.68Z" fill="white"/>
<path d="M1450.46 2160.98L1450.46 1848.35L1061.59 1622.67L1450.46 2160.98Z" fill="white"/>
<path opacity="0.5" d="M1450.5 1776.33L1839.31 1550.56L1450.5 1376.93L1450.5 1776.33Z" fill="white"/>
<path d="M1061.7 1550.52L1450.58 1776.29L1450.58 1376.88L1061.7 1550.52Z" fill="white" fill-opacity="0.3"/>
</g>
<g style="mix-blend-mode:screen" opacity="0.3">
<path opacity="0.8" d="M1450.5 939.838L1450.5 1366.21L1810.87 1527.26L1450.5 939.838Z" fill="white"/>
<path d="M1450.32 939.874L1089.88 1527.29L1450.32 1366.25L1450.32 939.874Z" fill="white"/>
<path opacity="0.8" d="M1450.35 1869.53L1450.35 2127.82L1771.86 1683.01L1450.35 1869.53Z" fill="white"/>
<path d="M1450.31 2127.77L1450.31 1869.44L1128.98 1682.96L1450.31 2127.77Z" fill="white"/>
<path opacity="0.5" d="M1450.45 1761.79L1810.83 1552.53L1450.45 1391.59L1450.45 1761.79Z" fill="white"/>
<path d="M1089.85 1552.6L1450.29 1761.86L1450.29 1391.67L1089.85 1552.6Z" fill="white" fill-opacity="0.3"/>
</g>
<path d="M1450.56 1053.28L1450.56 1412.37L1754.06 1548L1450.56 1053.28Z" fill="#C1DCDC"/>
<path d="M1450.63 1053.29L1147.07 1548.01L1450.63 1412.38L1450.63 1053.29Z" fill="white"/>
<path d="M1450.57 1780.66L1450.57 2024.66L1754.29 1604.46L1450.57 1780.66Z" fill="#C1DCDC"/>
<path d="M1450.66 2024.7L1450.66 1780.66L1147.1 1604.5L1450.66 2024.7Z" fill="white"/>
<path opacity="0.5" d="M1450.57 1724.23L1754.07 1548L1450.57 1412.46L1450.57 1724.23Z" fill="white"/>
<path d="M1147.08 1548.02L1450.64 1724.25L1450.64 1412.48L1147.08 1548.02Z" fill="white" fill-opacity="0.3"/>
</svg>
