<?xml version="1.0" encoding="UTF-8" standalone="no"?>
<!DOCTYPE svg PUBLIC "-//W3C//DTD SVG 1.1//EN" "http://www.w3.org/Graphics/SVG/1.1/DTD/svg11.dtd">
<svg width="100%" height="100%" viewBox="0 0 89 51" version="1.1" xmlns="http://www.w3.org/2000/svg" xmlns:xlink="http://www.w3.org/1999/xlink" xml:space="preserve" xmlns:serif="http://www.serif.com/" style="fill-rule:evenodd;clip-rule:evenodd;stroke-linejoin:round;stroke-miterlimit:2;">
    <g transform="matrix(1,0,0,1,-322.271,-247.638)">
        <path d="M366.638,260.597L350.726,260.597L366.638,260.597Z" style="fill:rgb(243,203,255);fill-rule:nonzero;"/>
        <path d="M350.726,260.597L332.831,260.597L350.726,260.597Z" style="fill:rgb(243,203,255);fill-rule:nonzero;"/>
        <path d="M337.928,282.708L366.638,298.616L352.796,282.708L337.928,282.708Z" style="fill:rgb(161,20,20);fill-rule:nonzero;"/>
        <path d="M380.479,282.708L400.444,260.597L382.55,260.597L380.479,282.708Z" style="fill:rgb(161,20,20);fill-rule:nonzero;"/>
        <path d="M332.831,260.597L337.928,282.708L352.796,282.708L332.831,260.597Z" style="fill:rgb(237,30,30);fill-rule:nonzero;"/>
        <path d="M366.638,260.597L380.479,282.708L382.55,260.597L366.638,260.597Z" style="fill:rgb(198,25,25);fill-rule:nonzero;"/>
        <path d="M352.796,282.708L380.479,282.708L366.638,260.597L352.796,282.708Z" style="fill:rgb(237,30,30);fill-rule:nonzero;"/>
        <path d="M352.796,282.708L366.638,298.616L380.479,282.708L352.796,282.708Z" style="fill:rgb(198,25,25);fill-rule:nonzero;"/>
        <path d="M350.726,260.597L352.796,282.708L366.638,260.597L350.726,260.597Z" style="fill:rgb(255,86,86);fill-rule:nonzero;"/>
        <path d="M350.726,260.597L332.831,260.597L352.796,282.708L350.726,260.597Z" style="fill:rgb(255,127,127);fill-rule:nonzero;"/>
        <path d="M322.271,260.597L337.928,282.708L332.831,260.597L322.271,260.597Z" style="fill:rgb(198,25,25);fill-rule:nonzero;"/>
        <path d="M366.638,298.616L395.348,282.708L380.479,282.708L366.638,298.616Z" style="fill:rgb(161,20,20);fill-rule:nonzero;"/>
        <path d="M400.444,260.597L395.348,282.708L411.005,260.597L400.444,260.597Z" style="fill:rgb(161,20,20);fill-rule:nonzero;"/>
        <path d="M322.271,260.597L332.831,260.597L341.335,247.638L322.271,260.597Z" style="fill:rgb(255,170,170);fill-rule:nonzero;"/>
        <path d="M382.55,260.597L376.079,247.638L366.638,260.597L382.55,260.597Z" style="fill:rgb(255,86,86);fill-rule:nonzero;"/>
        <path d="M366.638,260.597L376.079,247.638L357.195,247.638L366.638,260.597Z" style="fill:rgb(255,127,127);fill-rule:nonzero;"/>
        <path d="M366.638,260.597L357.195,247.638L350.726,260.597L366.638,260.597Z" style="fill:rgb(255,170,170);fill-rule:nonzero;"/>
        <path d="M350.726,260.597L357.195,247.638L341.335,247.638L350.726,260.597Z" style="fill:rgb(255,219,219);fill-rule:nonzero;"/>
        <path d="M391.94,247.638L376.079,247.638L382.55,260.597L391.94,247.638Z" style="fill:rgb(218,28,28);fill-rule:nonzero;"/>
        <path d="M400.444,260.597L391.94,247.638L382.55,260.597L400.444,260.597Z" style="fill:rgb(237,30,30);fill-rule:nonzero;"/>
        <path d="M411.005,260.597L391.94,247.638L400.444,260.597L411.005,260.597Z" style="fill:rgb(218,28,28);fill-rule:nonzero;"/>
        <path d="M341.335,247.638L332.831,260.597L350.726,260.597L341.335,247.638Z" style="fill:rgb(255,203,203);fill-rule:nonzero;"/>
        <path d="M380.479,282.708L395.348,282.708L400.444,260.597L380.479,282.708Z" style="fill:rgb(237,30,30);fill-rule:nonzero;"/>
    </g>
</svg>
