<svg xmlns="http://www.w3.org/2000/svg" viewBox="0 0 400 400"><defs><clipPath id="a"><circle cx="200" cy="200" r="200" fill="none"/></clipPath></defs><g clip-path="url(#a)"><path fill="#5b5cf2" d="M0 0h400v400H0V0Z"/><path fill="#fff" d="M77.78 200c0-67.5 54.72-122.22 122.22-122.22S322.22 132.5 322.22 200 267.5 322.22 200 322.22 77.78 267.5 77.78 200ZM200 66.67c-73.64 0-133.33 59.7-133.33 133.33S126.37 333.33 200 333.33 333.33 273.63 333.33 200 273.63 66.67 200 66.67Zm15.56 120.44a49.6 49.6 0 0 1 19.11 11.11l1.11 1.11c9.63-12.46 11.11-29.4 3.78-43.33-3.78-6.89-9.33-12.67-16.44-16.67a45.97 45.97 0 0 0-23.11-6h-44.44v22.22h44.44c7.33 0 15.11 4.89 18.22 11.33 3.11 6.67 2.22 14.44-2.67 20v.22ZM200 189.33c-7.33 0-15.56 1.33-22.22 4.44v-31.11h-22.22v104h22.22V231.1c0-10.89 11.78-18.89 22-19.11 10.22.22 22.22 8.44 22.44 18.89v35.78h22.22V231.1c0-23.11-21.78-41.56-44.44-41.56v-.22Z"/></g></svg>