<svg width="212" height="212" viewBox="0 0 212 212" fill="none" xmlns="http://www.w3.org/2000/svg">
<path d="M105.56 211.12C163.859 211.12 211.12 163.859 211.12 105.56C211.12 47.2608 163.859 0 105.56 0C47.2608 0 0 47.2608 0 105.56C0 163.859 47.2608 211.12 105.56 211.12Z" fill="#7559FF"/>
<path d="M74.3562 146.279H74.3411C74.3506 143.267 75.7601 140.433 78.1533 138.61L85.3408 133.133C92.7962 127.452 98.079 119.382 100.305 110.271L100.472 109.587C103.859 95.7289 99.8329 81.0292 89.6568 71.0429C89.4759 70.8655 89.2936 70.6894 89.1095 70.5145V70.4917H89.0943C80.365 62.2008 68.5872 57.0726 55.5846 57.0044C54.7521 57.0006 53.6057 57.0189 52.7807 57.053V117.462C52.7076 131.475 58.5593 144.139 67.9886 153.095C73.7629 158.581 80.8733 162.679 88.7948 164.846L100.284 152.527C102.465 150.189 100.817 146.371 97.6212 146.36L74.3562 146.279Z" fill="white"/>
<path d="M136.764 146.277H136.779C136.77 143.265 135.36 140.43 132.967 138.608L125.779 133.132C118.324 127.45 113.041 119.38 110.815 110.269L110.648 109.585C107.262 95.7271 111.288 81.0274 121.464 71.0411C121.644 70.8637 121.827 70.6876 122.01 70.5127V70.4899H122.026C130.755 62.199 142.533 57.0708 155.535 57.0026C156.368 56.9982 157.514 57.0164 158.339 57.0505V117.459C158.413 131.472 152.561 144.136 143.132 153.093C137.357 158.578 130.247 162.677 122.325 164.844L110.836 152.524C108.655 150.186 110.304 146.369 113.499 146.357L136.764 146.277Z" fill="white"/>
</svg>
