<?xml version="1.0" encoding="utf-8"?>
<!-- Generator: Adobe Illustrator 27.8.0, SVG Export Plug-In . SVG Version: 6.00 Build 0)  -->
<svg version="1.1" xmlns="http://www.w3.org/2000/svg" xmlns:xlink="http://www.w3.org/1999/xlink" x="0px" y="0px"
	 viewBox="0 0 700 500" enable-background="new 0 0 700 500" xml:space="preserve">
<g id="Layer_1">
	<circle fill="#00E0CA" cx="485.8" cy="250" r="214.2"/>
	<path fill="#00262F" d="M384.3,353.3c10.4-8.2,20.4-15.9,31.7-24.5c-30.8-37.1-41.7-77-30.8-120.9c7.7-31.3,25.4-56.2,52.1-74.3
		c48-32.2,116.4-23.6,151.7,19.5c-9.1,9.5-18.1,19.5-27.6,29.4c62.1,79.3,24,163.5-24.5,194.3C488.5,407.2,417.4,398.6,384.3,353.3z
		 M418.7,325.6c25.4,27.2,64.8,31.7,95.1,11.3c16.3-10.9,26.7-25.4,32.6-43.9c9.1-29.9,0.5-56.2-17.7-80.2
		c10-10.4,19-19.9,28.1-29.4c-23.1-27.2-64.8-31.7-95.1-11.3c-39.4,26.7-44.4,68.8-14.5,124.1C437.3,306.2,428.2,315.7,418.7,325.6z
		"/>
</g>
<g id="Layer_2">
	<circle cx="218.8" cy="245.5" r="218.8"/>
	<path fill="#FFFFFF" d="M351.5,283.4l-44-76.2l-44-76.2c-21.9-37.9-76.5-37.9-98.4,0l-44,76.2l-44,76.2
		c-21.9,37.9,5.5,85.2,49.2,85.2h176.1C346,368.6,373.3,321.2,351.5,283.4L351.5,283.4z M297.8,343.7h-9.6
		c-34,0-61.5-27.5-61.5-61.5v-11.1c0-3.3,1.3-6.5,3.6-8.8l29-29c4.8-4.8,4.8-12.7,0-17.6l0,0c-4.8-4.8-12.7-4.8-17.6,0L223,234.6
		c-4.8,4.8-12.7,4.8-17.6,0l-18.7-18.7c-4.8-4.8-12.7-4.8-17.6,0l0,0c-4.9,4.9-4.8,12.7,0,17.6l29,29c2.3,2.3,3.6,5.5,3.6,8.8v11
		c0,34-27.5,61.5-61.5,61.5h-9.7c-26.9,0-43.7-29.1-30.3-52.4l41.8-72.4l41.8-72.4c13.4-23.3,47.1-23.3,60.5,0l41.8,72.4l41.8,72.4
		C341.5,314.6,324.7,343.7,297.8,343.7L297.8,343.7z"/>
</g>
</svg>
