<svg xmlns="http://www.w3.org/2000/svg" viewBox="0 0 400 400"><defs><clipPath id="a"><circle cx="200" cy="200" r="200" fill="none"/></clipPath></defs><g clip-path="url(#a)"><path fill="#e51937" d="M0 0h400v400H0V0Z"/><path fill="#fff" d="M311.11 200.16c0 61.51-49.76 110.96-111.56 110.96S88.88 261.36 88.88 200.16 138.63 89.05 199.99 89.05 311.1 138.8 311.1 200.16Zm-108.58-14.67c-6.93-5.38-10.53-7.71-17.49-7.71-12.36.31-19.78 8.93-19.78 21.29v16.44c0 4.53 2 6.71 5.6 6.71s5.73-1.89 5.73-6.09v-16.16c0-6.33 3.62-9.64 9.96-9.33 5.73 0 9.33 3.6 9.64 9.64v15.84c0 4.82 2.89 6.09 6.33 6.09s5.73-2.78 5.73-6.09v-14.96c0-6.31 3.91-10.53 9.96-10.22 6.02 0 9.24 3.91 9.56 10.53v14.33c0 3.56 2.67 6.4 6.31 6.4s5.56-2.96 5.56-6.09v-17.96c0-9.96-7.84-20.4-19.78-20.4s-17.33 7.73-17.33 7.73v-.02Zm-40.09 17.2v-18.58c0-3.91-2.11-6.02-5.73-6.33-20.51-1.8-40.67 8.64-50 27.33-2.13 4.22-3.02 6.49-3.93 11.33-.6 3 1.2 5.78 3.93 5.78h33.78c3.29 0 5.42-2.78 5.42-6.4s-2.33-4.44-6.56-4.44h-19c-2.11 0-2.4-.93-1.8-2.44 5.11-12.36 17.13-15.84 29.2-17.04 2.11-.29 3.73.47 3.73 2.58v21.96c.6 3.62 2.8 5.8 6.11 5.8 3.33-.31 5.13-2.64 5.13-6.56-.29-5.11-.29-12.98-.29-12.98Zm104.63 19.53c9.11 0 15.33-3.22 21.11-11.11 1.2-3.33 1.67-5.71-1.33-6.89-3.02-1.22-5.73-1.16-7.24 1.56-3.02 6.04-8.16 8.09-14.78 7.47-6.64-.89-10.89-5.42-11.18-12.07-.31-6.62 3.02-12.04 9.36-13.56 7.56-1.8 15.16.51 17.87 6.84.89 2.11 2.2 3.71 4.31 3.71 4.51.6 6.33-2.84 5.11-6.04-3.62-9.33-14.51-14.36-23.22-14.36-12.42 0-23.6 9.02-23.6 22.22 0 17.2 14.47 22.22 23.6 22.22Z"/></g></svg>