<?xml version="1.0" encoding="utf-8"?>
<!-- Generator: Adobe Illustrator 27.8.0, SVG Export Plug-In . SVG Version: 6.00 Build 0)  -->
<svg version="1.1" id="Layer_2_00000036235056047526316890000009605708398178500502_"
	 xmlns="http://www.w3.org/2000/svg" xmlns:xlink="http://www.w3.org/1999/xlink" x="0px" y="0px" viewBox="0 0 610.9 610.9"
	 enable-background="new 0 0 610.9 610.9" xml:space="preserve">
<g id="fish_token">
	<g id="fish_token_open">
		<circle fill="#233960" cx="305.4" cy="305.4" r="305.4"/>
		<g>
			<g>
				<path id="Fin_Back" fill="#1592FF" d="M162,327c-0.2,3.1-1.5,6-3.6,8.2c-19.3,20.3-102.6,237.2-68.6-24.5l0,0
					C41.2,54.4,137,258.1,160,281c2.6,2.6,4,6.1,3.8,9.7L162,327L162,327z"/>
				<path id="Body" fill="#1592FF" d="M140.6,316.8c-1.2-3.2-1.6-6.7-0.5-10.5c2.8-9.5,11.6-15.6,17.4-23.3c0.1-0.1,0.2-0.3,0.3-0.5
					c0.5-0.7,0.9-1.3,1.4-2c44.2-69.4,152.3-120.9,216.1-120.9c77.4,0,163.2,66.1,163.2,145.2s-94.8,146.4-172.1,146.4
					c-63.6,0-167.8-42.9-209.2-112.1c-1.7-2.9-3.6-5.7-5.9-8.1C147.1,326.8,142.7,322.2,140.6,316.8L140.6,316.8z"/>
				<path id="Fin_Side" fill="#2E6BD4" d="M300.7,288.7c4.4,1.8-2.6,13-0.6,18.2c6,15.6,15.2,10.7,10.6,16.7
					c-7.7,10-47.2,39.1-58.3,34.6c-1.7-0.7-3.4-2.2-5-4.2c-5.4-6.9-9.9-20.3-11-31.6c-0.1-1.1-0.2-2.2-0.2-3.3c0-0.8,0-1.5,0-2.2
					c0-4.6,0.9-8.5,2.7-10.9C246.5,296,289.7,284.2,300.7,288.7L300.7,288.7z"/>
			</g>
			<g>
				<g>
					<g>
						<path id="Mouth" fill="#233960" d="M477.5,317.4c13.9,5.6,23.2,31.3,12.1,45.7c-11.1,14.4-36.8,15.9-50.7,10.3
							c-13.9-5.6-34.7-25.6-23.6-40.1C426.4,318.9,463.6,311.8,477.5,317.4L477.5,317.4L477.5,317.4z"/>
						<ellipse id="Eyeball_Right" fill="#FFFFFF" cx="486.8" cy="275.9" rx="24.6" ry="24"/>
						<ellipse id="Eyeball_Left" fill="#FFFFFF" cx="409.3" cy="278" rx="24.6" ry="24"/>
					</g>
					<ellipse id="Iris_Left" cx="416" cy="287.9" rx="10" ry="9.5"/>
				</g>
				<ellipse id="Iris_Left-2" cx="494.2" cy="285.4" rx="10" ry="9.5"/>
			</g>
		</g>
	</g>
</g>
</svg>
